<?xml version="1.0" encoding="UTF-8"?>
<svg xmlns="http://www.w3.org/2000/svg" width="1400" height="900" viewBox="0 -3 75 53">
<rect x="0" y="-3" width="75" height="53" fill="white"/>
<text x="1.5" y="-1.35" font-size="1.15" fill="black">Parking | target row=2 idx=0 | success=true sim_ok=true | max_steer=35 deg | overshoot~=5 m | total(ref)~=3e+01 m</text>
<text x="1.5" y="-0.45" font-size="0.95" fill="black">ok</text>
<g transform="translate(0,50.000) scale(1,-1)">
<rect x="0" y="0" width="75.000" height="50.000" fill="none" stroke="black" stroke-width="0.15"/>
<rect x="0.000" y="9.000" width="75.000" height="6.000" fill="#add8e6" fill-opacity="0.25" stroke="#add8e6" stroke-width="0.08"/>
<rect x="0.000" y="34.500" width="75.000" height="6.000" fill="#add8e6" fill-opacity="0.25" stroke="#add8e6" stroke-width="0.08"/>
<rect x="36.000" y="12.000" width="6.000" height="25.500" fill="#90ee90" fill-opacity="0.25" stroke="#90ee90" stroke-width="0.08"/>
<rect x="12.000" y="44.000" width="4.800" height="6.000" fill="white" stroke="gray" stroke-width="0.080" fill-opacity="0.85"/>
<rect x="16.800" y="44.000" width="4.800" height="6.000" fill="white" stroke="gray" stroke-width="0.080" fill-opacity="0.85"/>
<rect x="21.600" y="44.000" width="4.800" height="6.000" fill="black" stroke="gray" stroke-width="0.080" fill-opacity="0.95"/>
<rect x="26.400" y="44.000" width="4.800" height="6.000" fill="black" stroke="gray" stroke-width="0.080" fill-opacity="0.95"/>
<rect x="31.200" y="44.000" width="4.800" height="6.000" fill="white" stroke="gray" stroke-width="0.080" fill-opacity="0.85"/>
<rect x="12.000" y="25.000" width="4.800" height="6.000" fill="black" stroke="gray" stroke-width="0.080" fill-opacity="0.95"/>
<rect x="16.800" y="25.000" width="4.800" height="6.000" fill="black" stroke="gray" stroke-width="0.080" fill-opacity="0.95"/>
<rect x="21.600" y="25.000" width="4.800" height="6.000" fill="black" stroke="gray" stroke-width="0.080" fill-opacity="0.95"/>
<rect x="26.400" y="25.000" width="4.800" height="6.000" fill="white" stroke="gray" stroke-width="0.080" fill-opacity="0.85"/>
<rect x="31.200" y="25.000" width="4.800" height="6.000" fill="white" stroke="gray" stroke-width="0.080" fill-opacity="0.85"/>
<rect x="12.000" y="19.000" width="4.800" height="6.000" fill="#98fb98" stroke="darkgreen" stroke-width="0.180" fill-opacity="0.85"/>
<rect x="16.800" y="19.000" width="4.800" height="6.000" fill="white" stroke="gray" stroke-width="0.080" fill-opacity="0.85"/>
<rect x="21.600" y="19.000" width="4.800" height="6.000" fill="white" stroke="gray" stroke-width="0.080" fill-opacity="0.85"/>
<rect x="26.400" y="19.000" width="4.800" height="6.000" fill="white" stroke="gray" stroke-width="0.080" fill-opacity="0.85"/>
<rect x="31.200" y="19.000" width="4.800" height="6.000" fill="black" stroke="gray" stroke-width="0.080" fill-opacity="0.95"/>
<rect x="12.000" y="0.000" width="4.800" height="6.000" fill="white" stroke="gray" stroke-width="0.080" fill-opacity="0.85"/>
<rect x="16.800" y="0.000" width="4.800" height="6.000" fill="white" stroke="gray" stroke-width="0.080" fill-opacity="0.85"/>
<rect x="21.600" y="0.000" width="4.800" height="6.000" fill="black" stroke="gray" stroke-width="0.080" fill-opacity="0.95"/>
<rect x="26.400" y="0.000" width="4.800" height="6.000" fill="white" stroke="gray" stroke-width="0.080" fill-opacity="0.85"/>
<rect x="31.200" y="0.000" width="4.800" height="6.000" fill="black" stroke="gray" stroke-width="0.080" fill-opacity="0.95"/>
<polygon fill="none" stroke="navy" stroke-width="0.120" points="6.400,13.000 6.400,11.000 1.600,11.000 1.600,13.000"/>
<polygon fill="purple" points="11.620,12.000 11.900,12.350 12.180,12.000 11.900,11.650"/>
<circle cx="19.200" cy="12.000" r="0.38" fill="darkviolet" stroke="indigo" stroke-width="0.06"/>
<polyline fill="none" stroke="#808080" stroke-width="0.120" stroke-opacity="0.65" stroke-dasharray="0.45 0.35" points="4.000,12.000 11.900,12.000 19.200,12.000"/>
<polyline fill="none" stroke="#808080" stroke-width="0.120" stroke-opacity="0.65" stroke-dasharray="0.45 0.35" points="19.200,12.000 19.026,12.180 18.855,12.364 18.689,12.553 18.526,12.747 18.366,12.944 18.211,13.146 18.059,13.351 17.911,13.559 17.766,13.771 17.625,13.987 17.487,14.205 17.352,14.425 17.221,14.649 17.093,14.874 16.968,15.102 16.847,15.332 16.728,15.563 16.613,15.796 16.501,16.030 16.391,16.265 16.285,16.501 16.182,16.738 16.081,16.976 15.983,17.213 15.888,17.451 15.796,17.689 15.706,17.926 15.619,18.163 15.535,18.399 15.453,18.635 15.374,18.869 15.297,19.102 15.222,19.333 15.150,19.563 15.080,19.790 15.012,20.016 14.946,20.239 14.883,20.460 14.821,20.678 14.762,20.893 14.705,21.105 14.649,21.314 14.596,21.519 14.544,21.720 14.494,21.918 14.446,22.111 14.400,22.300"/>
<polyline fill="none" stroke="#1f77b4" stroke-width="0.220" stroke-opacity="0.95" points="4.008,12.000 4.022,12.000 4.043,12.000 4.070,12.000 4.102,12.000 4.138,12.000 4.179,12.000 4.223,12.000 4.270,12.000 4.321,12.000 4.374,12.000 4.429,12.000 4.487,12.000 4.547,12.000 4.609,12.000 4.672,12.000 4.736,12.000 4.802,12.000 4.869,12.000 4.937,12.000 5.006,12.000 5.076,12.000 5.147,12.000 5.218,12.000 5.290,12.000 5.363,12.000 5.436,12.000 5.509,12.000 5.583,12.000 5.657,12.000 5.732,12.000 5.806,12.000 5.882,12.000 5.957,12.000 6.032,12.000 6.108,12.000 6.184,12.000 6.260,12.000 6.336,12.000 6.413,12.000 6.489,12.000 6.566,12.000 6.643,12.000 6.719,12.000 6.796,12.000 6.873,12.000 6.950,12.000 7.027,12.000 7.104,12.000 7.181,12.000 7.258,12.000 7.335,12.000 7.413,12.000 7.490,12.000 7.567,12.000 7.644,12.000 7.722,12.000 7.799,12.000 7.876,12.000 7.954,12.000 8.031,12.000 8.109,12.000 8.186,12.000 8.263,12.000 8.341,12.000 8.418,12.000 8.496,12.000 8.573,12.000 8.650,12.000 8.728,12.000 8.805,12.000 8.883,12.000 8.960,12.000 9.038,12.000 9.115,12.000 9.193,12.000 9.270,12.000 9.348,12.000 9.425,12.000 9.503,12.000 9.580,12.000 9.658,12.000 9.735,12.000 9.813,12.000 9.890,12.000 9.968,12.000 10.045,12.000 10.123,12.000 10.200,12.000 10.278,12.000 10.355,12.000 10.433,12.000 10.510,12.000 10.588,12.000 10.665,12.000 10.743,12.000 10.820,12.000 10.898,12.000 10.975,12.000 11.053,12.000 11.130,12.000 11.208,12.000 11.285,12.000 11.363,12.000 11.440,12.000 11.518,12.000 11.595,12.000 11.673,12.000 11.750,12.000 11.828,12.000 11.905,12.000 11.983,12.000 12.060,12.000 12.138,12.000 12.215,12.000 12.293,12.000 12.370,12.000 12.448,12.000 12.525,12.000 12.603,12.000 12.680,12.000 12.758,12.000 12.835,12.000 12.913,12.000 12.990,12.000 13.068,12.000 13.145,12.000 13.223,12.000 13.300,12.000 13.378,12.000 13.455,12.000 13.533,12.000 13.610,12.000 13.688,12.000 13.765,12.000 13.843,12.000 13.920,12.000 13.998,12.000 14.075,12.000 14.153,12.000 14.230,12.000 14.308,12.000 14.385,12.000 14.463,12.000 14.540,12.000 14.618,12.000 14.695,12.000 14.773,12.000 14.850,12.000 14.928,12.000 15.005,12.000 15.083,12.000 15.160,12.000 15.238,12.000 15.315,12.000 15.392,12.000 15.469,12.000 15.545,12.000 15.621,12.000 15.696,12.000 15.771,12.000 15.845,12.000 15.917,12.000 15.989,12.000 16.060,12.000 16.130,12.000 16.199,12.000 16.267,12.000 16.333,12.000 16.399,12.000 16.463,12.000 16.527,12.000 16.589,12.000 16.650,12.000 16.710,12.000 16.768,12.000 16.826,12.000 16.882,12.000 16.938,12.000 16.992,12.000 17.045,12.000 17.096,12.000 17.147,12.000 17.197,12.000 17.245,12.000 17.293,12.000 17.339,12.000 17.385,12.000 17.429,12.000 17.472,12.000 17.515,12.000 17.556,12.000 17.597,12.000 17.636,12.000 17.675,12.000 17.712,12.000 17.749,12.000 17.785,12.000 17.820,12.000 17.854,12.000 17.888,12.000 17.920,12.000 17.952,12.000 17.983,12.000 18.014,12.000 18.043,12.000 18.072,12.000 18.100,12.000 18.128,12.000 18.155,12.000 18.181,12.000 18.206,12.000 18.231,12.000 18.256,12.000 18.279,12.000 18.302,12.000 18.325,12.000 18.347,12.000 18.368,12.000 18.390,12.000 18.410,12.000 18.431,12.000 18.451,12.000 18.471,12.000 18.491,12.000 18.510,12.000 18.529,12.000 18.548,12.000 18.567,12.000 18.586,12.000 18.605,12.000 18.623,12.000 18.642,12.000 18.660,12.000"/>
<polyline fill="none" stroke="#ff7f0e" stroke-width="0.220" stroke-opacity="0.95" points="18.656,12.000 18.649,12.000 18.639,12.000 18.626,12.000 18.611,12.000 18.593,12.000 18.574,12.000 18.552,12.000 18.529,12.001 18.505,12.001 18.479,12.002 18.452,12.003 18.424,12.004 18.395,12.005 18.366,12.007 18.335,12.009 18.304,12.011 18.272,12.013 18.240,12.016 18.207,12.019 18.174,12.023 18.140,12.026 18.106,12.030 18.072,12.035 18.038,12.040 18.003,12.045 17.968,12.050 17.933,12.056 17.898,12.062 17.863,12.069 17.827,12.076 17.792,12.083 17.756,12.091 17.721,12.099 17.685,12.107 17.649,12.116 17.614,12.125 17.578,12.134 17.543,12.144 17.507,12.154 17.472,12.165 17.436,12.175 17.401,12.187 17.366,12.198 17.330,12.210 17.295,12.222 17.260,12.235 17.225,12.248 17.190,12.261 17.156,12.275 17.121,12.289 17.087,12.303 17.052,12.318 17.018,12.333 16.984,12.348 16.950,12.364 16.916,12.380 16.882,12.396 16.849,12.413 16.816,12.430 16.782,12.447 16.749,12.465 16.717,12.483 16.684,12.501 16.651,12.520 16.619,12.539 16.587,12.558 16.555,12.577 16.523,12.597 16.492,12.617 16.460,12.638 16.429,12.659 16.398,12.680 16.367,12.701 16.337,12.723 16.306,12.745 16.276,12.767 16.246,12.790 16.216,12.813 16.187,12.836 16.158,12.859 16.129,12.883 16.100,12.907 16.071,12.931 16.043,12.956 16.015,12.981 15.987,13.006 15.959,13.031 15.932,13.057 15.905,13.083 15.878,13.109 15.852,13.135 15.825,13.162 15.799,13.189 15.773,13.216 15.748,13.243 15.722,13.271 15.697,13.299 15.673,13.327 15.648,13.356 15.624,13.384 15.600,13.413 15.577,13.442 15.553,13.472 15.530,13.501 15.507,13.531 15.485,13.561 15.463,13.591 15.441,13.622 15.419,13.653 15.398,13.683 15.377,13.714 15.356,13.746 15.336,13.777 15.316,13.809 15.296,13.841 15.277,13.873 15.258,13.905 15.239,13.938 15.220,13.970 15.202,14.003 15.184,14.036 15.167,14.069 15.149,14.102 15.132,14.136 15.116,14.169 15.100,14.203 15.084,14.237 15.068,14.271 15.053,14.306 15.038,14.340 15.023,14.375 15.009,14.409 14.995,14.444 14.982,14.479 14.968,14.514 14.956,14.549 14.943,14.585 14.931,14.620 14.919,14.656 14.907,14.691 14.896,14.727 14.885,14.763 14.875,14.799 14.865,14.835 14.855,14.871 14.846,14.908 14.837,14.944 14.828,14.981 14.820,15.017 14.812,15.054 14.804,15.090 14.797,15.127 14.790,15.164 14.783,15.201 14.777,15.238 14.771,15.275 14.766,15.312 14.761,15.349 14.756,15.387 14.751,15.424 14.747,15.461 14.744,15.498 14.740,15.536 14.737,15.573 14.735,15.610 14.733,15.648 14.731,15.685 14.729,15.723 14.728,15.760 14.727,15.798 14.726,15.835 14.726,15.873 14.726,15.910 14.726,15.948 14.727,15.985 14.727,16.023 14.727,16.060 14.728,16.098 14.729,16.135 14.729,16.173 14.730,16.210 14.730,16.248 14.731,16.285 14.732,16.323 14.732,16.360 14.733,16.398 14.733,16.435 14.734,16.473 14.734,16.510 14.735,16.548 14.736,16.585 14.736,16.623 14.737,16.660 14.737,16.698 14.738,16.735 14.738,16.773 14.739,16.810 14.740,16.848 14.740,16.885 14.741,16.923 14.741,16.960 14.742,16.998 14.743,17.035 14.743,17.073 14.744,17.110 14.744,17.148 14.745,17.185 14.745,17.223 14.746,17.260 14.747,17.298 14.747,17.335 14.748,17.373 14.748,17.410 14.749,17.448 14.750,17.485 14.750,17.523 14.751,17.560 14.751,17.598 14.752,17.635 14.752,17.673 14.753,17.710 14.754,17.748 14.754,17.785 14.755,17.823 14.755,17.860 14.756,17.898 14.757,17.935 14.757,17.973 14.758,18.010 14.758,18.048 14.759,18.085 14.759,18.123 14.760,18.160 14.761,18.198 14.761,18.235 14.762,18.273 14.762,18.310 14.763,18.348 14.763,18.385 14.764,18.422 14.765,18.460 14.765,18.497 14.766,18.534 14.766,18.571 14.767,18.608 14.768,18.644 14.768,18.680 14.769,18.717 14.769,18.752 14.770,18.788 14.770,18.823 14.771,18.859 14.771,18.893 14.772,18.928 14.772,18.962 14.773,18.996 14.773,19.030 14.774,19.063 14.775,19.097 14.775,19.129 14.776,19.162 14.776,19.194 14.777,19.226 14.777,19.258 14.778,19.289 14.778,19.320 14.778,19.351 14.779,19.382 14.779,19.412 14.780,19.442 14.780,19.471 14.781,19.501 14.781,19.530 14.782,19.559 14.782,19.587 14.783,19.615 14.783,19.643 14.783,19.671 14.784,19.698 14.784,19.725 14.785,19.752 14.785,19.779 14.786,19.805 14.786,19.831 14.786,19.857 14.787,19.882 14.787,19.908 14.787,19.933 14.788,19.958 14.788,19.982 14.789,20.006 14.789,20.030 14.789,20.054 14.790,20.078 14.790,20.101 14.790,20.124 14.791,20.147 14.791,20.169 14.792,20.192 14.792,20.214 14.792,20.236 14.793,20.257 14.793,20.279 14.793,20.300 14.794,20.321 14.794,20.342 14.794,20.363 14.794,20.383 14.795,20.403 14.795,20.423 14.795,20.443 14.796,20.463 14.796,20.482 14.796,20.501 14.797,20.520 14.797,20.539 14.797,20.558 14.797,20.577 14.798,20.595 14.798,20.613 14.798,20.632 14.799,20.650 14.799,20.668 14.799,20.686 14.799,20.704 14.800,20.722 14.800,20.740 14.800,20.758 14.801,20.776 14.801,20.794 14.801,20.812 14.801,20.829 14.802,20.847 14.802,20.865 14.802,20.882 14.802,20.900 14.803,20.918 14.803,20.935 14.803,20.953 14.804,20.971 14.804,20.988 14.804,21.006 14.804,21.023 14.805,21.041 14.805,21.058 14.805,21.076 14.805,21.094 14.806,21.111 14.806,21.129 14.806,21.146 14.807,21.164 14.807,21.181 14.807,21.199 14.807,21.216 14.808,21.234 14.808,21.251 14.808,21.269 14.808,21.286 14.809,21.304 14.809,21.321 14.809,21.339 14.810,21.356 14.810,21.374 14.810,21.391 14.810,21.409 14.811,21.426 14.811,21.444 14.811,21.461 14.811,21.479 14.812,21.496 14.812,21.514 14.812,21.531 14.813,21.549 14.813,21.566 14.813,21.584 14.813,21.601 14.814,21.619 14.814,21.636 14.814,21.654 14.814,21.671 14.815,21.689 14.815,21.706 14.815,21.724 14.816,21.741 14.816,21.759 14.816,21.776 14.816,21.794 14.817,21.811 14.817,21.829 14.817,21.846 14.817,21.864 14.818,21.881 14.818,21.899 14.818,21.916 14.819,21.934 14.819,21.951 14.819,21.969 14.819,21.986 14.820,22.004 14.820,22.021 14.820,22.039 14.820,22.056 14.821,22.074 14.821,22.091 14.821,22.109 14.822,22.126 14.822,22.144 14.822,22.161 14.822,22.179 14.823,22.196 14.823,22.214 14.823,22.231 14.823,22.249 14.824,22.266"/>
<polygon fill="#1f77b4" fill-opacity="0.140" stroke="#1f77b4" stroke-opacity="0.55" stroke-width="0.07" points="6.408,13.000 6.408,11.000 1.608,11.000 1.608,13.000"/>
<polygon fill="#1f77b4" fill-opacity="0.140" stroke="#1f77b4" stroke-opacity="0.55" stroke-width="0.07" points="7.269,13.000 7.269,11.000 2.469,11.000 2.469,13.000"/>
<polygon fill="#1f77b4" fill-opacity="0.140" stroke="#1f77b4" stroke-opacity="0.55" stroke-width="0.07" points="8.584,13.000 8.584,11.000 3.784,11.000 3.784,13.000"/>
<polygon fill="#1f77b4" fill-opacity="0.140" stroke="#1f77b4" stroke-opacity="0.55" stroke-width="0.07" points="9.967,13.000 9.967,11.000 5.167,11.000 5.167,13.000"/>
<polygon fill="#1f77b4" fill-opacity="0.140" stroke="#1f77b4" stroke-opacity="0.55" stroke-width="0.07" points="11.360,13.000 11.360,11.000 6.560,11.000 6.560,13.000"/>
<polygon fill="#1f77b4" fill-opacity="0.140" stroke="#1f77b4" stroke-opacity="0.55" stroke-width="0.07" points="12.755,13.000 12.755,11.000 7.955,11.000 7.955,13.000"/>
<polygon fill="#1f77b4" fill-opacity="0.140" stroke="#1f77b4" stroke-opacity="0.55" stroke-width="0.07" points="14.150,13.000 14.150,11.000 9.350,11.000 9.350,13.000"/>
<polygon fill="#1f77b4" fill-opacity="0.140" stroke="#1f77b4" stroke-opacity="0.55" stroke-width="0.07" points="15.545,13.000 15.545,11.000 10.745,11.000 10.745,13.000"/>
<polygon fill="#1f77b4" fill-opacity="0.140" stroke="#1f77b4" stroke-opacity="0.55" stroke-width="0.07" points="16.940,13.000 16.940,11.000 12.140,11.000 12.140,13.000"/>
<polygon fill="#1f77b4" fill-opacity="0.140" stroke="#1f77b4" stroke-opacity="0.55" stroke-width="0.07" points="18.317,13.000 18.317,11.000 13.517,11.000 13.517,13.000"/>
<polygon fill="#1f77b4" fill-opacity="0.140" stroke="#1f77b4" stroke-opacity="0.55" stroke-width="0.07" points="19.445,13.000 19.445,11.000 14.645,11.000 14.645,13.000"/>
<polygon fill="#1f77b4" fill-opacity="0.140" stroke="#1f77b4" stroke-opacity="0.55" stroke-width="0.07" points="20.220,13.000 20.220,11.000 15.420,11.000 15.420,13.000"/>
<polygon fill="#1f77b4" fill-opacity="0.140" stroke="#1f77b4" stroke-opacity="0.55" stroke-width="0.07" points="20.725,13.000 20.725,11.000 15.925,11.000 15.925,13.000"/>
<polygon fill="#1f77b4" fill-opacity="0.140" stroke="#1f77b4" stroke-opacity="0.55" stroke-width="0.07" points="21.060,13.000 21.060,11.000 16.260,11.000 16.260,13.000"/>
<polygon fill="#ff7f0e" fill-opacity="0.160" stroke="#ff7f0e" stroke-opacity="0.55" stroke-width="0.07" points="21.056,13.000 21.056,11.000 16.256,11.000 16.256,13.000"/>
<polygon fill="#ff7f0e" fill-opacity="0.160" stroke="#ff7f0e" stroke-opacity="0.55" stroke-width="0.07" points="20.723,12.786 20.536,10.795 15.757,11.246 15.944,13.237"/>
<polygon fill="#ff7f0e" fill-opacity="0.160" stroke="#ff7f0e" stroke-opacity="0.55" stroke-width="0.07" points="20.190,12.477 19.678,10.543 15.038,11.773 15.550,13.706"/>
<polygon fill="#ff7f0e" fill-opacity="0.160" stroke="#ff7f0e" stroke-opacity="0.55" stroke-width="0.07" points="19.582,12.250 18.744,10.434 14.386,12.446 15.224,14.262"/>
<polygon fill="#ff7f0e" fill-opacity="0.160" stroke="#ff7f0e" stroke-opacity="0.55" stroke-width="0.07" points="18.939,12.131 17.798,10.489 13.856,13.228 14.998,14.871"/>
<polygon fill="#ff7f0e" fill-opacity="0.160" stroke="#ff7f0e" stroke-opacity="0.55" stroke-width="0.07" points="18.285,12.126 16.875,10.708 13.471,14.091 14.881,15.510"/>
<polygon fill="#ff7f0e" fill-opacity="0.160" stroke="#ff7f0e" stroke-opacity="0.55" stroke-width="0.07" points="17.640,12.235 16.005,11.084 13.242,15.009 14.877,16.160"/>
<polygon fill="#ff7f0e" fill-opacity="0.160" stroke="#ff7f0e" stroke-opacity="0.55" stroke-width="0.07" points="17.024,12.455 15.213,11.606 13.175,15.952 14.986,16.801"/>
<polygon fill="#ff7f0e" fill-opacity="0.160" stroke="#ff7f0e" stroke-opacity="0.55" stroke-width="0.07" points="16.455,12.778 14.524,12.258 13.275,16.892 15.206,17.413"/>
<polygon fill="#ff7f0e" fill-opacity="0.160" stroke="#ff7f0e" stroke-opacity="0.55" stroke-width="0.07" points="15.952,13.196 13.960,13.019 13.535,17.800 15.527,17.977"/>
<polygon fill="#ff7f0e" fill-opacity="0.160" stroke="#ff7f0e" stroke-opacity="0.55" stroke-width="0.07" points="15.692,13.758 13.692,13.789 13.767,18.588 15.766,18.557"/>
<polygon fill="#ff7f0e" fill-opacity="0.160" stroke="#ff7f0e" stroke-opacity="0.55" stroke-width="0.07" points="15.702,14.432 13.703,14.463 13.777,19.263 15.777,19.232"/>
<polygon fill="#ff7f0e" fill-opacity="0.160" stroke="#ff7f0e" stroke-opacity="0.55" stroke-width="0.07" points="15.713,15.107 13.713,15.138 13.787,19.938 15.787,19.907"/>
<polygon fill="#ff7f0e" fill-opacity="0.160" stroke="#ff7f0e" stroke-opacity="0.55" stroke-width="0.07" points="15.723,15.782 13.723,15.813 13.798,20.613 15.798,20.582"/>
<polygon fill="#ff7f0e" fill-opacity="0.160" stroke="#ff7f0e" stroke-opacity="0.55" stroke-width="0.07" points="15.733,16.443 13.734,16.474 13.808,21.274 15.808,21.243"/>
<polygon fill="#ff7f0e" fill-opacity="0.160" stroke="#ff7f0e" stroke-opacity="0.55" stroke-width="0.07" points="15.743,17.027 13.743,17.058 13.817,21.857 15.817,21.826"/>
<polygon fill="#ff7f0e" fill-opacity="0.160" stroke="#ff7f0e" stroke-opacity="0.55" stroke-width="0.07" points="15.750,17.518 13.750,17.549 13.825,22.348 15.825,22.317"/>
<polygon fill="#ff7f0e" fill-opacity="0.160" stroke="#ff7f0e" stroke-opacity="0.55" stroke-width="0.07" points="15.757,17.927 13.757,17.958 13.831,22.757 15.831,22.726"/>
<polygon fill="#ff7f0e" fill-opacity="0.160" stroke="#ff7f0e" stroke-opacity="0.55" stroke-width="0.07" points="15.762,18.271 13.762,18.302 13.837,23.101 15.836,23.070"/>
<polygon fill="#ff7f0e" fill-opacity="0.160" stroke="#ff7f0e" stroke-opacity="0.55" stroke-width="0.07" points="15.767,18.591 13.767,18.622 13.841,23.421 15.841,23.390"/>
<polygon fill="#ff7f0e" fill-opacity="0.160" stroke="#ff7f0e" stroke-opacity="0.55" stroke-width="0.07" points="15.772,18.906 13.772,18.937 13.846,23.737 15.846,23.706"/>
<polygon fill="#ff7f0e" fill-opacity="0.160" stroke="#ff7f0e" stroke-opacity="0.55" stroke-width="0.07" points="15.777,19.221 13.777,19.252 13.851,24.052 15.851,24.021"/>
<polygon fill="#ff7f0e" fill-opacity="0.160" stroke="#ff7f0e" stroke-opacity="0.55" stroke-width="0.07" points="15.781,19.536 13.782,19.567 13.856,24.367 15.856,24.336"/>
<polygon fill="#ff7f0e" fill-opacity="0.160" stroke="#ff7f0e" stroke-opacity="0.55" stroke-width="0.07" points="15.786,19.851 13.787,19.882 13.861,24.682 15.861,24.651"/>
<polygon fill="#ff7f0e" fill-opacity="0.160" stroke="#ff7f0e" stroke-opacity="0.55" stroke-width="0.07" points="15.786,19.851 13.787,19.882 13.861,24.682 15.861,24.651"/>
<polygon fill="none" stroke="crimson" stroke-width="0.120" points="15.786,19.851 13.787,19.882 13.861,24.682 15.861,24.651"/>
</g>
</svg>
