<?xml version="1.0" encoding="UTF-8"?>
<svg xmlns="http://www.w3.org/2000/svg" width="1400" height="900" viewBox="0 -3 75 53">
<rect x="0" y="-3" width="75" height="53" fill="white"/>
<text x="1.5" y="-1.35" font-size="1.15" fill="black">Parking | target row=1 idx=9 | success=true sim_ok=true | max_steer=35 deg | overshoot~=5 m | total(ref)~=1e+02 m</text>
<text x="1.5" y="-0.45" font-size="0.95" fill="black">ok</text>
<g transform="translate(0,50.000) scale(1,-1)">
<rect x="0" y="0" width="75.000" height="50.000" fill="none" stroke="black" stroke-width="0.15"/>
<rect x="0.000" y="9.000" width="75.000" height="6.000" fill="#add8e6" fill-opacity="0.25" stroke="#add8e6" stroke-width="0.08"/>
<rect x="0.000" y="34.500" width="75.000" height="6.000" fill="#add8e6" fill-opacity="0.25" stroke="#add8e6" stroke-width="0.08"/>
<rect x="60.000" y="12.000" width="6.000" height="25.500" fill="#90ee90" fill-opacity="0.25" stroke="#90ee90" stroke-width="0.08"/>
<rect x="12.000" y="44.000" width="4.800" height="6.000" fill="white" stroke="gray" stroke-width="0.080" fill-opacity="0.85"/>
<rect x="16.800" y="44.000" width="4.800" height="6.000" fill="white" stroke="gray" stroke-width="0.080" fill-opacity="0.85"/>
<rect x="21.600" y="44.000" width="4.800" height="6.000" fill="black" stroke="gray" stroke-width="0.080" fill-opacity="0.95"/>
<rect x="26.400" y="44.000" width="4.800" height="6.000" fill="black" stroke="gray" stroke-width="0.080" fill-opacity="0.95"/>
<rect x="31.200" y="44.000" width="4.800" height="6.000" fill="white" stroke="gray" stroke-width="0.080" fill-opacity="0.85"/>
<rect x="36.000" y="44.000" width="4.800" height="6.000" fill="white" stroke="gray" stroke-width="0.080" fill-opacity="0.85"/>
<rect x="40.800" y="44.000" width="4.800" height="6.000" fill="white" stroke="gray" stroke-width="0.080" fill-opacity="0.85"/>
<rect x="45.600" y="44.000" width="4.800" height="6.000" fill="white" stroke="gray" stroke-width="0.080" fill-opacity="0.85"/>
<rect x="50.400" y="44.000" width="4.800" height="6.000" fill="black" stroke="gray" stroke-width="0.080" fill-opacity="0.95"/>
<rect x="55.200" y="44.000" width="4.800" height="6.000" fill="white" stroke="gray" stroke-width="0.080" fill-opacity="0.85"/>
<rect x="12.000" y="25.000" width="4.800" height="6.000" fill="black" stroke="gray" stroke-width="0.080" fill-opacity="0.95"/>
<rect x="16.800" y="25.000" width="4.800" height="6.000" fill="black" stroke="gray" stroke-width="0.080" fill-opacity="0.95"/>
<rect x="21.600" y="25.000" width="4.800" height="6.000" fill="black" stroke="gray" stroke-width="0.080" fill-opacity="0.95"/>
<rect x="26.400" y="25.000" width="4.800" height="6.000" fill="white" stroke="gray" stroke-width="0.080" fill-opacity="0.85"/>
<rect x="31.200" y="25.000" width="4.800" height="6.000" fill="white" stroke="gray" stroke-width="0.080" fill-opacity="0.85"/>
<rect x="36.000" y="25.000" width="4.800" height="6.000" fill="black" stroke="gray" stroke-width="0.080" fill-opacity="0.95"/>
<rect x="40.800" y="25.000" width="4.800" height="6.000" fill="white" stroke="gray" stroke-width="0.080" fill-opacity="0.85"/>
<rect x="45.600" y="25.000" width="4.800" height="6.000" fill="black" stroke="gray" stroke-width="0.080" fill-opacity="0.95"/>
<rect x="50.400" y="25.000" width="4.800" height="6.000" fill="white" stroke="gray" stroke-width="0.080" fill-opacity="0.85"/>
<rect x="55.200" y="25.000" width="4.800" height="6.000" fill="#98fb98" stroke="darkgreen" stroke-width="0.180" fill-opacity="0.85"/>
<rect x="12.000" y="19.000" width="4.800" height="6.000" fill="white" stroke="gray" stroke-width="0.080" fill-opacity="0.85"/>
<rect x="16.800" y="19.000" width="4.800" height="6.000" fill="white" stroke="gray" stroke-width="0.080" fill-opacity="0.85"/>
<rect x="21.600" y="19.000" width="4.800" height="6.000" fill="white" stroke="gray" stroke-width="0.080" fill-opacity="0.85"/>
<rect x="26.400" y="19.000" width="4.800" height="6.000" fill="white" stroke="gray" stroke-width="0.080" fill-opacity="0.85"/>
<rect x="31.200" y="19.000" width="4.800" height="6.000" fill="black" stroke="gray" stroke-width="0.080" fill-opacity="0.95"/>
<rect x="36.000" y="19.000" width="4.800" height="6.000" fill="white" stroke="gray" stroke-width="0.080" fill-opacity="0.85"/>
<rect x="40.800" y="19.000" width="4.800" height="6.000" fill="white" stroke="gray" stroke-width="0.080" fill-opacity="0.85"/>
<rect x="45.600" y="19.000" width="4.800" height="6.000" fill="white" stroke="gray" stroke-width="0.080" fill-opacity="0.85"/>
<rect x="50.400" y="19.000" width="4.800" height="6.000" fill="black" stroke="gray" stroke-width="0.080" fill-opacity="0.95"/>
<rect x="55.200" y="19.000" width="4.800" height="6.000" fill="white" stroke="gray" stroke-width="0.080" fill-opacity="0.85"/>
<rect x="12.000" y="0.000" width="4.800" height="6.000" fill="white" stroke="gray" stroke-width="0.080" fill-opacity="0.85"/>
<rect x="16.800" y="0.000" width="4.800" height="6.000" fill="white" stroke="gray" stroke-width="0.080" fill-opacity="0.85"/>
<rect x="21.600" y="0.000" width="4.800" height="6.000" fill="black" stroke="gray" stroke-width="0.080" fill-opacity="0.95"/>
<rect x="26.400" y="0.000" width="4.800" height="6.000" fill="white" stroke="gray" stroke-width="0.080" fill-opacity="0.85"/>
<rect x="31.200" y="0.000" width="4.800" height="6.000" fill="black" stroke="gray" stroke-width="0.080" fill-opacity="0.95"/>
<rect x="36.000" y="0.000" width="4.800" height="6.000" fill="white" stroke="gray" stroke-width="0.080" fill-opacity="0.85"/>
<rect x="40.800" y="0.000" width="4.800" height="6.000" fill="black" stroke="gray" stroke-width="0.080" fill-opacity="0.95"/>
<rect x="45.600" y="0.000" width="4.800" height="6.000" fill="white" stroke="gray" stroke-width="0.080" fill-opacity="0.85"/>
<rect x="50.400" y="0.000" width="4.800" height="6.000" fill="white" stroke="gray" stroke-width="0.080" fill-opacity="0.85"/>
<rect x="55.200" y="0.000" width="4.800" height="6.000" fill="white" stroke="gray" stroke-width="0.080" fill-opacity="0.85"/>
<polygon fill="none" stroke="navy" stroke-width="0.120" points="6.400,13.000 6.400,11.000 1.600,11.000 1.600,13.000"/>
<polygon fill="purple" points="55.020,37.500 55.300,37.850 55.580,37.500 55.300,37.150"/>
<circle cx="52.800" cy="37.500" r="0.38" fill="darkviolet" stroke="indigo" stroke-width="0.06"/>
<polyline fill="none" stroke="#808080" stroke-width="0.120" stroke-opacity="0.65" stroke-dasharray="0.45 0.35" points="4.000,12.000 4.000,12.120 58.124,12.120 58.307,12.124 58.491,12.137 58.673,12.159 58.854,12.190 59.033,12.229 59.210,12.276 59.385,12.332 59.557,12.396 59.726,12.468 59.891,12.549 60.052,12.637 60.209,12.732 60.361,12.835 60.508,12.945 60.649,13.062 60.785,13.185 60.915,13.315 61.038,13.451 61.155,13.592 61.265,13.739 61.368,13.891 61.463,14.048 61.551,14.209 61.632,14.374 61.704,14.543 61.768,14.715 61.824,14.890 61.871,15.067 61.910,15.246 61.941,15.427 61.963,15.609 61.976,15.793 61.980,15.976 61.980,34.294 61.975,34.480 61.958,34.666 61.931,34.850 61.894,35.033 61.845,35.213 61.787,35.390 61.718,35.564 61.639,35.733 61.550,35.897 61.453,36.056 61.346,36.208 61.230,36.355 61.106,36.494 60.974,36.626 60.835,36.750 60.688,36.866 60.536,36.973 60.377,37.070 60.213,37.159 60.044,37.238 59.870,37.307 59.693,37.365 59.513,37.414 59.330,37.451 59.146,37.478 58.960,37.495 58.774,37.500 55.300,37.500 48.000,37.500"/>
<polyline fill="none" stroke="#1f77b4" stroke-width="0.140" stroke-opacity="0.75" stroke-dasharray="0.45 0.35" points="48.000,37.500 52.800,37.500"/>
<polyline fill="none" stroke="#808080" stroke-width="0.120" stroke-opacity="0.65" stroke-dasharray="0.45 0.35" points="52.800,37.500 52.974,37.341 53.144,37.177 53.310,37.009 53.473,36.838 53.632,36.662 53.787,36.483 53.938,36.301 54.087,36.115 54.231,35.926 54.372,35.735 54.510,35.541 54.644,35.344 54.776,35.145 54.903,34.944 55.028,34.740 55.149,34.536 55.268,34.329 55.383,34.121 55.495,33.912 55.605,33.702 55.711,33.491 55.814,33.279 55.915,33.067 56.013,32.854 56.108,32.642 56.200,32.429 56.290,32.217 56.377,32.005 56.461,31.794 56.544,31.583 56.623,31.374 56.700,31.165 56.775,30.958 56.848,30.752 56.918,30.548 56.986,30.346 57.052,30.146 57.115,29.949 57.177,29.753 57.236,29.561 57.294,29.371 57.350,29.184 57.403,29.000 57.455,28.820 57.505,28.643 57.553,28.469 57.600,28.300"/>
<polyline fill="none" stroke="#1f77b4" stroke-width="0.220" stroke-opacity="0.95" points="4.008,12.000 4.022,12.000 4.043,12.000 4.070,12.000 4.102,12.000 4.138,12.000 4.179,12.001 4.223,12.001 4.270,12.002 4.321,12.003 4.374,12.003 4.429,12.005 4.487,12.006 4.547,12.007 4.609,12.009 4.672,12.011 4.736,12.013 4.802,12.015 4.869,12.017 4.937,12.019 5.006,12.022 5.076,12.024 5.146,12.027 5.218,12.030 5.290,12.033 5.362,12.035 5.435,12.038 5.508,12.041 5.582,12.044 5.656,12.047 5.731,12.050 5.806,12.053 5.881,12.056 5.956,12.059 6.031,12.062 6.107,12.065 6.183,12.068 6.259,12.071 6.335,12.073 6.411,12.076 6.488,12.079 6.564,12.081 6.641,12.083 6.718,12.086 6.795,12.088 6.871,12.090 6.948,12.092 7.025,12.095 7.102,12.096 7.179,12.098 7.257,12.100 7.334,12.102 7.411,12.104 7.488,12.105 7.565,12.107 7.643,12.108 7.720,12.109 7.797,12.111 7.875,12.112 7.952,12.113 8.029,12.114 8.107,12.115 8.184,12.116 8.261,12.117 8.339,12.118 8.416,12.118 8.494,12.119 8.571,12.120 8.649,12.120 8.726,12.121 8.804,12.121 8.881,12.122 8.958,12.122 9.036,12.123 9.113,12.123 9.191,12.123 9.268,12.123 9.346,12.124 9.423,12.124 9.501,12.124 9.578,12.124 9.656,12.124 9.733,12.124 9.811,12.124 9.888,12.125 9.966,12.125 10.043,12.125 10.121,12.125 10.198,12.125 10.276,12.125 10.353,12.124 10.431,12.124 10.508,12.124 10.586,12.124 10.663,12.124 10.741,12.124 10.818,12.124 10.896,12.124 10.973,12.124 11.051,12.124 11.128,12.124 11.206,12.124 11.283,12.123 11.361,12.123 11.438,12.123 11.516,12.123 11.593,12.123 11.671,12.123 11.748,12.123 11.826,12.123 11.903,12.122 11.981,12.122 12.058,12.122 12.136,12.122 12.213,12.122 12.291,12.122 12.368,12.122 12.446,12.122 12.523,12.122 12.601,12.121 12.678,12.121 12.756,12.121 12.833,12.121 12.911,12.121 12.988,12.121 13.066,12.121 13.143,12.121 13.221,12.121 13.298,12.121 13.376,12.121 13.453,12.121 13.531,12.121 13.608,12.120 13.686,12.120 13.763,12.120 13.841,12.120 13.918,12.120 13.996,12.120 14.073,12.120 14.151,12.120 14.228,12.120 14.306,12.120 14.383,12.120 14.461,12.120 14.538,12.120 14.616,12.120 14.693,12.120 14.771,12.120 14.848,12.120 14.926,12.120 15.003,12.120 15.081,12.120 15.158,12.120 15.236,12.120 15.313,12.120 15.391,12.120 15.468,12.120 15.546,12.120 15.623,12.120 15.701,12.120 15.778,12.120 15.856,12.120 15.933,12.120 16.011,12.120 16.088,12.120 16.166,12.120 16.243,12.120 16.321,12.120 16.398,12.120 16.476,12.120 16.553,12.120 16.631,12.120 16.708,12.120 16.786,12.120 16.863,12.120 16.941,12.120 17.018,12.120 17.096,12.120 17.173,12.120 17.251,12.120 17.328,12.120 17.406,12.120 17.483,12.120 17.561,12.120 17.638,12.120 17.716,12.120 17.793,12.120 17.871,12.120 17.948,12.120 18.026,12.120 18.103,12.120 18.181,12.120 18.258,12.120 18.336,12.120 18.413,12.120 18.491,12.120 18.568,12.120 18.646,12.120 18.723,12.120 18.801,12.120 18.878,12.120 18.956,12.120 19.033,12.120 19.111,12.120 19.188,12.120 19.266,12.120 19.343,12.120 19.421,12.120 19.498,12.120 19.576,12.120 19.653,12.120 19.731,12.120 19.808,12.120 19.886,12.120 19.963,12.120 20.041,12.120 20.118,12.120 20.196,12.120 20.273,12.120 20.351,12.120 20.428,12.120 20.506,12.120 20.583,12.120 20.661,12.120 20.738,12.120 20.816,12.120 20.893,12.120 20.971,12.120 21.048,12.120 21.126,12.120 21.203,12.120 21.281,12.120 21.358,12.120 21.436,12.120 21.513,12.120 21.591,12.120 21.668,12.120 21.746,12.120 21.823,12.120 21.901,12.120 21.978,12.120 22.056,12.120 22.133,12.120 22.211,12.120 22.288,12.120 22.366,12.120 22.443,12.120 22.521,12.120 22.598,12.120 22.676,12.120 22.753,12.120 22.831,12.120 22.908,12.120 22.986,12.120 23.063,12.120 23.141,12.120 23.218,12.120 23.296,12.120 23.373,12.120 23.451,12.120 23.528,12.120 23.606,12.120 23.683,12.120 23.761,12.120 23.838,12.120 23.916,12.120 23.993,12.120 24.071,12.120 24.148,12.120 24.226,12.120 24.303,12.120 24.381,12.120 24.458,12.120 24.536,12.120 24.613,12.120 24.691,12.120 24.768,12.120 24.846,12.120 24.923,12.120 25.001,12.120 25.078,12.120 25.156,12.120 25.233,12.120 25.311,12.120 25.388,12.120 25.466,12.120 25.543,12.120 25.621,12.120 25.698,12.120 25.776,12.120 25.853,12.120 25.931,12.120 26.008,12.120 26.086,12.120 26.163,12.120 26.241,12.120 26.318,12.120 26.396,12.120 26.473,12.120 26.551,12.120 26.628,12.120 26.706,12.120 26.783,12.120 26.861,12.120 26.938,12.120 27.016,12.120 27.093,12.120 27.171,12.120 27.248,12.120 27.326,12.120 27.403,12.120 27.481,12.120 27.558,12.120 27.636,12.120 27.713,12.120 27.791,12.120 27.868,12.120 27.946,12.120 28.023,12.120 28.101,12.120 28.178,12.120 28.256,12.120 28.333,12.120 28.411,12.120 28.488,12.120 28.566,12.120 28.643,12.120 28.721,12.120 28.798,12.120 28.876,12.120 28.953,12.120 29.031,12.120 29.108,12.120 29.186,12.120 29.263,12.120 29.341,12.120 29.418,12.120 29.496,12.120 29.573,12.120 29.651,12.120 29.728,12.120 29.806,12.120 29.883,12.120 29.961,12.120 30.038,12.120 30.116,12.120 30.193,12.120 30.271,12.120 30.348,12.120 30.426,12.120 30.503,12.120 30.581,12.120 30.658,12.120 30.736,12.120 30.813,12.120 30.891,12.120 30.968,12.120 31.046,12.120 31.123,12.120 31.201,12.120 31.278,12.120 31.356,12.120 31.433,12.120 31.511,12.120 31.588,12.120 31.666,12.120 31.743,12.120 31.821,12.120 31.898,12.120 31.976,12.120 32.053,12.120 32.131,12.120 32.208,12.120 32.286,12.120 32.363,12.120 32.441,12.120 32.518,12.120 32.596,12.120 32.673,12.120 32.751,12.120 32.828,12.120 32.906,12.120 32.983,12.120 33.061,12.120 33.138,12.120 33.216,12.120 33.293,12.120 33.371,12.120 33.448,12.120 33.526,12.120 33.603,12.120 33.681,12.120 33.758,12.120 33.836,12.120 33.913,12.120 33.991,12.120 34.068,12.120 34.146,12.120 34.223,12.120 34.301,12.120 34.378,12.120 34.456,12.120 34.533,12.120 34.611,12.120 34.688,12.120 34.766,12.120 34.843,12.120 34.921,12.120 34.998,12.120 35.076,12.120 35.153,12.120 35.231,12.120 35.308,12.120 35.386,12.120 35.463,12.120 35.541,12.120 35.618,12.120 35.696,12.120 35.773,12.120 35.851,12.120 35.928,12.120 36.006,12.120 36.083,12.120 36.161,12.120 36.238,12.120 36.316,12.120 36.393,12.120 36.471,12.120 36.548,12.120 36.626,12.120 36.703,12.120 36.781,12.120 36.858,12.120 36.936,12.120 37.013,12.120 37.091,12.120 37.168,12.120 37.246,12.120 37.323,12.120 37.401,12.120 37.478,12.120 37.556,12.120 37.633,12.120 37.711,12.120 37.788,12.120 37.866,12.120 37.943,12.120 38.021,12.120 38.098,12.120 38.176,12.120 38.253,12.120 38.331,12.120 38.408,12.120 38.486,12.120 38.563,12.120 38.641,12.120 38.718,12.120 38.796,12.120 38.873,12.120 38.951,12.120 39.028,12.120 39.106,12.120 39.183,12.120 39.261,12.120 39.338,12.120 39.416,12.120 39.493,12.120 39.571,12.120 39.648,12.120 39.726,12.120 39.803,12.120 39.881,12.120 39.958,12.120 40.036,12.120 40.113,12.120 40.191,12.120 40.268,12.120 40.346,12.120 40.423,12.120 40.501,12.120 40.578,12.120 40.656,12.120 40.733,12.120 40.811,12.120 40.888,12.120 40.966,12.120 41.043,12.120 41.121,12.120 41.198,12.120 41.276,12.120 41.353,12.120 41.431,12.120 41.508,12.120 41.586,12.120 41.663,12.120 41.741,12.120 41.818,12.120 41.896,12.120 41.973,12.120 42.051,12.120 42.128,12.120 42.206,12.120 42.283,12.120 42.361,12.120 42.438,12.120 42.516,12.120 42.593,12.120 42.671,12.120 42.748,12.120 42.826,12.120 42.903,12.120 42.981,12.120 43.058,12.120 43.136,12.120 43.213,12.120 43.291,12.120 43.368,12.120 43.446,12.120 43.523,12.120 43.601,12.120 43.678,12.120 43.756,12.120 43.833,12.120 43.911,12.120 43.988,12.120 44.066,12.120 44.143,12.120 44.221,12.120 44.298,12.120 44.376,12.120 44.453,12.120 44.531,12.120 44.608,12.120 44.686,12.120 44.763,12.120 44.841,12.120 44.918,12.120 44.996,12.120 45.073,12.120 45.151,12.120 45.228,12.120 45.306,12.120 45.383,12.120 45.461,12.120 45.538,12.120 45.616,12.120 45.693,12.120 45.771,12.120 45.848,12.120 45.926,12.120 46.003,12.120 46.081,12.120 46.158,12.120 46.236,12.120 46.313,12.120 46.391,12.120 46.468,12.120 46.546,12.120 46.623,12.120 46.701,12.120 46.778,12.120 46.856,12.120 46.933,12.120 47.011,12.120 47.088,12.120 47.166,12.120 47.243,12.120 47.321,12.120 47.398,12.120 47.476,12.120 47.553,12.120 47.631,12.120 47.708,12.120 47.786,12.120 47.863,12.120 47.941,12.120 48.018,12.120 48.096,12.120 48.173,12.120 48.251,12.120 48.328,12.120 48.406,12.120 48.483,12.120 48.561,12.120 48.638,12.120 48.716,12.120 48.793,12.120 48.871,12.120 48.948,12.120 49.026,12.120 49.103,12.120 49.181,12.120 49.258,12.120 49.336,12.120 49.413,12.120 49.491,12.120 49.568,12.120 49.646,12.120 49.723,12.120 49.801,12.120 49.878,12.120 49.956,12.120 50.033,12.120 50.111,12.120 50.188,12.120 50.266,12.120 50.343,12.120 50.421,12.120 50.498,12.120 50.576,12.120 50.653,12.120 50.731,12.120 50.808,12.120 50.886,12.120 50.963,12.120 51.041,12.120 51.118,12.120 51.196,12.120 51.273,12.120 51.351,12.120 51.428,12.120 51.506,12.120 51.583,12.120 51.661,12.120 51.738,12.120 51.816,12.120 51.893,12.120 51.971,12.120 52.048,12.120 52.126,12.120 52.203,12.120 52.281,12.120 52.358,12.120 52.436,12.120 52.513,12.120 52.591,12.120 52.668,12.120 52.746,12.120 52.823,12.120 52.901,12.120 52.978,12.120 53.056,12.120 53.133,12.120 53.211,12.120 53.288,12.120 53.366,12.120 53.443,12.120 53.521,12.120 53.598,12.120 53.676,12.120 53.753,12.120 53.831,12.120 53.908,12.120 53.986,12.120 54.063,12.120 54.141,12.120 54.218,12.120 54.296,12.120 54.373,12.120 54.451,12.120 54.528,12.120 54.606,12.120 54.683,12.120 54.761,12.120 54.838,12.120 54.916,12.120 54.993,12.120 55.071,12.120 55.148,12.120 55.226,12.120 55.303,12.120 55.381,12.120 55.458,12.120 55.536,12.120 55.613,12.120 55.691,12.120 55.768,12.120 55.846,12.120 55.923,12.120 56.001,12.120 56.078,12.120 56.156,12.120 56.233,12.120 56.311,12.120 56.388,12.120 56.466,12.120 56.543,12.120 56.621,12.120 56.698,12.120 56.776,12.120 56.853,12.121 56.931,12.121 57.008,12.122 57.086,12.123 57.163,12.124 57.241,12.125 57.318,12.126 57.396,12.128 57.473,12.131 57.550,12.133 57.628,12.137 57.705,12.140 57.783,12.145 57.860,12.150 57.937,12.155 58.015,12.161 58.092,12.168 58.169,12.176 58.246,12.184 58.323,12.194 58.400,12.204 58.476,12.215 58.553,12.227 58.629,12.240 58.706,12.254 58.782,12.269 58.857,12.285 58.933,12.303 59.008,12.321 59.083,12.341 59.158,12.361 59.232,12.383 59.306,12.407 59.380,12.431 59.453,12.457 59.525,12.484 59.598,12.512 59.669,12.542 59.740,12.573 59.811,12.605 59.881,12.639 59.950,12.674 60.018,12.710 60.086,12.747 60.153,12.786 60.219,12.827 60.285,12.868 60.349,12.911 60.413,12.955 60.476,13.000 60.538,13.047 60.599,13.095 60.659,13.144 60.718,13.194 60.776,13.245 60.833,13.298 60.889,13.352 60.943,13.407 60.997,13.462 61.050,13.519 61.101,13.577 61.151,13.636 61.200,13.696 61.248,13.757 61.295,13.819 61.340,13.882 61.384,13.946 61.427,14.011 61.468,14.076 61.508,14.142 61.547,14.210 61.584,14.277 61.621,14.346 61.655,14.415 61.688,14.485 61.720,14.556 61.751,14.627 61.780,14.699 61.807,14.772 61.833,14.845 61.858,14.918 61.881,14.992 61.903,15.067 61.923,15.141 61.942,15.217 61.959,15.292 61.975,15.368 61.990,15.444 62.004,15.520 62.016,15.597 62.028,15.673 62.038,15.750 62.047,15.827 62.056,15.904 62.063,15.981 62.070,16.058 62.076,16.136 62.081,16.213 62.085,16.290 62.088,16.368 62.091,16.445 62.094,16.523 62.096,16.600 62.097,16.678 62.098,16.755 62.098,16.833 62.098,16.910 62.097,16.988 62.097,17.065 62.096,17.143 62.094,17.220 62.093,17.298 62.091,17.375 62.089,17.453 62.086,17.530 62.084,17.608 62.081,17.685 62.078,17.762 62.076,17.840 62.073,17.917 62.070,17.995 62.067,18.072 62.064,18.150 62.061,18.227 62.057,18.305 62.054,18.382 62.051,18.459 62.048,18.537 62.045,18.614 62.042,18.692 62.039,18.769 62.036,18.847 62.033,18.924 62.031,19.002 62.028,19.079 62.025,19.156 62.022,19.234 62.020,19.311 62.017,19.389 62.015,19.466 62.013,19.544 62.010,19.621 62.008,19.699 62.006,19.776 62.004,19.854 62.002,19.931 62.001,20.009 61.999,20.086 61.997,20.164 61.995,20.241 61.994,20.319 61.993,20.396 61.991,20.474 61.990,20.551 61.989,20.628 61.988,20.706 61.986,20.783 61.985,20.861 61.984,20.938 61.984,21.016 61.983,21.093 61.982,21.171 61.981,21.248 61.981,21.326 61.980,21.403 61.979,21.481 61.979,21.558 61.978,21.636 61.978,21.713 61.978,21.791 61.977,21.868 61.977,21.946 61.977,22.023 61.976,22.101 61.976,22.178 61.976,22.256 61.976,22.333 61.976,22.411 61.976,22.488 61.976,22.566 61.976,22.643 61.976,22.721 61.975,22.798 61.975,22.876 61.975,22.953 61.976,23.031 61.976,23.108 61.976,23.186 61.976,23.263 61.976,23.341 61.976,23.418 61.976,23.496 61.976,23.573 61.976,23.651 61.976,23.728 61.976,23.806 61.976,23.883 61.976,23.961 61.977,24.038 61.977,24.116 61.977,24.193 61.977,24.271 61.977,24.348 61.977,24.426 61.977,24.503 61.977,24.581 61.978,24.658 61.978,24.736 61.978,24.813 61.978,24.891 61.978,24.968 61.978,25.046 61.978,25.123 61.978,25.201 61.978,25.278 61.979,25.356 61.979,25.433 61.979,25.511 61.979,25.588 61.979,25.666 61.979,25.743 61.979,25.821 61.979,25.898 61.979,25.976 61.979,26.053 61.979,26.131 61.979,26.208 61.979,26.286 61.979,26.363 61.980,26.441 61.980,26.518 61.980,26.596 61.980,26.673 61.980,26.751 61.980,26.828 61.980,26.906 61.980,26.983 61.980,27.061 61.980,27.138 61.980,27.216 61.980,27.293 61.980,27.371 61.980,27.448 61.980,27.526 61.980,27.603 61.980,27.681 61.980,27.758 61.980,27.836 61.980,27.913 61.980,27.991 61.980,28.068 61.980,28.146 61.980,28.223 61.980,28.301 61.980,28.378 61.980,28.456 61.980,28.533 61.980,28.611 61.980,28.688 61.980,28.766 61.980,28.843 61.980,28.921 61.980,28.998 61.980,29.076 61.980,29.153 61.980,29.231 61.980,29.308 61.980,29.386 61.980,29.463 61.980,29.541 61.980,29.618 61.980,29.696 61.980,29.773 61.980,29.851 61.980,29.928 61.980,30.006 61.980,30.083 61.980,30.161 61.980,30.238 61.980,30.316 61.980,30.393 61.980,30.471 61.980,30.548 61.980,30.626 61.980,30.703 61.980,30.781 61.980,30.858 61.980,30.936 61.980,31.013 61.980,31.091 61.980,31.168 61.980,31.246 61.980,31.323 61.980,31.401 61.980,31.478 61.980,31.556 61.980,31.633 61.980,31.711 61.980,31.788 61.980,31.866 61.980,31.943 61.980,32.021 61.980,32.098 61.980,32.176 61.980,32.253 61.980,32.331 61.980,32.408 61.980,32.486 61.980,32.563 61.980,32.641 61.980,32.718 61.980,32.796 61.980,32.873 61.979,32.951 61.979,33.028 61.979,33.106 61.978,33.183 61.977,33.261 61.976,33.338 61.974,33.416 61.972,33.493 61.970,33.571 61.967,33.648 61.964,33.726 61.960,33.803 61.956,33.880 61.951,33.958 61.945,34.035 61.938,34.112 61.931,34.189 61.923,34.267 61.913,34.343 61.903,34.420 61.892,34.497 61.879,34.573 61.866,34.650 61.851,34.726 61.835,34.802 61.818,34.877 61.800,34.953 61.780,35.028 61.759,35.102 61.736,35.176 61.713,35.250 61.687,35.323 61.661,35.396 61.633,35.468 61.603,35.540 61.572,35.611 61.540,35.681 61.506,35.751 61.471,35.820 61.434,35.889 61.396,35.956 61.357,36.023 61.316,36.089 61.274,36.154 61.231,36.218 61.186,36.282 61.141,36.344 61.094,36.406 61.045,36.467 60.996,36.526 60.945,36.585 60.893,36.642 60.840,36.699 60.786,36.754 60.731,36.809 60.675,36.862 60.617,36.914 60.559,36.965 60.500,37.015 60.439,37.063 60.378,37.111 60.315,37.157 60.252,37.202 60.188,37.245 60.123,37.288 60.057,37.329 59.991,37.368 59.923,37.406 59.855,37.443 59.786,37.479 59.717,37.513 59.647,37.546 59.576,37.577 59.504,37.607 59.432,37.635 59.359,37.662 59.286,37.688 59.213,37.712 59.138,37.734 59.064,37.756 58.989,37.775 58.913,37.793 58.838,37.810 58.762,37.825 58.685,37.838 58.609,37.850 58.532,37.861 58.455,37.869 58.378,37.877 58.301,37.882 58.223,37.887 58.146,37.889 58.068,37.890 57.991,37.890 57.913,37.889 57.836,37.886 57.758,37.883 57.681,37.878 57.604,37.872 57.527,37.866 57.449,37.859 57.372,37.851 57.295,37.843 57.218,37.834 57.141,37.825 57.064,37.816 56.987,37.806 56.911,37.796 56.834,37.786 56.757,37.776 56.680,37.766 56.603,37.755 56.526,37.745 56.450,37.735 56.373,37.725 56.296,37.714 56.219,37.704 56.142,37.695 56.065,37.685 55.988,37.675 55.911,37.666 55.835,37.657 55.758,37.648 55.681,37.639 55.603,37.631 55.526,37.623 55.449,37.615 55.372,37.607 55.295,37.600 55.218,37.593 55.141,37.586 55.063,37.579 54.986,37.573 54.909,37.567 54.832,37.561 54.754,37.556 54.677,37.550 54.600,37.546 54.522,37.541 54.445,37.536 54.368,37.532 54.290,37.528 54.213,37.524 54.135,37.521 54.058,37.517 53.980,37.514 53.903,37.511 53.826,37.509 53.748,37.506 53.671,37.504 53.593,37.502 53.516,37.500 53.438,37.498 53.361,37.496 53.283,37.495 53.206,37.493 53.128,37.492 53.051,37.491 52.973,37.490 52.896,37.489 52.818,37.488 52.741,37.487 52.663,37.487 52.586,37.486 52.508,37.486 52.431,37.486 52.353,37.485 52.276,37.485 52.198,37.485 52.121,37.485 52.043,37.485 51.966,37.485 51.888,37.485 51.811,37.485 51.734,37.485 51.658,37.486 51.582,37.486 51.507,37.486 51.432,37.486 51.359,37.487 51.286,37.487 51.214,37.487 51.143,37.488 51.073,37.488 51.004,37.489 50.936,37.489 50.869,37.489 50.804,37.490 50.739,37.490 50.676,37.491 50.614,37.491 50.553,37.491 50.493,37.492 50.434,37.492 50.376,37.492 50.320,37.493 50.265,37.493 50.211,37.494 50.158,37.494 50.106,37.494 50.055,37.495 50.005,37.495 49.957,37.495 49.909,37.495 49.863,37.496 49.817,37.496 49.773,37.496 49.729,37.496 49.687,37.497 49.646,37.497 49.605,37.497 49.566,37.497 49.527,37.497 49.489,37.498 49.452,37.498 49.416,37.498 49.381,37.498 49.347,37.498 49.314,37.498 49.281,37.498 49.249,37.498 49.218,37.499 49.188,37.499 49.158,37.499 49.129,37.499 49.101,37.499 49.073,37.499 49.046,37.499 49.020,37.499 48.995,37.499 48.970,37.499 48.946,37.499 48.922,37.499 48.899,37.499 48.876,37.499 48.854,37.499 48.833,37.500 48.811,37.500 48.790,37.500 48.770,37.500 48.750,37.500 48.730,37.500 48.710,37.500 48.691,37.500 48.672,37.500 48.652,37.500 48.633,37.500 48.615,37.500 48.596,37.500 48.578,37.500 48.559,37.500 48.541,37.500"/>
<polyline fill="none" stroke="#1f77b4" stroke-width="0.240" stroke-opacity="0.95" points="48.544,37.500 48.550,37.500 48.559,37.500 48.570,37.500 48.583,37.500 48.599,37.500 48.616,37.500 48.634,37.500 48.654,37.500 48.675,37.500 48.698,37.500 48.721,37.500 48.745,37.500 48.770,37.500 48.796,37.500 48.822,37.500 48.850,37.500 48.877,37.500 48.905,37.500 48.934,37.500 48.963,37.500 48.992,37.500 49.022,37.500 49.052,37.500 49.082,37.500 49.112,37.500 49.143,37.500 49.174,37.500 49.204,37.500 49.236,37.500 49.267,37.500 49.298,37.500 49.330,37.500 49.361,37.500 49.393,37.500 49.425,37.500 49.457,37.500 49.489,37.500 49.521,37.500 49.553,37.500 49.585,37.499 49.617,37.499 49.649,37.499 49.681,37.499 49.713,37.499 49.746,37.499 49.778,37.499 49.810,37.499 49.842,37.499 49.875,37.499 49.907,37.499 49.939,37.499 49.972,37.499 50.004,37.499 50.037,37.499 50.069,37.499 50.101,37.499 50.134,37.499 50.166,37.499 50.199,37.499 50.231,37.499 50.264,37.499 50.296,37.499 50.329,37.499 50.361,37.499 50.393,37.499 50.426,37.499 50.458,37.499 50.491,37.499 50.523,37.499 50.556,37.499 50.588,37.499 50.621,37.499 50.653,37.499 50.686,37.499 50.718,37.499 50.751,37.499 50.783,37.499 50.816,37.499 50.848,37.499 50.881,37.499 50.913,37.499 50.946,37.499 50.978,37.499 51.011,37.499 51.043,37.499 51.076,37.499 51.108,37.499 51.141,37.499 51.173,37.499 51.206,37.499 51.238,37.499 51.271,37.499 51.303,37.499 51.335,37.499 51.368,37.499 51.400,37.499 51.432,37.499 51.464,37.499 51.495,37.499 51.527,37.499 51.558,37.499 51.590,37.499 51.621,37.499 51.651,37.499 51.682,37.499 51.712,37.499 51.743,37.499 51.773,37.499 51.802,37.499 51.832,37.499 51.861,37.499 51.890,37.499 51.919,37.499 51.948,37.499 51.976,37.499 52.005,37.499 52.033,37.499 52.060,37.499 52.088,37.499 52.115,37.499 52.142,37.499 52.169,37.499 52.196,37.499 52.222,37.499 52.249,37.499 52.275,37.499 52.300,37.499 52.326,37.499 52.351,37.499 52.376,37.499 52.401,37.499 52.426,37.499 52.450,37.499 52.475,37.499 52.499,37.499 52.522,37.499 52.546,37.499 52.569,37.499 52.593,37.499 52.616,37.499 52.638,37.499 52.661,37.499 52.683,37.499 52.706,37.499 52.728,37.499 52.750,37.499 52.771,37.499 52.793,37.499"/>
<polyline fill="none" stroke="#ff7f0e" stroke-width="0.220" stroke-opacity="0.95" points="52.793,37.499 52.814,37.499 52.835,37.499 52.856,37.499 52.876,37.499 52.897,37.499 52.917,37.499 52.938,37.499 52.957,37.499 52.977,37.499 52.997,37.499 53.016,37.499 53.036,37.499 53.055,37.499 53.074,37.499 53.093,37.499 53.111,37.499 53.130,37.499 53.148,37.499 53.167,37.499 53.185,37.499 53.203,37.499 53.221,37.499 53.239,37.499 53.257,37.499 53.275,37.499 53.293,37.499 53.311,37.499 53.329,37.499 53.347,37.499 53.364,37.499 53.382,37.499 53.400,37.499 53.418,37.499 53.435,37.499 53.453,37.499 53.471,37.499 53.488,37.499 53.506,37.499 53.523,37.499 53.541,37.499 53.559,37.499 53.576,37.499 53.594,37.499 53.611,37.499 53.629,37.499 53.646,37.499 53.664,37.499 53.681,37.499 53.699,37.499 53.717,37.499 53.734,37.499 53.738,37.499 53.745,37.499 53.755,37.499 53.768,37.499 53.783,37.499 53.801,37.499 53.820,37.498 53.842,37.498 53.865,37.498 53.889,37.497 53.915,37.497 53.942,37.496 53.970,37.495 53.999,37.493 54.028,37.492 54.059,37.490 54.090,37.488 54.122,37.485 54.154,37.483 54.187,37.479 54.220,37.476 54.254,37.472 54.288,37.468 54.322,37.464 54.356,37.459 54.391,37.454 54.426,37.448 54.461,37.442 54.496,37.436 54.532,37.430 54.567,37.423 54.602,37.416 54.638,37.408 54.674,37.400 54.709,37.392 54.745,37.383 54.780,37.374 54.816,37.364 54.851,37.355 54.887,37.344 54.922,37.334 54.958,37.323 54.993,37.312 55.029,37.300 55.064,37.288 55.099,37.276 55.134,37.263 55.169,37.250 55.204,37.237 55.238,37.224 55.273,37.210 55.307,37.195 55.342,37.181 55.376,37.165 55.410,37.150 55.444,37.134 55.478,37.118 55.512,37.102 55.545,37.085 55.578,37.068 55.612,37.051 55.645,37.033 55.677,37.015 55.710,36.997 55.743,36.979 55.775,36.960 55.807,36.940 55.839,36.921 55.871,36.901 55.902,36.881 55.934,36.860 55.965,36.839 55.996,36.818 56.027,36.797 56.057,36.775 56.088,36.753 56.118,36.731 56.148,36.708 56.177,36.686 56.207,36.662 56.236,36.639 56.265,36.615 56.294,36.591 56.323,36.567 56.351,36.542 56.379,36.517 56.407,36.492 56.434,36.467 56.462,36.441 56.489,36.415 56.516,36.389 56.542,36.363 56.569,36.336 56.595,36.309 56.621,36.282 56.646,36.255 56.671,36.227 56.696,36.199 56.721,36.171 56.746,36.142 56.770,36.114 56.794,36.085 56.817,36.056 56.841,36.026 56.864,35.997 56.886,35.967 56.909,35.937 56.931,35.907 56.953,35.876 56.974,35.845 56.996,35.815 57.017,35.783 57.037,35.752 57.058,35.721 57.078,35.689 57.098,35.657 57.117,35.625 57.136,35.593 57.155,35.560 57.174,35.528 57.192,35.495 57.210,35.462 57.227,35.429 57.244,35.396 57.261,35.362 57.278,35.328 57.294,35.295 57.310,35.261 57.326,35.227 57.341,35.192 57.356,35.158 57.370,35.123 57.385,35.089 57.398,35.054 57.412,35.019 57.425,34.984 57.438,34.949 57.451,34.913 57.463,34.878 57.475,34.842 57.487,34.807 57.498,34.771 57.509,34.735 57.519,34.699 57.530,34.663 57.540,34.627 57.549,34.591 57.559,34.554 57.568,34.518 57.576,34.481 57.584,34.445 57.592,34.408 57.600,34.371 57.607,34.335 57.615,34.298 57.621,34.261 57.628,34.224 57.634,34.187 57.639,34.150 57.645,34.113 57.650,34.076 57.655,34.038 57.659,34.001 57.663,33.964 57.667,33.927 57.671,33.889 57.674,33.852 57.677,33.815 57.679,33.777 57.682,33.740 57.684,33.702 57.685,33.665 57.687,33.627 57.688,33.590 57.688,33.552 57.689,33.515 57.689,33.477 57.690,33.440 57.690,33.402 57.690,33.365 57.690,33.327 57.690,33.290 57.690,33.252 57.690,33.215 57.689,33.177 57.689,33.140 57.689,33.102 57.689,33.065 57.689,33.027 57.689,32.990 57.689,32.952 57.689,32.915 57.689,32.877 57.689,32.840 57.689,32.802 57.689,32.765 57.689,32.727 57.689,32.690 57.689,32.652 57.688,32.615 57.688,32.577 57.688,32.540 57.688,32.502 57.688,32.465 57.688,32.427 57.688,32.390 57.688,32.352 57.688,32.315 57.688,32.277 57.688,32.240 57.688,32.202 57.688,32.165 57.688,32.128 57.688,32.091 57.688,32.054 57.687,32.017 57.687,31.980 57.687,31.944 57.687,31.908 57.687,31.872 57.687,31.836 57.687,31.801 57.687,31.766 57.687,31.731 57.687,31.696 57.687,31.662 57.687,31.628 57.687,31.594 57.687,31.561 57.687,31.527 57.687,31.494 57.687,31.462 57.686,31.429 57.686,31.397 57.686,31.366 57.686,31.334 57.686,31.303 57.686,31.272 57.686,31.242 57.686,31.212 57.686,31.182 57.686,31.152 57.686,31.123 57.686,31.094 57.686,31.065 57.686,31.036 57.686,31.008 57.686,30.980 57.686,30.952 57.686,30.925 57.686,30.898 57.685,30.871 57.685,30.845 57.685,30.818 57.685,30.792 57.685,30.766 57.685,30.741 57.685,30.716 57.685,30.691 57.685,30.666 57.685,30.642 57.685,30.617 57.685,30.593 57.685,30.570 57.685,30.546 57.685,30.523 57.685,30.500 57.685,30.477 57.685,30.455 57.685,30.432 57.685,30.410 57.685,30.388 57.685,30.367 57.685,30.345 57.685,30.324 57.685,30.303 57.684,30.282 57.684,30.262 57.684,30.242 57.684,30.222 57.684,30.202 57.684,30.182 57.684,30.162 57.684,30.143 57.684,30.124 57.684,30.105 57.684,30.086 57.684,30.068 57.684,30.049 57.684,30.031 57.684,30.012 57.684,29.994 57.684,29.976 57.684,29.958 57.684,29.940 57.684,29.922 57.684,29.904 57.684,29.886 57.684,29.868 57.684,29.850 57.684,29.832 57.684,29.814 57.684,29.797 57.684,29.779 57.684,29.761 57.684,29.744 57.684,29.726 57.683,29.708 57.683,29.691 57.683,29.673 57.683,29.655 57.683,29.638 57.683,29.620 57.683,29.603 57.683,29.585 57.683,29.568 57.683,29.550 57.683,29.532 57.683,29.515 57.683,29.497 57.683,29.480 57.683,29.462 57.683,29.445 57.683,29.427 57.683,29.410 57.683,29.392 57.683,29.375 57.683,29.357 57.683,29.340 57.683,29.322 57.683,29.305 57.683,29.287 57.683,29.270 57.683,29.252 57.683,29.235 57.683,29.217 57.683,29.200 57.683,29.182 57.683,29.165 57.683,29.147 57.683,29.130 57.682,29.112 57.682,29.095 57.682,29.077 57.682,29.060 57.682,29.042 57.682,29.025 57.682,29.007 57.682,28.990 57.682,28.972 57.682,28.955 57.682,28.937 57.682,28.920 57.682,28.902 57.682,28.885 57.682,28.867 57.682,28.850 57.682,28.832 57.682,28.815 57.682,28.797 57.682,28.780 57.682,28.762 57.682,28.745 57.682,28.727 57.682,28.710 57.682,28.692 57.682,28.675 57.682,28.657 57.682,28.640 57.682,28.622 57.682,28.605 57.682,28.587 57.682,28.570 57.682,28.552 57.681,28.535 57.681,28.517 57.681,28.500 57.681,28.482 57.681,28.465 57.681,28.447 57.681,28.430 57.681,28.412 57.681,28.395 57.681,28.377 57.681,28.360 57.681,28.342"/>
<polygon fill="#1f77b4" fill-opacity="0.140" stroke="#1f77b4" stroke-opacity="0.55" stroke-width="0.07" points="6.408,13.000 6.408,11.000 1.608,11.000 1.608,13.000"/>
<polygon fill="#1f77b4" fill-opacity="0.140" stroke="#1f77b4" stroke-opacity="0.55" stroke-width="0.07" points="7.233,13.100 7.302,11.101 2.505,10.934 2.436,12.932"/>
<polygon fill="#1f77b4" fill-opacity="0.140" stroke="#1f77b4" stroke-opacity="0.55" stroke-width="0.07" points="8.545,13.155 8.618,11.156 3.821,10.981 3.748,12.980"/>
<polygon fill="#1f77b4" fill-opacity="0.140" stroke="#1f77b4" stroke-opacity="0.55" stroke-width="0.07" points="9.947,13.150 9.983,11.151 5.184,11.063 5.147,13.063"/>
<polygon fill="#1f77b4" fill-opacity="0.140" stroke="#1f77b4" stroke-opacity="0.55" stroke-width="0.07" points="11.354,13.134 11.363,11.134 6.563,11.111 6.554,13.111"/>
<polygon fill="#1f77b4" fill-opacity="0.140" stroke="#1f77b4" stroke-opacity="0.55" stroke-width="0.07" points="12.754,13.123 12.753,11.123 7.953,11.126 7.954,13.126"/>
<polygon fill="#1f77b4" fill-opacity="0.140" stroke="#1f77b4" stroke-opacity="0.55" stroke-width="0.07" points="14.150,13.119 14.147,11.119 9.347,11.126 9.350,13.126"/>
<polygon fill="#1f77b4" fill-opacity="0.140" stroke="#1f77b4" stroke-opacity="0.55" stroke-width="0.07" points="15.544,13.119 15.542,11.119 10.742,11.123 10.744,13.123"/>
<polygon fill="#1f77b4" fill-opacity="0.140" stroke="#1f77b4" stroke-opacity="0.55" stroke-width="0.07" points="16.938,13.119 16.938,11.119 12.138,11.121 12.138,13.121"/>
<polygon fill="#1f77b4" fill-opacity="0.140" stroke="#1f77b4" stroke-opacity="0.55" stroke-width="0.07" points="18.333,13.120 18.333,11.120 13.533,11.120 13.533,13.120"/>
<polygon fill="#1f77b4" fill-opacity="0.140" stroke="#1f77b4" stroke-opacity="0.55" stroke-width="0.07" points="19.728,13.120 19.728,11.120 14.928,11.120 14.928,13.120"/>
<polygon fill="#1f77b4" fill-opacity="0.140" stroke="#1f77b4" stroke-opacity="0.55" stroke-width="0.07" points="21.123,13.120 21.123,11.120 16.323,11.120 16.323,13.120"/>
<polygon fill="#1f77b4" fill-opacity="0.140" stroke="#1f77b4" stroke-opacity="0.55" stroke-width="0.07" points="22.518,13.120 22.518,11.120 17.718,11.120 17.718,13.120"/>
<polygon fill="#1f77b4" fill-opacity="0.140" stroke="#1f77b4" stroke-opacity="0.55" stroke-width="0.07" points="23.913,13.120 23.913,11.120 19.113,11.120 19.113,13.120"/>
<polygon fill="#1f77b4" fill-opacity="0.140" stroke="#1f77b4" stroke-opacity="0.55" stroke-width="0.07" points="25.308,13.120 25.308,11.120 20.508,11.120 20.508,13.120"/>
<polygon fill="#1f77b4" fill-opacity="0.140" stroke="#1f77b4" stroke-opacity="0.55" stroke-width="0.07" points="26.703,13.120 26.703,11.120 21.903,11.120 21.903,13.120"/>
<polygon fill="#1f77b4" fill-opacity="0.140" stroke="#1f77b4" stroke-opacity="0.55" stroke-width="0.07" points="28.098,13.120 28.098,11.120 23.298,11.120 23.298,13.120"/>
<polygon fill="#1f77b4" fill-opacity="0.140" stroke="#1f77b4" stroke-opacity="0.55" stroke-width="0.07" points="29.493,13.120 29.493,11.120 24.693,11.120 24.693,13.120"/>
<polygon fill="#1f77b4" fill-opacity="0.140" stroke="#1f77b4" stroke-opacity="0.55" stroke-width="0.07" points="30.888,13.120 30.888,11.120 26.088,11.120 26.088,13.120"/>
<polygon fill="#1f77b4" fill-opacity="0.140" stroke="#1f77b4" stroke-opacity="0.55" stroke-width="0.07" points="32.283,13.120 32.283,11.120 27.483,11.120 27.483,13.120"/>
<polygon fill="#1f77b4" fill-opacity="0.140" stroke="#1f77b4" stroke-opacity="0.55" stroke-width="0.07" points="33.678,13.120 33.678,11.120 28.878,11.120 28.878,13.120"/>
<polygon fill="#1f77b4" fill-opacity="0.140" stroke="#1f77b4" stroke-opacity="0.55" stroke-width="0.07" points="35.073,13.120 35.073,11.120 30.273,11.120 30.273,13.120"/>
<polygon fill="#1f77b4" fill-opacity="0.140" stroke="#1f77b4" stroke-opacity="0.55" stroke-width="0.07" points="36.468,13.120 36.468,11.120 31.668,11.120 31.668,13.120"/>
<polygon fill="#1f77b4" fill-opacity="0.140" stroke="#1f77b4" stroke-opacity="0.55" stroke-width="0.07" points="37.863,13.120 37.863,11.120 33.063,11.120 33.063,13.120"/>
<polygon fill="#1f77b4" fill-opacity="0.140" stroke="#1f77b4" stroke-opacity="0.55" stroke-width="0.07" points="39.258,13.120 39.258,11.120 34.458,11.120 34.458,13.120"/>
<polygon fill="#1f77b4" fill-opacity="0.140" stroke="#1f77b4" stroke-opacity="0.55" stroke-width="0.07" points="40.653,13.120 40.653,11.120 35.853,11.120 35.853,13.120"/>
<polygon fill="#1f77b4" fill-opacity="0.140" stroke="#1f77b4" stroke-opacity="0.55" stroke-width="0.07" points="42.048,13.120 42.048,11.120 37.248,11.120 37.248,13.120"/>
<polygon fill="#1f77b4" fill-opacity="0.140" stroke="#1f77b4" stroke-opacity="0.55" stroke-width="0.07" points="43.443,13.120 43.443,11.120 38.643,11.120 38.643,13.120"/>
<polygon fill="#1f77b4" fill-opacity="0.140" stroke="#1f77b4" stroke-opacity="0.55" stroke-width="0.07" points="44.838,13.120 44.838,11.120 40.038,11.120 40.038,13.120"/>
<polygon fill="#1f77b4" fill-opacity="0.140" stroke="#1f77b4" stroke-opacity="0.55" stroke-width="0.07" points="46.233,13.120 46.233,11.120 41.433,11.120 41.433,13.120"/>
<polygon fill="#1f77b4" fill-opacity="0.140" stroke="#1f77b4" stroke-opacity="0.55" stroke-width="0.07" points="47.628,13.120 47.628,11.120 42.828,11.120 42.828,13.120"/>
<polygon fill="#1f77b4" fill-opacity="0.140" stroke="#1f77b4" stroke-opacity="0.55" stroke-width="0.07" points="49.023,13.120 49.023,11.120 44.223,11.120 44.223,13.120"/>
<polygon fill="#1f77b4" fill-opacity="0.140" stroke="#1f77b4" stroke-opacity="0.55" stroke-width="0.07" points="50.418,13.120 50.418,11.120 45.618,11.120 45.618,13.120"/>
<polygon fill="#1f77b4" fill-opacity="0.140" stroke="#1f77b4" stroke-opacity="0.55" stroke-width="0.07" points="51.813,13.120 51.813,11.120 47.013,11.120 47.013,13.120"/>
<polygon fill="#1f77b4" fill-opacity="0.140" stroke="#1f77b4" stroke-opacity="0.55" stroke-width="0.07" points="53.208,13.120 53.208,11.120 48.408,11.120 48.408,13.120"/>
<polygon fill="#1f77b4" fill-opacity="0.140" stroke="#1f77b4" stroke-opacity="0.55" stroke-width="0.07" points="54.603,13.120 54.603,11.120 49.803,11.120 49.803,13.120"/>
<polygon fill="#1f77b4" fill-opacity="0.140" stroke="#1f77b4" stroke-opacity="0.55" stroke-width="0.07" points="55.998,13.120 55.998,11.120 51.198,11.120 51.198,13.120"/>
<polygon fill="#1f77b4" fill-opacity="0.140" stroke="#1f77b4" stroke-opacity="0.55" stroke-width="0.07" points="57.393,13.120 57.393,11.120 52.593,11.120 52.593,13.120"/>
<polygon fill="#1f77b4" fill-opacity="0.140" stroke="#1f77b4" stroke-opacity="0.55" stroke-width="0.07" points="58.788,13.120 58.788,11.120 53.988,11.120 53.988,13.120"/>
<polygon fill="#1f77b4" fill-opacity="0.140" stroke="#1f77b4" stroke-opacity="0.55" stroke-width="0.07" points="60.115,13.293 60.241,11.297 55.450,10.996 55.325,12.992"/>
<polygon fill="#1f77b4" fill-opacity="0.140" stroke="#1f77b4" stroke-opacity="0.55" stroke-width="0.07" points="61.177,13.999 61.743,12.081 57.139,10.723 56.573,12.642"/>
<polygon fill="#1f77b4" fill-opacity="0.140" stroke="#1f77b4" stroke-opacity="0.55" stroke-width="0.07" points="61.774,15.171 62.944,13.549 59.052,10.739 57.882,12.361"/>
<polygon fill="#1f77b4" fill-opacity="0.140" stroke="#1f77b4" stroke-opacity="0.55" stroke-width="0.07" points="61.874,16.500 63.542,15.396 60.894,11.393 59.226,12.496"/>
<polygon fill="#1f77b4" fill-opacity="0.140" stroke="#1f77b4" stroke-opacity="0.55" stroke-width="0.07" points="61.507,17.780 63.456,17.330 62.376,12.653 60.427,13.103"/>
<polygon fill="#1f77b4" fill-opacity="0.140" stroke="#1f77b4" stroke-opacity="0.55" stroke-width="0.07" points="61.136,19.017 63.135,18.983 63.055,14.184 61.056,14.217"/>
<polygon fill="#1f77b4" fill-opacity="0.140" stroke="#1f77b4" stroke-opacity="0.55" stroke-width="0.07" points="60.977,20.354 62.975,20.432 63.163,15.636 61.164,15.558"/>
<polygon fill="#1f77b4" fill-opacity="0.140" stroke="#1f77b4" stroke-opacity="0.55" stroke-width="0.07" points="60.944,21.757 62.943,21.819 63.091,17.021 61.092,16.959"/>
<polygon fill="#1f77b4" fill-opacity="0.140" stroke="#1f77b4" stroke-opacity="0.55" stroke-width="0.07" points="60.955,23.170 62.955,23.196 63.018,18.397 61.018,18.371"/>
<polygon fill="#1f77b4" fill-opacity="0.140" stroke="#1f77b4" stroke-opacity="0.55" stroke-width="0.07" points="60.971,24.576 62.971,24.581 62.982,19.781 60.982,19.776"/>
<polygon fill="#1f77b4" fill-opacity="0.140" stroke="#1f77b4" stroke-opacity="0.55" stroke-width="0.07" points="60.979,25.975 62.979,25.972 62.973,21.172 60.973,21.175"/>
<polygon fill="#1f77b4" fill-opacity="0.140" stroke="#1f77b4" stroke-opacity="0.55" stroke-width="0.07" points="60.981,27.370 62.981,27.367 62.975,22.567 60.975,22.570"/>
<polygon fill="#1f77b4" fill-opacity="0.140" stroke="#1f77b4" stroke-opacity="0.55" stroke-width="0.07" points="60.981,28.764 62.981,28.763 62.978,23.963 60.978,23.964"/>
<polygon fill="#1f77b4" fill-opacity="0.140" stroke="#1f77b4" stroke-opacity="0.55" stroke-width="0.07" points="60.981,30.159 62.981,30.158 62.980,25.358 60.980,25.359"/>
<polygon fill="#1f77b4" fill-opacity="0.140" stroke="#1f77b4" stroke-opacity="0.55" stroke-width="0.07" points="60.980,31.553 62.980,31.553 62.980,26.753 60.980,26.753"/>
<polygon fill="#1f77b4" fill-opacity="0.140" stroke="#1f77b4" stroke-opacity="0.55" stroke-width="0.07" points="60.980,32.948 62.980,32.948 62.980,28.148 60.980,28.148"/>
<polygon fill="#1f77b4" fill-opacity="0.140" stroke="#1f77b4" stroke-opacity="0.55" stroke-width="0.07" points="60.980,34.343 62.980,34.343 62.980,29.543 60.980,29.543"/>
<polygon fill="#1f77b4" fill-opacity="0.140" stroke="#1f77b4" stroke-opacity="0.55" stroke-width="0.07" points="60.929,35.718 62.929,35.757 63.022,30.958 61.023,30.919"/>
<polygon fill="#1f77b4" fill-opacity="0.140" stroke="#1f77b4" stroke-opacity="0.55" stroke-width="0.07" points="60.380,36.870 62.338,37.280 63.322,32.582 61.364,32.172"/>
<polygon fill="#1f77b4" fill-opacity="0.140" stroke="#1f77b4" stroke-opacity="0.55" stroke-width="0.07" points="59.247,37.542 60.950,38.591 63.467,34.503 61.764,33.455"/>
<polygon fill="#1f77b4" fill-opacity="0.140" stroke="#1f77b4" stroke-opacity="0.55" stroke-width="0.07" points="57.928,37.738 59.150,39.321 62.950,36.389 61.728,34.806"/>
<polygon fill="#1f77b4" fill-opacity="0.140" stroke="#1f77b4" stroke-opacity="0.55" stroke-width="0.07" points="56.625,37.454 57.208,39.367 61.800,37.970 61.218,36.057"/>
<polygon fill="#1f77b4" fill-opacity="0.140" stroke="#1f77b4" stroke-opacity="0.55" stroke-width="0.07" points="55.487,36.772 55.390,38.769 60.185,39.001 60.281,37.003"/>
<polygon fill="#1f77b4" fill-opacity="0.140" stroke="#1f77b4" stroke-opacity="0.55" stroke-width="0.07" points="54.202,36.428 53.939,38.410 58.697,39.042 58.960,37.059"/>
<polygon fill="#1f77b4" fill-opacity="0.140" stroke="#1f77b4" stroke-opacity="0.55" stroke-width="0.07" points="52.753,36.387 52.590,38.381 57.374,38.771 57.537,36.778"/>
<polygon fill="#1f77b4" fill-opacity="0.140" stroke="#1f77b4" stroke-opacity="0.55" stroke-width="0.07" points="51.300,36.437 51.244,38.436 56.042,38.570 56.098,36.571"/>
<polygon fill="#1f77b4" fill-opacity="0.140" stroke="#1f77b4" stroke-opacity="0.55" stroke-width="0.07" points="49.877,36.481 49.874,38.481 54.674,38.489 54.677,36.489"/>
<polygon fill="#1f77b4" fill-opacity="0.140" stroke="#1f77b4" stroke-opacity="0.55" stroke-width="0.07" points="48.530,36.503 48.542,38.503 53.342,38.474 53.330,36.474"/>
<polygon fill="#1f77b4" fill-opacity="0.140" stroke="#1f77b4" stroke-opacity="0.55" stroke-width="0.07" points="47.504,36.509 47.515,38.509 52.315,38.482 52.304,36.482"/>
<polygon fill="#1f77b4" fill-opacity="0.140" stroke="#1f77b4" stroke-opacity="0.55" stroke-width="0.07" points="46.815,36.506 46.821,38.506 51.621,38.491 51.615,36.491"/>
<polygon fill="#1f77b4" fill-opacity="0.140" stroke="#1f77b4" stroke-opacity="0.55" stroke-width="0.07" points="46.369,36.503 46.371,38.503 51.171,38.496 51.169,36.496"/>
<polygon fill="#1f77b4" fill-opacity="0.140" stroke="#1f77b4" stroke-opacity="0.55" stroke-width="0.07" points="46.140,36.502 46.141,38.502 50.941,38.498 50.940,36.498"/>
<polygon fill="#1f77b4" fill-opacity="0.160" stroke="#1f77b4" stroke-opacity="0.55" stroke-width="0.07" points="46.143,36.502 46.145,38.502 50.945,38.498 50.943,36.498"/>
<polygon fill="#1f77b4" fill-opacity="0.160" stroke="#1f77b4" stroke-opacity="0.55" stroke-width="0.07" points="46.505,36.501 46.506,38.501 51.306,38.499 51.305,36.499"/>
<polygon fill="#1f77b4" fill-opacity="0.160" stroke="#1f77b4" stroke-opacity="0.55" stroke-width="0.07" points="47.056,36.500 47.057,38.500 51.857,38.499 51.856,36.499"/>
<polygon fill="#1f77b4" fill-opacity="0.160" stroke="#1f77b4" stroke-opacity="0.55" stroke-width="0.07" points="47.636,36.500 47.637,38.500 52.437,38.499 52.436,36.499"/>
<polygon fill="#1f77b4" fill-opacity="0.160" stroke="#1f77b4" stroke-opacity="0.55" stroke-width="0.07" points="48.221,36.500 48.221,38.500 53.021,38.499 53.021,36.499"/>
<polygon fill="#1f77b4" fill-opacity="0.160" stroke="#1f77b4" stroke-opacity="0.55" stroke-width="0.07" points="48.806,36.500 48.806,38.500 53.606,38.499 53.606,36.499"/>
<polygon fill="#1f77b4" fill-opacity="0.160" stroke="#1f77b4" stroke-opacity="0.55" stroke-width="0.07" points="49.372,36.500 49.373,38.500 54.173,38.499 54.172,36.499"/>
<polygon fill="#1f77b4" fill-opacity="0.160" stroke="#1f77b4" stroke-opacity="0.55" stroke-width="0.07" points="49.874,36.500 49.875,38.500 54.675,38.498 54.674,36.498"/>
<polygon fill="#1f77b4" fill-opacity="0.160" stroke="#1f77b4" stroke-opacity="0.55" stroke-width="0.07" points="50.305,36.499 50.306,38.499 55.106,38.498 55.105,36.498"/>
<polygon fill="#1f77b4" fill-opacity="0.160" stroke="#1f77b4" stroke-opacity="0.55" stroke-width="0.07" points="50.392,36.499 50.393,38.499 55.193,38.498 55.192,36.498"/>
<polygon fill="#ff7f0e" fill-opacity="0.160" stroke="#ff7f0e" stroke-opacity="0.55" stroke-width="0.07" points="50.392,36.499 50.393,38.499 55.193,38.498 55.192,36.498"/>
<polygon fill="#ff7f0e" fill-opacity="0.160" stroke="#ff7f0e" stroke-opacity="0.55" stroke-width="0.07" points="50.748,36.499 50.748,38.499 55.548,38.498 55.548,36.498"/>
<polygon fill="#ff7f0e" fill-opacity="0.160" stroke="#ff7f0e" stroke-opacity="0.55" stroke-width="0.07" points="51.070,36.499 51.071,38.499 55.871,38.498 55.870,36.498"/>
<polygon fill="#ff7f0e" fill-opacity="0.160" stroke="#ff7f0e" stroke-opacity="0.55" stroke-width="0.07" points="51.354,36.502 51.356,38.502 56.156,38.495 56.154,36.496"/>
<polygon fill="#ff7f0e" fill-opacity="0.160" stroke="#ff7f0e" stroke-opacity="0.55" stroke-width="0.07" points="51.724,36.749 51.946,38.737 56.716,38.203 56.494,36.216"/>
<polygon fill="#ff7f0e" fill-opacity="0.160" stroke="#ff7f0e" stroke-opacity="0.55" stroke-width="0.07" points="52.269,37.052 52.819,38.975 57.434,37.657 56.884,35.734"/>
<polygon fill="#ff7f0e" fill-opacity="0.160" stroke="#ff7f0e" stroke-opacity="0.55" stroke-width="0.07" points="52.882,37.267 53.756,39.066 58.074,36.969 57.200,35.170"/>
<polygon fill="#ff7f0e" fill-opacity="0.160" stroke="#ff7f0e" stroke-opacity="0.55" stroke-width="0.07" points="53.527,37.374 54.701,38.993 58.588,36.177 57.414,34.557"/>
<polygon fill="#ff7f0e" fill-opacity="0.160" stroke="#ff7f0e" stroke-opacity="0.55" stroke-width="0.07" points="54.181,37.366 55.619,38.756 58.956,35.306 57.519,33.916"/>
<polygon fill="#ff7f0e" fill-opacity="0.160" stroke="#ff7f0e" stroke-opacity="0.55" stroke-width="0.07" points="54.824,37.244 56.482,38.363 59.167,34.385 57.510,33.266"/>
<polygon fill="#ff7f0e" fill-opacity="0.160" stroke="#ff7f0e" stroke-opacity="0.55" stroke-width="0.07" points="55.436,37.013 57.263,37.826 59.215,33.440 57.388,32.627"/>
<polygon fill="#ff7f0e" fill-opacity="0.160" stroke="#ff7f0e" stroke-opacity="0.55" stroke-width="0.07" points="55.986,36.668 57.923,37.164 59.113,32.513 57.175,32.018"/>
<polygon fill="#ff7f0e" fill-opacity="0.160" stroke="#ff7f0e" stroke-opacity="0.55" stroke-width="0.07" points="56.446,36.222 58.437,36.410 58.888,31.631 56.897,31.443"/>
<polygon fill="#ff7f0e" fill-opacity="0.160" stroke="#ff7f0e" stroke-opacity="0.55" stroke-width="0.07" points="56.694,35.654 58.694,35.651 58.685,30.851 56.685,30.854"/>
<polygon fill="#ff7f0e" fill-opacity="0.160" stroke="#ff7f0e" stroke-opacity="0.55" stroke-width="0.07" points="56.693,34.979 58.693,34.976 58.684,30.176 56.684,30.179"/>
<polygon fill="#ff7f0e" fill-opacity="0.160" stroke="#ff7f0e" stroke-opacity="0.55" stroke-width="0.07" points="56.691,34.310 58.691,34.306 58.683,29.506 56.683,29.510"/>
<polygon fill="#ff7f0e" fill-opacity="0.160" stroke="#ff7f0e" stroke-opacity="0.55" stroke-width="0.07" points="56.690,33.705 58.690,33.701 58.682,28.901 56.682,28.905"/>
<polygon fill="#ff7f0e" fill-opacity="0.160" stroke="#ff7f0e" stroke-opacity="0.55" stroke-width="0.07" points="56.689,33.194 58.689,33.191 58.681,28.391 56.681,28.394"/>
<polygon fill="#ff7f0e" fill-opacity="0.160" stroke="#ff7f0e" stroke-opacity="0.55" stroke-width="0.07" points="56.689,32.768 58.689,32.765 58.681,27.965 56.681,27.968"/>
<polygon fill="#ff7f0e" fill-opacity="0.160" stroke="#ff7f0e" stroke-opacity="0.55" stroke-width="0.07" points="56.688,32.414 58.688,32.411 58.680,27.611 56.680,27.614"/>
<polygon fill="#ff7f0e" fill-opacity="0.160" stroke="#ff7f0e" stroke-opacity="0.55" stroke-width="0.07" points="56.688,32.092 58.688,32.089 58.679,27.289 56.679,27.292"/>
<polygon fill="#ff7f0e" fill-opacity="0.160" stroke="#ff7f0e" stroke-opacity="0.55" stroke-width="0.07" points="56.687,31.776 58.687,31.773 58.679,26.973 56.679,26.976"/>
<polygon fill="#ff7f0e" fill-opacity="0.160" stroke="#ff7f0e" stroke-opacity="0.55" stroke-width="0.07" points="56.687,31.461 58.687,31.458 58.678,26.658 56.678,26.661"/>
<polygon fill="#ff7f0e" fill-opacity="0.160" stroke="#ff7f0e" stroke-opacity="0.55" stroke-width="0.07" points="56.686,31.146 58.686,31.143 58.678,26.343 56.678,26.346"/>
<polygon fill="#ff7f0e" fill-opacity="0.160" stroke="#ff7f0e" stroke-opacity="0.55" stroke-width="0.07" points="56.685,30.831 58.685,30.828 58.677,26.028 56.677,26.031"/>
<polygon fill="#ff7f0e" fill-opacity="0.160" stroke="#ff7f0e" stroke-opacity="0.55" stroke-width="0.07" points="56.685,30.744 58.685,30.740 58.677,25.940 56.677,25.944"/>
<polygon fill="none" stroke="crimson" stroke-width="0.120" points="56.685,30.744 58.685,30.740 58.677,25.940 56.677,25.944"/>
</g>
</svg>
