<?xml version="1.0" encoding="UTF-8"?>
<svg xmlns="http://www.w3.org/2000/svg" width="1400" height="900" viewBox="0 -3 75 53">
<rect x="0" y="-3" width="75" height="53" fill="white"/>
<text x="1.5" y="-1.35" font-size="1.15" fill="black">Parking | target row=3 idx=5 | success=true sim_ok=true | max_steer=35 deg | overshoot~=5 m | total(ref)~=5e+01 m</text>
<text x="1.5" y="-0.45" font-size="0.95" fill="black">ok</text>
<g transform="translate(0,50.000) scale(1,-1)">
<rect x="0" y="0" width="75.000" height="50.000" fill="none" stroke="black" stroke-width="0.15"/>
<rect x="0.000" y="9.000" width="75.000" height="6.000" fill="#add8e6" fill-opacity="0.25" stroke="#add8e6" stroke-width="0.08"/>
<rect x="0.000" y="34.500" width="75.000" height="6.000" fill="#add8e6" fill-opacity="0.25" stroke="#add8e6" stroke-width="0.08"/>
<rect x="60.000" y="12.000" width="6.000" height="25.500" fill="#90ee90" fill-opacity="0.25" stroke="#90ee90" stroke-width="0.08"/>
<rect x="12.000" y="44.000" width="4.800" height="6.000" fill="white" stroke="gray" stroke-width="0.080" fill-opacity="0.85"/>
<rect x="16.800" y="44.000" width="4.800" height="6.000" fill="white" stroke="gray" stroke-width="0.080" fill-opacity="0.85"/>
<rect x="21.600" y="44.000" width="4.800" height="6.000" fill="black" stroke="gray" stroke-width="0.080" fill-opacity="0.95"/>
<rect x="26.400" y="44.000" width="4.800" height="6.000" fill="black" stroke="gray" stroke-width="0.080" fill-opacity="0.95"/>
<rect x="31.200" y="44.000" width="4.800" height="6.000" fill="white" stroke="gray" stroke-width="0.080" fill-opacity="0.85"/>
<rect x="36.000" y="44.000" width="4.800" height="6.000" fill="white" stroke="gray" stroke-width="0.080" fill-opacity="0.85"/>
<rect x="40.800" y="44.000" width="4.800" height="6.000" fill="white" stroke="gray" stroke-width="0.080" fill-opacity="0.85"/>
<rect x="45.600" y="44.000" width="4.800" height="6.000" fill="white" stroke="gray" stroke-width="0.080" fill-opacity="0.85"/>
<rect x="50.400" y="44.000" width="4.800" height="6.000" fill="black" stroke="gray" stroke-width="0.080" fill-opacity="0.95"/>
<rect x="55.200" y="44.000" width="4.800" height="6.000" fill="white" stroke="gray" stroke-width="0.080" fill-opacity="0.85"/>
<rect x="12.000" y="25.000" width="4.800" height="6.000" fill="black" stroke="gray" stroke-width="0.080" fill-opacity="0.95"/>
<rect x="16.800" y="25.000" width="4.800" height="6.000" fill="black" stroke="gray" stroke-width="0.080" fill-opacity="0.95"/>
<rect x="21.600" y="25.000" width="4.800" height="6.000" fill="black" stroke="gray" stroke-width="0.080" fill-opacity="0.95"/>
<rect x="26.400" y="25.000" width="4.800" height="6.000" fill="white" stroke="gray" stroke-width="0.080" fill-opacity="0.85"/>
<rect x="31.200" y="25.000" width="4.800" height="6.000" fill="white" stroke="gray" stroke-width="0.080" fill-opacity="0.85"/>
<rect x="36.000" y="25.000" width="4.800" height="6.000" fill="black" stroke="gray" stroke-width="0.080" fill-opacity="0.95"/>
<rect x="40.800" y="25.000" width="4.800" height="6.000" fill="white" stroke="gray" stroke-width="0.080" fill-opacity="0.85"/>
<rect x="45.600" y="25.000" width="4.800" height="6.000" fill="black" stroke="gray" stroke-width="0.080" fill-opacity="0.95"/>
<rect x="50.400" y="25.000" width="4.800" height="6.000" fill="white" stroke="gray" stroke-width="0.080" fill-opacity="0.85"/>
<rect x="55.200" y="25.000" width="4.800" height="6.000" fill="white" stroke="gray" stroke-width="0.080" fill-opacity="0.85"/>
<rect x="12.000" y="19.000" width="4.800" height="6.000" fill="white" stroke="gray" stroke-width="0.080" fill-opacity="0.85"/>
<rect x="16.800" y="19.000" width="4.800" height="6.000" fill="white" stroke="gray" stroke-width="0.080" fill-opacity="0.85"/>
<rect x="21.600" y="19.000" width="4.800" height="6.000" fill="white" stroke="gray" stroke-width="0.080" fill-opacity="0.85"/>
<rect x="26.400" y="19.000" width="4.800" height="6.000" fill="white" stroke="gray" stroke-width="0.080" fill-opacity="0.85"/>
<rect x="31.200" y="19.000" width="4.800" height="6.000" fill="black" stroke="gray" stroke-width="0.080" fill-opacity="0.95"/>
<rect x="36.000" y="19.000" width="4.800" height="6.000" fill="white" stroke="gray" stroke-width="0.080" fill-opacity="0.85"/>
<rect x="40.800" y="19.000" width="4.800" height="6.000" fill="white" stroke="gray" stroke-width="0.080" fill-opacity="0.85"/>
<rect x="45.600" y="19.000" width="4.800" height="6.000" fill="white" stroke="gray" stroke-width="0.080" fill-opacity="0.85"/>
<rect x="50.400" y="19.000" width="4.800" height="6.000" fill="black" stroke="gray" stroke-width="0.080" fill-opacity="0.95"/>
<rect x="55.200" y="19.000" width="4.800" height="6.000" fill="white" stroke="gray" stroke-width="0.080" fill-opacity="0.85"/>
<rect x="12.000" y="0.000" width="4.800" height="6.000" fill="white" stroke="gray" stroke-width="0.080" fill-opacity="0.85"/>
<rect x="16.800" y="0.000" width="4.800" height="6.000" fill="white" stroke="gray" stroke-width="0.080" fill-opacity="0.85"/>
<rect x="21.600" y="0.000" width="4.800" height="6.000" fill="black" stroke="gray" stroke-width="0.080" fill-opacity="0.95"/>
<rect x="26.400" y="0.000" width="4.800" height="6.000" fill="white" stroke="gray" stroke-width="0.080" fill-opacity="0.85"/>
<rect x="31.200" y="0.000" width="4.800" height="6.000" fill="black" stroke="gray" stroke-width="0.080" fill-opacity="0.95"/>
<rect x="36.000" y="0.000" width="4.800" height="6.000" fill="#98fb98" stroke="darkgreen" stroke-width="0.180" fill-opacity="0.85"/>
<rect x="40.800" y="0.000" width="4.800" height="6.000" fill="black" stroke="gray" stroke-width="0.080" fill-opacity="0.95"/>
<rect x="45.600" y="0.000" width="4.800" height="6.000" fill="white" stroke="gray" stroke-width="0.080" fill-opacity="0.85"/>
<rect x="50.400" y="0.000" width="4.800" height="6.000" fill="white" stroke="gray" stroke-width="0.080" fill-opacity="0.85"/>
<rect x="55.200" y="0.000" width="4.800" height="6.000" fill="white" stroke="gray" stroke-width="0.080" fill-opacity="0.85"/>
<polygon fill="none" stroke="navy" stroke-width="0.120" points="6.400,13.000 6.400,11.000 1.600,11.000 1.600,13.000"/>
<polygon fill="purple" points="35.620,12.000 35.900,12.350 36.180,12.000 35.900,11.650"/>
<circle cx="43.200" cy="12.000" r="0.38" fill="darkviolet" stroke="indigo" stroke-width="0.06"/>
<polyline fill="none" stroke="#808080" stroke-width="0.120" stroke-opacity="0.65" stroke-dasharray="0.45 0.35" points="4.000,12.000 35.900,12.000 43.200,12.000"/>
<polyline fill="none" stroke="#808080" stroke-width="0.120" stroke-opacity="0.65" stroke-dasharray="0.45 0.35" points="43.200,12.000 43.200,11.835 43.192,11.667 43.177,11.496 43.154,11.323 43.124,11.146 43.087,10.968 43.044,10.786 42.994,10.603 42.938,10.417 42.876,10.230 42.808,10.041 42.734,9.850 42.656,9.658 42.572,9.464 42.483,9.269 42.389,9.073 42.291,8.877 42.189,8.679 42.083,8.481 41.973,8.283 41.860,8.084 41.743,7.885 41.623,7.686 41.500,7.487 41.375,7.289 41.247,7.091 41.117,6.893 40.985,6.697 40.851,6.501 40.716,6.306 40.579,6.113 40.442,5.921 40.303,5.730 40.164,5.541 40.024,5.354 39.885,5.168 39.745,4.985 39.606,4.804 39.467,4.625 39.329,4.449 39.191,4.276 39.055,4.105 38.920,3.938 38.787,3.773 38.656,3.612 38.527,3.454 38.400,3.300"/>
<polyline fill="none" stroke="#1f77b4" stroke-width="0.220" stroke-opacity="0.95" points="4.008,12.000 4.022,12.000 4.043,12.000 4.070,12.000 4.102,12.000 4.138,12.000 4.179,12.000 4.223,12.000 4.270,12.000 4.321,12.000 4.374,12.000 4.429,12.000 4.487,12.000 4.547,12.000 4.609,12.000 4.672,12.000 4.736,12.000 4.802,12.000 4.869,12.000 4.937,12.000 5.006,12.000 5.076,12.000 5.147,12.000 5.218,12.000 5.290,12.000 5.363,12.000 5.436,12.000 5.509,12.000 5.583,12.000 5.657,12.000 5.732,12.000 5.806,12.000 5.882,12.000 5.957,12.000 6.032,12.000 6.108,12.000 6.184,12.000 6.260,12.000 6.336,12.000 6.413,12.000 6.489,12.000 6.566,12.000 6.643,12.000 6.719,12.000 6.796,12.000 6.873,12.000 6.950,12.000 7.027,12.000 7.104,12.000 7.181,12.000 7.258,12.000 7.335,12.000 7.413,12.000 7.490,12.000 7.567,12.000 7.644,12.000 7.722,12.000 7.799,12.000 7.876,12.000 7.954,12.000 8.031,12.000 8.109,12.000 8.186,12.000 8.263,12.000 8.341,12.000 8.418,12.000 8.496,12.000 8.573,12.000 8.650,12.000 8.728,12.000 8.805,12.000 8.883,12.000 8.960,12.000 9.038,12.000 9.115,12.000 9.193,12.000 9.270,12.000 9.348,12.000 9.425,12.000 9.503,12.000 9.580,12.000 9.658,12.000 9.735,12.000 9.813,12.000 9.890,12.000 9.968,12.000 10.045,12.000 10.123,12.000 10.200,12.000 10.278,12.000 10.355,12.000 10.433,12.000 10.510,12.000 10.588,12.000 10.665,12.000 10.743,12.000 10.820,12.000 10.898,12.000 10.975,12.000 11.053,12.000 11.130,12.000 11.208,12.000 11.285,12.000 11.363,12.000 11.440,12.000 11.518,12.000 11.595,12.000 11.673,12.000 11.750,12.000 11.828,12.000 11.905,12.000 11.983,12.000 12.060,12.000 12.138,12.000 12.215,12.000 12.293,12.000 12.370,12.000 12.448,12.000 12.525,12.000 12.603,12.000 12.680,12.000 12.758,12.000 12.835,12.000 12.913,12.000 12.990,12.000 13.068,12.000 13.145,12.000 13.223,12.000 13.300,12.000 13.378,12.000 13.455,12.000 13.533,12.000 13.610,12.000 13.688,12.000 13.765,12.000 13.843,12.000 13.920,12.000 13.998,12.000 14.075,12.000 14.153,12.000 14.230,12.000 14.308,12.000 14.385,12.000 14.463,12.000 14.540,12.000 14.618,12.000 14.695,12.000 14.773,12.000 14.850,12.000 14.928,12.000 15.005,12.000 15.083,12.000 15.160,12.000 15.238,12.000 15.315,12.000 15.393,12.000 15.470,12.000 15.548,12.000 15.625,12.000 15.703,12.000 15.780,12.000 15.858,12.000 15.935,12.000 16.013,12.000 16.090,12.000 16.168,12.000 16.245,12.000 16.323,12.000 16.400,12.000 16.478,12.000 16.555,12.000 16.633,12.000 16.710,12.000 16.788,12.000 16.865,12.000 16.943,12.000 17.020,12.000 17.098,12.000 17.175,12.000 17.253,12.000 17.330,12.000 17.408,12.000 17.485,12.000 17.563,12.000 17.640,12.000 17.718,12.000 17.795,12.000 17.873,12.000 17.950,12.000 18.028,12.000 18.105,12.000 18.183,12.000 18.260,12.000 18.338,12.000 18.415,12.000 18.493,12.000 18.570,12.000 18.648,12.000 18.725,12.000 18.803,12.000 18.880,12.000 18.958,12.000 19.035,12.000 19.113,12.000 19.190,12.000 19.268,12.000 19.345,12.000 19.423,12.000 19.500,12.000 19.578,12.000 19.655,12.000 19.733,12.000 19.810,12.000 19.888,12.000 19.965,12.000 20.043,12.000 20.120,12.000 20.198,12.000 20.275,12.000 20.353,12.000 20.430,12.000 20.508,12.000 20.585,12.000 20.663,12.000 20.740,12.000 20.818,12.000 20.895,12.000 20.973,12.000 21.050,12.000 21.128,12.000 21.205,12.000 21.283,12.000 21.360,12.000 21.438,12.000 21.515,12.000 21.593,12.000 21.670,12.000 21.748,12.000 21.825,12.000 21.903,12.000 21.980,12.000 22.058,12.000 22.135,12.000 22.213,12.000 22.290,12.000 22.368,12.000 22.445,12.000 22.523,12.000 22.600,12.000 22.678,12.000 22.755,12.000 22.833,12.000 22.910,12.000 22.988,12.000 23.065,12.000 23.143,12.000 23.220,12.000 23.298,12.000 23.375,12.000 23.453,12.000 23.530,12.000 23.608,12.000 23.685,12.000 23.763,12.000 23.840,12.000 23.918,12.000 23.995,12.000 24.073,12.000 24.150,12.000 24.228,12.000 24.305,12.000 24.383,12.000 24.460,12.000 24.538,12.000 24.615,12.000 24.693,12.000 24.770,12.000 24.848,12.000 24.925,12.000 25.003,12.000 25.080,12.000 25.158,12.000 25.235,12.000 25.313,12.000 25.390,12.000 25.468,12.000 25.545,12.000 25.623,12.000 25.700,12.000 25.778,12.000 25.855,12.000 25.933,12.000 26.010,12.000 26.088,12.000 26.165,12.000 26.243,12.000 26.320,12.000 26.398,12.000 26.475,12.000 26.553,12.000 26.630,12.000 26.708,12.000 26.785,12.000 26.863,12.000 26.940,12.000 27.018,12.000 27.095,12.000 27.173,12.000 27.250,12.000 27.328,12.000 27.405,12.000 27.483,12.000 27.560,12.000 27.638,12.000 27.715,12.000 27.793,12.000 27.870,12.000 27.948,12.000 28.025,12.000 28.103,12.000 28.180,12.000 28.258,12.000 28.335,12.000 28.413,12.000 28.490,12.000 28.568,12.000 28.645,12.000 28.723,12.000 28.800,12.000 28.878,12.000 28.955,12.000 29.033,12.000 29.110,12.000 29.188,12.000 29.265,12.000 29.343,12.000 29.420,12.000 29.498,12.000 29.575,12.000 29.653,12.000 29.730,12.000 29.808,12.000 29.885,12.000 29.963,12.000 30.040,12.000 30.118,12.000 30.195,12.000 30.273,12.000 30.350,12.000 30.428,12.000 30.505,12.000 30.583,12.000 30.660,12.000 30.738,12.000 30.815,12.000 30.893,12.000 30.970,12.000 31.048,12.000 31.125,12.000 31.203,12.000 31.280,12.000 31.358,12.000 31.435,12.000 31.513,12.000 31.590,12.000 31.668,12.000 31.745,12.000 31.823,12.000 31.900,12.000 31.978,12.000 32.055,12.000 32.133,12.000 32.210,12.000 32.288,12.000 32.365,12.000 32.443,12.000 32.520,12.000 32.598,12.000 32.675,12.000 32.753,12.000 32.830,12.000 32.908,12.000 32.985,12.000 33.063,12.000 33.140,12.000 33.218,12.000 33.295,12.000 33.373,12.000 33.450,12.000 33.528,12.000 33.605,12.000 33.683,12.000 33.760,12.000 33.838,12.000 33.915,12.000 33.993,12.000 34.070,12.000 34.148,12.000 34.225,12.000 34.303,12.000 34.380,12.000 34.458,12.000 34.535,12.000 34.613,12.000 34.690,12.000 34.768,12.000 34.845,12.000 34.923,12.000 35.000,12.000 35.078,12.000 35.155,12.000 35.233,12.000 35.310,12.000 35.388,12.000 35.465,12.000 35.543,12.000 35.620,12.000 35.698,12.000 35.775,12.000 35.853,12.000 35.930,12.000 36.008,12.000 36.085,12.000 36.163,12.000 36.240,12.000 36.318,12.000 36.395,12.000 36.473,12.000 36.550,12.000 36.628,12.000 36.705,12.000 36.783,12.000 36.860,12.000 36.938,12.000 37.015,12.000 37.093,12.000 37.170,12.000 37.248,12.000 37.325,12.000 37.403,12.000 37.480,12.000 37.558,12.000 37.635,12.000 37.713,12.000 37.790,12.000 37.868,12.000 37.945,12.000 38.023,12.000 38.100,12.000 38.178,12.000 38.255,12.000 38.333,12.000 38.410,12.000 38.488,12.000 38.565,12.000 38.643,12.000 38.720,12.000 38.798,12.000 38.875,12.000 38.953,12.000 39.030,12.000 39.108,12.000 39.185,12.000 39.263,12.000 39.340,12.000 39.417,12.000 39.494,12.000 39.570,12.000 39.646,12.000 39.721,12.000 39.795,12.000 39.868,12.000 39.941,12.000 40.012,12.000 40.083,12.000 40.152,12.000 40.221,12.000 40.288,12.000 40.355,12.000 40.420,12.000 40.484,12.000 40.547,12.000 40.609,12.000 40.669,12.000 40.729,12.000 40.787,12.000 40.844,12.000 40.900,12.000 40.955,12.000 41.009,12.000 41.061,12.000 41.113,12.000 41.163,12.000 41.213,12.000 41.261,12.000 41.308,12.000 41.354,12.000 41.399,12.000 41.443,12.000 41.486,12.000 41.528,12.000 41.569,12.000 41.609,12.000 41.649,12.000 41.687,12.000 41.724,12.000 41.761,12.000 41.797,12.000 41.831,12.000 41.865,12.000 41.899,12.000 41.931,12.000 41.962,12.000 41.993,12.000 42.023,12.000 42.053,12.000 42.081,12.000 42.109,12.000 42.137,12.000 42.163,12.000 42.189,12.000 42.214,12.000 42.239,12.000 42.263,12.000 42.287,12.000 42.310,12.000 42.332,12.000 42.354,12.000 42.375,12.000 42.396,12.000 42.417,12.000 42.437,12.000 42.458,12.000 42.477,12.000 42.497,12.000 42.516,12.000 42.536,12.000 42.555,12.000 42.573,12.000 42.592,12.000 42.611,12.000 42.629,12.000 42.648,12.000 42.666,12.000"/>
<polyline fill="none" stroke="#ff7f0e" stroke-width="0.220" stroke-opacity="0.95" points="42.662,12.000 42.655,12.000 42.645,12.000 42.632,12.000 42.617,12.000 42.599,12.000 42.580,12.000 42.558,12.000 42.535,11.999 42.511,11.999 42.485,11.998 42.458,11.997 42.430,11.996 42.401,11.995 42.372,11.993 42.341,11.991 42.310,11.989 42.278,11.987 42.246,11.984 42.213,11.981 42.180,11.977 42.146,11.974 42.112,11.970 42.078,11.965 42.044,11.960 42.009,11.955 41.974,11.950 41.939,11.944 41.904,11.938 41.868,11.931 41.833,11.924 41.798,11.917 41.762,11.909 41.727,11.901 41.691,11.893 41.655,11.884 41.620,11.875 41.584,11.866 41.549,11.856 41.513,11.846 41.478,11.835 41.442,11.825 41.407,11.813 41.371,11.802 41.336,11.790 41.301,11.778 41.266,11.765 41.231,11.752 41.196,11.739 41.162,11.725 41.127,11.711 41.093,11.697 41.058,11.682 41.024,11.667 40.990,11.652 40.956,11.636 40.922,11.620 40.888,11.604 40.855,11.587 40.822,11.570 40.788,11.553 40.755,11.535 40.722,11.517 40.690,11.499 40.657,11.480 40.625,11.461 40.593,11.442 40.561,11.423 40.529,11.403 40.497,11.383 40.466,11.362 40.435,11.341 40.404,11.320 40.373,11.299 40.343,11.277 40.312,11.255 40.282,11.233 40.252,11.210 40.222,11.187 40.193,11.164 40.164,11.141 40.135,11.117 40.106,11.093 40.077,11.069 40.049,11.044 40.021,11.019 39.993,10.994 39.965,10.969 39.938,10.943 39.911,10.917 39.884,10.891 39.857,10.865 39.831,10.838 39.805,10.811 39.779,10.784 39.754,10.757 39.728,10.729 39.703,10.701 39.679,10.673 39.654,10.644 39.630,10.616 39.606,10.587 39.582,10.558 39.559,10.528 39.536,10.499 39.513,10.469 39.491,10.439 39.469,10.409 39.447,10.378 39.425,10.347 39.404,10.317 39.383,10.286 39.362,10.254 39.342,10.223 39.322,10.191 39.302,10.159 39.283,10.127 39.263,10.095 39.245,10.063 39.226,10.030 39.208,9.997 39.190,9.964 39.172,9.931 39.155,9.898 39.138,9.864 39.121,9.831 39.105,9.797 39.089,9.763 39.073,9.729 39.058,9.695 39.043,9.660 39.028,9.626 39.014,9.591 39.000,9.557 38.986,9.522 38.972,9.487 38.959,9.452 38.946,9.416 38.934,9.381 38.921,9.346 38.910,9.310 38.898,9.275 38.887,9.239 38.876,9.203 38.865,9.167 38.855,9.131 38.844,9.095 38.835,9.059 38.825,9.022 38.816,8.986 38.807,8.949 38.799,8.913 38.791,8.876 38.783,8.840 38.775,8.803 38.768,8.766 38.761,8.729 38.754,8.692 38.748,8.656 38.742,8.619 38.736,8.581 38.730,8.544 38.725,8.507 38.720,8.470 38.716,8.433 38.711,8.396 38.707,8.358 38.703,8.321 38.700,8.284 38.697,8.246 38.694,8.209 38.691,8.171 38.689,8.134 38.687,8.097 38.686,8.059 38.684,8.022 38.683,7.984 38.682,7.947 38.682,7.909 38.681,7.872 38.681,7.834 38.681,7.797 38.681,7.759 38.681,7.722 38.681,7.684 38.681,7.647 38.681,7.609 38.681,7.572 38.682,7.534 38.682,7.497 38.682,7.459 38.682,7.422 38.682,7.384 38.682,7.347 38.682,7.309 38.682,7.272 38.683,7.234 38.683,7.197 38.683,7.159 38.683,7.122 38.683,7.085 38.683,7.048 38.683,7.011 38.683,6.975 38.684,6.938 38.684,6.902 38.684,6.866 38.684,6.831 38.684,6.795 38.684,6.760 38.684,6.725 38.684,6.690 38.684,6.656 38.685,6.622 38.685,6.588 38.685,6.554 38.685,6.521 38.685,6.488 38.685,6.456 38.685,6.423 38.685,6.391 38.685,6.359 38.686,6.328 38.686,6.297 38.686,6.266 38.686,6.235 38.686,6.205 38.686,6.175 38.686,6.145 38.686,6.116 38.686,6.087 38.687,6.058 38.687,6.029 38.687,6.001 38.687,5.973 38.687,5.945 38.687,5.918 38.687,5.891 38.687,5.864 38.687,5.837 38.687,5.811 38.687,5.785 38.688,5.759 38.688,5.733 38.688,5.708 38.688,5.683 38.688,5.658 38.688,5.634 38.688,5.609 38.688,5.585 38.688,5.562 38.688,5.538 38.688,5.515 38.688,5.492 38.689,5.469 38.689,5.446 38.689,5.424 38.689,5.402 38.689,5.380 38.689,5.358 38.689,5.337 38.689,5.315 38.689,5.294 38.689,5.273 38.689,5.253 38.689,5.232 38.689,5.212 38.689,5.192 38.690,5.172 38.690,5.153 38.690,5.134 38.690,5.114 38.690,5.095 38.690,5.076 38.690,5.058 38.690,5.039 38.690,5.021 38.690,5.002 38.690,4.984 38.690,4.966 38.690,4.947 38.690,4.929 38.690,4.911 38.690,4.893 38.691,4.875 38.691,4.858 38.691,4.840 38.691,4.822 38.691,4.804 38.691,4.786 38.691,4.769 38.691,4.751 38.691,4.733 38.691,4.716 38.691,4.698 38.691,4.680 38.691,4.663 38.691,4.645 38.691,4.627 38.691,4.610 38.691,4.592 38.692,4.575 38.692,4.557 38.692,4.540 38.692,4.522 38.692,4.504 38.692,4.487 38.692,4.469 38.692,4.452 38.692,4.434 38.692,4.417 38.692,4.399 38.692,4.382 38.692,4.364 38.692,4.347 38.692,4.329 38.692,4.312 38.692,4.294 38.693,4.277 38.693,4.259 38.693,4.242 38.693,4.224 38.693,4.207 38.693,4.189 38.693,4.172 38.693,4.154 38.693,4.137 38.693,4.119 38.693,4.102 38.693,4.084 38.693,4.067 38.693,4.049 38.693,4.032 38.693,4.014 38.693,3.997 38.694,3.979 38.694,3.962 38.694,3.944 38.694,3.927 38.694,3.909 38.694,3.892 38.694,3.874 38.694,3.857 38.694,3.839 38.694,3.822 38.694,3.804 38.694,3.787 38.694,3.769 38.694,3.752 38.694,3.734 38.694,3.717 38.694,3.699 38.695,3.682 38.695,3.664 38.695,3.647 38.695,3.629 38.695,3.612 38.695,3.594 38.695,3.577 38.695,3.559 38.695,3.542 38.695,3.524 38.695,3.507 38.695,3.489 38.695,3.472 38.695,3.454 38.695,3.437 38.695,3.419 38.696,3.402 38.696,3.384 38.696,3.367 38.696,3.349"/>
<polygon fill="#1f77b4" fill-opacity="0.140" stroke="#1f77b4" stroke-opacity="0.55" stroke-width="0.07" points="6.408,13.000 6.408,11.000 1.608,11.000 1.608,13.000"/>
<polygon fill="#1f77b4" fill-opacity="0.140" stroke="#1f77b4" stroke-opacity="0.55" stroke-width="0.07" points="7.269,13.000 7.269,11.000 2.469,11.000 2.469,13.000"/>
<polygon fill="#1f77b4" fill-opacity="0.140" stroke="#1f77b4" stroke-opacity="0.55" stroke-width="0.07" points="8.584,13.000 8.584,11.000 3.784,11.000 3.784,13.000"/>
<polygon fill="#1f77b4" fill-opacity="0.140" stroke="#1f77b4" stroke-opacity="0.55" stroke-width="0.07" points="9.967,13.000 9.967,11.000 5.167,11.000 5.167,13.000"/>
<polygon fill="#1f77b4" fill-opacity="0.140" stroke="#1f77b4" stroke-opacity="0.55" stroke-width="0.07" points="11.360,13.000 11.360,11.000 6.560,11.000 6.560,13.000"/>
<polygon fill="#1f77b4" fill-opacity="0.140" stroke="#1f77b4" stroke-opacity="0.55" stroke-width="0.07" points="12.755,13.000 12.755,11.000 7.955,11.000 7.955,13.000"/>
<polygon fill="#1f77b4" fill-opacity="0.140" stroke="#1f77b4" stroke-opacity="0.55" stroke-width="0.07" points="14.150,13.000 14.150,11.000 9.350,11.000 9.350,13.000"/>
<polygon fill="#1f77b4" fill-opacity="0.140" stroke="#1f77b4" stroke-opacity="0.55" stroke-width="0.07" points="15.545,13.000 15.545,11.000 10.745,11.000 10.745,13.000"/>
<polygon fill="#1f77b4" fill-opacity="0.140" stroke="#1f77b4" stroke-opacity="0.55" stroke-width="0.07" points="16.940,13.000 16.940,11.000 12.140,11.000 12.140,13.000"/>
<polygon fill="#1f77b4" fill-opacity="0.140" stroke="#1f77b4" stroke-opacity="0.55" stroke-width="0.07" points="18.335,13.000 18.335,11.000 13.535,11.000 13.535,13.000"/>
<polygon fill="#1f77b4" fill-opacity="0.140" stroke="#1f77b4" stroke-opacity="0.55" stroke-width="0.07" points="19.730,13.000 19.730,11.000 14.930,11.000 14.930,13.000"/>
<polygon fill="#1f77b4" fill-opacity="0.140" stroke="#1f77b4" stroke-opacity="0.55" stroke-width="0.07" points="21.125,13.000 21.125,11.000 16.325,11.000 16.325,13.000"/>
<polygon fill="#1f77b4" fill-opacity="0.140" stroke="#1f77b4" stroke-opacity="0.55" stroke-width="0.07" points="22.520,13.000 22.520,11.000 17.720,11.000 17.720,13.000"/>
<polygon fill="#1f77b4" fill-opacity="0.140" stroke="#1f77b4" stroke-opacity="0.55" stroke-width="0.07" points="23.915,13.000 23.915,11.000 19.115,11.000 19.115,13.000"/>
<polygon fill="#1f77b4" fill-opacity="0.140" stroke="#1f77b4" stroke-opacity="0.55" stroke-width="0.07" points="25.310,13.000 25.310,11.000 20.510,11.000 20.510,13.000"/>
<polygon fill="#1f77b4" fill-opacity="0.140" stroke="#1f77b4" stroke-opacity="0.55" stroke-width="0.07" points="26.705,13.000 26.705,11.000 21.905,11.000 21.905,13.000"/>
<polygon fill="#1f77b4" fill-opacity="0.140" stroke="#1f77b4" stroke-opacity="0.55" stroke-width="0.07" points="28.100,13.000 28.100,11.000 23.300,11.000 23.300,13.000"/>
<polygon fill="#1f77b4" fill-opacity="0.140" stroke="#1f77b4" stroke-opacity="0.55" stroke-width="0.07" points="29.495,13.000 29.495,11.000 24.695,11.000 24.695,13.000"/>
<polygon fill="#1f77b4" fill-opacity="0.140" stroke="#1f77b4" stroke-opacity="0.55" stroke-width="0.07" points="30.890,13.000 30.890,11.000 26.090,11.000 26.090,13.000"/>
<polygon fill="#1f77b4" fill-opacity="0.140" stroke="#1f77b4" stroke-opacity="0.55" stroke-width="0.07" points="32.285,13.000 32.285,11.000 27.485,11.000 27.485,13.000"/>
<polygon fill="#1f77b4" fill-opacity="0.140" stroke="#1f77b4" stroke-opacity="0.55" stroke-width="0.07" points="33.680,13.000 33.680,11.000 28.880,11.000 28.880,13.000"/>
<polygon fill="#1f77b4" fill-opacity="0.140" stroke="#1f77b4" stroke-opacity="0.55" stroke-width="0.07" points="35.075,13.000 35.075,11.000 30.275,11.000 30.275,13.000"/>
<polygon fill="#1f77b4" fill-opacity="0.140" stroke="#1f77b4" stroke-opacity="0.55" stroke-width="0.07" points="36.470,13.000 36.470,11.000 31.670,11.000 31.670,13.000"/>
<polygon fill="#1f77b4" fill-opacity="0.140" stroke="#1f77b4" stroke-opacity="0.55" stroke-width="0.07" points="37.865,13.000 37.865,11.000 33.065,11.000 33.065,13.000"/>
<polygon fill="#1f77b4" fill-opacity="0.140" stroke="#1f77b4" stroke-opacity="0.55" stroke-width="0.07" points="39.260,13.000 39.260,11.000 34.460,11.000 34.460,13.000"/>
<polygon fill="#1f77b4" fill-opacity="0.140" stroke="#1f77b4" stroke-opacity="0.55" stroke-width="0.07" points="40.655,13.000 40.655,11.000 35.855,11.000 35.855,13.000"/>
<polygon fill="#1f77b4" fill-opacity="0.140" stroke="#1f77b4" stroke-opacity="0.55" stroke-width="0.07" points="42.046,13.000 42.046,11.000 37.246,11.000 37.246,13.000"/>
<polygon fill="#1f77b4" fill-opacity="0.140" stroke="#1f77b4" stroke-opacity="0.55" stroke-width="0.07" points="43.244,13.000 43.244,11.000 38.444,11.000 38.444,13.000"/>
<polygon fill="#1f77b4" fill-opacity="0.140" stroke="#1f77b4" stroke-opacity="0.55" stroke-width="0.07" points="44.087,13.000 44.087,11.000 39.287,11.000 39.287,13.000"/>
<polygon fill="#1f77b4" fill-opacity="0.140" stroke="#1f77b4" stroke-opacity="0.55" stroke-width="0.07" points="44.639,13.000 44.639,11.000 39.839,11.000 39.839,13.000"/>
<polygon fill="#1f77b4" fill-opacity="0.140" stroke="#1f77b4" stroke-opacity="0.55" stroke-width="0.07" points="45.011,13.000 45.011,11.000 40.211,11.000 40.211,13.000"/>
<polygon fill="#1f77b4" fill-opacity="0.140" stroke="#1f77b4" stroke-opacity="0.55" stroke-width="0.07" points="45.066,13.000 45.066,11.000 40.266,11.000 40.266,13.000"/>
<polygon fill="#ff7f0e" fill-opacity="0.160" stroke="#ff7f0e" stroke-opacity="0.55" stroke-width="0.07" points="45.062,13.000 45.062,11.000 40.262,11.000 40.262,13.000"/>
<polygon fill="#ff7f0e" fill-opacity="0.160" stroke="#ff7f0e" stroke-opacity="0.55" stroke-width="0.07" points="44.542,13.205 44.729,11.214 39.950,10.763 39.763,12.754"/>
<polygon fill="#ff7f0e" fill-opacity="0.160" stroke="#ff7f0e" stroke-opacity="0.55" stroke-width="0.07" points="43.684,13.457 44.196,11.523 39.556,10.294 39.044,12.227"/>
<polygon fill="#ff7f0e" fill-opacity="0.160" stroke="#ff7f0e" stroke-opacity="0.55" stroke-width="0.07" points="42.750,13.566 43.588,11.750 39.230,9.738 38.392,11.554"/>
<polygon fill="#ff7f0e" fill-opacity="0.160" stroke="#ff7f0e" stroke-opacity="0.55" stroke-width="0.07" points="41.804,13.511 42.945,11.869 39.004,9.129 37.862,10.772"/>
<polygon fill="#ff7f0e" fill-opacity="0.160" stroke="#ff7f0e" stroke-opacity="0.55" stroke-width="0.07" points="40.881,13.292 42.291,11.874 38.887,8.490 37.477,9.909"/>
<polygon fill="#ff7f0e" fill-opacity="0.160" stroke="#ff7f0e" stroke-opacity="0.55" stroke-width="0.07" points="40.011,12.916 41.646,11.765 38.883,7.840 37.247,8.991"/>
<polygon fill="#ff7f0e" fill-opacity="0.160" stroke="#ff7f0e" stroke-opacity="0.55" stroke-width="0.07" points="39.226,12.394 41.035,11.540 38.984,7.200 37.176,8.054"/>
<polygon fill="#ff7f0e" fill-opacity="0.160" stroke="#ff7f0e" stroke-opacity="0.55" stroke-width="0.07" points="38.568,11.750 40.490,11.196 39.162,6.584 37.240,7.137"/>
<polygon fill="#ff7f0e" fill-opacity="0.160" stroke="#ff7f0e" stroke-opacity="0.55" stroke-width="0.07" points="38.047,11.017 40.030,10.756 39.403,5.997 37.420,6.258"/>
<polygon fill="#ff7f0e" fill-opacity="0.160" stroke="#ff7f0e" stroke-opacity="0.55" stroke-width="0.07" points="37.687,10.237 39.687,10.232 39.675,5.432 37.675,5.437"/>
<polygon fill="#ff7f0e" fill-opacity="0.160" stroke="#ff7f0e" stroke-opacity="0.55" stroke-width="0.07" points="37.675,9.556 39.675,9.563 39.691,4.763 37.691,4.756"/>
<polygon fill="#ff7f0e" fill-opacity="0.160" stroke="#ff7f0e" stroke-opacity="0.55" stroke-width="0.07" points="37.677,8.918 39.677,8.925 39.693,4.125 37.693,4.118"/>
<polygon fill="#ff7f0e" fill-opacity="0.160" stroke="#ff7f0e" stroke-opacity="0.55" stroke-width="0.07" points="37.679,8.370 39.679,8.376 39.695,3.576 37.695,3.570"/>
<polygon fill="#ff7f0e" fill-opacity="0.160" stroke="#ff7f0e" stroke-opacity="0.55" stroke-width="0.07" points="37.680,7.911 39.680,7.918 39.696,3.118 37.696,3.111"/>
<polygon fill="#ff7f0e" fill-opacity="0.160" stroke="#ff7f0e" stroke-opacity="0.55" stroke-width="0.07" points="37.682,7.530 39.682,7.537 39.698,2.737 37.698,2.730"/>
<polygon fill="#ff7f0e" fill-opacity="0.160" stroke="#ff7f0e" stroke-opacity="0.55" stroke-width="0.07" points="37.683,7.201 39.683,7.207 39.699,2.408 37.699,2.401"/>
<polygon fill="#ff7f0e" fill-opacity="0.160" stroke="#ff7f0e" stroke-opacity="0.55" stroke-width="0.07" points="37.684,6.884 39.684,6.890 39.700,2.090 37.700,2.084"/>
<polygon fill="#ff7f0e" fill-opacity="0.160" stroke="#ff7f0e" stroke-opacity="0.55" stroke-width="0.07" points="37.685,6.568 39.685,6.575 39.701,1.775 37.701,1.768"/>
<polygon fill="#ff7f0e" fill-opacity="0.160" stroke="#ff7f0e" stroke-opacity="0.55" stroke-width="0.07" points="37.686,6.253 39.686,6.260 39.702,1.460 37.702,1.453"/>
<polygon fill="#ff7f0e" fill-opacity="0.160" stroke="#ff7f0e" stroke-opacity="0.55" stroke-width="0.07" points="37.687,5.938 39.687,5.945 39.703,1.145 37.703,1.138"/>
<polygon fill="#ff7f0e" fill-opacity="0.160" stroke="#ff7f0e" stroke-opacity="0.55" stroke-width="0.07" points="37.688,5.746 39.688,5.752 39.704,0.952 37.704,0.946"/>
<polygon fill="none" stroke="crimson" stroke-width="0.120" points="37.688,5.746 39.688,5.752 39.704,0.952 37.704,0.946"/>
</g>
</svg>
