<?xml version="1.0" encoding="UTF-8"?>
<svg xmlns="http://www.w3.org/2000/svg" width="1400" height="900" viewBox="0 -3 75 53">
<rect x="0" y="-3" width="75" height="53" fill="white"/>
<text x="1.5" y="-1.35" font-size="1.15" fill="black">Parking | target row=2 idx=6 | success=true sim_ok=true | max_steer=35 deg | overshoot~=5 m | total(ref)~=6e+01 m</text>
<text x="1.5" y="-0.45" font-size="0.95" fill="black">ok</text>
<g transform="translate(0,50.000) scale(1,-1)">
<rect x="0" y="0" width="75.000" height="50.000" fill="none" stroke="black" stroke-width="0.15"/>
<rect x="0.000" y="9.000" width="75.000" height="6.000" fill="#add8e6" fill-opacity="0.25" stroke="#add8e6" stroke-width="0.08"/>
<rect x="0.000" y="34.500" width="75.000" height="6.000" fill="#add8e6" fill-opacity="0.25" stroke="#add8e6" stroke-width="0.08"/>
<rect x="60.000" y="12.000" width="6.000" height="25.500" fill="#90ee90" fill-opacity="0.25" stroke="#90ee90" stroke-width="0.08"/>
<rect x="12.000" y="44.000" width="4.800" height="6.000" fill="white" stroke="gray" stroke-width="0.080" fill-opacity="0.85"/>
<rect x="16.800" y="44.000" width="4.800" height="6.000" fill="white" stroke="gray" stroke-width="0.080" fill-opacity="0.85"/>
<rect x="21.600" y="44.000" width="4.800" height="6.000" fill="black" stroke="gray" stroke-width="0.080" fill-opacity="0.95"/>
<rect x="26.400" y="44.000" width="4.800" height="6.000" fill="black" stroke="gray" stroke-width="0.080" fill-opacity="0.95"/>
<rect x="31.200" y="44.000" width="4.800" height="6.000" fill="white" stroke="gray" stroke-width="0.080" fill-opacity="0.85"/>
<rect x="36.000" y="44.000" width="4.800" height="6.000" fill="white" stroke="gray" stroke-width="0.080" fill-opacity="0.85"/>
<rect x="40.800" y="44.000" width="4.800" height="6.000" fill="white" stroke="gray" stroke-width="0.080" fill-opacity="0.85"/>
<rect x="45.600" y="44.000" width="4.800" height="6.000" fill="white" stroke="gray" stroke-width="0.080" fill-opacity="0.85"/>
<rect x="50.400" y="44.000" width="4.800" height="6.000" fill="black" stroke="gray" stroke-width="0.080" fill-opacity="0.95"/>
<rect x="55.200" y="44.000" width="4.800" height="6.000" fill="white" stroke="gray" stroke-width="0.080" fill-opacity="0.85"/>
<rect x="12.000" y="25.000" width="4.800" height="6.000" fill="black" stroke="gray" stroke-width="0.080" fill-opacity="0.95"/>
<rect x="16.800" y="25.000" width="4.800" height="6.000" fill="black" stroke="gray" stroke-width="0.080" fill-opacity="0.95"/>
<rect x="21.600" y="25.000" width="4.800" height="6.000" fill="black" stroke="gray" stroke-width="0.080" fill-opacity="0.95"/>
<rect x="26.400" y="25.000" width="4.800" height="6.000" fill="white" stroke="gray" stroke-width="0.080" fill-opacity="0.85"/>
<rect x="31.200" y="25.000" width="4.800" height="6.000" fill="white" stroke="gray" stroke-width="0.080" fill-opacity="0.85"/>
<rect x="36.000" y="25.000" width="4.800" height="6.000" fill="black" stroke="gray" stroke-width="0.080" fill-opacity="0.95"/>
<rect x="40.800" y="25.000" width="4.800" height="6.000" fill="white" stroke="gray" stroke-width="0.080" fill-opacity="0.85"/>
<rect x="45.600" y="25.000" width="4.800" height="6.000" fill="black" stroke="gray" stroke-width="0.080" fill-opacity="0.95"/>
<rect x="50.400" y="25.000" width="4.800" height="6.000" fill="white" stroke="gray" stroke-width="0.080" fill-opacity="0.85"/>
<rect x="55.200" y="25.000" width="4.800" height="6.000" fill="white" stroke="gray" stroke-width="0.080" fill-opacity="0.85"/>
<rect x="12.000" y="19.000" width="4.800" height="6.000" fill="white" stroke="gray" stroke-width="0.080" fill-opacity="0.85"/>
<rect x="16.800" y="19.000" width="4.800" height="6.000" fill="white" stroke="gray" stroke-width="0.080" fill-opacity="0.85"/>
<rect x="21.600" y="19.000" width="4.800" height="6.000" fill="white" stroke="gray" stroke-width="0.080" fill-opacity="0.85"/>
<rect x="26.400" y="19.000" width="4.800" height="6.000" fill="white" stroke="gray" stroke-width="0.080" fill-opacity="0.85"/>
<rect x="31.200" y="19.000" width="4.800" height="6.000" fill="black" stroke="gray" stroke-width="0.080" fill-opacity="0.95"/>
<rect x="36.000" y="19.000" width="4.800" height="6.000" fill="white" stroke="gray" stroke-width="0.080" fill-opacity="0.85"/>
<rect x="40.800" y="19.000" width="4.800" height="6.000" fill="#98fb98" stroke="darkgreen" stroke-width="0.180" fill-opacity="0.85"/>
<rect x="45.600" y="19.000" width="4.800" height="6.000" fill="white" stroke="gray" stroke-width="0.080" fill-opacity="0.85"/>
<rect x="50.400" y="19.000" width="4.800" height="6.000" fill="black" stroke="gray" stroke-width="0.080" fill-opacity="0.95"/>
<rect x="55.200" y="19.000" width="4.800" height="6.000" fill="white" stroke="gray" stroke-width="0.080" fill-opacity="0.85"/>
<rect x="12.000" y="0.000" width="4.800" height="6.000" fill="white" stroke="gray" stroke-width="0.080" fill-opacity="0.85"/>
<rect x="16.800" y="0.000" width="4.800" height="6.000" fill="white" stroke="gray" stroke-width="0.080" fill-opacity="0.85"/>
<rect x="21.600" y="0.000" width="4.800" height="6.000" fill="black" stroke="gray" stroke-width="0.080" fill-opacity="0.95"/>
<rect x="26.400" y="0.000" width="4.800" height="6.000" fill="white" stroke="gray" stroke-width="0.080" fill-opacity="0.85"/>
<rect x="31.200" y="0.000" width="4.800" height="6.000" fill="black" stroke="gray" stroke-width="0.080" fill-opacity="0.95"/>
<rect x="36.000" y="0.000" width="4.800" height="6.000" fill="white" stroke="gray" stroke-width="0.080" fill-opacity="0.85"/>
<rect x="40.800" y="0.000" width="4.800" height="6.000" fill="black" stroke="gray" stroke-width="0.080" fill-opacity="0.95"/>
<rect x="45.600" y="0.000" width="4.800" height="6.000" fill="white" stroke="gray" stroke-width="0.080" fill-opacity="0.85"/>
<rect x="50.400" y="0.000" width="4.800" height="6.000" fill="white" stroke="gray" stroke-width="0.080" fill-opacity="0.85"/>
<rect x="55.200" y="0.000" width="4.800" height="6.000" fill="white" stroke="gray" stroke-width="0.080" fill-opacity="0.85"/>
<polygon fill="none" stroke="navy" stroke-width="0.120" points="6.400,13.000 6.400,11.000 1.600,11.000 1.600,13.000"/>
<polygon fill="purple" points="40.420,12.000 40.700,12.350 40.980,12.000 40.700,11.650"/>
<circle cx="48.000" cy="12.000" r="0.38" fill="darkviolet" stroke="indigo" stroke-width="0.06"/>
<polyline fill="none" stroke="#808080" stroke-width="0.120" stroke-opacity="0.65" stroke-dasharray="0.45 0.35" points="4.000,12.000 40.700,12.000 48.000,12.000"/>
<polyline fill="none" stroke="#808080" stroke-width="0.120" stroke-opacity="0.65" stroke-dasharray="0.45 0.35" points="48.000,12.000 47.826,12.180 47.655,12.364 47.489,12.553 47.326,12.747 47.166,12.944 47.011,13.146 46.859,13.351 46.711,13.559 46.566,13.771 46.425,13.987 46.287,14.205 46.152,14.425 46.021,14.649 45.893,14.874 45.768,15.102 45.647,15.332 45.528,15.563 45.413,15.796 45.301,16.030 45.191,16.265 45.085,16.501 44.982,16.738 44.881,16.976 44.783,17.213 44.688,17.451 44.596,17.689 44.506,17.926 44.419,18.163 44.335,18.399 44.253,18.635 44.174,18.869 44.097,19.102 44.022,19.333 43.950,19.563 43.880,19.790 43.812,20.016 43.746,20.239 43.683,20.460 43.621,20.678 43.562,20.893 43.505,21.105 43.449,21.314 43.396,21.519 43.344,21.720 43.294,21.918 43.246,22.111 43.200,22.300"/>
<polyline fill="none" stroke="#1f77b4" stroke-width="0.220" stroke-opacity="0.95" points="4.008,12.000 4.022,12.000 4.043,12.000 4.070,12.000 4.102,12.000 4.138,12.000 4.179,12.000 4.223,12.000 4.270,12.000 4.321,12.000 4.374,12.000 4.429,12.000 4.487,12.000 4.547,12.000 4.609,12.000 4.672,12.000 4.736,12.000 4.802,12.000 4.869,12.000 4.937,12.000 5.006,12.000 5.076,12.000 5.147,12.000 5.218,12.000 5.290,12.000 5.363,12.000 5.436,12.000 5.509,12.000 5.583,12.000 5.657,12.000 5.732,12.000 5.806,12.000 5.882,12.000 5.957,12.000 6.032,12.000 6.108,12.000 6.184,12.000 6.260,12.000 6.336,12.000 6.413,12.000 6.489,12.000 6.566,12.000 6.643,12.000 6.719,12.000 6.796,12.000 6.873,12.000 6.950,12.000 7.027,12.000 7.104,12.000 7.181,12.000 7.258,12.000 7.335,12.000 7.413,12.000 7.490,12.000 7.567,12.000 7.644,12.000 7.722,12.000 7.799,12.000 7.876,12.000 7.954,12.000 8.031,12.000 8.109,12.000 8.186,12.000 8.263,12.000 8.341,12.000 8.418,12.000 8.496,12.000 8.573,12.000 8.650,12.000 8.728,12.000 8.805,12.000 8.883,12.000 8.960,12.000 9.038,12.000 9.115,12.000 9.193,12.000 9.270,12.000 9.348,12.000 9.425,12.000 9.503,12.000 9.580,12.000 9.658,12.000 9.735,12.000 9.813,12.000 9.890,12.000 9.968,12.000 10.045,12.000 10.123,12.000 10.200,12.000 10.278,12.000 10.355,12.000 10.433,12.000 10.510,12.000 10.588,12.000 10.665,12.000 10.743,12.000 10.820,12.000 10.898,12.000 10.975,12.000 11.053,12.000 11.130,12.000 11.208,12.000 11.285,12.000 11.363,12.000 11.440,12.000 11.518,12.000 11.595,12.000 11.673,12.000 11.750,12.000 11.828,12.000 11.905,12.000 11.983,12.000 12.060,12.000 12.138,12.000 12.215,12.000 12.293,12.000 12.370,12.000 12.448,12.000 12.525,12.000 12.603,12.000 12.680,12.000 12.758,12.000 12.835,12.000 12.913,12.000 12.990,12.000 13.068,12.000 13.145,12.000 13.223,12.000 13.300,12.000 13.378,12.000 13.455,12.000 13.533,12.000 13.610,12.000 13.688,12.000 13.765,12.000 13.843,12.000 13.920,12.000 13.998,12.000 14.075,12.000 14.153,12.000 14.230,12.000 14.308,12.000 14.385,12.000 14.463,12.000 14.540,12.000 14.618,12.000 14.695,12.000 14.773,12.000 14.850,12.000 14.928,12.000 15.005,12.000 15.083,12.000 15.160,12.000 15.238,12.000 15.315,12.000 15.393,12.000 15.470,12.000 15.548,12.000 15.625,12.000 15.703,12.000 15.780,12.000 15.858,12.000 15.935,12.000 16.013,12.000 16.090,12.000 16.168,12.000 16.245,12.000 16.323,12.000 16.400,12.000 16.478,12.000 16.555,12.000 16.633,12.000 16.710,12.000 16.788,12.000 16.865,12.000 16.943,12.000 17.020,12.000 17.098,12.000 17.175,12.000 17.253,12.000 17.330,12.000 17.408,12.000 17.485,12.000 17.563,12.000 17.640,12.000 17.718,12.000 17.795,12.000 17.873,12.000 17.950,12.000 18.028,12.000 18.105,12.000 18.183,12.000 18.260,12.000 18.338,12.000 18.415,12.000 18.493,12.000 18.570,12.000 18.648,12.000 18.725,12.000 18.803,12.000 18.880,12.000 18.958,12.000 19.035,12.000 19.113,12.000 19.190,12.000 19.268,12.000 19.345,12.000 19.423,12.000 19.500,12.000 19.578,12.000 19.655,12.000 19.733,12.000 19.810,12.000 19.888,12.000 19.965,12.000 20.043,12.000 20.120,12.000 20.198,12.000 20.275,12.000 20.353,12.000 20.430,12.000 20.508,12.000 20.585,12.000 20.663,12.000 20.740,12.000 20.818,12.000 20.895,12.000 20.973,12.000 21.050,12.000 21.128,12.000 21.205,12.000 21.283,12.000 21.360,12.000 21.438,12.000 21.515,12.000 21.593,12.000 21.670,12.000 21.748,12.000 21.825,12.000 21.903,12.000 21.980,12.000 22.058,12.000 22.135,12.000 22.213,12.000 22.290,12.000 22.368,12.000 22.445,12.000 22.523,12.000 22.600,12.000 22.678,12.000 22.755,12.000 22.833,12.000 22.910,12.000 22.988,12.000 23.065,12.000 23.143,12.000 23.220,12.000 23.298,12.000 23.375,12.000 23.453,12.000 23.530,12.000 23.608,12.000 23.685,12.000 23.763,12.000 23.840,12.000 23.918,12.000 23.995,12.000 24.073,12.000 24.150,12.000 24.228,12.000 24.305,12.000 24.383,12.000 24.460,12.000 24.538,12.000 24.615,12.000 24.693,12.000 24.770,12.000 24.848,12.000 24.925,12.000 25.003,12.000 25.080,12.000 25.158,12.000 25.235,12.000 25.313,12.000 25.390,12.000 25.468,12.000 25.545,12.000 25.623,12.000 25.700,12.000 25.778,12.000 25.855,12.000 25.933,12.000 26.010,12.000 26.088,12.000 26.165,12.000 26.243,12.000 26.320,12.000 26.398,12.000 26.475,12.000 26.553,12.000 26.630,12.000 26.708,12.000 26.785,12.000 26.863,12.000 26.940,12.000 27.018,12.000 27.095,12.000 27.173,12.000 27.250,12.000 27.328,12.000 27.405,12.000 27.483,12.000 27.560,12.000 27.638,12.000 27.715,12.000 27.793,12.000 27.870,12.000 27.948,12.000 28.025,12.000 28.103,12.000 28.180,12.000 28.258,12.000 28.335,12.000 28.413,12.000 28.490,12.000 28.568,12.000 28.645,12.000 28.723,12.000 28.800,12.000 28.878,12.000 28.955,12.000 29.033,12.000 29.110,12.000 29.188,12.000 29.265,12.000 29.343,12.000 29.420,12.000 29.498,12.000 29.575,12.000 29.653,12.000 29.730,12.000 29.808,12.000 29.885,12.000 29.963,12.000 30.040,12.000 30.118,12.000 30.195,12.000 30.273,12.000 30.350,12.000 30.428,12.000 30.505,12.000 30.583,12.000 30.660,12.000 30.738,12.000 30.815,12.000 30.893,12.000 30.970,12.000 31.048,12.000 31.125,12.000 31.203,12.000 31.280,12.000 31.358,12.000 31.435,12.000 31.513,12.000 31.590,12.000 31.668,12.000 31.745,12.000 31.823,12.000 31.900,12.000 31.978,12.000 32.055,12.000 32.133,12.000 32.210,12.000 32.288,12.000 32.365,12.000 32.443,12.000 32.520,12.000 32.598,12.000 32.675,12.000 32.753,12.000 32.830,12.000 32.908,12.000 32.985,12.000 33.063,12.000 33.140,12.000 33.218,12.000 33.295,12.000 33.373,12.000 33.450,12.000 33.528,12.000 33.605,12.000 33.683,12.000 33.760,12.000 33.838,12.000 33.915,12.000 33.993,12.000 34.070,12.000 34.148,12.000 34.225,12.000 34.303,12.000 34.380,12.000 34.458,12.000 34.535,12.000 34.613,12.000 34.690,12.000 34.768,12.000 34.845,12.000 34.923,12.000 35.000,12.000 35.078,12.000 35.155,12.000 35.233,12.000 35.310,12.000 35.388,12.000 35.465,12.000 35.543,12.000 35.620,12.000 35.698,12.000 35.775,12.000 35.853,12.000 35.930,12.000 36.008,12.000 36.085,12.000 36.163,12.000 36.240,12.000 36.318,12.000 36.395,12.000 36.473,12.000 36.550,12.000 36.628,12.000 36.705,12.000 36.783,12.000 36.860,12.000 36.938,12.000 37.015,12.000 37.093,12.000 37.170,12.000 37.248,12.000 37.325,12.000 37.403,12.000 37.480,12.000 37.558,12.000 37.635,12.000 37.713,12.000 37.790,12.000 37.868,12.000 37.945,12.000 38.023,12.000 38.100,12.000 38.178,12.000 38.255,12.000 38.333,12.000 38.410,12.000 38.488,12.000 38.565,12.000 38.643,12.000 38.720,12.000 38.798,12.000 38.875,12.000 38.953,12.000 39.030,12.000 39.108,12.000 39.185,12.000 39.263,12.000 39.340,12.000 39.418,12.000 39.495,12.000 39.573,12.000 39.650,12.000 39.728,12.000 39.805,12.000 39.883,12.000 39.960,12.000 40.038,12.000 40.115,12.000 40.193,12.000 40.270,12.000 40.348,12.000 40.425,12.000 40.503,12.000 40.580,12.000 40.658,12.000 40.735,12.000 40.813,12.000 40.890,12.000 40.968,12.000 41.045,12.000 41.123,12.000 41.200,12.000 41.278,12.000 41.355,12.000 41.433,12.000 41.510,12.000 41.588,12.000 41.665,12.000 41.743,12.000 41.820,12.000 41.898,12.000 41.975,12.000 42.053,12.000 42.130,12.000 42.208,12.000 42.285,12.000 42.363,12.000 42.440,12.000 42.518,12.000 42.595,12.000 42.673,12.000 42.750,12.000 42.828,12.000 42.905,12.000 42.983,12.000 43.060,12.000 43.138,12.000 43.215,12.000 43.293,12.000 43.370,12.000 43.448,12.000 43.525,12.000 43.603,12.000 43.680,12.000 43.758,12.000 43.835,12.000 43.913,12.000 43.990,12.000 44.068,12.000 44.145,12.000 44.222,12.000 44.299,12.000 44.375,12.000 44.451,12.000 44.525,12.000 44.600,12.000 44.673,12.000 44.745,12.000 44.817,12.000 44.887,12.000 44.957,12.000 45.025,12.000 45.093,12.000 45.159,12.000 45.224,12.000 45.288,12.000 45.351,12.000 45.413,12.000 45.473,12.000 45.533,12.000 45.591,12.000 45.648,12.000 45.704,12.000 45.759,12.000 45.812,12.000 45.865,12.000 45.916,12.000 45.967,12.000 46.016,12.000 46.064,12.000 46.111,12.000 46.157,12.000 46.202,12.000 46.246,12.000 46.289,12.000 46.331,12.000 46.372,12.000 46.412,12.000 46.451,12.000 46.489,12.000 46.527,12.000 46.563,12.000 46.599,12.000 46.634,12.000 46.668,12.000 46.701,12.000 46.733,12.000 46.764,12.000 46.795,12.000 46.825,12.000 46.855,12.000 46.883,12.000 46.911,12.000 46.938,12.000 46.965,12.000 46.991,12.000 47.016,12.000 47.041,12.000 47.065,12.000 47.088,12.000 47.111,12.000 47.133,12.000 47.155,12.000 47.177,12.000 47.198,12.000 47.218,12.000 47.239,12.000 47.259,12.000 47.279,12.000 47.298,12.000 47.318,12.000 47.337,12.000 47.356,12.000 47.375,12.000 47.393,12.000 47.412,12.000 47.430,12.000 47.449,12.000 47.467,12.000"/>
<polyline fill="none" stroke="#ff7f0e" stroke-width="0.220" stroke-opacity="0.95" points="47.463,12.000 47.456,12.000 47.446,12.000 47.433,12.000 47.418,12.000 47.400,12.000 47.381,12.000 47.359,12.000 47.336,12.001 47.312,12.001 47.286,12.002 47.259,12.003 47.231,12.004 47.203,12.005 47.173,12.007 47.142,12.009 47.111,12.011 47.079,12.013 47.047,12.016 47.014,12.019 46.981,12.023 46.947,12.026 46.914,12.030 46.879,12.035 46.845,12.040 46.810,12.045 46.775,12.050 46.740,12.056 46.705,12.062 46.670,12.069 46.634,12.076 46.599,12.083 46.563,12.091 46.528,12.099 46.492,12.107 46.457,12.116 46.421,12.125 46.385,12.134 46.350,12.144 46.314,12.154 46.279,12.165 46.243,12.175 46.208,12.187 46.173,12.198 46.137,12.210 46.102,12.222 46.067,12.235 46.032,12.248 45.998,12.261 45.963,12.275 45.928,12.289 45.894,12.303 45.859,12.318 45.825,12.333 45.791,12.348 45.757,12.364 45.723,12.380 45.690,12.396 45.656,12.413 45.623,12.430 45.590,12.447 45.557,12.465 45.524,12.483 45.491,12.501 45.458,12.520 45.426,12.539 45.394,12.558 45.362,12.577 45.330,12.597 45.299,12.617 45.267,12.638 45.236,12.659 45.205,12.680 45.174,12.701 45.144,12.723 45.113,12.745 45.083,12.767 45.053,12.790 45.024,12.813 44.994,12.836 44.965,12.859 44.936,12.883 44.907,12.907 44.878,12.931 44.850,12.956 44.822,12.981 44.794,13.006 44.767,13.031 44.739,13.057 44.712,13.083 44.685,13.109 44.659,13.135 44.632,13.162 44.606,13.189 44.580,13.216 44.555,13.243 44.530,13.271 44.505,13.299 44.480,13.327 44.455,13.356 44.431,13.384 44.407,13.413 44.384,13.442 44.360,13.472 44.337,13.501 44.315,13.531 44.292,13.561 44.270,13.591 44.248,13.622 44.226,13.653 44.205,13.683 44.184,13.714 44.163,13.746 44.143,13.777 44.123,13.809 44.103,13.841 44.084,13.873 44.065,13.905 44.046,13.938 44.027,13.970 44.009,14.003 43.991,14.036 43.974,14.069 43.956,14.102 43.940,14.136 43.923,14.169 43.907,14.203 43.891,14.237 43.875,14.271 43.860,14.306 43.845,14.340 43.830,14.375 43.816,14.409 43.802,14.444 43.789,14.479 43.776,14.514 43.763,14.549 43.750,14.585 43.738,14.620 43.726,14.656 43.715,14.691 43.703,14.727 43.693,14.763 43.682,14.799 43.672,14.835 43.662,14.871 43.653,14.908 43.644,14.944 43.635,14.981 43.627,15.017 43.619,15.054 43.611,15.090 43.604,15.127 43.597,15.164 43.590,15.201 43.584,15.238 43.578,15.275 43.573,15.312 43.568,15.349 43.563,15.387 43.559,15.424 43.554,15.461 43.551,15.498 43.547,15.536 43.545,15.573 43.542,15.610 43.540,15.648 43.538,15.685 43.536,15.723 43.535,15.760 43.534,15.798 43.534,15.835 43.533,15.873 43.533,15.910 43.533,15.948 43.534,15.985 43.534,16.023 43.535,16.060 43.535,16.098 43.536,16.135 43.536,16.173 43.537,16.210 43.537,16.248 43.538,16.285 43.539,16.323 43.539,16.360 43.540,16.398 43.540,16.435 43.541,16.473 43.542,16.510 43.542,16.548 43.543,16.585 43.543,16.623 43.544,16.660 43.544,16.698 43.545,16.735 43.546,16.773 43.546,16.810 43.547,16.848 43.547,16.885 43.548,16.923 43.549,16.960 43.549,16.998 43.550,17.035 43.550,17.073 43.551,17.110 43.551,17.148 43.552,17.185 43.553,17.223 43.553,17.260 43.554,17.298 43.554,17.335 43.555,17.373 43.556,17.410 43.556,17.448 43.557,17.485 43.557,17.523 43.558,17.560 43.558,17.598 43.559,17.635 43.560,17.673 43.560,17.710 43.561,17.748 43.561,17.785 43.562,17.823 43.562,17.860 43.563,17.898 43.564,17.935 43.564,17.973 43.565,18.010 43.565,18.048 43.566,18.085 43.567,18.123 43.567,18.160 43.568,18.198 43.568,18.235 43.569,18.273 43.569,18.310 43.570,18.348 43.571,18.385 43.571,18.422 43.572,18.460 43.572,18.497 43.573,18.534 43.574,18.571 43.574,18.608 43.575,18.644 43.575,18.680 43.576,18.717 43.576,18.752 43.577,18.788 43.577,18.823 43.578,18.859 43.579,18.893 43.579,18.928 43.580,18.962 43.580,18.996 43.581,19.030 43.581,19.064 43.582,19.097 43.582,19.130 43.583,19.162 43.583,19.194 43.584,19.226 43.584,19.258 43.585,19.289 43.585,19.321 43.586,19.351 43.586,19.382 43.587,19.412 43.587,19.442 43.587,19.472 43.588,19.501 43.588,19.530 43.589,19.559 43.589,19.587 43.590,19.616 43.590,19.644 43.591,19.671 43.591,19.699 43.591,19.726 43.592,19.753 43.592,19.779 43.593,19.805 43.593,19.831 43.593,19.857 43.594,19.883 43.594,19.908 43.595,19.933 43.595,19.958 43.595,19.982 43.596,20.007 43.596,20.031 43.597,20.054 43.597,20.078 43.597,20.101 43.598,20.124 43.598,20.147 43.598,20.170 43.599,20.192 43.599,20.214 43.599,20.236 43.600,20.258 43.600,20.279 43.600,20.301 43.601,20.322 43.601,20.342 43.601,20.363 43.602,20.384 43.602,20.404 43.602,20.424 43.603,20.444 43.603,20.463 43.603,20.483 43.603,20.502 43.604,20.521 43.604,20.540 43.604,20.558 43.605,20.577 43.605,20.596 43.605,20.614 43.605,20.632 43.606,20.651 43.606,20.669 43.606,20.687 43.607,20.705 43.607,20.723 43.607,20.741 43.607,20.759 43.608,20.777 43.608,20.794 43.608,20.812 43.609,20.830 43.609,20.848 43.609,20.865 43.609,20.883 43.610,20.901 43.610,20.918 43.610,20.936 43.610,20.954 43.611,20.971 43.611,20.989 43.611,21.006 43.612,21.024 43.612,21.042 43.612,21.059 43.612,21.077 43.613,21.094 43.613,21.112 43.613,21.129 43.613,21.147 43.614,21.164 43.614,21.182 43.614,21.199 43.615,21.217 43.615,21.234 43.615,21.252 43.615,21.269 43.616,21.287 43.616,21.305 43.616,21.322 43.616,21.340 43.617,21.357 43.617,21.375 43.617,21.392 43.618,21.410 43.618,21.427 43.618,21.445 43.618,21.462 43.619,21.480 43.619,21.497 43.619,21.515 43.619,21.532 43.620,21.550 43.620,21.567 43.620,21.585 43.621,21.602 43.621,21.620 43.621,21.637 43.621,21.655 43.622,21.672 43.622,21.690 43.622,21.707 43.622,21.725 43.623,21.742 43.623,21.760 43.623,21.777 43.624,21.795 43.624,21.812 43.624,21.830 43.624,21.847 43.625,21.865 43.625,21.882 43.625,21.900 43.625,21.917 43.626,21.935 43.626,21.952 43.626,21.970 43.627,21.987 43.627,22.005 43.627,22.022 43.627,22.040 43.628,22.057 43.628,22.075 43.628,22.092 43.628,22.110 43.629,22.127 43.629,22.145 43.629,22.162 43.629,22.180 43.630,22.197 43.630,22.215 43.630,22.232 43.631,22.250 43.631,22.267"/>
<polygon fill="#1f77b4" fill-opacity="0.140" stroke="#1f77b4" stroke-opacity="0.55" stroke-width="0.07" points="6.408,13.000 6.408,11.000 1.608,11.000 1.608,13.000"/>
<polygon fill="#1f77b4" fill-opacity="0.140" stroke="#1f77b4" stroke-opacity="0.55" stroke-width="0.07" points="7.269,13.000 7.269,11.000 2.469,11.000 2.469,13.000"/>
<polygon fill="#1f77b4" fill-opacity="0.140" stroke="#1f77b4" stroke-opacity="0.55" stroke-width="0.07" points="8.584,13.000 8.584,11.000 3.784,11.000 3.784,13.000"/>
<polygon fill="#1f77b4" fill-opacity="0.140" stroke="#1f77b4" stroke-opacity="0.55" stroke-width="0.07" points="9.967,13.000 9.967,11.000 5.167,11.000 5.167,13.000"/>
<polygon fill="#1f77b4" fill-opacity="0.140" stroke="#1f77b4" stroke-opacity="0.55" stroke-width="0.07" points="11.360,13.000 11.360,11.000 6.560,11.000 6.560,13.000"/>
<polygon fill="#1f77b4" fill-opacity="0.140" stroke="#1f77b4" stroke-opacity="0.55" stroke-width="0.07" points="12.755,13.000 12.755,11.000 7.955,11.000 7.955,13.000"/>
<polygon fill="#1f77b4" fill-opacity="0.140" stroke="#1f77b4" stroke-opacity="0.55" stroke-width="0.07" points="14.150,13.000 14.150,11.000 9.350,11.000 9.350,13.000"/>
<polygon fill="#1f77b4" fill-opacity="0.140" stroke="#1f77b4" stroke-opacity="0.55" stroke-width="0.07" points="15.545,13.000 15.545,11.000 10.745,11.000 10.745,13.000"/>
<polygon fill="#1f77b4" fill-opacity="0.140" stroke="#1f77b4" stroke-opacity="0.55" stroke-width="0.07" points="16.940,13.000 16.940,11.000 12.140,11.000 12.140,13.000"/>
<polygon fill="#1f77b4" fill-opacity="0.140" stroke="#1f77b4" stroke-opacity="0.55" stroke-width="0.07" points="18.335,13.000 18.335,11.000 13.535,11.000 13.535,13.000"/>
<polygon fill="#1f77b4" fill-opacity="0.140" stroke="#1f77b4" stroke-opacity="0.55" stroke-width="0.07" points="19.730,13.000 19.730,11.000 14.930,11.000 14.930,13.000"/>
<polygon fill="#1f77b4" fill-opacity="0.140" stroke="#1f77b4" stroke-opacity="0.55" stroke-width="0.07" points="21.125,13.000 21.125,11.000 16.325,11.000 16.325,13.000"/>
<polygon fill="#1f77b4" fill-opacity="0.140" stroke="#1f77b4" stroke-opacity="0.55" stroke-width="0.07" points="22.520,13.000 22.520,11.000 17.720,11.000 17.720,13.000"/>
<polygon fill="#1f77b4" fill-opacity="0.140" stroke="#1f77b4" stroke-opacity="0.55" stroke-width="0.07" points="23.915,13.000 23.915,11.000 19.115,11.000 19.115,13.000"/>
<polygon fill="#1f77b4" fill-opacity="0.140" stroke="#1f77b4" stroke-opacity="0.55" stroke-width="0.07" points="25.310,13.000 25.310,11.000 20.510,11.000 20.510,13.000"/>
<polygon fill="#1f77b4" fill-opacity="0.140" stroke="#1f77b4" stroke-opacity="0.55" stroke-width="0.07" points="26.705,13.000 26.705,11.000 21.905,11.000 21.905,13.000"/>
<polygon fill="#1f77b4" fill-opacity="0.140" stroke="#1f77b4" stroke-opacity="0.55" stroke-width="0.07" points="28.100,13.000 28.100,11.000 23.300,11.000 23.300,13.000"/>
<polygon fill="#1f77b4" fill-opacity="0.140" stroke="#1f77b4" stroke-opacity="0.55" stroke-width="0.07" points="29.495,13.000 29.495,11.000 24.695,11.000 24.695,13.000"/>
<polygon fill="#1f77b4" fill-opacity="0.140" stroke="#1f77b4" stroke-opacity="0.55" stroke-width="0.07" points="30.890,13.000 30.890,11.000 26.090,11.000 26.090,13.000"/>
<polygon fill="#1f77b4" fill-opacity="0.140" stroke="#1f77b4" stroke-opacity="0.55" stroke-width="0.07" points="32.285,13.000 32.285,11.000 27.485,11.000 27.485,13.000"/>
<polygon fill="#1f77b4" fill-opacity="0.140" stroke="#1f77b4" stroke-opacity="0.55" stroke-width="0.07" points="33.680,13.000 33.680,11.000 28.880,11.000 28.880,13.000"/>
<polygon fill="#1f77b4" fill-opacity="0.140" stroke="#1f77b4" stroke-opacity="0.55" stroke-width="0.07" points="35.075,13.000 35.075,11.000 30.275,11.000 30.275,13.000"/>
<polygon fill="#1f77b4" fill-opacity="0.140" stroke="#1f77b4" stroke-opacity="0.55" stroke-width="0.07" points="36.470,13.000 36.470,11.000 31.670,11.000 31.670,13.000"/>
<polygon fill="#1f77b4" fill-opacity="0.140" stroke="#1f77b4" stroke-opacity="0.55" stroke-width="0.07" points="37.865,13.000 37.865,11.000 33.065,11.000 33.065,13.000"/>
<polygon fill="#1f77b4" fill-opacity="0.140" stroke="#1f77b4" stroke-opacity="0.55" stroke-width="0.07" points="39.260,13.000 39.260,11.000 34.460,11.000 34.460,13.000"/>
<polygon fill="#1f77b4" fill-opacity="0.140" stroke="#1f77b4" stroke-opacity="0.55" stroke-width="0.07" points="40.655,13.000 40.655,11.000 35.855,11.000 35.855,13.000"/>
<polygon fill="#1f77b4" fill-opacity="0.140" stroke="#1f77b4" stroke-opacity="0.55" stroke-width="0.07" points="42.050,13.000 42.050,11.000 37.250,11.000 37.250,13.000"/>
<polygon fill="#1f77b4" fill-opacity="0.140" stroke="#1f77b4" stroke-opacity="0.55" stroke-width="0.07" points="43.445,13.000 43.445,11.000 38.645,11.000 38.645,13.000"/>
<polygon fill="#1f77b4" fill-opacity="0.140" stroke="#1f77b4" stroke-opacity="0.55" stroke-width="0.07" points="44.840,13.000 44.840,11.000 40.040,11.000 40.040,13.000"/>
<polygon fill="#1f77b4" fill-opacity="0.140" stroke="#1f77b4" stroke-opacity="0.55" stroke-width="0.07" points="46.235,13.000 46.235,11.000 41.435,11.000 41.435,13.000"/>
<polygon fill="#1f77b4" fill-opacity="0.140" stroke="#1f77b4" stroke-opacity="0.55" stroke-width="0.07" points="47.559,13.000 47.559,11.000 42.759,11.000 42.759,13.000"/>
<polygon fill="#1f77b4" fill-opacity="0.140" stroke="#1f77b4" stroke-opacity="0.55" stroke-width="0.07" points="48.557,13.000 48.557,11.000 43.757,11.000 43.757,13.000"/>
<polygon fill="#1f77b4" fill-opacity="0.140" stroke="#1f77b4" stroke-opacity="0.55" stroke-width="0.07" points="49.225,13.000 49.225,11.000 44.425,11.000 44.425,13.000"/>
<polygon fill="#1f77b4" fill-opacity="0.140" stroke="#1f77b4" stroke-opacity="0.55" stroke-width="0.07" points="49.659,13.000 49.659,11.000 44.859,11.000 44.859,13.000"/>
<polygon fill="#1f77b4" fill-opacity="0.140" stroke="#1f77b4" stroke-opacity="0.55" stroke-width="0.07" points="49.867,13.000 49.867,11.000 45.067,11.000 45.067,13.000"/>
<polygon fill="#ff7f0e" fill-opacity="0.160" stroke="#ff7f0e" stroke-opacity="0.55" stroke-width="0.07" points="49.864,13.000 49.863,11.000 45.063,11.000 45.064,13.000"/>
<polygon fill="#ff7f0e" fill-opacity="0.160" stroke="#ff7f0e" stroke-opacity="0.55" stroke-width="0.07" points="49.530,12.786 49.343,10.795 44.564,11.246 44.751,13.237"/>
<polygon fill="#ff7f0e" fill-opacity="0.160" stroke="#ff7f0e" stroke-opacity="0.55" stroke-width="0.07" points="48.997,12.477 48.485,10.543 43.845,11.773 44.357,13.706"/>
<polygon fill="#ff7f0e" fill-opacity="0.160" stroke="#ff7f0e" stroke-opacity="0.55" stroke-width="0.07" points="48.389,12.250 47.551,10.434 43.193,12.446 44.031,14.262"/>
<polygon fill="#ff7f0e" fill-opacity="0.160" stroke="#ff7f0e" stroke-opacity="0.55" stroke-width="0.07" points="47.747,12.131 46.605,10.489 42.664,13.228 43.805,14.871"/>
<polygon fill="#ff7f0e" fill-opacity="0.160" stroke="#ff7f0e" stroke-opacity="0.55" stroke-width="0.07" points="47.092,12.126 45.683,10.708 42.278,14.091 43.688,15.510"/>
<polygon fill="#ff7f0e" fill-opacity="0.160" stroke="#ff7f0e" stroke-opacity="0.55" stroke-width="0.07" points="46.447,12.235 44.812,11.084 42.049,15.009 43.684,16.160"/>
<polygon fill="#ff7f0e" fill-opacity="0.160" stroke="#ff7f0e" stroke-opacity="0.55" stroke-width="0.07" points="45.831,12.455 44.020,11.606 41.983,15.952 43.793,16.801"/>
<polygon fill="#ff7f0e" fill-opacity="0.160" stroke="#ff7f0e" stroke-opacity="0.55" stroke-width="0.07" points="45.262,12.778 43.331,12.258 42.082,16.892 44.013,17.413"/>
<polygon fill="#ff7f0e" fill-opacity="0.160" stroke="#ff7f0e" stroke-opacity="0.55" stroke-width="0.07" points="44.759,13.196 42.767,13.019 42.342,17.800 44.334,17.977"/>
<polygon fill="#ff7f0e" fill-opacity="0.160" stroke="#ff7f0e" stroke-opacity="0.55" stroke-width="0.07" points="44.499,13.758 42.499,13.789 42.574,18.588 44.573,18.557"/>
<polygon fill="#ff7f0e" fill-opacity="0.160" stroke="#ff7f0e" stroke-opacity="0.55" stroke-width="0.07" points="44.509,14.432 42.510,14.464 42.584,19.263 44.584,19.232"/>
<polygon fill="#ff7f0e" fill-opacity="0.160" stroke="#ff7f0e" stroke-opacity="0.55" stroke-width="0.07" points="44.520,15.107 42.520,15.138 42.595,19.938 44.594,19.907"/>
<polygon fill="#ff7f0e" fill-opacity="0.160" stroke="#ff7f0e" stroke-opacity="0.55" stroke-width="0.07" points="44.530,15.782 42.531,15.813 42.605,20.613 44.605,20.582"/>
<polygon fill="#ff7f0e" fill-opacity="0.160" stroke="#ff7f0e" stroke-opacity="0.55" stroke-width="0.07" points="44.541,16.443 42.541,16.474 42.615,21.274 44.615,21.243"/>
<polygon fill="#ff7f0e" fill-opacity="0.160" stroke="#ff7f0e" stroke-opacity="0.55" stroke-width="0.07" points="44.550,17.027 42.550,17.058 42.624,21.857 44.624,21.826"/>
<polygon fill="#ff7f0e" fill-opacity="0.160" stroke="#ff7f0e" stroke-opacity="0.55" stroke-width="0.07" points="44.557,17.518 42.558,17.549 42.632,22.348 44.632,22.317"/>
<polygon fill="#ff7f0e" fill-opacity="0.160" stroke="#ff7f0e" stroke-opacity="0.55" stroke-width="0.07" points="44.564,17.927 42.564,17.958 42.638,22.758 44.638,22.727"/>
<polygon fill="#ff7f0e" fill-opacity="0.160" stroke="#ff7f0e" stroke-opacity="0.55" stroke-width="0.07" points="44.569,18.272 42.569,18.303 42.644,23.102 44.643,23.071"/>
<polygon fill="#ff7f0e" fill-opacity="0.160" stroke="#ff7f0e" stroke-opacity="0.55" stroke-width="0.07" points="44.574,18.591 42.574,18.622 42.649,23.422 44.648,23.391"/>
<polygon fill="#ff7f0e" fill-opacity="0.160" stroke="#ff7f0e" stroke-opacity="0.55" stroke-width="0.07" points="44.579,18.907 42.579,18.938 42.654,23.737 44.653,23.706"/>
<polygon fill="#ff7f0e" fill-opacity="0.160" stroke="#ff7f0e" stroke-opacity="0.55" stroke-width="0.07" points="44.584,19.222 42.584,19.253 42.658,24.052 44.658,24.021"/>
<polygon fill="#ff7f0e" fill-opacity="0.160" stroke="#ff7f0e" stroke-opacity="0.55" stroke-width="0.07" points="44.589,19.537 42.589,19.568 42.663,24.367 44.663,24.336"/>
<polygon fill="#ff7f0e" fill-opacity="0.160" stroke="#ff7f0e" stroke-opacity="0.55" stroke-width="0.07" points="44.594,19.852 42.594,19.883 42.668,24.682 44.668,24.651"/>
<polygon fill="#ff7f0e" fill-opacity="0.160" stroke="#ff7f0e" stroke-opacity="0.55" stroke-width="0.07" points="44.594,19.852 42.594,19.883 42.668,24.682 44.668,24.651"/>
<polygon fill="none" stroke="crimson" stroke-width="0.120" points="44.594,19.852 42.594,19.883 42.668,24.682 44.668,24.651"/>
</g>
</svg>
