<?xml version="1.0" encoding="UTF-8"?>
<svg xmlns="http://www.w3.org/2000/svg" width="1400" height="900" viewBox="0 -3 75 53">
<rect x="0" y="-3" width="75" height="53" fill="white"/>
<text x="1.5" y="-1.35" font-size="1.15" fill="black">Parking | target row=2 idx=5 | success=true sim_ok=true | max_steer=35 deg | overshoot~=5 m | total(ref)~=5e+01 m</text>
<text x="1.5" y="-0.45" font-size="0.95" fill="black">ok</text>
<g transform="translate(0,50.000) scale(1,-1)">
<rect x="0" y="0" width="75.000" height="50.000" fill="none" stroke="black" stroke-width="0.15"/>
<rect x="0.000" y="9.000" width="75.000" height="6.000" fill="#add8e6" fill-opacity="0.25" stroke="#add8e6" stroke-width="0.08"/>
<rect x="0.000" y="34.500" width="75.000" height="6.000" fill="#add8e6" fill-opacity="0.25" stroke="#add8e6" stroke-width="0.08"/>
<rect x="60.000" y="12.000" width="6.000" height="25.500" fill="#90ee90" fill-opacity="0.25" stroke="#90ee90" stroke-width="0.08"/>
<rect x="12.000" y="44.000" width="4.800" height="6.000" fill="white" stroke="gray" stroke-width="0.080" fill-opacity="0.85"/>
<rect x="16.800" y="44.000" width="4.800" height="6.000" fill="white" stroke="gray" stroke-width="0.080" fill-opacity="0.85"/>
<rect x="21.600" y="44.000" width="4.800" height="6.000" fill="black" stroke="gray" stroke-width="0.080" fill-opacity="0.95"/>
<rect x="26.400" y="44.000" width="4.800" height="6.000" fill="black" stroke="gray" stroke-width="0.080" fill-opacity="0.95"/>
<rect x="31.200" y="44.000" width="4.800" height="6.000" fill="white" stroke="gray" stroke-width="0.080" fill-opacity="0.85"/>
<rect x="36.000" y="44.000" width="4.800" height="6.000" fill="white" stroke="gray" stroke-width="0.080" fill-opacity="0.85"/>
<rect x="40.800" y="44.000" width="4.800" height="6.000" fill="white" stroke="gray" stroke-width="0.080" fill-opacity="0.85"/>
<rect x="45.600" y="44.000" width="4.800" height="6.000" fill="white" stroke="gray" stroke-width="0.080" fill-opacity="0.85"/>
<rect x="50.400" y="44.000" width="4.800" height="6.000" fill="black" stroke="gray" stroke-width="0.080" fill-opacity="0.95"/>
<rect x="55.200" y="44.000" width="4.800" height="6.000" fill="white" stroke="gray" stroke-width="0.080" fill-opacity="0.85"/>
<rect x="12.000" y="25.000" width="4.800" height="6.000" fill="black" stroke="gray" stroke-width="0.080" fill-opacity="0.95"/>
<rect x="16.800" y="25.000" width="4.800" height="6.000" fill="black" stroke="gray" stroke-width="0.080" fill-opacity="0.95"/>
<rect x="21.600" y="25.000" width="4.800" height="6.000" fill="black" stroke="gray" stroke-width="0.080" fill-opacity="0.95"/>
<rect x="26.400" y="25.000" width="4.800" height="6.000" fill="white" stroke="gray" stroke-width="0.080" fill-opacity="0.85"/>
<rect x="31.200" y="25.000" width="4.800" height="6.000" fill="white" stroke="gray" stroke-width="0.080" fill-opacity="0.85"/>
<rect x="36.000" y="25.000" width="4.800" height="6.000" fill="black" stroke="gray" stroke-width="0.080" fill-opacity="0.95"/>
<rect x="40.800" y="25.000" width="4.800" height="6.000" fill="white" stroke="gray" stroke-width="0.080" fill-opacity="0.85"/>
<rect x="45.600" y="25.000" width="4.800" height="6.000" fill="black" stroke="gray" stroke-width="0.080" fill-opacity="0.95"/>
<rect x="50.400" y="25.000" width="4.800" height="6.000" fill="white" stroke="gray" stroke-width="0.080" fill-opacity="0.85"/>
<rect x="55.200" y="25.000" width="4.800" height="6.000" fill="white" stroke="gray" stroke-width="0.080" fill-opacity="0.85"/>
<rect x="12.000" y="19.000" width="4.800" height="6.000" fill="white" stroke="gray" stroke-width="0.080" fill-opacity="0.85"/>
<rect x="16.800" y="19.000" width="4.800" height="6.000" fill="white" stroke="gray" stroke-width="0.080" fill-opacity="0.85"/>
<rect x="21.600" y="19.000" width="4.800" height="6.000" fill="white" stroke="gray" stroke-width="0.080" fill-opacity="0.85"/>
<rect x="26.400" y="19.000" width="4.800" height="6.000" fill="white" stroke="gray" stroke-width="0.080" fill-opacity="0.85"/>
<rect x="31.200" y="19.000" width="4.800" height="6.000" fill="black" stroke="gray" stroke-width="0.080" fill-opacity="0.95"/>
<rect x="36.000" y="19.000" width="4.800" height="6.000" fill="#98fb98" stroke="darkgreen" stroke-width="0.180" fill-opacity="0.85"/>
<rect x="40.800" y="19.000" width="4.800" height="6.000" fill="white" stroke="gray" stroke-width="0.080" fill-opacity="0.85"/>
<rect x="45.600" y="19.000" width="4.800" height="6.000" fill="white" stroke="gray" stroke-width="0.080" fill-opacity="0.85"/>
<rect x="50.400" y="19.000" width="4.800" height="6.000" fill="black" stroke="gray" stroke-width="0.080" fill-opacity="0.95"/>
<rect x="55.200" y="19.000" width="4.800" height="6.000" fill="white" stroke="gray" stroke-width="0.080" fill-opacity="0.85"/>
<rect x="12.000" y="0.000" width="4.800" height="6.000" fill="white" stroke="gray" stroke-width="0.080" fill-opacity="0.85"/>
<rect x="16.800" y="0.000" width="4.800" height="6.000" fill="white" stroke="gray" stroke-width="0.080" fill-opacity="0.85"/>
<rect x="21.600" y="0.000" width="4.800" height="6.000" fill="black" stroke="gray" stroke-width="0.080" fill-opacity="0.95"/>
<rect x="26.400" y="0.000" width="4.800" height="6.000" fill="white" stroke="gray" stroke-width="0.080" fill-opacity="0.85"/>
<rect x="31.200" y="0.000" width="4.800" height="6.000" fill="black" stroke="gray" stroke-width="0.080" fill-opacity="0.95"/>
<rect x="36.000" y="0.000" width="4.800" height="6.000" fill="white" stroke="gray" stroke-width="0.080" fill-opacity="0.85"/>
<rect x="40.800" y="0.000" width="4.800" height="6.000" fill="black" stroke="gray" stroke-width="0.080" fill-opacity="0.95"/>
<rect x="45.600" y="0.000" width="4.800" height="6.000" fill="white" stroke="gray" stroke-width="0.080" fill-opacity="0.85"/>
<rect x="50.400" y="0.000" width="4.800" height="6.000" fill="white" stroke="gray" stroke-width="0.080" fill-opacity="0.85"/>
<rect x="55.200" y="0.000" width="4.800" height="6.000" fill="white" stroke="gray" stroke-width="0.080" fill-opacity="0.85"/>
<polygon fill="none" stroke="navy" stroke-width="0.120" points="6.400,13.000 6.400,11.000 1.600,11.000 1.600,13.000"/>
<polygon fill="purple" points="35.620,12.000 35.900,12.350 36.180,12.000 35.900,11.650"/>
<circle cx="43.200" cy="12.000" r="0.38" fill="darkviolet" stroke="indigo" stroke-width="0.06"/>
<polyline fill="none" stroke="#808080" stroke-width="0.120" stroke-opacity="0.65" stroke-dasharray="0.45 0.35" points="4.000,12.000 35.900,12.000 43.200,12.000"/>
<polyline fill="none" stroke="#808080" stroke-width="0.120" stroke-opacity="0.65" stroke-dasharray="0.45 0.35" points="43.200,12.000 43.026,12.180 42.855,12.364 42.689,12.553 42.526,12.747 42.366,12.944 42.211,13.146 42.059,13.351 41.911,13.559 41.766,13.771 41.625,13.987 41.487,14.205 41.352,14.425 41.221,14.649 41.093,14.874 40.968,15.102 40.847,15.332 40.728,15.563 40.613,15.796 40.501,16.030 40.391,16.265 40.285,16.501 40.182,16.738 40.081,16.976 39.983,17.213 39.888,17.451 39.796,17.689 39.706,17.926 39.619,18.163 39.535,18.399 39.453,18.635 39.374,18.869 39.297,19.102 39.222,19.333 39.150,19.563 39.080,19.790 39.012,20.016 38.946,20.239 38.883,20.460 38.821,20.678 38.762,20.893 38.705,21.105 38.649,21.314 38.596,21.519 38.544,21.720 38.494,21.918 38.446,22.111 38.400,22.300"/>
<polyline fill="none" stroke="#1f77b4" stroke-width="0.220" stroke-opacity="0.95" points="4.008,12.000 4.022,12.000 4.043,12.000 4.070,12.000 4.102,12.000 4.138,12.000 4.179,12.000 4.223,12.000 4.270,12.000 4.321,12.000 4.374,12.000 4.429,12.000 4.487,12.000 4.547,12.000 4.609,12.000 4.672,12.000 4.736,12.000 4.802,12.000 4.869,12.000 4.937,12.000 5.006,12.000 5.076,12.000 5.147,12.000 5.218,12.000 5.290,12.000 5.363,12.000 5.436,12.000 5.509,12.000 5.583,12.000 5.657,12.000 5.732,12.000 5.806,12.000 5.882,12.000 5.957,12.000 6.032,12.000 6.108,12.000 6.184,12.000 6.260,12.000 6.336,12.000 6.413,12.000 6.489,12.000 6.566,12.000 6.643,12.000 6.719,12.000 6.796,12.000 6.873,12.000 6.950,12.000 7.027,12.000 7.104,12.000 7.181,12.000 7.258,12.000 7.335,12.000 7.413,12.000 7.490,12.000 7.567,12.000 7.644,12.000 7.722,12.000 7.799,12.000 7.876,12.000 7.954,12.000 8.031,12.000 8.109,12.000 8.186,12.000 8.263,12.000 8.341,12.000 8.418,12.000 8.496,12.000 8.573,12.000 8.650,12.000 8.728,12.000 8.805,12.000 8.883,12.000 8.960,12.000 9.038,12.000 9.115,12.000 9.193,12.000 9.270,12.000 9.348,12.000 9.425,12.000 9.503,12.000 9.580,12.000 9.658,12.000 9.735,12.000 9.813,12.000 9.890,12.000 9.968,12.000 10.045,12.000 10.123,12.000 10.200,12.000 10.278,12.000 10.355,12.000 10.433,12.000 10.510,12.000 10.588,12.000 10.665,12.000 10.743,12.000 10.820,12.000 10.898,12.000 10.975,12.000 11.053,12.000 11.130,12.000 11.208,12.000 11.285,12.000 11.363,12.000 11.440,12.000 11.518,12.000 11.595,12.000 11.673,12.000 11.750,12.000 11.828,12.000 11.905,12.000 11.983,12.000 12.060,12.000 12.138,12.000 12.215,12.000 12.293,12.000 12.370,12.000 12.448,12.000 12.525,12.000 12.603,12.000 12.680,12.000 12.758,12.000 12.835,12.000 12.913,12.000 12.990,12.000 13.068,12.000 13.145,12.000 13.223,12.000 13.300,12.000 13.378,12.000 13.455,12.000 13.533,12.000 13.610,12.000 13.688,12.000 13.765,12.000 13.843,12.000 13.920,12.000 13.998,12.000 14.075,12.000 14.153,12.000 14.230,12.000 14.308,12.000 14.385,12.000 14.463,12.000 14.540,12.000 14.618,12.000 14.695,12.000 14.773,12.000 14.850,12.000 14.928,12.000 15.005,12.000 15.083,12.000 15.160,12.000 15.238,12.000 15.315,12.000 15.393,12.000 15.470,12.000 15.548,12.000 15.625,12.000 15.703,12.000 15.780,12.000 15.858,12.000 15.935,12.000 16.013,12.000 16.090,12.000 16.168,12.000 16.245,12.000 16.323,12.000 16.400,12.000 16.478,12.000 16.555,12.000 16.633,12.000 16.710,12.000 16.788,12.000 16.865,12.000 16.943,12.000 17.020,12.000 17.098,12.000 17.175,12.000 17.253,12.000 17.330,12.000 17.408,12.000 17.485,12.000 17.563,12.000 17.640,12.000 17.718,12.000 17.795,12.000 17.873,12.000 17.950,12.000 18.028,12.000 18.105,12.000 18.183,12.000 18.260,12.000 18.338,12.000 18.415,12.000 18.493,12.000 18.570,12.000 18.648,12.000 18.725,12.000 18.803,12.000 18.880,12.000 18.958,12.000 19.035,12.000 19.113,12.000 19.190,12.000 19.268,12.000 19.345,12.000 19.423,12.000 19.500,12.000 19.578,12.000 19.655,12.000 19.733,12.000 19.810,12.000 19.888,12.000 19.965,12.000 20.043,12.000 20.120,12.000 20.198,12.000 20.275,12.000 20.353,12.000 20.430,12.000 20.508,12.000 20.585,12.000 20.663,12.000 20.740,12.000 20.818,12.000 20.895,12.000 20.973,12.000 21.050,12.000 21.128,12.000 21.205,12.000 21.283,12.000 21.360,12.000 21.438,12.000 21.515,12.000 21.593,12.000 21.670,12.000 21.748,12.000 21.825,12.000 21.903,12.000 21.980,12.000 22.058,12.000 22.135,12.000 22.213,12.000 22.290,12.000 22.368,12.000 22.445,12.000 22.523,12.000 22.600,12.000 22.678,12.000 22.755,12.000 22.833,12.000 22.910,12.000 22.988,12.000 23.065,12.000 23.143,12.000 23.220,12.000 23.298,12.000 23.375,12.000 23.453,12.000 23.530,12.000 23.608,12.000 23.685,12.000 23.763,12.000 23.840,12.000 23.918,12.000 23.995,12.000 24.073,12.000 24.150,12.000 24.228,12.000 24.305,12.000 24.383,12.000 24.460,12.000 24.538,12.000 24.615,12.000 24.693,12.000 24.770,12.000 24.848,12.000 24.925,12.000 25.003,12.000 25.080,12.000 25.158,12.000 25.235,12.000 25.313,12.000 25.390,12.000 25.468,12.000 25.545,12.000 25.623,12.000 25.700,12.000 25.778,12.000 25.855,12.000 25.933,12.000 26.010,12.000 26.088,12.000 26.165,12.000 26.243,12.000 26.320,12.000 26.398,12.000 26.475,12.000 26.553,12.000 26.630,12.000 26.708,12.000 26.785,12.000 26.863,12.000 26.940,12.000 27.018,12.000 27.095,12.000 27.173,12.000 27.250,12.000 27.328,12.000 27.405,12.000 27.483,12.000 27.560,12.000 27.638,12.000 27.715,12.000 27.793,12.000 27.870,12.000 27.948,12.000 28.025,12.000 28.103,12.000 28.180,12.000 28.258,12.000 28.335,12.000 28.413,12.000 28.490,12.000 28.568,12.000 28.645,12.000 28.723,12.000 28.800,12.000 28.878,12.000 28.955,12.000 29.033,12.000 29.110,12.000 29.188,12.000 29.265,12.000 29.343,12.000 29.420,12.000 29.498,12.000 29.575,12.000 29.653,12.000 29.730,12.000 29.808,12.000 29.885,12.000 29.963,12.000 30.040,12.000 30.118,12.000 30.195,12.000 30.273,12.000 30.350,12.000 30.428,12.000 30.505,12.000 30.583,12.000 30.660,12.000 30.738,12.000 30.815,12.000 30.893,12.000 30.970,12.000 31.048,12.000 31.125,12.000 31.203,12.000 31.280,12.000 31.358,12.000 31.435,12.000 31.513,12.000 31.590,12.000 31.668,12.000 31.745,12.000 31.823,12.000 31.900,12.000 31.978,12.000 32.055,12.000 32.133,12.000 32.210,12.000 32.288,12.000 32.365,12.000 32.443,12.000 32.520,12.000 32.598,12.000 32.675,12.000 32.753,12.000 32.830,12.000 32.908,12.000 32.985,12.000 33.063,12.000 33.140,12.000 33.218,12.000 33.295,12.000 33.373,12.000 33.450,12.000 33.528,12.000 33.605,12.000 33.683,12.000 33.760,12.000 33.838,12.000 33.915,12.000 33.993,12.000 34.070,12.000 34.148,12.000 34.225,12.000 34.303,12.000 34.380,12.000 34.458,12.000 34.535,12.000 34.613,12.000 34.690,12.000 34.768,12.000 34.845,12.000 34.923,12.000 35.000,12.000 35.078,12.000 35.155,12.000 35.233,12.000 35.310,12.000 35.388,12.000 35.465,12.000 35.543,12.000 35.620,12.000 35.698,12.000 35.775,12.000 35.853,12.000 35.930,12.000 36.008,12.000 36.085,12.000 36.163,12.000 36.240,12.000 36.318,12.000 36.395,12.000 36.473,12.000 36.550,12.000 36.628,12.000 36.705,12.000 36.783,12.000 36.860,12.000 36.938,12.000 37.015,12.000 37.093,12.000 37.170,12.000 37.248,12.000 37.325,12.000 37.403,12.000 37.480,12.000 37.558,12.000 37.635,12.000 37.713,12.000 37.790,12.000 37.868,12.000 37.945,12.000 38.023,12.000 38.100,12.000 38.178,12.000 38.255,12.000 38.333,12.000 38.410,12.000 38.488,12.000 38.565,12.000 38.643,12.000 38.720,12.000 38.798,12.000 38.875,12.000 38.953,12.000 39.030,12.000 39.108,12.000 39.185,12.000 39.263,12.000 39.340,12.000 39.417,12.000 39.494,12.000 39.570,12.000 39.646,12.000 39.721,12.000 39.795,12.000 39.868,12.000 39.941,12.000 40.012,12.000 40.083,12.000 40.152,12.000 40.221,12.000 40.288,12.000 40.355,12.000 40.420,12.000 40.484,12.000 40.547,12.000 40.609,12.000 40.669,12.000 40.729,12.000 40.787,12.000 40.844,12.000 40.900,12.000 40.955,12.000 41.009,12.000 41.061,12.000 41.113,12.000 41.163,12.000 41.213,12.000 41.261,12.000 41.308,12.000 41.354,12.000 41.399,12.000 41.443,12.000 41.486,12.000 41.528,12.000 41.569,12.000 41.609,12.000 41.649,12.000 41.687,12.000 41.724,12.000 41.761,12.000 41.797,12.000 41.831,12.000 41.865,12.000 41.899,12.000 41.931,12.000 41.962,12.000 41.993,12.000 42.023,12.000 42.053,12.000 42.081,12.000 42.109,12.000 42.137,12.000 42.163,12.000 42.189,12.000 42.214,12.000 42.239,12.000 42.263,12.000 42.287,12.000 42.310,12.000 42.332,12.000 42.354,12.000 42.375,12.000 42.396,12.000 42.417,12.000 42.437,12.000 42.458,12.000 42.477,12.000 42.497,12.000 42.516,12.000 42.536,12.000 42.555,12.000 42.573,12.000 42.592,12.000 42.611,12.000 42.629,12.000 42.648,12.000 42.666,12.000"/>
<polyline fill="none" stroke="#ff7f0e" stroke-width="0.220" stroke-opacity="0.95" points="42.662,12.000 42.655,12.000 42.645,12.000 42.632,12.000 42.617,12.000 42.599,12.000 42.580,12.000 42.558,12.000 42.535,12.001 42.511,12.001 42.485,12.002 42.458,12.003 42.430,12.004 42.401,12.005 42.372,12.007 42.341,12.009 42.310,12.011 42.278,12.013 42.246,12.016 42.213,12.019 42.180,12.023 42.146,12.026 42.112,12.030 42.078,12.035 42.044,12.040 42.009,12.045 41.974,12.050 41.939,12.056 41.904,12.062 41.868,12.069 41.833,12.076 41.798,12.083 41.762,12.091 41.727,12.099 41.691,12.107 41.655,12.116 41.620,12.125 41.584,12.134 41.549,12.144 41.513,12.154 41.478,12.165 41.442,12.175 41.407,12.187 41.371,12.198 41.336,12.210 41.301,12.222 41.266,12.235 41.231,12.248 41.196,12.261 41.162,12.275 41.127,12.289 41.093,12.303 41.058,12.318 41.024,12.333 40.990,12.348 40.956,12.364 40.922,12.380 40.888,12.396 40.855,12.413 40.822,12.430 40.788,12.447 40.755,12.465 40.722,12.483 40.690,12.501 40.657,12.520 40.625,12.539 40.593,12.558 40.561,12.577 40.529,12.597 40.497,12.617 40.466,12.638 40.435,12.659 40.404,12.680 40.373,12.701 40.343,12.723 40.312,12.745 40.282,12.767 40.252,12.790 40.222,12.813 40.193,12.836 40.164,12.859 40.135,12.883 40.106,12.907 40.077,12.931 40.049,12.956 40.021,12.981 39.993,13.006 39.965,13.031 39.938,13.057 39.911,13.083 39.884,13.109 39.857,13.135 39.831,13.162 39.805,13.189 39.779,13.216 39.754,13.243 39.728,13.271 39.703,13.299 39.679,13.327 39.654,13.356 39.630,13.384 39.606,13.413 39.582,13.442 39.559,13.472 39.536,13.501 39.513,13.531 39.491,13.561 39.469,13.591 39.447,13.622 39.425,13.653 39.404,13.683 39.383,13.714 39.362,13.746 39.342,13.777 39.322,13.809 39.302,13.841 39.283,13.873 39.263,13.905 39.245,13.938 39.226,13.970 39.208,14.003 39.190,14.036 39.172,14.069 39.155,14.102 39.138,14.136 39.122,14.169 39.106,14.203 39.090,14.237 39.074,14.271 39.059,14.306 39.044,14.340 39.029,14.375 39.015,14.409 39.001,14.444 38.988,14.479 38.974,14.514 38.961,14.549 38.949,14.585 38.937,14.620 38.925,14.656 38.913,14.691 38.902,14.727 38.891,14.763 38.881,14.799 38.871,14.835 38.861,14.871 38.852,14.908 38.843,14.944 38.834,14.981 38.826,15.017 38.818,15.054 38.810,15.090 38.803,15.127 38.796,15.164 38.789,15.201 38.783,15.238 38.777,15.275 38.772,15.312 38.766,15.349 38.762,15.387 38.757,15.424 38.753,15.461 38.750,15.498 38.746,15.536 38.743,15.573 38.741,15.610 38.738,15.648 38.737,15.685 38.735,15.723 38.734,15.760 38.733,15.798 38.732,15.835 38.732,15.873 38.732,15.910 38.732,15.948 38.732,15.985 38.733,16.023 38.733,16.060 38.734,16.098 38.735,16.135 38.735,16.173 38.736,16.210 38.736,16.248 38.737,16.285 38.737,16.323 38.738,16.360 38.739,16.398 38.739,16.435 38.740,16.473 38.740,16.510 38.741,16.548 38.742,16.585 38.742,16.623 38.743,16.660 38.743,16.698 38.744,16.735 38.744,16.773 38.745,16.810 38.746,16.848 38.746,16.885 38.747,16.923 38.747,16.960 38.748,16.998 38.748,17.035 38.749,17.073 38.750,17.110 38.750,17.148 38.751,17.185 38.751,17.223 38.752,17.260 38.753,17.298 38.753,17.335 38.754,17.373 38.754,17.410 38.755,17.448 38.755,17.485 38.756,17.523 38.757,17.560 38.757,17.598 38.758,17.635 38.758,17.673 38.759,17.710 38.760,17.748 38.760,17.785 38.761,17.823 38.761,17.860 38.762,17.898 38.762,17.935 38.763,17.973 38.764,18.010 38.764,18.048 38.765,18.085 38.765,18.123 38.766,18.160 38.767,18.198 38.767,18.235 38.768,18.273 38.768,18.310 38.769,18.348 38.769,18.385 38.770,18.422 38.771,18.460 38.771,18.497 38.772,18.534 38.772,18.571 38.773,18.608 38.773,18.644 38.774,18.680 38.775,18.717 38.775,18.752 38.776,18.788 38.776,18.823 38.777,18.859 38.777,18.893 38.778,18.928 38.778,18.962 38.779,18.996 38.779,19.030 38.780,19.063 38.780,19.097 38.781,19.130 38.781,19.162 38.782,19.194 38.782,19.226 38.783,19.258 38.783,19.289 38.784,19.321 38.784,19.351 38.785,19.382 38.785,19.412 38.786,19.442 38.786,19.472 38.787,19.501 38.787,19.530 38.788,19.559 38.788,19.587 38.789,19.616 38.789,19.643 38.789,19.671 38.790,19.699 38.790,19.726 38.791,19.752 38.791,19.779 38.791,19.805 38.792,19.831 38.792,19.857 38.793,19.883 38.793,19.908 38.793,19.933 38.794,19.958 38.794,19.982 38.795,20.007 38.795,20.031 38.795,20.054 38.796,20.078 38.796,20.101 38.796,20.124 38.797,20.147 38.797,20.170 38.797,20.192 38.798,20.214 38.798,20.236 38.798,20.258 38.799,20.279 38.799,20.301 38.799,20.322 38.800,20.342 38.800,20.363 38.800,20.383 38.801,20.404 38.801,20.424 38.801,20.443 38.802,20.463 38.802,20.482 38.802,20.502 38.803,20.521 38.803,20.540 38.803,20.558 38.803,20.577 38.804,20.595 38.804,20.614 38.804,20.632 38.805,20.650 38.805,20.669 38.805,20.687 38.805,20.705 38.806,20.723 38.806,20.741 38.806,20.759 38.807,20.776 38.807,20.794 38.807,20.812 38.807,20.830 38.808,20.848 38.808,20.865 38.808,20.883 38.808,20.901 38.809,20.918 38.809,20.936 38.809,20.953 38.810,20.971 38.810,20.989 38.810,21.006 38.810,21.024 38.811,21.041 38.811,21.059 38.811,21.077 38.811,21.094 38.812,21.112 38.812,21.129 38.812,21.147 38.813,21.164 38.813,21.182 38.813,21.199 38.813,21.217 38.814,21.234 38.814,21.252 38.814,21.269 38.814,21.287 38.815,21.304 38.815,21.322 38.815,21.339 38.816,21.357 38.816,21.374 38.816,21.392 38.816,21.409 38.817,21.427 38.817,21.444 38.817,21.462 38.817,21.479 38.818,21.497 38.818,21.514 38.818,21.532 38.819,21.549 38.819,21.567 38.819,21.584 38.819,21.602 38.820,21.619 38.820,21.637 38.820,21.654 38.820,21.672 38.821,21.689 38.821,21.707 38.821,21.724 38.822,21.742 38.822,21.759 38.822,21.777 38.822,21.794 38.823,21.812 38.823,21.829 38.823,21.847 38.823,21.864 38.824,21.882 38.824,21.899 38.824,21.917 38.825,21.934 38.825,21.952 38.825,21.969 38.825,21.987 38.826,22.004 38.826,22.022 38.826,22.039 38.826,22.057 38.827,22.074 38.827,22.092 38.827,22.109 38.827,22.127 38.828,22.144 38.828,22.162 38.828,22.179 38.829,22.197 38.829,22.214 38.829,22.232 38.829,22.249 38.830,22.267"/>
<polygon fill="#1f77b4" fill-opacity="0.140" stroke="#1f77b4" stroke-opacity="0.55" stroke-width="0.07" points="6.408,13.000 6.408,11.000 1.608,11.000 1.608,13.000"/>
<polygon fill="#1f77b4" fill-opacity="0.140" stroke="#1f77b4" stroke-opacity="0.55" stroke-width="0.07" points="7.269,13.000 7.269,11.000 2.469,11.000 2.469,13.000"/>
<polygon fill="#1f77b4" fill-opacity="0.140" stroke="#1f77b4" stroke-opacity="0.55" stroke-width="0.07" points="8.584,13.000 8.584,11.000 3.784,11.000 3.784,13.000"/>
<polygon fill="#1f77b4" fill-opacity="0.140" stroke="#1f77b4" stroke-opacity="0.55" stroke-width="0.07" points="9.967,13.000 9.967,11.000 5.167,11.000 5.167,13.000"/>
<polygon fill="#1f77b4" fill-opacity="0.140" stroke="#1f77b4" stroke-opacity="0.55" stroke-width="0.07" points="11.360,13.000 11.360,11.000 6.560,11.000 6.560,13.000"/>
<polygon fill="#1f77b4" fill-opacity="0.140" stroke="#1f77b4" stroke-opacity="0.55" stroke-width="0.07" points="12.755,13.000 12.755,11.000 7.955,11.000 7.955,13.000"/>
<polygon fill="#1f77b4" fill-opacity="0.140" stroke="#1f77b4" stroke-opacity="0.55" stroke-width="0.07" points="14.150,13.000 14.150,11.000 9.350,11.000 9.350,13.000"/>
<polygon fill="#1f77b4" fill-opacity="0.140" stroke="#1f77b4" stroke-opacity="0.55" stroke-width="0.07" points="15.545,13.000 15.545,11.000 10.745,11.000 10.745,13.000"/>
<polygon fill="#1f77b4" fill-opacity="0.140" stroke="#1f77b4" stroke-opacity="0.55" stroke-width="0.07" points="16.940,13.000 16.940,11.000 12.140,11.000 12.140,13.000"/>
<polygon fill="#1f77b4" fill-opacity="0.140" stroke="#1f77b4" stroke-opacity="0.55" stroke-width="0.07" points="18.335,13.000 18.335,11.000 13.535,11.000 13.535,13.000"/>
<polygon fill="#1f77b4" fill-opacity="0.140" stroke="#1f77b4" stroke-opacity="0.55" stroke-width="0.07" points="19.730,13.000 19.730,11.000 14.930,11.000 14.930,13.000"/>
<polygon fill="#1f77b4" fill-opacity="0.140" stroke="#1f77b4" stroke-opacity="0.55" stroke-width="0.07" points="21.125,13.000 21.125,11.000 16.325,11.000 16.325,13.000"/>
<polygon fill="#1f77b4" fill-opacity="0.140" stroke="#1f77b4" stroke-opacity="0.55" stroke-width="0.07" points="22.520,13.000 22.520,11.000 17.720,11.000 17.720,13.000"/>
<polygon fill="#1f77b4" fill-opacity="0.140" stroke="#1f77b4" stroke-opacity="0.55" stroke-width="0.07" points="23.915,13.000 23.915,11.000 19.115,11.000 19.115,13.000"/>
<polygon fill="#1f77b4" fill-opacity="0.140" stroke="#1f77b4" stroke-opacity="0.55" stroke-width="0.07" points="25.310,13.000 25.310,11.000 20.510,11.000 20.510,13.000"/>
<polygon fill="#1f77b4" fill-opacity="0.140" stroke="#1f77b4" stroke-opacity="0.55" stroke-width="0.07" points="26.705,13.000 26.705,11.000 21.905,11.000 21.905,13.000"/>
<polygon fill="#1f77b4" fill-opacity="0.140" stroke="#1f77b4" stroke-opacity="0.55" stroke-width="0.07" points="28.100,13.000 28.100,11.000 23.300,11.000 23.300,13.000"/>
<polygon fill="#1f77b4" fill-opacity="0.140" stroke="#1f77b4" stroke-opacity="0.55" stroke-width="0.07" points="29.495,13.000 29.495,11.000 24.695,11.000 24.695,13.000"/>
<polygon fill="#1f77b4" fill-opacity="0.140" stroke="#1f77b4" stroke-opacity="0.55" stroke-width="0.07" points="30.890,13.000 30.890,11.000 26.090,11.000 26.090,13.000"/>
<polygon fill="#1f77b4" fill-opacity="0.140" stroke="#1f77b4" stroke-opacity="0.55" stroke-width="0.07" points="32.285,13.000 32.285,11.000 27.485,11.000 27.485,13.000"/>
<polygon fill="#1f77b4" fill-opacity="0.140" stroke="#1f77b4" stroke-opacity="0.55" stroke-width="0.07" points="33.680,13.000 33.680,11.000 28.880,11.000 28.880,13.000"/>
<polygon fill="#1f77b4" fill-opacity="0.140" stroke="#1f77b4" stroke-opacity="0.55" stroke-width="0.07" points="35.075,13.000 35.075,11.000 30.275,11.000 30.275,13.000"/>
<polygon fill="#1f77b4" fill-opacity="0.140" stroke="#1f77b4" stroke-opacity="0.55" stroke-width="0.07" points="36.470,13.000 36.470,11.000 31.670,11.000 31.670,13.000"/>
<polygon fill="#1f77b4" fill-opacity="0.140" stroke="#1f77b4" stroke-opacity="0.55" stroke-width="0.07" points="37.865,13.000 37.865,11.000 33.065,11.000 33.065,13.000"/>
<polygon fill="#1f77b4" fill-opacity="0.140" stroke="#1f77b4" stroke-opacity="0.55" stroke-width="0.07" points="39.260,13.000 39.260,11.000 34.460,11.000 34.460,13.000"/>
<polygon fill="#1f77b4" fill-opacity="0.140" stroke="#1f77b4" stroke-opacity="0.55" stroke-width="0.07" points="40.655,13.000 40.655,11.000 35.855,11.000 35.855,13.000"/>
<polygon fill="#1f77b4" fill-opacity="0.140" stroke="#1f77b4" stroke-opacity="0.55" stroke-width="0.07" points="42.046,13.000 42.046,11.000 37.246,11.000 37.246,13.000"/>
<polygon fill="#1f77b4" fill-opacity="0.140" stroke="#1f77b4" stroke-opacity="0.55" stroke-width="0.07" points="43.244,13.000 43.244,11.000 38.444,11.000 38.444,13.000"/>
<polygon fill="#1f77b4" fill-opacity="0.140" stroke="#1f77b4" stroke-opacity="0.55" stroke-width="0.07" points="44.087,13.000 44.087,11.000 39.287,11.000 39.287,13.000"/>
<polygon fill="#1f77b4" fill-opacity="0.140" stroke="#1f77b4" stroke-opacity="0.55" stroke-width="0.07" points="44.639,13.000 44.639,11.000 39.839,11.000 39.839,13.000"/>
<polygon fill="#1f77b4" fill-opacity="0.140" stroke="#1f77b4" stroke-opacity="0.55" stroke-width="0.07" points="45.011,13.000 45.011,11.000 40.211,11.000 40.211,13.000"/>
<polygon fill="#1f77b4" fill-opacity="0.140" stroke="#1f77b4" stroke-opacity="0.55" stroke-width="0.07" points="45.066,13.000 45.066,11.000 40.266,11.000 40.266,13.000"/>
<polygon fill="#ff7f0e" fill-opacity="0.160" stroke="#ff7f0e" stroke-opacity="0.55" stroke-width="0.07" points="45.062,13.000 45.062,11.000 40.262,11.000 40.262,13.000"/>
<polygon fill="#ff7f0e" fill-opacity="0.160" stroke="#ff7f0e" stroke-opacity="0.55" stroke-width="0.07" points="44.729,12.786 44.542,10.795 39.763,11.246 39.950,13.237"/>
<polygon fill="#ff7f0e" fill-opacity="0.160" stroke="#ff7f0e" stroke-opacity="0.55" stroke-width="0.07" points="44.196,12.477 43.684,10.543 39.044,11.773 39.556,13.706"/>
<polygon fill="#ff7f0e" fill-opacity="0.160" stroke="#ff7f0e" stroke-opacity="0.55" stroke-width="0.07" points="43.588,12.250 42.750,10.434 38.392,12.446 39.230,14.262"/>
<polygon fill="#ff7f0e" fill-opacity="0.160" stroke="#ff7f0e" stroke-opacity="0.55" stroke-width="0.07" points="42.945,12.131 41.804,10.489 37.862,13.228 39.004,14.871"/>
<polygon fill="#ff7f0e" fill-opacity="0.160" stroke="#ff7f0e" stroke-opacity="0.55" stroke-width="0.07" points="42.291,12.126 40.881,10.708 37.477,14.091 38.887,15.510"/>
<polygon fill="#ff7f0e" fill-opacity="0.160" stroke="#ff7f0e" stroke-opacity="0.55" stroke-width="0.07" points="41.646,12.235 40.011,11.084 37.247,15.009 38.883,16.160"/>
<polygon fill="#ff7f0e" fill-opacity="0.160" stroke="#ff7f0e" stroke-opacity="0.55" stroke-width="0.07" points="41.030,12.455 39.219,11.606 37.181,15.952 38.992,16.801"/>
<polygon fill="#ff7f0e" fill-opacity="0.160" stroke="#ff7f0e" stroke-opacity="0.55" stroke-width="0.07" points="40.461,12.778 38.530,12.258 37.281,16.892 39.212,17.413"/>
<polygon fill="#ff7f0e" fill-opacity="0.160" stroke="#ff7f0e" stroke-opacity="0.55" stroke-width="0.07" points="39.958,13.196 37.966,13.019 37.541,17.800 39.533,17.977"/>
<polygon fill="#ff7f0e" fill-opacity="0.160" stroke="#ff7f0e" stroke-opacity="0.55" stroke-width="0.07" points="39.698,13.758 37.698,13.789 37.772,18.588 39.772,18.557"/>
<polygon fill="#ff7f0e" fill-opacity="0.160" stroke="#ff7f0e" stroke-opacity="0.55" stroke-width="0.07" points="39.708,14.432 37.708,14.464 37.783,19.263 39.783,19.232"/>
<polygon fill="#ff7f0e" fill-opacity="0.160" stroke="#ff7f0e" stroke-opacity="0.55" stroke-width="0.07" points="39.719,15.107 37.719,15.138 37.793,19.938 39.793,19.907"/>
<polygon fill="#ff7f0e" fill-opacity="0.160" stroke="#ff7f0e" stroke-opacity="0.55" stroke-width="0.07" points="39.729,15.782 37.729,15.813 37.804,20.613 39.804,20.582"/>
<polygon fill="#ff7f0e" fill-opacity="0.160" stroke="#ff7f0e" stroke-opacity="0.55" stroke-width="0.07" points="39.739,16.443 37.740,16.474 37.814,21.274 39.814,21.243"/>
<polygon fill="#ff7f0e" fill-opacity="0.160" stroke="#ff7f0e" stroke-opacity="0.55" stroke-width="0.07" points="39.748,17.027 37.749,17.058 37.823,21.857 39.823,21.826"/>
<polygon fill="#ff7f0e" fill-opacity="0.160" stroke="#ff7f0e" stroke-opacity="0.55" stroke-width="0.07" points="39.756,17.518 37.756,17.549 37.831,22.348 39.831,22.317"/>
<polygon fill="#ff7f0e" fill-opacity="0.160" stroke="#ff7f0e" stroke-opacity="0.55" stroke-width="0.07" points="39.762,17.927 37.763,17.958 37.837,22.758 39.837,22.727"/>
<polygon fill="#ff7f0e" fill-opacity="0.160" stroke="#ff7f0e" stroke-opacity="0.55" stroke-width="0.07" points="39.768,18.272 37.768,18.303 37.842,23.102 39.842,23.071"/>
<polygon fill="#ff7f0e" fill-opacity="0.160" stroke="#ff7f0e" stroke-opacity="0.55" stroke-width="0.07" points="39.773,18.591 37.773,18.622 37.847,23.421 39.847,23.390"/>
<polygon fill="#ff7f0e" fill-opacity="0.160" stroke="#ff7f0e" stroke-opacity="0.55" stroke-width="0.07" points="39.778,18.907 37.778,18.938 37.852,23.737 39.852,23.706"/>
<polygon fill="#ff7f0e" fill-opacity="0.160" stroke="#ff7f0e" stroke-opacity="0.55" stroke-width="0.07" points="39.783,19.222 37.783,19.253 37.857,24.052 39.857,24.021"/>
<polygon fill="#ff7f0e" fill-opacity="0.160" stroke="#ff7f0e" stroke-opacity="0.55" stroke-width="0.07" points="39.787,19.537 37.788,19.568 37.862,24.367 39.862,24.336"/>
<polygon fill="#ff7f0e" fill-opacity="0.160" stroke="#ff7f0e" stroke-opacity="0.55" stroke-width="0.07" points="39.792,19.852 37.793,19.883 37.867,24.682 39.867,24.651"/>
<polygon fill="#ff7f0e" fill-opacity="0.160" stroke="#ff7f0e" stroke-opacity="0.55" stroke-width="0.07" points="39.792,19.852 37.793,19.883 37.867,24.682 39.867,24.651"/>
<polygon fill="none" stroke="crimson" stroke-width="0.120" points="39.792,19.852 37.793,19.883 37.867,24.682 39.867,24.651"/>
</g>
</svg>
