<?xml version="1.0" encoding="UTF-8"?>
<svg xmlns="http://www.w3.org/2000/svg" width="1400" height="900" viewBox="0 -3 75 53">
<rect x="0" y="-3" width="75" height="53" fill="white"/>
<text x="1.5" y="-1.35" font-size="1.15" fill="black">Parking | target row=0 idx=1 | success=true sim_ok=true | max_steer=35 deg | overshoot~=5 m | total(ref)~=9e+01 m</text>
<text x="1.5" y="-0.45" font-size="0.95" fill="black">ok</text>
<g transform="translate(0,50.000) scale(1,-1)">
<rect x="0" y="0" width="75.000" height="50.000" fill="none" stroke="black" stroke-width="0.15"/>
<rect x="0.000" y="9.000" width="75.000" height="6.000" fill="#add8e6" fill-opacity="0.25" stroke="#add8e6" stroke-width="0.08"/>
<rect x="0.000" y="34.500" width="75.000" height="6.000" fill="#add8e6" fill-opacity="0.25" stroke="#add8e6" stroke-width="0.08"/>
<rect x="36.000" y="12.000" width="6.000" height="25.500" fill="#90ee90" fill-opacity="0.25" stroke="#90ee90" stroke-width="0.08"/>
<rect x="12.000" y="44.000" width="4.800" height="6.000" fill="white" stroke="gray" stroke-width="0.080" fill-opacity="0.85"/>
<rect x="16.800" y="44.000" width="4.800" height="6.000" fill="#98fb98" stroke="darkgreen" stroke-width="0.180" fill-opacity="0.85"/>
<rect x="21.600" y="44.000" width="4.800" height="6.000" fill="black" stroke="gray" stroke-width="0.080" fill-opacity="0.95"/>
<rect x="26.400" y="44.000" width="4.800" height="6.000" fill="black" stroke="gray" stroke-width="0.080" fill-opacity="0.95"/>
<rect x="31.200" y="44.000" width="4.800" height="6.000" fill="white" stroke="gray" stroke-width="0.080" fill-opacity="0.85"/>
<rect x="12.000" y="25.000" width="4.800" height="6.000" fill="black" stroke="gray" stroke-width="0.080" fill-opacity="0.95"/>
<rect x="16.800" y="25.000" width="4.800" height="6.000" fill="black" stroke="gray" stroke-width="0.080" fill-opacity="0.95"/>
<rect x="21.600" y="25.000" width="4.800" height="6.000" fill="black" stroke="gray" stroke-width="0.080" fill-opacity="0.95"/>
<rect x="26.400" y="25.000" width="4.800" height="6.000" fill="white" stroke="gray" stroke-width="0.080" fill-opacity="0.85"/>
<rect x="31.200" y="25.000" width="4.800" height="6.000" fill="white" stroke="gray" stroke-width="0.080" fill-opacity="0.85"/>
<rect x="12.000" y="19.000" width="4.800" height="6.000" fill="white" stroke="gray" stroke-width="0.080" fill-opacity="0.85"/>
<rect x="16.800" y="19.000" width="4.800" height="6.000" fill="white" stroke="gray" stroke-width="0.080" fill-opacity="0.85"/>
<rect x="21.600" y="19.000" width="4.800" height="6.000" fill="white" stroke="gray" stroke-width="0.080" fill-opacity="0.85"/>
<rect x="26.400" y="19.000" width="4.800" height="6.000" fill="white" stroke="gray" stroke-width="0.080" fill-opacity="0.85"/>
<rect x="31.200" y="19.000" width="4.800" height="6.000" fill="black" stroke="gray" stroke-width="0.080" fill-opacity="0.95"/>
<rect x="12.000" y="0.000" width="4.800" height="6.000" fill="white" stroke="gray" stroke-width="0.080" fill-opacity="0.85"/>
<rect x="16.800" y="0.000" width="4.800" height="6.000" fill="white" stroke="gray" stroke-width="0.080" fill-opacity="0.85"/>
<rect x="21.600" y="0.000" width="4.800" height="6.000" fill="black" stroke="gray" stroke-width="0.080" fill-opacity="0.95"/>
<rect x="26.400" y="0.000" width="4.800" height="6.000" fill="white" stroke="gray" stroke-width="0.080" fill-opacity="0.85"/>
<rect x="31.200" y="0.000" width="4.800" height="6.000" fill="black" stroke="gray" stroke-width="0.080" fill-opacity="0.95"/>
<polygon fill="none" stroke="navy" stroke-width="0.120" points="6.400,13.000 6.400,11.000 1.600,11.000 1.600,13.000"/>
<polygon fill="purple" points="21.420,37.500 21.700,37.850 21.980,37.500 21.700,37.150"/>
<circle cx="14.400" cy="37.500" r="0.38" fill="darkviolet" stroke="indigo" stroke-width="0.06"/>
<polyline fill="none" stroke="#808080" stroke-width="0.120" stroke-opacity="0.65" stroke-dasharray="0.45 0.35" points="4.000,12.000 4.000,12.120 34.124,12.120 34.307,12.124 34.491,12.137 34.673,12.159 34.854,12.190 35.033,12.229 35.210,12.276 35.385,12.332 35.557,12.396 35.726,12.468 35.891,12.549 36.052,12.637 36.209,12.732 36.361,12.835 36.508,12.945 36.649,13.062 36.785,13.185 36.915,13.315 37.038,13.451 37.155,13.592 37.265,13.739 37.368,13.891 37.463,14.048 37.551,14.209 37.632,14.374 37.704,14.543 37.768,14.715 37.824,14.890 37.871,15.067 37.910,15.246 37.941,15.427 37.963,15.609 37.976,15.793 37.980,15.976 37.980,33.644 37.976,33.827 37.963,34.011 37.941,34.193 37.910,34.374 37.871,34.553 37.824,34.730 37.768,34.905 37.704,35.077 37.632,35.246 37.551,35.411 37.463,35.572 37.368,35.729 37.265,35.881 37.155,36.028 37.038,36.169 36.915,36.305 36.785,36.435 36.649,36.558 36.508,36.675 36.361,36.785 36.209,36.888 36.052,36.983 35.891,37.071 35.726,37.152 35.557,37.224 35.385,37.288 35.210,37.344 35.033,37.391 34.854,37.430 34.673,37.461 34.491,37.483 34.307,37.496 34.124,37.500 21.700,37.500 14.400,37.500"/>
<polyline fill="none" stroke="#808080" stroke-width="0.120" stroke-opacity="0.65" stroke-dasharray="0.45 0.35" points="14.400,37.500 14.400,37.684 14.407,37.872 14.422,38.063 14.444,38.257 14.474,38.455 14.510,38.655 14.553,38.858 14.603,39.064 14.659,39.272 14.721,39.482 14.788,39.695 14.862,39.909 14.940,40.126 15.024,40.343 15.113,40.562 15.206,40.783 15.304,41.004 15.406,41.227 15.512,41.450 15.622,41.673 15.736,41.897 15.853,42.121 15.972,42.346 16.095,42.570 16.221,42.794 16.349,43.017 16.479,43.240 16.611,43.462 16.745,43.683 16.880,43.902 17.017,44.121 17.155,44.338 17.293,44.553 17.433,44.767 17.573,44.978 17.712,45.188 17.852,45.395 17.992,45.599 18.131,45.801 18.270,46.000 18.407,46.196 18.543,46.389 18.678,46.579 18.812,46.765 18.943,46.947 19.073,47.126 19.200,47.300"/>
<polyline fill="none" stroke="#1f77b4" stroke-width="0.220" stroke-opacity="0.95" points="4.008,12.000 4.022,12.000 4.043,12.000 4.070,12.000 4.102,12.000 4.138,12.000 4.179,12.001 4.223,12.001 4.270,12.002 4.321,12.003 4.374,12.003 4.429,12.005 4.487,12.006 4.547,12.007 4.609,12.009 4.672,12.011 4.736,12.013 4.802,12.015 4.869,12.017 4.937,12.019 5.006,12.022 5.076,12.024 5.146,12.027 5.218,12.030 5.290,12.033 5.362,12.036 5.435,12.039 5.508,12.041 5.582,12.044 5.656,12.047 5.731,12.050 5.806,12.053 5.881,12.056 5.956,12.059 6.031,12.062 6.107,12.065 6.183,12.068 6.259,12.070 6.335,12.073 6.411,12.076 6.488,12.078 6.564,12.081 6.641,12.083 6.718,12.085 6.795,12.088 6.871,12.090 6.948,12.092 7.025,12.094 7.102,12.096 7.179,12.098 7.257,12.100 7.334,12.101 7.411,12.103 7.488,12.104 7.565,12.106 7.643,12.107 7.720,12.109 7.797,12.110 7.875,12.111 7.952,12.112 8.029,12.113 8.107,12.114 8.184,12.115 8.262,12.116 8.339,12.117 8.416,12.118 8.494,12.119 8.571,12.119 8.649,12.120 8.726,12.120 8.804,12.121 8.881,12.121 8.958,12.122 9.036,12.122 9.113,12.122 9.191,12.123 9.268,12.123 9.346,12.123 9.423,12.124 9.501,12.124 9.578,12.124 9.656,12.124 9.733,12.124 9.811,12.124 9.888,12.124 9.966,12.124 10.043,12.124 10.121,12.124 10.198,12.124 10.276,12.124 10.353,12.124 10.431,12.124 10.508,12.124 10.586,12.124 10.663,12.124 10.741,12.124 10.818,12.124 10.896,12.124 10.973,12.124 11.051,12.124 11.128,12.124 11.206,12.123 11.283,12.123 11.361,12.123 11.438,12.123 11.516,12.123 11.593,12.123 11.671,12.123 11.748,12.123 11.826,12.123 11.903,12.122 11.981,12.122 12.058,12.122 12.136,12.122 12.213,12.122 12.291,12.122 12.368,12.122 12.446,12.122 12.523,12.122 12.601,12.121 12.678,12.121 12.756,12.121 12.833,12.121 12.911,12.121 12.988,12.121 13.066,12.121 13.143,12.121 13.221,12.121 13.298,12.121 13.376,12.121 13.453,12.121 13.531,12.121 13.608,12.121 13.686,12.120 13.763,12.120 13.841,12.120 13.918,12.120 13.996,12.120 14.073,12.120 14.151,12.120 14.228,12.120 14.306,12.120 14.383,12.120 14.461,12.120 14.538,12.120 14.616,12.120 14.693,12.120 14.771,12.120 14.848,12.120 14.926,12.120 15.003,12.120 15.081,12.120 15.158,12.120 15.236,12.120 15.313,12.120 15.391,12.120 15.468,12.120 15.546,12.120 15.623,12.120 15.701,12.120 15.778,12.120 15.856,12.120 15.933,12.120 16.011,12.120 16.088,12.120 16.166,12.120 16.243,12.120 16.321,12.120 16.398,12.120 16.476,12.120 16.553,12.120 16.631,12.120 16.708,12.120 16.786,12.120 16.863,12.120 16.941,12.120 17.018,12.120 17.096,12.120 17.173,12.120 17.251,12.120 17.328,12.120 17.406,12.120 17.483,12.120 17.561,12.120 17.638,12.120 17.716,12.120 17.793,12.120 17.871,12.120 17.948,12.120 18.026,12.120 18.103,12.120 18.181,12.120 18.258,12.120 18.336,12.120 18.413,12.120 18.491,12.120 18.568,12.120 18.646,12.120 18.723,12.120 18.801,12.120 18.878,12.120 18.956,12.120 19.033,12.120 19.111,12.120 19.188,12.120 19.266,12.120 19.343,12.120 19.421,12.120 19.498,12.120 19.576,12.120 19.653,12.120 19.731,12.120 19.808,12.120 19.886,12.120 19.963,12.120 20.041,12.120 20.118,12.120 20.196,12.120 20.273,12.120 20.351,12.120 20.428,12.120 20.506,12.120 20.583,12.120 20.661,12.120 20.738,12.120 20.816,12.120 20.893,12.120 20.971,12.120 21.048,12.120 21.126,12.120 21.203,12.120 21.281,12.120 21.358,12.120 21.436,12.120 21.513,12.120 21.591,12.120 21.668,12.120 21.746,12.120 21.823,12.120 21.901,12.120 21.978,12.120 22.056,12.120 22.133,12.120 22.211,12.120 22.288,12.120 22.366,12.120 22.443,12.120 22.521,12.120 22.598,12.120 22.676,12.120 22.753,12.120 22.831,12.120 22.908,12.120 22.986,12.120 23.063,12.120 23.141,12.120 23.218,12.120 23.296,12.120 23.373,12.120 23.451,12.120 23.528,12.120 23.606,12.120 23.683,12.120 23.761,12.120 23.838,12.120 23.916,12.120 23.993,12.120 24.071,12.120 24.148,12.120 24.226,12.120 24.303,12.120 24.381,12.120 24.458,12.120 24.536,12.120 24.613,12.120 24.691,12.120 24.768,12.120 24.846,12.120 24.923,12.120 25.001,12.120 25.078,12.120 25.156,12.120 25.233,12.120 25.311,12.120 25.388,12.120 25.466,12.120 25.543,12.120 25.621,12.120 25.698,12.120 25.776,12.120 25.853,12.120 25.931,12.120 26.008,12.120 26.086,12.120 26.163,12.120 26.241,12.120 26.318,12.120 26.396,12.120 26.473,12.120 26.551,12.120 26.628,12.120 26.706,12.120 26.783,12.120 26.861,12.120 26.938,12.120 27.016,12.120 27.093,12.120 27.171,12.120 27.248,12.120 27.326,12.120 27.403,12.120 27.481,12.120 27.558,12.120 27.636,12.120 27.713,12.120 27.791,12.120 27.868,12.120 27.946,12.120 28.023,12.120 28.101,12.120 28.178,12.120 28.256,12.120 28.333,12.120 28.411,12.120 28.488,12.120 28.566,12.120 28.643,12.120 28.721,12.120 28.798,12.120 28.876,12.120 28.953,12.120 29.031,12.120 29.108,12.120 29.186,12.120 29.263,12.120 29.341,12.120 29.418,12.120 29.496,12.120 29.573,12.120 29.651,12.120 29.728,12.120 29.806,12.120 29.883,12.120 29.961,12.120 30.038,12.120 30.116,12.120 30.193,12.120 30.271,12.120 30.348,12.120 30.426,12.120 30.503,12.120 30.581,12.120 30.658,12.120 30.736,12.120 30.813,12.120 30.891,12.120 30.968,12.120 31.046,12.120 31.123,12.120 31.201,12.120 31.278,12.120 31.356,12.120 31.433,12.120 31.511,12.120 31.588,12.120 31.666,12.120 31.743,12.120 31.821,12.120 31.898,12.120 31.976,12.120 32.053,12.120 32.131,12.120 32.208,12.120 32.286,12.120 32.363,12.120 32.441,12.120 32.518,12.120 32.596,12.120 32.673,12.120 32.751,12.120 32.828,12.121 32.906,12.121 32.983,12.122 33.061,12.122 33.138,12.123 33.216,12.124 33.293,12.126 33.371,12.128 33.448,12.130 33.526,12.132 33.603,12.136 33.680,12.139 33.758,12.143 33.835,12.148 33.912,12.153 33.990,12.159 34.067,12.166 34.144,12.173 34.221,12.182 34.298,12.191 34.375,12.200 34.452,12.211 34.528,12.223 34.605,12.236 34.681,12.249 34.757,12.264 34.833,12.280 34.909,12.297 34.984,12.315 35.059,12.334 35.134,12.354 35.208,12.376 35.282,12.399 35.356,12.423 35.429,12.448 35.502,12.475 35.574,12.503 35.646,12.532 35.717,12.563 35.788,12.595 35.858,12.628 35.927,12.662 35.996,12.698 36.064,12.735 36.131,12.774 36.198,12.814 36.264,12.855 36.328,12.897 36.392,12.941 36.456,12.986 36.518,13.032 36.579,13.079 36.639,13.128 36.699,13.178 36.757,13.229 36.814,13.281 36.871,13.334 36.926,13.389 36.980,13.444 37.033,13.501 37.085,13.559 37.135,13.617 37.185,13.677 37.233,13.738 37.280,13.799 37.325,13.862 37.370,13.926 37.413,13.990 37.455,14.055 37.495,14.121 37.535,14.188 37.573,14.256 37.609,14.324 37.644,14.393 37.678,14.463 37.710,14.533 37.741,14.604 37.770,14.676 37.798,14.748 37.825,14.821 37.850,14.895 37.874,14.968 37.896,15.043 37.916,15.117 37.936,15.192 37.954,15.268 37.970,15.344 37.985,15.420 37.999,15.496 38.012,15.572 38.024,15.649 38.035,15.726 38.044,15.802 38.053,15.879 38.061,15.957 38.068,16.034 38.074,16.111 38.079,16.188 38.083,16.266 38.087,16.343 38.090,16.421 38.093,16.498 38.095,16.575 38.096,16.653 38.097,16.730 38.098,16.808 38.098,16.885 38.097,16.963 38.097,17.040 38.096,17.118 38.094,17.195 38.093,17.273 38.091,17.350 38.089,17.428 38.087,17.505 38.084,17.583 38.082,17.660 38.079,17.738 38.076,17.815 38.073,17.893 38.070,17.970 38.067,18.047 38.064,18.125 38.061,18.202 38.058,18.280 38.055,18.357 38.052,18.435 38.049,18.512 38.046,18.590 38.043,18.667 38.040,18.744 38.037,18.822 38.034,18.899 38.031,18.977 38.029,19.054 38.026,19.132 38.023,19.209 38.021,19.287 38.018,19.364 38.016,19.442 38.014,19.519 38.011,19.596 38.009,19.674 38.007,19.751 38.005,19.829 38.003,19.906 38.001,19.984 37.999,20.061 37.998,20.139 37.996,20.216 37.995,20.294 37.993,20.371 37.992,20.449 37.990,20.526 37.989,20.604 37.988,20.681 37.987,20.759 37.986,20.836 37.985,20.914 37.984,20.991 37.983,21.069 37.982,21.146 37.982,21.224 37.981,21.301 37.980,21.379 37.980,21.456 37.979,21.534 37.979,21.611 37.978,21.689 37.978,21.766 37.978,21.844 37.977,21.921 37.977,21.999 37.977,22.076 37.976,22.154 37.976,22.231 37.976,22.309 37.976,22.386 37.976,22.464 37.976,22.541 37.976,22.619 37.976,22.696 37.976,22.774 37.976,22.851 37.976,22.929 37.976,23.006 37.976,23.084 37.976,23.161 37.976,23.239 37.976,23.316 37.976,23.394 37.976,23.471 37.976,23.549 37.976,23.626 37.976,23.704 37.976,23.781 37.976,23.859 37.976,23.936 37.977,24.014 37.977,24.091 37.977,24.169 37.977,24.246 37.977,24.324 37.977,24.401 37.977,24.479 37.977,24.556 37.978,24.634 37.978,24.711 37.978,24.789 37.978,24.866 37.978,24.944 37.978,25.021 37.978,25.099 37.978,25.176 37.978,25.254 37.978,25.331 37.979,25.409 37.979,25.486 37.979,25.564 37.979,25.641 37.979,25.719 37.979,25.796 37.979,25.874 37.979,25.951 37.979,26.029 37.979,26.106 37.979,26.184 37.979,26.261 37.979,26.339 37.980,26.416 37.980,26.494 37.980,26.571 37.980,26.649 37.980,26.726 37.980,26.804 37.980,26.881 37.980,26.959 37.980,27.036 37.980,27.114 37.980,27.191 37.980,27.269 37.980,27.346 37.980,27.424 37.980,27.501 37.980,27.579 37.980,27.656 37.980,27.734 37.980,27.811 37.980,27.889 37.980,27.966 37.980,28.044 37.980,28.121 37.980,28.199 37.980,28.276 37.980,28.354 37.980,28.431 37.980,28.509 37.980,28.586 37.980,28.664 37.980,28.741 37.980,28.819 37.980,28.896 37.980,28.974 37.980,29.051 37.980,29.129 37.980,29.206 37.980,29.284 37.980,29.361 37.980,29.439 37.980,29.516 37.980,29.594 37.980,29.671 37.980,29.749 37.980,29.826 37.980,29.904 37.980,29.981 37.980,30.059 37.980,30.136 37.980,30.214 37.980,30.291 37.980,30.369 37.980,30.446 37.980,30.524 37.980,30.601 37.980,30.679 37.980,30.756 37.980,30.834 37.980,30.911 37.980,30.989 37.980,31.066 37.980,31.144 37.980,31.221 37.980,31.299 37.980,31.376 37.980,31.454 37.980,31.531 37.980,31.609 37.980,31.686 37.980,31.764 37.980,31.841 37.980,31.919 37.980,31.996 37.980,32.074 37.980,32.151 37.980,32.229 37.980,32.306 37.979,32.384 37.979,32.461 37.978,32.539 37.977,32.616 37.976,32.694 37.975,32.771 37.974,32.849 37.972,32.926 37.969,33.004 37.967,33.081 37.963,33.158 37.959,33.236 37.955,33.313 37.950,33.391 37.945,33.468 37.938,33.545 37.932,33.622 37.924,33.699 37.915,33.776 37.906,33.853 37.896,33.930 37.884,34.007 37.872,34.083 37.859,34.160 37.845,34.236 37.830,34.312 37.814,34.388 37.796,34.463 37.778,34.539 37.758,34.613 37.737,34.688 37.715,34.762 37.691,34.836 37.667,34.910 37.641,34.983 37.613,35.055 37.585,35.127 37.555,35.199 37.524,35.270 37.492,35.340 37.458,35.410 37.423,35.479 37.386,35.547 37.348,35.615 37.309,35.682 37.269,35.748 37.227,35.814 37.185,35.878 37.140,35.942 37.095,36.005 37.048,36.066 37.000,36.127 36.951,36.187 36.901,36.246 36.849,36.304 36.796,36.361 36.743,36.417 36.688,36.471 36.632,36.525 36.575,36.577 36.517,36.629 36.457,36.679 36.397,36.728 36.336,36.775 36.274,36.822 36.211,36.867 36.147,36.911 36.083,36.953 36.017,36.995 35.951,37.035 35.883,37.073 35.815,37.111 35.747,37.146 35.677,37.181 35.607,37.214 35.537,37.246 35.465,37.276 35.393,37.305 35.321,37.332 35.248,37.358 35.174,37.383 35.100,37.406 35.026,37.427 34.951,37.447 34.876,37.466 34.800,37.483 34.724,37.499 34.648,37.514 34.572,37.527 34.495,37.540 34.419,37.551 34.342,37.561 34.265,37.570 34.188,37.578 34.111,37.586 34.033,37.592 33.956,37.598 33.879,37.603 33.801,37.607 33.724,37.610 33.647,37.613 33.569,37.615 33.492,37.617 33.414,37.618 33.337,37.619 33.259,37.619 33.182,37.619 33.104,37.618 33.027,37.618 32.949,37.616 32.872,37.615 32.794,37.613 32.717,37.611 32.639,37.609 32.562,37.607 32.484,37.604 32.407,37.602 32.329,37.599 32.252,37.596 32.174,37.593 32.097,37.590 32.020,37.587 31.942,37.584 31.865,37.581 31.787,37.578 31.710,37.575 31.632,37.571 31.555,37.568 31.478,37.565 31.400,37.562 31.323,37.559 31.245,37.556 31.168,37.553 31.090,37.551 31.013,37.548 30.935,37.545 30.858,37.542 30.781,37.540 30.703,37.537 30.626,37.535 30.548,37.533 30.471,37.530 30.393,37.528 30.316,37.526 30.238,37.524 30.161,37.522 30.083,37.520 30.006,37.519 29.928,37.517 29.851,37.515 29.773,37.514 29.696,37.512 29.618,37.511 29.541,37.510 29.463,37.509 29.386,37.507 29.308,37.506 29.231,37.505 29.153,37.504 29.076,37.504 28.998,37.503 28.921,37.502 28.843,37.501 28.766,37.501 28.688,37.500 28.611,37.499 28.533,37.499 28.456,37.498 28.378,37.498 28.301,37.498 28.223,37.497 28.146,37.497 28.068,37.497 27.991,37.496 27.913,37.496 27.836,37.496 27.758,37.496 27.681,37.496 27.603,37.496 27.526,37.496 27.448,37.496 27.371,37.495 27.293,37.495 27.216,37.495 27.138,37.495 27.061,37.495 26.983,37.496 26.906,37.496 26.828,37.496 26.751,37.496 26.673,37.496 26.596,37.496 26.518,37.496 26.441,37.496 26.363,37.496 26.286,37.496 26.208,37.496 26.131,37.496 26.053,37.497 25.976,37.497 25.898,37.497 25.821,37.497 25.743,37.497 25.666,37.497 25.588,37.497 25.511,37.497 25.433,37.498 25.356,37.498 25.278,37.498 25.201,37.498 25.123,37.498 25.046,37.498 24.968,37.498 24.891,37.498 24.813,37.498 24.736,37.498 24.658,37.499 24.581,37.499 24.503,37.499 24.426,37.499 24.348,37.499 24.271,37.499 24.193,37.499 24.116,37.499 24.038,37.499 23.961,37.499 23.883,37.499 23.806,37.499 23.728,37.499 23.651,37.500 23.573,37.500 23.496,37.500 23.418,37.500 23.341,37.500 23.263,37.500 23.186,37.500 23.108,37.500 23.031,37.500 22.953,37.500 22.876,37.500 22.798,37.500 22.721,37.500 22.643,37.500 22.566,37.500 22.488,37.500 22.411,37.500 22.333,37.500 22.256,37.500 22.178,37.500 22.101,37.500 22.023,37.500 21.946,37.500 21.868,37.500 21.791,37.500 21.713,37.500 21.636,37.500 21.558,37.500 21.481,37.500 21.403,37.500 21.326,37.500 21.248,37.500 21.171,37.500 21.093,37.500 21.016,37.500 20.938,37.500 20.861,37.500 20.783,37.500 20.706,37.500 20.628,37.500 20.551,37.500 20.473,37.500 20.396,37.500 20.318,37.500 20.241,37.500 20.163,37.500 20.086,37.500 20.008,37.500 19.931,37.500 19.853,37.500 19.776,37.500 19.698,37.500 19.621,37.500 19.543,37.500 19.466,37.500 19.388,37.500 19.311,37.500 19.233,37.500 19.156,37.500 19.078,37.500 19.001,37.500 18.923,37.500 18.846,37.500 18.768,37.500 18.691,37.500 18.613,37.500 18.536,37.500 18.458,37.500 18.381,37.500 18.304,37.500 18.226,37.500 18.149,37.500 18.073,37.500 17.997,37.500 17.921,37.500 17.847,37.500 17.773,37.500 17.700,37.500 17.628,37.500 17.557,37.500 17.486,37.500 17.417,37.500 17.349,37.500 17.282,37.500 17.216,37.500 17.152,37.500 17.088,37.500 17.026,37.500 16.964,37.500 16.904,37.500 16.845,37.500 16.788,37.500 16.731,37.500 16.675,37.500 16.621,37.500 16.568,37.500 16.516,37.500 16.465,37.500 16.415,37.500 16.366,37.500 16.318,37.500 16.272,37.500 16.226,37.500 16.181,37.500 16.138,37.500 16.095,37.500 16.054,37.500 16.013,37.500 15.973,37.500 15.934,37.500 15.896,37.500 15.859,37.500 15.823,37.500 15.788,37.500 15.754,37.500 15.720,37.500 15.687,37.500 15.655,37.500 15.624,37.500 15.593,37.500 15.564,37.500 15.535,37.500 15.506,37.500 15.479,37.500 15.452,37.500 15.425,37.500 15.400,37.500 15.375,37.500 15.350,37.500 15.326,37.500 15.303,37.500 15.280,37.500 15.258,37.500 15.237,37.500 15.215,37.500 15.195,37.500 15.174,37.500 15.154,37.500 15.134,37.500 15.114,37.500 15.095,37.500 15.075,37.500 15.056,37.500 15.037,37.500 15.018,37.500 15.000,37.500 14.981,37.500 14.963,37.500 14.944,37.500"/>
<polyline fill="none" stroke="#ff7f0e" stroke-width="0.220" stroke-opacity="0.95" points="14.948,37.500 14.955,37.500 14.965,37.500 14.978,37.500 14.994,37.500 15.011,37.500 15.031,37.500 15.052,37.500 15.075,37.501 15.099,37.501 15.125,37.502 15.152,37.503 15.180,37.504 15.209,37.505 15.239,37.507 15.269,37.509 15.300,37.511 15.332,37.513 15.364,37.516 15.397,37.519 15.430,37.523 15.464,37.526 15.498,37.530 15.532,37.535 15.567,37.540 15.601,37.545 15.636,37.550 15.671,37.556 15.707,37.562 15.742,37.569 15.777,37.576 15.813,37.583 15.848,37.591 15.884,37.599 15.919,37.607 15.955,37.616 15.991,37.625 16.026,37.634 16.062,37.644 16.097,37.654 16.133,37.665 16.168,37.675 16.204,37.687 16.239,37.698 16.274,37.710 16.309,37.722 16.344,37.735 16.379,37.748 16.414,37.761 16.449,37.775 16.483,37.789 16.518,37.803 16.552,37.818 16.586,37.833 16.620,37.848 16.654,37.864 16.688,37.880 16.722,37.896 16.755,37.913 16.789,37.930 16.822,37.947 16.855,37.965 16.888,37.983 16.921,38.001 16.953,38.020 16.985,38.039 17.018,38.058 17.049,38.077 17.081,38.097 17.113,38.117 17.144,38.138 17.175,38.159 17.206,38.180 17.237,38.201 17.268,38.223 17.298,38.245 17.328,38.267 17.358,38.290 17.388,38.313 17.417,38.336 17.447,38.359 17.476,38.383 17.505,38.407 17.533,38.431 17.561,38.456 17.589,38.481 17.617,38.506 17.645,38.531 17.672,38.557 17.699,38.583 17.726,38.609 17.753,38.635 17.779,38.662 17.805,38.689 17.831,38.716 17.857,38.743 17.882,38.771 17.907,38.799 17.932,38.827 17.956,38.856 17.980,38.884 18.004,38.913 18.028,38.942 18.051,38.972 18.074,39.001 18.097,39.031 18.119,39.061 18.142,39.091 18.164,39.122 18.185,39.153 18.206,39.183 18.227,39.214 18.248,39.246 18.268,39.277 18.289,39.309 18.308,39.341 18.328,39.373 18.347,39.405 18.366,39.437 18.384,39.470 18.402,39.503 18.420,39.536 18.438,39.569 18.455,39.602 18.472,39.636 18.489,39.669 18.505,39.703 18.521,39.737 18.536,39.771 18.552,39.806 18.566,39.840 18.581,39.875 18.595,39.909 18.609,39.944 18.623,39.979 18.636,40.014 18.649,40.049 18.661,40.085 18.674,40.120 18.685,40.156 18.697,40.191 18.708,40.227 18.719,40.263 18.729,40.299 18.740,40.335 18.749,40.371 18.759,40.408 18.768,40.444 18.776,40.481 18.785,40.517 18.793,40.554 18.801,40.590 18.808,40.627 18.815,40.664 18.821,40.701 18.828,40.738 18.834,40.775 18.839,40.812 18.844,40.849 18.849,40.886 18.854,40.924 18.858,40.961 18.862,40.998 18.865,41.035 18.869,41.073 18.872,41.110 18.874,41.148 18.876,41.185 18.878,41.223 18.880,41.260 18.881,41.298 18.882,41.335 18.882,41.372 18.883,41.410 18.883,41.447 18.883,41.485 18.883,41.522 18.882,41.560 18.882,41.597 18.882,41.635 18.881,41.672 18.881,41.710 18.880,41.747 18.880,41.785 18.879,41.822 18.879,41.860 18.879,41.897 18.878,41.935 18.878,41.972 18.877,42.010 18.877,42.047 18.877,42.085 18.876,42.122 18.876,42.160 18.875,42.197 18.875,42.235 18.874,42.272 18.874,42.310 18.874,42.347 18.873,42.385 18.873,42.422 18.872,42.460 18.872,42.497 18.872,42.535 18.871,42.572 18.871,42.610 18.870,42.647 18.870,42.685 18.869,42.722 18.869,42.760 18.869,42.797 18.868,42.835 18.868,42.872 18.867,42.910 18.867,42.947 18.867,42.985 18.866,43.022 18.866,43.060 18.865,43.097 18.865,43.135 18.864,43.172 18.864,43.210 18.864,43.247 18.863,43.285 18.863,43.322 18.862,43.360 18.862,43.397 18.861,43.435 18.861,43.472 18.861,43.509 18.860,43.546 18.860,43.583 18.859,43.620 18.859,43.656 18.859,43.692 18.858,43.728 18.858,43.764 18.857,43.800 18.857,43.835 18.857,43.870 18.856,43.905 18.856,43.939 18.855,43.973 18.855,44.007 18.855,44.041 18.854,44.074 18.854,44.107 18.854,44.140 18.853,44.172 18.853,44.204 18.853,44.236 18.852,44.268 18.852,44.299 18.852,44.330 18.851,44.361 18.851,44.391 18.851,44.421 18.850,44.451 18.850,44.481 18.850,44.510 18.849,44.539 18.849,44.567 18.849,44.596 18.848,44.624 18.848,44.652 18.848,44.679 18.847,44.707 18.847,44.733 18.847,44.760 18.846,44.787 18.846,44.813 18.846,44.839 18.846,44.864 18.845,44.890 18.845,44.915 18.845,44.940 18.844,44.965 18.844,44.989 18.844,45.013 18.844,45.037 18.843,45.061 18.843,45.084 18.843,45.107 18.843,45.130 18.842,45.153 18.842,45.175 18.842,45.198 18.842,45.220 18.841,45.241 18.841,45.263 18.841,45.284 18.841,45.305 18.840,45.326 18.840,45.347 18.840,45.368 18.840,45.388 18.840,45.408 18.839,45.428 18.839,45.448 18.839,45.467 18.839,45.486 18.838,45.506 18.838,45.524 18.838,45.543 18.838,45.562 18.838,45.580 18.837,45.599 18.837,45.617 18.837,45.636 18.837,45.654 18.837,45.672 18.836,45.690 18.836,45.708 18.836,45.726 18.836,45.744 18.836,45.762 18.835,45.780 18.835,45.797 18.835,45.815 18.835,45.833 18.835,45.851 18.834,45.868 18.834,45.886 18.834,45.904 18.834,45.921 18.834,45.939 18.833,45.956 18.833,45.974 18.833,45.992 18.833,46.009 18.833,46.027 18.832,46.044 18.832,46.062 18.832,46.079 18.832,46.097 18.832,46.115 18.831,46.132 18.831,46.150 18.831,46.167 18.831,46.185 18.831,46.202 18.830,46.220 18.830,46.237 18.830,46.255 18.830,46.272 18.830,46.290 18.829,46.307 18.829,46.325 18.829,46.342 18.829,46.360 18.829,46.377 18.829,46.395 18.828,46.412 18.828,46.430 18.828,46.447 18.828,46.465 18.828,46.482 18.827,46.500 18.827,46.517 18.827,46.535 18.827,46.552 18.827,46.570 18.826,46.587 18.826,46.605 18.826,46.622 18.826,46.640 18.826,46.657 18.825,46.675 18.825,46.692 18.825,46.710 18.825,46.727 18.825,46.745 18.824,46.762 18.824,46.780 18.824,46.797 18.824,46.815 18.824,46.832 18.823,46.850 18.823,46.867 18.823,46.885 18.823,46.902 18.823,46.920 18.822,46.937 18.822,46.955 18.822,46.972 18.822,46.990 18.822,47.007 18.822,47.025 18.821,47.042 18.821,47.060 18.821,47.077 18.821,47.095 18.821,47.112 18.820,47.130 18.820,47.147 18.820,47.165 18.820,47.182 18.820,47.200 18.819,47.217 18.819,47.235 18.819,47.252"/>
<polygon fill="#1f77b4" fill-opacity="0.140" stroke="#1f77b4" stroke-opacity="0.55" stroke-width="0.07" points="6.408,13.000 6.408,11.000 1.608,11.000 1.608,13.000"/>
<polygon fill="#1f77b4" fill-opacity="0.140" stroke="#1f77b4" stroke-opacity="0.55" stroke-width="0.07" points="7.232,13.100 7.303,11.102 2.506,10.934 2.435,12.932"/>
<polygon fill="#1f77b4" fill-opacity="0.140" stroke="#1f77b4" stroke-opacity="0.55" stroke-width="0.07" points="8.546,13.153 8.617,11.154 3.820,10.982 3.749,12.981"/>
<polygon fill="#1f77b4" fill-opacity="0.140" stroke="#1f77b4" stroke-opacity="0.55" stroke-width="0.07" points="9.947,13.150 9.983,11.150 5.184,11.062 5.147,13.062"/>
<polygon fill="#1f77b4" fill-opacity="0.140" stroke="#1f77b4" stroke-opacity="0.55" stroke-width="0.07" points="11.353,13.134 11.363,11.134 6.564,11.110 6.553,13.110"/>
<polygon fill="#1f77b4" fill-opacity="0.140" stroke="#1f77b4" stroke-opacity="0.55" stroke-width="0.07" points="12.754,13.123 12.753,11.123 7.953,11.126 7.954,13.126"/>
<polygon fill="#1f77b4" fill-opacity="0.140" stroke="#1f77b4" stroke-opacity="0.55" stroke-width="0.07" points="14.150,13.119 14.147,11.119 9.347,11.126 9.350,13.126"/>
<polygon fill="#1f77b4" fill-opacity="0.140" stroke="#1f77b4" stroke-opacity="0.55" stroke-width="0.07" points="15.544,13.119 15.542,11.119 10.742,11.123 10.744,13.123"/>
<polygon fill="#1f77b4" fill-opacity="0.140" stroke="#1f77b4" stroke-opacity="0.55" stroke-width="0.07" points="16.938,13.119 16.938,11.119 12.138,11.121 12.138,13.121"/>
<polygon fill="#1f77b4" fill-opacity="0.140" stroke="#1f77b4" stroke-opacity="0.55" stroke-width="0.07" points="18.333,13.120 18.333,11.120 13.533,11.120 13.533,13.120"/>
<polygon fill="#1f77b4" fill-opacity="0.140" stroke="#1f77b4" stroke-opacity="0.55" stroke-width="0.07" points="19.728,13.120 19.728,11.120 14.928,11.120 14.928,13.120"/>
<polygon fill="#1f77b4" fill-opacity="0.140" stroke="#1f77b4" stroke-opacity="0.55" stroke-width="0.07" points="21.123,13.120 21.123,11.120 16.323,11.120 16.323,13.120"/>
<polygon fill="#1f77b4" fill-opacity="0.140" stroke="#1f77b4" stroke-opacity="0.55" stroke-width="0.07" points="22.518,13.120 22.518,11.120 17.718,11.120 17.718,13.120"/>
<polygon fill="#1f77b4" fill-opacity="0.140" stroke="#1f77b4" stroke-opacity="0.55" stroke-width="0.07" points="23.913,13.120 23.913,11.120 19.113,11.120 19.113,13.120"/>
<polygon fill="#1f77b4" fill-opacity="0.140" stroke="#1f77b4" stroke-opacity="0.55" stroke-width="0.07" points="25.308,13.120 25.308,11.120 20.508,11.120 20.508,13.120"/>
<polygon fill="#1f77b4" fill-opacity="0.140" stroke="#1f77b4" stroke-opacity="0.55" stroke-width="0.07" points="26.703,13.120 26.703,11.120 21.903,11.120 21.903,13.120"/>
<polygon fill="#1f77b4" fill-opacity="0.140" stroke="#1f77b4" stroke-opacity="0.55" stroke-width="0.07" points="28.098,13.120 28.098,11.120 23.298,11.120 23.298,13.120"/>
<polygon fill="#1f77b4" fill-opacity="0.140" stroke="#1f77b4" stroke-opacity="0.55" stroke-width="0.07" points="29.493,13.120 29.493,11.120 24.693,11.120 24.693,13.120"/>
<polygon fill="#1f77b4" fill-opacity="0.140" stroke="#1f77b4" stroke-opacity="0.55" stroke-width="0.07" points="30.888,13.120 30.888,11.120 26.088,11.120 26.088,13.120"/>
<polygon fill="#1f77b4" fill-opacity="0.140" stroke="#1f77b4" stroke-opacity="0.55" stroke-width="0.07" points="32.283,13.120 32.283,11.120 27.483,11.120 27.483,13.120"/>
<polygon fill="#1f77b4" fill-opacity="0.140" stroke="#1f77b4" stroke-opacity="0.55" stroke-width="0.07" points="33.678,13.120 33.678,11.120 28.878,11.120 28.878,13.120"/>
<polygon fill="#1f77b4" fill-opacity="0.140" stroke="#1f77b4" stroke-opacity="0.55" stroke-width="0.07" points="35.071,13.125 35.075,11.125 30.275,11.116 30.271,13.116"/>
<polygon fill="#1f77b4" fill-opacity="0.140" stroke="#1f77b4" stroke-opacity="0.55" stroke-width="0.07" points="36.359,13.393 36.552,11.402 31.775,10.939 31.582,12.930"/>
<polygon fill="#1f77b4" fill-opacity="0.140" stroke="#1f77b4" stroke-opacity="0.55" stroke-width="0.07" points="37.339,14.213 38.027,12.335 33.520,10.684 32.832,12.562"/>
<polygon fill="#1f77b4" fill-opacity="0.140" stroke="#1f77b4" stroke-opacity="0.55" stroke-width="0.07" points="37.834,15.437 39.120,13.906 35.445,10.819 34.159,12.350"/>
<polygon fill="#1f77b4" fill-opacity="0.140" stroke="#1f77b4" stroke-opacity="0.55" stroke-width="0.07" points="37.835,16.771 39.580,15.794 37.235,11.605 35.490,12.582"/>
<polygon fill="#1f77b4" fill-opacity="0.140" stroke="#1f77b4" stroke-opacity="0.55" stroke-width="0.07" points="37.412,18.028 39.384,17.696 38.587,12.963 36.615,13.295"/>
<polygon fill="#1f77b4" fill-opacity="0.140" stroke="#1f77b4" stroke-opacity="0.55" stroke-width="0.07" points="37.087,19.281 39.087,19.290 39.109,14.490 37.109,14.481"/>
<polygon fill="#1f77b4" fill-opacity="0.140" stroke="#1f77b4" stroke-opacity="0.55" stroke-width="0.07" points="36.964,20.638 38.962,20.718 39.153,15.921 37.154,15.842"/>
<polygon fill="#1f77b4" fill-opacity="0.140" stroke="#1f77b4" stroke-opacity="0.55" stroke-width="0.07" points="36.945,22.046 38.944,22.100 39.074,17.302 37.074,17.248"/>
<polygon fill="#1f77b4" fill-opacity="0.140" stroke="#1f77b4" stroke-opacity="0.55" stroke-width="0.07" points="36.959,23.458 38.959,23.479 39.008,18.679 37.008,18.659"/>
<polygon fill="#1f77b4" fill-opacity="0.140" stroke="#1f77b4" stroke-opacity="0.55" stroke-width="0.07" points="36.973,24.862 38.973,24.865 38.979,20.065 36.979,20.062"/>
<polygon fill="#1f77b4" fill-opacity="0.140" stroke="#1f77b4" stroke-opacity="0.55" stroke-width="0.07" points="36.980,26.260 38.980,26.257 38.973,21.457 36.973,21.460"/>
<polygon fill="#1f77b4" fill-opacity="0.140" stroke="#1f77b4" stroke-opacity="0.55" stroke-width="0.07" points="36.981,27.655 38.981,27.652 38.975,22.852 36.975,22.855"/>
<polygon fill="#1f77b4" fill-opacity="0.140" stroke="#1f77b4" stroke-opacity="0.55" stroke-width="0.07" points="36.981,29.049 38.981,29.048 38.978,24.248 36.978,24.249"/>
<polygon fill="#1f77b4" fill-opacity="0.140" stroke="#1f77b4" stroke-opacity="0.55" stroke-width="0.07" points="36.980,30.444 38.980,30.444 38.980,25.644 36.980,25.644"/>
<polygon fill="#1f77b4" fill-opacity="0.140" stroke="#1f77b4" stroke-opacity="0.55" stroke-width="0.07" points="36.980,31.839 38.980,31.839 38.980,27.039 36.980,27.039"/>
<polygon fill="#1f77b4" fill-opacity="0.140" stroke="#1f77b4" stroke-opacity="0.55" stroke-width="0.07" points="36.980,33.234 38.980,33.234 38.980,28.434 36.980,28.434"/>
<polygon fill="#1f77b4" fill-opacity="0.140" stroke="#1f77b4" stroke-opacity="0.55" stroke-width="0.07" points="36.974,34.626 38.974,34.631 38.985,29.831 36.986,29.826"/>
<polygon fill="#1f77b4" fill-opacity="0.140" stroke="#1f77b4" stroke-opacity="0.55" stroke-width="0.07" points="36.698,35.911 38.688,36.110 39.165,31.334 37.175,31.135"/>
<polygon fill="#1f77b4" fill-opacity="0.140" stroke="#1f77b4" stroke-opacity="0.55" stroke-width="0.07" points="35.860,36.877 37.732,37.581 39.421,33.088 37.549,32.384"/>
<polygon fill="#1f77b4" fill-opacity="0.140" stroke="#1f77b4" stroke-opacity="0.55" stroke-width="0.07" points="34.632,37.362 36.152,38.661 39.270,35.012 37.750,33.713"/>
<polygon fill="#1f77b4" fill-opacity="0.140" stroke="#1f77b4" stroke-opacity="0.55" stroke-width="0.07" points="33.298,37.351 34.260,39.104 38.469,36.796 37.506,35.042"/>
<polygon fill="#1f77b4" fill-opacity="0.140" stroke="#1f77b4" stroke-opacity="0.55" stroke-width="0.07" points="32.043,36.923 32.362,38.897 37.101,38.132 36.782,36.158"/>
<polygon fill="#1f77b4" fill-opacity="0.140" stroke="#1f77b4" stroke-opacity="0.55" stroke-width="0.07" points="30.789,36.602 30.775,38.602 35.575,38.636 35.588,36.636"/>
<polygon fill="#1f77b4" fill-opacity="0.140" stroke="#1f77b4" stroke-opacity="0.55" stroke-width="0.07" points="29.430,36.482 29.349,38.480 34.145,38.674 34.226,36.675"/>
<polygon fill="#1f77b4" fill-opacity="0.140" stroke="#1f77b4" stroke-opacity="0.55" stroke-width="0.07" points="28.021,36.464 27.967,38.464 32.766,38.592 32.819,36.593"/>
<polygon fill="#1f77b4" fill-opacity="0.140" stroke="#1f77b4" stroke-opacity="0.55" stroke-width="0.07" points="26.608,36.479 26.589,38.479 31.388,38.526 31.408,36.527"/>
<polygon fill="#1f77b4" fill-opacity="0.140" stroke="#1f77b4" stroke-opacity="0.55" stroke-width="0.07" points="25.205,36.493 25.202,38.493 30.002,38.498 30.005,36.498"/>
<polygon fill="#1f77b4" fill-opacity="0.140" stroke="#1f77b4" stroke-opacity="0.55" stroke-width="0.07" points="23.807,36.500 23.810,38.500 28.610,38.493 28.607,36.493"/>
<polygon fill="#1f77b4" fill-opacity="0.140" stroke="#1f77b4" stroke-opacity="0.55" stroke-width="0.07" points="22.412,36.501 22.415,38.501 27.215,38.495 27.212,36.495"/>
<polygon fill="#1f77b4" fill-opacity="0.140" stroke="#1f77b4" stroke-opacity="0.55" stroke-width="0.07" points="21.018,36.501 21.019,38.501 25.819,38.498 25.818,36.498"/>
<polygon fill="#1f77b4" fill-opacity="0.140" stroke="#1f77b4" stroke-opacity="0.55" stroke-width="0.07" points="19.623,36.500 19.624,38.500 24.424,38.500 24.423,36.500"/>
<polygon fill="#1f77b4" fill-opacity="0.140" stroke="#1f77b4" stroke-opacity="0.55" stroke-width="0.07" points="18.229,36.500 18.228,38.500 23.028,38.500 23.029,36.500"/>
<polygon fill="#1f77b4" fill-opacity="0.140" stroke="#1f77b4" stroke-opacity="0.55" stroke-width="0.07" points="16.834,36.500 16.833,38.500 21.633,38.500 21.634,36.500"/>
<polygon fill="#1f77b4" fill-opacity="0.140" stroke="#1f77b4" stroke-opacity="0.55" stroke-width="0.07" points="15.447,36.500 15.447,38.500 20.247,38.500 20.247,36.500"/>
<polygon fill="#1f77b4" fill-opacity="0.140" stroke="#1f77b4" stroke-opacity="0.55" stroke-width="0.07" points="14.275,36.500 14.275,38.500 19.075,38.500 19.075,36.500"/>
<polygon fill="#1f77b4" fill-opacity="0.140" stroke="#1f77b4" stroke-opacity="0.55" stroke-width="0.07" points="13.459,36.500 13.459,38.500 18.259,38.500 18.259,36.500"/>
<polygon fill="#1f77b4" fill-opacity="0.140" stroke="#1f77b4" stroke-opacity="0.55" stroke-width="0.07" points="12.926,36.500 12.926,38.500 17.726,38.500 17.726,36.500"/>
<polygon fill="#1f77b4" fill-opacity="0.140" stroke="#1f77b4" stroke-opacity="0.55" stroke-width="0.07" points="12.563,36.500 12.563,38.500 17.363,38.500 17.363,36.500"/>
<polygon fill="#1f77b4" fill-opacity="0.140" stroke="#1f77b4" stroke-opacity="0.55" stroke-width="0.07" points="12.544,36.500 12.544,38.500 17.344,38.500 17.344,36.500"/>
<polygon fill="#ff7f0e" fill-opacity="0.160" stroke="#ff7f0e" stroke-opacity="0.55" stroke-width="0.07" points="12.548,36.500 12.548,38.500 17.348,38.500 17.348,36.500"/>
<polygon fill="#ff7f0e" fill-opacity="0.160" stroke="#ff7f0e" stroke-opacity="0.55" stroke-width="0.07" points="13.069,36.295 12.881,38.286 17.660,38.737 17.848,36.746"/>
<polygon fill="#ff7f0e" fill-opacity="0.160" stroke="#ff7f0e" stroke-opacity="0.55" stroke-width="0.07" points="13.927,36.043 13.415,37.977 18.055,39.206 18.567,37.273"/>
<polygon fill="#ff7f0e" fill-opacity="0.160" stroke="#ff7f0e" stroke-opacity="0.55" stroke-width="0.07" points="14.861,35.934 14.022,37.750 18.380,39.762 19.219,37.946"/>
<polygon fill="#ff7f0e" fill-opacity="0.160" stroke="#ff7f0e" stroke-opacity="0.55" stroke-width="0.07" points="15.806,35.989 14.665,37.631 18.607,40.371 19.748,38.728"/>
<polygon fill="#ff7f0e" fill-opacity="0.160" stroke="#ff7f0e" stroke-opacity="0.55" stroke-width="0.07" points="16.729,36.208 15.319,37.626 18.724,41.010 20.133,39.591"/>
<polygon fill="#ff7f0e" fill-opacity="0.160" stroke="#ff7f0e" stroke-opacity="0.55" stroke-width="0.07" points="17.600,36.584 15.964,37.735 18.727,41.660 20.363,40.509"/>
<polygon fill="#ff7f0e" fill-opacity="0.160" stroke="#ff7f0e" stroke-opacity="0.55" stroke-width="0.07" points="18.391,37.106 16.581,37.955 18.618,42.301 20.429,41.452"/>
<polygon fill="#ff7f0e" fill-opacity="0.160" stroke="#ff7f0e" stroke-opacity="0.55" stroke-width="0.07" points="19.080,37.758 17.149,38.278 18.399,42.913 20.330,42.392"/>
<polygon fill="#ff7f0e" fill-opacity="0.160" stroke="#ff7f0e" stroke-opacity="0.55" stroke-width="0.07" points="19.631,38.515 17.640,38.703 18.093,43.482 20.084,43.293"/>
<polygon fill="#ff7f0e" fill-opacity="0.160" stroke="#ff7f0e" stroke-opacity="0.55" stroke-width="0.07" points="19.908,39.284 17.908,39.261 17.854,44.061 19.854,44.083"/>
<polygon fill="#ff7f0e" fill-opacity="0.160" stroke="#ff7f0e" stroke-opacity="0.55" stroke-width="0.07" points="19.900,39.959 17.900,39.936 17.847,44.736 19.847,44.758"/>
<polygon fill="#ff7f0e" fill-opacity="0.160" stroke="#ff7f0e" stroke-opacity="0.55" stroke-width="0.07" points="19.893,40.634 17.893,40.611 17.839,45.411 19.839,45.433"/>
<polygon fill="#ff7f0e" fill-opacity="0.160" stroke="#ff7f0e" stroke-opacity="0.55" stroke-width="0.07" points="19.885,41.304 17.885,41.281 17.832,46.081 19.832,46.103"/>
<polygon fill="#ff7f0e" fill-opacity="0.160" stroke="#ff7f0e" stroke-opacity="0.55" stroke-width="0.07" points="19.879,41.910 17.879,41.888 17.825,46.688 19.825,46.710"/>
<polygon fill="#ff7f0e" fill-opacity="0.160" stroke="#ff7f0e" stroke-opacity="0.55" stroke-width="0.07" points="19.873,42.424 17.873,42.402 17.819,47.202 19.819,47.224"/>
<polygon fill="#ff7f0e" fill-opacity="0.160" stroke="#ff7f0e" stroke-opacity="0.55" stroke-width="0.07" points="19.868,42.853 17.868,42.830 17.815,47.630 19.815,47.652"/>
<polygon fill="#ff7f0e" fill-opacity="0.160" stroke="#ff7f0e" stroke-opacity="0.55" stroke-width="0.07" points="19.864,43.210 17.864,43.188 17.811,47.988 19.811,48.010"/>
<polygon fill="#ff7f0e" fill-opacity="0.160" stroke="#ff7f0e" stroke-opacity="0.55" stroke-width="0.07" points="19.860,43.532 17.861,43.510 17.807,48.310 19.807,48.332"/>
<polygon fill="#ff7f0e" fill-opacity="0.160" stroke="#ff7f0e" stroke-opacity="0.55" stroke-width="0.07" points="19.857,43.849 17.857,43.826 17.804,48.626 19.803,48.648"/>
<polygon fill="#ff7f0e" fill-opacity="0.160" stroke="#ff7f0e" stroke-opacity="0.55" stroke-width="0.07" points="19.853,44.164 17.854,44.141 17.800,48.941 19.800,48.963"/>
<polygon fill="#ff7f0e" fill-opacity="0.160" stroke="#ff7f0e" stroke-opacity="0.55" stroke-width="0.07" points="19.850,44.479 17.850,44.456 17.797,49.256 19.796,49.278"/>
<polygon fill="#ff7f0e" fill-opacity="0.160" stroke="#ff7f0e" stroke-opacity="0.55" stroke-width="0.07" points="19.846,44.794 17.847,44.771 17.793,49.571 19.793,49.593"/>
<polygon fill="#ff7f0e" fill-opacity="0.160" stroke="#ff7f0e" stroke-opacity="0.55" stroke-width="0.07" points="19.846,44.864 17.846,44.841 17.792,49.641 19.792,49.663"/>
<polygon fill="none" stroke="crimson" stroke-width="0.120" points="19.846,44.864 17.846,44.841 17.792,49.641 19.792,49.663"/>
</g>
</svg>
