<?xml version="1.0" encoding="UTF-8"?>
<svg xmlns="http://www.w3.org/2000/svg" width="1400" height="900" viewBox="0 -3 75 53">
<rect x="0" y="-3" width="75" height="53" fill="white"/>
<text x="1.5" y="-1.35" font-size="1.15" fill="black">Parking | target row=3 idx=7 | success=true sim_ok=true | max_steer=35 deg | overshoot~=5 m | total(ref)~=6e+01 m</text>
<text x="1.5" y="-0.45" font-size="0.95" fill="black">ok</text>
<g transform="translate(0,50.000) scale(1,-1)">
<rect x="0" y="0" width="75.000" height="50.000" fill="none" stroke="black" stroke-width="0.15"/>
<rect x="0.000" y="9.000" width="75.000" height="6.000" fill="#add8e6" fill-opacity="0.25" stroke="#add8e6" stroke-width="0.08"/>
<rect x="0.000" y="34.500" width="75.000" height="6.000" fill="#add8e6" fill-opacity="0.25" stroke="#add8e6" stroke-width="0.08"/>
<rect x="60.000" y="12.000" width="6.000" height="25.500" fill="#90ee90" fill-opacity="0.25" stroke="#90ee90" stroke-width="0.08"/>
<rect x="12.000" y="44.000" width="4.800" height="6.000" fill="white" stroke="gray" stroke-width="0.080" fill-opacity="0.85"/>
<rect x="16.800" y="44.000" width="4.800" height="6.000" fill="white" stroke="gray" stroke-width="0.080" fill-opacity="0.85"/>
<rect x="21.600" y="44.000" width="4.800" height="6.000" fill="black" stroke="gray" stroke-width="0.080" fill-opacity="0.95"/>
<rect x="26.400" y="44.000" width="4.800" height="6.000" fill="black" stroke="gray" stroke-width="0.080" fill-opacity="0.95"/>
<rect x="31.200" y="44.000" width="4.800" height="6.000" fill="white" stroke="gray" stroke-width="0.080" fill-opacity="0.85"/>
<rect x="36.000" y="44.000" width="4.800" height="6.000" fill="white" stroke="gray" stroke-width="0.080" fill-opacity="0.85"/>
<rect x="40.800" y="44.000" width="4.800" height="6.000" fill="white" stroke="gray" stroke-width="0.080" fill-opacity="0.85"/>
<rect x="45.600" y="44.000" width="4.800" height="6.000" fill="white" stroke="gray" stroke-width="0.080" fill-opacity="0.85"/>
<rect x="50.400" y="44.000" width="4.800" height="6.000" fill="black" stroke="gray" stroke-width="0.080" fill-opacity="0.95"/>
<rect x="55.200" y="44.000" width="4.800" height="6.000" fill="white" stroke="gray" stroke-width="0.080" fill-opacity="0.85"/>
<rect x="12.000" y="25.000" width="4.800" height="6.000" fill="black" stroke="gray" stroke-width="0.080" fill-opacity="0.95"/>
<rect x="16.800" y="25.000" width="4.800" height="6.000" fill="black" stroke="gray" stroke-width="0.080" fill-opacity="0.95"/>
<rect x="21.600" y="25.000" width="4.800" height="6.000" fill="black" stroke="gray" stroke-width="0.080" fill-opacity="0.95"/>
<rect x="26.400" y="25.000" width="4.800" height="6.000" fill="white" stroke="gray" stroke-width="0.080" fill-opacity="0.85"/>
<rect x="31.200" y="25.000" width="4.800" height="6.000" fill="white" stroke="gray" stroke-width="0.080" fill-opacity="0.85"/>
<rect x="36.000" y="25.000" width="4.800" height="6.000" fill="black" stroke="gray" stroke-width="0.080" fill-opacity="0.95"/>
<rect x="40.800" y="25.000" width="4.800" height="6.000" fill="white" stroke="gray" stroke-width="0.080" fill-opacity="0.85"/>
<rect x="45.600" y="25.000" width="4.800" height="6.000" fill="black" stroke="gray" stroke-width="0.080" fill-opacity="0.95"/>
<rect x="50.400" y="25.000" width="4.800" height="6.000" fill="white" stroke="gray" stroke-width="0.080" fill-opacity="0.85"/>
<rect x="55.200" y="25.000" width="4.800" height="6.000" fill="white" stroke="gray" stroke-width="0.080" fill-opacity="0.85"/>
<rect x="12.000" y="19.000" width="4.800" height="6.000" fill="white" stroke="gray" stroke-width="0.080" fill-opacity="0.85"/>
<rect x="16.800" y="19.000" width="4.800" height="6.000" fill="white" stroke="gray" stroke-width="0.080" fill-opacity="0.85"/>
<rect x="21.600" y="19.000" width="4.800" height="6.000" fill="white" stroke="gray" stroke-width="0.080" fill-opacity="0.85"/>
<rect x="26.400" y="19.000" width="4.800" height="6.000" fill="white" stroke="gray" stroke-width="0.080" fill-opacity="0.85"/>
<rect x="31.200" y="19.000" width="4.800" height="6.000" fill="black" stroke="gray" stroke-width="0.080" fill-opacity="0.95"/>
<rect x="36.000" y="19.000" width="4.800" height="6.000" fill="white" stroke="gray" stroke-width="0.080" fill-opacity="0.85"/>
<rect x="40.800" y="19.000" width="4.800" height="6.000" fill="white" stroke="gray" stroke-width="0.080" fill-opacity="0.85"/>
<rect x="45.600" y="19.000" width="4.800" height="6.000" fill="white" stroke="gray" stroke-width="0.080" fill-opacity="0.85"/>
<rect x="50.400" y="19.000" width="4.800" height="6.000" fill="black" stroke="gray" stroke-width="0.080" fill-opacity="0.95"/>
<rect x="55.200" y="19.000" width="4.800" height="6.000" fill="white" stroke="gray" stroke-width="0.080" fill-opacity="0.85"/>
<rect x="12.000" y="0.000" width="4.800" height="6.000" fill="white" stroke="gray" stroke-width="0.080" fill-opacity="0.85"/>
<rect x="16.800" y="0.000" width="4.800" height="6.000" fill="white" stroke="gray" stroke-width="0.080" fill-opacity="0.85"/>
<rect x="21.600" y="0.000" width="4.800" height="6.000" fill="black" stroke="gray" stroke-width="0.080" fill-opacity="0.95"/>
<rect x="26.400" y="0.000" width="4.800" height="6.000" fill="white" stroke="gray" stroke-width="0.080" fill-opacity="0.85"/>
<rect x="31.200" y="0.000" width="4.800" height="6.000" fill="black" stroke="gray" stroke-width="0.080" fill-opacity="0.95"/>
<rect x="36.000" y="0.000" width="4.800" height="6.000" fill="white" stroke="gray" stroke-width="0.080" fill-opacity="0.85"/>
<rect x="40.800" y="0.000" width="4.800" height="6.000" fill="black" stroke="gray" stroke-width="0.080" fill-opacity="0.95"/>
<rect x="45.600" y="0.000" width="4.800" height="6.000" fill="#98fb98" stroke="darkgreen" stroke-width="0.180" fill-opacity="0.85"/>
<rect x="50.400" y="0.000" width="4.800" height="6.000" fill="white" stroke="gray" stroke-width="0.080" fill-opacity="0.85"/>
<rect x="55.200" y="0.000" width="4.800" height="6.000" fill="white" stroke="gray" stroke-width="0.080" fill-opacity="0.85"/>
<polygon fill="none" stroke="navy" stroke-width="0.120" points="6.400,13.000 6.400,11.000 1.600,11.000 1.600,13.000"/>
<polygon fill="purple" points="45.220,12.000 45.500,12.350 45.780,12.000 45.500,11.650"/>
<circle cx="52.800" cy="12.000" r="0.38" fill="darkviolet" stroke="indigo" stroke-width="0.06"/>
<polyline fill="none" stroke="#808080" stroke-width="0.120" stroke-opacity="0.65" stroke-dasharray="0.45 0.35" points="4.000,12.000 45.500,12.000 52.800,12.000"/>
<polyline fill="none" stroke="#808080" stroke-width="0.120" stroke-opacity="0.65" stroke-dasharray="0.45 0.35" points="52.800,12.000 52.800,11.835 52.792,11.667 52.777,11.496 52.754,11.323 52.724,11.146 52.687,10.968 52.644,10.786 52.594,10.603 52.538,10.417 52.476,10.230 52.408,10.041 52.334,9.850 52.256,9.658 52.172,9.464 52.083,9.269 51.989,9.073 51.891,8.877 51.789,8.679 51.683,8.481 51.573,8.283 51.460,8.084 51.343,7.885 51.223,7.686 51.100,7.487 50.975,7.289 50.847,7.091 50.717,6.893 50.585,6.697 50.451,6.501 50.316,6.306 50.179,6.113 50.042,5.921 49.903,5.730 49.764,5.541 49.624,5.354 49.485,5.168 49.345,4.985 49.206,4.804 49.067,4.625 48.929,4.449 48.791,4.276 48.655,4.105 48.520,3.938 48.387,3.773 48.256,3.612 48.127,3.454 48.000,3.300"/>
<polyline fill="none" stroke="#1f77b4" stroke-width="0.220" stroke-opacity="0.95" points="4.008,12.000 4.022,12.000 4.043,12.000 4.070,12.000 4.102,12.000 4.138,12.000 4.179,12.000 4.223,12.000 4.270,12.000 4.321,12.000 4.374,12.000 4.429,12.000 4.487,12.000 4.547,12.000 4.609,12.000 4.672,12.000 4.736,12.000 4.802,12.000 4.869,12.000 4.937,12.000 5.006,12.000 5.076,12.000 5.147,12.000 5.218,12.000 5.290,12.000 5.363,12.000 5.436,12.000 5.509,12.000 5.583,12.000 5.657,12.000 5.732,12.000 5.806,12.000 5.882,12.000 5.957,12.000 6.032,12.000 6.108,12.000 6.184,12.000 6.260,12.000 6.336,12.000 6.413,12.000 6.489,12.000 6.566,12.000 6.643,12.000 6.719,12.000 6.796,12.000 6.873,12.000 6.950,12.000 7.027,12.000 7.104,12.000 7.181,12.000 7.258,12.000 7.335,12.000 7.413,12.000 7.490,12.000 7.567,12.000 7.644,12.000 7.722,12.000 7.799,12.000 7.876,12.000 7.954,12.000 8.031,12.000 8.109,12.000 8.186,12.000 8.263,12.000 8.341,12.000 8.418,12.000 8.496,12.000 8.573,12.000 8.650,12.000 8.728,12.000 8.805,12.000 8.883,12.000 8.960,12.000 9.038,12.000 9.115,12.000 9.193,12.000 9.270,12.000 9.348,12.000 9.425,12.000 9.503,12.000 9.580,12.000 9.658,12.000 9.735,12.000 9.813,12.000 9.890,12.000 9.968,12.000 10.045,12.000 10.123,12.000 10.200,12.000 10.278,12.000 10.355,12.000 10.433,12.000 10.510,12.000 10.588,12.000 10.665,12.000 10.743,12.000 10.820,12.000 10.898,12.000 10.975,12.000 11.053,12.000 11.130,12.000 11.208,12.000 11.285,12.000 11.363,12.000 11.440,12.000 11.518,12.000 11.595,12.000 11.673,12.000 11.750,12.000 11.828,12.000 11.905,12.000 11.983,12.000 12.060,12.000 12.138,12.000 12.215,12.000 12.293,12.000 12.370,12.000 12.448,12.000 12.525,12.000 12.603,12.000 12.680,12.000 12.758,12.000 12.835,12.000 12.913,12.000 12.990,12.000 13.068,12.000 13.145,12.000 13.223,12.000 13.300,12.000 13.378,12.000 13.455,12.000 13.533,12.000 13.610,12.000 13.688,12.000 13.765,12.000 13.843,12.000 13.920,12.000 13.998,12.000 14.075,12.000 14.153,12.000 14.230,12.000 14.308,12.000 14.385,12.000 14.463,12.000 14.540,12.000 14.618,12.000 14.695,12.000 14.773,12.000 14.850,12.000 14.928,12.000 15.005,12.000 15.083,12.000 15.160,12.000 15.238,12.000 15.315,12.000 15.393,12.000 15.470,12.000 15.548,12.000 15.625,12.000 15.703,12.000 15.780,12.000 15.858,12.000 15.935,12.000 16.013,12.000 16.090,12.000 16.168,12.000 16.245,12.000 16.323,12.000 16.400,12.000 16.478,12.000 16.555,12.000 16.633,12.000 16.710,12.000 16.788,12.000 16.865,12.000 16.943,12.000 17.020,12.000 17.098,12.000 17.175,12.000 17.253,12.000 17.330,12.000 17.408,12.000 17.485,12.000 17.563,12.000 17.640,12.000 17.718,12.000 17.795,12.000 17.873,12.000 17.950,12.000 18.028,12.000 18.105,12.000 18.183,12.000 18.260,12.000 18.338,12.000 18.415,12.000 18.493,12.000 18.570,12.000 18.648,12.000 18.725,12.000 18.803,12.000 18.880,12.000 18.958,12.000 19.035,12.000 19.113,12.000 19.190,12.000 19.268,12.000 19.345,12.000 19.423,12.000 19.500,12.000 19.578,12.000 19.655,12.000 19.733,12.000 19.810,12.000 19.888,12.000 19.965,12.000 20.043,12.000 20.120,12.000 20.198,12.000 20.275,12.000 20.353,12.000 20.430,12.000 20.508,12.000 20.585,12.000 20.663,12.000 20.740,12.000 20.818,12.000 20.895,12.000 20.973,12.000 21.050,12.000 21.128,12.000 21.205,12.000 21.283,12.000 21.360,12.000 21.438,12.000 21.515,12.000 21.593,12.000 21.670,12.000 21.748,12.000 21.825,12.000 21.903,12.000 21.980,12.000 22.058,12.000 22.135,12.000 22.213,12.000 22.290,12.000 22.368,12.000 22.445,12.000 22.523,12.000 22.600,12.000 22.678,12.000 22.755,12.000 22.833,12.000 22.910,12.000 22.988,12.000 23.065,12.000 23.143,12.000 23.220,12.000 23.298,12.000 23.375,12.000 23.453,12.000 23.530,12.000 23.608,12.000 23.685,12.000 23.763,12.000 23.840,12.000 23.918,12.000 23.995,12.000 24.073,12.000 24.150,12.000 24.228,12.000 24.305,12.000 24.383,12.000 24.460,12.000 24.538,12.000 24.615,12.000 24.693,12.000 24.770,12.000 24.848,12.000 24.925,12.000 25.003,12.000 25.080,12.000 25.158,12.000 25.235,12.000 25.313,12.000 25.390,12.000 25.468,12.000 25.545,12.000 25.623,12.000 25.700,12.000 25.778,12.000 25.855,12.000 25.933,12.000 26.010,12.000 26.088,12.000 26.165,12.000 26.243,12.000 26.320,12.000 26.398,12.000 26.475,12.000 26.553,12.000 26.630,12.000 26.708,12.000 26.785,12.000 26.863,12.000 26.940,12.000 27.018,12.000 27.095,12.000 27.173,12.000 27.250,12.000 27.328,12.000 27.405,12.000 27.483,12.000 27.560,12.000 27.638,12.000 27.715,12.000 27.793,12.000 27.870,12.000 27.948,12.000 28.025,12.000 28.103,12.000 28.180,12.000 28.258,12.000 28.335,12.000 28.413,12.000 28.490,12.000 28.568,12.000 28.645,12.000 28.723,12.000 28.800,12.000 28.878,12.000 28.955,12.000 29.033,12.000 29.110,12.000 29.188,12.000 29.265,12.000 29.343,12.000 29.420,12.000 29.498,12.000 29.575,12.000 29.653,12.000 29.730,12.000 29.808,12.000 29.885,12.000 29.963,12.000 30.040,12.000 30.118,12.000 30.195,12.000 30.273,12.000 30.350,12.000 30.428,12.000 30.505,12.000 30.583,12.000 30.660,12.000 30.738,12.000 30.815,12.000 30.893,12.000 30.970,12.000 31.048,12.000 31.125,12.000 31.203,12.000 31.280,12.000 31.358,12.000 31.435,12.000 31.513,12.000 31.590,12.000 31.668,12.000 31.745,12.000 31.823,12.000 31.900,12.000 31.978,12.000 32.055,12.000 32.133,12.000 32.210,12.000 32.288,12.000 32.365,12.000 32.443,12.000 32.520,12.000 32.598,12.000 32.675,12.000 32.753,12.000 32.830,12.000 32.908,12.000 32.985,12.000 33.063,12.000 33.140,12.000 33.218,12.000 33.295,12.000 33.373,12.000 33.450,12.000 33.528,12.000 33.605,12.000 33.683,12.000 33.760,12.000 33.838,12.000 33.915,12.000 33.993,12.000 34.070,12.000 34.148,12.000 34.225,12.000 34.303,12.000 34.380,12.000 34.458,12.000 34.535,12.000 34.613,12.000 34.690,12.000 34.768,12.000 34.845,12.000 34.923,12.000 35.000,12.000 35.078,12.000 35.155,12.000 35.233,12.000 35.310,12.000 35.388,12.000 35.465,12.000 35.543,12.000 35.620,12.000 35.698,12.000 35.775,12.000 35.853,12.000 35.930,12.000 36.008,12.000 36.085,12.000 36.163,12.000 36.240,12.000 36.318,12.000 36.395,12.000 36.473,12.000 36.550,12.000 36.628,12.000 36.705,12.000 36.783,12.000 36.860,12.000 36.938,12.000 37.015,12.000 37.093,12.000 37.170,12.000 37.248,12.000 37.325,12.000 37.403,12.000 37.480,12.000 37.558,12.000 37.635,12.000 37.713,12.000 37.790,12.000 37.868,12.000 37.945,12.000 38.023,12.000 38.100,12.000 38.178,12.000 38.255,12.000 38.333,12.000 38.410,12.000 38.488,12.000 38.565,12.000 38.643,12.000 38.720,12.000 38.798,12.000 38.875,12.000 38.953,12.000 39.030,12.000 39.108,12.000 39.185,12.000 39.263,12.000 39.340,12.000 39.418,12.000 39.495,12.000 39.573,12.000 39.650,12.000 39.728,12.000 39.805,12.000 39.883,12.000 39.960,12.000 40.038,12.000 40.115,12.000 40.193,12.000 40.270,12.000 40.348,12.000 40.425,12.000 40.503,12.000 40.580,12.000 40.658,12.000 40.735,12.000 40.813,12.000 40.890,12.000 40.968,12.000 41.045,12.000 41.123,12.000 41.200,12.000 41.278,12.000 41.355,12.000 41.433,12.000 41.510,12.000 41.588,12.000 41.665,12.000 41.743,12.000 41.820,12.000 41.898,12.000 41.975,12.000 42.053,12.000 42.130,12.000 42.208,12.000 42.285,12.000 42.363,12.000 42.440,12.000 42.518,12.000 42.595,12.000 42.673,12.000 42.750,12.000 42.828,12.000 42.905,12.000 42.983,12.000 43.060,12.000 43.138,12.000 43.215,12.000 43.293,12.000 43.370,12.000 43.448,12.000 43.525,12.000 43.603,12.000 43.680,12.000 43.758,12.000 43.835,12.000 43.913,12.000 43.990,12.000 44.068,12.000 44.145,12.000 44.223,12.000 44.300,12.000 44.378,12.000 44.455,12.000 44.533,12.000 44.610,12.000 44.688,12.000 44.765,12.000 44.843,12.000 44.920,12.000 44.998,12.000 45.075,12.000 45.153,12.000 45.230,12.000 45.308,12.000 45.385,12.000 45.463,12.000 45.540,12.000 45.618,12.000 45.695,12.000 45.773,12.000 45.850,12.000 45.928,12.000 46.005,12.000 46.083,12.000 46.160,12.000 46.238,12.000 46.315,12.000 46.393,12.000 46.470,12.000 46.548,12.000 46.625,12.000 46.703,12.000 46.780,12.000 46.858,12.000 46.935,12.000 47.013,12.000 47.090,12.000 47.168,12.000 47.245,12.000 47.323,12.000 47.400,12.000 47.478,12.000 47.555,12.000 47.633,12.000 47.710,12.000 47.788,12.000 47.865,12.000 47.943,12.000 48.020,12.000 48.098,12.000 48.175,12.000 48.253,12.000 48.330,12.000 48.408,12.000 48.485,12.000 48.563,12.000 48.640,12.000 48.718,12.000 48.795,12.000 48.873,12.000 48.950,12.000 49.027,12.000 49.104,12.000 49.180,12.000 49.255,12.000 49.330,12.000 49.404,12.000 49.478,12.000 49.550,12.000 49.622,12.000 49.692,12.000 49.761,12.000 49.830,12.000 49.897,12.000 49.963,12.000 50.028,12.000 50.092,12.000 50.155,12.000 50.217,12.000 50.277,12.000 50.337,12.000 50.395,12.000 50.452,12.000 50.508,12.000 50.562,12.000 50.616,12.000 50.668,12.000 50.720,12.000 50.770,12.000 50.819,12.000 50.867,12.000 50.914,12.000 50.960,12.000 51.005,12.000 51.049,12.000 51.092,12.000 51.134,12.000 51.175,12.000 51.215,12.000 51.254,12.000 51.292,12.000 51.329,12.000 51.366,12.000 51.401,12.000 51.436,12.000 51.470,12.000 51.503,12.000 51.535,12.000 51.567,12.000 51.597,12.000 51.627,12.000 51.657,12.000 51.685,12.000 51.713,12.000 51.740,12.000 51.767,12.000 51.792,12.000 51.818,12.000 51.842,12.000 51.866,12.000 51.890,12.000 51.913,12.000 51.935,12.000 51.957,12.000 51.978,12.000 51.999,12.000 52.020,12.000 52.040,12.000 52.060,12.000 52.080,12.000 52.099,12.000 52.119,12.000 52.138,12.000 52.157,12.000 52.176,12.000 52.195,12.000 52.213,12.000 52.232,12.000 52.250,12.000"/>
<polyline fill="none" stroke="#ff7f0e" stroke-width="0.220" stroke-opacity="0.95" points="52.246,12.000 52.239,12.000 52.229,12.000 52.216,12.000 52.201,12.000 52.183,12.000 52.164,12.000 52.142,12.000 52.119,11.999 52.095,11.999 52.069,11.998 52.042,11.997 52.014,11.996 51.985,11.995 51.956,11.993 51.925,11.991 51.894,11.989 51.862,11.987 51.830,11.984 51.797,11.981 51.764,11.977 51.730,11.974 51.696,11.970 51.662,11.965 51.628,11.960 51.593,11.955 51.558,11.950 51.523,11.944 51.488,11.938 51.453,11.931 51.417,11.924 51.382,11.917 51.346,11.909 51.311,11.901 51.275,11.893 51.239,11.884 51.204,11.875 51.168,11.866 51.133,11.856 51.097,11.846 51.062,11.835 51.026,11.825 50.991,11.813 50.956,11.802 50.920,11.790 50.885,11.778 50.850,11.765 50.815,11.752 50.780,11.739 50.746,11.725 50.711,11.711 50.677,11.697 50.642,11.682 50.608,11.667 50.574,11.652 50.540,11.636 50.506,11.620 50.472,11.604 50.439,11.587 50.406,11.570 50.372,11.553 50.339,11.535 50.307,11.517 50.274,11.499 50.241,11.480 50.209,11.461 50.177,11.442 50.145,11.423 50.113,11.403 50.082,11.383 50.050,11.362 50.019,11.341 49.988,11.320 49.957,11.299 49.927,11.277 49.896,11.255 49.866,11.233 49.836,11.210 49.806,11.187 49.777,11.164 49.748,11.141 49.719,11.117 49.690,11.093 49.661,11.069 49.633,11.044 49.605,11.019 49.577,10.994 49.549,10.969 49.522,10.943 49.495,10.917 49.468,10.891 49.442,10.865 49.415,10.838 49.389,10.811 49.363,10.784 49.338,10.757 49.312,10.729 49.287,10.701 49.263,10.673 49.238,10.644 49.214,10.616 49.190,10.587 49.167,10.558 49.143,10.528 49.120,10.499 49.097,10.469 49.075,10.439 49.053,10.409 49.031,10.378 49.009,10.347 48.988,10.317 48.967,10.286 48.946,10.254 48.926,10.223 48.906,10.191 48.886,10.159 48.867,10.127 48.847,10.095 48.829,10.063 48.810,10.030 48.792,9.997 48.774,9.964 48.756,9.931 48.739,9.898 48.722,9.864 48.706,9.831 48.689,9.797 48.673,9.763 48.658,9.729 48.642,9.695 48.627,9.660 48.612,9.626 48.598,9.591 48.584,9.557 48.570,9.522 48.556,9.487 48.543,9.452 48.530,9.416 48.518,9.381 48.505,9.346 48.494,9.310 48.482,9.275 48.471,9.239 48.460,9.203 48.449,9.167 48.439,9.131 48.428,9.095 48.419,9.059 48.409,9.022 48.400,8.986 48.391,8.949 48.383,8.913 48.375,8.876 48.367,8.840 48.359,8.803 48.352,8.766 48.345,8.729 48.338,8.693 48.332,8.656 48.326,8.619 48.320,8.581 48.314,8.544 48.309,8.507 48.304,8.470 48.300,8.433 48.295,8.396 48.291,8.358 48.287,8.321 48.284,8.284 48.281,8.246 48.278,8.209 48.275,8.172 48.273,8.134 48.271,8.097 48.270,8.059 48.268,8.022 48.267,7.984 48.266,7.947 48.265,7.909 48.265,7.872 48.265,7.834 48.265,7.797 48.265,7.759 48.265,7.722 48.265,7.684 48.265,7.647 48.265,7.609 48.265,7.572 48.265,7.534 48.266,7.497 48.266,7.459 48.266,7.422 48.266,7.384 48.266,7.347 48.266,7.309 48.266,7.272 48.266,7.234 48.267,7.197 48.267,7.159 48.267,7.122 48.267,7.085 48.267,7.048 48.267,7.011 48.267,6.975 48.267,6.938 48.268,6.902 48.268,6.866 48.268,6.831 48.268,6.795 48.268,6.760 48.268,6.725 48.268,6.690 48.268,6.656 48.268,6.622 48.269,6.588 48.269,6.555 48.269,6.521 48.269,6.488 48.269,6.456 48.269,6.423 48.269,6.391 48.269,6.360 48.269,6.328 48.270,6.297 48.270,6.266 48.270,6.236 48.270,6.205 48.270,6.175 48.270,6.146 48.270,6.116 48.270,6.087 48.270,6.058 48.270,6.030 48.270,6.001 48.271,5.973 48.271,5.946 48.271,5.918 48.271,5.891 48.271,5.864 48.271,5.838 48.271,5.811 48.271,5.785 48.271,5.759 48.271,5.734 48.271,5.709 48.272,5.684 48.272,5.659 48.272,5.634 48.272,5.610 48.272,5.586 48.272,5.562 48.272,5.539 48.272,5.515 48.272,5.492 48.272,5.469 48.272,5.447 48.272,5.424 48.272,5.402 48.273,5.380 48.273,5.359 48.273,5.337 48.273,5.316 48.273,5.295 48.273,5.274 48.273,5.254 48.273,5.233 48.273,5.213 48.273,5.193 48.273,5.173 48.273,5.154 48.273,5.134 48.273,5.115 48.273,5.096 48.274,5.077 48.274,5.059 48.274,5.040 48.274,5.021 48.274,5.003 48.274,4.985 48.274,4.967 48.274,4.948 48.274,4.930 48.274,4.912 48.274,4.894 48.274,4.876 48.274,4.858 48.274,4.841 48.274,4.823 48.274,4.805 48.274,4.787 48.275,4.770 48.275,4.752 48.275,4.734 48.275,4.717 48.275,4.699 48.275,4.681 48.275,4.664 48.275,4.646 48.275,4.628 48.275,4.611 48.275,4.593 48.275,4.576 48.275,4.558 48.275,4.541 48.275,4.523 48.275,4.505 48.275,4.488 48.276,4.470 48.276,4.453 48.276,4.435 48.276,4.418 48.276,4.400 48.276,4.383 48.276,4.365 48.276,4.348 48.276,4.330 48.276,4.313 48.276,4.295 48.276,4.278 48.276,4.260 48.276,4.243 48.276,4.225 48.276,4.208 48.276,4.190 48.277,4.173 48.277,4.155 48.277,4.138 48.277,4.120 48.277,4.103 48.277,4.085 48.277,4.068 48.277,4.050 48.277,4.033 48.277,4.015 48.277,3.998 48.277,3.980 48.277,3.963 48.277,3.945 48.277,3.928 48.277,3.910 48.277,3.893 48.278,3.875 48.278,3.858 48.278,3.840 48.278,3.823 48.278,3.805 48.278,3.788 48.278,3.770 48.278,3.753 48.278,3.735 48.278,3.718 48.278,3.700 48.278,3.683 48.278,3.665 48.278,3.648 48.278,3.630 48.278,3.613 48.278,3.595 48.278,3.578 48.279,3.560 48.279,3.543 48.279,3.525 48.279,3.508 48.279,3.490 48.279,3.473 48.279,3.455 48.279,3.438 48.279,3.420 48.279,3.403 48.279,3.385 48.279,3.368 48.279,3.350 48.279,3.333"/>
<polygon fill="#1f77b4" fill-opacity="0.140" stroke="#1f77b4" stroke-opacity="0.55" stroke-width="0.07" points="6.408,13.000 6.408,11.000 1.608,11.000 1.608,13.000"/>
<polygon fill="#1f77b4" fill-opacity="0.140" stroke="#1f77b4" stroke-opacity="0.55" stroke-width="0.07" points="7.269,13.000 7.269,11.000 2.469,11.000 2.469,13.000"/>
<polygon fill="#1f77b4" fill-opacity="0.140" stroke="#1f77b4" stroke-opacity="0.55" stroke-width="0.07" points="8.584,13.000 8.584,11.000 3.784,11.000 3.784,13.000"/>
<polygon fill="#1f77b4" fill-opacity="0.140" stroke="#1f77b4" stroke-opacity="0.55" stroke-width="0.07" points="9.967,13.000 9.967,11.000 5.167,11.000 5.167,13.000"/>
<polygon fill="#1f77b4" fill-opacity="0.140" stroke="#1f77b4" stroke-opacity="0.55" stroke-width="0.07" points="11.360,13.000 11.360,11.000 6.560,11.000 6.560,13.000"/>
<polygon fill="#1f77b4" fill-opacity="0.140" stroke="#1f77b4" stroke-opacity="0.55" stroke-width="0.07" points="12.755,13.000 12.755,11.000 7.955,11.000 7.955,13.000"/>
<polygon fill="#1f77b4" fill-opacity="0.140" stroke="#1f77b4" stroke-opacity="0.55" stroke-width="0.07" points="14.150,13.000 14.150,11.000 9.350,11.000 9.350,13.000"/>
<polygon fill="#1f77b4" fill-opacity="0.140" stroke="#1f77b4" stroke-opacity="0.55" stroke-width="0.07" points="15.545,13.000 15.545,11.000 10.745,11.000 10.745,13.000"/>
<polygon fill="#1f77b4" fill-opacity="0.140" stroke="#1f77b4" stroke-opacity="0.55" stroke-width="0.07" points="16.940,13.000 16.940,11.000 12.140,11.000 12.140,13.000"/>
<polygon fill="#1f77b4" fill-opacity="0.140" stroke="#1f77b4" stroke-opacity="0.55" stroke-width="0.07" points="18.335,13.000 18.335,11.000 13.535,11.000 13.535,13.000"/>
<polygon fill="#1f77b4" fill-opacity="0.140" stroke="#1f77b4" stroke-opacity="0.55" stroke-width="0.07" points="19.730,13.000 19.730,11.000 14.930,11.000 14.930,13.000"/>
<polygon fill="#1f77b4" fill-opacity="0.140" stroke="#1f77b4" stroke-opacity="0.55" stroke-width="0.07" points="21.125,13.000 21.125,11.000 16.325,11.000 16.325,13.000"/>
<polygon fill="#1f77b4" fill-opacity="0.140" stroke="#1f77b4" stroke-opacity="0.55" stroke-width="0.07" points="22.520,13.000 22.520,11.000 17.720,11.000 17.720,13.000"/>
<polygon fill="#1f77b4" fill-opacity="0.140" stroke="#1f77b4" stroke-opacity="0.55" stroke-width="0.07" points="23.915,13.000 23.915,11.000 19.115,11.000 19.115,13.000"/>
<polygon fill="#1f77b4" fill-opacity="0.140" stroke="#1f77b4" stroke-opacity="0.55" stroke-width="0.07" points="25.310,13.000 25.310,11.000 20.510,11.000 20.510,13.000"/>
<polygon fill="#1f77b4" fill-opacity="0.140" stroke="#1f77b4" stroke-opacity="0.55" stroke-width="0.07" points="26.705,13.000 26.705,11.000 21.905,11.000 21.905,13.000"/>
<polygon fill="#1f77b4" fill-opacity="0.140" stroke="#1f77b4" stroke-opacity="0.55" stroke-width="0.07" points="28.100,13.000 28.100,11.000 23.300,11.000 23.300,13.000"/>
<polygon fill="#1f77b4" fill-opacity="0.140" stroke="#1f77b4" stroke-opacity="0.55" stroke-width="0.07" points="29.495,13.000 29.495,11.000 24.695,11.000 24.695,13.000"/>
<polygon fill="#1f77b4" fill-opacity="0.140" stroke="#1f77b4" stroke-opacity="0.55" stroke-width="0.07" points="30.890,13.000 30.890,11.000 26.090,11.000 26.090,13.000"/>
<polygon fill="#1f77b4" fill-opacity="0.140" stroke="#1f77b4" stroke-opacity="0.55" stroke-width="0.07" points="32.285,13.000 32.285,11.000 27.485,11.000 27.485,13.000"/>
<polygon fill="#1f77b4" fill-opacity="0.140" stroke="#1f77b4" stroke-opacity="0.55" stroke-width="0.07" points="33.680,13.000 33.680,11.000 28.880,11.000 28.880,13.000"/>
<polygon fill="#1f77b4" fill-opacity="0.140" stroke="#1f77b4" stroke-opacity="0.55" stroke-width="0.07" points="35.075,13.000 35.075,11.000 30.275,11.000 30.275,13.000"/>
<polygon fill="#1f77b4" fill-opacity="0.140" stroke="#1f77b4" stroke-opacity="0.55" stroke-width="0.07" points="36.470,13.000 36.470,11.000 31.670,11.000 31.670,13.000"/>
<polygon fill="#1f77b4" fill-opacity="0.140" stroke="#1f77b4" stroke-opacity="0.55" stroke-width="0.07" points="37.865,13.000 37.865,11.000 33.065,11.000 33.065,13.000"/>
<polygon fill="#1f77b4" fill-opacity="0.140" stroke="#1f77b4" stroke-opacity="0.55" stroke-width="0.07" points="39.260,13.000 39.260,11.000 34.460,11.000 34.460,13.000"/>
<polygon fill="#1f77b4" fill-opacity="0.140" stroke="#1f77b4" stroke-opacity="0.55" stroke-width="0.07" points="40.655,13.000 40.655,11.000 35.855,11.000 35.855,13.000"/>
<polygon fill="#1f77b4" fill-opacity="0.140" stroke="#1f77b4" stroke-opacity="0.55" stroke-width="0.07" points="42.050,13.000 42.050,11.000 37.250,11.000 37.250,13.000"/>
<polygon fill="#1f77b4" fill-opacity="0.140" stroke="#1f77b4" stroke-opacity="0.55" stroke-width="0.07" points="43.445,13.000 43.445,11.000 38.645,11.000 38.645,13.000"/>
<polygon fill="#1f77b4" fill-opacity="0.140" stroke="#1f77b4" stroke-opacity="0.55" stroke-width="0.07" points="44.840,13.000 44.840,11.000 40.040,11.000 40.040,13.000"/>
<polygon fill="#1f77b4" fill-opacity="0.140" stroke="#1f77b4" stroke-opacity="0.55" stroke-width="0.07" points="46.235,13.000 46.235,11.000 41.435,11.000 41.435,13.000"/>
<polygon fill="#1f77b4" fill-opacity="0.140" stroke="#1f77b4" stroke-opacity="0.55" stroke-width="0.07" points="47.630,13.000 47.630,11.000 42.830,11.000 42.830,13.000"/>
<polygon fill="#1f77b4" fill-opacity="0.140" stroke="#1f77b4" stroke-opacity="0.55" stroke-width="0.07" points="49.025,13.000 49.025,11.000 44.225,11.000 44.225,13.000"/>
<polygon fill="#1f77b4" fill-opacity="0.140" stroke="#1f77b4" stroke-opacity="0.55" stroke-width="0.07" points="50.420,13.000 50.420,11.000 45.620,11.000 45.620,13.000"/>
<polygon fill="#1f77b4" fill-opacity="0.140" stroke="#1f77b4" stroke-opacity="0.55" stroke-width="0.07" points="51.804,13.000 51.804,11.000 47.004,11.000 47.004,13.000"/>
<polygon fill="#1f77b4" fill-opacity="0.140" stroke="#1f77b4" stroke-opacity="0.55" stroke-width="0.07" points="52.962,13.000 52.962,11.000 48.162,11.000 48.162,13.000"/>
<polygon fill="#1f77b4" fill-opacity="0.140" stroke="#1f77b4" stroke-opacity="0.55" stroke-width="0.07" points="53.766,13.000 53.766,11.000 48.966,11.000 48.966,13.000"/>
<polygon fill="#1f77b4" fill-opacity="0.140" stroke="#1f77b4" stroke-opacity="0.55" stroke-width="0.07" points="54.290,13.000 54.290,11.000 49.490,11.000 49.490,13.000"/>
<polygon fill="#1f77b4" fill-opacity="0.140" stroke="#1f77b4" stroke-opacity="0.55" stroke-width="0.07" points="54.650,13.000 54.650,11.000 49.850,11.000 49.850,13.000"/>
<polygon fill="#1f77b4" fill-opacity="0.140" stroke="#1f77b4" stroke-opacity="0.55" stroke-width="0.07" points="54.650,13.000 54.650,11.000 49.850,11.000 49.850,13.000"/>
<polygon fill="#ff7f0e" fill-opacity="0.160" stroke="#ff7f0e" stroke-opacity="0.55" stroke-width="0.07" points="54.646,13.000 54.646,11.000 49.846,11.000 49.846,13.000"/>
<polygon fill="#ff7f0e" fill-opacity="0.160" stroke="#ff7f0e" stroke-opacity="0.55" stroke-width="0.07" points="54.126,13.205 54.313,11.214 49.534,10.763 49.347,12.754"/>
<polygon fill="#ff7f0e" fill-opacity="0.160" stroke="#ff7f0e" stroke-opacity="0.55" stroke-width="0.07" points="53.268,13.457 53.780,11.523 49.140,10.294 48.628,12.227"/>
<polygon fill="#ff7f0e" fill-opacity="0.160" stroke="#ff7f0e" stroke-opacity="0.55" stroke-width="0.07" points="52.334,13.566 53.172,11.750 48.814,9.738 47.976,11.554"/>
<polygon fill="#ff7f0e" fill-opacity="0.160" stroke="#ff7f0e" stroke-opacity="0.55" stroke-width="0.07" points="51.388,13.511 52.529,11.869 48.588,9.129 47.446,10.772"/>
<polygon fill="#ff7f0e" fill-opacity="0.160" stroke="#ff7f0e" stroke-opacity="0.55" stroke-width="0.07" points="50.465,13.292 51.875,11.874 48.471,8.490 47.061,9.909"/>
<polygon fill="#ff7f0e" fill-opacity="0.160" stroke="#ff7f0e" stroke-opacity="0.55" stroke-width="0.07" points="49.595,12.916 51.230,11.765 48.467,7.840 46.832,8.991"/>
<polygon fill="#ff7f0e" fill-opacity="0.160" stroke="#ff7f0e" stroke-opacity="0.55" stroke-width="0.07" points="48.810,12.394 50.619,11.540 48.568,7.200 46.760,8.054"/>
<polygon fill="#ff7f0e" fill-opacity="0.160" stroke="#ff7f0e" stroke-opacity="0.55" stroke-width="0.07" points="48.152,11.750 50.074,11.196 48.746,6.584 46.824,7.138"/>
<polygon fill="#ff7f0e" fill-opacity="0.160" stroke="#ff7f0e" stroke-opacity="0.55" stroke-width="0.07" points="47.631,11.017 49.614,10.756 48.987,5.997 47.004,6.259"/>
<polygon fill="#ff7f0e" fill-opacity="0.160" stroke="#ff7f0e" stroke-opacity="0.55" stroke-width="0.07" points="47.271,10.237 49.271,10.232 49.259,5.432 47.259,5.437"/>
<polygon fill="#ff7f0e" fill-opacity="0.160" stroke="#ff7f0e" stroke-opacity="0.55" stroke-width="0.07" points="47.259,9.556 49.259,9.563 49.275,4.763 47.275,4.756"/>
<polygon fill="#ff7f0e" fill-opacity="0.160" stroke="#ff7f0e" stroke-opacity="0.55" stroke-width="0.07" points="47.261,8.918 49.261,8.925 49.277,4.125 47.277,4.118"/>
<polygon fill="#ff7f0e" fill-opacity="0.160" stroke="#ff7f0e" stroke-opacity="0.55" stroke-width="0.07" points="47.263,8.370 49.263,8.377 49.278,3.577 47.279,3.570"/>
<polygon fill="#ff7f0e" fill-opacity="0.160" stroke="#ff7f0e" stroke-opacity="0.55" stroke-width="0.07" points="47.264,7.912 49.264,7.919 49.280,3.119 47.280,3.112"/>
<polygon fill="#ff7f0e" fill-opacity="0.160" stroke="#ff7f0e" stroke-opacity="0.55" stroke-width="0.07" points="47.265,7.531 49.265,7.538 49.281,2.738 47.281,2.731"/>
<polygon fill="#ff7f0e" fill-opacity="0.160" stroke="#ff7f0e" stroke-opacity="0.55" stroke-width="0.07" points="47.267,7.202 49.267,7.208 49.282,2.408 47.282,2.402"/>
<polygon fill="#ff7f0e" fill-opacity="0.160" stroke="#ff7f0e" stroke-opacity="0.55" stroke-width="0.07" points="47.268,6.885 49.268,6.891 49.283,2.091 47.283,2.085"/>
<polygon fill="#ff7f0e" fill-opacity="0.160" stroke="#ff7f0e" stroke-opacity="0.55" stroke-width="0.07" points="47.269,6.569 49.269,6.576 49.284,1.776 47.284,1.769"/>
<polygon fill="#ff7f0e" fill-opacity="0.160" stroke="#ff7f0e" stroke-opacity="0.55" stroke-width="0.07" points="47.270,6.254 49.270,6.261 49.285,1.461 47.285,1.454"/>
<polygon fill="#ff7f0e" fill-opacity="0.160" stroke="#ff7f0e" stroke-opacity="0.55" stroke-width="0.07" points="47.271,5.939 49.271,5.946 49.286,1.146 47.287,1.139"/>
<polygon fill="#ff7f0e" fill-opacity="0.160" stroke="#ff7f0e" stroke-opacity="0.55" stroke-width="0.07" points="47.271,5.729 49.271,5.736 49.287,0.936 47.287,0.929"/>
<polygon fill="none" stroke="crimson" stroke-width="0.120" points="47.271,5.729 49.271,5.736 49.287,0.936 47.287,0.929"/>
</g>
</svg>
