<?xml version="1.0" encoding="UTF-8"?>
<svg xmlns="http://www.w3.org/2000/svg" width="1400" height="900" viewBox="0 -3 75 53">
<rect x="0" y="-3" width="75" height="53" fill="white"/>
<text x="1.5" y="-1.35" font-size="1.15" fill="black">Parking | target row=1 idx=6 | success=true sim_ok=true | max_steer=35 deg | overshoot~=5 m | total(ref)~=1e+02 m</text>
<text x="1.5" y="-0.45" font-size="0.95" fill="black">ok</text>
<g transform="translate(0,50.000) scale(1,-1)">
<rect x="0" y="0" width="75.000" height="50.000" fill="none" stroke="black" stroke-width="0.15"/>
<rect x="0.000" y="9.000" width="75.000" height="6.000" fill="#add8e6" fill-opacity="0.25" stroke="#add8e6" stroke-width="0.08"/>
<rect x="0.000" y="34.500" width="75.000" height="6.000" fill="#add8e6" fill-opacity="0.25" stroke="#add8e6" stroke-width="0.08"/>
<rect x="60.000" y="12.000" width="6.000" height="25.500" fill="#90ee90" fill-opacity="0.25" stroke="#90ee90" stroke-width="0.08"/>
<rect x="12.000" y="44.000" width="4.800" height="6.000" fill="white" stroke="gray" stroke-width="0.080" fill-opacity="0.85"/>
<rect x="16.800" y="44.000" width="4.800" height="6.000" fill="white" stroke="gray" stroke-width="0.080" fill-opacity="0.85"/>
<rect x="21.600" y="44.000" width="4.800" height="6.000" fill="black" stroke="gray" stroke-width="0.080" fill-opacity="0.95"/>
<rect x="26.400" y="44.000" width="4.800" height="6.000" fill="black" stroke="gray" stroke-width="0.080" fill-opacity="0.95"/>
<rect x="31.200" y="44.000" width="4.800" height="6.000" fill="white" stroke="gray" stroke-width="0.080" fill-opacity="0.85"/>
<rect x="36.000" y="44.000" width="4.800" height="6.000" fill="white" stroke="gray" stroke-width="0.080" fill-opacity="0.85"/>
<rect x="40.800" y="44.000" width="4.800" height="6.000" fill="white" stroke="gray" stroke-width="0.080" fill-opacity="0.85"/>
<rect x="45.600" y="44.000" width="4.800" height="6.000" fill="white" stroke="gray" stroke-width="0.080" fill-opacity="0.85"/>
<rect x="50.400" y="44.000" width="4.800" height="6.000" fill="black" stroke="gray" stroke-width="0.080" fill-opacity="0.95"/>
<rect x="55.200" y="44.000" width="4.800" height="6.000" fill="white" stroke="gray" stroke-width="0.080" fill-opacity="0.85"/>
<rect x="12.000" y="25.000" width="4.800" height="6.000" fill="black" stroke="gray" stroke-width="0.080" fill-opacity="0.95"/>
<rect x="16.800" y="25.000" width="4.800" height="6.000" fill="black" stroke="gray" stroke-width="0.080" fill-opacity="0.95"/>
<rect x="21.600" y="25.000" width="4.800" height="6.000" fill="black" stroke="gray" stroke-width="0.080" fill-opacity="0.95"/>
<rect x="26.400" y="25.000" width="4.800" height="6.000" fill="white" stroke="gray" stroke-width="0.080" fill-opacity="0.85"/>
<rect x="31.200" y="25.000" width="4.800" height="6.000" fill="white" stroke="gray" stroke-width="0.080" fill-opacity="0.85"/>
<rect x="36.000" y="25.000" width="4.800" height="6.000" fill="black" stroke="gray" stroke-width="0.080" fill-opacity="0.95"/>
<rect x="40.800" y="25.000" width="4.800" height="6.000" fill="#98fb98" stroke="darkgreen" stroke-width="0.180" fill-opacity="0.85"/>
<rect x="45.600" y="25.000" width="4.800" height="6.000" fill="black" stroke="gray" stroke-width="0.080" fill-opacity="0.95"/>
<rect x="50.400" y="25.000" width="4.800" height="6.000" fill="white" stroke="gray" stroke-width="0.080" fill-opacity="0.85"/>
<rect x="55.200" y="25.000" width="4.800" height="6.000" fill="white" stroke="gray" stroke-width="0.080" fill-opacity="0.85"/>
<rect x="12.000" y="19.000" width="4.800" height="6.000" fill="white" stroke="gray" stroke-width="0.080" fill-opacity="0.85"/>
<rect x="16.800" y="19.000" width="4.800" height="6.000" fill="white" stroke="gray" stroke-width="0.080" fill-opacity="0.85"/>
<rect x="21.600" y="19.000" width="4.800" height="6.000" fill="white" stroke="gray" stroke-width="0.080" fill-opacity="0.85"/>
<rect x="26.400" y="19.000" width="4.800" height="6.000" fill="white" stroke="gray" stroke-width="0.080" fill-opacity="0.85"/>
<rect x="31.200" y="19.000" width="4.800" height="6.000" fill="black" stroke="gray" stroke-width="0.080" fill-opacity="0.95"/>
<rect x="36.000" y="19.000" width="4.800" height="6.000" fill="white" stroke="gray" stroke-width="0.080" fill-opacity="0.85"/>
<rect x="40.800" y="19.000" width="4.800" height="6.000" fill="white" stroke="gray" stroke-width="0.080" fill-opacity="0.85"/>
<rect x="45.600" y="19.000" width="4.800" height="6.000" fill="white" stroke="gray" stroke-width="0.080" fill-opacity="0.85"/>
<rect x="50.400" y="19.000" width="4.800" height="6.000" fill="black" stroke="gray" stroke-width="0.080" fill-opacity="0.95"/>
<rect x="55.200" y="19.000" width="4.800" height="6.000" fill="white" stroke="gray" stroke-width="0.080" fill-opacity="0.85"/>
<rect x="12.000" y="0.000" width="4.800" height="6.000" fill="white" stroke="gray" stroke-width="0.080" fill-opacity="0.85"/>
<rect x="16.800" y="0.000" width="4.800" height="6.000" fill="white" stroke="gray" stroke-width="0.080" fill-opacity="0.85"/>
<rect x="21.600" y="0.000" width="4.800" height="6.000" fill="black" stroke="gray" stroke-width="0.080" fill-opacity="0.95"/>
<rect x="26.400" y="0.000" width="4.800" height="6.000" fill="white" stroke="gray" stroke-width="0.080" fill-opacity="0.85"/>
<rect x="31.200" y="0.000" width="4.800" height="6.000" fill="black" stroke="gray" stroke-width="0.080" fill-opacity="0.95"/>
<rect x="36.000" y="0.000" width="4.800" height="6.000" fill="white" stroke="gray" stroke-width="0.080" fill-opacity="0.85"/>
<rect x="40.800" y="0.000" width="4.800" height="6.000" fill="black" stroke="gray" stroke-width="0.080" fill-opacity="0.95"/>
<rect x="45.600" y="0.000" width="4.800" height="6.000" fill="white" stroke="gray" stroke-width="0.080" fill-opacity="0.85"/>
<rect x="50.400" y="0.000" width="4.800" height="6.000" fill="white" stroke="gray" stroke-width="0.080" fill-opacity="0.85"/>
<rect x="55.200" y="0.000" width="4.800" height="6.000" fill="white" stroke="gray" stroke-width="0.080" fill-opacity="0.85"/>
<polygon fill="none" stroke="navy" stroke-width="0.120" points="6.400,13.000 6.400,11.000 1.600,11.000 1.600,13.000"/>
<polygon fill="purple" points="45.420,37.500 45.700,37.850 45.980,37.500 45.700,37.150"/>
<circle cx="38.400" cy="37.500" r="0.38" fill="darkviolet" stroke="indigo" stroke-width="0.06"/>
<polyline fill="none" stroke="#808080" stroke-width="0.120" stroke-opacity="0.65" stroke-dasharray="0.45 0.35" points="4.000,12.000 4.000,12.120 58.124,12.120 58.307,12.124 58.491,12.137 58.673,12.159 58.854,12.190 59.033,12.229 59.210,12.276 59.385,12.332 59.557,12.396 59.726,12.468 59.891,12.549 60.052,12.637 60.209,12.732 60.361,12.835 60.508,12.945 60.649,13.062 60.785,13.185 60.915,13.315 61.038,13.451 61.155,13.592 61.265,13.739 61.368,13.891 61.463,14.048 61.551,14.209 61.632,14.374 61.704,14.543 61.768,14.715 61.824,14.890 61.871,15.067 61.910,15.246 61.941,15.427 61.963,15.609 61.976,15.793 61.980,15.976 61.980,33.644 61.976,33.827 61.963,34.011 61.941,34.193 61.910,34.374 61.871,34.553 61.824,34.730 61.768,34.905 61.704,35.077 61.632,35.246 61.551,35.411 61.463,35.572 61.368,35.729 61.265,35.881 61.155,36.028 61.038,36.169 60.915,36.305 60.785,36.435 60.649,36.558 60.508,36.675 60.361,36.785 60.209,36.888 60.052,36.983 59.891,37.071 59.726,37.152 59.557,37.224 59.385,37.288 59.210,37.344 59.033,37.391 58.854,37.430 58.673,37.461 58.491,37.483 58.307,37.496 58.124,37.500 45.700,37.500 38.400,37.500"/>
<polyline fill="none" stroke="#808080" stroke-width="0.120" stroke-opacity="0.65" stroke-dasharray="0.45 0.35" points="38.400,37.500 38.574,37.341 38.744,37.177 38.910,37.009 39.073,36.838 39.232,36.662 39.387,36.483 39.538,36.301 39.687,36.115 39.831,35.926 39.972,35.735 40.110,35.541 40.244,35.344 40.376,35.145 40.503,34.944 40.628,34.740 40.749,34.536 40.868,34.329 40.983,34.121 41.095,33.912 41.205,33.702 41.311,33.491 41.414,33.279 41.515,33.067 41.613,32.854 41.708,32.642 41.800,32.429 41.890,32.217 41.977,32.005 42.061,31.794 42.144,31.583 42.223,31.374 42.300,31.165 42.375,30.958 42.448,30.752 42.518,30.548 42.586,30.346 42.652,30.146 42.715,29.949 42.777,29.753 42.836,29.561 42.894,29.371 42.950,29.184 43.003,29.000 43.055,28.820 43.105,28.643 43.153,28.469 43.200,28.300"/>
<polyline fill="none" stroke="#1f77b4" stroke-width="0.220" stroke-opacity="0.95" points="4.008,12.000 4.022,12.000 4.043,12.000 4.070,12.000 4.102,12.000 4.138,12.000 4.179,12.001 4.223,12.001 4.270,12.002 4.321,12.003 4.374,12.003 4.429,12.005 4.487,12.006 4.547,12.007 4.609,12.009 4.672,12.011 4.736,12.013 4.802,12.015 4.869,12.017 4.937,12.019 5.006,12.022 5.076,12.024 5.146,12.027 5.218,12.030 5.290,12.033 5.362,12.035 5.435,12.038 5.508,12.041 5.582,12.044 5.656,12.047 5.731,12.050 5.806,12.053 5.881,12.056 5.956,12.059 6.031,12.062 6.107,12.065 6.183,12.068 6.259,12.071 6.335,12.073 6.411,12.076 6.488,12.079 6.564,12.081 6.641,12.083 6.718,12.086 6.795,12.088 6.871,12.090 6.948,12.092 7.025,12.095 7.102,12.096 7.179,12.098 7.257,12.100 7.334,12.102 7.411,12.104 7.488,12.105 7.565,12.107 7.643,12.108 7.720,12.109 7.797,12.111 7.875,12.112 7.952,12.113 8.029,12.114 8.107,12.115 8.184,12.116 8.261,12.117 8.339,12.118 8.416,12.118 8.494,12.119 8.571,12.120 8.649,12.120 8.726,12.121 8.804,12.121 8.881,12.122 8.958,12.122 9.036,12.123 9.113,12.123 9.191,12.123 9.268,12.123 9.346,12.124 9.423,12.124 9.501,12.124 9.578,12.124 9.656,12.124 9.733,12.124 9.811,12.124 9.888,12.125 9.966,12.125 10.043,12.125 10.121,12.125 10.198,12.125 10.276,12.125 10.353,12.124 10.431,12.124 10.508,12.124 10.586,12.124 10.663,12.124 10.741,12.124 10.818,12.124 10.896,12.124 10.973,12.124 11.051,12.124 11.128,12.124 11.206,12.124 11.283,12.123 11.361,12.123 11.438,12.123 11.516,12.123 11.593,12.123 11.671,12.123 11.748,12.123 11.826,12.123 11.903,12.122 11.981,12.122 12.058,12.122 12.136,12.122 12.213,12.122 12.291,12.122 12.368,12.122 12.446,12.122 12.523,12.122 12.601,12.121 12.678,12.121 12.756,12.121 12.833,12.121 12.911,12.121 12.988,12.121 13.066,12.121 13.143,12.121 13.221,12.121 13.298,12.121 13.376,12.121 13.453,12.121 13.531,12.121 13.608,12.120 13.686,12.120 13.763,12.120 13.841,12.120 13.918,12.120 13.996,12.120 14.073,12.120 14.151,12.120 14.228,12.120 14.306,12.120 14.383,12.120 14.461,12.120 14.538,12.120 14.616,12.120 14.693,12.120 14.771,12.120 14.848,12.120 14.926,12.120 15.003,12.120 15.081,12.120 15.158,12.120 15.236,12.120 15.313,12.120 15.391,12.120 15.468,12.120 15.546,12.120 15.623,12.120 15.701,12.120 15.778,12.120 15.856,12.120 15.933,12.120 16.011,12.120 16.088,12.120 16.166,12.120 16.243,12.120 16.321,12.120 16.398,12.120 16.476,12.120 16.553,12.120 16.631,12.120 16.708,12.120 16.786,12.120 16.863,12.120 16.941,12.120 17.018,12.120 17.096,12.120 17.173,12.120 17.251,12.120 17.328,12.120 17.406,12.120 17.483,12.120 17.561,12.120 17.638,12.120 17.716,12.120 17.793,12.120 17.871,12.120 17.948,12.120 18.026,12.120 18.103,12.120 18.181,12.120 18.258,12.120 18.336,12.120 18.413,12.120 18.491,12.120 18.568,12.120 18.646,12.120 18.723,12.120 18.801,12.120 18.878,12.120 18.956,12.120 19.033,12.120 19.111,12.120 19.188,12.120 19.266,12.120 19.343,12.120 19.421,12.120 19.498,12.120 19.576,12.120 19.653,12.120 19.731,12.120 19.808,12.120 19.886,12.120 19.963,12.120 20.041,12.120 20.118,12.120 20.196,12.120 20.273,12.120 20.351,12.120 20.428,12.120 20.506,12.120 20.583,12.120 20.661,12.120 20.738,12.120 20.816,12.120 20.893,12.120 20.971,12.120 21.048,12.120 21.126,12.120 21.203,12.120 21.281,12.120 21.358,12.120 21.436,12.120 21.513,12.120 21.591,12.120 21.668,12.120 21.746,12.120 21.823,12.120 21.901,12.120 21.978,12.120 22.056,12.120 22.133,12.120 22.211,12.120 22.288,12.120 22.366,12.120 22.443,12.120 22.521,12.120 22.598,12.120 22.676,12.120 22.753,12.120 22.831,12.120 22.908,12.120 22.986,12.120 23.063,12.120 23.141,12.120 23.218,12.120 23.296,12.120 23.373,12.120 23.451,12.120 23.528,12.120 23.606,12.120 23.683,12.120 23.761,12.120 23.838,12.120 23.916,12.120 23.993,12.120 24.071,12.120 24.148,12.120 24.226,12.120 24.303,12.120 24.381,12.120 24.458,12.120 24.536,12.120 24.613,12.120 24.691,12.120 24.768,12.120 24.846,12.120 24.923,12.120 25.001,12.120 25.078,12.120 25.156,12.120 25.233,12.120 25.311,12.120 25.388,12.120 25.466,12.120 25.543,12.120 25.621,12.120 25.698,12.120 25.776,12.120 25.853,12.120 25.931,12.120 26.008,12.120 26.086,12.120 26.163,12.120 26.241,12.120 26.318,12.120 26.396,12.120 26.473,12.120 26.551,12.120 26.628,12.120 26.706,12.120 26.783,12.120 26.861,12.120 26.938,12.120 27.016,12.120 27.093,12.120 27.171,12.120 27.248,12.120 27.326,12.120 27.403,12.120 27.481,12.120 27.558,12.120 27.636,12.120 27.713,12.120 27.791,12.120 27.868,12.120 27.946,12.120 28.023,12.120 28.101,12.120 28.178,12.120 28.256,12.120 28.333,12.120 28.411,12.120 28.488,12.120 28.566,12.120 28.643,12.120 28.721,12.120 28.798,12.120 28.876,12.120 28.953,12.120 29.031,12.120 29.108,12.120 29.186,12.120 29.263,12.120 29.341,12.120 29.418,12.120 29.496,12.120 29.573,12.120 29.651,12.120 29.728,12.120 29.806,12.120 29.883,12.120 29.961,12.120 30.038,12.120 30.116,12.120 30.193,12.120 30.271,12.120 30.348,12.120 30.426,12.120 30.503,12.120 30.581,12.120 30.658,12.120 30.736,12.120 30.813,12.120 30.891,12.120 30.968,12.120 31.046,12.120 31.123,12.120 31.201,12.120 31.278,12.120 31.356,12.120 31.433,12.120 31.511,12.120 31.588,12.120 31.666,12.120 31.743,12.120 31.821,12.120 31.898,12.120 31.976,12.120 32.053,12.120 32.131,12.120 32.208,12.120 32.286,12.120 32.363,12.120 32.441,12.120 32.518,12.120 32.596,12.120 32.673,12.120 32.751,12.120 32.828,12.120 32.906,12.120 32.983,12.120 33.061,12.120 33.138,12.120 33.216,12.120 33.293,12.120 33.371,12.120 33.448,12.120 33.526,12.120 33.603,12.120 33.681,12.120 33.758,12.120 33.836,12.120 33.913,12.120 33.991,12.120 34.068,12.120 34.146,12.120 34.223,12.120 34.301,12.120 34.378,12.120 34.456,12.120 34.533,12.120 34.611,12.120 34.688,12.120 34.766,12.120 34.843,12.120 34.921,12.120 34.998,12.120 35.076,12.120 35.153,12.120 35.231,12.120 35.308,12.120 35.386,12.120 35.463,12.120 35.541,12.120 35.618,12.120 35.696,12.120 35.773,12.120 35.851,12.120 35.928,12.120 36.006,12.120 36.083,12.120 36.161,12.120 36.238,12.120 36.316,12.120 36.393,12.120 36.471,12.120 36.548,12.120 36.626,12.120 36.703,12.120 36.781,12.120 36.858,12.120 36.936,12.120 37.013,12.120 37.091,12.120 37.168,12.120 37.246,12.120 37.323,12.120 37.401,12.120 37.478,12.120 37.556,12.120 37.633,12.120 37.711,12.120 37.788,12.120 37.866,12.120 37.943,12.120 38.021,12.120 38.098,12.120 38.176,12.120 38.253,12.120 38.331,12.120 38.408,12.120 38.486,12.120 38.563,12.120 38.641,12.120 38.718,12.120 38.796,12.120 38.873,12.120 38.951,12.120 39.028,12.120 39.106,12.120 39.183,12.120 39.261,12.120 39.338,12.120 39.416,12.120 39.493,12.120 39.571,12.120 39.648,12.120 39.726,12.120 39.803,12.120 39.881,12.120 39.958,12.120 40.036,12.120 40.113,12.120 40.191,12.120 40.268,12.120 40.346,12.120 40.423,12.120 40.501,12.120 40.578,12.120 40.656,12.120 40.733,12.120 40.811,12.120 40.888,12.120 40.966,12.120 41.043,12.120 41.121,12.120 41.198,12.120 41.276,12.120 41.353,12.120 41.431,12.120 41.508,12.120 41.586,12.120 41.663,12.120 41.741,12.120 41.818,12.120 41.896,12.120 41.973,12.120 42.051,12.120 42.128,12.120 42.206,12.120 42.283,12.120 42.361,12.120 42.438,12.120 42.516,12.120 42.593,12.120 42.671,12.120 42.748,12.120 42.826,12.120 42.903,12.120 42.981,12.120 43.058,12.120 43.136,12.120 43.213,12.120 43.291,12.120 43.368,12.120 43.446,12.120 43.523,12.120 43.601,12.120 43.678,12.120 43.756,12.120 43.833,12.120 43.911,12.120 43.988,12.120 44.066,12.120 44.143,12.120 44.221,12.120 44.298,12.120 44.376,12.120 44.453,12.120 44.531,12.120 44.608,12.120 44.686,12.120 44.763,12.120 44.841,12.120 44.918,12.120 44.996,12.120 45.073,12.120 45.151,12.120 45.228,12.120 45.306,12.120 45.383,12.120 45.461,12.120 45.538,12.120 45.616,12.120 45.693,12.120 45.771,12.120 45.848,12.120 45.926,12.120 46.003,12.120 46.081,12.120 46.158,12.120 46.236,12.120 46.313,12.120 46.391,12.120 46.468,12.120 46.546,12.120 46.623,12.120 46.701,12.120 46.778,12.120 46.856,12.120 46.933,12.120 47.011,12.120 47.088,12.120 47.166,12.120 47.243,12.120 47.321,12.120 47.398,12.120 47.476,12.120 47.553,12.120 47.631,12.120 47.708,12.120 47.786,12.120 47.863,12.120 47.941,12.120 48.018,12.120 48.096,12.120 48.173,12.120 48.251,12.120 48.328,12.120 48.406,12.120 48.483,12.120 48.561,12.120 48.638,12.120 48.716,12.120 48.793,12.120 48.871,12.120 48.948,12.120 49.026,12.120 49.103,12.120 49.181,12.120 49.258,12.120 49.336,12.120 49.413,12.120 49.491,12.120 49.568,12.120 49.646,12.120 49.723,12.120 49.801,12.120 49.878,12.120 49.956,12.120 50.033,12.120 50.111,12.120 50.188,12.120 50.266,12.120 50.343,12.120 50.421,12.120 50.498,12.120 50.576,12.120 50.653,12.120 50.731,12.120 50.808,12.120 50.886,12.120 50.963,12.120 51.041,12.120 51.118,12.120 51.196,12.120 51.273,12.120 51.351,12.120 51.428,12.120 51.506,12.120 51.583,12.120 51.661,12.120 51.738,12.120 51.816,12.120 51.893,12.120 51.971,12.120 52.048,12.120 52.126,12.120 52.203,12.120 52.281,12.120 52.358,12.120 52.436,12.120 52.513,12.120 52.591,12.120 52.668,12.120 52.746,12.120 52.823,12.120 52.901,12.120 52.978,12.120 53.056,12.120 53.133,12.120 53.211,12.120 53.288,12.120 53.366,12.120 53.443,12.120 53.521,12.120 53.598,12.120 53.676,12.120 53.753,12.120 53.831,12.120 53.908,12.120 53.986,12.120 54.063,12.120 54.141,12.120 54.218,12.120 54.296,12.120 54.373,12.120 54.451,12.120 54.528,12.120 54.606,12.120 54.683,12.120 54.761,12.120 54.838,12.120 54.916,12.120 54.993,12.120 55.071,12.120 55.148,12.120 55.226,12.120 55.303,12.120 55.381,12.120 55.458,12.120 55.536,12.120 55.613,12.120 55.691,12.120 55.768,12.120 55.846,12.120 55.923,12.120 56.001,12.120 56.078,12.120 56.156,12.120 56.233,12.120 56.311,12.120 56.388,12.120 56.466,12.120 56.543,12.120 56.621,12.120 56.698,12.120 56.776,12.120 56.853,12.121 56.931,12.121 57.008,12.122 57.086,12.123 57.163,12.124 57.241,12.125 57.318,12.126 57.396,12.128 57.473,12.131 57.550,12.133 57.628,12.137 57.705,12.140 57.783,12.145 57.860,12.150 57.937,12.155 58.015,12.161 58.092,12.168 58.169,12.176 58.246,12.184 58.323,12.194 58.400,12.204 58.476,12.215 58.553,12.227 58.629,12.240 58.706,12.254 58.782,12.269 58.857,12.285 58.933,12.303 59.008,12.321 59.083,12.341 59.158,12.361 59.232,12.383 59.306,12.407 59.380,12.431 59.453,12.457 59.525,12.484 59.598,12.512 59.669,12.542 59.740,12.573 59.811,12.605 59.881,12.639 59.950,12.674 60.018,12.710 60.086,12.747 60.153,12.786 60.219,12.827 60.285,12.868 60.349,12.911 60.413,12.955 60.476,13.000 60.538,13.047 60.599,13.095 60.659,13.144 60.718,13.194 60.776,13.245 60.833,13.298 60.889,13.352 60.943,13.407 60.997,13.462 61.050,13.519 61.101,13.577 61.151,13.636 61.200,13.696 61.248,13.757 61.295,13.819 61.340,13.882 61.384,13.946 61.427,14.011 61.468,14.076 61.508,14.142 61.547,14.210 61.584,14.277 61.621,14.346 61.655,14.415 61.688,14.485 61.720,14.556 61.751,14.627 61.780,14.699 61.807,14.772 61.833,14.845 61.858,14.918 61.881,14.992 61.903,15.067 61.923,15.141 61.942,15.217 61.959,15.292 61.975,15.368 61.990,15.444 62.004,15.520 62.016,15.597 62.028,15.673 62.038,15.750 62.047,15.827 62.056,15.904 62.063,15.981 62.070,16.058 62.075,16.136 62.080,16.213 62.085,16.290 62.088,16.368 62.091,16.445 62.093,16.523 62.095,16.600 62.096,16.678 62.097,16.755 62.098,16.833 62.097,16.910 62.097,16.988 62.096,17.065 62.095,17.143 62.094,17.220 62.092,17.298 62.090,17.375 62.088,17.453 62.086,17.530 62.083,17.608 62.081,17.685 62.078,17.763 62.075,17.840 62.073,17.917 62.070,17.995 62.067,18.072 62.064,18.150 62.060,18.227 62.057,18.305 62.054,18.382 62.051,18.459 62.048,18.537 62.045,18.614 62.042,18.692 62.039,18.769 62.036,18.847 62.033,18.924 62.030,19.002 62.028,19.079 62.025,19.157 62.022,19.234 62.020,19.311 62.017,19.389 62.015,19.466 62.013,19.544 62.010,19.621 62.008,19.699 62.006,19.776 62.004,19.854 62.002,19.931 62.001,20.009 61.999,20.086 61.997,20.164 61.996,20.241 61.994,20.319 61.993,20.396 61.991,20.474 61.990,20.551 61.989,20.629 61.988,20.706 61.987,20.784 61.985,20.861 61.985,20.939 61.984,21.016 61.983,21.093 61.982,21.171 61.981,21.248 61.981,21.326 61.980,21.403 61.980,21.481 61.979,21.558 61.979,21.636 61.978,21.713 61.978,21.791 61.977,21.868 61.977,21.946 61.977,22.023 61.977,22.101 61.976,22.178 61.976,22.256 61.976,22.333 61.976,22.411 61.976,22.488 61.976,22.566 61.976,22.643 61.976,22.721 61.976,22.798 61.976,22.876 61.976,22.953 61.976,23.031 61.976,23.108 61.976,23.186 61.976,23.263 61.976,23.341 61.976,23.418 61.976,23.496 61.976,23.573 61.976,23.651 61.976,23.728 61.976,23.806 61.976,23.883 61.977,23.961 61.977,24.038 61.977,24.116 61.977,24.193 61.977,24.271 61.977,24.348 61.977,24.426 61.977,24.503 61.977,24.581 61.978,24.658 61.978,24.736 61.978,24.813 61.978,24.891 61.978,24.968 61.978,25.046 61.978,25.123 61.978,25.201 61.978,25.278 61.979,25.356 61.979,25.433 61.979,25.511 61.979,25.588 61.979,25.666 61.979,25.743 61.979,25.821 61.979,25.898 61.979,25.976 61.979,26.053 61.979,26.131 61.979,26.208 61.979,26.286 61.979,26.363 61.980,26.441 61.980,26.518 61.980,26.596 61.980,26.673 61.980,26.751 61.980,26.828 61.980,26.906 61.980,26.983 61.980,27.061 61.980,27.138 61.980,27.216 61.980,27.293 61.980,27.371 61.980,27.448 61.980,27.526 61.980,27.603 61.980,27.681 61.980,27.758 61.980,27.836 61.980,27.913 61.980,27.991 61.980,28.068 61.980,28.146 61.980,28.223 61.980,28.301 61.980,28.378 61.980,28.456 61.980,28.533 61.980,28.611 61.980,28.688 61.980,28.766 61.980,28.843 61.980,28.921 61.980,28.998 61.980,29.076 61.980,29.153 61.980,29.231 61.980,29.308 61.980,29.386 61.980,29.463 61.980,29.541 61.980,29.618 61.980,29.696 61.980,29.773 61.980,29.851 61.980,29.928 61.980,30.006 61.980,30.083 61.980,30.161 61.980,30.238 61.980,30.316 61.980,30.393 61.980,30.471 61.980,30.548 61.980,30.626 61.980,30.703 61.980,30.781 61.980,30.858 61.980,30.936 61.980,31.013 61.980,31.091 61.980,31.168 61.980,31.246 61.980,31.323 61.980,31.401 61.980,31.478 61.980,31.556 61.980,31.633 61.980,31.711 61.980,31.788 61.980,31.866 61.980,31.943 61.980,32.021 61.980,32.098 61.980,32.176 61.980,32.253 61.980,32.331 61.979,32.408 61.979,32.486 61.978,32.563 61.977,32.641 61.976,32.718 61.975,32.796 61.973,32.873 61.971,32.951 61.968,33.028 61.965,33.106 61.962,33.183 61.958,33.261 61.954,33.338 61.949,33.415 61.943,33.493 61.936,33.570 61.929,33.647 61.921,33.724 61.912,33.801 61.903,33.878 61.892,33.955 61.881,34.031 61.868,34.108 61.854,34.184 61.840,34.260 61.824,34.336 61.808,34.412 61.790,34.487 61.771,34.562 61.750,34.637 61.729,34.712 61.706,34.786 61.682,34.860 61.657,34.933 61.631,35.006 61.603,35.078 61.574,35.150 61.544,35.221 61.513,35.292 61.480,35.362 61.445,35.432 61.410,35.501 61.373,35.569 61.335,35.636 61.295,35.703 61.255,35.769 61.213,35.834 61.169,35.898 61.125,35.962 61.079,36.024 61.032,36.086 60.983,36.146 60.934,36.206 60.883,36.265 60.831,36.322 60.778,36.379 60.724,36.434 60.669,36.488 60.613,36.542 60.555,36.594 60.497,36.645 60.437,36.694 60.377,36.743 60.315,36.790 60.253,36.836 60.190,36.881 60.126,36.924 60.061,36.967 59.995,37.008 59.928,37.047 59.861,37.085 59.793,37.122 59.724,37.158 59.654,37.192 59.584,37.224 59.513,37.256 59.441,37.285 59.369,37.314 59.297,37.341 59.223,37.366 59.150,37.390 59.075,37.413 59.001,37.434 58.926,37.453 58.851,37.472 58.775,37.488 58.699,37.504 58.623,37.518 58.546,37.531 58.470,37.543 58.393,37.554 58.316,37.564 58.239,37.573 58.162,37.581 58.085,37.588 58.008,37.594 57.930,37.599 57.853,37.604 57.776,37.608 57.698,37.611 57.621,37.614 57.543,37.616 57.466,37.617 57.388,37.618 57.311,37.619 57.233,37.619 57.156,37.619 57.078,37.618 57.001,37.617 56.923,37.616 56.846,37.614 56.768,37.612 56.691,37.610 56.613,37.608 56.536,37.605 56.459,37.603 56.381,37.600 56.304,37.597 56.226,37.595 56.149,37.592 56.071,37.589 55.994,37.586 55.916,37.582 55.839,37.579 55.762,37.576 55.684,37.573 55.607,37.570 55.529,37.567 55.452,37.564 55.374,37.561 55.297,37.558 55.219,37.555 55.142,37.552 55.065,37.549 54.987,37.547 54.910,37.544 54.832,37.541 54.755,37.539 54.677,37.536 54.600,37.534 54.522,37.532 54.445,37.529 54.367,37.527 54.290,37.525 54.212,37.523 54.135,37.521 54.058,37.520 53.980,37.518 53.903,37.516 53.825,37.515 53.748,37.513 53.670,37.512 53.593,37.511 53.515,37.509 53.438,37.508 53.360,37.507 53.283,37.506 53.205,37.505 53.128,37.504 53.050,37.503 52.973,37.502 52.895,37.502 52.818,37.501 52.740,37.500 52.663,37.500 52.585,37.499 52.508,37.499 52.430,37.498 52.353,37.498 52.275,37.497 52.198,37.497 52.120,37.497 52.043,37.497 51.965,37.496 51.888,37.496 51.810,37.496 51.733,37.496 51.655,37.496 51.578,37.496 51.500,37.496 51.423,37.496 51.345,37.495 51.268,37.495 51.190,37.495 51.113,37.495 51.035,37.496 50.958,37.496 50.880,37.496 50.803,37.496 50.725,37.496 50.648,37.496 50.570,37.496 50.493,37.496 50.415,37.496 50.338,37.496 50.260,37.496 50.183,37.496 50.105,37.497 50.028,37.497 49.950,37.497 49.873,37.497 49.795,37.497 49.718,37.497 49.640,37.497 49.563,37.497 49.485,37.497 49.408,37.498 49.330,37.498 49.253,37.498 49.175,37.498 49.098,37.498 49.020,37.498 48.943,37.498 48.865,37.498 48.788,37.498 48.710,37.499 48.633,37.499 48.555,37.499 48.478,37.499 48.400,37.499 48.323,37.499 48.245,37.499 48.168,37.499 48.090,37.499 48.013,37.499 47.935,37.499 47.858,37.499 47.780,37.499 47.703,37.500 47.625,37.500 47.548,37.500 47.470,37.500 47.393,37.500 47.315,37.500 47.238,37.500 47.160,37.500 47.083,37.500 47.005,37.500 46.928,37.500 46.850,37.500 46.773,37.500 46.695,37.500 46.618,37.500 46.540,37.500 46.463,37.500 46.385,37.500 46.308,37.500 46.230,37.500 46.153,37.500 46.075,37.500 45.998,37.500 45.920,37.500 45.843,37.500 45.765,37.500 45.688,37.500 45.610,37.500 45.533,37.500 45.455,37.500 45.378,37.500 45.300,37.500 45.223,37.500 45.145,37.500 45.068,37.500 44.990,37.500 44.913,37.500 44.835,37.500 44.758,37.500 44.680,37.500 44.603,37.500 44.525,37.500 44.448,37.500 44.370,37.500 44.293,37.500 44.215,37.500 44.138,37.500 44.060,37.500 43.983,37.500 43.905,37.500 43.828,37.500 43.750,37.500 43.673,37.500 43.595,37.500 43.518,37.500 43.440,37.500 43.363,37.500 43.285,37.500 43.208,37.500 43.130,37.500 43.053,37.500 42.975,37.500 42.898,37.500 42.820,37.500 42.743,37.500 42.665,37.500 42.588,37.500 42.510,37.500 42.433,37.500 42.355,37.500 42.278,37.500 42.201,37.500 42.124,37.500 42.047,37.500 41.972,37.500 41.896,37.500 41.822,37.500 41.748,37.500 41.676,37.500 41.604,37.500 41.533,37.500 41.463,37.500 41.395,37.500 41.327,37.500 41.260,37.500 41.195,37.500 41.131,37.500 41.067,37.500 41.005,37.500 40.944,37.500 40.885,37.500 40.826,37.500 40.769,37.500 40.712,37.500 40.657,37.500 40.603,37.500 40.550,37.500 40.499,37.500 40.448,37.500 40.399,37.500 40.350,37.500 40.303,37.500 40.256,37.500 40.211,37.500 40.167,37.500 40.124,37.500 40.081,37.500 40.040,37.500 40.000,37.500 39.960,37.500 39.922,37.500 39.884,37.500 39.847,37.500 39.812,37.500 39.777,37.500 39.742,37.500 39.709,37.500 39.676,37.500 39.645,37.500 39.614,37.500 39.583,37.500 39.554,37.500 39.525,37.500 39.497,37.500 39.470,37.500 39.443,37.500 39.417,37.500 39.391,37.500 39.366,37.500 39.342,37.500 39.319,37.500 39.296,37.500 39.273,37.500 39.251,37.500 39.230,37.500 39.208,37.500 39.188,37.500 39.167,37.500 39.147,37.500 39.127,37.500 39.108,37.500 39.088,37.500 39.069,37.500 39.050,37.500 39.031,37.500 39.012,37.500 38.993,37.500 38.975,37.500 38.957,37.500 38.938,37.500"/>
<polyline fill="none" stroke="#ff7f0e" stroke-width="0.220" stroke-opacity="0.95" points="38.942,37.500 38.949,37.500 38.959,37.500 38.972,37.500 38.987,37.500 39.005,37.500 39.025,37.500 39.046,37.500 39.069,37.499 39.093,37.499 39.119,37.498 39.146,37.497 39.174,37.496 39.203,37.495 39.233,37.493 39.263,37.491 39.294,37.489 39.326,37.487 39.358,37.484 39.391,37.481 39.424,37.477 39.458,37.474 39.492,37.470 39.526,37.465 39.561,37.460 39.595,37.455 39.630,37.450 39.665,37.444 39.700,37.438 39.736,37.431 39.771,37.424 39.807,37.417 39.842,37.409 39.878,37.401 39.913,37.393 39.949,37.384 39.984,37.375 40.020,37.366 40.056,37.356 40.091,37.346 40.127,37.335 40.162,37.325 40.197,37.313 40.233,37.302 40.268,37.290 40.303,37.278 40.338,37.265 40.373,37.252 40.408,37.239 40.443,37.225 40.477,37.211 40.512,37.197 40.546,37.182 40.580,37.167 40.614,37.152 40.648,37.136 40.682,37.120 40.716,37.104 40.749,37.087 40.783,37.070 40.816,37.053 40.849,37.035 40.882,37.017 40.914,36.999 40.947,36.980 40.979,36.961 41.011,36.942 41.043,36.923 41.075,36.903 41.107,36.883 41.138,36.862 41.169,36.841 41.200,36.820 41.231,36.799 41.262,36.777 41.292,36.755 41.322,36.733 41.352,36.710 41.382,36.687 41.411,36.664 41.441,36.641 41.470,36.617 41.498,36.593 41.527,36.569 41.555,36.544 41.583,36.519 41.611,36.494 41.639,36.469 41.666,36.443 41.693,36.417 41.720,36.391 41.747,36.365 41.773,36.338 41.799,36.311 41.825,36.284 41.851,36.257 41.876,36.229 41.901,36.201 41.926,36.173 41.950,36.144 41.974,36.116 41.998,36.087 42.022,36.058 42.045,36.028 42.068,35.999 42.091,35.969 42.113,35.939 42.136,35.909 42.157,35.878 42.179,35.847 42.200,35.817 42.221,35.786 42.242,35.754 42.262,35.723 42.282,35.691 42.302,35.659 42.322,35.627 42.341,35.595 42.360,35.562 42.378,35.530 42.396,35.497 42.414,35.464 42.432,35.431 42.449,35.398 42.466,35.364 42.482,35.331 42.499,35.297 42.515,35.263 42.530,35.229 42.545,35.194 42.560,35.160 42.575,35.125 42.589,35.091 42.603,35.056 42.617,35.021 42.630,34.986 42.643,34.951 42.655,34.915 42.668,34.880 42.680,34.844 42.691,34.809 42.703,34.773 42.713,34.737 42.724,34.701 42.734,34.665 42.744,34.629 42.754,34.593 42.763,34.556 42.772,34.520 42.781,34.483 42.789,34.447 42.797,34.410 42.805,34.374 42.812,34.337 42.819,34.300 42.826,34.263 42.832,34.226 42.838,34.189 42.844,34.152 42.849,34.115 42.854,34.078 42.859,34.041 42.864,34.003 42.868,33.966 42.871,33.929 42.875,33.891 42.878,33.854 42.881,33.817 42.884,33.779 42.886,33.742 42.888,33.704 42.890,33.667 42.891,33.629 42.892,33.592 42.893,33.554 42.893,33.517 42.894,33.479 42.894,33.442 42.894,33.404 42.894,33.367 42.894,33.329 42.894,33.292 42.894,33.254 42.894,33.217 42.893,33.179 42.893,33.142 42.893,33.104 42.893,33.067 42.893,33.029 42.893,32.992 42.893,32.954 42.893,32.917 42.893,32.879 42.893,32.842 42.893,32.804 42.892,32.767 42.892,32.729 42.892,32.692 42.892,32.654 42.892,32.617 42.892,32.579 42.892,32.542 42.892,32.504 42.892,32.467 42.892,32.429 42.892,32.392 42.891,32.354 42.891,32.317 42.891,32.279 42.891,32.242 42.891,32.205 42.891,32.167 42.891,32.130 42.891,32.093 42.891,32.056 42.891,32.019 42.891,31.982 42.891,31.946 42.890,31.910 42.890,31.874 42.890,31.838 42.890,31.802 42.890,31.767 42.890,31.732 42.890,31.697 42.890,31.663 42.890,31.629 42.890,31.595 42.890,31.561 42.890,31.528 42.889,31.495 42.889,31.462 42.889,31.430 42.889,31.397 42.889,31.366 42.889,31.334 42.889,31.303 42.889,31.272 42.889,31.241 42.889,31.211 42.889,31.181 42.889,31.151 42.889,31.121 42.889,31.092 42.888,31.063 42.888,31.035 42.888,31.006 42.888,30.978 42.888,30.950 42.888,30.923 42.888,30.896 42.888,30.869 42.888,30.842 42.888,30.816 42.888,30.789 42.888,30.764 42.888,30.738 42.888,30.713 42.888,30.687 42.888,30.663 42.887,30.638 42.887,30.614 42.887,30.589 42.887,30.566 42.887,30.542 42.887,30.519 42.887,30.495 42.887,30.473 42.887,30.450 42.887,30.427 42.887,30.405 42.887,30.383 42.887,30.361 42.887,30.340 42.887,30.319 42.887,30.297 42.887,30.277 42.887,30.256 42.887,30.235 42.886,30.215 42.886,30.195 42.886,30.175 42.886,30.156 42.886,30.136 42.886,30.117 42.886,30.098 42.886,30.079 42.886,30.060 42.886,30.041 42.886,30.023 42.886,30.004 42.886,29.986 42.886,29.968 42.886,29.950 42.886,29.932 42.886,29.914 42.886,29.896 42.886,29.878 42.886,29.860 42.886,29.842 42.886,29.824 42.886,29.806 42.885,29.788 42.885,29.771 42.885,29.753 42.885,29.735 42.885,29.718 42.885,29.700 42.885,29.682 42.885,29.665 42.885,29.647 42.885,29.630 42.885,29.612 42.885,29.594 42.885,29.577 42.885,29.559 42.885,29.542 42.885,29.524 42.885,29.507 42.885,29.489 42.885,29.471 42.885,29.454 42.885,29.436 42.885,29.419 42.885,29.401 42.885,29.384 42.884,29.366 42.884,29.349 42.884,29.331 42.884,29.314 42.884,29.296 42.884,29.279 42.884,29.261 42.884,29.244 42.884,29.226 42.884,29.209 42.884,29.191 42.884,29.174 42.884,29.156 42.884,29.139 42.884,29.121 42.884,29.104 42.884,29.086 42.884,29.069 42.884,29.051 42.884,29.034 42.884,29.016 42.884,28.999 42.884,28.981 42.884,28.964 42.883,28.946 42.883,28.929 42.883,28.911 42.883,28.894 42.883,28.876 42.883,28.859 42.883,28.841 42.883,28.824 42.883,28.806 42.883,28.789 42.883,28.771 42.883,28.754 42.883,28.736 42.883,28.719 42.883,28.701 42.883,28.684 42.883,28.666 42.883,28.649 42.883,28.631 42.883,28.614 42.883,28.596 42.883,28.579 42.883,28.561 42.883,28.544 42.882,28.526 42.882,28.509 42.882,28.491 42.882,28.474 42.882,28.456 42.882,28.439 42.882,28.421 42.882,28.404 42.882,28.386 42.882,28.369 42.882,28.351 42.882,28.334"/>
<polygon fill="#1f77b4" fill-opacity="0.140" stroke="#1f77b4" stroke-opacity="0.55" stroke-width="0.07" points="6.408,13.000 6.408,11.000 1.608,11.000 1.608,13.000"/>
<polygon fill="#1f77b4" fill-opacity="0.140" stroke="#1f77b4" stroke-opacity="0.55" stroke-width="0.07" points="7.233,13.100 7.302,11.101 2.505,10.934 2.436,12.932"/>
<polygon fill="#1f77b4" fill-opacity="0.140" stroke="#1f77b4" stroke-opacity="0.55" stroke-width="0.07" points="8.545,13.155 8.618,11.156 3.821,10.981 3.748,12.980"/>
<polygon fill="#1f77b4" fill-opacity="0.140" stroke="#1f77b4" stroke-opacity="0.55" stroke-width="0.07" points="9.947,13.150 9.983,11.151 5.184,11.063 5.147,13.063"/>
<polygon fill="#1f77b4" fill-opacity="0.140" stroke="#1f77b4" stroke-opacity="0.55" stroke-width="0.07" points="11.354,13.134 11.363,11.134 6.563,11.111 6.554,13.111"/>
<polygon fill="#1f77b4" fill-opacity="0.140" stroke="#1f77b4" stroke-opacity="0.55" stroke-width="0.07" points="12.754,13.123 12.753,11.123 7.953,11.126 7.954,13.126"/>
<polygon fill="#1f77b4" fill-opacity="0.140" stroke="#1f77b4" stroke-opacity="0.55" stroke-width="0.07" points="14.150,13.119 14.147,11.119 9.347,11.126 9.350,13.126"/>
<polygon fill="#1f77b4" fill-opacity="0.140" stroke="#1f77b4" stroke-opacity="0.55" stroke-width="0.07" points="15.544,13.119 15.542,11.119 10.742,11.123 10.744,13.123"/>
<polygon fill="#1f77b4" fill-opacity="0.140" stroke="#1f77b4" stroke-opacity="0.55" stroke-width="0.07" points="16.938,13.119 16.938,11.119 12.138,11.121 12.138,13.121"/>
<polygon fill="#1f77b4" fill-opacity="0.140" stroke="#1f77b4" stroke-opacity="0.55" stroke-width="0.07" points="18.333,13.120 18.333,11.120 13.533,11.120 13.533,13.120"/>
<polygon fill="#1f77b4" fill-opacity="0.140" stroke="#1f77b4" stroke-opacity="0.55" stroke-width="0.07" points="19.728,13.120 19.728,11.120 14.928,11.120 14.928,13.120"/>
<polygon fill="#1f77b4" fill-opacity="0.140" stroke="#1f77b4" stroke-opacity="0.55" stroke-width="0.07" points="21.123,13.120 21.123,11.120 16.323,11.120 16.323,13.120"/>
<polygon fill="#1f77b4" fill-opacity="0.140" stroke="#1f77b4" stroke-opacity="0.55" stroke-width="0.07" points="22.518,13.120 22.518,11.120 17.718,11.120 17.718,13.120"/>
<polygon fill="#1f77b4" fill-opacity="0.140" stroke="#1f77b4" stroke-opacity="0.55" stroke-width="0.07" points="23.913,13.120 23.913,11.120 19.113,11.120 19.113,13.120"/>
<polygon fill="#1f77b4" fill-opacity="0.140" stroke="#1f77b4" stroke-opacity="0.55" stroke-width="0.07" points="25.308,13.120 25.308,11.120 20.508,11.120 20.508,13.120"/>
<polygon fill="#1f77b4" fill-opacity="0.140" stroke="#1f77b4" stroke-opacity="0.55" stroke-width="0.07" points="26.703,13.120 26.703,11.120 21.903,11.120 21.903,13.120"/>
<polygon fill="#1f77b4" fill-opacity="0.140" stroke="#1f77b4" stroke-opacity="0.55" stroke-width="0.07" points="28.098,13.120 28.098,11.120 23.298,11.120 23.298,13.120"/>
<polygon fill="#1f77b4" fill-opacity="0.140" stroke="#1f77b4" stroke-opacity="0.55" stroke-width="0.07" points="29.493,13.120 29.493,11.120 24.693,11.120 24.693,13.120"/>
<polygon fill="#1f77b4" fill-opacity="0.140" stroke="#1f77b4" stroke-opacity="0.55" stroke-width="0.07" points="30.888,13.120 30.888,11.120 26.088,11.120 26.088,13.120"/>
<polygon fill="#1f77b4" fill-opacity="0.140" stroke="#1f77b4" stroke-opacity="0.55" stroke-width="0.07" points="32.283,13.120 32.283,11.120 27.483,11.120 27.483,13.120"/>
<polygon fill="#1f77b4" fill-opacity="0.140" stroke="#1f77b4" stroke-opacity="0.55" stroke-width="0.07" points="33.678,13.120 33.678,11.120 28.878,11.120 28.878,13.120"/>
<polygon fill="#1f77b4" fill-opacity="0.140" stroke="#1f77b4" stroke-opacity="0.55" stroke-width="0.07" points="35.073,13.120 35.073,11.120 30.273,11.120 30.273,13.120"/>
<polygon fill="#1f77b4" fill-opacity="0.140" stroke="#1f77b4" stroke-opacity="0.55" stroke-width="0.07" points="36.468,13.120 36.468,11.120 31.668,11.120 31.668,13.120"/>
<polygon fill="#1f77b4" fill-opacity="0.140" stroke="#1f77b4" stroke-opacity="0.55" stroke-width="0.07" points="37.863,13.120 37.863,11.120 33.063,11.120 33.063,13.120"/>
<polygon fill="#1f77b4" fill-opacity="0.140" stroke="#1f77b4" stroke-opacity="0.55" stroke-width="0.07" points="39.258,13.120 39.258,11.120 34.458,11.120 34.458,13.120"/>
<polygon fill="#1f77b4" fill-opacity="0.140" stroke="#1f77b4" stroke-opacity="0.55" stroke-width="0.07" points="40.653,13.120 40.653,11.120 35.853,11.120 35.853,13.120"/>
<polygon fill="#1f77b4" fill-opacity="0.140" stroke="#1f77b4" stroke-opacity="0.55" stroke-width="0.07" points="42.048,13.120 42.048,11.120 37.248,11.120 37.248,13.120"/>
<polygon fill="#1f77b4" fill-opacity="0.140" stroke="#1f77b4" stroke-opacity="0.55" stroke-width="0.07" points="43.443,13.120 43.443,11.120 38.643,11.120 38.643,13.120"/>
<polygon fill="#1f77b4" fill-opacity="0.140" stroke="#1f77b4" stroke-opacity="0.55" stroke-width="0.07" points="44.838,13.120 44.838,11.120 40.038,11.120 40.038,13.120"/>
<polygon fill="#1f77b4" fill-opacity="0.140" stroke="#1f77b4" stroke-opacity="0.55" stroke-width="0.07" points="46.233,13.120 46.233,11.120 41.433,11.120 41.433,13.120"/>
<polygon fill="#1f77b4" fill-opacity="0.140" stroke="#1f77b4" stroke-opacity="0.55" stroke-width="0.07" points="47.628,13.120 47.628,11.120 42.828,11.120 42.828,13.120"/>
<polygon fill="#1f77b4" fill-opacity="0.140" stroke="#1f77b4" stroke-opacity="0.55" stroke-width="0.07" points="49.023,13.120 49.023,11.120 44.223,11.120 44.223,13.120"/>
<polygon fill="#1f77b4" fill-opacity="0.140" stroke="#1f77b4" stroke-opacity="0.55" stroke-width="0.07" points="50.418,13.120 50.418,11.120 45.618,11.120 45.618,13.120"/>
<polygon fill="#1f77b4" fill-opacity="0.140" stroke="#1f77b4" stroke-opacity="0.55" stroke-width="0.07" points="51.813,13.120 51.813,11.120 47.013,11.120 47.013,13.120"/>
<polygon fill="#1f77b4" fill-opacity="0.140" stroke="#1f77b4" stroke-opacity="0.55" stroke-width="0.07" points="53.208,13.120 53.208,11.120 48.408,11.120 48.408,13.120"/>
<polygon fill="#1f77b4" fill-opacity="0.140" stroke="#1f77b4" stroke-opacity="0.55" stroke-width="0.07" points="54.603,13.120 54.603,11.120 49.803,11.120 49.803,13.120"/>
<polygon fill="#1f77b4" fill-opacity="0.140" stroke="#1f77b4" stroke-opacity="0.55" stroke-width="0.07" points="55.998,13.120 55.998,11.120 51.198,11.120 51.198,13.120"/>
<polygon fill="#1f77b4" fill-opacity="0.140" stroke="#1f77b4" stroke-opacity="0.55" stroke-width="0.07" points="57.393,13.120 57.393,11.120 52.593,11.120 52.593,13.120"/>
<polygon fill="#1f77b4" fill-opacity="0.140" stroke="#1f77b4" stroke-opacity="0.55" stroke-width="0.07" points="58.788,13.120 58.788,11.120 53.988,11.120 53.988,13.120"/>
<polygon fill="#1f77b4" fill-opacity="0.140" stroke="#1f77b4" stroke-opacity="0.55" stroke-width="0.07" points="60.115,13.293 60.241,11.297 55.450,10.996 55.325,12.992"/>
<polygon fill="#1f77b4" fill-opacity="0.140" stroke="#1f77b4" stroke-opacity="0.55" stroke-width="0.07" points="61.177,13.999 61.743,12.081 57.139,10.723 56.573,12.642"/>
<polygon fill="#1f77b4" fill-opacity="0.140" stroke="#1f77b4" stroke-opacity="0.55" stroke-width="0.07" points="61.774,15.171 62.944,13.549 59.052,10.739 57.882,12.361"/>
<polygon fill="#1f77b4" fill-opacity="0.140" stroke="#1f77b4" stroke-opacity="0.55" stroke-width="0.07" points="61.874,16.500 63.542,15.396 60.894,11.393 59.226,12.496"/>
<polygon fill="#1f77b4" fill-opacity="0.140" stroke="#1f77b4" stroke-opacity="0.55" stroke-width="0.07" points="61.507,17.780 63.456,17.330 62.376,12.653 60.427,13.103"/>
<polygon fill="#1f77b4" fill-opacity="0.140" stroke="#1f77b4" stroke-opacity="0.55" stroke-width="0.07" points="61.133,19.016 63.133,18.984 63.057,14.185 61.058,14.216"/>
<polygon fill="#1f77b4" fill-opacity="0.140" stroke="#1f77b4" stroke-opacity="0.55" stroke-width="0.07" points="60.978,20.354 62.976,20.432 63.162,15.635 61.163,15.558"/>
<polygon fill="#1f77b4" fill-opacity="0.140" stroke="#1f77b4" stroke-opacity="0.55" stroke-width="0.07" points="60.944,21.757 62.943,21.818 63.091,17.021 61.092,16.959"/>
<polygon fill="#1f77b4" fill-opacity="0.140" stroke="#1f77b4" stroke-opacity="0.55" stroke-width="0.07" points="60.955,23.170 62.955,23.196 63.018,18.397 61.018,18.371"/>
<polygon fill="#1f77b4" fill-opacity="0.140" stroke="#1f77b4" stroke-opacity="0.55" stroke-width="0.07" points="60.971,24.576 62.971,24.581 62.982,19.781 60.982,19.776"/>
<polygon fill="#1f77b4" fill-opacity="0.140" stroke="#1f77b4" stroke-opacity="0.55" stroke-width="0.07" points="60.979,25.975 62.979,25.972 62.973,21.172 60.973,21.175"/>
<polygon fill="#1f77b4" fill-opacity="0.140" stroke="#1f77b4" stroke-opacity="0.55" stroke-width="0.07" points="60.981,27.370 62.981,27.367 62.975,22.567 60.975,22.570"/>
<polygon fill="#1f77b4" fill-opacity="0.140" stroke="#1f77b4" stroke-opacity="0.55" stroke-width="0.07" points="60.981,28.764 62.981,28.763 62.978,23.963 60.978,23.964"/>
<polygon fill="#1f77b4" fill-opacity="0.140" stroke="#1f77b4" stroke-opacity="0.55" stroke-width="0.07" points="60.981,30.159 62.981,30.158 62.980,25.358 60.980,25.359"/>
<polygon fill="#1f77b4" fill-opacity="0.140" stroke="#1f77b4" stroke-opacity="0.55" stroke-width="0.07" points="60.980,31.553 62.980,31.553 62.980,26.753 60.980,26.753"/>
<polygon fill="#1f77b4" fill-opacity="0.140" stroke="#1f77b4" stroke-opacity="0.55" stroke-width="0.07" points="60.980,32.948 62.980,32.949 62.980,28.149 60.980,28.148"/>
<polygon fill="#1f77b4" fill-opacity="0.140" stroke="#1f77b4" stroke-opacity="0.55" stroke-width="0.07" points="60.980,34.343 62.980,34.344 62.981,29.544 60.981,29.543"/>
<polygon fill="#1f77b4" fill-opacity="0.140" stroke="#1f77b4" stroke-opacity="0.55" stroke-width="0.07" points="60.796,35.666 62.791,35.799 63.111,31.010 61.116,30.877"/>
<polygon fill="#1f77b4" fill-opacity="0.140" stroke="#1f77b4" stroke-opacity="0.55" stroke-width="0.07" points="60.073,36.716 61.986,37.299 63.385,32.708 61.472,32.124"/>
<polygon fill="#1f77b4" fill-opacity="0.140" stroke="#1f77b4" stroke-opacity="0.55" stroke-width="0.07" points="58.898,37.305 60.511,38.488 63.351,34.619 61.739,33.435"/>
<polygon fill="#1f77b4" fill-opacity="0.140" stroke="#1f77b4" stroke-opacity="0.55" stroke-width="0.07" points="57.568,37.393 58.657,39.070 62.683,36.456 61.594,34.779"/>
<polygon fill="#1f77b4" fill-opacity="0.140" stroke="#1f77b4" stroke-opacity="0.55" stroke-width="0.07" points="56.291,37.017 56.725,38.969 61.411,37.926 60.976,35.974"/>
<polygon fill="#1f77b4" fill-opacity="0.140" stroke="#1f77b4" stroke-opacity="0.55" stroke-width="0.07" points="55.053,36.648 55.079,38.648 59.878,38.587 59.853,36.587"/>
<polygon fill="#1f77b4" fill-opacity="0.140" stroke="#1f77b4" stroke-opacity="0.55" stroke-width="0.07" points="53.713,36.494 53.633,38.492 58.430,38.683 58.509,36.685"/>
<polygon fill="#1f77b4" fill-opacity="0.140" stroke="#1f77b4" stroke-opacity="0.55" stroke-width="0.07" points="52.309,36.464 52.248,38.463 57.046,38.609 57.107,36.610"/>
<polygon fill="#1f77b4" fill-opacity="0.140" stroke="#1f77b4" stroke-opacity="0.55" stroke-width="0.07" points="50.895,36.476 50.870,38.475 55.670,38.536 55.695,36.536"/>
<polygon fill="#1f77b4" fill-opacity="0.140" stroke="#1f77b4" stroke-opacity="0.55" stroke-width="0.07" points="49.490,36.491 49.486,38.491 54.285,38.501 54.290,36.501"/>
<polygon fill="#1f77b4" fill-opacity="0.140" stroke="#1f77b4" stroke-opacity="0.55" stroke-width="0.07" points="48.091,36.499 48.094,38.499 52.894,38.493 52.891,36.493"/>
<polygon fill="#1f77b4" fill-opacity="0.140" stroke="#1f77b4" stroke-opacity="0.55" stroke-width="0.07" points="46.696,36.501 46.699,38.501 51.499,38.495 51.496,36.495"/>
<polygon fill="#1f77b4" fill-opacity="0.140" stroke="#1f77b4" stroke-opacity="0.55" stroke-width="0.07" points="45.302,36.501 45.303,38.501 50.103,38.498 50.102,36.498"/>
<polygon fill="#1f77b4" fill-opacity="0.140" stroke="#1f77b4" stroke-opacity="0.55" stroke-width="0.07" points="43.908,36.501 43.908,38.501 48.708,38.500 48.708,36.500"/>
<polygon fill="#1f77b4" fill-opacity="0.140" stroke="#1f77b4" stroke-opacity="0.55" stroke-width="0.07" points="42.513,36.500 42.513,38.500 47.313,38.500 47.313,36.500"/>
<polygon fill="#1f77b4" fill-opacity="0.140" stroke="#1f77b4" stroke-opacity="0.55" stroke-width="0.07" points="41.118,36.500 41.118,38.500 45.918,38.500 45.918,36.500"/>
<polygon fill="#1f77b4" fill-opacity="0.140" stroke="#1f77b4" stroke-opacity="0.55" stroke-width="0.07" points="39.724,36.500 39.724,38.500 44.524,38.500 44.524,36.500"/>
<polygon fill="#1f77b4" fill-opacity="0.140" stroke="#1f77b4" stroke-opacity="0.55" stroke-width="0.07" points="38.485,36.500 38.485,38.500 43.285,38.500 43.285,36.500"/>
<polygon fill="#1f77b4" fill-opacity="0.140" stroke="#1f77b4" stroke-opacity="0.55" stroke-width="0.07" points="37.600,36.500 37.600,38.500 42.400,38.500 42.400,36.500"/>
<polygon fill="#1f77b4" fill-opacity="0.140" stroke="#1f77b4" stroke-opacity="0.55" stroke-width="0.07" points="37.017,36.500 37.017,38.500 41.817,38.500 41.817,36.500"/>
<polygon fill="#1f77b4" fill-opacity="0.140" stroke="#1f77b4" stroke-opacity="0.55" stroke-width="0.07" points="36.631,36.500 36.631,38.500 41.431,38.500 41.431,36.500"/>
<polygon fill="#1f77b4" fill-opacity="0.140" stroke="#1f77b4" stroke-opacity="0.55" stroke-width="0.07" points="36.538,36.500 36.538,38.500 41.338,38.500 41.338,36.500"/>
<polygon fill="#ff7f0e" fill-opacity="0.160" stroke="#ff7f0e" stroke-opacity="0.55" stroke-width="0.07" points="36.542,36.500 36.542,38.500 41.342,38.500 41.342,36.500"/>
<polygon fill="#ff7f0e" fill-opacity="0.160" stroke="#ff7f0e" stroke-opacity="0.55" stroke-width="0.07" points="36.875,36.714 37.063,38.705 41.842,38.254 41.654,36.263"/>
<polygon fill="#ff7f0e" fill-opacity="0.160" stroke="#ff7f0e" stroke-opacity="0.55" stroke-width="0.07" points="37.408,37.023 37.921,38.957 42.561,37.727 42.048,35.794"/>
<polygon fill="#ff7f0e" fill-opacity="0.160" stroke="#ff7f0e" stroke-opacity="0.55" stroke-width="0.07" points="38.016,37.250 38.854,39.066 43.213,37.054 42.374,35.238"/>
<polygon fill="#ff7f0e" fill-opacity="0.160" stroke="#ff7f0e" stroke-opacity="0.55" stroke-width="0.07" points="38.659,37.369 39.800,39.011 43.742,36.272 42.600,34.629"/>
<polygon fill="#ff7f0e" fill-opacity="0.160" stroke="#ff7f0e" stroke-opacity="0.55" stroke-width="0.07" points="39.313,37.374 40.723,38.792 44.127,35.409 42.717,33.990"/>
<polygon fill="#ff7f0e" fill-opacity="0.160" stroke="#ff7f0e" stroke-opacity="0.55" stroke-width="0.07" points="39.958,37.265 41.593,38.416 44.357,34.491 42.721,33.340"/>
<polygon fill="#ff7f0e" fill-opacity="0.160" stroke="#ff7f0e" stroke-opacity="0.55" stroke-width="0.07" points="40.574,37.045 42.385,37.894 44.423,33.548 42.612,32.699"/>
<polygon fill="#ff7f0e" fill-opacity="0.160" stroke="#ff7f0e" stroke-opacity="0.55" stroke-width="0.07" points="41.134,36.714 43.062,37.244 44.335,32.616 42.407,32.086"/>
<polygon fill="#ff7f0e" fill-opacity="0.160" stroke="#ff7f0e" stroke-opacity="0.55" stroke-width="0.07" points="41.605,36.279 43.593,36.499 44.122,31.728 42.134,31.508"/>
<polygon fill="#ff7f0e" fill-opacity="0.160" stroke="#ff7f0e" stroke-opacity="0.55" stroke-width="0.07" points="41.899,35.732 43.899,35.727 43.888,30.927 41.888,30.932"/>
<polygon fill="#ff7f0e" fill-opacity="0.160" stroke="#ff7f0e" stroke-opacity="0.55" stroke-width="0.07" points="41.898,35.057 43.898,35.052 43.887,30.252 41.887,30.257"/>
<polygon fill="#ff7f0e" fill-opacity="0.160" stroke="#ff7f0e" stroke-opacity="0.55" stroke-width="0.07" points="41.896,34.385 43.896,34.380 43.885,29.580 41.885,29.585"/>
<polygon fill="#ff7f0e" fill-opacity="0.160" stroke="#ff7f0e" stroke-opacity="0.55" stroke-width="0.07" points="41.895,33.768 43.895,33.763 43.884,28.963 41.884,28.968"/>
<polygon fill="#ff7f0e" fill-opacity="0.160" stroke="#ff7f0e" stroke-opacity="0.55" stroke-width="0.07" points="41.894,33.244 43.894,33.240 43.882,28.440 41.882,28.444"/>
<polygon fill="#ff7f0e" fill-opacity="0.160" stroke="#ff7f0e" stroke-opacity="0.55" stroke-width="0.07" points="41.893,32.808 43.893,32.803 43.881,28.003 41.881,28.008"/>
<polygon fill="#ff7f0e" fill-opacity="0.160" stroke="#ff7f0e" stroke-opacity="0.55" stroke-width="0.07" points="41.892,32.444 43.892,32.439 43.880,27.639 41.880,27.644"/>
<polygon fill="#ff7f0e" fill-opacity="0.160" stroke="#ff7f0e" stroke-opacity="0.55" stroke-width="0.07" points="41.891,32.120 43.891,32.115 43.880,27.315 41.880,27.320"/>
<polygon fill="#ff7f0e" fill-opacity="0.160" stroke="#ff7f0e" stroke-opacity="0.55" stroke-width="0.07" points="41.890,31.804 43.890,31.799 43.879,26.999 41.879,27.004"/>
<polygon fill="#ff7f0e" fill-opacity="0.160" stroke="#ff7f0e" stroke-opacity="0.55" stroke-width="0.07" points="41.889,31.488 43.889,31.484 43.878,26.684 41.878,26.689"/>
<polygon fill="#ff7f0e" fill-opacity="0.160" stroke="#ff7f0e" stroke-opacity="0.55" stroke-width="0.07" points="41.889,31.173 43.889,31.169 43.877,26.369 41.877,26.373"/>
<polygon fill="#ff7f0e" fill-opacity="0.160" stroke="#ff7f0e" stroke-opacity="0.55" stroke-width="0.07" points="41.888,30.858 43.888,30.854 43.877,26.054 41.877,26.058"/>
<polygon fill="#ff7f0e" fill-opacity="0.160" stroke="#ff7f0e" stroke-opacity="0.55" stroke-width="0.07" points="41.888,30.736 43.888,30.731 43.876,25.931 41.876,25.936"/>
<polygon fill="none" stroke="crimson" stroke-width="0.120" points="41.888,30.736 43.888,30.731 43.876,25.931 41.876,25.936"/>
</g>
</svg>
