<?xml version="1.0" encoding="UTF-8"?>
<svg xmlns="http://www.w3.org/2000/svg" width="1400" height="900" viewBox="0 -3 75 53">
<rect x="0" y="-3" width="75" height="53" fill="white"/>
<text x="1.5" y="-1.35" font-size="1.15" fill="black">Parking | target row=3 idx=9 | success=true sim_ok=true | max_steer=35 deg | overshoot~=5 m | total(ref)~=7e+01 m</text>
<text x="1.5" y="-0.45" font-size="0.95" fill="black">ok</text>
<g transform="translate(0,50.000) scale(1,-1)">
<rect x="0" y="0" width="75.000" height="50.000" fill="none" stroke="black" stroke-width="0.15"/>
<rect x="0.000" y="9.000" width="75.000" height="6.000" fill="#add8e6" fill-opacity="0.25" stroke="#add8e6" stroke-width="0.08"/>
<rect x="0.000" y="34.500" width="75.000" height="6.000" fill="#add8e6" fill-opacity="0.25" stroke="#add8e6" stroke-width="0.08"/>
<rect x="60.000" y="12.000" width="6.000" height="25.500" fill="#90ee90" fill-opacity="0.25" stroke="#90ee90" stroke-width="0.08"/>
<rect x="12.000" y="44.000" width="4.800" height="6.000" fill="white" stroke="gray" stroke-width="0.080" fill-opacity="0.85"/>
<rect x="16.800" y="44.000" width="4.800" height="6.000" fill="white" stroke="gray" stroke-width="0.080" fill-opacity="0.85"/>
<rect x="21.600" y="44.000" width="4.800" height="6.000" fill="black" stroke="gray" stroke-width="0.080" fill-opacity="0.95"/>
<rect x="26.400" y="44.000" width="4.800" height="6.000" fill="black" stroke="gray" stroke-width="0.080" fill-opacity="0.95"/>
<rect x="31.200" y="44.000" width="4.800" height="6.000" fill="white" stroke="gray" stroke-width="0.080" fill-opacity="0.85"/>
<rect x="36.000" y="44.000" width="4.800" height="6.000" fill="white" stroke="gray" stroke-width="0.080" fill-opacity="0.85"/>
<rect x="40.800" y="44.000" width="4.800" height="6.000" fill="white" stroke="gray" stroke-width="0.080" fill-opacity="0.85"/>
<rect x="45.600" y="44.000" width="4.800" height="6.000" fill="white" stroke="gray" stroke-width="0.080" fill-opacity="0.85"/>
<rect x="50.400" y="44.000" width="4.800" height="6.000" fill="black" stroke="gray" stroke-width="0.080" fill-opacity="0.95"/>
<rect x="55.200" y="44.000" width="4.800" height="6.000" fill="white" stroke="gray" stroke-width="0.080" fill-opacity="0.85"/>
<rect x="12.000" y="25.000" width="4.800" height="6.000" fill="black" stroke="gray" stroke-width="0.080" fill-opacity="0.95"/>
<rect x="16.800" y="25.000" width="4.800" height="6.000" fill="black" stroke="gray" stroke-width="0.080" fill-opacity="0.95"/>
<rect x="21.600" y="25.000" width="4.800" height="6.000" fill="black" stroke="gray" stroke-width="0.080" fill-opacity="0.95"/>
<rect x="26.400" y="25.000" width="4.800" height="6.000" fill="white" stroke="gray" stroke-width="0.080" fill-opacity="0.85"/>
<rect x="31.200" y="25.000" width="4.800" height="6.000" fill="white" stroke="gray" stroke-width="0.080" fill-opacity="0.85"/>
<rect x="36.000" y="25.000" width="4.800" height="6.000" fill="black" stroke="gray" stroke-width="0.080" fill-opacity="0.95"/>
<rect x="40.800" y="25.000" width="4.800" height="6.000" fill="white" stroke="gray" stroke-width="0.080" fill-opacity="0.85"/>
<rect x="45.600" y="25.000" width="4.800" height="6.000" fill="black" stroke="gray" stroke-width="0.080" fill-opacity="0.95"/>
<rect x="50.400" y="25.000" width="4.800" height="6.000" fill="white" stroke="gray" stroke-width="0.080" fill-opacity="0.85"/>
<rect x="55.200" y="25.000" width="4.800" height="6.000" fill="white" stroke="gray" stroke-width="0.080" fill-opacity="0.85"/>
<rect x="12.000" y="19.000" width="4.800" height="6.000" fill="white" stroke="gray" stroke-width="0.080" fill-opacity="0.85"/>
<rect x="16.800" y="19.000" width="4.800" height="6.000" fill="white" stroke="gray" stroke-width="0.080" fill-opacity="0.85"/>
<rect x="21.600" y="19.000" width="4.800" height="6.000" fill="white" stroke="gray" stroke-width="0.080" fill-opacity="0.85"/>
<rect x="26.400" y="19.000" width="4.800" height="6.000" fill="white" stroke="gray" stroke-width="0.080" fill-opacity="0.85"/>
<rect x="31.200" y="19.000" width="4.800" height="6.000" fill="black" stroke="gray" stroke-width="0.080" fill-opacity="0.95"/>
<rect x="36.000" y="19.000" width="4.800" height="6.000" fill="white" stroke="gray" stroke-width="0.080" fill-opacity="0.85"/>
<rect x="40.800" y="19.000" width="4.800" height="6.000" fill="white" stroke="gray" stroke-width="0.080" fill-opacity="0.85"/>
<rect x="45.600" y="19.000" width="4.800" height="6.000" fill="white" stroke="gray" stroke-width="0.080" fill-opacity="0.85"/>
<rect x="50.400" y="19.000" width="4.800" height="6.000" fill="black" stroke="gray" stroke-width="0.080" fill-opacity="0.95"/>
<rect x="55.200" y="19.000" width="4.800" height="6.000" fill="white" stroke="gray" stroke-width="0.080" fill-opacity="0.85"/>
<rect x="12.000" y="0.000" width="4.800" height="6.000" fill="white" stroke="gray" stroke-width="0.080" fill-opacity="0.85"/>
<rect x="16.800" y="0.000" width="4.800" height="6.000" fill="white" stroke="gray" stroke-width="0.080" fill-opacity="0.85"/>
<rect x="21.600" y="0.000" width="4.800" height="6.000" fill="black" stroke="gray" stroke-width="0.080" fill-opacity="0.95"/>
<rect x="26.400" y="0.000" width="4.800" height="6.000" fill="white" stroke="gray" stroke-width="0.080" fill-opacity="0.85"/>
<rect x="31.200" y="0.000" width="4.800" height="6.000" fill="black" stroke="gray" stroke-width="0.080" fill-opacity="0.95"/>
<rect x="36.000" y="0.000" width="4.800" height="6.000" fill="white" stroke="gray" stroke-width="0.080" fill-opacity="0.85"/>
<rect x="40.800" y="0.000" width="4.800" height="6.000" fill="black" stroke="gray" stroke-width="0.080" fill-opacity="0.95"/>
<rect x="45.600" y="0.000" width="4.800" height="6.000" fill="white" stroke="gray" stroke-width="0.080" fill-opacity="0.85"/>
<rect x="50.400" y="0.000" width="4.800" height="6.000" fill="white" stroke="gray" stroke-width="0.080" fill-opacity="0.85"/>
<rect x="55.200" y="0.000" width="4.800" height="6.000" fill="#98fb98" stroke="darkgreen" stroke-width="0.180" fill-opacity="0.85"/>
<polygon fill="none" stroke="navy" stroke-width="0.120" points="6.400,13.000 6.400,11.000 1.600,11.000 1.600,13.000"/>
<polygon fill="purple" points="54.820,12.000 55.100,12.350 55.380,12.000 55.100,11.650"/>
<circle cx="62.400" cy="12.000" r="0.38" fill="darkviolet" stroke="indigo" stroke-width="0.06"/>
<polyline fill="none" stroke="#808080" stroke-width="0.120" stroke-opacity="0.65" stroke-dasharray="0.45 0.35" points="4.000,12.000 55.100,12.000 62.400,12.000"/>
<polyline fill="none" stroke="#808080" stroke-width="0.120" stroke-opacity="0.65" stroke-dasharray="0.45 0.35" points="62.400,12.000 62.400,11.835 62.392,11.667 62.377,11.496 62.354,11.323 62.324,11.146 62.287,10.968 62.244,10.786 62.194,10.603 62.138,10.417 62.076,10.230 62.008,10.041 61.934,9.850 61.856,9.658 61.772,9.464 61.683,9.269 61.589,9.073 61.491,8.877 61.389,8.679 61.283,8.481 61.173,8.283 61.060,8.084 60.943,7.885 60.823,7.686 60.700,7.487 60.575,7.289 60.447,7.091 60.317,6.893 60.185,6.697 60.051,6.501 59.916,6.306 59.779,6.113 59.642,5.921 59.503,5.730 59.364,5.541 59.224,5.354 59.085,5.168 58.945,4.985 58.806,4.804 58.667,4.625 58.529,4.449 58.391,4.276 58.255,4.105 58.120,3.938 57.987,3.773 57.856,3.612 57.727,3.454 57.600,3.300"/>
<polyline fill="none" stroke="#1f77b4" stroke-width="0.220" stroke-opacity="0.95" points="4.008,12.000 4.022,12.000 4.043,12.000 4.070,12.000 4.102,12.000 4.138,12.000 4.179,12.000 4.223,12.000 4.270,12.000 4.321,12.000 4.374,12.000 4.429,12.000 4.487,12.000 4.547,12.000 4.609,12.000 4.672,12.000 4.736,12.000 4.802,12.000 4.869,12.000 4.937,12.000 5.006,12.000 5.076,12.000 5.147,12.000 5.218,12.000 5.290,12.000 5.363,12.000 5.436,12.000 5.509,12.000 5.583,12.000 5.657,12.000 5.732,12.000 5.806,12.000 5.882,12.000 5.957,12.000 6.032,12.000 6.108,12.000 6.184,12.000 6.260,12.000 6.336,12.000 6.413,12.000 6.489,12.000 6.566,12.000 6.643,12.000 6.719,12.000 6.796,12.000 6.873,12.000 6.950,12.000 7.027,12.000 7.104,12.000 7.181,12.000 7.258,12.000 7.335,12.000 7.413,12.000 7.490,12.000 7.567,12.000 7.644,12.000 7.722,12.000 7.799,12.000 7.876,12.000 7.954,12.000 8.031,12.000 8.109,12.000 8.186,12.000 8.263,12.000 8.341,12.000 8.418,12.000 8.496,12.000 8.573,12.000 8.650,12.000 8.728,12.000 8.805,12.000 8.883,12.000 8.960,12.000 9.038,12.000 9.115,12.000 9.193,12.000 9.270,12.000 9.348,12.000 9.425,12.000 9.503,12.000 9.580,12.000 9.658,12.000 9.735,12.000 9.813,12.000 9.890,12.000 9.968,12.000 10.045,12.000 10.123,12.000 10.200,12.000 10.278,12.000 10.355,12.000 10.433,12.000 10.510,12.000 10.588,12.000 10.665,12.000 10.743,12.000 10.820,12.000 10.898,12.000 10.975,12.000 11.053,12.000 11.130,12.000 11.208,12.000 11.285,12.000 11.363,12.000 11.440,12.000 11.518,12.000 11.595,12.000 11.673,12.000 11.750,12.000 11.828,12.000 11.905,12.000 11.983,12.000 12.060,12.000 12.138,12.000 12.215,12.000 12.293,12.000 12.370,12.000 12.448,12.000 12.525,12.000 12.603,12.000 12.680,12.000 12.758,12.000 12.835,12.000 12.913,12.000 12.990,12.000 13.068,12.000 13.145,12.000 13.223,12.000 13.300,12.000 13.378,12.000 13.455,12.000 13.533,12.000 13.610,12.000 13.688,12.000 13.765,12.000 13.843,12.000 13.920,12.000 13.998,12.000 14.075,12.000 14.153,12.000 14.230,12.000 14.308,12.000 14.385,12.000 14.463,12.000 14.540,12.000 14.618,12.000 14.695,12.000 14.773,12.000 14.850,12.000 14.928,12.000 15.005,12.000 15.083,12.000 15.160,12.000 15.238,12.000 15.315,12.000 15.393,12.000 15.470,12.000 15.548,12.000 15.625,12.000 15.703,12.000 15.780,12.000 15.858,12.000 15.935,12.000 16.013,12.000 16.090,12.000 16.168,12.000 16.245,12.000 16.323,12.000 16.400,12.000 16.478,12.000 16.555,12.000 16.633,12.000 16.710,12.000 16.788,12.000 16.865,12.000 16.943,12.000 17.020,12.000 17.098,12.000 17.175,12.000 17.253,12.000 17.330,12.000 17.408,12.000 17.485,12.000 17.563,12.000 17.640,12.000 17.718,12.000 17.795,12.000 17.873,12.000 17.950,12.000 18.028,12.000 18.105,12.000 18.183,12.000 18.260,12.000 18.338,12.000 18.415,12.000 18.493,12.000 18.570,12.000 18.648,12.000 18.725,12.000 18.803,12.000 18.880,12.000 18.958,12.000 19.035,12.000 19.113,12.000 19.190,12.000 19.268,12.000 19.345,12.000 19.423,12.000 19.500,12.000 19.578,12.000 19.655,12.000 19.733,12.000 19.810,12.000 19.888,12.000 19.965,12.000 20.043,12.000 20.120,12.000 20.198,12.000 20.275,12.000 20.353,12.000 20.430,12.000 20.508,12.000 20.585,12.000 20.663,12.000 20.740,12.000 20.818,12.000 20.895,12.000 20.973,12.000 21.050,12.000 21.128,12.000 21.205,12.000 21.283,12.000 21.360,12.000 21.438,12.000 21.515,12.000 21.593,12.000 21.670,12.000 21.748,12.000 21.825,12.000 21.903,12.000 21.980,12.000 22.058,12.000 22.135,12.000 22.213,12.000 22.290,12.000 22.368,12.000 22.445,12.000 22.523,12.000 22.600,12.000 22.678,12.000 22.755,12.000 22.833,12.000 22.910,12.000 22.988,12.000 23.065,12.000 23.143,12.000 23.220,12.000 23.298,12.000 23.375,12.000 23.453,12.000 23.530,12.000 23.608,12.000 23.685,12.000 23.763,12.000 23.840,12.000 23.918,12.000 23.995,12.000 24.073,12.000 24.150,12.000 24.228,12.000 24.305,12.000 24.383,12.000 24.460,12.000 24.538,12.000 24.615,12.000 24.693,12.000 24.770,12.000 24.848,12.000 24.925,12.000 25.003,12.000 25.080,12.000 25.158,12.000 25.235,12.000 25.313,12.000 25.390,12.000 25.468,12.000 25.545,12.000 25.623,12.000 25.700,12.000 25.778,12.000 25.855,12.000 25.933,12.000 26.010,12.000 26.088,12.000 26.165,12.000 26.243,12.000 26.320,12.000 26.398,12.000 26.475,12.000 26.553,12.000 26.630,12.000 26.708,12.000 26.785,12.000 26.863,12.000 26.940,12.000 27.018,12.000 27.095,12.000 27.173,12.000 27.250,12.000 27.328,12.000 27.405,12.000 27.483,12.000 27.560,12.000 27.638,12.000 27.715,12.000 27.793,12.000 27.870,12.000 27.948,12.000 28.025,12.000 28.103,12.000 28.180,12.000 28.258,12.000 28.335,12.000 28.413,12.000 28.490,12.000 28.568,12.000 28.645,12.000 28.723,12.000 28.800,12.000 28.878,12.000 28.955,12.000 29.033,12.000 29.110,12.000 29.188,12.000 29.265,12.000 29.343,12.000 29.420,12.000 29.498,12.000 29.575,12.000 29.653,12.000 29.730,12.000 29.808,12.000 29.885,12.000 29.963,12.000 30.040,12.000 30.118,12.000 30.195,12.000 30.273,12.000 30.350,12.000 30.428,12.000 30.505,12.000 30.583,12.000 30.660,12.000 30.738,12.000 30.815,12.000 30.893,12.000 30.970,12.000 31.048,12.000 31.125,12.000 31.203,12.000 31.280,12.000 31.358,12.000 31.435,12.000 31.513,12.000 31.590,12.000 31.668,12.000 31.745,12.000 31.823,12.000 31.900,12.000 31.978,12.000 32.055,12.000 32.133,12.000 32.210,12.000 32.288,12.000 32.365,12.000 32.443,12.000 32.520,12.000 32.598,12.000 32.675,12.000 32.753,12.000 32.830,12.000 32.908,12.000 32.985,12.000 33.063,12.000 33.140,12.000 33.218,12.000 33.295,12.000 33.373,12.000 33.450,12.000 33.528,12.000 33.605,12.000 33.683,12.000 33.760,12.000 33.838,12.000 33.915,12.000 33.993,12.000 34.070,12.000 34.148,12.000 34.225,12.000 34.303,12.000 34.380,12.000 34.458,12.000 34.535,12.000 34.613,12.000 34.690,12.000 34.768,12.000 34.845,12.000 34.923,12.000 35.000,12.000 35.078,12.000 35.155,12.000 35.233,12.000 35.310,12.000 35.388,12.000 35.465,12.000 35.543,12.000 35.620,12.000 35.698,12.000 35.775,12.000 35.853,12.000 35.930,12.000 36.008,12.000 36.085,12.000 36.163,12.000 36.240,12.000 36.318,12.000 36.395,12.000 36.473,12.000 36.550,12.000 36.628,12.000 36.705,12.000 36.783,12.000 36.860,12.000 36.938,12.000 37.015,12.000 37.093,12.000 37.170,12.000 37.248,12.000 37.325,12.000 37.403,12.000 37.480,12.000 37.558,12.000 37.635,12.000 37.713,12.000 37.790,12.000 37.868,12.000 37.945,12.000 38.023,12.000 38.100,12.000 38.178,12.000 38.255,12.000 38.333,12.000 38.410,12.000 38.488,12.000 38.565,12.000 38.643,12.000 38.720,12.000 38.798,12.000 38.875,12.000 38.953,12.000 39.030,12.000 39.108,12.000 39.185,12.000 39.263,12.000 39.340,12.000 39.418,12.000 39.495,12.000 39.573,12.000 39.650,12.000 39.728,12.000 39.805,12.000 39.883,12.000 39.960,12.000 40.038,12.000 40.115,12.000 40.193,12.000 40.270,12.000 40.348,12.000 40.425,12.000 40.503,12.000 40.580,12.000 40.658,12.000 40.735,12.000 40.813,12.000 40.890,12.000 40.968,12.000 41.045,12.000 41.123,12.000 41.200,12.000 41.278,12.000 41.355,12.000 41.433,12.000 41.510,12.000 41.588,12.000 41.665,12.000 41.743,12.000 41.820,12.000 41.898,12.000 41.975,12.000 42.053,12.000 42.130,12.000 42.208,12.000 42.285,12.000 42.363,12.000 42.440,12.000 42.518,12.000 42.595,12.000 42.673,12.000 42.750,12.000 42.828,12.000 42.905,12.000 42.983,12.000 43.060,12.000 43.138,12.000 43.215,12.000 43.293,12.000 43.370,12.000 43.448,12.000 43.525,12.000 43.603,12.000 43.680,12.000 43.758,12.000 43.835,12.000 43.913,12.000 43.990,12.000 44.068,12.000 44.145,12.000 44.223,12.000 44.300,12.000 44.378,12.000 44.455,12.000 44.533,12.000 44.610,12.000 44.688,12.000 44.765,12.000 44.843,12.000 44.920,12.000 44.998,12.000 45.075,12.000 45.153,12.000 45.230,12.000 45.308,12.000 45.385,12.000 45.463,12.000 45.540,12.000 45.618,12.000 45.695,12.000 45.773,12.000 45.850,12.000 45.928,12.000 46.005,12.000 46.083,12.000 46.160,12.000 46.238,12.000 46.315,12.000 46.393,12.000 46.470,12.000 46.548,12.000 46.625,12.000 46.703,12.000 46.780,12.000 46.858,12.000 46.935,12.000 47.013,12.000 47.090,12.000 47.168,12.000 47.245,12.000 47.323,12.000 47.400,12.000 47.478,12.000 47.555,12.000 47.633,12.000 47.710,12.000 47.788,12.000 47.865,12.000 47.943,12.000 48.020,12.000 48.098,12.000 48.175,12.000 48.253,12.000 48.330,12.000 48.408,12.000 48.485,12.000 48.563,12.000 48.640,12.000 48.718,12.000 48.795,12.000 48.873,12.000 48.950,12.000 49.028,12.000 49.105,12.000 49.183,12.000 49.260,12.000 49.338,12.000 49.415,12.000 49.493,12.000 49.570,12.000 49.648,12.000 49.725,12.000 49.803,12.000 49.880,12.000 49.958,12.000 50.035,12.000 50.113,12.000 50.190,12.000 50.268,12.000 50.345,12.000 50.423,12.000 50.500,12.000 50.578,12.000 50.655,12.000 50.733,12.000 50.810,12.000 50.888,12.000 50.965,12.000 51.043,12.000 51.120,12.000 51.198,12.000 51.275,12.000 51.353,12.000 51.430,12.000 51.508,12.000 51.585,12.000 51.663,12.000 51.740,12.000 51.818,12.000 51.895,12.000 51.973,12.000 52.050,12.000 52.128,12.000 52.205,12.000 52.283,12.000 52.360,12.000 52.438,12.000 52.515,12.000 52.593,12.000 52.670,12.000 52.748,12.000 52.825,12.000 52.903,12.000 52.980,12.000 53.058,12.000 53.135,12.000 53.213,12.000 53.290,12.000 53.368,12.000 53.445,12.000 53.523,12.000 53.600,12.000 53.678,12.000 53.755,12.000 53.833,12.000 53.910,12.000 53.988,12.000 54.065,12.000 54.143,12.000 54.220,12.000 54.298,12.000 54.375,12.000 54.453,12.000 54.530,12.000 54.608,12.000 54.685,12.000 54.763,12.000 54.840,12.000 54.918,12.000 54.995,12.000 55.073,12.000 55.150,12.000 55.228,12.000 55.305,12.000 55.383,12.000 55.460,12.000 55.538,12.000 55.615,12.000 55.693,12.000 55.770,12.000 55.848,12.000 55.925,12.000 56.003,12.000 56.080,12.000 56.158,12.000 56.235,12.000 56.313,12.000 56.390,12.000 56.468,12.000 56.545,12.000 56.623,12.000 56.700,12.000 56.778,12.000 56.855,12.000 56.933,12.000 57.010,12.000 57.088,12.000 57.165,12.000 57.243,12.000 57.320,12.000 57.398,12.000 57.475,12.000 57.553,12.000 57.630,12.000 57.708,12.000 57.785,12.000 57.863,12.000 57.940,12.000 58.018,12.000 58.095,12.000 58.173,12.000 58.250,12.000 58.328,12.000 58.405,12.000 58.482,12.000 58.560,12.000 58.637,12.000 58.713,12.000 58.790,12.000 58.865,12.000 58.940,12.000 59.014,12.000 59.087,12.000 59.159,12.000 59.231,12.000 59.301,12.000 59.370,12.000 59.439,12.000 59.506,12.000 59.572,12.000 59.637,12.000 59.700,12.000 59.763,12.000 59.825,12.000 59.885,12.000 59.944,12.000 60.002,12.000 60.059,12.000 60.115,12.000 60.169,12.000 60.223,12.000 60.275,12.000 60.326,12.000 60.376,12.000 60.425,12.000 60.473,12.000 60.520,12.000 60.566,12.000 60.611,12.000 60.654,12.000 60.697,12.000 60.739,12.000 60.780,12.000 60.820,12.000 60.859,12.000 60.897,12.000 60.934,12.000 60.970,12.000 61.006,12.000 61.040,12.000 61.074,12.000 61.107,12.000 61.139,12.000 61.171,12.000 61.201,12.000 61.231,12.000 61.260,12.000 61.289,12.000 61.316,12.000 61.344,12.000 61.370,12.000 61.396,12.000 61.421,12.000 61.445,12.000 61.469,12.000 61.493,12.000 61.515,12.000 61.538,12.000 61.559,12.000 61.581,12.000 61.602,12.000 61.622,12.000 61.643,12.000 61.663,12.000 61.682,12.000 61.702,12.000 61.721,12.000 61.740,12.000 61.759,12.000 61.778,12.000 61.797,12.000 61.816,12.000 61.834,12.000 61.852,12.000"/>
<polyline fill="none" stroke="#ff7f0e" stroke-width="0.220" stroke-opacity="0.95" points="61.849,12.000 61.842,12.000 61.831,12.000 61.819,12.000 61.803,12.000 61.786,12.000 61.766,12.000 61.745,12.000 61.722,11.999 61.697,11.999 61.672,11.998 61.645,11.997 61.617,11.996 61.588,11.995 61.558,11.993 61.528,11.991 61.496,11.989 61.465,11.987 61.432,11.984 61.400,11.981 61.366,11.977 61.333,11.974 61.299,11.970 61.265,11.965 61.230,11.960 61.195,11.955 61.160,11.950 61.125,11.944 61.090,11.938 61.055,11.931 61.020,11.924 60.984,11.917 60.949,11.909 60.913,11.901 60.877,11.893 60.842,11.884 60.806,11.875 60.771,11.866 60.735,11.856 60.699,11.846 60.664,11.835 60.629,11.825 60.593,11.813 60.558,11.802 60.523,11.790 60.488,11.778 60.453,11.765 60.418,11.752 60.383,11.739 60.348,11.725 60.313,11.711 60.279,11.697 60.245,11.682 60.210,11.667 60.176,11.652 60.142,11.636 60.108,11.620 60.075,11.604 60.041,11.587 60.008,11.570 59.975,11.553 59.942,11.535 59.909,11.517 59.876,11.499 59.844,11.480 59.811,11.461 59.779,11.442 59.747,11.423 59.715,11.403 59.684,11.383 59.652,11.362 59.621,11.341 59.590,11.320 59.560,11.299 59.529,11.277 59.499,11.255 59.468,11.233 59.439,11.210 59.409,11.187 59.379,11.164 59.350,11.141 59.321,11.117 59.292,11.093 59.264,11.069 59.235,11.044 59.207,11.019 59.179,10.994 59.152,10.969 59.124,10.943 59.097,10.917 59.070,10.891 59.044,10.865 59.018,10.838 58.991,10.811 58.966,10.784 58.940,10.757 58.915,10.729 58.890,10.701 58.865,10.673 58.841,10.644 58.816,10.616 58.793,10.587 58.769,10.558 58.746,10.528 58.723,10.499 58.700,10.469 58.677,10.439 58.655,10.409 58.633,10.378 58.612,10.347 58.590,10.317 58.569,10.286 58.549,10.254 58.528,10.223 58.508,10.191 58.488,10.159 58.469,10.127 58.450,10.095 58.431,10.063 58.412,10.030 58.394,9.997 58.376,9.964 58.359,9.931 58.342,9.898 58.325,9.864 58.308,9.831 58.292,9.797 58.276,9.763 58.260,9.729 58.244,9.695 58.229,9.660 58.215,9.626 58.200,9.591 58.186,9.557 58.172,9.522 58.159,9.487 58.146,9.452 58.133,9.416 58.120,9.381 58.108,9.346 58.096,9.310 58.084,9.275 58.073,9.239 58.062,9.203 58.051,9.167 58.041,9.131 58.031,9.095 58.021,9.059 58.012,9.022 58.002,8.986 57.994,8.949 57.985,8.913 57.977,8.876 57.969,8.840 57.961,8.803 57.954,8.766 57.947,8.729 57.940,8.692 57.934,8.656 57.928,8.619 57.922,8.581 57.917,8.544 57.911,8.507 57.906,8.470 57.902,8.433 57.898,8.396 57.894,8.358 57.890,8.321 57.886,8.284 57.883,8.246 57.880,8.209 57.878,8.172 57.876,8.134 57.874,8.097 57.872,8.059 57.870,8.022 57.869,7.984 57.868,7.947 57.868,7.909 57.867,7.872 57.867,7.834 57.867,7.797 57.867,7.759 57.867,7.722 57.867,7.684 57.867,7.647 57.868,7.609 57.868,7.572 57.868,7.534 57.868,7.497 57.868,7.459 57.868,7.422 57.868,7.384 57.868,7.347 57.869,7.309 57.869,7.272 57.869,7.234 57.869,7.197 57.869,7.159 57.869,7.122 57.869,7.085 57.869,7.048 57.870,7.011 57.870,6.975 57.870,6.938 57.870,6.902 57.870,6.866 57.870,6.831 57.870,6.795 57.870,6.760 57.870,6.725 57.871,6.690 57.871,6.656 57.871,6.622 57.871,6.588 57.871,6.555 57.871,6.521 57.871,6.488 57.871,6.456 57.871,6.423 57.872,6.391 57.872,6.360 57.872,6.328 57.872,6.297 57.872,6.266 57.872,6.236 57.872,6.205 57.872,6.175 57.872,6.146 57.873,6.116 57.873,6.087 57.873,6.058 57.873,6.030 57.873,6.001 57.873,5.973 57.873,5.946 57.873,5.918 57.873,5.891 57.873,5.864 57.873,5.838 57.874,5.811 57.874,5.785 57.874,5.759 57.874,5.734 57.874,5.709 57.874,5.684 57.874,5.659 57.874,5.634 57.874,5.610 57.874,5.586 57.874,5.562 57.874,5.539 57.874,5.515 57.875,5.492 57.875,5.469 57.875,5.447 57.875,5.424 57.875,5.402 57.875,5.380 57.875,5.359 57.875,5.337 57.875,5.316 57.875,5.295 57.875,5.274 57.875,5.253 57.875,5.233 57.875,5.213 57.876,5.193 57.876,5.173 57.876,5.154 57.876,5.134 57.876,5.115 57.876,5.096 57.876,5.077 57.876,5.058 57.876,5.040 57.876,5.021 57.876,5.003 57.876,4.985 57.876,4.966 57.876,4.948 57.876,4.930 57.876,4.912 57.877,4.894 57.877,4.876 57.877,4.858 57.877,4.841 57.877,4.823 57.877,4.805 57.877,4.787 57.877,4.769 57.877,4.752 57.877,4.734 57.877,4.716 57.877,4.699 57.877,4.681 57.877,4.663 57.877,4.646 57.877,4.628 57.877,4.611 57.878,4.593 57.878,4.576 57.878,4.558 57.878,4.540 57.878,4.523 57.878,4.505 57.878,4.488 57.878,4.470 57.878,4.453 57.878,4.435 57.878,4.418 57.878,4.400 57.878,4.383 57.878,4.365 57.878,4.348 57.878,4.330 57.878,4.313 57.879,4.295 57.879,4.278 57.879,4.260 57.879,4.242 57.879,4.225 57.879,4.207 57.879,4.190 57.879,4.172 57.879,4.155 57.879,4.137 57.879,4.120 57.879,4.102 57.879,4.085 57.879,4.067 57.879,4.050 57.879,4.032 57.879,4.015 57.880,3.997 57.880,3.980 57.880,3.962 57.880,3.945 57.880,3.927 57.880,3.910 57.880,3.892 57.880,3.875 57.880,3.857 57.880,3.840 57.880,3.822 57.880,3.805 57.880,3.787 57.880,3.770 57.880,3.752 57.880,3.735 57.880,3.717 57.881,3.700 57.881,3.682 57.881,3.665 57.881,3.647 57.881,3.630 57.881,3.612 57.881,3.595 57.881,3.577 57.881,3.560 57.881,3.542 57.881,3.525 57.881,3.507 57.881,3.490 57.881,3.472 57.881,3.455 57.881,3.437 57.881,3.420 57.881,3.402 57.882,3.385 57.882,3.367 57.882,3.350"/>
<polygon fill="#1f77b4" fill-opacity="0.140" stroke="#1f77b4" stroke-opacity="0.55" stroke-width="0.07" points="6.408,13.000 6.408,11.000 1.608,11.000 1.608,13.000"/>
<polygon fill="#1f77b4" fill-opacity="0.140" stroke="#1f77b4" stroke-opacity="0.55" stroke-width="0.07" points="7.269,13.000 7.269,11.000 2.469,11.000 2.469,13.000"/>
<polygon fill="#1f77b4" fill-opacity="0.140" stroke="#1f77b4" stroke-opacity="0.55" stroke-width="0.07" points="8.584,13.000 8.584,11.000 3.784,11.000 3.784,13.000"/>
<polygon fill="#1f77b4" fill-opacity="0.140" stroke="#1f77b4" stroke-opacity="0.55" stroke-width="0.07" points="9.967,13.000 9.967,11.000 5.167,11.000 5.167,13.000"/>
<polygon fill="#1f77b4" fill-opacity="0.140" stroke="#1f77b4" stroke-opacity="0.55" stroke-width="0.07" points="11.360,13.000 11.360,11.000 6.560,11.000 6.560,13.000"/>
<polygon fill="#1f77b4" fill-opacity="0.140" stroke="#1f77b4" stroke-opacity="0.55" stroke-width="0.07" points="12.755,13.000 12.755,11.000 7.955,11.000 7.955,13.000"/>
<polygon fill="#1f77b4" fill-opacity="0.140" stroke="#1f77b4" stroke-opacity="0.55" stroke-width="0.07" points="14.150,13.000 14.150,11.000 9.350,11.000 9.350,13.000"/>
<polygon fill="#1f77b4" fill-opacity="0.140" stroke="#1f77b4" stroke-opacity="0.55" stroke-width="0.07" points="15.545,13.000 15.545,11.000 10.745,11.000 10.745,13.000"/>
<polygon fill="#1f77b4" fill-opacity="0.140" stroke="#1f77b4" stroke-opacity="0.55" stroke-width="0.07" points="16.940,13.000 16.940,11.000 12.140,11.000 12.140,13.000"/>
<polygon fill="#1f77b4" fill-opacity="0.140" stroke="#1f77b4" stroke-opacity="0.55" stroke-width="0.07" points="18.335,13.000 18.335,11.000 13.535,11.000 13.535,13.000"/>
<polygon fill="#1f77b4" fill-opacity="0.140" stroke="#1f77b4" stroke-opacity="0.55" stroke-width="0.07" points="19.730,13.000 19.730,11.000 14.930,11.000 14.930,13.000"/>
<polygon fill="#1f77b4" fill-opacity="0.140" stroke="#1f77b4" stroke-opacity="0.55" stroke-width="0.07" points="21.125,13.000 21.125,11.000 16.325,11.000 16.325,13.000"/>
<polygon fill="#1f77b4" fill-opacity="0.140" stroke="#1f77b4" stroke-opacity="0.55" stroke-width="0.07" points="22.520,13.000 22.520,11.000 17.720,11.000 17.720,13.000"/>
<polygon fill="#1f77b4" fill-opacity="0.140" stroke="#1f77b4" stroke-opacity="0.55" stroke-width="0.07" points="23.915,13.000 23.915,11.000 19.115,11.000 19.115,13.000"/>
<polygon fill="#1f77b4" fill-opacity="0.140" stroke="#1f77b4" stroke-opacity="0.55" stroke-width="0.07" points="25.310,13.000 25.310,11.000 20.510,11.000 20.510,13.000"/>
<polygon fill="#1f77b4" fill-opacity="0.140" stroke="#1f77b4" stroke-opacity="0.55" stroke-width="0.07" points="26.705,13.000 26.705,11.000 21.905,11.000 21.905,13.000"/>
<polygon fill="#1f77b4" fill-opacity="0.140" stroke="#1f77b4" stroke-opacity="0.55" stroke-width="0.07" points="28.100,13.000 28.100,11.000 23.300,11.000 23.300,13.000"/>
<polygon fill="#1f77b4" fill-opacity="0.140" stroke="#1f77b4" stroke-opacity="0.55" stroke-width="0.07" points="29.495,13.000 29.495,11.000 24.695,11.000 24.695,13.000"/>
<polygon fill="#1f77b4" fill-opacity="0.140" stroke="#1f77b4" stroke-opacity="0.55" stroke-width="0.07" points="30.890,13.000 30.890,11.000 26.090,11.000 26.090,13.000"/>
<polygon fill="#1f77b4" fill-opacity="0.140" stroke="#1f77b4" stroke-opacity="0.55" stroke-width="0.07" points="32.285,13.000 32.285,11.000 27.485,11.000 27.485,13.000"/>
<polygon fill="#1f77b4" fill-opacity="0.140" stroke="#1f77b4" stroke-opacity="0.55" stroke-width="0.07" points="33.680,13.000 33.680,11.000 28.880,11.000 28.880,13.000"/>
<polygon fill="#1f77b4" fill-opacity="0.140" stroke="#1f77b4" stroke-opacity="0.55" stroke-width="0.07" points="35.075,13.000 35.075,11.000 30.275,11.000 30.275,13.000"/>
<polygon fill="#1f77b4" fill-opacity="0.140" stroke="#1f77b4" stroke-opacity="0.55" stroke-width="0.07" points="36.470,13.000 36.470,11.000 31.670,11.000 31.670,13.000"/>
<polygon fill="#1f77b4" fill-opacity="0.140" stroke="#1f77b4" stroke-opacity="0.55" stroke-width="0.07" points="37.865,13.000 37.865,11.000 33.065,11.000 33.065,13.000"/>
<polygon fill="#1f77b4" fill-opacity="0.140" stroke="#1f77b4" stroke-opacity="0.55" stroke-width="0.07" points="39.260,13.000 39.260,11.000 34.460,11.000 34.460,13.000"/>
<polygon fill="#1f77b4" fill-opacity="0.140" stroke="#1f77b4" stroke-opacity="0.55" stroke-width="0.07" points="40.655,13.000 40.655,11.000 35.855,11.000 35.855,13.000"/>
<polygon fill="#1f77b4" fill-opacity="0.140" stroke="#1f77b4" stroke-opacity="0.55" stroke-width="0.07" points="42.050,13.000 42.050,11.000 37.250,11.000 37.250,13.000"/>
<polygon fill="#1f77b4" fill-opacity="0.140" stroke="#1f77b4" stroke-opacity="0.55" stroke-width="0.07" points="43.445,13.000 43.445,11.000 38.645,11.000 38.645,13.000"/>
<polygon fill="#1f77b4" fill-opacity="0.140" stroke="#1f77b4" stroke-opacity="0.55" stroke-width="0.07" points="44.840,13.000 44.840,11.000 40.040,11.000 40.040,13.000"/>
<polygon fill="#1f77b4" fill-opacity="0.140" stroke="#1f77b4" stroke-opacity="0.55" stroke-width="0.07" points="46.235,13.000 46.235,11.000 41.435,11.000 41.435,13.000"/>
<polygon fill="#1f77b4" fill-opacity="0.140" stroke="#1f77b4" stroke-opacity="0.55" stroke-width="0.07" points="47.630,13.000 47.630,11.000 42.830,11.000 42.830,13.000"/>
<polygon fill="#1f77b4" fill-opacity="0.140" stroke="#1f77b4" stroke-opacity="0.55" stroke-width="0.07" points="49.025,13.000 49.025,11.000 44.225,11.000 44.225,13.000"/>
<polygon fill="#1f77b4" fill-opacity="0.140" stroke="#1f77b4" stroke-opacity="0.55" stroke-width="0.07" points="50.420,13.000 50.420,11.000 45.620,11.000 45.620,13.000"/>
<polygon fill="#1f77b4" fill-opacity="0.140" stroke="#1f77b4" stroke-opacity="0.55" stroke-width="0.07" points="51.815,13.000 51.815,11.000 47.015,11.000 47.015,13.000"/>
<polygon fill="#1f77b4" fill-opacity="0.140" stroke="#1f77b4" stroke-opacity="0.55" stroke-width="0.07" points="53.210,13.000 53.210,11.000 48.410,11.000 48.410,13.000"/>
<polygon fill="#1f77b4" fill-opacity="0.140" stroke="#1f77b4" stroke-opacity="0.55" stroke-width="0.07" points="54.605,13.000 54.605,11.000 49.805,11.000 49.805,13.000"/>
<polygon fill="#1f77b4" fill-opacity="0.140" stroke="#1f77b4" stroke-opacity="0.55" stroke-width="0.07" points="56.000,13.000 56.000,11.000 51.200,11.000 51.200,13.000"/>
<polygon fill="#1f77b4" fill-opacity="0.140" stroke="#1f77b4" stroke-opacity="0.55" stroke-width="0.07" points="57.395,13.000 57.395,11.000 52.595,11.000 52.595,13.000"/>
<polygon fill="#1f77b4" fill-opacity="0.140" stroke="#1f77b4" stroke-opacity="0.55" stroke-width="0.07" points="58.790,13.000 58.790,11.000 53.990,11.000 53.990,13.000"/>
<polygon fill="#1f77b4" fill-opacity="0.140" stroke="#1f77b4" stroke-opacity="0.55" stroke-width="0.07" points="60.185,13.000 60.185,11.000 55.385,11.000 55.385,13.000"/>
<polygon fill="#1f77b4" fill-opacity="0.140" stroke="#1f77b4" stroke-opacity="0.55" stroke-width="0.07" points="61.559,13.000 61.559,11.000 56.759,11.000 56.759,13.000"/>
<polygon fill="#1f77b4" fill-opacity="0.140" stroke="#1f77b4" stroke-opacity="0.55" stroke-width="0.07" points="62.675,13.000 62.675,11.000 57.875,11.000 57.875,13.000"/>
<polygon fill="#1f77b4" fill-opacity="0.140" stroke="#1f77b4" stroke-opacity="0.55" stroke-width="0.07" points="63.440,13.000 63.440,11.000 58.640,11.000 58.640,13.000"/>
<polygon fill="#1f77b4" fill-opacity="0.140" stroke="#1f77b4" stroke-opacity="0.55" stroke-width="0.07" points="63.938,13.000 63.938,11.000 59.138,11.000 59.138,13.000"/>
<polygon fill="#1f77b4" fill-opacity="0.140" stroke="#1f77b4" stroke-opacity="0.55" stroke-width="0.07" points="64.252,13.000 64.252,11.000 59.452,11.000 59.452,13.000"/>
<polygon fill="#ff7f0e" fill-opacity="0.160" stroke="#ff7f0e" stroke-opacity="0.55" stroke-width="0.07" points="64.249,13.000 64.249,11.000 59.449,11.000 59.449,13.000"/>
<polygon fill="#ff7f0e" fill-opacity="0.160" stroke="#ff7f0e" stroke-opacity="0.55" stroke-width="0.07" points="63.728,13.205 63.916,11.214 59.137,10.763 58.949,12.754"/>
<polygon fill="#ff7f0e" fill-opacity="0.160" stroke="#ff7f0e" stroke-opacity="0.55" stroke-width="0.07" points="62.870,13.457 63.382,11.523 58.742,10.294 58.230,12.227"/>
<polygon fill="#ff7f0e" fill-opacity="0.160" stroke="#ff7f0e" stroke-opacity="0.55" stroke-width="0.07" points="61.936,13.566 62.774,11.750 58.416,9.738 57.578,11.554"/>
<polygon fill="#ff7f0e" fill-opacity="0.160" stroke="#ff7f0e" stroke-opacity="0.55" stroke-width="0.07" points="60.991,13.511 62.132,11.869 58.190,9.129 57.049,10.772"/>
<polygon fill="#ff7f0e" fill-opacity="0.160" stroke="#ff7f0e" stroke-opacity="0.55" stroke-width="0.07" points="60.068,13.292 61.478,11.874 58.073,8.490 56.663,9.909"/>
<polygon fill="#ff7f0e" fill-opacity="0.160" stroke="#ff7f0e" stroke-opacity="0.55" stroke-width="0.07" points="59.197,12.916 60.832,11.765 58.069,7.840 56.434,8.991"/>
<polygon fill="#ff7f0e" fill-opacity="0.160" stroke="#ff7f0e" stroke-opacity="0.55" stroke-width="0.07" points="58.413,12.394 60.221,11.540 58.171,7.200 56.362,8.054"/>
<polygon fill="#ff7f0e" fill-opacity="0.160" stroke="#ff7f0e" stroke-opacity="0.55" stroke-width="0.07" points="57.755,11.750 59.676,11.196 58.348,6.584 56.426,7.138"/>
<polygon fill="#ff7f0e" fill-opacity="0.160" stroke="#ff7f0e" stroke-opacity="0.55" stroke-width="0.07" points="57.234,11.017 59.217,10.756 58.589,5.997 56.606,6.259"/>
<polygon fill="#ff7f0e" fill-opacity="0.160" stroke="#ff7f0e" stroke-opacity="0.55" stroke-width="0.07" points="56.874,10.237 58.874,10.232 58.861,5.432 56.861,5.437"/>
<polygon fill="#ff7f0e" fill-opacity="0.160" stroke="#ff7f0e" stroke-opacity="0.55" stroke-width="0.07" points="56.861,9.556 58.861,9.563 58.877,4.763 56.877,4.756"/>
<polygon fill="#ff7f0e" fill-opacity="0.160" stroke="#ff7f0e" stroke-opacity="0.55" stroke-width="0.07" points="56.863,8.918 58.863,8.925 58.879,4.125 56.879,4.118"/>
<polygon fill="#ff7f0e" fill-opacity="0.160" stroke="#ff7f0e" stroke-opacity="0.55" stroke-width="0.07" points="56.865,8.370 58.865,8.377 58.881,3.577 56.881,3.570"/>
<polygon fill="#ff7f0e" fill-opacity="0.160" stroke="#ff7f0e" stroke-opacity="0.55" stroke-width="0.07" points="56.867,7.912 58.867,7.919 58.882,3.119 56.882,3.112"/>
<polygon fill="#ff7f0e" fill-opacity="0.160" stroke="#ff7f0e" stroke-opacity="0.55" stroke-width="0.07" points="56.868,7.531 58.868,7.538 58.884,2.738 56.884,2.731"/>
<polygon fill="#ff7f0e" fill-opacity="0.160" stroke="#ff7f0e" stroke-opacity="0.55" stroke-width="0.07" points="56.869,7.202 58.869,7.208 58.885,2.408 56.885,2.402"/>
<polygon fill="#ff7f0e" fill-opacity="0.160" stroke="#ff7f0e" stroke-opacity="0.55" stroke-width="0.07" points="56.870,6.884 58.870,6.891 58.886,2.091 56.886,2.084"/>
<polygon fill="#ff7f0e" fill-opacity="0.160" stroke="#ff7f0e" stroke-opacity="0.55" stroke-width="0.07" points="56.871,6.569 58.871,6.576 58.887,1.776 56.887,1.769"/>
<polygon fill="#ff7f0e" fill-opacity="0.160" stroke="#ff7f0e" stroke-opacity="0.55" stroke-width="0.07" points="56.872,6.254 58.872,6.261 58.888,1.461 56.888,1.454"/>
<polygon fill="#ff7f0e" fill-opacity="0.160" stroke="#ff7f0e" stroke-opacity="0.55" stroke-width="0.07" points="56.873,5.939 58.873,5.946 58.889,1.146 56.889,1.139"/>
<polygon fill="#ff7f0e" fill-opacity="0.160" stroke="#ff7f0e" stroke-opacity="0.55" stroke-width="0.07" points="56.874,5.747 58.874,5.753 58.890,0.953 56.890,0.947"/>
<polygon fill="none" stroke="crimson" stroke-width="0.120" points="56.874,5.747 58.874,5.753 58.890,0.953 56.890,0.947"/>
</g>
</svg>
