<?xml version="1.0" encoding="UTF-8"?>
<svg xmlns="http://www.w3.org/2000/svg" width="1400" height="900" viewBox="0 -3 75 53">
<rect x="0" y="-3" width="75" height="53" fill="white"/>
<text x="1.5" y="-1.35" font-size="1.15" fill="black">Parking | target row=1 idx=0 | success=true sim_ok=true | max_steer=35 deg | overshoot~=5 m | total(ref)~=1e+02 m</text>
<text x="1.5" y="-0.45" font-size="0.95" fill="black">ok</text>
<g transform="translate(0,50.000) scale(1,-1)">
<rect x="0" y="0" width="75.000" height="50.000" fill="none" stroke="black" stroke-width="0.15"/>
<rect x="0.000" y="9.000" width="75.000" height="6.000" fill="#add8e6" fill-opacity="0.25" stroke="#add8e6" stroke-width="0.08"/>
<rect x="0.000" y="34.500" width="75.000" height="6.000" fill="#add8e6" fill-opacity="0.25" stroke="#add8e6" stroke-width="0.08"/>
<rect x="36.000" y="12.000" width="6.000" height="25.500" fill="#90ee90" fill-opacity="0.25" stroke="#90ee90" stroke-width="0.08"/>
<rect x="12.000" y="44.000" width="4.800" height="6.000" fill="white" stroke="gray" stroke-width="0.080" fill-opacity="0.85"/>
<rect x="16.800" y="44.000" width="4.800" height="6.000" fill="white" stroke="gray" stroke-width="0.080" fill-opacity="0.85"/>
<rect x="21.600" y="44.000" width="4.800" height="6.000" fill="white" stroke="gray" stroke-width="0.080" fill-opacity="0.85"/>
<rect x="26.400" y="44.000" width="4.800" height="6.000" fill="white" stroke="gray" stroke-width="0.080" fill-opacity="0.85"/>
<rect x="31.200" y="44.000" width="4.800" height="6.000" fill="white" stroke="gray" stroke-width="0.080" fill-opacity="0.85"/>
<rect x="12.000" y="25.000" width="4.800" height="6.000" fill="#98fb98" stroke="darkgreen" stroke-width="0.180" fill-opacity="0.85"/>
<rect x="16.800" y="25.000" width="4.800" height="6.000" fill="white" stroke="gray" stroke-width="0.080" fill-opacity="0.85"/>
<rect x="21.600" y="25.000" width="4.800" height="6.000" fill="white" stroke="gray" stroke-width="0.080" fill-opacity="0.85"/>
<rect x="26.400" y="25.000" width="4.800" height="6.000" fill="white" stroke="gray" stroke-width="0.080" fill-opacity="0.85"/>
<rect x="31.200" y="25.000" width="4.800" height="6.000" fill="white" stroke="gray" stroke-width="0.080" fill-opacity="0.85"/>
<rect x="12.000" y="19.000" width="4.800" height="6.000" fill="white" stroke="gray" stroke-width="0.080" fill-opacity="0.85"/>
<rect x="16.800" y="19.000" width="4.800" height="6.000" fill="white" stroke="gray" stroke-width="0.080" fill-opacity="0.85"/>
<rect x="21.600" y="19.000" width="4.800" height="6.000" fill="white" stroke="gray" stroke-width="0.080" fill-opacity="0.85"/>
<rect x="26.400" y="19.000" width="4.800" height="6.000" fill="white" stroke="gray" stroke-width="0.080" fill-opacity="0.85"/>
<rect x="31.200" y="19.000" width="4.800" height="6.000" fill="white" stroke="gray" stroke-width="0.080" fill-opacity="0.85"/>
<rect x="12.000" y="0.000" width="4.800" height="6.000" fill="white" stroke="gray" stroke-width="0.080" fill-opacity="0.85"/>
<rect x="16.800" y="0.000" width="4.800" height="6.000" fill="white" stroke="gray" stroke-width="0.080" fill-opacity="0.85"/>
<rect x="21.600" y="0.000" width="4.800" height="6.000" fill="white" stroke="gray" stroke-width="0.080" fill-opacity="0.85"/>
<rect x="26.400" y="0.000" width="4.800" height="6.000" fill="white" stroke="gray" stroke-width="0.080" fill-opacity="0.85"/>
<rect x="31.200" y="0.000" width="4.800" height="6.000" fill="white" stroke="gray" stroke-width="0.080" fill-opacity="0.85"/>
<polygon fill="none" stroke="navy" stroke-width="0.120" points="6.400,13.000 6.400,11.000 1.600,11.000 1.600,13.000"/>
<polygon fill="purple" points="16.620,37.500 16.900,37.850 17.180,37.500 16.900,37.150"/>
<circle cx="9.600" cy="37.500" r="0.38" fill="darkviolet" stroke="indigo" stroke-width="0.06"/>
<polyline fill="none" stroke="#808080" stroke-width="0.120" stroke-opacity="0.65" stroke-dasharray="0.45 0.35" points="4.000,12.000 4.000,12.120 34.124,12.120 34.307,12.124 34.491,12.137 34.673,12.159 34.854,12.190 35.033,12.229 35.210,12.276 35.385,12.332 35.557,12.396 35.726,12.468 35.891,12.549 36.052,12.637 36.209,12.732 36.361,12.835 36.508,12.945 36.649,13.062 36.785,13.185 36.915,13.315 37.038,13.451 37.155,13.592 37.265,13.739 37.368,13.891 37.463,14.048 37.551,14.209 37.632,14.374 37.704,14.543 37.768,14.715 37.824,14.890 37.871,15.067 37.910,15.246 37.941,15.427 37.963,15.609 37.976,15.793 37.980,15.976 37.980,33.644 37.976,33.827 37.963,34.011 37.941,34.193 37.910,34.374 37.871,34.553 37.824,34.730 37.768,34.905 37.704,35.077 37.632,35.246 37.551,35.411 37.463,35.572 37.368,35.729 37.265,35.881 37.155,36.028 37.038,36.169 36.915,36.305 36.785,36.435 36.649,36.558 36.508,36.675 36.361,36.785 36.209,36.888 36.052,36.983 35.891,37.071 35.726,37.152 35.557,37.224 35.385,37.288 35.210,37.344 35.033,37.391 34.854,37.430 34.673,37.461 34.491,37.483 34.307,37.496 34.124,37.500 16.900,37.500 9.600,37.500"/>
<polyline fill="none" stroke="#808080" stroke-width="0.120" stroke-opacity="0.65" stroke-dasharray="0.45 0.35" points="9.600,37.500 9.774,37.341 9.944,37.177 10.110,37.009 10.273,36.838 10.432,36.662 10.587,36.483 10.738,36.301 10.887,36.115 11.031,35.926 11.172,35.735 11.310,35.541 11.444,35.344 11.576,35.145 11.703,34.944 11.828,34.740 11.949,34.536 12.068,34.329 12.183,34.121 12.295,33.912 12.405,33.702 12.511,33.491 12.614,33.279 12.715,33.067 12.813,32.854 12.908,32.642 13.000,32.429 13.090,32.217 13.177,32.005 13.261,31.794 13.344,31.583 13.423,31.374 13.500,31.165 13.575,30.958 13.648,30.752 13.718,30.548 13.786,30.346 13.852,30.146 13.915,29.949 13.977,29.753 14.036,29.561 14.094,29.371 14.150,29.184 14.203,29.000 14.255,28.820 14.305,28.643 14.353,28.469 14.400,28.300"/>
<polyline fill="none" stroke="#1f77b4" stroke-width="0.220" stroke-opacity="0.95" points="4.008,12.000 4.022,12.000 4.043,12.000 4.070,12.000 4.102,12.000 4.138,12.000 4.179,12.001 4.223,12.001 4.270,12.002 4.321,12.003 4.374,12.003 4.429,12.005 4.487,12.006 4.547,12.007 4.609,12.009 4.672,12.011 4.736,12.013 4.802,12.015 4.869,12.017 4.937,12.019 5.006,12.022 5.076,12.024 5.146,12.027 5.218,12.030 5.290,12.033 5.362,12.036 5.435,12.039 5.508,12.041 5.582,12.044 5.656,12.047 5.731,12.050 5.806,12.053 5.881,12.056 5.956,12.059 6.031,12.062 6.107,12.065 6.183,12.068 6.259,12.070 6.335,12.073 6.411,12.076 6.488,12.078 6.564,12.081 6.641,12.083 6.718,12.085 6.795,12.088 6.871,12.090 6.948,12.092 7.025,12.094 7.102,12.096 7.179,12.098 7.257,12.100 7.334,12.101 7.411,12.103 7.488,12.104 7.565,12.106 7.643,12.107 7.720,12.109 7.797,12.110 7.875,12.111 7.952,12.112 8.029,12.113 8.107,12.114 8.184,12.115 8.262,12.116 8.339,12.117 8.416,12.118 8.494,12.119 8.571,12.119 8.649,12.120 8.726,12.120 8.804,12.121 8.881,12.121 8.958,12.122 9.036,12.122 9.113,12.122 9.191,12.123 9.268,12.123 9.346,12.123 9.423,12.124 9.501,12.124 9.578,12.124 9.656,12.124 9.733,12.124 9.811,12.124 9.888,12.124 9.966,12.124 10.043,12.124 10.121,12.124 10.198,12.124 10.276,12.124 10.353,12.124 10.431,12.124 10.508,12.124 10.586,12.124 10.663,12.124 10.741,12.124 10.818,12.124 10.896,12.124 10.973,12.124 11.051,12.124 11.128,12.124 11.206,12.123 11.283,12.123 11.361,12.123 11.438,12.123 11.516,12.123 11.593,12.123 11.671,12.123 11.748,12.123 11.826,12.123 11.903,12.122 11.981,12.122 12.058,12.122 12.136,12.122 12.213,12.122 12.291,12.122 12.368,12.122 12.446,12.122 12.523,12.122 12.601,12.121 12.678,12.121 12.756,12.121 12.833,12.121 12.911,12.121 12.988,12.121 13.066,12.121 13.143,12.121 13.221,12.121 13.298,12.121 13.376,12.121 13.453,12.121 13.531,12.121 13.608,12.121 13.686,12.120 13.763,12.120 13.841,12.120 13.918,12.120 13.996,12.120 14.073,12.120 14.151,12.120 14.228,12.120 14.306,12.120 14.383,12.120 14.461,12.120 14.538,12.120 14.616,12.120 14.693,12.120 14.771,12.120 14.848,12.120 14.926,12.120 15.003,12.120 15.081,12.120 15.158,12.120 15.236,12.120 15.313,12.120 15.391,12.120 15.468,12.120 15.546,12.120 15.623,12.120 15.701,12.120 15.778,12.120 15.856,12.120 15.933,12.120 16.011,12.120 16.088,12.120 16.166,12.120 16.243,12.120 16.321,12.120 16.398,12.120 16.476,12.120 16.553,12.120 16.631,12.120 16.708,12.120 16.786,12.120 16.863,12.120 16.941,12.120 17.018,12.120 17.096,12.120 17.173,12.120 17.251,12.120 17.328,12.120 17.406,12.120 17.483,12.120 17.561,12.120 17.638,12.120 17.716,12.120 17.793,12.120 17.871,12.120 17.948,12.120 18.026,12.120 18.103,12.120 18.181,12.120 18.258,12.120 18.336,12.120 18.413,12.120 18.491,12.120 18.568,12.120 18.646,12.120 18.723,12.120 18.801,12.120 18.878,12.120 18.956,12.120 19.033,12.120 19.111,12.120 19.188,12.120 19.266,12.120 19.343,12.120 19.421,12.120 19.498,12.120 19.576,12.120 19.653,12.120 19.731,12.120 19.808,12.120 19.886,12.120 19.963,12.120 20.041,12.120 20.118,12.120 20.196,12.120 20.273,12.120 20.351,12.120 20.428,12.120 20.506,12.120 20.583,12.120 20.661,12.120 20.738,12.120 20.816,12.120 20.893,12.120 20.971,12.120 21.048,12.120 21.126,12.120 21.203,12.120 21.281,12.120 21.358,12.120 21.436,12.120 21.513,12.120 21.591,12.120 21.668,12.120 21.746,12.120 21.823,12.120 21.901,12.120 21.978,12.120 22.056,12.120 22.133,12.120 22.211,12.120 22.288,12.120 22.366,12.120 22.443,12.120 22.521,12.120 22.598,12.120 22.676,12.120 22.753,12.120 22.831,12.120 22.908,12.120 22.986,12.120 23.063,12.120 23.141,12.120 23.218,12.120 23.296,12.120 23.373,12.120 23.451,12.120 23.528,12.120 23.606,12.120 23.683,12.120 23.761,12.120 23.838,12.120 23.916,12.120 23.993,12.120 24.071,12.120 24.148,12.120 24.226,12.120 24.303,12.120 24.381,12.120 24.458,12.120 24.536,12.120 24.613,12.120 24.691,12.120 24.768,12.120 24.846,12.120 24.923,12.120 25.001,12.120 25.078,12.120 25.156,12.120 25.233,12.120 25.311,12.120 25.388,12.120 25.466,12.120 25.543,12.120 25.621,12.120 25.698,12.120 25.776,12.120 25.853,12.120 25.931,12.120 26.008,12.120 26.086,12.120 26.163,12.120 26.241,12.120 26.318,12.120 26.396,12.120 26.473,12.120 26.551,12.120 26.628,12.120 26.706,12.120 26.783,12.120 26.861,12.120 26.938,12.120 27.016,12.120 27.093,12.120 27.171,12.120 27.248,12.120 27.326,12.120 27.403,12.120 27.481,12.120 27.558,12.120 27.636,12.120 27.713,12.120 27.791,12.120 27.868,12.120 27.946,12.120 28.023,12.120 28.101,12.120 28.178,12.120 28.256,12.120 28.333,12.120 28.411,12.120 28.488,12.120 28.566,12.120 28.643,12.120 28.721,12.120 28.798,12.120 28.876,12.120 28.953,12.120 29.031,12.120 29.108,12.120 29.186,12.120 29.263,12.120 29.341,12.120 29.418,12.120 29.496,12.120 29.573,12.120 29.651,12.120 29.728,12.120 29.806,12.120 29.883,12.120 29.961,12.120 30.038,12.120 30.116,12.120 30.193,12.120 30.271,12.120 30.348,12.120 30.426,12.120 30.503,12.120 30.581,12.120 30.658,12.120 30.736,12.120 30.813,12.120 30.891,12.120 30.968,12.120 31.046,12.120 31.123,12.120 31.201,12.120 31.278,12.120 31.356,12.120 31.433,12.120 31.511,12.120 31.588,12.120 31.666,12.120 31.743,12.120 31.821,12.120 31.898,12.120 31.976,12.120 32.053,12.120 32.131,12.120 32.208,12.120 32.286,12.120 32.363,12.120 32.441,12.120 32.518,12.120 32.596,12.120 32.673,12.120 32.751,12.120 32.828,12.121 32.906,12.121 32.983,12.122 33.061,12.122 33.138,12.123 33.216,12.124 33.293,12.126 33.371,12.128 33.448,12.130 33.526,12.132 33.603,12.136 33.680,12.139 33.758,12.143 33.835,12.148 33.912,12.153 33.990,12.159 34.067,12.166 34.144,12.173 34.221,12.182 34.298,12.191 34.375,12.200 34.452,12.211 34.528,12.223 34.605,12.236 34.681,12.249 34.757,12.264 34.833,12.280 34.909,12.297 34.984,12.315 35.059,12.334 35.134,12.354 35.208,12.376 35.282,12.399 35.356,12.423 35.429,12.448 35.502,12.475 35.574,12.503 35.646,12.532 35.717,12.563 35.788,12.595 35.858,12.628 35.927,12.662 35.996,12.698 36.064,12.735 36.131,12.774 36.198,12.814 36.264,12.855 36.328,12.897 36.392,12.941 36.456,12.986 36.518,13.032 36.579,13.079 36.639,13.128 36.699,13.178 36.757,13.229 36.814,13.281 36.871,13.334 36.926,13.389 36.980,13.444 37.033,13.501 37.085,13.559 37.135,13.617 37.185,13.677 37.233,13.738 37.280,13.799 37.325,13.862 37.370,13.926 37.413,13.990 37.455,14.055 37.495,14.121 37.535,14.188 37.573,14.256 37.609,14.324 37.644,14.393 37.678,14.463 37.710,14.533 37.741,14.604 37.770,14.676 37.798,14.748 37.825,14.821 37.850,14.895 37.874,14.968 37.896,15.043 37.916,15.117 37.936,15.192 37.954,15.268 37.970,15.344 37.985,15.420 37.999,15.496 38.012,15.572 38.024,15.649 38.035,15.726 38.044,15.802 38.053,15.879 38.061,15.957 38.068,16.034 38.074,16.111 38.079,16.188 38.083,16.266 38.087,16.343 38.090,16.421 38.093,16.498 38.095,16.575 38.096,16.653 38.097,16.730 38.098,16.808 38.098,16.885 38.097,16.963 38.097,17.040 38.096,17.118 38.094,17.195 38.093,17.273 38.091,17.350 38.089,17.428 38.087,17.505 38.084,17.583 38.082,17.660 38.079,17.738 38.076,17.815 38.073,17.893 38.070,17.970 38.067,18.047 38.064,18.125 38.061,18.202 38.058,18.280 38.055,18.357 38.052,18.435 38.049,18.512 38.046,18.590 38.043,18.667 38.040,18.744 38.037,18.822 38.034,18.899 38.031,18.977 38.029,19.054 38.026,19.132 38.023,19.209 38.021,19.287 38.018,19.364 38.016,19.442 38.014,19.519 38.011,19.596 38.009,19.674 38.007,19.751 38.005,19.829 38.003,19.906 38.001,19.984 37.999,20.061 37.998,20.139 37.996,20.216 37.995,20.294 37.993,20.371 37.992,20.449 37.990,20.526 37.989,20.604 37.988,20.681 37.987,20.759 37.986,20.836 37.985,20.914 37.984,20.991 37.983,21.069 37.982,21.146 37.982,21.224 37.981,21.301 37.980,21.379 37.980,21.456 37.979,21.534 37.979,21.611 37.978,21.689 37.978,21.766 37.978,21.844 37.977,21.921 37.977,21.999 37.977,22.076 37.976,22.154 37.976,22.231 37.976,22.309 37.976,22.386 37.976,22.464 37.976,22.541 37.976,22.619 37.976,22.696 37.976,22.774 37.976,22.851 37.976,22.929 37.976,23.006 37.976,23.084 37.976,23.161 37.976,23.239 37.976,23.316 37.976,23.394 37.976,23.471 37.976,23.549 37.976,23.626 37.976,23.704 37.976,23.781 37.976,23.859 37.976,23.936 37.977,24.014 37.977,24.091 37.977,24.169 37.977,24.246 37.977,24.324 37.977,24.401 37.977,24.479 37.977,24.556 37.978,24.634 37.978,24.711 37.978,24.789 37.978,24.866 37.978,24.944 37.978,25.021 37.978,25.099 37.978,25.176 37.978,25.254 37.978,25.331 37.979,25.409 37.979,25.486 37.979,25.564 37.979,25.641 37.979,25.719 37.979,25.796 37.979,25.874 37.979,25.951 37.979,26.029 37.979,26.106 37.979,26.184 37.979,26.261 37.979,26.339 37.980,26.416 37.980,26.494 37.980,26.571 37.980,26.649 37.980,26.726 37.980,26.804 37.980,26.881 37.980,26.959 37.980,27.036 37.980,27.114 37.980,27.191 37.980,27.269 37.980,27.346 37.980,27.424 37.980,27.501 37.980,27.579 37.980,27.656 37.980,27.734 37.980,27.811 37.980,27.889 37.980,27.966 37.980,28.044 37.980,28.121 37.980,28.199 37.980,28.276 37.980,28.354 37.980,28.431 37.980,28.509 37.980,28.586 37.980,28.664 37.980,28.741 37.980,28.819 37.980,28.896 37.980,28.974 37.980,29.051 37.980,29.129 37.980,29.206 37.980,29.284 37.980,29.361 37.980,29.439 37.980,29.516 37.980,29.594 37.980,29.671 37.980,29.749 37.980,29.826 37.980,29.904 37.980,29.981 37.980,30.059 37.980,30.136 37.980,30.214 37.980,30.291 37.980,30.369 37.980,30.446 37.980,30.524 37.980,30.601 37.980,30.679 37.980,30.756 37.980,30.834 37.980,30.911 37.980,30.989 37.980,31.066 37.980,31.144 37.980,31.221 37.980,31.299 37.980,31.376 37.980,31.454 37.980,31.531 37.980,31.609 37.980,31.686 37.980,31.764 37.980,31.841 37.980,31.919 37.980,31.996 37.980,32.074 37.980,32.151 37.980,32.229 37.980,32.306 37.979,32.384 37.979,32.461 37.978,32.539 37.977,32.616 37.976,32.694 37.975,32.771 37.974,32.849 37.972,32.926 37.969,33.004 37.967,33.081 37.963,33.158 37.959,33.236 37.955,33.313 37.950,33.391 37.945,33.468 37.938,33.545 37.932,33.622 37.924,33.699 37.915,33.776 37.906,33.853 37.896,33.930 37.884,34.007 37.872,34.083 37.859,34.160 37.845,34.236 37.830,34.312 37.814,34.388 37.796,34.463 37.778,34.539 37.758,34.613 37.737,34.688 37.715,34.762 37.691,34.836 37.667,34.910 37.641,34.983 37.613,35.055 37.585,35.127 37.555,35.199 37.524,35.270 37.492,35.340 37.458,35.410 37.423,35.479 37.386,35.547 37.348,35.615 37.309,35.682 37.269,35.748 37.227,35.814 37.185,35.878 37.140,35.942 37.095,36.005 37.048,36.066 37.000,36.127 36.951,36.187 36.901,36.246 36.849,36.304 36.796,36.361 36.743,36.417 36.688,36.471 36.632,36.525 36.575,36.577 36.517,36.629 36.457,36.679 36.397,36.728 36.336,36.775 36.274,36.822 36.211,36.867 36.147,36.911 36.083,36.953 36.017,36.995 35.951,37.035 35.883,37.073 35.815,37.111 35.747,37.146 35.677,37.181 35.607,37.214 35.537,37.246 35.465,37.276 35.393,37.305 35.321,37.332 35.248,37.358 35.174,37.383 35.100,37.406 35.026,37.427 34.951,37.447 34.876,37.466 34.800,37.483 34.724,37.499 34.648,37.514 34.572,37.527 34.495,37.540 34.419,37.551 34.342,37.561 34.265,37.570 34.188,37.578 34.111,37.586 34.033,37.592 33.956,37.598 33.879,37.603 33.801,37.607 33.724,37.610 33.647,37.613 33.569,37.615 33.492,37.617 33.414,37.618 33.337,37.619 33.259,37.619 33.182,37.619 33.104,37.619 33.027,37.618 32.949,37.617 32.872,37.615 32.794,37.613 32.717,37.611 32.639,37.609 32.562,37.607 32.484,37.604 32.407,37.602 32.329,37.599 32.252,37.596 32.175,37.593 32.097,37.590 32.020,37.587 31.942,37.584 31.865,37.581 31.787,37.578 31.710,37.575 31.632,37.572 31.555,37.568 31.478,37.565 31.400,37.562 31.323,37.559 31.245,37.556 31.168,37.554 31.090,37.551 31.013,37.548 30.935,37.545 30.858,37.543 30.781,37.540 30.703,37.538 30.626,37.535 30.548,37.533 30.471,37.531 30.393,37.528 30.316,37.526 30.238,37.524 30.161,37.522 30.083,37.521 30.006,37.519 29.928,37.517 29.851,37.516 29.773,37.514 29.696,37.513 29.618,37.511 29.541,37.510 29.463,37.509 29.386,37.508 29.308,37.506 29.231,37.505 29.153,37.505 29.076,37.504 28.998,37.503 28.921,37.502 28.843,37.501 28.766,37.501 28.688,37.500 28.611,37.499 28.533,37.499 28.456,37.498 28.378,37.498 28.301,37.498 28.223,37.497 28.146,37.497 28.068,37.497 27.991,37.496 27.913,37.496 27.836,37.496 27.758,37.496 27.681,37.496 27.603,37.496 27.526,37.496 27.448,37.496 27.371,37.496 27.293,37.495 27.216,37.495 27.138,37.495 27.061,37.496 26.983,37.496 26.906,37.496 26.828,37.496 26.751,37.496 26.673,37.496 26.596,37.496 26.518,37.496 26.441,37.496 26.363,37.496 26.286,37.496 26.208,37.496 26.131,37.496 26.053,37.497 25.976,37.497 25.898,37.497 25.821,37.497 25.743,37.497 25.666,37.497 25.588,37.497 25.511,37.497 25.433,37.498 25.356,37.498 25.278,37.498 25.201,37.498 25.123,37.498 25.046,37.498 24.968,37.498 24.891,37.498 24.813,37.498 24.736,37.498 24.658,37.499 24.581,37.499 24.503,37.499 24.426,37.499 24.348,37.499 24.271,37.499 24.193,37.499 24.116,37.499 24.038,37.499 23.961,37.499 23.883,37.499 23.806,37.499 23.728,37.499 23.651,37.500 23.573,37.500 23.496,37.500 23.418,37.500 23.341,37.500 23.263,37.500 23.186,37.500 23.108,37.500 23.031,37.500 22.953,37.500 22.876,37.500 22.798,37.500 22.721,37.500 22.643,37.500 22.566,37.500 22.488,37.500 22.411,37.500 22.333,37.500 22.256,37.500 22.178,37.500 22.101,37.500 22.023,37.500 21.946,37.500 21.868,37.500 21.791,37.500 21.713,37.500 21.636,37.500 21.558,37.500 21.481,37.500 21.403,37.500 21.326,37.500 21.248,37.500 21.171,37.500 21.093,37.500 21.016,37.500 20.938,37.500 20.861,37.500 20.783,37.500 20.706,37.500 20.628,37.500 20.551,37.500 20.473,37.500 20.396,37.500 20.318,37.500 20.241,37.500 20.163,37.500 20.086,37.500 20.008,37.500 19.931,37.500 19.853,37.500 19.776,37.500 19.698,37.500 19.621,37.500 19.543,37.500 19.466,37.500 19.388,37.500 19.311,37.500 19.233,37.500 19.156,37.500 19.078,37.500 19.001,37.500 18.923,37.500 18.846,37.500 18.768,37.500 18.691,37.500 18.613,37.500 18.536,37.500 18.458,37.500 18.381,37.500 18.303,37.500 18.226,37.500 18.148,37.500 18.071,37.500 17.993,37.500 17.916,37.500 17.838,37.500 17.761,37.500 17.683,37.500 17.606,37.500 17.528,37.500 17.451,37.500 17.373,37.500 17.296,37.500 17.218,37.500 17.141,37.500 17.063,37.500 16.986,37.500 16.908,37.500 16.831,37.500 16.753,37.500 16.676,37.500 16.598,37.500 16.521,37.500 16.443,37.500 16.366,37.500 16.288,37.500 16.211,37.500 16.133,37.500 16.056,37.500 15.978,37.500 15.901,37.500 15.823,37.500 15.746,37.500 15.668,37.500 15.591,37.500 15.513,37.500 15.436,37.500 15.358,37.500 15.281,37.500 15.203,37.500 15.126,37.500 15.048,37.500 14.971,37.500 14.893,37.500 14.816,37.500 14.738,37.500 14.661,37.500 14.583,37.500 14.506,37.500 14.428,37.500 14.351,37.500 14.273,37.500 14.196,37.500 14.118,37.500 14.041,37.500 13.963,37.500 13.886,37.500 13.808,37.500 13.731,37.500 13.653,37.500 13.576,37.500 13.499,37.500 13.421,37.500 13.344,37.500 13.268,37.500 13.192,37.500 13.117,37.500 13.042,37.500 12.968,37.500 12.895,37.500 12.823,37.500 12.752,37.500 12.682,37.500 12.613,37.500 12.545,37.500 12.478,37.500 12.412,37.500 12.348,37.500 12.284,37.500 12.222,37.500 12.161,37.500 12.101,37.500 12.042,37.500 11.984,37.500 11.927,37.500 11.872,37.500 11.818,37.500 11.765,37.500 11.712,37.500 11.662,37.500 11.612,37.500 11.563,37.500 11.515,37.500 11.469,37.500 11.423,37.500 11.379,37.500 11.335,37.500 11.293,37.500 11.251,37.500 11.210,37.500 11.171,37.500 11.132,37.500 11.094,37.500 11.057,37.500 11.021,37.500 10.986,37.500 10.951,37.500 10.918,37.500 10.885,37.500 10.853,37.500 10.822,37.500 10.791,37.500 10.762,37.500 10.733,37.500 10.704,37.500 10.677,37.500 10.650,37.500 10.624,37.500 10.598,37.500 10.573,37.500 10.549,37.500 10.525,37.500 10.502,37.500 10.479,37.500 10.457,37.500 10.435,37.500 10.414,37.500 10.393,37.500 10.373,37.500 10.352,37.500 10.332,37.500 10.313,37.500 10.293,37.500 10.274,37.500 10.255,37.500 10.236,37.500 10.217,37.500 10.198,37.500 10.180,37.500 10.161,37.500 10.143,37.500"/>
<polyline fill="none" stroke="#ff7f0e" stroke-width="0.220" stroke-opacity="0.95" points="10.147,37.500 10.154,37.500 10.164,37.500 10.177,37.500 10.192,37.500 10.210,37.500 10.230,37.500 10.251,37.500 10.274,37.499 10.298,37.499 10.324,37.498 10.351,37.497 10.379,37.496 10.408,37.495 10.437,37.493 10.468,37.491 10.499,37.489 10.531,37.487 10.563,37.484 10.596,37.481 10.629,37.477 10.663,37.474 10.697,37.470 10.731,37.465 10.765,37.460 10.800,37.455 10.835,37.450 10.870,37.444 10.905,37.438 10.941,37.431 10.976,37.424 11.012,37.417 11.047,37.409 11.083,37.401 11.118,37.393 11.154,37.384 11.189,37.375 11.225,37.366 11.261,37.356 11.296,37.346 11.332,37.335 11.367,37.325 11.402,37.313 11.438,37.302 11.473,37.290 11.508,37.278 11.543,37.265 11.578,37.252 11.613,37.239 11.648,37.225 11.682,37.211 11.717,37.197 11.751,37.182 11.785,37.167 11.819,37.152 11.853,37.136 11.887,37.120 11.921,37.104 11.954,37.087 11.988,37.070 12.021,37.053 12.054,37.035 12.087,37.017 12.119,36.999 12.152,36.980 12.184,36.961 12.216,36.942 12.248,36.923 12.280,36.903 12.312,36.883 12.343,36.862 12.374,36.841 12.405,36.820 12.436,36.799 12.467,36.777 12.497,36.755 12.527,36.733 12.557,36.710 12.587,36.687 12.616,36.664 12.645,36.641 12.675,36.617 12.703,36.593 12.732,36.569 12.760,36.544 12.788,36.519 12.816,36.494 12.844,36.469 12.871,36.443 12.898,36.417 12.925,36.391 12.952,36.365 12.978,36.338 13.004,36.311 13.030,36.284 13.055,36.257 13.081,36.229 13.106,36.201 13.130,36.173 13.155,36.144 13.179,36.116 13.203,36.087 13.227,36.058 13.250,36.028 13.273,35.999 13.296,35.969 13.318,35.939 13.340,35.909 13.362,35.878 13.384,35.847 13.405,35.817 13.426,35.786 13.447,35.754 13.467,35.723 13.487,35.691 13.507,35.659 13.527,35.627 13.546,35.595 13.565,35.562 13.583,35.530 13.601,35.497 13.619,35.464 13.637,35.431 13.654,35.398 13.671,35.364 13.687,35.331 13.704,35.297 13.720,35.263 13.735,35.229 13.750,35.194 13.765,35.160 13.780,35.125 13.794,35.091 13.808,35.056 13.822,35.021 13.835,34.986 13.848,34.951 13.860,34.915 13.873,34.880 13.885,34.844 13.896,34.809 13.907,34.773 13.918,34.737 13.929,34.701 13.939,34.665 13.949,34.629 13.959,34.593 13.968,34.556 13.977,34.520 13.986,34.483 13.994,34.447 14.002,34.410 14.010,34.374 14.017,34.337 14.024,34.300 14.031,34.263 14.037,34.226 14.043,34.189 14.049,34.152 14.054,34.115 14.059,34.078 14.064,34.041 14.068,34.003 14.073,33.966 14.076,33.929 14.080,33.891 14.083,33.854 14.086,33.817 14.089,33.779 14.091,33.742 14.093,33.704 14.094,33.667 14.096,33.629 14.097,33.592 14.098,33.554 14.098,33.517 14.099,33.479 14.099,33.442 14.099,33.404 14.099,33.367 14.099,33.329 14.099,33.292 14.099,33.254 14.098,33.217 14.098,33.179 14.098,33.142 14.098,33.104 14.098,33.067 14.098,33.029 14.098,32.992 14.098,32.954 14.098,32.917 14.098,32.879 14.098,32.842 14.098,32.804 14.097,32.767 14.097,32.729 14.097,32.692 14.097,32.654 14.097,32.617 14.097,32.579 14.097,32.542 14.097,32.504 14.097,32.467 14.097,32.429 14.097,32.392 14.096,32.354 14.096,32.317 14.096,32.279 14.096,32.242 14.096,32.205 14.096,32.167 14.096,32.130 14.096,32.093 14.096,32.056 14.096,32.019 14.096,31.982 14.096,31.946 14.095,31.910 14.095,31.874 14.095,31.838 14.095,31.802 14.095,31.767 14.095,31.732 14.095,31.697 14.095,31.663 14.095,31.629 14.095,31.595 14.095,31.561 14.095,31.528 14.094,31.495 14.094,31.462 14.094,31.430 14.094,31.398 14.094,31.366 14.094,31.334 14.094,31.303 14.094,31.272 14.094,31.241 14.094,31.211 14.094,31.181 14.094,31.151 14.094,31.122 14.094,31.092 14.093,31.063 14.093,31.035 14.093,31.006 14.093,30.978 14.093,30.951 14.093,30.923 14.093,30.896 14.093,30.869 14.093,30.842 14.093,30.816 14.093,30.790 14.093,30.764 14.093,30.738 14.093,30.713 14.093,30.688 14.093,30.663 14.092,30.638 14.092,30.614 14.092,30.590 14.092,30.566 14.092,30.542 14.092,30.519 14.092,30.496 14.092,30.473 14.092,30.450 14.092,30.428 14.092,30.405 14.092,30.383 14.092,30.362 14.092,30.340 14.092,30.319 14.092,30.298 14.092,30.277 14.092,30.256 14.092,30.236 14.091,30.215 14.091,30.195 14.091,30.175 14.091,30.156 14.091,30.136 14.091,30.117 14.091,30.098 14.091,30.079 14.091,30.060 14.091,30.042 14.091,30.023 14.091,30.005 14.091,29.986 14.091,29.968 14.091,29.950 14.091,29.932 14.091,29.914 14.091,29.896 14.091,29.878 14.091,29.860 14.091,29.842 14.091,29.824 14.091,29.807 14.090,29.789 14.090,29.771 14.090,29.753 14.090,29.736 14.090,29.718 14.090,29.700 14.090,29.683 14.090,29.665 14.090,29.647 14.090,29.630 14.090,29.612 14.090,29.595 14.090,29.577 14.090,29.560 14.090,29.542 14.090,29.524 14.090,29.507 14.090,29.489 14.090,29.472 14.090,29.454 14.090,29.437 14.090,29.419 14.090,29.402 14.090,29.384 14.089,29.367 14.089,29.349 14.089,29.332 14.089,29.314 14.089,29.297 14.089,29.279 14.089,29.262 14.089,29.244 14.089,29.227 14.089,29.209 14.089,29.192 14.089,29.174 14.089,29.156 14.089,29.139 14.089,29.121 14.089,29.104 14.089,29.086 14.089,29.069 14.089,29.051 14.089,29.034 14.089,29.016 14.089,28.999 14.089,28.981 14.089,28.964 14.089,28.946 14.088,28.929 14.088,28.911 14.088,28.894 14.088,28.876 14.088,28.859 14.088,28.841 14.088,28.824 14.088,28.806 14.088,28.789 14.088,28.771 14.088,28.754 14.088,28.736 14.088,28.719 14.088,28.701 14.088,28.684 14.088,28.666 14.088,28.649 14.088,28.631 14.088,28.614 14.088,28.596 14.088,28.579 14.088,28.561 14.088,28.544 14.088,28.526 14.087,28.509 14.087,28.491 14.087,28.474 14.087,28.456 14.087,28.439 14.087,28.421 14.087,28.404 14.087,28.386 14.087,28.369 14.087,28.351 14.087,28.334"/>
<polygon fill="#1f77b4" fill-opacity="0.140" stroke="#1f77b4" stroke-opacity="0.55" stroke-width="0.07" points="6.408,13.000 6.408,11.000 1.608,11.000 1.608,13.000"/>
<polygon fill="#1f77b4" fill-opacity="0.140" stroke="#1f77b4" stroke-opacity="0.55" stroke-width="0.07" points="7.232,13.100 7.303,11.102 2.506,10.934 2.435,12.932"/>
<polygon fill="#1f77b4" fill-opacity="0.140" stroke="#1f77b4" stroke-opacity="0.55" stroke-width="0.07" points="8.546,13.153 8.617,11.154 3.820,10.982 3.749,12.981"/>
<polygon fill="#1f77b4" fill-opacity="0.140" stroke="#1f77b4" stroke-opacity="0.55" stroke-width="0.07" points="9.947,13.150 9.983,11.150 5.184,11.062 5.147,13.062"/>
<polygon fill="#1f77b4" fill-opacity="0.140" stroke="#1f77b4" stroke-opacity="0.55" stroke-width="0.07" points="11.353,13.134 11.363,11.134 6.564,11.110 6.553,13.110"/>
<polygon fill="#1f77b4" fill-opacity="0.140" stroke="#1f77b4" stroke-opacity="0.55" stroke-width="0.07" points="12.754,13.123 12.753,11.123 7.953,11.126 7.954,13.126"/>
<polygon fill="#1f77b4" fill-opacity="0.140" stroke="#1f77b4" stroke-opacity="0.55" stroke-width="0.07" points="14.150,13.119 14.147,11.119 9.347,11.126 9.350,13.126"/>
<polygon fill="#1f77b4" fill-opacity="0.140" stroke="#1f77b4" stroke-opacity="0.55" stroke-width="0.07" points="15.544,13.119 15.542,11.119 10.742,11.123 10.744,13.123"/>
<polygon fill="#1f77b4" fill-opacity="0.140" stroke="#1f77b4" stroke-opacity="0.55" stroke-width="0.07" points="16.938,13.119 16.938,11.119 12.138,11.121 12.138,13.121"/>
<polygon fill="#1f77b4" fill-opacity="0.140" stroke="#1f77b4" stroke-opacity="0.55" stroke-width="0.07" points="18.333,13.120 18.333,11.120 13.533,11.120 13.533,13.120"/>
<polygon fill="#1f77b4" fill-opacity="0.140" stroke="#1f77b4" stroke-opacity="0.55" stroke-width="0.07" points="19.728,13.120 19.728,11.120 14.928,11.120 14.928,13.120"/>
<polygon fill="#1f77b4" fill-opacity="0.140" stroke="#1f77b4" stroke-opacity="0.55" stroke-width="0.07" points="21.123,13.120 21.123,11.120 16.323,11.120 16.323,13.120"/>
<polygon fill="#1f77b4" fill-opacity="0.140" stroke="#1f77b4" stroke-opacity="0.55" stroke-width="0.07" points="22.518,13.120 22.518,11.120 17.718,11.120 17.718,13.120"/>
<polygon fill="#1f77b4" fill-opacity="0.140" stroke="#1f77b4" stroke-opacity="0.55" stroke-width="0.07" points="23.913,13.120 23.913,11.120 19.113,11.120 19.113,13.120"/>
<polygon fill="#1f77b4" fill-opacity="0.140" stroke="#1f77b4" stroke-opacity="0.55" stroke-width="0.07" points="25.308,13.120 25.308,11.120 20.508,11.120 20.508,13.120"/>
<polygon fill="#1f77b4" fill-opacity="0.140" stroke="#1f77b4" stroke-opacity="0.55" stroke-width="0.07" points="26.703,13.120 26.703,11.120 21.903,11.120 21.903,13.120"/>
<polygon fill="#1f77b4" fill-opacity="0.140" stroke="#1f77b4" stroke-opacity="0.55" stroke-width="0.07" points="28.098,13.120 28.098,11.120 23.298,11.120 23.298,13.120"/>
<polygon fill="#1f77b4" fill-opacity="0.140" stroke="#1f77b4" stroke-opacity="0.55" stroke-width="0.07" points="29.493,13.120 29.493,11.120 24.693,11.120 24.693,13.120"/>
<polygon fill="#1f77b4" fill-opacity="0.140" stroke="#1f77b4" stroke-opacity="0.55" stroke-width="0.07" points="30.888,13.120 30.888,11.120 26.088,11.120 26.088,13.120"/>
<polygon fill="#1f77b4" fill-opacity="0.140" stroke="#1f77b4" stroke-opacity="0.55" stroke-width="0.07" points="32.283,13.120 32.283,11.120 27.483,11.120 27.483,13.120"/>
<polygon fill="#1f77b4" fill-opacity="0.140" stroke="#1f77b4" stroke-opacity="0.55" stroke-width="0.07" points="33.678,13.120 33.678,11.120 28.878,11.120 28.878,13.120"/>
<polygon fill="#1f77b4" fill-opacity="0.140" stroke="#1f77b4" stroke-opacity="0.55" stroke-width="0.07" points="35.071,13.125 35.075,11.125 30.275,11.116 30.271,13.116"/>
<polygon fill="#1f77b4" fill-opacity="0.140" stroke="#1f77b4" stroke-opacity="0.55" stroke-width="0.07" points="36.359,13.393 36.552,11.402 31.775,10.939 31.582,12.930"/>
<polygon fill="#1f77b4" fill-opacity="0.140" stroke="#1f77b4" stroke-opacity="0.55" stroke-width="0.07" points="37.339,14.213 38.027,12.335 33.520,10.684 32.832,12.562"/>
<polygon fill="#1f77b4" fill-opacity="0.140" stroke="#1f77b4" stroke-opacity="0.55" stroke-width="0.07" points="37.834,15.437 39.120,13.906 35.445,10.819 34.159,12.350"/>
<polygon fill="#1f77b4" fill-opacity="0.140" stroke="#1f77b4" stroke-opacity="0.55" stroke-width="0.07" points="37.835,16.771 39.580,15.794 37.235,11.605 35.490,12.582"/>
<polygon fill="#1f77b4" fill-opacity="0.140" stroke="#1f77b4" stroke-opacity="0.55" stroke-width="0.07" points="37.412,18.028 39.384,17.696 38.587,12.963 36.615,13.295"/>
<polygon fill="#1f77b4" fill-opacity="0.140" stroke="#1f77b4" stroke-opacity="0.55" stroke-width="0.07" points="37.087,19.281 39.087,19.290 39.109,14.490 37.109,14.481"/>
<polygon fill="#1f77b4" fill-opacity="0.140" stroke="#1f77b4" stroke-opacity="0.55" stroke-width="0.07" points="36.964,20.638 38.962,20.718 39.153,15.921 37.154,15.842"/>
<polygon fill="#1f77b4" fill-opacity="0.140" stroke="#1f77b4" stroke-opacity="0.55" stroke-width="0.07" points="36.945,22.046 38.944,22.100 39.074,17.302 37.074,17.248"/>
<polygon fill="#1f77b4" fill-opacity="0.140" stroke="#1f77b4" stroke-opacity="0.55" stroke-width="0.07" points="36.959,23.458 38.959,23.479 39.008,18.679 37.008,18.659"/>
<polygon fill="#1f77b4" fill-opacity="0.140" stroke="#1f77b4" stroke-opacity="0.55" stroke-width="0.07" points="36.973,24.862 38.973,24.865 38.979,20.065 36.979,20.062"/>
<polygon fill="#1f77b4" fill-opacity="0.140" stroke="#1f77b4" stroke-opacity="0.55" stroke-width="0.07" points="36.980,26.260 38.980,26.257 38.973,21.457 36.973,21.460"/>
<polygon fill="#1f77b4" fill-opacity="0.140" stroke="#1f77b4" stroke-opacity="0.55" stroke-width="0.07" points="36.981,27.655 38.981,27.652 38.975,22.852 36.975,22.855"/>
<polygon fill="#1f77b4" fill-opacity="0.140" stroke="#1f77b4" stroke-opacity="0.55" stroke-width="0.07" points="36.981,29.049 38.981,29.048 38.978,24.248 36.978,24.249"/>
<polygon fill="#1f77b4" fill-opacity="0.140" stroke="#1f77b4" stroke-opacity="0.55" stroke-width="0.07" points="36.980,30.444 38.980,30.444 38.980,25.644 36.980,25.644"/>
<polygon fill="#1f77b4" fill-opacity="0.140" stroke="#1f77b4" stroke-opacity="0.55" stroke-width="0.07" points="36.980,31.839 38.980,31.839 38.980,27.039 36.980,27.039"/>
<polygon fill="#1f77b4" fill-opacity="0.140" stroke="#1f77b4" stroke-opacity="0.55" stroke-width="0.07" points="36.980,33.234 38.980,33.234 38.980,28.434 36.980,28.434"/>
<polygon fill="#1f77b4" fill-opacity="0.140" stroke="#1f77b4" stroke-opacity="0.55" stroke-width="0.07" points="36.974,34.626 38.974,34.631 38.985,29.831 36.986,29.826"/>
<polygon fill="#1f77b4" fill-opacity="0.140" stroke="#1f77b4" stroke-opacity="0.55" stroke-width="0.07" points="36.698,35.911 38.688,36.110 39.165,31.334 37.175,31.135"/>
<polygon fill="#1f77b4" fill-opacity="0.140" stroke="#1f77b4" stroke-opacity="0.55" stroke-width="0.07" points="35.860,36.877 37.732,37.581 39.421,33.088 37.549,32.384"/>
<polygon fill="#1f77b4" fill-opacity="0.140" stroke="#1f77b4" stroke-opacity="0.55" stroke-width="0.07" points="34.632,37.362 36.152,38.661 39.270,35.012 37.750,33.713"/>
<polygon fill="#1f77b4" fill-opacity="0.140" stroke="#1f77b4" stroke-opacity="0.55" stroke-width="0.07" points="33.298,37.351 34.260,39.104 38.469,36.796 37.506,35.042"/>
<polygon fill="#1f77b4" fill-opacity="0.140" stroke="#1f77b4" stroke-opacity="0.55" stroke-width="0.07" points="32.043,36.923 32.362,38.897 37.101,38.132 36.782,36.158"/>
<polygon fill="#1f77b4" fill-opacity="0.140" stroke="#1f77b4" stroke-opacity="0.55" stroke-width="0.07" points="30.788,36.603 30.775,38.603 35.575,38.635 35.588,36.635"/>
<polygon fill="#1f77b4" fill-opacity="0.140" stroke="#1f77b4" stroke-opacity="0.55" stroke-width="0.07" points="29.430,36.482 29.349,38.480 34.145,38.674 34.226,36.675"/>
<polygon fill="#1f77b4" fill-opacity="0.140" stroke="#1f77b4" stroke-opacity="0.55" stroke-width="0.07" points="28.021,36.464 27.967,38.464 32.766,38.592 32.819,36.593"/>
<polygon fill="#1f77b4" fill-opacity="0.140" stroke="#1f77b4" stroke-opacity="0.55" stroke-width="0.07" points="26.609,36.479 26.589,38.479 31.388,38.527 31.408,36.527"/>
<polygon fill="#1f77b4" fill-opacity="0.140" stroke="#1f77b4" stroke-opacity="0.55" stroke-width="0.07" points="25.205,36.493 25.202,38.493 30.002,38.498 30.005,36.498"/>
<polygon fill="#1f77b4" fill-opacity="0.140" stroke="#1f77b4" stroke-opacity="0.55" stroke-width="0.07" points="23.807,36.500 23.810,38.500 28.610,38.493 28.607,36.493"/>
<polygon fill="#1f77b4" fill-opacity="0.140" stroke="#1f77b4" stroke-opacity="0.55" stroke-width="0.07" points="22.412,36.501 22.415,38.501 27.215,38.495 27.212,36.495"/>
<polygon fill="#1f77b4" fill-opacity="0.140" stroke="#1f77b4" stroke-opacity="0.55" stroke-width="0.07" points="21.018,36.501 21.019,38.501 25.819,38.498 25.818,36.498"/>
<polygon fill="#1f77b4" fill-opacity="0.140" stroke="#1f77b4" stroke-opacity="0.55" stroke-width="0.07" points="19.623,36.500 19.624,38.500 24.424,38.500 24.423,36.500"/>
<polygon fill="#1f77b4" fill-opacity="0.140" stroke="#1f77b4" stroke-opacity="0.55" stroke-width="0.07" points="18.229,36.500 18.228,38.500 23.028,38.500 23.029,36.500"/>
<polygon fill="#1f77b4" fill-opacity="0.140" stroke="#1f77b4" stroke-opacity="0.55" stroke-width="0.07" points="16.834,36.500 16.833,38.500 21.633,38.500 21.634,36.500"/>
<polygon fill="#1f77b4" fill-opacity="0.140" stroke="#1f77b4" stroke-opacity="0.55" stroke-width="0.07" points="15.438,36.500 15.438,38.500 20.238,38.500 20.238,36.500"/>
<polygon fill="#1f77b4" fill-opacity="0.140" stroke="#1f77b4" stroke-opacity="0.55" stroke-width="0.07" points="14.043,36.500 14.043,38.500 18.843,38.500 18.843,36.500"/>
<polygon fill="#1f77b4" fill-opacity="0.140" stroke="#1f77b4" stroke-opacity="0.55" stroke-width="0.07" points="12.648,36.500 12.648,38.500 17.448,38.500 17.448,36.500"/>
<polygon fill="#1f77b4" fill-opacity="0.140" stroke="#1f77b4" stroke-opacity="0.55" stroke-width="0.07" points="11.253,36.500 11.253,38.500 16.053,38.500 16.053,36.500"/>
<polygon fill="#1f77b4" fill-opacity="0.140" stroke="#1f77b4" stroke-opacity="0.55" stroke-width="0.07" points="9.948,36.500 9.948,38.500 14.748,38.500 14.748,36.500"/>
<polygon fill="#1f77b4" fill-opacity="0.140" stroke="#1f77b4" stroke-opacity="0.55" stroke-width="0.07" points="8.979,36.500 8.979,38.500 13.779,38.500 13.779,36.500"/>
<polygon fill="#1f77b4" fill-opacity="0.140" stroke="#1f77b4" stroke-opacity="0.55" stroke-width="0.07" points="8.333,36.500 8.333,38.500 13.133,38.500 13.133,36.500"/>
<polygon fill="#1f77b4" fill-opacity="0.140" stroke="#1f77b4" stroke-opacity="0.55" stroke-width="0.07" points="7.913,36.500 7.913,38.500 12.713,38.500 12.713,36.500"/>
<polygon fill="#1f77b4" fill-opacity="0.140" stroke="#1f77b4" stroke-opacity="0.55" stroke-width="0.07" points="7.743,36.500 7.743,38.500 12.543,38.500 12.543,36.500"/>
<polygon fill="#ff7f0e" fill-opacity="0.160" stroke="#ff7f0e" stroke-opacity="0.55" stroke-width="0.07" points="7.747,36.500 7.747,38.500 12.547,38.500 12.547,36.500"/>
<polygon fill="#ff7f0e" fill-opacity="0.160" stroke="#ff7f0e" stroke-opacity="0.55" stroke-width="0.07" points="8.080,36.714 8.268,38.705 13.046,38.254 12.859,36.263"/>
<polygon fill="#ff7f0e" fill-opacity="0.160" stroke="#ff7f0e" stroke-opacity="0.55" stroke-width="0.07" points="8.613,37.023 9.125,38.957 13.765,37.727 13.253,35.794"/>
<polygon fill="#ff7f0e" fill-opacity="0.160" stroke="#ff7f0e" stroke-opacity="0.55" stroke-width="0.07" points="9.221,37.250 10.059,39.066 14.417,37.054 13.579,35.238"/>
<polygon fill="#ff7f0e" fill-opacity="0.160" stroke="#ff7f0e" stroke-opacity="0.55" stroke-width="0.07" points="9.864,37.369 11.005,39.011 14.947,36.272 13.805,34.629"/>
<polygon fill="#ff7f0e" fill-opacity="0.160" stroke="#ff7f0e" stroke-opacity="0.55" stroke-width="0.07" points="10.518,37.374 11.928,38.792 15.332,35.409 13.922,33.990"/>
<polygon fill="#ff7f0e" fill-opacity="0.160" stroke="#ff7f0e" stroke-opacity="0.55" stroke-width="0.07" points="11.163,37.265 12.798,38.416 15.562,34.491 13.926,33.340"/>
<polygon fill="#ff7f0e" fill-opacity="0.160" stroke="#ff7f0e" stroke-opacity="0.55" stroke-width="0.07" points="11.779,37.045 13.590,37.894 15.628,33.548 13.817,32.699"/>
<polygon fill="#ff7f0e" fill-opacity="0.160" stroke="#ff7f0e" stroke-opacity="0.55" stroke-width="0.07" points="12.339,36.714 14.267,37.244 15.540,32.616 13.612,32.086"/>
<polygon fill="#ff7f0e" fill-opacity="0.160" stroke="#ff7f0e" stroke-opacity="0.55" stroke-width="0.07" points="12.810,36.279 14.798,36.499 15.327,31.728 13.339,31.508"/>
<polygon fill="#ff7f0e" fill-opacity="0.160" stroke="#ff7f0e" stroke-opacity="0.55" stroke-width="0.07" points="13.104,35.732 15.104,35.727 15.093,30.927 13.093,30.932"/>
<polygon fill="#ff7f0e" fill-opacity="0.160" stroke="#ff7f0e" stroke-opacity="0.55" stroke-width="0.07" points="13.103,35.057 15.103,35.052 15.092,30.252 13.092,30.257"/>
<polygon fill="#ff7f0e" fill-opacity="0.160" stroke="#ff7f0e" stroke-opacity="0.55" stroke-width="0.07" points="13.101,34.385 15.101,34.380 15.090,29.580 13.090,29.585"/>
<polygon fill="#ff7f0e" fill-opacity="0.160" stroke="#ff7f0e" stroke-opacity="0.55" stroke-width="0.07" points="13.100,33.768 15.100,33.763 15.089,28.963 13.089,28.968"/>
<polygon fill="#ff7f0e" fill-opacity="0.160" stroke="#ff7f0e" stroke-opacity="0.55" stroke-width="0.07" points="13.099,33.244 15.099,33.240 15.087,28.440 13.087,28.445"/>
<polygon fill="#ff7f0e" fill-opacity="0.160" stroke="#ff7f0e" stroke-opacity="0.55" stroke-width="0.07" points="13.098,32.808 15.098,32.803 15.086,28.003 13.086,28.008"/>
<polygon fill="#ff7f0e" fill-opacity="0.160" stroke="#ff7f0e" stroke-opacity="0.55" stroke-width="0.07" points="13.097,32.444 15.097,32.439 15.085,27.639 13.085,27.644"/>
<polygon fill="#ff7f0e" fill-opacity="0.160" stroke="#ff7f0e" stroke-opacity="0.55" stroke-width="0.07" points="13.096,32.120 15.096,32.116 15.085,27.316 13.085,27.320"/>
<polygon fill="#ff7f0e" fill-opacity="0.160" stroke="#ff7f0e" stroke-opacity="0.55" stroke-width="0.07" points="13.095,31.804 15.095,31.799 15.084,26.999 13.084,27.004"/>
<polygon fill="#ff7f0e" fill-opacity="0.160" stroke="#ff7f0e" stroke-opacity="0.55" stroke-width="0.07" points="13.094,31.489 15.094,31.484 15.083,26.684 13.083,26.689"/>
<polygon fill="#ff7f0e" fill-opacity="0.160" stroke="#ff7f0e" stroke-opacity="0.55" stroke-width="0.07" points="13.094,31.174 15.094,31.169 15.083,26.369 13.083,26.374"/>
<polygon fill="#ff7f0e" fill-opacity="0.160" stroke="#ff7f0e" stroke-opacity="0.55" stroke-width="0.07" points="13.093,30.859 15.093,30.854 15.082,26.054 13.082,26.059"/>
<polygon fill="#ff7f0e" fill-opacity="0.160" stroke="#ff7f0e" stroke-opacity="0.55" stroke-width="0.07" points="13.093,30.736 15.093,30.732 15.081,25.932 13.082,25.936"/>
<polygon fill="none" stroke="crimson" stroke-width="0.120" points="13.093,30.736 15.093,30.732 15.081,25.932 13.082,25.936"/>
</g>
</svg>
