<?xml version="1.0" encoding="UTF-8"?>
<svg xmlns="http://www.w3.org/2000/svg" width="1400" height="900" viewBox="0 -3 75 53">
<rect x="0" y="-3" width="75" height="53" fill="white"/>
<text x="1.5" y="-1.35" font-size="1.15" fill="black">Parking | target row=3 idx=4 | success=true sim_ok=true | max_steer=35 deg | overshoot~=5 m | total(ref)~=4e+01 m</text>
<text x="1.5" y="-0.45" font-size="0.95" fill="black">ok</text>
<g transform="translate(0,50.000) scale(1,-1)">
<rect x="0" y="0" width="75.000" height="50.000" fill="none" stroke="black" stroke-width="0.15"/>
<rect x="0.000" y="9.000" width="75.000" height="6.000" fill="#add8e6" fill-opacity="0.25" stroke="#add8e6" stroke-width="0.08"/>
<rect x="0.000" y="34.500" width="75.000" height="6.000" fill="#add8e6" fill-opacity="0.25" stroke="#add8e6" stroke-width="0.08"/>
<rect x="36.000" y="12.000" width="6.000" height="25.500" fill="#90ee90" fill-opacity="0.25" stroke="#90ee90" stroke-width="0.08"/>
<rect x="12.000" y="44.000" width="4.800" height="6.000" fill="white" stroke="gray" stroke-width="0.080" fill-opacity="0.85"/>
<rect x="16.800" y="44.000" width="4.800" height="6.000" fill="white" stroke="gray" stroke-width="0.080" fill-opacity="0.85"/>
<rect x="21.600" y="44.000" width="4.800" height="6.000" fill="white" stroke="gray" stroke-width="0.080" fill-opacity="0.85"/>
<rect x="26.400" y="44.000" width="4.800" height="6.000" fill="white" stroke="gray" stroke-width="0.080" fill-opacity="0.85"/>
<rect x="31.200" y="44.000" width="4.800" height="6.000" fill="white" stroke="gray" stroke-width="0.080" fill-opacity="0.85"/>
<rect x="12.000" y="25.000" width="4.800" height="6.000" fill="white" stroke="gray" stroke-width="0.080" fill-opacity="0.85"/>
<rect x="16.800" y="25.000" width="4.800" height="6.000" fill="white" stroke="gray" stroke-width="0.080" fill-opacity="0.85"/>
<rect x="21.600" y="25.000" width="4.800" height="6.000" fill="white" stroke="gray" stroke-width="0.080" fill-opacity="0.85"/>
<rect x="26.400" y="25.000" width="4.800" height="6.000" fill="white" stroke="gray" stroke-width="0.080" fill-opacity="0.85"/>
<rect x="31.200" y="25.000" width="4.800" height="6.000" fill="white" stroke="gray" stroke-width="0.080" fill-opacity="0.85"/>
<rect x="12.000" y="19.000" width="4.800" height="6.000" fill="white" stroke="gray" stroke-width="0.080" fill-opacity="0.85"/>
<rect x="16.800" y="19.000" width="4.800" height="6.000" fill="white" stroke="gray" stroke-width="0.080" fill-opacity="0.85"/>
<rect x="21.600" y="19.000" width="4.800" height="6.000" fill="white" stroke="gray" stroke-width="0.080" fill-opacity="0.85"/>
<rect x="26.400" y="19.000" width="4.800" height="6.000" fill="white" stroke="gray" stroke-width="0.080" fill-opacity="0.85"/>
<rect x="31.200" y="19.000" width="4.800" height="6.000" fill="white" stroke="gray" stroke-width="0.080" fill-opacity="0.85"/>
<rect x="12.000" y="0.000" width="4.800" height="6.000" fill="white" stroke="gray" stroke-width="0.080" fill-opacity="0.85"/>
<rect x="16.800" y="0.000" width="4.800" height="6.000" fill="white" stroke="gray" stroke-width="0.080" fill-opacity="0.85"/>
<rect x="21.600" y="0.000" width="4.800" height="6.000" fill="white" stroke="gray" stroke-width="0.080" fill-opacity="0.85"/>
<rect x="26.400" y="0.000" width="4.800" height="6.000" fill="white" stroke="gray" stroke-width="0.080" fill-opacity="0.85"/>
<rect x="31.200" y="0.000" width="4.800" height="6.000" fill="#98fb98" stroke="darkgreen" stroke-width="0.180" fill-opacity="0.85"/>
<polygon fill="none" stroke="navy" stroke-width="0.120" points="6.400,13.000 6.400,11.000 1.600,11.000 1.600,13.000"/>
<polygon fill="purple" points="30.820,12.000 31.100,12.350 31.380,12.000 31.100,11.650"/>
<circle cx="38.400" cy="12.000" r="0.38" fill="darkviolet" stroke="indigo" stroke-width="0.06"/>
<polyline fill="none" stroke="#808080" stroke-width="0.120" stroke-opacity="0.65" stroke-dasharray="0.45 0.35" points="4.000,12.000 31.100,12.000 38.400,12.000"/>
<polyline fill="none" stroke="#808080" stroke-width="0.120" stroke-opacity="0.65" stroke-dasharray="0.45 0.35" points="38.400,12.000 38.400,11.835 38.392,11.667 38.377,11.496 38.354,11.323 38.324,11.146 38.287,10.968 38.244,10.786 38.194,10.603 38.138,10.417 38.076,10.230 38.008,10.041 37.934,9.850 37.856,9.658 37.772,9.464 37.683,9.269 37.589,9.073 37.491,8.877 37.389,8.679 37.283,8.481 37.173,8.283 37.060,8.084 36.943,7.885 36.823,7.686 36.700,7.487 36.575,7.289 36.447,7.091 36.317,6.893 36.185,6.697 36.051,6.501 35.916,6.306 35.779,6.113 35.642,5.921 35.503,5.730 35.364,5.541 35.224,5.354 35.085,5.168 34.945,4.985 34.806,4.804 34.667,4.625 34.529,4.449 34.391,4.276 34.255,4.105 34.120,3.938 33.987,3.773 33.856,3.612 33.727,3.454 33.600,3.300"/>
<polyline fill="none" stroke="#1f77b4" stroke-width="0.220" stroke-opacity="0.95" points="4.008,12.000 4.022,12.000 4.043,12.000 4.070,12.000 4.102,12.000 4.138,12.000 4.179,12.000 4.223,12.000 4.270,12.000 4.321,12.000 4.374,12.000 4.429,12.000 4.487,12.000 4.547,12.000 4.609,12.000 4.672,12.000 4.736,12.000 4.802,12.000 4.869,12.000 4.937,12.000 5.006,12.000 5.076,12.000 5.147,12.000 5.218,12.000 5.290,12.000 5.363,12.000 5.436,12.000 5.509,12.000 5.583,12.000 5.657,12.000 5.732,12.000 5.806,12.000 5.882,12.000 5.957,12.000 6.032,12.000 6.108,12.000 6.184,12.000 6.260,12.000 6.336,12.000 6.413,12.000 6.489,12.000 6.566,12.000 6.643,12.000 6.719,12.000 6.796,12.000 6.873,12.000 6.950,12.000 7.027,12.000 7.104,12.000 7.181,12.000 7.258,12.000 7.335,12.000 7.413,12.000 7.490,12.000 7.567,12.000 7.644,12.000 7.722,12.000 7.799,12.000 7.876,12.000 7.954,12.000 8.031,12.000 8.109,12.000 8.186,12.000 8.263,12.000 8.341,12.000 8.418,12.000 8.496,12.000 8.573,12.000 8.650,12.000 8.728,12.000 8.805,12.000 8.883,12.000 8.960,12.000 9.038,12.000 9.115,12.000 9.193,12.000 9.270,12.000 9.348,12.000 9.425,12.000 9.503,12.000 9.580,12.000 9.658,12.000 9.735,12.000 9.813,12.000 9.890,12.000 9.968,12.000 10.045,12.000 10.123,12.000 10.200,12.000 10.278,12.000 10.355,12.000 10.433,12.000 10.510,12.000 10.588,12.000 10.665,12.000 10.743,12.000 10.820,12.000 10.898,12.000 10.975,12.000 11.053,12.000 11.130,12.000 11.208,12.000 11.285,12.000 11.363,12.000 11.440,12.000 11.518,12.000 11.595,12.000 11.673,12.000 11.750,12.000 11.828,12.000 11.905,12.000 11.983,12.000 12.060,12.000 12.138,12.000 12.215,12.000 12.293,12.000 12.370,12.000 12.448,12.000 12.525,12.000 12.603,12.000 12.680,12.000 12.758,12.000 12.835,12.000 12.913,12.000 12.990,12.000 13.068,12.000 13.145,12.000 13.223,12.000 13.300,12.000 13.378,12.000 13.455,12.000 13.533,12.000 13.610,12.000 13.688,12.000 13.765,12.000 13.843,12.000 13.920,12.000 13.998,12.000 14.075,12.000 14.153,12.000 14.230,12.000 14.308,12.000 14.385,12.000 14.463,12.000 14.540,12.000 14.618,12.000 14.695,12.000 14.773,12.000 14.850,12.000 14.928,12.000 15.005,12.000 15.083,12.000 15.160,12.000 15.238,12.000 15.315,12.000 15.393,12.000 15.470,12.000 15.548,12.000 15.625,12.000 15.703,12.000 15.780,12.000 15.858,12.000 15.935,12.000 16.013,12.000 16.090,12.000 16.168,12.000 16.245,12.000 16.323,12.000 16.400,12.000 16.478,12.000 16.555,12.000 16.633,12.000 16.710,12.000 16.788,12.000 16.865,12.000 16.943,12.000 17.020,12.000 17.098,12.000 17.175,12.000 17.253,12.000 17.330,12.000 17.408,12.000 17.485,12.000 17.563,12.000 17.640,12.000 17.718,12.000 17.795,12.000 17.873,12.000 17.950,12.000 18.028,12.000 18.105,12.000 18.183,12.000 18.260,12.000 18.338,12.000 18.415,12.000 18.493,12.000 18.570,12.000 18.648,12.000 18.725,12.000 18.803,12.000 18.880,12.000 18.958,12.000 19.035,12.000 19.113,12.000 19.190,12.000 19.268,12.000 19.345,12.000 19.423,12.000 19.500,12.000 19.578,12.000 19.655,12.000 19.733,12.000 19.810,12.000 19.888,12.000 19.965,12.000 20.043,12.000 20.120,12.000 20.198,12.000 20.275,12.000 20.353,12.000 20.430,12.000 20.508,12.000 20.585,12.000 20.663,12.000 20.740,12.000 20.818,12.000 20.895,12.000 20.973,12.000 21.050,12.000 21.128,12.000 21.205,12.000 21.283,12.000 21.360,12.000 21.438,12.000 21.515,12.000 21.593,12.000 21.670,12.000 21.748,12.000 21.825,12.000 21.903,12.000 21.980,12.000 22.058,12.000 22.135,12.000 22.213,12.000 22.290,12.000 22.368,12.000 22.445,12.000 22.523,12.000 22.600,12.000 22.678,12.000 22.755,12.000 22.833,12.000 22.910,12.000 22.988,12.000 23.065,12.000 23.143,12.000 23.220,12.000 23.298,12.000 23.375,12.000 23.453,12.000 23.530,12.000 23.608,12.000 23.685,12.000 23.763,12.000 23.840,12.000 23.918,12.000 23.995,12.000 24.073,12.000 24.150,12.000 24.228,12.000 24.305,12.000 24.383,12.000 24.460,12.000 24.538,12.000 24.615,12.000 24.693,12.000 24.770,12.000 24.848,12.000 24.925,12.000 25.003,12.000 25.080,12.000 25.158,12.000 25.235,12.000 25.313,12.000 25.390,12.000 25.468,12.000 25.545,12.000 25.623,12.000 25.700,12.000 25.778,12.000 25.855,12.000 25.933,12.000 26.010,12.000 26.088,12.000 26.165,12.000 26.243,12.000 26.320,12.000 26.398,12.000 26.475,12.000 26.553,12.000 26.630,12.000 26.708,12.000 26.785,12.000 26.863,12.000 26.940,12.000 27.018,12.000 27.095,12.000 27.173,12.000 27.250,12.000 27.328,12.000 27.405,12.000 27.483,12.000 27.560,12.000 27.638,12.000 27.715,12.000 27.793,12.000 27.870,12.000 27.948,12.000 28.025,12.000 28.103,12.000 28.180,12.000 28.258,12.000 28.335,12.000 28.413,12.000 28.490,12.000 28.568,12.000 28.645,12.000 28.723,12.000 28.800,12.000 28.878,12.000 28.955,12.000 29.033,12.000 29.110,12.000 29.188,12.000 29.265,12.000 29.343,12.000 29.420,12.000 29.498,12.000 29.575,12.000 29.653,12.000 29.730,12.000 29.808,12.000 29.885,12.000 29.963,12.000 30.040,12.000 30.118,12.000 30.195,12.000 30.273,12.000 30.350,12.000 30.428,12.000 30.505,12.000 30.583,12.000 30.660,12.000 30.738,12.000 30.815,12.000 30.893,12.000 30.970,12.000 31.048,12.000 31.125,12.000 31.203,12.000 31.280,12.000 31.358,12.000 31.435,12.000 31.513,12.000 31.590,12.000 31.668,12.000 31.745,12.000 31.823,12.000 31.900,12.000 31.978,12.000 32.055,12.000 32.133,12.000 32.210,12.000 32.288,12.000 32.365,12.000 32.443,12.000 32.520,12.000 32.598,12.000 32.675,12.000 32.753,12.000 32.830,12.000 32.908,12.000 32.985,12.000 33.063,12.000 33.140,12.000 33.218,12.000 33.295,12.000 33.373,12.000 33.450,12.000 33.528,12.000 33.605,12.000 33.683,12.000 33.760,12.000 33.838,12.000 33.915,12.000 33.993,12.000 34.070,12.000 34.148,12.000 34.225,12.000 34.303,12.000 34.380,12.000 34.458,12.000 34.535,12.000 34.612,12.000 34.689,12.000 34.765,12.000 34.841,12.000 34.916,12.000 34.990,12.000 35.063,12.000 35.136,12.000 35.208,12.000 35.278,12.000 35.348,12.000 35.417,12.000 35.484,12.000 35.551,12.000 35.616,12.000 35.680,12.000 35.743,12.000 35.805,12.000 35.866,12.000 35.925,12.000 35.983,12.000 36.041,12.000 36.097,12.000 36.152,12.000 36.205,12.000 36.258,12.000 36.310,12.000 36.360,12.000 36.409,12.000 36.458,12.000 36.505,12.000 36.551,12.000 36.596,12.000 36.640,12.000 36.683,12.000 36.726,12.000 36.767,12.000 36.807,12.000 36.846,12.000 36.885,12.000 36.922,12.000 36.959,12.000 36.994,12.000 37.029,12.000 37.063,12.000 37.096,12.000 37.129,12.000 37.160,12.000 37.191,12.000 37.221,12.000 37.251,12.000 37.280,12.000 37.308,12.000 37.335,12.000 37.361,12.000 37.387,12.000 37.413,12.000 37.438,12.000 37.462,12.000 37.485,12.000 37.508,12.000 37.531,12.000 37.552,12.000 37.574,12.000 37.595,12.000 37.616,12.000 37.636,12.000 37.656,12.000 37.676,12.000 37.696,12.000 37.715,12.000 37.734,12.000 37.753,12.000 37.772,12.000 37.791,12.000 37.810,12.000 37.828,12.000 37.847,12.000 37.865,12.000"/>
<polyline fill="none" stroke="#ff7f0e" stroke-width="0.220" stroke-opacity="0.95" points="37.861,12.000 37.854,12.000 37.844,12.000 37.831,12.000 37.816,12.000 37.798,12.000 37.778,12.000 37.757,12.000 37.734,11.999 37.710,11.999 37.684,11.998 37.657,11.997 37.629,11.996 37.600,11.995 37.570,11.993 37.540,11.991 37.509,11.989 37.477,11.987 37.445,11.984 37.412,11.981 37.379,11.977 37.345,11.974 37.311,11.970 37.277,11.965 37.242,11.960 37.208,11.955 37.173,11.950 37.138,11.944 37.103,11.938 37.067,11.931 37.032,11.924 36.996,11.917 36.961,11.909 36.925,11.901 36.890,11.893 36.854,11.884 36.819,11.875 36.783,11.866 36.747,11.856 36.712,11.846 36.676,11.835 36.641,11.825 36.606,11.813 36.570,11.802 36.535,11.790 36.500,11.778 36.465,11.765 36.430,11.752 36.395,11.739 36.360,11.725 36.326,11.711 36.291,11.697 36.257,11.682 36.223,11.667 36.189,11.652 36.155,11.636 36.121,11.620 36.087,11.604 36.054,11.587 36.020,11.570 35.987,11.553 35.954,11.535 35.921,11.517 35.889,11.499 35.856,11.480 35.824,11.461 35.792,11.442 35.760,11.423 35.728,11.403 35.696,11.383 35.665,11.362 35.634,11.341 35.603,11.320 35.572,11.299 35.541,11.277 35.511,11.255 35.481,11.233 35.451,11.210 35.421,11.187 35.392,11.164 35.362,11.141 35.333,11.117 35.305,11.093 35.276,11.069 35.248,11.044 35.220,11.019 35.192,10.994 35.164,10.969 35.137,10.943 35.110,10.917 35.083,10.891 35.056,10.865 35.030,10.838 35.004,10.811 34.978,10.784 34.952,10.757 34.927,10.729 34.902,10.701 34.877,10.673 34.853,10.644 34.829,10.616 34.805,10.587 34.781,10.558 34.758,10.528 34.735,10.499 34.712,10.469 34.690,10.439 34.667,10.409 34.646,10.378 34.624,10.347 34.603,10.317 34.582,10.286 34.561,10.254 34.541,10.223 34.521,10.191 34.501,10.159 34.481,10.127 34.462,10.095 34.443,10.063 34.425,10.030 34.407,9.997 34.389,9.964 34.371,9.931 34.354,9.898 34.337,9.864 34.320,9.831 34.304,9.797 34.288,9.763 34.272,9.729 34.257,9.695 34.242,9.660 34.227,9.626 34.213,9.591 34.198,9.557 34.185,9.522 34.171,9.487 34.158,9.452 34.145,9.416 34.133,9.381 34.120,9.346 34.108,9.310 34.097,9.275 34.085,9.239 34.074,9.203 34.064,9.167 34.053,9.131 34.043,9.095 34.033,9.059 34.024,9.022 34.015,8.986 34.006,8.949 33.998,8.913 33.989,8.876 33.981,8.840 33.974,8.803 33.966,8.766 33.959,8.729 33.953,8.692 33.946,8.656 33.940,8.619 33.935,8.581 33.929,8.544 33.924,8.507 33.919,8.470 33.914,8.433 33.910,8.396 33.906,8.358 33.902,8.321 33.899,8.284 33.896,8.246 33.893,8.209 33.890,8.171 33.888,8.134 33.886,8.097 33.884,8.059 33.883,8.022 33.882,7.984 33.881,7.947 33.880,7.909 33.880,7.872 33.880,7.834 33.880,7.797 33.880,7.759 33.880,7.722 33.880,7.684 33.880,7.647 33.880,7.609 33.880,7.572 33.880,7.534 33.880,7.497 33.881,7.459 33.881,7.422 33.881,7.384 33.881,7.347 33.881,7.309 33.881,7.272 33.881,7.234 33.881,7.197 33.882,7.159 33.882,7.122 33.882,7.085 33.882,7.048 33.882,7.011 33.882,6.975 33.882,6.938 33.882,6.902 33.883,6.866 33.883,6.831 33.883,6.795 33.883,6.760 33.883,6.725 33.883,6.690 33.883,6.656 33.883,6.622 33.884,6.588 33.884,6.554 33.884,6.521 33.884,6.488 33.884,6.456 33.884,6.423 33.884,6.391 33.884,6.359 33.884,6.328 33.885,6.297 33.885,6.266 33.885,6.235 33.885,6.205 33.885,6.175 33.885,6.145 33.885,6.116 33.885,6.087 33.885,6.058 33.885,6.029 33.885,6.001 33.886,5.973 33.886,5.945 33.886,5.918 33.886,5.891 33.886,5.864 33.886,5.837 33.886,5.811 33.886,5.785 33.886,5.759 33.886,5.733 33.886,5.708 33.887,5.683 33.887,5.658 33.887,5.634 33.887,5.609 33.887,5.585 33.887,5.562 33.887,5.538 33.887,5.515 33.887,5.492 33.887,5.469 33.887,5.446 33.887,5.424 33.888,5.402 33.888,5.380 33.888,5.358 33.888,5.337 33.888,5.315 33.888,5.294 33.888,5.274 33.888,5.253 33.888,5.232 33.888,5.212 33.888,5.192 33.888,5.173 33.888,5.153 33.888,5.134 33.888,5.114 33.889,5.095 33.889,5.076 33.889,5.058 33.889,5.039 33.889,5.021 33.889,5.002 33.889,4.984 33.889,4.966 33.889,4.948 33.889,4.929 33.889,4.911 33.889,4.893 33.889,4.876 33.889,4.858 33.889,4.840 33.889,4.822 33.890,4.804 33.890,4.786 33.890,4.769 33.890,4.751 33.890,4.733 33.890,4.716 33.890,4.698 33.890,4.680 33.890,4.663 33.890,4.645 33.890,4.628 33.890,4.610 33.890,4.592 33.890,4.575 33.890,4.557 33.890,4.540 33.890,4.522 33.891,4.505 33.891,4.487 33.891,4.469 33.891,4.452 33.891,4.434 33.891,4.417 33.891,4.399 33.891,4.382 33.891,4.364 33.891,4.347 33.891,4.329 33.891,4.312 33.891,4.294 33.891,4.277 33.891,4.259 33.891,4.242 33.891,4.224 33.892,4.207 33.892,4.189 33.892,4.172 33.892,4.154 33.892,4.137 33.892,4.119 33.892,4.102 33.892,4.084 33.892,4.067 33.892,4.049 33.892,4.032 33.892,4.014 33.892,3.997 33.892,3.979 33.892,3.962 33.892,3.944 33.893,3.927 33.893,3.909 33.893,3.892 33.893,3.874 33.893,3.857 33.893,3.839 33.893,3.822 33.893,3.804 33.893,3.787 33.893,3.769 33.893,3.752 33.893,3.734 33.893,3.717 33.893,3.699 33.893,3.682 33.893,3.664 33.893,3.647 33.894,3.629 33.894,3.612 33.894,3.594 33.894,3.577 33.894,3.559 33.894,3.542 33.894,3.524 33.894,3.507 33.894,3.489 33.894,3.472 33.894,3.454 33.894,3.437 33.894,3.419 33.894,3.402 33.894,3.384 33.894,3.367 33.894,3.349"/>
<polygon fill="#1f77b4" fill-opacity="0.140" stroke="#1f77b4" stroke-opacity="0.55" stroke-width="0.07" points="6.408,13.000 6.408,11.000 1.608,11.000 1.608,13.000"/>
<polygon fill="#1f77b4" fill-opacity="0.140" stroke="#1f77b4" stroke-opacity="0.55" stroke-width="0.07" points="7.269,13.000 7.269,11.000 2.469,11.000 2.469,13.000"/>
<polygon fill="#1f77b4" fill-opacity="0.140" stroke="#1f77b4" stroke-opacity="0.55" stroke-width="0.07" points="8.584,13.000 8.584,11.000 3.784,11.000 3.784,13.000"/>
<polygon fill="#1f77b4" fill-opacity="0.140" stroke="#1f77b4" stroke-opacity="0.55" stroke-width="0.07" points="9.967,13.000 9.967,11.000 5.167,11.000 5.167,13.000"/>
<polygon fill="#1f77b4" fill-opacity="0.140" stroke="#1f77b4" stroke-opacity="0.55" stroke-width="0.07" points="11.360,13.000 11.360,11.000 6.560,11.000 6.560,13.000"/>
<polygon fill="#1f77b4" fill-opacity="0.140" stroke="#1f77b4" stroke-opacity="0.55" stroke-width="0.07" points="12.755,13.000 12.755,11.000 7.955,11.000 7.955,13.000"/>
<polygon fill="#1f77b4" fill-opacity="0.140" stroke="#1f77b4" stroke-opacity="0.55" stroke-width="0.07" points="14.150,13.000 14.150,11.000 9.350,11.000 9.350,13.000"/>
<polygon fill="#1f77b4" fill-opacity="0.140" stroke="#1f77b4" stroke-opacity="0.55" stroke-width="0.07" points="15.545,13.000 15.545,11.000 10.745,11.000 10.745,13.000"/>
<polygon fill="#1f77b4" fill-opacity="0.140" stroke="#1f77b4" stroke-opacity="0.55" stroke-width="0.07" points="16.940,13.000 16.940,11.000 12.140,11.000 12.140,13.000"/>
<polygon fill="#1f77b4" fill-opacity="0.140" stroke="#1f77b4" stroke-opacity="0.55" stroke-width="0.07" points="18.335,13.000 18.335,11.000 13.535,11.000 13.535,13.000"/>
<polygon fill="#1f77b4" fill-opacity="0.140" stroke="#1f77b4" stroke-opacity="0.55" stroke-width="0.07" points="19.730,13.000 19.730,11.000 14.930,11.000 14.930,13.000"/>
<polygon fill="#1f77b4" fill-opacity="0.140" stroke="#1f77b4" stroke-opacity="0.55" stroke-width="0.07" points="21.125,13.000 21.125,11.000 16.325,11.000 16.325,13.000"/>
<polygon fill="#1f77b4" fill-opacity="0.140" stroke="#1f77b4" stroke-opacity="0.55" stroke-width="0.07" points="22.520,13.000 22.520,11.000 17.720,11.000 17.720,13.000"/>
<polygon fill="#1f77b4" fill-opacity="0.140" stroke="#1f77b4" stroke-opacity="0.55" stroke-width="0.07" points="23.915,13.000 23.915,11.000 19.115,11.000 19.115,13.000"/>
<polygon fill="#1f77b4" fill-opacity="0.140" stroke="#1f77b4" stroke-opacity="0.55" stroke-width="0.07" points="25.310,13.000 25.310,11.000 20.510,11.000 20.510,13.000"/>
<polygon fill="#1f77b4" fill-opacity="0.140" stroke="#1f77b4" stroke-opacity="0.55" stroke-width="0.07" points="26.705,13.000 26.705,11.000 21.905,11.000 21.905,13.000"/>
<polygon fill="#1f77b4" fill-opacity="0.140" stroke="#1f77b4" stroke-opacity="0.55" stroke-width="0.07" points="28.100,13.000 28.100,11.000 23.300,11.000 23.300,13.000"/>
<polygon fill="#1f77b4" fill-opacity="0.140" stroke="#1f77b4" stroke-opacity="0.55" stroke-width="0.07" points="29.495,13.000 29.495,11.000 24.695,11.000 24.695,13.000"/>
<polygon fill="#1f77b4" fill-opacity="0.140" stroke="#1f77b4" stroke-opacity="0.55" stroke-width="0.07" points="30.890,13.000 30.890,11.000 26.090,11.000 26.090,13.000"/>
<polygon fill="#1f77b4" fill-opacity="0.140" stroke="#1f77b4" stroke-opacity="0.55" stroke-width="0.07" points="32.285,13.000 32.285,11.000 27.485,11.000 27.485,13.000"/>
<polygon fill="#1f77b4" fill-opacity="0.140" stroke="#1f77b4" stroke-opacity="0.55" stroke-width="0.07" points="33.680,13.000 33.680,11.000 28.880,11.000 28.880,13.000"/>
<polygon fill="#1f77b4" fill-opacity="0.140" stroke="#1f77b4" stroke-opacity="0.55" stroke-width="0.07" points="35.075,13.000 35.075,11.000 30.275,11.000 30.275,13.000"/>
<polygon fill="#1f77b4" fill-opacity="0.140" stroke="#1f77b4" stroke-opacity="0.55" stroke-width="0.07" points="36.470,13.000 36.470,11.000 31.670,11.000 31.670,13.000"/>
<polygon fill="#1f77b4" fill-opacity="0.140" stroke="#1f77b4" stroke-opacity="0.55" stroke-width="0.07" points="37.817,13.000 37.817,11.000 33.017,11.000 33.017,13.000"/>
<polygon fill="#1f77b4" fill-opacity="0.140" stroke="#1f77b4" stroke-opacity="0.55" stroke-width="0.07" points="38.858,13.000 38.858,11.000 34.058,11.000 34.058,13.000"/>
<polygon fill="#1f77b4" fill-opacity="0.140" stroke="#1f77b4" stroke-opacity="0.55" stroke-width="0.07" points="39.560,13.000 39.560,11.000 34.760,11.000 34.760,13.000"/>
<polygon fill="#1f77b4" fill-opacity="0.140" stroke="#1f77b4" stroke-opacity="0.55" stroke-width="0.07" points="40.016,13.000 40.016,11.000 35.216,11.000 35.216,13.000"/>
<polygon fill="#1f77b4" fill-opacity="0.140" stroke="#1f77b4" stroke-opacity="0.55" stroke-width="0.07" points="40.265,13.000 40.265,11.000 35.465,11.000 35.465,13.000"/>
<polygon fill="#ff7f0e" fill-opacity="0.160" stroke="#ff7f0e" stroke-opacity="0.55" stroke-width="0.07" points="40.261,13.000 40.261,11.000 35.461,11.000 35.461,13.000"/>
<polygon fill="#ff7f0e" fill-opacity="0.160" stroke="#ff7f0e" stroke-opacity="0.55" stroke-width="0.07" points="39.740,13.205 39.928,11.214 35.149,10.763 34.961,12.754"/>
<polygon fill="#ff7f0e" fill-opacity="0.160" stroke="#ff7f0e" stroke-opacity="0.55" stroke-width="0.07" points="38.882,13.457 39.395,11.523 34.755,10.294 34.242,12.227"/>
<polygon fill="#ff7f0e" fill-opacity="0.160" stroke="#ff7f0e" stroke-opacity="0.55" stroke-width="0.07" points="37.949,13.566 38.787,11.750 34.429,9.738 33.590,11.554"/>
<polygon fill="#ff7f0e" fill-opacity="0.160" stroke="#ff7f0e" stroke-opacity="0.55" stroke-width="0.07" points="37.003,13.511 38.144,11.869 34.203,9.129 33.061,10.772"/>
<polygon fill="#ff7f0e" fill-opacity="0.160" stroke="#ff7f0e" stroke-opacity="0.55" stroke-width="0.07" points="36.080,13.292 37.490,11.874 34.086,8.490 32.676,9.909"/>
<polygon fill="#ff7f0e" fill-opacity="0.160" stroke="#ff7f0e" stroke-opacity="0.55" stroke-width="0.07" points="35.210,12.916 36.845,11.765 34.082,7.840 32.446,8.991"/>
<polygon fill="#ff7f0e" fill-opacity="0.160" stroke="#ff7f0e" stroke-opacity="0.55" stroke-width="0.07" points="34.425,12.394 36.233,11.540 34.183,7.200 32.375,8.054"/>
<polygon fill="#ff7f0e" fill-opacity="0.160" stroke="#ff7f0e" stroke-opacity="0.55" stroke-width="0.07" points="33.767,11.750 35.689,11.196 34.360,6.584 32.439,7.137"/>
<polygon fill="#ff7f0e" fill-opacity="0.160" stroke="#ff7f0e" stroke-opacity="0.55" stroke-width="0.07" points="33.246,11.017 35.229,10.756 34.602,5.997 32.619,6.258"/>
<polygon fill="#ff7f0e" fill-opacity="0.160" stroke="#ff7f0e" stroke-opacity="0.55" stroke-width="0.07" points="32.886,10.237 34.886,10.232 34.874,5.432 32.874,5.437"/>
<polygon fill="#ff7f0e" fill-opacity="0.160" stroke="#ff7f0e" stroke-opacity="0.55" stroke-width="0.07" points="32.873,9.556 34.873,9.563 34.890,4.763 32.890,4.756"/>
<polygon fill="#ff7f0e" fill-opacity="0.160" stroke="#ff7f0e" stroke-opacity="0.55" stroke-width="0.07" points="32.876,8.918 34.876,8.925 34.892,4.125 32.892,4.118"/>
<polygon fill="#ff7f0e" fill-opacity="0.160" stroke="#ff7f0e" stroke-opacity="0.55" stroke-width="0.07" points="32.877,8.370 34.877,8.376 34.894,3.576 32.894,3.570"/>
<polygon fill="#ff7f0e" fill-opacity="0.160" stroke="#ff7f0e" stroke-opacity="0.55" stroke-width="0.07" points="32.879,7.911 34.879,7.918 34.895,3.118 32.895,3.111"/>
<polygon fill="#ff7f0e" fill-opacity="0.160" stroke="#ff7f0e" stroke-opacity="0.55" stroke-width="0.07" points="32.880,7.530 34.880,7.537 34.897,2.737 32.897,2.730"/>
<polygon fill="#ff7f0e" fill-opacity="0.160" stroke="#ff7f0e" stroke-opacity="0.55" stroke-width="0.07" points="32.881,7.201 34.881,7.208 34.898,2.408 32.898,2.401"/>
<polygon fill="#ff7f0e" fill-opacity="0.160" stroke="#ff7f0e" stroke-opacity="0.55" stroke-width="0.07" points="32.883,6.884 34.883,6.890 34.899,2.090 32.899,2.084"/>
<polygon fill="#ff7f0e" fill-opacity="0.160" stroke="#ff7f0e" stroke-opacity="0.55" stroke-width="0.07" points="32.884,6.568 34.884,6.575 34.900,1.775 32.900,1.768"/>
<polygon fill="#ff7f0e" fill-opacity="0.160" stroke="#ff7f0e" stroke-opacity="0.55" stroke-width="0.07" points="32.885,6.253 34.885,6.260 34.901,1.460 32.901,1.453"/>
<polygon fill="#ff7f0e" fill-opacity="0.160" stroke="#ff7f0e" stroke-opacity="0.55" stroke-width="0.07" points="32.886,5.938 34.886,5.945 34.902,1.145 32.902,1.138"/>
<polygon fill="#ff7f0e" fill-opacity="0.160" stroke="#ff7f0e" stroke-opacity="0.55" stroke-width="0.07" points="32.886,5.746 34.886,5.753 34.903,0.953 32.903,0.946"/>
<polygon fill="none" stroke="crimson" stroke-width="0.120" points="32.886,5.746 34.886,5.753 34.903,0.953 32.903,0.946"/>
</g>
</svg>
