<?xml version="1.0" encoding="UTF-8"?>
<svg xmlns="http://www.w3.org/2000/svg" width="1400" height="900" viewBox="0 -3 75 53">
<rect x="0" y="-3" width="75" height="53" fill="white"/>
<text x="1.5" y="-1.35" font-size="1.15" fill="black">Parking | target row=3 idx=2 | success=true sim_ok=true | max_steer=35 deg | overshoot~=5 m | total(ref)~=3e+01 m</text>
<text x="1.5" y="-0.45" font-size="0.95" fill="black">ok</text>
<g transform="translate(0,50.000) scale(1,-1)">
<rect x="0" y="0" width="75.000" height="50.000" fill="none" stroke="black" stroke-width="0.15"/>
<rect x="0.000" y="9.000" width="75.000" height="6.000" fill="#add8e6" fill-opacity="0.25" stroke="#add8e6" stroke-width="0.08"/>
<rect x="0.000" y="34.500" width="75.000" height="6.000" fill="#add8e6" fill-opacity="0.25" stroke="#add8e6" stroke-width="0.08"/>
<rect x="36.000" y="12.000" width="6.000" height="25.500" fill="#90ee90" fill-opacity="0.25" stroke="#90ee90" stroke-width="0.08"/>
<rect x="12.000" y="44.000" width="4.800" height="6.000" fill="white" stroke="gray" stroke-width="0.080" fill-opacity="0.85"/>
<rect x="16.800" y="44.000" width="4.800" height="6.000" fill="white" stroke="gray" stroke-width="0.080" fill-opacity="0.85"/>
<rect x="21.600" y="44.000" width="4.800" height="6.000" fill="white" stroke="gray" stroke-width="0.080" fill-opacity="0.85"/>
<rect x="26.400" y="44.000" width="4.800" height="6.000" fill="white" stroke="gray" stroke-width="0.080" fill-opacity="0.85"/>
<rect x="31.200" y="44.000" width="4.800" height="6.000" fill="white" stroke="gray" stroke-width="0.080" fill-opacity="0.85"/>
<rect x="12.000" y="25.000" width="4.800" height="6.000" fill="white" stroke="gray" stroke-width="0.080" fill-opacity="0.85"/>
<rect x="16.800" y="25.000" width="4.800" height="6.000" fill="white" stroke="gray" stroke-width="0.080" fill-opacity="0.85"/>
<rect x="21.600" y="25.000" width="4.800" height="6.000" fill="white" stroke="gray" stroke-width="0.080" fill-opacity="0.85"/>
<rect x="26.400" y="25.000" width="4.800" height="6.000" fill="white" stroke="gray" stroke-width="0.080" fill-opacity="0.85"/>
<rect x="31.200" y="25.000" width="4.800" height="6.000" fill="white" stroke="gray" stroke-width="0.080" fill-opacity="0.85"/>
<rect x="12.000" y="19.000" width="4.800" height="6.000" fill="white" stroke="gray" stroke-width="0.080" fill-opacity="0.85"/>
<rect x="16.800" y="19.000" width="4.800" height="6.000" fill="white" stroke="gray" stroke-width="0.080" fill-opacity="0.85"/>
<rect x="21.600" y="19.000" width="4.800" height="6.000" fill="white" stroke="gray" stroke-width="0.080" fill-opacity="0.85"/>
<rect x="26.400" y="19.000" width="4.800" height="6.000" fill="white" stroke="gray" stroke-width="0.080" fill-opacity="0.85"/>
<rect x="31.200" y="19.000" width="4.800" height="6.000" fill="white" stroke="gray" stroke-width="0.080" fill-opacity="0.85"/>
<rect x="12.000" y="0.000" width="4.800" height="6.000" fill="white" stroke="gray" stroke-width="0.080" fill-opacity="0.85"/>
<rect x="16.800" y="0.000" width="4.800" height="6.000" fill="white" stroke="gray" stroke-width="0.080" fill-opacity="0.85"/>
<rect x="21.600" y="0.000" width="4.800" height="6.000" fill="#98fb98" stroke="darkgreen" stroke-width="0.180" fill-opacity="0.85"/>
<rect x="26.400" y="0.000" width="4.800" height="6.000" fill="white" stroke="gray" stroke-width="0.080" fill-opacity="0.85"/>
<rect x="31.200" y="0.000" width="4.800" height="6.000" fill="white" stroke="gray" stroke-width="0.080" fill-opacity="0.85"/>
<polygon fill="none" stroke="navy" stroke-width="0.120" points="6.400,13.000 6.400,11.000 1.600,11.000 1.600,13.000"/>
<polygon fill="purple" points="21.220,12.000 21.500,12.350 21.780,12.000 21.500,11.650"/>
<circle cx="28.800" cy="12.000" r="0.38" fill="darkviolet" stroke="indigo" stroke-width="0.06"/>
<polyline fill="none" stroke="#808080" stroke-width="0.120" stroke-opacity="0.65" stroke-dasharray="0.45 0.35" points="4.000,12.000 21.500,12.000 28.800,12.000"/>
<polyline fill="none" stroke="#808080" stroke-width="0.120" stroke-opacity="0.65" stroke-dasharray="0.45 0.35" points="28.800,12.000 28.800,11.835 28.792,11.667 28.777,11.496 28.754,11.323 28.724,11.146 28.687,10.968 28.644,10.786 28.594,10.603 28.538,10.417 28.476,10.230 28.408,10.041 28.334,9.850 28.256,9.658 28.172,9.464 28.083,9.269 27.989,9.073 27.891,8.877 27.789,8.679 27.683,8.481 27.573,8.283 27.460,8.084 27.343,7.885 27.223,7.686 27.100,7.487 26.975,7.289 26.847,7.091 26.717,6.893 26.585,6.697 26.451,6.501 26.316,6.306 26.179,6.113 26.042,5.921 25.903,5.730 25.764,5.541 25.624,5.354 25.485,5.168 25.345,4.985 25.206,4.804 25.067,4.625 24.929,4.449 24.791,4.276 24.655,4.105 24.520,3.938 24.387,3.773 24.256,3.612 24.127,3.454 24.000,3.300"/>
<polyline fill="none" stroke="#1f77b4" stroke-width="0.220" stroke-opacity="0.95" points="4.008,12.000 4.022,12.000 4.043,12.000 4.070,12.000 4.102,12.000 4.138,12.000 4.179,12.000 4.223,12.000 4.270,12.000 4.321,12.000 4.374,12.000 4.429,12.000 4.487,12.000 4.547,12.000 4.609,12.000 4.672,12.000 4.736,12.000 4.802,12.000 4.869,12.000 4.937,12.000 5.006,12.000 5.076,12.000 5.147,12.000 5.218,12.000 5.290,12.000 5.363,12.000 5.436,12.000 5.509,12.000 5.583,12.000 5.657,12.000 5.732,12.000 5.806,12.000 5.882,12.000 5.957,12.000 6.032,12.000 6.108,12.000 6.184,12.000 6.260,12.000 6.336,12.000 6.413,12.000 6.489,12.000 6.566,12.000 6.643,12.000 6.719,12.000 6.796,12.000 6.873,12.000 6.950,12.000 7.027,12.000 7.104,12.000 7.181,12.000 7.258,12.000 7.335,12.000 7.413,12.000 7.490,12.000 7.567,12.000 7.644,12.000 7.722,12.000 7.799,12.000 7.876,12.000 7.954,12.000 8.031,12.000 8.109,12.000 8.186,12.000 8.263,12.000 8.341,12.000 8.418,12.000 8.496,12.000 8.573,12.000 8.650,12.000 8.728,12.000 8.805,12.000 8.883,12.000 8.960,12.000 9.038,12.000 9.115,12.000 9.193,12.000 9.270,12.000 9.348,12.000 9.425,12.000 9.503,12.000 9.580,12.000 9.658,12.000 9.735,12.000 9.813,12.000 9.890,12.000 9.968,12.000 10.045,12.000 10.123,12.000 10.200,12.000 10.278,12.000 10.355,12.000 10.433,12.000 10.510,12.000 10.588,12.000 10.665,12.000 10.743,12.000 10.820,12.000 10.898,12.000 10.975,12.000 11.053,12.000 11.130,12.000 11.208,12.000 11.285,12.000 11.363,12.000 11.440,12.000 11.518,12.000 11.595,12.000 11.673,12.000 11.750,12.000 11.828,12.000 11.905,12.000 11.983,12.000 12.060,12.000 12.138,12.000 12.215,12.000 12.293,12.000 12.370,12.000 12.448,12.000 12.525,12.000 12.603,12.000 12.680,12.000 12.758,12.000 12.835,12.000 12.913,12.000 12.990,12.000 13.068,12.000 13.145,12.000 13.223,12.000 13.300,12.000 13.378,12.000 13.455,12.000 13.533,12.000 13.610,12.000 13.688,12.000 13.765,12.000 13.843,12.000 13.920,12.000 13.998,12.000 14.075,12.000 14.153,12.000 14.230,12.000 14.308,12.000 14.385,12.000 14.463,12.000 14.540,12.000 14.618,12.000 14.695,12.000 14.773,12.000 14.850,12.000 14.928,12.000 15.005,12.000 15.083,12.000 15.160,12.000 15.238,12.000 15.315,12.000 15.393,12.000 15.470,12.000 15.548,12.000 15.625,12.000 15.703,12.000 15.780,12.000 15.858,12.000 15.935,12.000 16.013,12.000 16.090,12.000 16.168,12.000 16.245,12.000 16.323,12.000 16.400,12.000 16.478,12.000 16.555,12.000 16.633,12.000 16.710,12.000 16.788,12.000 16.865,12.000 16.943,12.000 17.020,12.000 17.098,12.000 17.175,12.000 17.253,12.000 17.330,12.000 17.408,12.000 17.485,12.000 17.563,12.000 17.640,12.000 17.718,12.000 17.795,12.000 17.873,12.000 17.950,12.000 18.028,12.000 18.105,12.000 18.183,12.000 18.260,12.000 18.338,12.000 18.415,12.000 18.493,12.000 18.570,12.000 18.648,12.000 18.725,12.000 18.803,12.000 18.880,12.000 18.958,12.000 19.035,12.000 19.113,12.000 19.190,12.000 19.268,12.000 19.345,12.000 19.423,12.000 19.500,12.000 19.578,12.000 19.655,12.000 19.733,12.000 19.810,12.000 19.888,12.000 19.965,12.000 20.043,12.000 20.120,12.000 20.198,12.000 20.275,12.000 20.353,12.000 20.430,12.000 20.508,12.000 20.585,12.000 20.663,12.000 20.740,12.000 20.818,12.000 20.895,12.000 20.973,12.000 21.050,12.000 21.128,12.000 21.205,12.000 21.283,12.000 21.360,12.000 21.438,12.000 21.515,12.000 21.593,12.000 21.670,12.000 21.748,12.000 21.825,12.000 21.903,12.000 21.980,12.000 22.058,12.000 22.135,12.000 22.213,12.000 22.290,12.000 22.368,12.000 22.445,12.000 22.523,12.000 22.600,12.000 22.678,12.000 22.755,12.000 22.833,12.000 22.910,12.000 22.988,12.000 23.065,12.000 23.143,12.000 23.220,12.000 23.298,12.000 23.375,12.000 23.453,12.000 23.530,12.000 23.608,12.000 23.685,12.000 23.763,12.000 23.840,12.000 23.918,12.000 23.995,12.000 24.073,12.000 24.150,12.000 24.228,12.000 24.305,12.000 24.383,12.000 24.460,12.000 24.538,12.000 24.615,12.000 24.693,12.000 24.770,12.000 24.848,12.000 24.925,12.000 25.002,12.000 25.079,12.000 25.155,12.000 25.231,12.000 25.306,12.000 25.380,12.000 25.454,12.000 25.527,12.000 25.598,12.000 25.669,12.000 25.739,12.000 25.808,12.000 25.875,12.000 25.942,12.000 26.007,12.000 26.072,12.000 26.135,12.000 26.197,12.000 26.258,12.000 26.317,12.000 26.376,12.000 26.433,12.000 26.490,12.000 26.545,12.000 26.599,12.000 26.651,12.000 26.703,12.000 26.754,12.000 26.803,12.000 26.852,12.000 26.899,12.000 26.945,12.000 26.990,12.000 27.035,12.000 27.078,12.000 27.120,12.000 27.161,12.000 27.202,12.000 27.241,12.000 27.280,12.000 27.317,12.000 27.354,12.000 27.390,12.000 27.425,12.000 27.459,12.000 27.492,12.000 27.525,12.000 27.556,12.000 27.587,12.000 27.618,12.000 27.647,12.000 27.676,12.000 27.704,12.000 27.731,12.000 27.758,12.000 27.784,12.000 27.810,12.000 27.834,12.000 27.859,12.000 27.882,12.000 27.905,12.000 27.928,12.000 27.950,12.000 27.971,12.000 27.992,12.000 28.013,12.000 28.034,12.000 28.054,12.000 28.074,12.000 28.093,12.000 28.113,12.000 28.132,12.000 28.151,12.000 28.170,12.000 28.189,12.000 28.207,12.000 28.226,12.000 28.244,12.000 28.262,12.000"/>
<polyline fill="none" stroke="#ff7f0e" stroke-width="0.220" stroke-opacity="0.95" points="28.259,12.000 28.252,12.000 28.241,12.000 28.229,12.000 28.213,12.000 28.196,12.000 28.176,12.000 28.155,12.000 28.132,11.999 28.107,11.999 28.082,11.998 28.055,11.997 28.027,11.996 27.998,11.995 27.968,11.993 27.938,11.991 27.906,11.989 27.875,11.987 27.842,11.984 27.810,11.981 27.776,11.977 27.743,11.974 27.709,11.970 27.675,11.965 27.640,11.960 27.605,11.955 27.570,11.950 27.535,11.944 27.500,11.938 27.465,11.931 27.430,11.924 27.394,11.917 27.359,11.909 27.323,11.901 27.287,11.893 27.252,11.884 27.216,11.875 27.181,11.866 27.145,11.856 27.109,11.846 27.074,11.835 27.039,11.825 27.003,11.813 26.968,11.802 26.933,11.790 26.898,11.778 26.863,11.765 26.828,11.752 26.793,11.739 26.758,11.725 26.723,11.711 26.689,11.697 26.655,11.682 26.620,11.667 26.586,11.652 26.552,11.636 26.519,11.620 26.485,11.604 26.451,11.587 26.418,11.570 26.385,11.553 26.352,11.535 26.319,11.517 26.286,11.499 26.254,11.480 26.221,11.461 26.189,11.442 26.157,11.423 26.125,11.403 26.094,11.383 26.063,11.362 26.031,11.341 26.000,11.320 25.970,11.299 25.939,11.277 25.909,11.255 25.878,11.233 25.849,11.210 25.819,11.187 25.789,11.164 25.760,11.141 25.731,11.117 25.702,11.093 25.674,11.069 25.645,11.044 25.617,11.019 25.589,10.994 25.562,10.969 25.534,10.943 25.507,10.917 25.480,10.891 25.454,10.865 25.428,10.838 25.401,10.811 25.376,10.784 25.350,10.757 25.325,10.729 25.300,10.701 25.275,10.673 25.251,10.644 25.226,10.616 25.203,10.587 25.179,10.558 25.156,10.528 25.133,10.499 25.110,10.469 25.087,10.439 25.065,10.409 25.043,10.378 25.022,10.347 25.000,10.317 24.979,10.286 24.959,10.254 24.938,10.223 24.918,10.191 24.898,10.159 24.879,10.127 24.860,10.095 24.841,10.063 24.823,10.030 24.804,9.997 24.786,9.964 24.769,9.931 24.752,9.898 24.735,9.864 24.718,9.831 24.702,9.797 24.686,9.763 24.670,9.729 24.654,9.695 24.639,9.660 24.625,9.626 24.610,9.591 24.596,9.557 24.582,9.522 24.569,9.487 24.556,9.452 24.543,9.416 24.530,9.381 24.518,9.346 24.506,9.310 24.494,9.275 24.483,9.239 24.472,9.203 24.461,9.167 24.451,9.131 24.441,9.095 24.431,9.059 24.422,9.022 24.413,8.986 24.404,8.949 24.395,8.913 24.387,8.876 24.379,8.840 24.371,8.803 24.364,8.766 24.357,8.729 24.350,8.692 24.344,8.656 24.338,8.619 24.332,8.581 24.327,8.544 24.321,8.507 24.317,8.470 24.312,8.433 24.308,8.396 24.304,8.358 24.300,8.321 24.296,8.284 24.293,8.246 24.290,8.209 24.288,8.171 24.286,8.134 24.284,8.097 24.282,8.059 24.281,8.022 24.279,7.984 24.279,7.947 24.278,7.909 24.278,7.872 24.277,7.834 24.277,7.797 24.277,7.759 24.277,7.722 24.277,7.684 24.278,7.647 24.278,7.609 24.278,7.572 24.278,7.534 24.278,7.497 24.278,7.459 24.278,7.422 24.278,7.384 24.279,7.347 24.279,7.309 24.279,7.272 24.279,7.234 24.279,7.197 24.279,7.159 24.279,7.122 24.279,7.085 24.280,7.048 24.280,7.011 24.280,6.975 24.280,6.938 24.280,6.902 24.280,6.866 24.280,6.831 24.280,6.795 24.281,6.760 24.281,6.725 24.281,6.690 24.281,6.656 24.281,6.622 24.281,6.588 24.281,6.554 24.281,6.521 24.281,6.488 24.282,6.456 24.282,6.423 24.282,6.391 24.282,6.359 24.282,6.328 24.282,6.297 24.282,6.266 24.282,6.235 24.282,6.205 24.282,6.175 24.283,6.145 24.283,6.116 24.283,6.087 24.283,6.058 24.283,6.029 24.283,6.001 24.283,5.973 24.283,5.945 24.283,5.918 24.283,5.891 24.284,5.864 24.284,5.837 24.284,5.811 24.284,5.785 24.284,5.759 24.284,5.734 24.284,5.708 24.284,5.683 24.284,5.658 24.284,5.634 24.284,5.610 24.284,5.586 24.285,5.562 24.285,5.538 24.285,5.515 24.285,5.492 24.285,5.469 24.285,5.446 24.285,5.424 24.285,5.402 24.285,5.380 24.285,5.358 24.285,5.337 24.285,5.315 24.285,5.294 24.286,5.274 24.286,5.253 24.286,5.233 24.286,5.212 24.286,5.192 24.286,5.173 24.286,5.153 24.286,5.134 24.286,5.115 24.286,5.095 24.286,5.077 24.286,5.058 24.286,5.039 24.286,5.021 24.286,5.002 24.287,4.984 24.287,4.966 24.287,4.948 24.287,4.930 24.287,4.912 24.287,4.894 24.287,4.876 24.287,4.858 24.287,4.840 24.287,4.822 24.287,4.804 24.287,4.787 24.287,4.769 24.287,4.751 24.287,4.733 24.287,4.716 24.287,4.698 24.288,4.681 24.288,4.663 24.288,4.645 24.288,4.628 24.288,4.610 24.288,4.593 24.288,4.575 24.288,4.557 24.288,4.540 24.288,4.522 24.288,4.505 24.288,4.487 24.288,4.470 24.288,4.452 24.288,4.435 24.288,4.417 24.288,4.400 24.289,4.382 24.289,4.364 24.289,4.347 24.289,4.329 24.289,4.312 24.289,4.294 24.289,4.277 24.289,4.259 24.289,4.242 24.289,4.224 24.289,4.207 24.289,4.189 24.289,4.172 24.289,4.154 24.289,4.137 24.289,4.119 24.289,4.102 24.290,4.084 24.290,4.067 24.290,4.049 24.290,4.032 24.290,4.014 24.290,3.997 24.290,3.979 24.290,3.962 24.290,3.944 24.290,3.927 24.290,3.909 24.290,3.892 24.290,3.874 24.290,3.857 24.290,3.839 24.290,3.822 24.290,3.804 24.291,3.787 24.291,3.769 24.291,3.752 24.291,3.734 24.291,3.717 24.291,3.699 24.291,3.682 24.291,3.664 24.291,3.647 24.291,3.629 24.291,3.612 24.291,3.594 24.291,3.577 24.291,3.559 24.291,3.542 24.291,3.524 24.291,3.507 24.292,3.489 24.292,3.472 24.292,3.454 24.292,3.437 24.292,3.419 24.292,3.402 24.292,3.384 24.292,3.367 24.292,3.349"/>
<polygon fill="#1f77b4" fill-opacity="0.140" stroke="#1f77b4" stroke-opacity="0.55" stroke-width="0.07" points="6.408,13.000 6.408,11.000 1.608,11.000 1.608,13.000"/>
<polygon fill="#1f77b4" fill-opacity="0.140" stroke="#1f77b4" stroke-opacity="0.55" stroke-width="0.07" points="7.269,13.000 7.269,11.000 2.469,11.000 2.469,13.000"/>
<polygon fill="#1f77b4" fill-opacity="0.140" stroke="#1f77b4" stroke-opacity="0.55" stroke-width="0.07" points="8.584,13.000 8.584,11.000 3.784,11.000 3.784,13.000"/>
<polygon fill="#1f77b4" fill-opacity="0.140" stroke="#1f77b4" stroke-opacity="0.55" stroke-width="0.07" points="9.967,13.000 9.967,11.000 5.167,11.000 5.167,13.000"/>
<polygon fill="#1f77b4" fill-opacity="0.140" stroke="#1f77b4" stroke-opacity="0.55" stroke-width="0.07" points="11.360,13.000 11.360,11.000 6.560,11.000 6.560,13.000"/>
<polygon fill="#1f77b4" fill-opacity="0.140" stroke="#1f77b4" stroke-opacity="0.55" stroke-width="0.07" points="12.755,13.000 12.755,11.000 7.955,11.000 7.955,13.000"/>
<polygon fill="#1f77b4" fill-opacity="0.140" stroke="#1f77b4" stroke-opacity="0.55" stroke-width="0.07" points="14.150,13.000 14.150,11.000 9.350,11.000 9.350,13.000"/>
<polygon fill="#1f77b4" fill-opacity="0.140" stroke="#1f77b4" stroke-opacity="0.55" stroke-width="0.07" points="15.545,13.000 15.545,11.000 10.745,11.000 10.745,13.000"/>
<polygon fill="#1f77b4" fill-opacity="0.140" stroke="#1f77b4" stroke-opacity="0.55" stroke-width="0.07" points="16.940,13.000 16.940,11.000 12.140,11.000 12.140,13.000"/>
<polygon fill="#1f77b4" fill-opacity="0.140" stroke="#1f77b4" stroke-opacity="0.55" stroke-width="0.07" points="18.335,13.000 18.335,11.000 13.535,11.000 13.535,13.000"/>
<polygon fill="#1f77b4" fill-opacity="0.140" stroke="#1f77b4" stroke-opacity="0.55" stroke-width="0.07" points="19.730,13.000 19.730,11.000 14.930,11.000 14.930,13.000"/>
<polygon fill="#1f77b4" fill-opacity="0.140" stroke="#1f77b4" stroke-opacity="0.55" stroke-width="0.07" points="21.125,13.000 21.125,11.000 16.325,11.000 16.325,13.000"/>
<polygon fill="#1f77b4" fill-opacity="0.140" stroke="#1f77b4" stroke-opacity="0.55" stroke-width="0.07" points="22.520,13.000 22.520,11.000 17.720,11.000 17.720,13.000"/>
<polygon fill="#1f77b4" fill-opacity="0.140" stroke="#1f77b4" stroke-opacity="0.55" stroke-width="0.07" points="23.915,13.000 23.915,11.000 19.115,11.000 19.115,13.000"/>
<polygon fill="#1f77b4" fill-opacity="0.140" stroke="#1f77b4" stroke-opacity="0.55" stroke-width="0.07" points="25.310,13.000 25.310,11.000 20.510,11.000 20.510,13.000"/>
<polygon fill="#1f77b4" fill-opacity="0.140" stroke="#1f77b4" stroke-opacity="0.55" stroke-width="0.07" points="26.705,13.000 26.705,11.000 21.905,11.000 21.905,13.000"/>
<polygon fill="#1f77b4" fill-opacity="0.140" stroke="#1f77b4" stroke-opacity="0.55" stroke-width="0.07" points="28.069,13.000 28.069,11.000 23.269,11.000 23.269,13.000"/>
<polygon fill="#1f77b4" fill-opacity="0.140" stroke="#1f77b4" stroke-opacity="0.55" stroke-width="0.07" points="29.154,13.000 29.154,11.000 24.354,11.000 24.354,13.000"/>
<polygon fill="#1f77b4" fill-opacity="0.140" stroke="#1f77b4" stroke-opacity="0.55" stroke-width="0.07" points="29.892,13.000 29.892,11.000 25.092,11.000 25.092,13.000"/>
<polygon fill="#1f77b4" fill-opacity="0.140" stroke="#1f77b4" stroke-opacity="0.55" stroke-width="0.07" points="30.371,13.000 30.371,11.000 25.571,11.000 25.571,13.000"/>
<polygon fill="#1f77b4" fill-opacity="0.140" stroke="#1f77b4" stroke-opacity="0.55" stroke-width="0.07" points="30.662,13.000 30.662,11.000 25.862,11.000 25.862,13.000"/>
<polygon fill="#ff7f0e" fill-opacity="0.160" stroke="#ff7f0e" stroke-opacity="0.55" stroke-width="0.07" points="30.659,13.000 30.659,11.000 25.859,11.000 25.859,13.000"/>
<polygon fill="#ff7f0e" fill-opacity="0.160" stroke="#ff7f0e" stroke-opacity="0.55" stroke-width="0.07" points="30.138,13.205 30.326,11.214 25.547,10.763 25.359,12.754"/>
<polygon fill="#ff7f0e" fill-opacity="0.160" stroke="#ff7f0e" stroke-opacity="0.55" stroke-width="0.07" points="29.280,13.457 29.792,11.523 25.152,10.294 24.640,12.227"/>
<polygon fill="#ff7f0e" fill-opacity="0.160" stroke="#ff7f0e" stroke-opacity="0.55" stroke-width="0.07" points="28.346,13.566 29.184,11.750 24.826,9.738 23.988,11.554"/>
<polygon fill="#ff7f0e" fill-opacity="0.160" stroke="#ff7f0e" stroke-opacity="0.55" stroke-width="0.07" points="27.401,13.511 28.542,11.869 24.600,9.129 23.459,10.772"/>
<polygon fill="#ff7f0e" fill-opacity="0.160" stroke="#ff7f0e" stroke-opacity="0.55" stroke-width="0.07" points="26.478,13.292 27.888,11.874 24.483,8.490 23.073,9.909"/>
<polygon fill="#ff7f0e" fill-opacity="0.160" stroke="#ff7f0e" stroke-opacity="0.55" stroke-width="0.07" points="25.607,12.916 27.243,11.765 24.479,7.840 22.844,8.991"/>
<polygon fill="#ff7f0e" fill-opacity="0.160" stroke="#ff7f0e" stroke-opacity="0.55" stroke-width="0.07" points="24.823,12.394 26.631,11.540 24.581,7.200 22.772,8.054"/>
<polygon fill="#ff7f0e" fill-opacity="0.160" stroke="#ff7f0e" stroke-opacity="0.55" stroke-width="0.07" points="24.165,11.750 26.086,11.196 24.758,6.584 22.836,7.137"/>
<polygon fill="#ff7f0e" fill-opacity="0.160" stroke="#ff7f0e" stroke-opacity="0.55" stroke-width="0.07" points="23.644,11.017 25.626,10.756 24.999,5.997 23.016,6.258"/>
<polygon fill="#ff7f0e" fill-opacity="0.160" stroke="#ff7f0e" stroke-opacity="0.55" stroke-width="0.07" points="23.283,10.237 25.283,10.232 25.271,5.432 23.271,5.437"/>
<polygon fill="#ff7f0e" fill-opacity="0.160" stroke="#ff7f0e" stroke-opacity="0.55" stroke-width="0.07" points="23.271,9.556 25.271,9.563 25.287,4.763 23.287,4.756"/>
<polygon fill="#ff7f0e" fill-opacity="0.160" stroke="#ff7f0e" stroke-opacity="0.55" stroke-width="0.07" points="23.273,8.918 25.273,8.925 25.289,4.125 23.289,4.118"/>
<polygon fill="#ff7f0e" fill-opacity="0.160" stroke="#ff7f0e" stroke-opacity="0.55" stroke-width="0.07" points="23.275,8.370 25.275,8.377 25.291,3.577 23.291,3.570"/>
<polygon fill="#ff7f0e" fill-opacity="0.160" stroke="#ff7f0e" stroke-opacity="0.55" stroke-width="0.07" points="23.277,7.912 25.277,7.918 25.293,3.118 23.293,3.112"/>
<polygon fill="#ff7f0e" fill-opacity="0.160" stroke="#ff7f0e" stroke-opacity="0.55" stroke-width="0.07" points="23.278,7.530 25.278,7.537 25.294,2.737 23.294,2.730"/>
<polygon fill="#ff7f0e" fill-opacity="0.160" stroke="#ff7f0e" stroke-opacity="0.55" stroke-width="0.07" points="23.279,7.201 25.279,7.208 25.295,2.408 23.295,2.401"/>
<polygon fill="#ff7f0e" fill-opacity="0.160" stroke="#ff7f0e" stroke-opacity="0.55" stroke-width="0.07" points="23.280,6.884 25.280,6.891 25.296,2.091 23.296,2.084"/>
<polygon fill="#ff7f0e" fill-opacity="0.160" stroke="#ff7f0e" stroke-opacity="0.55" stroke-width="0.07" points="23.281,6.568 25.281,6.575 25.297,1.775 23.297,1.768"/>
<polygon fill="#ff7f0e" fill-opacity="0.160" stroke="#ff7f0e" stroke-opacity="0.55" stroke-width="0.07" points="23.282,6.253 25.282,6.260 25.298,1.460 23.298,1.453"/>
<polygon fill="#ff7f0e" fill-opacity="0.160" stroke="#ff7f0e" stroke-opacity="0.55" stroke-width="0.07" points="23.283,5.938 25.283,5.945 25.299,1.145 23.299,1.138"/>
<polygon fill="#ff7f0e" fill-opacity="0.160" stroke="#ff7f0e" stroke-opacity="0.55" stroke-width="0.07" points="23.284,5.746 25.284,5.753 25.300,0.953 23.300,0.946"/>
<polygon fill="none" stroke="crimson" stroke-width="0.120" points="23.284,5.746 25.284,5.753 25.300,0.953 23.300,0.946"/>
</g>
</svg>
