<?xml version="1.0" encoding="UTF-8"?>
<svg xmlns="http://www.w3.org/2000/svg" width="1400" height="900" viewBox="0 -3 75 53">
<rect x="0" y="-3" width="75" height="53" fill="white"/>
<text x="1.5" y="-1.35" font-size="1.15" fill="black">Parking | target row=3 idx=1 | success=true sim_ok=true | max_steer=35 deg | overshoot~=5 m | total(ref)~=3e+01 m</text>
<text x="1.5" y="-0.45" font-size="0.95" fill="black">ok</text>
<g transform="translate(0,50.000) scale(1,-1)">
<rect x="0" y="0" width="75.000" height="50.000" fill="none" stroke="black" stroke-width="0.15"/>
<rect x="0.000" y="9.000" width="75.000" height="6.000" fill="#add8e6" fill-opacity="0.25" stroke="#add8e6" stroke-width="0.08"/>
<rect x="0.000" y="34.500" width="75.000" height="6.000" fill="#add8e6" fill-opacity="0.25" stroke="#add8e6" stroke-width="0.08"/>
<rect x="36.000" y="12.000" width="6.000" height="25.500" fill="#90ee90" fill-opacity="0.25" stroke="#90ee90" stroke-width="0.08"/>
<rect x="12.000" y="44.000" width="4.800" height="6.000" fill="white" stroke="gray" stroke-width="0.080" fill-opacity="0.85"/>
<rect x="16.800" y="44.000" width="4.800" height="6.000" fill="white" stroke="gray" stroke-width="0.080" fill-opacity="0.85"/>
<rect x="21.600" y="44.000" width="4.800" height="6.000" fill="white" stroke="gray" stroke-width="0.080" fill-opacity="0.85"/>
<rect x="26.400" y="44.000" width="4.800" height="6.000" fill="white" stroke="gray" stroke-width="0.080" fill-opacity="0.85"/>
<rect x="31.200" y="44.000" width="4.800" height="6.000" fill="white" stroke="gray" stroke-width="0.080" fill-opacity="0.85"/>
<rect x="12.000" y="25.000" width="4.800" height="6.000" fill="white" stroke="gray" stroke-width="0.080" fill-opacity="0.85"/>
<rect x="16.800" y="25.000" width="4.800" height="6.000" fill="white" stroke="gray" stroke-width="0.080" fill-opacity="0.85"/>
<rect x="21.600" y="25.000" width="4.800" height="6.000" fill="white" stroke="gray" stroke-width="0.080" fill-opacity="0.85"/>
<rect x="26.400" y="25.000" width="4.800" height="6.000" fill="white" stroke="gray" stroke-width="0.080" fill-opacity="0.85"/>
<rect x="31.200" y="25.000" width="4.800" height="6.000" fill="white" stroke="gray" stroke-width="0.080" fill-opacity="0.85"/>
<rect x="12.000" y="19.000" width="4.800" height="6.000" fill="white" stroke="gray" stroke-width="0.080" fill-opacity="0.85"/>
<rect x="16.800" y="19.000" width="4.800" height="6.000" fill="white" stroke="gray" stroke-width="0.080" fill-opacity="0.85"/>
<rect x="21.600" y="19.000" width="4.800" height="6.000" fill="white" stroke="gray" stroke-width="0.080" fill-opacity="0.85"/>
<rect x="26.400" y="19.000" width="4.800" height="6.000" fill="white" stroke="gray" stroke-width="0.080" fill-opacity="0.85"/>
<rect x="31.200" y="19.000" width="4.800" height="6.000" fill="white" stroke="gray" stroke-width="0.080" fill-opacity="0.85"/>
<rect x="12.000" y="0.000" width="4.800" height="6.000" fill="white" stroke="gray" stroke-width="0.080" fill-opacity="0.85"/>
<rect x="16.800" y="0.000" width="4.800" height="6.000" fill="#98fb98" stroke="darkgreen" stroke-width="0.180" fill-opacity="0.85"/>
<rect x="21.600" y="0.000" width="4.800" height="6.000" fill="white" stroke="gray" stroke-width="0.080" fill-opacity="0.85"/>
<rect x="26.400" y="0.000" width="4.800" height="6.000" fill="white" stroke="gray" stroke-width="0.080" fill-opacity="0.85"/>
<rect x="31.200" y="0.000" width="4.800" height="6.000" fill="white" stroke="gray" stroke-width="0.080" fill-opacity="0.85"/>
<polygon fill="none" stroke="navy" stroke-width="0.120" points="6.400,13.000 6.400,11.000 1.600,11.000 1.600,13.000"/>
<polygon fill="purple" points="16.420,12.000 16.700,12.350 16.980,12.000 16.700,11.650"/>
<circle cx="24.000" cy="12.000" r="0.38" fill="darkviolet" stroke="indigo" stroke-width="0.06"/>
<polyline fill="none" stroke="#808080" stroke-width="0.120" stroke-opacity="0.65" stroke-dasharray="0.45 0.35" points="4.000,12.000 16.700,12.000 24.000,12.000"/>
<polyline fill="none" stroke="#808080" stroke-width="0.120" stroke-opacity="0.65" stroke-dasharray="0.45 0.35" points="24.000,12.000 24.000,11.835 23.992,11.667 23.977,11.496 23.954,11.323 23.924,11.146 23.887,10.968 23.844,10.786 23.794,10.603 23.738,10.417 23.676,10.230 23.608,10.041 23.534,9.850 23.456,9.658 23.372,9.464 23.283,9.269 23.189,9.073 23.091,8.877 22.989,8.679 22.883,8.481 22.773,8.283 22.660,8.084 22.543,7.885 22.423,7.686 22.300,7.487 22.175,7.289 22.047,7.091 21.917,6.893 21.785,6.697 21.651,6.501 21.516,6.306 21.379,6.113 21.242,5.921 21.103,5.730 20.964,5.541 20.824,5.354 20.685,5.168 20.545,4.985 20.406,4.804 20.267,4.625 20.129,4.449 19.991,4.276 19.855,4.105 19.720,3.938 19.587,3.773 19.456,3.612 19.327,3.454 19.200,3.300"/>
<polyline fill="none" stroke="#1f77b4" stroke-width="0.220" stroke-opacity="0.95" points="4.008,12.000 4.022,12.000 4.043,12.000 4.070,12.000 4.102,12.000 4.138,12.000 4.179,12.000 4.223,12.000 4.270,12.000 4.321,12.000 4.374,12.000 4.429,12.000 4.487,12.000 4.547,12.000 4.609,12.000 4.672,12.000 4.736,12.000 4.802,12.000 4.869,12.000 4.937,12.000 5.006,12.000 5.076,12.000 5.147,12.000 5.218,12.000 5.290,12.000 5.363,12.000 5.436,12.000 5.509,12.000 5.583,12.000 5.657,12.000 5.732,12.000 5.806,12.000 5.882,12.000 5.957,12.000 6.032,12.000 6.108,12.000 6.184,12.000 6.260,12.000 6.336,12.000 6.413,12.000 6.489,12.000 6.566,12.000 6.643,12.000 6.719,12.000 6.796,12.000 6.873,12.000 6.950,12.000 7.027,12.000 7.104,12.000 7.181,12.000 7.258,12.000 7.335,12.000 7.413,12.000 7.490,12.000 7.567,12.000 7.644,12.000 7.722,12.000 7.799,12.000 7.876,12.000 7.954,12.000 8.031,12.000 8.109,12.000 8.186,12.000 8.263,12.000 8.341,12.000 8.418,12.000 8.496,12.000 8.573,12.000 8.650,12.000 8.728,12.000 8.805,12.000 8.883,12.000 8.960,12.000 9.038,12.000 9.115,12.000 9.193,12.000 9.270,12.000 9.348,12.000 9.425,12.000 9.503,12.000 9.580,12.000 9.658,12.000 9.735,12.000 9.813,12.000 9.890,12.000 9.968,12.000 10.045,12.000 10.123,12.000 10.200,12.000 10.278,12.000 10.355,12.000 10.433,12.000 10.510,12.000 10.588,12.000 10.665,12.000 10.743,12.000 10.820,12.000 10.898,12.000 10.975,12.000 11.053,12.000 11.130,12.000 11.208,12.000 11.285,12.000 11.363,12.000 11.440,12.000 11.518,12.000 11.595,12.000 11.673,12.000 11.750,12.000 11.828,12.000 11.905,12.000 11.983,12.000 12.060,12.000 12.138,12.000 12.215,12.000 12.293,12.000 12.370,12.000 12.448,12.000 12.525,12.000 12.603,12.000 12.680,12.000 12.758,12.000 12.835,12.000 12.913,12.000 12.990,12.000 13.068,12.000 13.145,12.000 13.223,12.000 13.300,12.000 13.378,12.000 13.455,12.000 13.533,12.000 13.610,12.000 13.688,12.000 13.765,12.000 13.843,12.000 13.920,12.000 13.998,12.000 14.075,12.000 14.153,12.000 14.230,12.000 14.308,12.000 14.385,12.000 14.463,12.000 14.540,12.000 14.618,12.000 14.695,12.000 14.773,12.000 14.850,12.000 14.928,12.000 15.005,12.000 15.083,12.000 15.160,12.000 15.238,12.000 15.315,12.000 15.393,12.000 15.470,12.000 15.548,12.000 15.625,12.000 15.703,12.000 15.780,12.000 15.858,12.000 15.935,12.000 16.013,12.000 16.090,12.000 16.168,12.000 16.245,12.000 16.323,12.000 16.400,12.000 16.478,12.000 16.555,12.000 16.633,12.000 16.710,12.000 16.788,12.000 16.865,12.000 16.943,12.000 17.020,12.000 17.098,12.000 17.175,12.000 17.253,12.000 17.330,12.000 17.408,12.000 17.485,12.000 17.563,12.000 17.640,12.000 17.718,12.000 17.795,12.000 17.873,12.000 17.950,12.000 18.028,12.000 18.105,12.000 18.183,12.000 18.260,12.000 18.338,12.000 18.415,12.000 18.493,12.000 18.570,12.000 18.648,12.000 18.725,12.000 18.803,12.000 18.880,12.000 18.958,12.000 19.035,12.000 19.113,12.000 19.190,12.000 19.268,12.000 19.345,12.000 19.423,12.000 19.500,12.000 19.578,12.000 19.655,12.000 19.733,12.000 19.810,12.000 19.888,12.000 19.965,12.000 20.043,12.000 20.120,12.000 20.197,12.000 20.274,12.000 20.350,12.000 20.426,12.000 20.501,12.000 20.576,12.000 20.649,12.000 20.722,12.000 20.794,12.000 20.865,12.000 20.935,12.000 21.003,12.000 21.071,12.000 21.138,12.000 21.203,12.000 21.268,12.000 21.331,12.000 21.393,12.000 21.454,12.000 21.514,12.000 21.572,12.000 21.630,12.000 21.686,12.000 21.741,12.000 21.795,12.000 21.848,12.000 21.900,12.000 21.950,12.000 22.000,12.000 22.048,12.000 22.096,12.000 22.142,12.000 22.188,12.000 22.232,12.000 22.275,12.000 22.317,12.000 22.359,12.000 22.399,12.000 22.439,12.000 22.477,12.000 22.515,12.000 22.552,12.000 22.587,12.000 22.622,12.000 22.657,12.000 22.690,12.000 22.723,12.000 22.754,12.000 22.785,12.000 22.816,12.000 22.845,12.000 22.874,12.000 22.902,12.000 22.930,12.000 22.956,12.000 22.982,12.000 23.008,12.000 23.033,12.000 23.057,12.000 23.081,12.000 23.104,12.000 23.126,12.000 23.148,12.000 23.170,12.000 23.191,12.000 23.212,12.000 23.232,12.000 23.252,12.000 23.272,12.000 23.292,12.000 23.311,12.000 23.331,12.000 23.350,12.000 23.369,12.000 23.387,12.000 23.406,12.000 23.425,12.000 23.443,12.000 23.461,12.000"/>
<polyline fill="none" stroke="#ff7f0e" stroke-width="0.220" stroke-opacity="0.95" points="23.458,12.000 23.450,12.000 23.440,12.000 23.427,12.000 23.412,12.000 23.394,12.000 23.375,12.000 23.353,12.000 23.331,11.999 23.306,11.999 23.280,11.998 23.253,11.997 23.226,11.996 23.197,11.995 23.167,11.993 23.136,11.991 23.105,11.989 23.073,11.987 23.041,11.984 23.008,11.981 22.975,11.977 22.942,11.974 22.908,11.970 22.873,11.965 22.839,11.960 22.804,11.955 22.769,11.950 22.734,11.944 22.699,11.938 22.664,11.931 22.628,11.924 22.593,11.917 22.557,11.909 22.522,11.901 22.486,11.893 22.451,11.884 22.415,11.875 22.379,11.866 22.344,11.856 22.308,11.846 22.273,11.835 22.237,11.825 22.202,11.813 22.167,11.802 22.132,11.790 22.096,11.778 22.061,11.765 22.026,11.752 21.992,11.739 21.957,11.725 21.922,11.711 21.888,11.697 21.853,11.682 21.819,11.667 21.785,11.652 21.751,11.636 21.717,11.620 21.684,11.604 21.650,11.587 21.617,11.570 21.584,11.553 21.551,11.535 21.518,11.517 21.485,11.499 21.453,11.480 21.420,11.461 21.388,11.442 21.356,11.423 21.324,11.403 21.293,11.383 21.261,11.362 21.230,11.341 21.199,11.320 21.168,11.299 21.138,11.277 21.107,11.255 21.077,11.233 21.047,11.210 21.018,11.187 20.988,11.164 20.959,11.141 20.930,11.117 20.901,11.093 20.872,11.069 20.844,11.044 20.816,11.019 20.788,10.994 20.761,10.969 20.733,10.943 20.706,10.917 20.679,10.891 20.653,10.865 20.626,10.838 20.600,10.811 20.574,10.784 20.549,10.757 20.524,10.729 20.499,10.701 20.474,10.673 20.449,10.644 20.425,10.616 20.401,10.587 20.378,10.558 20.354,10.528 20.331,10.499 20.309,10.469 20.286,10.439 20.264,10.409 20.242,10.378 20.220,10.347 20.199,10.317 20.178,10.286 20.157,10.254 20.137,10.223 20.117,10.191 20.097,10.159 20.078,10.127 20.059,10.095 20.040,10.063 20.021,10.030 20.003,9.997 19.985,9.964 19.968,9.931 19.950,9.898 19.933,9.864 19.917,9.831 19.900,9.797 19.884,9.763 19.869,9.729 19.853,9.695 19.838,9.660 19.823,9.626 19.809,9.591 19.795,9.557 19.781,9.522 19.768,9.487 19.754,9.452 19.742,9.416 19.729,9.381 19.717,9.346 19.705,9.310 19.693,9.275 19.682,9.239 19.671,9.203 19.660,9.167 19.650,9.131 19.640,9.095 19.630,9.059 19.620,9.022 19.611,8.986 19.602,8.949 19.594,8.913 19.586,8.876 19.578,8.840 19.570,8.803 19.563,8.766 19.556,8.729 19.549,8.692 19.543,8.656 19.537,8.619 19.531,8.581 19.525,8.544 19.520,8.507 19.515,8.470 19.511,8.433 19.506,8.396 19.502,8.358 19.499,8.321 19.495,8.284 19.492,8.246 19.489,8.209 19.487,8.171 19.484,8.134 19.482,8.097 19.481,8.059 19.479,8.022 19.478,7.984 19.477,7.947 19.477,7.909 19.476,7.872 19.476,7.834 19.476,7.797 19.476,7.759 19.476,7.722 19.476,7.684 19.476,7.647 19.476,7.609 19.477,7.572 19.477,7.534 19.477,7.497 19.477,7.459 19.477,7.422 19.477,7.384 19.477,7.347 19.477,7.309 19.478,7.272 19.478,7.234 19.478,7.197 19.478,7.159 19.478,7.122 19.478,7.085 19.478,7.048 19.478,7.011 19.479,6.975 19.479,6.938 19.479,6.902 19.479,6.866 19.479,6.831 19.479,6.795 19.479,6.760 19.479,6.725 19.480,6.690 19.480,6.656 19.480,6.622 19.480,6.588 19.480,6.554 19.480,6.521 19.480,6.488 19.480,6.456 19.480,6.423 19.481,6.391 19.481,6.359 19.481,6.328 19.481,6.297 19.481,6.266 19.481,6.235 19.481,6.205 19.481,6.175 19.481,6.145 19.481,6.116 19.482,6.087 19.482,6.058 19.482,6.029 19.482,6.001 19.482,5.973 19.482,5.945 19.482,5.918 19.482,5.891 19.482,5.864 19.482,5.837 19.483,5.811 19.483,5.785 19.483,5.759 19.483,5.734 19.483,5.708 19.483,5.683 19.483,5.658 19.483,5.634 19.483,5.610 19.483,5.586 19.483,5.562 19.483,5.538 19.484,5.515 19.484,5.492 19.484,5.469 19.484,5.446 19.484,5.424 19.484,5.402 19.484,5.380 19.484,5.358 19.484,5.337 19.484,5.316 19.484,5.294 19.484,5.274 19.484,5.253 19.484,5.233 19.485,5.212 19.485,5.192 19.485,5.173 19.485,5.153 19.485,5.134 19.485,5.115 19.485,5.096 19.485,5.077 19.485,5.058 19.485,5.039 19.485,5.021 19.485,5.002 19.485,4.984 19.485,4.966 19.485,4.948 19.485,4.930 19.486,4.912 19.486,4.894 19.486,4.876 19.486,4.858 19.486,4.840 19.486,4.822 19.486,4.804 19.486,4.787 19.486,4.769 19.486,4.751 19.486,4.734 19.486,4.716 19.486,4.698 19.486,4.681 19.486,4.663 19.486,4.645 19.486,4.628 19.487,4.610 19.487,4.593 19.487,4.575 19.487,4.557 19.487,4.540 19.487,4.522 19.487,4.505 19.487,4.487 19.487,4.470 19.487,4.452 19.487,4.435 19.487,4.417 19.487,4.400 19.487,4.382 19.487,4.365 19.487,4.347 19.487,4.330 19.488,4.312 19.488,4.294 19.488,4.277 19.488,4.259 19.488,4.242 19.488,4.224 19.488,4.207 19.488,4.189 19.488,4.172 19.488,4.154 19.488,4.137 19.488,4.119 19.488,4.102 19.488,4.084 19.488,4.067 19.488,4.049 19.488,4.032 19.489,4.014 19.489,3.997 19.489,3.979 19.489,3.962 19.489,3.944 19.489,3.927 19.489,3.909 19.489,3.892 19.489,3.874 19.489,3.857 19.489,3.839 19.489,3.822 19.489,3.804 19.489,3.787 19.489,3.769 19.489,3.752 19.489,3.734 19.490,3.717 19.490,3.699 19.490,3.682 19.490,3.664 19.490,3.647 19.490,3.629 19.490,3.612 19.490,3.594 19.490,3.577 19.490,3.559 19.490,3.542 19.490,3.524 19.490,3.507 19.490,3.489 19.490,3.472 19.490,3.454 19.490,3.437 19.491,3.419 19.491,3.402 19.491,3.384 19.491,3.367 19.491,3.349"/>
<polygon fill="#1f77b4" fill-opacity="0.140" stroke="#1f77b4" stroke-opacity="0.55" stroke-width="0.07" points="6.408,13.000 6.408,11.000 1.608,11.000 1.608,13.000"/>
<polygon fill="#1f77b4" fill-opacity="0.140" stroke="#1f77b4" stroke-opacity="0.55" stroke-width="0.07" points="7.269,13.000 7.269,11.000 2.469,11.000 2.469,13.000"/>
<polygon fill="#1f77b4" fill-opacity="0.140" stroke="#1f77b4" stroke-opacity="0.55" stroke-width="0.07" points="8.584,13.000 8.584,11.000 3.784,11.000 3.784,13.000"/>
<polygon fill="#1f77b4" fill-opacity="0.140" stroke="#1f77b4" stroke-opacity="0.55" stroke-width="0.07" points="9.967,13.000 9.967,11.000 5.167,11.000 5.167,13.000"/>
<polygon fill="#1f77b4" fill-opacity="0.140" stroke="#1f77b4" stroke-opacity="0.55" stroke-width="0.07" points="11.360,13.000 11.360,11.000 6.560,11.000 6.560,13.000"/>
<polygon fill="#1f77b4" fill-opacity="0.140" stroke="#1f77b4" stroke-opacity="0.55" stroke-width="0.07" points="12.755,13.000 12.755,11.000 7.955,11.000 7.955,13.000"/>
<polygon fill="#1f77b4" fill-opacity="0.140" stroke="#1f77b4" stroke-opacity="0.55" stroke-width="0.07" points="14.150,13.000 14.150,11.000 9.350,11.000 9.350,13.000"/>
<polygon fill="#1f77b4" fill-opacity="0.140" stroke="#1f77b4" stroke-opacity="0.55" stroke-width="0.07" points="15.545,13.000 15.545,11.000 10.745,11.000 10.745,13.000"/>
<polygon fill="#1f77b4" fill-opacity="0.140" stroke="#1f77b4" stroke-opacity="0.55" stroke-width="0.07" points="16.940,13.000 16.940,11.000 12.140,11.000 12.140,13.000"/>
<polygon fill="#1f77b4" fill-opacity="0.140" stroke="#1f77b4" stroke-opacity="0.55" stroke-width="0.07" points="18.335,13.000 18.335,11.000 13.535,11.000 13.535,13.000"/>
<polygon fill="#1f77b4" fill-opacity="0.140" stroke="#1f77b4" stroke-opacity="0.55" stroke-width="0.07" points="19.730,13.000 19.730,11.000 14.930,11.000 14.930,13.000"/>
<polygon fill="#1f77b4" fill-opacity="0.140" stroke="#1f77b4" stroke-opacity="0.55" stroke-width="0.07" points="21.125,13.000 21.125,11.000 16.325,11.000 16.325,13.000"/>
<polygon fill="#1f77b4" fill-opacity="0.140" stroke="#1f77b4" stroke-opacity="0.55" stroke-width="0.07" points="22.520,13.000 22.520,11.000 17.720,11.000 17.720,13.000"/>
<polygon fill="#1f77b4" fill-opacity="0.140" stroke="#1f77b4" stroke-opacity="0.55" stroke-width="0.07" points="23.793,13.000 23.793,11.000 18.993,11.000 18.993,13.000"/>
<polygon fill="#1f77b4" fill-opacity="0.140" stroke="#1f77b4" stroke-opacity="0.55" stroke-width="0.07" points="24.717,13.000 24.717,11.000 19.917,11.000 19.917,13.000"/>
<polygon fill="#1f77b4" fill-opacity="0.140" stroke="#1f77b4" stroke-opacity="0.55" stroke-width="0.07" points="25.330,13.000 25.330,11.000 20.530,11.000 20.530,13.000"/>
<polygon fill="#1f77b4" fill-opacity="0.140" stroke="#1f77b4" stroke-opacity="0.55" stroke-width="0.07" points="25.731,13.000 25.731,11.000 20.931,11.000 20.931,13.000"/>
<polygon fill="#1f77b4" fill-opacity="0.140" stroke="#1f77b4" stroke-opacity="0.55" stroke-width="0.07" points="25.861,13.000 25.861,11.000 21.061,11.000 21.061,13.000"/>
<polygon fill="#ff7f0e" fill-opacity="0.160" stroke="#ff7f0e" stroke-opacity="0.55" stroke-width="0.07" points="25.857,13.000 25.858,11.000 21.058,11.000 21.057,13.000"/>
<polygon fill="#ff7f0e" fill-opacity="0.160" stroke="#ff7f0e" stroke-opacity="0.55" stroke-width="0.07" points="25.337,13.205 25.524,11.214 20.746,10.763 20.558,12.754"/>
<polygon fill="#ff7f0e" fill-opacity="0.160" stroke="#ff7f0e" stroke-opacity="0.55" stroke-width="0.07" points="24.479,13.457 24.991,11.523 20.351,10.294 19.839,12.227"/>
<polygon fill="#ff7f0e" fill-opacity="0.160" stroke="#ff7f0e" stroke-opacity="0.55" stroke-width="0.07" points="23.545,13.566 24.383,11.750 20.025,9.738 19.187,11.554"/>
<polygon fill="#ff7f0e" fill-opacity="0.160" stroke="#ff7f0e" stroke-opacity="0.55" stroke-width="0.07" points="22.599,13.511 23.741,11.869 19.799,9.129 18.658,10.772"/>
<polygon fill="#ff7f0e" fill-opacity="0.160" stroke="#ff7f0e" stroke-opacity="0.55" stroke-width="0.07" points="21.677,13.292 23.086,11.874 19.682,8.490 18.272,9.909"/>
<polygon fill="#ff7f0e" fill-opacity="0.160" stroke="#ff7f0e" stroke-opacity="0.55" stroke-width="0.07" points="20.806,12.916 22.441,11.765 19.678,7.840 18.043,8.991"/>
<polygon fill="#ff7f0e" fill-opacity="0.160" stroke="#ff7f0e" stroke-opacity="0.55" stroke-width="0.07" points="20.021,12.394 21.830,11.540 19.779,7.200 17.971,8.054"/>
<polygon fill="#ff7f0e" fill-opacity="0.160" stroke="#ff7f0e" stroke-opacity="0.55" stroke-width="0.07" points="19.363,11.750 21.285,11.196 19.957,6.584 18.035,7.137"/>
<polygon fill="#ff7f0e" fill-opacity="0.160" stroke="#ff7f0e" stroke-opacity="0.55" stroke-width="0.07" points="18.842,11.017 20.825,10.756 20.198,5.997 18.215,6.259"/>
<polygon fill="#ff7f0e" fill-opacity="0.160" stroke="#ff7f0e" stroke-opacity="0.55" stroke-width="0.07" points="18.482,10.237 20.482,10.232 20.470,5.432 18.470,5.437"/>
<polygon fill="#ff7f0e" fill-opacity="0.160" stroke="#ff7f0e" stroke-opacity="0.55" stroke-width="0.07" points="18.470,9.556 20.470,9.563 20.486,4.763 18.486,4.756"/>
<polygon fill="#ff7f0e" fill-opacity="0.160" stroke="#ff7f0e" stroke-opacity="0.55" stroke-width="0.07" points="18.472,8.918 20.472,8.925 20.488,4.125 18.488,4.118"/>
<polygon fill="#ff7f0e" fill-opacity="0.160" stroke="#ff7f0e" stroke-opacity="0.55" stroke-width="0.07" points="18.474,8.370 20.474,8.377 20.490,3.577 18.490,3.570"/>
<polygon fill="#ff7f0e" fill-opacity="0.160" stroke="#ff7f0e" stroke-opacity="0.55" stroke-width="0.07" points="18.475,7.912 20.475,7.918 20.492,3.118 18.492,3.112"/>
<polygon fill="#ff7f0e" fill-opacity="0.160" stroke="#ff7f0e" stroke-opacity="0.55" stroke-width="0.07" points="18.477,7.530 20.477,7.537 20.493,2.737 18.493,2.730"/>
<polygon fill="#ff7f0e" fill-opacity="0.160" stroke="#ff7f0e" stroke-opacity="0.55" stroke-width="0.07" points="18.478,7.201 20.478,7.208 20.494,2.408 18.494,2.401"/>
<polygon fill="#ff7f0e" fill-opacity="0.160" stroke="#ff7f0e" stroke-opacity="0.55" stroke-width="0.07" points="18.479,6.884 20.479,6.891 20.495,2.091 18.495,2.084"/>
<polygon fill="#ff7f0e" fill-opacity="0.160" stroke="#ff7f0e" stroke-opacity="0.55" stroke-width="0.07" points="18.480,6.569 20.480,6.575 20.496,1.775 18.496,1.769"/>
<polygon fill="#ff7f0e" fill-opacity="0.160" stroke="#ff7f0e" stroke-opacity="0.55" stroke-width="0.07" points="18.481,6.254 20.481,6.260 20.497,1.460 18.497,1.454"/>
<polygon fill="#ff7f0e" fill-opacity="0.160" stroke="#ff7f0e" stroke-opacity="0.55" stroke-width="0.07" points="18.482,5.938 20.482,5.945 20.498,1.145 18.498,1.139"/>
<polygon fill="#ff7f0e" fill-opacity="0.160" stroke="#ff7f0e" stroke-opacity="0.55" stroke-width="0.07" points="18.483,5.746 20.483,5.753 20.499,0.953 18.499,0.946"/>
<polygon fill="none" stroke="crimson" stroke-width="0.120" points="18.483,5.746 20.483,5.753 20.499,0.953 18.499,0.946"/>
</g>
</svg>
