<?xml version="1.0" encoding="UTF-8"?>
<svg xmlns="http://www.w3.org/2000/svg" width="1400" height="900" viewBox="0 -3 75 53">
<rect x="0" y="-3" width="75" height="53" fill="white"/>
<text x="1.5" y="-1.35" font-size="1.15" fill="black">Parking | target row=1 idx=2 | success=true sim_ok=true | max_steer=35 deg | overshoot~=5 m | total(ref)~=9e+01 m</text>
<text x="1.5" y="-0.45" font-size="0.95" fill="black">ok</text>
<g transform="translate(0,50.000) scale(1,-1)">
<rect x="0" y="0" width="75.000" height="50.000" fill="none" stroke="black" stroke-width="0.15"/>
<rect x="0.000" y="9.000" width="75.000" height="6.000" fill="#add8e6" fill-opacity="0.25" stroke="#add8e6" stroke-width="0.08"/>
<rect x="0.000" y="34.500" width="75.000" height="6.000" fill="#add8e6" fill-opacity="0.25" stroke="#add8e6" stroke-width="0.08"/>
<rect x="36.000" y="12.000" width="6.000" height="25.500" fill="#90ee90" fill-opacity="0.25" stroke="#90ee90" stroke-width="0.08"/>
<rect x="12.000" y="44.000" width="4.800" height="6.000" fill="white" stroke="gray" stroke-width="0.080" fill-opacity="0.85"/>
<rect x="16.800" y="44.000" width="4.800" height="6.000" fill="white" stroke="gray" stroke-width="0.080" fill-opacity="0.85"/>
<rect x="21.600" y="44.000" width="4.800" height="6.000" fill="white" stroke="gray" stroke-width="0.080" fill-opacity="0.85"/>
<rect x="26.400" y="44.000" width="4.800" height="6.000" fill="white" stroke="gray" stroke-width="0.080" fill-opacity="0.85"/>
<rect x="31.200" y="44.000" width="4.800" height="6.000" fill="white" stroke="gray" stroke-width="0.080" fill-opacity="0.85"/>
<rect x="12.000" y="25.000" width="4.800" height="6.000" fill="white" stroke="gray" stroke-width="0.080" fill-opacity="0.85"/>
<rect x="16.800" y="25.000" width="4.800" height="6.000" fill="white" stroke="gray" stroke-width="0.080" fill-opacity="0.85"/>
<rect x="21.600" y="25.000" width="4.800" height="6.000" fill="#98fb98" stroke="darkgreen" stroke-width="0.180" fill-opacity="0.85"/>
<rect x="26.400" y="25.000" width="4.800" height="6.000" fill="white" stroke="gray" stroke-width="0.080" fill-opacity="0.85"/>
<rect x="31.200" y="25.000" width="4.800" height="6.000" fill="white" stroke="gray" stroke-width="0.080" fill-opacity="0.85"/>
<rect x="12.000" y="19.000" width="4.800" height="6.000" fill="white" stroke="gray" stroke-width="0.080" fill-opacity="0.85"/>
<rect x="16.800" y="19.000" width="4.800" height="6.000" fill="white" stroke="gray" stroke-width="0.080" fill-opacity="0.85"/>
<rect x="21.600" y="19.000" width="4.800" height="6.000" fill="white" stroke="gray" stroke-width="0.080" fill-opacity="0.85"/>
<rect x="26.400" y="19.000" width="4.800" height="6.000" fill="white" stroke="gray" stroke-width="0.080" fill-opacity="0.85"/>
<rect x="31.200" y="19.000" width="4.800" height="6.000" fill="white" stroke="gray" stroke-width="0.080" fill-opacity="0.85"/>
<rect x="12.000" y="0.000" width="4.800" height="6.000" fill="white" stroke="gray" stroke-width="0.080" fill-opacity="0.85"/>
<rect x="16.800" y="0.000" width="4.800" height="6.000" fill="white" stroke="gray" stroke-width="0.080" fill-opacity="0.85"/>
<rect x="21.600" y="0.000" width="4.800" height="6.000" fill="white" stroke="gray" stroke-width="0.080" fill-opacity="0.85"/>
<rect x="26.400" y="0.000" width="4.800" height="6.000" fill="white" stroke="gray" stroke-width="0.080" fill-opacity="0.85"/>
<rect x="31.200" y="0.000" width="4.800" height="6.000" fill="white" stroke="gray" stroke-width="0.080" fill-opacity="0.85"/>
<polygon fill="none" stroke="navy" stroke-width="0.120" points="6.400,13.000 6.400,11.000 1.600,11.000 1.600,13.000"/>
<polygon fill="purple" points="26.220,37.500 26.500,37.850 26.780,37.500 26.500,37.150"/>
<circle cx="19.200" cy="37.500" r="0.38" fill="darkviolet" stroke="indigo" stroke-width="0.06"/>
<polyline fill="none" stroke="#808080" stroke-width="0.120" stroke-opacity="0.65" stroke-dasharray="0.45 0.35" points="4.000,12.000 4.000,12.120 34.124,12.120 34.307,12.124 34.491,12.137 34.673,12.159 34.854,12.190 35.033,12.229 35.210,12.276 35.385,12.332 35.557,12.396 35.726,12.468 35.891,12.549 36.052,12.637 36.209,12.732 36.361,12.835 36.508,12.945 36.649,13.062 36.785,13.185 36.915,13.315 37.038,13.451 37.155,13.592 37.265,13.739 37.368,13.891 37.463,14.048 37.551,14.209 37.632,14.374 37.704,14.543 37.768,14.715 37.824,14.890 37.871,15.067 37.910,15.246 37.941,15.427 37.963,15.609 37.976,15.793 37.980,15.976 37.980,33.644 37.976,33.827 37.963,34.011 37.941,34.193 37.910,34.374 37.871,34.553 37.824,34.730 37.768,34.905 37.704,35.077 37.632,35.246 37.551,35.411 37.463,35.572 37.368,35.729 37.265,35.881 37.155,36.028 37.038,36.169 36.915,36.305 36.785,36.435 36.649,36.558 36.508,36.675 36.361,36.785 36.209,36.888 36.052,36.983 35.891,37.071 35.726,37.152 35.557,37.224 35.385,37.288 35.210,37.344 35.033,37.391 34.854,37.430 34.673,37.461 34.491,37.483 34.307,37.496 34.124,37.500 26.500,37.500 19.200,37.500"/>
<polyline fill="none" stroke="#808080" stroke-width="0.120" stroke-opacity="0.65" stroke-dasharray="0.45 0.35" points="19.200,37.500 19.374,37.341 19.544,37.177 19.710,37.009 19.873,36.838 20.032,36.662 20.187,36.483 20.338,36.301 20.487,36.115 20.631,35.926 20.772,35.735 20.910,35.541 21.044,35.344 21.176,35.145 21.303,34.944 21.428,34.740 21.549,34.536 21.668,34.329 21.783,34.121 21.895,33.912 22.005,33.702 22.111,33.491 22.214,33.279 22.315,33.067 22.413,32.854 22.508,32.642 22.600,32.429 22.690,32.217 22.777,32.005 22.861,31.794 22.944,31.583 23.023,31.374 23.100,31.165 23.175,30.958 23.248,30.752 23.318,30.548 23.386,30.346 23.452,30.146 23.515,29.949 23.577,29.753 23.636,29.561 23.694,29.371 23.750,29.184 23.803,29.000 23.855,28.820 23.905,28.643 23.953,28.469 24.000,28.300"/>
<polyline fill="none" stroke="#1f77b4" stroke-width="0.220" stroke-opacity="0.95" points="4.008,12.000 4.022,12.000 4.043,12.000 4.070,12.000 4.102,12.000 4.138,12.000 4.179,12.001 4.223,12.001 4.270,12.002 4.321,12.003 4.374,12.003 4.429,12.005 4.487,12.006 4.547,12.007 4.609,12.009 4.672,12.011 4.736,12.013 4.802,12.015 4.869,12.017 4.937,12.019 5.006,12.022 5.076,12.024 5.146,12.027 5.218,12.030 5.290,12.033 5.362,12.036 5.435,12.039 5.508,12.041 5.582,12.044 5.656,12.047 5.731,12.050 5.806,12.053 5.881,12.056 5.956,12.059 6.031,12.062 6.107,12.065 6.183,12.068 6.259,12.070 6.335,12.073 6.411,12.076 6.488,12.078 6.564,12.081 6.641,12.083 6.718,12.085 6.795,12.088 6.871,12.090 6.948,12.092 7.025,12.094 7.102,12.096 7.179,12.098 7.257,12.100 7.334,12.101 7.411,12.103 7.488,12.104 7.565,12.106 7.643,12.107 7.720,12.109 7.797,12.110 7.875,12.111 7.952,12.112 8.029,12.113 8.107,12.114 8.184,12.115 8.262,12.116 8.339,12.117 8.416,12.118 8.494,12.119 8.571,12.119 8.649,12.120 8.726,12.120 8.804,12.121 8.881,12.121 8.958,12.122 9.036,12.122 9.113,12.122 9.191,12.123 9.268,12.123 9.346,12.123 9.423,12.124 9.501,12.124 9.578,12.124 9.656,12.124 9.733,12.124 9.811,12.124 9.888,12.124 9.966,12.124 10.043,12.124 10.121,12.124 10.198,12.124 10.276,12.124 10.353,12.124 10.431,12.124 10.508,12.124 10.586,12.124 10.663,12.124 10.741,12.124 10.818,12.124 10.896,12.124 10.973,12.124 11.051,12.124 11.128,12.124 11.206,12.123 11.283,12.123 11.361,12.123 11.438,12.123 11.516,12.123 11.593,12.123 11.671,12.123 11.748,12.123 11.826,12.123 11.903,12.122 11.981,12.122 12.058,12.122 12.136,12.122 12.213,12.122 12.291,12.122 12.368,12.122 12.446,12.122 12.523,12.122 12.601,12.121 12.678,12.121 12.756,12.121 12.833,12.121 12.911,12.121 12.988,12.121 13.066,12.121 13.143,12.121 13.221,12.121 13.298,12.121 13.376,12.121 13.453,12.121 13.531,12.121 13.608,12.121 13.686,12.120 13.763,12.120 13.841,12.120 13.918,12.120 13.996,12.120 14.073,12.120 14.151,12.120 14.228,12.120 14.306,12.120 14.383,12.120 14.461,12.120 14.538,12.120 14.616,12.120 14.693,12.120 14.771,12.120 14.848,12.120 14.926,12.120 15.003,12.120 15.081,12.120 15.158,12.120 15.236,12.120 15.313,12.120 15.391,12.120 15.468,12.120 15.546,12.120 15.623,12.120 15.701,12.120 15.778,12.120 15.856,12.120 15.933,12.120 16.011,12.120 16.088,12.120 16.166,12.120 16.243,12.120 16.321,12.120 16.398,12.120 16.476,12.120 16.553,12.120 16.631,12.120 16.708,12.120 16.786,12.120 16.863,12.120 16.941,12.120 17.018,12.120 17.096,12.120 17.173,12.120 17.251,12.120 17.328,12.120 17.406,12.120 17.483,12.120 17.561,12.120 17.638,12.120 17.716,12.120 17.793,12.120 17.871,12.120 17.948,12.120 18.026,12.120 18.103,12.120 18.181,12.120 18.258,12.120 18.336,12.120 18.413,12.120 18.491,12.120 18.568,12.120 18.646,12.120 18.723,12.120 18.801,12.120 18.878,12.120 18.956,12.120 19.033,12.120 19.111,12.120 19.188,12.120 19.266,12.120 19.343,12.120 19.421,12.120 19.498,12.120 19.576,12.120 19.653,12.120 19.731,12.120 19.808,12.120 19.886,12.120 19.963,12.120 20.041,12.120 20.118,12.120 20.196,12.120 20.273,12.120 20.351,12.120 20.428,12.120 20.506,12.120 20.583,12.120 20.661,12.120 20.738,12.120 20.816,12.120 20.893,12.120 20.971,12.120 21.048,12.120 21.126,12.120 21.203,12.120 21.281,12.120 21.358,12.120 21.436,12.120 21.513,12.120 21.591,12.120 21.668,12.120 21.746,12.120 21.823,12.120 21.901,12.120 21.978,12.120 22.056,12.120 22.133,12.120 22.211,12.120 22.288,12.120 22.366,12.120 22.443,12.120 22.521,12.120 22.598,12.120 22.676,12.120 22.753,12.120 22.831,12.120 22.908,12.120 22.986,12.120 23.063,12.120 23.141,12.120 23.218,12.120 23.296,12.120 23.373,12.120 23.451,12.120 23.528,12.120 23.606,12.120 23.683,12.120 23.761,12.120 23.838,12.120 23.916,12.120 23.993,12.120 24.071,12.120 24.148,12.120 24.226,12.120 24.303,12.120 24.381,12.120 24.458,12.120 24.536,12.120 24.613,12.120 24.691,12.120 24.768,12.120 24.846,12.120 24.923,12.120 25.001,12.120 25.078,12.120 25.156,12.120 25.233,12.120 25.311,12.120 25.388,12.120 25.466,12.120 25.543,12.120 25.621,12.120 25.698,12.120 25.776,12.120 25.853,12.120 25.931,12.120 26.008,12.120 26.086,12.120 26.163,12.120 26.241,12.120 26.318,12.120 26.396,12.120 26.473,12.120 26.551,12.120 26.628,12.120 26.706,12.120 26.783,12.120 26.861,12.120 26.938,12.120 27.016,12.120 27.093,12.120 27.171,12.120 27.248,12.120 27.326,12.120 27.403,12.120 27.481,12.120 27.558,12.120 27.636,12.120 27.713,12.120 27.791,12.120 27.868,12.120 27.946,12.120 28.023,12.120 28.101,12.120 28.178,12.120 28.256,12.120 28.333,12.120 28.411,12.120 28.488,12.120 28.566,12.120 28.643,12.120 28.721,12.120 28.798,12.120 28.876,12.120 28.953,12.120 29.031,12.120 29.108,12.120 29.186,12.120 29.263,12.120 29.341,12.120 29.418,12.120 29.496,12.120 29.573,12.120 29.651,12.120 29.728,12.120 29.806,12.120 29.883,12.120 29.961,12.120 30.038,12.120 30.116,12.120 30.193,12.120 30.271,12.120 30.348,12.120 30.426,12.120 30.503,12.120 30.581,12.120 30.658,12.120 30.736,12.120 30.813,12.120 30.891,12.120 30.968,12.120 31.046,12.120 31.123,12.120 31.201,12.120 31.278,12.120 31.356,12.120 31.433,12.120 31.511,12.120 31.588,12.120 31.666,12.120 31.743,12.120 31.821,12.120 31.898,12.120 31.976,12.120 32.053,12.120 32.131,12.120 32.208,12.120 32.286,12.120 32.363,12.120 32.441,12.120 32.518,12.120 32.596,12.120 32.673,12.120 32.751,12.120 32.828,12.121 32.906,12.121 32.983,12.122 33.061,12.122 33.138,12.123 33.216,12.124 33.293,12.126 33.371,12.128 33.448,12.130 33.526,12.132 33.603,12.136 33.680,12.139 33.758,12.143 33.835,12.148 33.912,12.153 33.990,12.159 34.067,12.166 34.144,12.173 34.221,12.182 34.298,12.191 34.375,12.200 34.452,12.211 34.528,12.223 34.605,12.236 34.681,12.249 34.757,12.264 34.833,12.280 34.909,12.297 34.984,12.315 35.059,12.334 35.134,12.354 35.208,12.376 35.282,12.399 35.356,12.423 35.429,12.448 35.502,12.475 35.574,12.503 35.646,12.532 35.717,12.563 35.788,12.595 35.858,12.628 35.927,12.662 35.996,12.698 36.064,12.735 36.131,12.774 36.198,12.814 36.264,12.855 36.328,12.897 36.392,12.941 36.456,12.986 36.518,13.032 36.579,13.079 36.639,13.128 36.699,13.178 36.757,13.229 36.814,13.281 36.871,13.334 36.926,13.389 36.980,13.444 37.033,13.501 37.085,13.559 37.135,13.617 37.185,13.677 37.233,13.738 37.280,13.799 37.325,13.862 37.370,13.926 37.413,13.990 37.455,14.055 37.495,14.121 37.535,14.188 37.573,14.256 37.609,14.324 37.644,14.393 37.678,14.463 37.710,14.533 37.741,14.604 37.770,14.676 37.798,14.748 37.825,14.821 37.850,14.895 37.874,14.968 37.896,15.043 37.916,15.117 37.936,15.192 37.954,15.268 37.970,15.344 37.985,15.420 37.999,15.496 38.012,15.572 38.024,15.649 38.035,15.726 38.044,15.802 38.053,15.879 38.061,15.957 38.068,16.034 38.074,16.111 38.079,16.188 38.083,16.266 38.087,16.343 38.090,16.421 38.093,16.498 38.095,16.575 38.096,16.653 38.097,16.730 38.098,16.808 38.098,16.885 38.097,16.963 38.097,17.040 38.096,17.118 38.094,17.195 38.093,17.273 38.091,17.350 38.089,17.428 38.087,17.505 38.084,17.583 38.082,17.660 38.079,17.738 38.076,17.815 38.073,17.893 38.070,17.970 38.067,18.047 38.064,18.125 38.061,18.202 38.058,18.280 38.055,18.357 38.052,18.435 38.049,18.512 38.046,18.590 38.043,18.667 38.040,18.744 38.037,18.822 38.034,18.899 38.031,18.977 38.029,19.054 38.026,19.132 38.023,19.209 38.021,19.287 38.018,19.364 38.016,19.442 38.014,19.519 38.011,19.596 38.009,19.674 38.007,19.751 38.005,19.829 38.003,19.906 38.001,19.984 37.999,20.061 37.998,20.139 37.996,20.216 37.995,20.294 37.993,20.371 37.992,20.449 37.990,20.526 37.989,20.604 37.988,20.681 37.987,20.759 37.986,20.836 37.985,20.914 37.984,20.991 37.983,21.069 37.982,21.146 37.982,21.224 37.981,21.301 37.980,21.379 37.980,21.456 37.979,21.534 37.979,21.611 37.978,21.689 37.978,21.766 37.978,21.844 37.977,21.921 37.977,21.999 37.977,22.076 37.976,22.154 37.976,22.231 37.976,22.309 37.976,22.386 37.976,22.464 37.976,22.541 37.976,22.619 37.976,22.696 37.976,22.774 37.976,22.851 37.976,22.929 37.976,23.006 37.976,23.084 37.976,23.161 37.976,23.239 37.976,23.316 37.976,23.394 37.976,23.471 37.976,23.549 37.976,23.626 37.976,23.704 37.976,23.781 37.976,23.859 37.976,23.936 37.977,24.014 37.977,24.091 37.977,24.169 37.977,24.246 37.977,24.324 37.977,24.401 37.977,24.479 37.977,24.556 37.978,24.634 37.978,24.711 37.978,24.789 37.978,24.866 37.978,24.944 37.978,25.021 37.978,25.099 37.978,25.176 37.978,25.254 37.978,25.331 37.979,25.409 37.979,25.486 37.979,25.564 37.979,25.641 37.979,25.719 37.979,25.796 37.979,25.874 37.979,25.951 37.979,26.029 37.979,26.106 37.979,26.184 37.979,26.261 37.979,26.339 37.980,26.416 37.980,26.494 37.980,26.571 37.980,26.649 37.980,26.726 37.980,26.804 37.980,26.881 37.980,26.959 37.980,27.036 37.980,27.114 37.980,27.191 37.980,27.269 37.980,27.346 37.980,27.424 37.980,27.501 37.980,27.579 37.980,27.656 37.980,27.734 37.980,27.811 37.980,27.889 37.980,27.966 37.980,28.044 37.980,28.121 37.980,28.199 37.980,28.276 37.980,28.354 37.980,28.431 37.980,28.509 37.980,28.586 37.980,28.664 37.980,28.741 37.980,28.819 37.980,28.896 37.980,28.974 37.980,29.051 37.980,29.129 37.980,29.206 37.980,29.284 37.980,29.361 37.980,29.439 37.980,29.516 37.980,29.594 37.980,29.671 37.980,29.749 37.980,29.826 37.980,29.904 37.980,29.981 37.980,30.059 37.980,30.136 37.980,30.214 37.980,30.291 37.980,30.369 37.980,30.446 37.980,30.524 37.980,30.601 37.980,30.679 37.980,30.756 37.980,30.834 37.980,30.911 37.980,30.989 37.980,31.066 37.980,31.144 37.980,31.221 37.980,31.299 37.980,31.376 37.980,31.454 37.980,31.531 37.980,31.609 37.980,31.686 37.980,31.764 37.980,31.841 37.980,31.919 37.980,31.996 37.980,32.074 37.980,32.151 37.980,32.229 37.980,32.306 37.979,32.384 37.979,32.461 37.978,32.539 37.977,32.616 37.976,32.694 37.975,32.771 37.974,32.849 37.972,32.926 37.969,33.004 37.967,33.081 37.963,33.158 37.959,33.236 37.955,33.313 37.950,33.391 37.945,33.468 37.938,33.545 37.932,33.622 37.924,33.699 37.915,33.776 37.906,33.853 37.896,33.930 37.884,34.007 37.872,34.083 37.859,34.160 37.845,34.236 37.830,34.312 37.814,34.388 37.796,34.463 37.778,34.539 37.758,34.613 37.737,34.688 37.715,34.762 37.691,34.836 37.667,34.910 37.641,34.983 37.613,35.055 37.585,35.127 37.555,35.199 37.524,35.270 37.492,35.340 37.458,35.410 37.423,35.479 37.386,35.547 37.348,35.615 37.309,35.682 37.269,35.748 37.227,35.814 37.185,35.878 37.140,35.942 37.095,36.005 37.048,36.066 37.000,36.127 36.951,36.187 36.901,36.246 36.849,36.304 36.796,36.361 36.743,36.417 36.688,36.471 36.632,36.525 36.575,36.577 36.517,36.629 36.457,36.679 36.397,36.728 36.336,36.775 36.274,36.822 36.211,36.867 36.147,36.911 36.083,36.953 36.017,36.995 35.951,37.035 35.883,37.073 35.815,37.111 35.747,37.146 35.677,37.181 35.607,37.214 35.537,37.246 35.465,37.276 35.393,37.305 35.321,37.332 35.248,37.358 35.174,37.383 35.100,37.406 35.026,37.427 34.951,37.447 34.876,37.466 34.800,37.483 34.724,37.499 34.648,37.514 34.572,37.527 34.495,37.540 34.419,37.551 34.342,37.561 34.265,37.570 34.188,37.579 34.111,37.586 34.033,37.592 33.956,37.598 33.879,37.603 33.801,37.607 33.724,37.610 33.647,37.613 33.569,37.615 33.492,37.617 33.414,37.618 33.337,37.619 33.259,37.619 33.182,37.619 33.104,37.618 33.027,37.617 32.949,37.616 32.872,37.615 32.794,37.613 32.717,37.611 32.639,37.609 32.562,37.607 32.484,37.604 32.407,37.601 32.329,37.599 32.252,37.596 32.175,37.593 32.097,37.590 32.020,37.587 31.942,37.584 31.865,37.580 31.787,37.577 31.710,37.574 31.632,37.571 31.555,37.568 31.478,37.565 31.400,37.562 31.323,37.559 31.245,37.556 31.168,37.553 31.090,37.550 31.013,37.548 30.935,37.545 30.858,37.542 30.781,37.540 30.703,37.537 30.626,37.535 30.548,37.533 30.471,37.530 30.393,37.528 30.316,37.526 30.238,37.524 30.161,37.522 30.083,37.520 30.006,37.519 29.928,37.517 29.851,37.515 29.773,37.514 29.696,37.512 29.618,37.511 29.541,37.510 29.463,37.509 29.386,37.507 29.308,37.506 29.231,37.505 29.153,37.504 29.076,37.503 28.998,37.503 28.921,37.502 28.843,37.501 28.766,37.501 28.688,37.500 28.611,37.499 28.533,37.499 28.456,37.498 28.378,37.498 28.301,37.498 28.223,37.497 28.146,37.497 28.068,37.497 27.991,37.496 27.913,37.496 27.836,37.496 27.758,37.496 27.681,37.496 27.603,37.496 27.526,37.496 27.448,37.496 27.371,37.495 27.293,37.495 27.216,37.495 27.138,37.495 27.061,37.495 26.983,37.496 26.906,37.496 26.828,37.496 26.751,37.496 26.673,37.496 26.596,37.496 26.518,37.496 26.441,37.496 26.363,37.496 26.286,37.496 26.208,37.496 26.131,37.496 26.053,37.497 25.976,37.497 25.898,37.497 25.821,37.497 25.743,37.497 25.666,37.497 25.588,37.497 25.511,37.497 25.433,37.498 25.356,37.498 25.278,37.498 25.201,37.498 25.123,37.498 25.046,37.498 24.968,37.498 24.891,37.498 24.813,37.498 24.736,37.499 24.658,37.499 24.581,37.499 24.503,37.499 24.426,37.499 24.348,37.499 24.271,37.499 24.193,37.499 24.116,37.499 24.038,37.499 23.961,37.499 23.883,37.499 23.806,37.499 23.728,37.499 23.651,37.500 23.573,37.500 23.496,37.500 23.418,37.500 23.341,37.500 23.263,37.500 23.186,37.500 23.108,37.500 23.031,37.500 22.954,37.500 22.878,37.500 22.802,37.500 22.726,37.500 22.651,37.500 22.578,37.500 22.505,37.500 22.432,37.500 22.361,37.500 22.291,37.500 22.222,37.500 22.154,37.500 22.087,37.500 22.021,37.500 21.956,37.500 21.892,37.500 21.830,37.500 21.768,37.500 21.708,37.500 21.649,37.500 21.591,37.500 21.535,37.500 21.479,37.500 21.425,37.500 21.371,37.500 21.319,37.500 21.268,37.500 21.218,37.500 21.169,37.500 21.121,37.500 21.075,37.500 21.029,37.500 20.984,37.500 20.941,37.500 20.898,37.500 20.856,37.500 20.815,37.500 20.776,37.500 20.737,37.500 20.699,37.500 20.662,37.500 20.626,37.500 20.590,37.500 20.556,37.500 20.522,37.500 20.489,37.500 20.457,37.500 20.426,37.500 20.395,37.500 20.366,37.500 20.336,37.500 20.308,37.500 20.280,37.500 20.253,37.500 20.227,37.500 20.201,37.500 20.176,37.500 20.152,37.500 20.128,37.500 20.105,37.500 20.082,37.500 20.060,37.500 20.038,37.500 20.017,37.500 19.996,37.500 19.975,37.500 19.955,37.500 19.935,37.500 19.915,37.500 19.896,37.500 19.876,37.500 19.857,37.500 19.838,37.500 19.820,37.500 19.801,37.500 19.782,37.500 19.764,37.500 19.745,37.500"/>
<polyline fill="none" stroke="#ff7f0e" stroke-width="0.220" stroke-opacity="0.95" points="19.749,37.500 19.756,37.500 19.767,37.500 19.779,37.500 19.795,37.500 19.812,37.500 19.832,37.500 19.853,37.500 19.876,37.499 19.901,37.499 19.926,37.498 19.953,37.497 19.981,37.496 20.010,37.495 20.040,37.493 20.070,37.491 20.101,37.489 20.133,37.487 20.166,37.484 20.198,37.481 20.232,37.478 20.265,37.474 20.299,37.470 20.333,37.465 20.368,37.460 20.403,37.455 20.437,37.450 20.472,37.444 20.508,37.438 20.543,37.431 20.578,37.424 20.614,37.417 20.649,37.409 20.685,37.401 20.721,37.393 20.756,37.384 20.792,37.375 20.827,37.366 20.863,37.356 20.898,37.346 20.934,37.336 20.969,37.325 21.005,37.313 21.040,37.302 21.075,37.290 21.110,37.278 21.145,37.265 21.180,37.252 21.215,37.239 21.250,37.225 21.284,37.211 21.319,37.197 21.353,37.182 21.388,37.167 21.422,37.152 21.456,37.136 21.489,37.120 21.523,37.104 21.557,37.087 21.590,37.070 21.623,37.053 21.656,37.035 21.689,37.017 21.722,36.999 21.754,36.980 21.787,36.961 21.819,36.942 21.851,36.923 21.882,36.903 21.914,36.883 21.945,36.862 21.977,36.841 22.008,36.820 22.038,36.799 22.069,36.777 22.099,36.755 22.129,36.733 22.159,36.710 22.189,36.688 22.219,36.664 22.248,36.641 22.277,36.617 22.306,36.593 22.334,36.569 22.363,36.544 22.391,36.520 22.419,36.494 22.446,36.469 22.474,36.443 22.501,36.417 22.527,36.391 22.554,36.365 22.580,36.338 22.606,36.311 22.632,36.284 22.658,36.257 22.683,36.229 22.708,36.201 22.733,36.173 22.757,36.144 22.782,36.116 22.805,36.087 22.829,36.058 22.852,36.028 22.875,35.999 22.898,35.969 22.921,35.939 22.943,35.909 22.965,35.878 22.986,35.848 23.008,35.817 23.029,35.786 23.049,35.754 23.070,35.723 23.090,35.691 23.110,35.659 23.129,35.627 23.148,35.595 23.167,35.563 23.185,35.530 23.204,35.497 23.222,35.464 23.239,35.431 23.256,35.398 23.273,35.364 23.290,35.331 23.306,35.297 23.322,35.263 23.338,35.229 23.353,35.195 23.368,35.160 23.382,35.126 23.397,35.091 23.410,35.056 23.424,35.021 23.437,34.986 23.450,34.951 23.463,34.916 23.475,34.880 23.487,34.845 23.499,34.809 23.510,34.773 23.521,34.737 23.531,34.701 23.542,34.665 23.552,34.629 23.561,34.593 23.571,34.557 23.580,34.520 23.588,34.484 23.596,34.447 23.604,34.410 23.612,34.374 23.619,34.337 23.626,34.300 23.633,34.263 23.639,34.226 23.646,34.189 23.651,34.152 23.657,34.115 23.662,34.078 23.667,34.041 23.671,34.003 23.675,33.966 23.679,33.929 23.682,33.892 23.686,33.854 23.688,33.817 23.691,33.779 23.693,33.742 23.695,33.704 23.697,33.667 23.698,33.630 23.699,33.592 23.700,33.555 23.701,33.517 23.701,33.480 23.701,33.442 23.701,33.405 23.701,33.367 23.701,33.330 23.701,33.292 23.701,33.255 23.701,33.217 23.701,33.180 23.701,33.142 23.701,33.105 23.701,33.067 23.701,33.030 23.700,32.992 23.700,32.955 23.700,32.917 23.700,32.880 23.700,32.842 23.700,32.805 23.700,32.767 23.700,32.730 23.700,32.692 23.700,32.655 23.700,32.617 23.699,32.580 23.699,32.542 23.699,32.505 23.699,32.467 23.699,32.430 23.699,32.392 23.699,32.355 23.699,32.317 23.699,32.280 23.699,32.242 23.699,32.205 23.699,32.167 23.698,32.130 23.698,32.093 23.698,32.056 23.698,32.019 23.698,31.982 23.698,31.946 23.698,31.910 23.698,31.874 23.698,31.838 23.698,31.802 23.698,31.767 23.698,31.732 23.697,31.697 23.697,31.663 23.697,31.629 23.697,31.595 23.697,31.561 23.697,31.528 23.697,31.495 23.697,31.462 23.697,31.430 23.697,31.398 23.697,31.366 23.697,31.334 23.697,31.303 23.696,31.272 23.696,31.241 23.696,31.211 23.696,31.181 23.696,31.151 23.696,31.122 23.696,31.092 23.696,31.064 23.696,31.035 23.696,31.007 23.696,30.979 23.696,30.951 23.696,30.923 23.696,30.896 23.696,30.869 23.696,30.842 23.695,30.816 23.695,30.790 23.695,30.764 23.695,30.738 23.695,30.713 23.695,30.688 23.695,30.663 23.695,30.638 23.695,30.614 23.695,30.590 23.695,30.566 23.695,30.542 23.695,30.519 23.695,30.496 23.695,30.473 23.695,30.450 23.695,30.428 23.695,30.406 23.694,30.384 23.694,30.362 23.694,30.340 23.694,30.319 23.694,30.298 23.694,30.277 23.694,30.256 23.694,30.236 23.694,30.216 23.694,30.196 23.694,30.176 23.694,30.156 23.694,30.137 23.694,30.117 23.694,30.098 23.694,30.079 23.694,30.061 23.694,30.042 23.694,30.023 23.694,30.005 23.694,29.987 23.694,29.968 23.693,29.950 23.693,29.932 23.693,29.914 23.693,29.896 23.693,29.878 23.693,29.860 23.693,29.842 23.693,29.825 23.693,29.807 23.693,29.789 23.693,29.771 23.693,29.754 23.693,29.736 23.693,29.718 23.693,29.701 23.693,29.683 23.693,29.665 23.693,29.648 23.693,29.630 23.693,29.612 23.693,29.595 23.693,29.577 23.693,29.560 23.693,29.542 23.692,29.525 23.692,29.507 23.692,29.490 23.692,29.472 23.692,29.454 23.692,29.437 23.692,29.419 23.692,29.402 23.692,29.384 23.692,29.367 23.692,29.349 23.692,29.332 23.692,29.314 23.692,29.297 23.692,29.279 23.692,29.262 23.692,29.244 23.692,29.227 23.692,29.209 23.692,29.192 23.692,29.174 23.692,29.157 23.692,29.139 23.692,29.122 23.692,29.104 23.691,29.087 23.691,29.069 23.691,29.052 23.691,29.034 23.691,29.017 23.691,28.999 23.691,28.982 23.691,28.964 23.691,28.947 23.691,28.929 23.691,28.912 23.691,28.894 23.691,28.877 23.691,28.859 23.691,28.842 23.691,28.824 23.691,28.807 23.691,28.789 23.691,28.772 23.691,28.754 23.691,28.737 23.691,28.719 23.691,28.702 23.691,28.684 23.691,28.667 23.690,28.649 23.690,28.632 23.690,28.614 23.690,28.597 23.690,28.579 23.690,28.562 23.690,28.544 23.690,28.527 23.690,28.509 23.690,28.492 23.690,28.474 23.690,28.457 23.690,28.439 23.690,28.422 23.690,28.404 23.690,28.387 23.690,28.369 23.690,28.352 23.690,28.334"/>
<polygon fill="#1f77b4" fill-opacity="0.140" stroke="#1f77b4" stroke-opacity="0.55" stroke-width="0.07" points="6.408,13.000 6.408,11.000 1.608,11.000 1.608,13.000"/>
<polygon fill="#1f77b4" fill-opacity="0.140" stroke="#1f77b4" stroke-opacity="0.55" stroke-width="0.07" points="7.232,13.100 7.303,11.102 2.506,10.934 2.435,12.932"/>
<polygon fill="#1f77b4" fill-opacity="0.140" stroke="#1f77b4" stroke-opacity="0.55" stroke-width="0.07" points="8.546,13.153 8.617,11.154 3.820,10.982 3.749,12.981"/>
<polygon fill="#1f77b4" fill-opacity="0.140" stroke="#1f77b4" stroke-opacity="0.55" stroke-width="0.07" points="9.947,13.150 9.983,11.150 5.184,11.062 5.147,13.062"/>
<polygon fill="#1f77b4" fill-opacity="0.140" stroke="#1f77b4" stroke-opacity="0.55" stroke-width="0.07" points="11.353,13.134 11.363,11.134 6.564,11.110 6.553,13.110"/>
<polygon fill="#1f77b4" fill-opacity="0.140" stroke="#1f77b4" stroke-opacity="0.55" stroke-width="0.07" points="12.754,13.123 12.753,11.123 7.953,11.126 7.954,13.126"/>
<polygon fill="#1f77b4" fill-opacity="0.140" stroke="#1f77b4" stroke-opacity="0.55" stroke-width="0.07" points="14.150,13.119 14.147,11.119 9.347,11.126 9.350,13.126"/>
<polygon fill="#1f77b4" fill-opacity="0.140" stroke="#1f77b4" stroke-opacity="0.55" stroke-width="0.07" points="15.544,13.119 15.542,11.119 10.742,11.123 10.744,13.123"/>
<polygon fill="#1f77b4" fill-opacity="0.140" stroke="#1f77b4" stroke-opacity="0.55" stroke-width="0.07" points="16.938,13.119 16.938,11.119 12.138,11.121 12.138,13.121"/>
<polygon fill="#1f77b4" fill-opacity="0.140" stroke="#1f77b4" stroke-opacity="0.55" stroke-width="0.07" points="18.333,13.120 18.333,11.120 13.533,11.120 13.533,13.120"/>
<polygon fill="#1f77b4" fill-opacity="0.140" stroke="#1f77b4" stroke-opacity="0.55" stroke-width="0.07" points="19.728,13.120 19.728,11.120 14.928,11.120 14.928,13.120"/>
<polygon fill="#1f77b4" fill-opacity="0.140" stroke="#1f77b4" stroke-opacity="0.55" stroke-width="0.07" points="21.123,13.120 21.123,11.120 16.323,11.120 16.323,13.120"/>
<polygon fill="#1f77b4" fill-opacity="0.140" stroke="#1f77b4" stroke-opacity="0.55" stroke-width="0.07" points="22.518,13.120 22.518,11.120 17.718,11.120 17.718,13.120"/>
<polygon fill="#1f77b4" fill-opacity="0.140" stroke="#1f77b4" stroke-opacity="0.55" stroke-width="0.07" points="23.913,13.120 23.913,11.120 19.113,11.120 19.113,13.120"/>
<polygon fill="#1f77b4" fill-opacity="0.140" stroke="#1f77b4" stroke-opacity="0.55" stroke-width="0.07" points="25.308,13.120 25.308,11.120 20.508,11.120 20.508,13.120"/>
<polygon fill="#1f77b4" fill-opacity="0.140" stroke="#1f77b4" stroke-opacity="0.55" stroke-width="0.07" points="26.703,13.120 26.703,11.120 21.903,11.120 21.903,13.120"/>
<polygon fill="#1f77b4" fill-opacity="0.140" stroke="#1f77b4" stroke-opacity="0.55" stroke-width="0.07" points="28.098,13.120 28.098,11.120 23.298,11.120 23.298,13.120"/>
<polygon fill="#1f77b4" fill-opacity="0.140" stroke="#1f77b4" stroke-opacity="0.55" stroke-width="0.07" points="29.493,13.120 29.493,11.120 24.693,11.120 24.693,13.120"/>
<polygon fill="#1f77b4" fill-opacity="0.140" stroke="#1f77b4" stroke-opacity="0.55" stroke-width="0.07" points="30.888,13.120 30.888,11.120 26.088,11.120 26.088,13.120"/>
<polygon fill="#1f77b4" fill-opacity="0.140" stroke="#1f77b4" stroke-opacity="0.55" stroke-width="0.07" points="32.283,13.120 32.283,11.120 27.483,11.120 27.483,13.120"/>
<polygon fill="#1f77b4" fill-opacity="0.140" stroke="#1f77b4" stroke-opacity="0.55" stroke-width="0.07" points="33.678,13.120 33.678,11.120 28.878,11.120 28.878,13.120"/>
<polygon fill="#1f77b4" fill-opacity="0.140" stroke="#1f77b4" stroke-opacity="0.55" stroke-width="0.07" points="35.071,13.125 35.075,11.125 30.275,11.116 30.271,13.116"/>
<polygon fill="#1f77b4" fill-opacity="0.140" stroke="#1f77b4" stroke-opacity="0.55" stroke-width="0.07" points="36.359,13.393 36.552,11.402 31.775,10.939 31.582,12.930"/>
<polygon fill="#1f77b4" fill-opacity="0.140" stroke="#1f77b4" stroke-opacity="0.55" stroke-width="0.07" points="37.339,14.213 38.027,12.335 33.520,10.684 32.832,12.562"/>
<polygon fill="#1f77b4" fill-opacity="0.140" stroke="#1f77b4" stroke-opacity="0.55" stroke-width="0.07" points="37.834,15.437 39.120,13.906 35.445,10.819 34.159,12.350"/>
<polygon fill="#1f77b4" fill-opacity="0.140" stroke="#1f77b4" stroke-opacity="0.55" stroke-width="0.07" points="37.835,16.771 39.580,15.794 37.235,11.605 35.490,12.582"/>
<polygon fill="#1f77b4" fill-opacity="0.140" stroke="#1f77b4" stroke-opacity="0.55" stroke-width="0.07" points="37.412,18.028 39.384,17.696 38.587,12.963 36.615,13.295"/>
<polygon fill="#1f77b4" fill-opacity="0.140" stroke="#1f77b4" stroke-opacity="0.55" stroke-width="0.07" points="37.087,19.281 39.087,19.290 39.109,14.490 37.109,14.481"/>
<polygon fill="#1f77b4" fill-opacity="0.140" stroke="#1f77b4" stroke-opacity="0.55" stroke-width="0.07" points="36.964,20.638 38.962,20.718 39.153,15.921 37.154,15.842"/>
<polygon fill="#1f77b4" fill-opacity="0.140" stroke="#1f77b4" stroke-opacity="0.55" stroke-width="0.07" points="36.945,22.046 38.944,22.100 39.074,17.302 37.074,17.248"/>
<polygon fill="#1f77b4" fill-opacity="0.140" stroke="#1f77b4" stroke-opacity="0.55" stroke-width="0.07" points="36.959,23.458 38.959,23.479 39.008,18.679 37.008,18.659"/>
<polygon fill="#1f77b4" fill-opacity="0.140" stroke="#1f77b4" stroke-opacity="0.55" stroke-width="0.07" points="36.973,24.862 38.973,24.865 38.979,20.065 36.979,20.062"/>
<polygon fill="#1f77b4" fill-opacity="0.140" stroke="#1f77b4" stroke-opacity="0.55" stroke-width="0.07" points="36.980,26.260 38.980,26.257 38.973,21.457 36.973,21.460"/>
<polygon fill="#1f77b4" fill-opacity="0.140" stroke="#1f77b4" stroke-opacity="0.55" stroke-width="0.07" points="36.981,27.655 38.981,27.652 38.975,22.852 36.975,22.855"/>
<polygon fill="#1f77b4" fill-opacity="0.140" stroke="#1f77b4" stroke-opacity="0.55" stroke-width="0.07" points="36.981,29.049 38.981,29.048 38.978,24.248 36.978,24.249"/>
<polygon fill="#1f77b4" fill-opacity="0.140" stroke="#1f77b4" stroke-opacity="0.55" stroke-width="0.07" points="36.980,30.444 38.980,30.444 38.980,25.644 36.980,25.644"/>
<polygon fill="#1f77b4" fill-opacity="0.140" stroke="#1f77b4" stroke-opacity="0.55" stroke-width="0.07" points="36.980,31.839 38.980,31.839 38.980,27.039 36.980,27.039"/>
<polygon fill="#1f77b4" fill-opacity="0.140" stroke="#1f77b4" stroke-opacity="0.55" stroke-width="0.07" points="36.980,33.234 38.980,33.234 38.980,28.434 36.980,28.434"/>
<polygon fill="#1f77b4" fill-opacity="0.140" stroke="#1f77b4" stroke-opacity="0.55" stroke-width="0.07" points="36.974,34.626 38.974,34.631 38.985,29.831 36.986,29.826"/>
<polygon fill="#1f77b4" fill-opacity="0.140" stroke="#1f77b4" stroke-opacity="0.55" stroke-width="0.07" points="36.698,35.911 38.688,36.110 39.165,31.334 37.175,31.135"/>
<polygon fill="#1f77b4" fill-opacity="0.140" stroke="#1f77b4" stroke-opacity="0.55" stroke-width="0.07" points="35.860,36.877 37.732,37.581 39.421,33.088 37.549,32.384"/>
<polygon fill="#1f77b4" fill-opacity="0.140" stroke="#1f77b4" stroke-opacity="0.55" stroke-width="0.07" points="34.632,37.362 36.152,38.661 39.270,35.012 37.750,33.713"/>
<polygon fill="#1f77b4" fill-opacity="0.140" stroke="#1f77b4" stroke-opacity="0.55" stroke-width="0.07" points="33.298,37.351 34.260,39.104 38.469,36.796 37.506,35.042"/>
<polygon fill="#1f77b4" fill-opacity="0.140" stroke="#1f77b4" stroke-opacity="0.55" stroke-width="0.07" points="32.043,36.923 32.362,38.897 37.101,38.132 36.782,36.158"/>
<polygon fill="#1f77b4" fill-opacity="0.140" stroke="#1f77b4" stroke-opacity="0.55" stroke-width="0.07" points="30.789,36.601 30.774,38.601 35.574,38.636 35.589,36.637"/>
<polygon fill="#1f77b4" fill-opacity="0.140" stroke="#1f77b4" stroke-opacity="0.55" stroke-width="0.07" points="29.430,36.481 29.349,38.480 34.145,38.673 34.226,36.675"/>
<polygon fill="#1f77b4" fill-opacity="0.140" stroke="#1f77b4" stroke-opacity="0.55" stroke-width="0.07" points="28.021,36.464 27.967,38.463 32.765,38.592 32.819,36.593"/>
<polygon fill="#1f77b4" fill-opacity="0.140" stroke="#1f77b4" stroke-opacity="0.55" stroke-width="0.07" points="26.608,36.479 26.589,38.479 31.388,38.526 31.408,36.526"/>
<polygon fill="#1f77b4" fill-opacity="0.140" stroke="#1f77b4" stroke-opacity="0.55" stroke-width="0.07" points="25.205,36.493 25.202,38.493 30.002,38.498 30.004,36.498"/>
<polygon fill="#1f77b4" fill-opacity="0.140" stroke="#1f77b4" stroke-opacity="0.55" stroke-width="0.07" points="23.807,36.500 23.810,38.500 28.610,38.493 28.607,36.493"/>
<polygon fill="#1f77b4" fill-opacity="0.140" stroke="#1f77b4" stroke-opacity="0.55" stroke-width="0.07" points="22.412,36.501 22.415,38.501 27.215,38.495 27.212,36.495"/>
<polygon fill="#1f77b4" fill-opacity="0.140" stroke="#1f77b4" stroke-opacity="0.55" stroke-width="0.07" points="21.018,36.501 21.019,38.501 25.819,38.498 25.818,36.498"/>
<polygon fill="#1f77b4" fill-opacity="0.140" stroke="#1f77b4" stroke-opacity="0.55" stroke-width="0.07" points="19.686,36.500 19.687,38.500 24.487,38.500 24.486,36.500"/>
<polygon fill="#1f77b4" fill-opacity="0.140" stroke="#1f77b4" stroke-opacity="0.55" stroke-width="0.07" points="18.675,36.500 18.675,38.500 23.475,38.500 23.475,36.500"/>
<polygon fill="#1f77b4" fill-opacity="0.140" stroke="#1f77b4" stroke-opacity="0.55" stroke-width="0.07" points="17.995,36.500 17.995,38.500 22.795,38.500 22.795,36.500"/>
<polygon fill="#1f77b4" fill-opacity="0.140" stroke="#1f77b4" stroke-opacity="0.55" stroke-width="0.07" points="17.555,36.500 17.555,38.500 22.355,38.500 22.355,36.500"/>
<polygon fill="#1f77b4" fill-opacity="0.140" stroke="#1f77b4" stroke-opacity="0.55" stroke-width="0.07" points="17.345,36.500 17.345,38.500 22.145,38.500 22.145,36.500"/>
<polygon fill="#ff7f0e" fill-opacity="0.160" stroke="#ff7f0e" stroke-opacity="0.55" stroke-width="0.07" points="17.349,36.500 17.349,38.500 22.149,38.500 22.149,36.500"/>
<polygon fill="#ff7f0e" fill-opacity="0.160" stroke="#ff7f0e" stroke-opacity="0.55" stroke-width="0.07" points="17.682,36.713 17.870,38.705 22.649,38.255 22.461,36.263"/>
<polygon fill="#ff7f0e" fill-opacity="0.160" stroke="#ff7f0e" stroke-opacity="0.55" stroke-width="0.07" points="18.216,37.023 18.728,38.956 23.368,37.728 22.856,35.794"/>
<polygon fill="#ff7f0e" fill-opacity="0.160" stroke="#ff7f0e" stroke-opacity="0.55" stroke-width="0.07" points="18.824,37.250 19.662,39.066 24.020,37.054 23.182,35.238"/>
<polygon fill="#ff7f0e" fill-opacity="0.160" stroke="#ff7f0e" stroke-opacity="0.55" stroke-width="0.07" points="19.466,37.369 20.607,39.011 24.549,36.272 23.408,34.630"/>
<polygon fill="#ff7f0e" fill-opacity="0.160" stroke="#ff7f0e" stroke-opacity="0.55" stroke-width="0.07" points="20.120,37.374 21.530,38.792 24.935,35.409 23.525,33.990"/>
<polygon fill="#ff7f0e" fill-opacity="0.160" stroke="#ff7f0e" stroke-opacity="0.55" stroke-width="0.07" points="20.765,37.265 22.401,38.416 25.164,34.492 23.529,33.340"/>
<polygon fill="#ff7f0e" fill-opacity="0.160" stroke="#ff7f0e" stroke-opacity="0.55" stroke-width="0.07" points="21.382,37.045 23.193,37.894 25.230,33.548 23.419,32.699"/>
<polygon fill="#ff7f0e" fill-opacity="0.160" stroke="#ff7f0e" stroke-opacity="0.55" stroke-width="0.07" points="21.941,36.714 23.869,37.245 25.143,32.616 23.214,32.086"/>
<polygon fill="#ff7f0e" fill-opacity="0.160" stroke="#ff7f0e" stroke-opacity="0.55" stroke-width="0.07" points="22.413,36.279 24.400,36.499 24.929,31.728 22.942,31.508"/>
<polygon fill="#ff7f0e" fill-opacity="0.160" stroke="#ff7f0e" stroke-opacity="0.55" stroke-width="0.07" points="22.707,35.732 24.707,35.727 24.696,30.927 22.696,30.932"/>
<polygon fill="#ff7f0e" fill-opacity="0.160" stroke="#ff7f0e" stroke-opacity="0.55" stroke-width="0.07" points="22.705,35.057 24.705,35.052 24.694,30.252 22.694,30.257"/>
<polygon fill="#ff7f0e" fill-opacity="0.160" stroke="#ff7f0e" stroke-opacity="0.55" stroke-width="0.07" points="22.704,34.385 24.704,34.380 24.693,29.580 22.693,29.585"/>
<polygon fill="#ff7f0e" fill-opacity="0.160" stroke="#ff7f0e" stroke-opacity="0.55" stroke-width="0.07" points="22.702,33.768 24.702,33.764 24.691,28.964 22.691,28.968"/>
<polygon fill="#ff7f0e" fill-opacity="0.160" stroke="#ff7f0e" stroke-opacity="0.55" stroke-width="0.07" points="22.701,33.245 24.701,33.240 24.690,28.440 22.690,28.445"/>
<polygon fill="#ff7f0e" fill-opacity="0.160" stroke="#ff7f0e" stroke-opacity="0.55" stroke-width="0.07" points="22.700,32.808 24.700,32.803 24.689,28.003 22.689,28.008"/>
<polygon fill="#ff7f0e" fill-opacity="0.160" stroke="#ff7f0e" stroke-opacity="0.55" stroke-width="0.07" points="22.699,32.444 24.699,32.440 24.688,27.640 22.688,27.644"/>
<polygon fill="#ff7f0e" fill-opacity="0.160" stroke="#ff7f0e" stroke-opacity="0.55" stroke-width="0.07" points="22.698,32.121 24.698,32.116 24.687,27.316 22.687,27.321"/>
<polygon fill="#ff7f0e" fill-opacity="0.160" stroke="#ff7f0e" stroke-opacity="0.55" stroke-width="0.07" points="22.698,31.804 24.698,31.800 24.687,27.000 22.687,27.004"/>
<polygon fill="#ff7f0e" fill-opacity="0.160" stroke="#ff7f0e" stroke-opacity="0.55" stroke-width="0.07" points="22.697,31.489 24.697,31.484 24.686,26.684 22.686,26.689"/>
<polygon fill="#ff7f0e" fill-opacity="0.160" stroke="#ff7f0e" stroke-opacity="0.55" stroke-width="0.07" points="22.696,31.174 24.696,31.169 24.685,26.369 22.685,26.374"/>
<polygon fill="#ff7f0e" fill-opacity="0.160" stroke="#ff7f0e" stroke-opacity="0.55" stroke-width="0.07" points="22.696,30.859 24.696,30.854 24.685,26.054 22.685,26.059"/>
<polygon fill="#ff7f0e" fill-opacity="0.160" stroke="#ff7f0e" stroke-opacity="0.55" stroke-width="0.07" points="22.695,30.736 24.695,30.732 24.684,25.932 22.684,25.936"/>
<polygon fill="none" stroke="crimson" stroke-width="0.120" points="22.695,30.736 24.695,30.732 24.684,25.932 22.684,25.936"/>
</g>
</svg>
