<?xml version="1.0" encoding="UTF-8"?>
<svg xmlns="http://www.w3.org/2000/svg" width="1400" height="900" viewBox="0 -3 75 53">
<rect x="0" y="-3" width="75" height="53" fill="white"/>
<text x="1.5" y="-1.35" font-size="1.15" fill="black">Parking | target row=0 idx=3 | success=true sim_ok=true | max_steer=35 deg | overshoot~=5 m | total(ref)~=8e+01 m</text>
<text x="1.5" y="-0.45" font-size="0.95" fill="black">ok</text>
<g transform="translate(0,50.000) scale(1,-1)">
<rect x="0" y="0" width="75.000" height="50.000" fill="none" stroke="black" stroke-width="0.15"/>
<rect x="0.000" y="9.000" width="75.000" height="6.000" fill="#add8e6" fill-opacity="0.25" stroke="#add8e6" stroke-width="0.08"/>
<rect x="0.000" y="34.500" width="75.000" height="6.000" fill="#add8e6" fill-opacity="0.25" stroke="#add8e6" stroke-width="0.08"/>
<rect x="36.000" y="12.000" width="6.000" height="25.500" fill="#90ee90" fill-opacity="0.25" stroke="#90ee90" stroke-width="0.08"/>
<rect x="12.000" y="44.000" width="4.800" height="6.000" fill="white" stroke="gray" stroke-width="0.080" fill-opacity="0.85"/>
<rect x="16.800" y="44.000" width="4.800" height="6.000" fill="white" stroke="gray" stroke-width="0.080" fill-opacity="0.85"/>
<rect x="21.600" y="44.000" width="4.800" height="6.000" fill="white" stroke="gray" stroke-width="0.080" fill-opacity="0.85"/>
<rect x="26.400" y="44.000" width="4.800" height="6.000" fill="#98fb98" stroke="darkgreen" stroke-width="0.180" fill-opacity="0.85"/>
<rect x="31.200" y="44.000" width="4.800" height="6.000" fill="white" stroke="gray" stroke-width="0.080" fill-opacity="0.85"/>
<rect x="12.000" y="25.000" width="4.800" height="6.000" fill="white" stroke="gray" stroke-width="0.080" fill-opacity="0.85"/>
<rect x="16.800" y="25.000" width="4.800" height="6.000" fill="white" stroke="gray" stroke-width="0.080" fill-opacity="0.85"/>
<rect x="21.600" y="25.000" width="4.800" height="6.000" fill="white" stroke="gray" stroke-width="0.080" fill-opacity="0.85"/>
<rect x="26.400" y="25.000" width="4.800" height="6.000" fill="white" stroke="gray" stroke-width="0.080" fill-opacity="0.85"/>
<rect x="31.200" y="25.000" width="4.800" height="6.000" fill="white" stroke="gray" stroke-width="0.080" fill-opacity="0.85"/>
<rect x="12.000" y="19.000" width="4.800" height="6.000" fill="white" stroke="gray" stroke-width="0.080" fill-opacity="0.85"/>
<rect x="16.800" y="19.000" width="4.800" height="6.000" fill="white" stroke="gray" stroke-width="0.080" fill-opacity="0.85"/>
<rect x="21.600" y="19.000" width="4.800" height="6.000" fill="white" stroke="gray" stroke-width="0.080" fill-opacity="0.85"/>
<rect x="26.400" y="19.000" width="4.800" height="6.000" fill="white" stroke="gray" stroke-width="0.080" fill-opacity="0.85"/>
<rect x="31.200" y="19.000" width="4.800" height="6.000" fill="white" stroke="gray" stroke-width="0.080" fill-opacity="0.85"/>
<rect x="12.000" y="0.000" width="4.800" height="6.000" fill="white" stroke="gray" stroke-width="0.080" fill-opacity="0.85"/>
<rect x="16.800" y="0.000" width="4.800" height="6.000" fill="white" stroke="gray" stroke-width="0.080" fill-opacity="0.85"/>
<rect x="21.600" y="0.000" width="4.800" height="6.000" fill="white" stroke="gray" stroke-width="0.080" fill-opacity="0.85"/>
<rect x="26.400" y="0.000" width="4.800" height="6.000" fill="white" stroke="gray" stroke-width="0.080" fill-opacity="0.85"/>
<rect x="31.200" y="0.000" width="4.800" height="6.000" fill="white" stroke="gray" stroke-width="0.080" fill-opacity="0.85"/>
<polygon fill="none" stroke="navy" stroke-width="0.120" points="6.400,13.000 6.400,11.000 1.600,11.000 1.600,13.000"/>
<polygon fill="purple" points="31.020,37.500 31.300,37.850 31.580,37.500 31.300,37.150"/>
<circle cx="24.000" cy="37.500" r="0.38" fill="darkviolet" stroke="indigo" stroke-width="0.06"/>
<polyline fill="none" stroke="#808080" stroke-width="0.120" stroke-opacity="0.65" stroke-dasharray="0.45 0.35" points="4.000,12.000 4.000,12.120 34.124,12.120 34.307,12.124 34.491,12.137 34.673,12.159 34.854,12.190 35.033,12.229 35.210,12.276 35.385,12.332 35.557,12.396 35.726,12.468 35.891,12.549 36.052,12.637 36.209,12.732 36.361,12.835 36.508,12.945 36.649,13.062 36.785,13.185 36.915,13.315 37.038,13.451 37.155,13.592 37.265,13.739 37.368,13.891 37.463,14.048 37.551,14.209 37.632,14.374 37.704,14.543 37.768,14.715 37.824,14.890 37.871,15.067 37.910,15.246 37.941,15.427 37.963,15.609 37.976,15.793 37.980,15.976 37.980,34.294 37.975,34.480 37.958,34.666 37.931,34.850 37.894,35.033 37.845,35.213 37.787,35.390 37.718,35.564 37.639,35.733 37.550,35.897 37.453,36.056 37.346,36.208 37.230,36.355 37.106,36.494 36.974,36.626 36.835,36.750 36.688,36.866 36.536,36.973 36.377,37.070 36.213,37.159 36.044,37.238 35.870,37.307 35.693,37.365 35.513,37.414 35.330,37.451 35.146,37.478 34.960,37.495 34.774,37.500 31.300,37.500 24.000,37.500"/>
<polyline fill="none" stroke="#808080" stroke-width="0.120" stroke-opacity="0.65" stroke-dasharray="0.45 0.35" points="24.000,37.500 24.000,37.684 24.007,37.872 24.022,38.063 24.044,38.257 24.074,38.455 24.110,38.655 24.153,38.858 24.203,39.064 24.259,39.272 24.321,39.482 24.388,39.695 24.462,39.909 24.540,40.126 24.624,40.343 24.713,40.562 24.806,40.783 24.904,41.004 25.006,41.227 25.112,41.450 25.222,41.673 25.336,41.897 25.453,42.121 25.572,42.346 25.695,42.570 25.821,42.794 25.949,43.017 26.079,43.240 26.211,43.462 26.345,43.683 26.480,43.902 26.617,44.121 26.755,44.338 26.893,44.553 27.033,44.767 27.173,44.978 27.312,45.188 27.452,45.395 27.592,45.599 27.731,45.801 27.870,46.000 28.007,46.196 28.143,46.389 28.278,46.579 28.412,46.765 28.543,46.947 28.673,47.126 28.800,47.300"/>
<polyline fill="none" stroke="#1f77b4" stroke-width="0.220" stroke-opacity="0.95" points="4.008,12.000 4.022,12.000 4.043,12.000 4.070,12.000 4.102,12.000 4.138,12.000 4.179,12.001 4.223,12.001 4.270,12.002 4.321,12.003 4.374,12.003 4.429,12.005 4.487,12.006 4.547,12.007 4.609,12.009 4.672,12.011 4.736,12.013 4.802,12.015 4.869,12.017 4.937,12.019 5.006,12.022 5.076,12.024 5.146,12.027 5.218,12.030 5.290,12.033 5.362,12.036 5.435,12.039 5.508,12.041 5.582,12.044 5.656,12.047 5.731,12.050 5.806,12.053 5.881,12.056 5.956,12.059 6.031,12.062 6.107,12.065 6.183,12.068 6.259,12.070 6.335,12.073 6.411,12.076 6.488,12.078 6.564,12.081 6.641,12.083 6.718,12.085 6.795,12.088 6.871,12.090 6.948,12.092 7.025,12.094 7.102,12.096 7.179,12.098 7.257,12.100 7.334,12.101 7.411,12.103 7.488,12.104 7.565,12.106 7.643,12.107 7.720,12.109 7.797,12.110 7.875,12.111 7.952,12.112 8.029,12.113 8.107,12.114 8.184,12.115 8.262,12.116 8.339,12.117 8.416,12.118 8.494,12.119 8.571,12.119 8.649,12.120 8.726,12.120 8.804,12.121 8.881,12.121 8.958,12.122 9.036,12.122 9.113,12.122 9.191,12.123 9.268,12.123 9.346,12.123 9.423,12.124 9.501,12.124 9.578,12.124 9.656,12.124 9.733,12.124 9.811,12.124 9.888,12.124 9.966,12.124 10.043,12.124 10.121,12.124 10.198,12.124 10.276,12.124 10.353,12.124 10.431,12.124 10.508,12.124 10.586,12.124 10.663,12.124 10.741,12.124 10.818,12.124 10.896,12.124 10.973,12.124 11.051,12.124 11.128,12.124 11.206,12.123 11.283,12.123 11.361,12.123 11.438,12.123 11.516,12.123 11.593,12.123 11.671,12.123 11.748,12.123 11.826,12.123 11.903,12.122 11.981,12.122 12.058,12.122 12.136,12.122 12.213,12.122 12.291,12.122 12.368,12.122 12.446,12.122 12.523,12.122 12.601,12.121 12.678,12.121 12.756,12.121 12.833,12.121 12.911,12.121 12.988,12.121 13.066,12.121 13.143,12.121 13.221,12.121 13.298,12.121 13.376,12.121 13.453,12.121 13.531,12.121 13.608,12.121 13.686,12.120 13.763,12.120 13.841,12.120 13.918,12.120 13.996,12.120 14.073,12.120 14.151,12.120 14.228,12.120 14.306,12.120 14.383,12.120 14.461,12.120 14.538,12.120 14.616,12.120 14.693,12.120 14.771,12.120 14.848,12.120 14.926,12.120 15.003,12.120 15.081,12.120 15.158,12.120 15.236,12.120 15.313,12.120 15.391,12.120 15.468,12.120 15.546,12.120 15.623,12.120 15.701,12.120 15.778,12.120 15.856,12.120 15.933,12.120 16.011,12.120 16.088,12.120 16.166,12.120 16.243,12.120 16.321,12.120 16.398,12.120 16.476,12.120 16.553,12.120 16.631,12.120 16.708,12.120 16.786,12.120 16.863,12.120 16.941,12.120 17.018,12.120 17.096,12.120 17.173,12.120 17.251,12.120 17.328,12.120 17.406,12.120 17.483,12.120 17.561,12.120 17.638,12.120 17.716,12.120 17.793,12.120 17.871,12.120 17.948,12.120 18.026,12.120 18.103,12.120 18.181,12.120 18.258,12.120 18.336,12.120 18.413,12.120 18.491,12.120 18.568,12.120 18.646,12.120 18.723,12.120 18.801,12.120 18.878,12.120 18.956,12.120 19.033,12.120 19.111,12.120 19.188,12.120 19.266,12.120 19.343,12.120 19.421,12.120 19.498,12.120 19.576,12.120 19.653,12.120 19.731,12.120 19.808,12.120 19.886,12.120 19.963,12.120 20.041,12.120 20.118,12.120 20.196,12.120 20.273,12.120 20.351,12.120 20.428,12.120 20.506,12.120 20.583,12.120 20.661,12.120 20.738,12.120 20.816,12.120 20.893,12.120 20.971,12.120 21.048,12.120 21.126,12.120 21.203,12.120 21.281,12.120 21.358,12.120 21.436,12.120 21.513,12.120 21.591,12.120 21.668,12.120 21.746,12.120 21.823,12.120 21.901,12.120 21.978,12.120 22.056,12.120 22.133,12.120 22.211,12.120 22.288,12.120 22.366,12.120 22.443,12.120 22.521,12.120 22.598,12.120 22.676,12.120 22.753,12.120 22.831,12.120 22.908,12.120 22.986,12.120 23.063,12.120 23.141,12.120 23.218,12.120 23.296,12.120 23.373,12.120 23.451,12.120 23.528,12.120 23.606,12.120 23.683,12.120 23.761,12.120 23.838,12.120 23.916,12.120 23.993,12.120 24.071,12.120 24.148,12.120 24.226,12.120 24.303,12.120 24.381,12.120 24.458,12.120 24.536,12.120 24.613,12.120 24.691,12.120 24.768,12.120 24.846,12.120 24.923,12.120 25.001,12.120 25.078,12.120 25.156,12.120 25.233,12.120 25.311,12.120 25.388,12.120 25.466,12.120 25.543,12.120 25.621,12.120 25.698,12.120 25.776,12.120 25.853,12.120 25.931,12.120 26.008,12.120 26.086,12.120 26.163,12.120 26.241,12.120 26.318,12.120 26.396,12.120 26.473,12.120 26.551,12.120 26.628,12.120 26.706,12.120 26.783,12.120 26.861,12.120 26.938,12.120 27.016,12.120 27.093,12.120 27.171,12.120 27.248,12.120 27.326,12.120 27.403,12.120 27.481,12.120 27.558,12.120 27.636,12.120 27.713,12.120 27.791,12.120 27.868,12.120 27.946,12.120 28.023,12.120 28.101,12.120 28.178,12.120 28.256,12.120 28.333,12.120 28.411,12.120 28.488,12.120 28.566,12.120 28.643,12.120 28.721,12.120 28.798,12.120 28.876,12.120 28.953,12.120 29.031,12.120 29.108,12.120 29.186,12.120 29.263,12.120 29.341,12.120 29.418,12.120 29.496,12.120 29.573,12.120 29.651,12.120 29.728,12.120 29.806,12.120 29.883,12.120 29.961,12.120 30.038,12.120 30.116,12.120 30.193,12.120 30.271,12.120 30.348,12.120 30.426,12.120 30.503,12.120 30.581,12.120 30.658,12.120 30.736,12.120 30.813,12.120 30.891,12.120 30.968,12.120 31.046,12.120 31.123,12.120 31.201,12.120 31.278,12.120 31.356,12.120 31.433,12.120 31.511,12.120 31.588,12.120 31.666,12.120 31.743,12.120 31.821,12.120 31.898,12.120 31.976,12.120 32.053,12.120 32.131,12.120 32.208,12.120 32.286,12.120 32.363,12.120 32.441,12.120 32.518,12.120 32.596,12.120 32.673,12.120 32.751,12.120 32.828,12.121 32.906,12.121 32.983,12.122 33.061,12.122 33.138,12.123 33.216,12.124 33.293,12.126 33.371,12.128 33.448,12.130 33.526,12.132 33.603,12.136 33.680,12.139 33.758,12.143 33.835,12.148 33.912,12.153 33.990,12.159 34.067,12.166 34.144,12.173 34.221,12.182 34.298,12.191 34.375,12.200 34.452,12.211 34.528,12.223 34.605,12.236 34.681,12.249 34.757,12.264 34.833,12.280 34.909,12.297 34.984,12.315 35.059,12.334 35.134,12.354 35.208,12.376 35.282,12.399 35.356,12.423 35.429,12.448 35.502,12.475 35.574,12.503 35.646,12.532 35.717,12.563 35.788,12.595 35.858,12.628 35.927,12.662 35.996,12.698 36.064,12.735 36.131,12.774 36.198,12.814 36.264,12.855 36.328,12.897 36.392,12.941 36.456,12.986 36.518,13.032 36.579,13.079 36.639,13.128 36.699,13.178 36.757,13.229 36.814,13.281 36.871,13.334 36.926,13.389 36.980,13.444 37.033,13.501 37.085,13.559 37.135,13.617 37.185,13.677 37.233,13.738 37.280,13.799 37.325,13.862 37.370,13.926 37.413,13.990 37.455,14.055 37.495,14.121 37.535,14.188 37.573,14.256 37.609,14.324 37.644,14.393 37.678,14.463 37.710,14.533 37.741,14.604 37.770,14.676 37.798,14.748 37.825,14.821 37.850,14.895 37.874,14.968 37.896,15.043 37.916,15.117 37.936,15.192 37.954,15.268 37.970,15.344 37.985,15.419 37.999,15.496 38.012,15.572 38.024,15.649 38.035,15.726 38.044,15.802 38.053,15.879 38.061,15.957 38.068,16.034 38.074,16.111 38.079,16.188 38.083,16.266 38.087,16.343 38.090,16.421 38.093,16.498 38.095,16.575 38.096,16.653 38.097,16.730 38.098,16.808 38.098,16.885 38.097,16.963 38.097,17.040 38.096,17.118 38.094,17.195 38.093,17.273 38.091,17.350 38.089,17.428 38.087,17.505 38.084,17.583 38.082,17.660 38.079,17.738 38.076,17.815 38.074,17.893 38.071,17.970 38.068,18.047 38.065,18.125 38.062,18.202 38.058,18.280 38.055,18.357 38.052,18.435 38.049,18.512 38.046,18.590 38.043,18.667 38.040,18.744 38.037,18.822 38.034,18.899 38.032,18.977 38.029,19.054 38.026,19.132 38.023,19.209 38.021,19.287 38.018,19.364 38.016,19.442 38.014,19.519 38.011,19.596 38.009,19.674 38.007,19.751 38.005,19.829 38.003,19.906 38.001,19.984 37.999,20.061 37.998,20.139 37.996,20.216 37.995,20.294 37.993,20.371 37.992,20.449 37.990,20.526 37.989,20.604 37.988,20.681 37.987,20.759 37.986,20.836 37.985,20.914 37.984,20.991 37.983,21.069 37.982,21.146 37.982,21.224 37.981,21.301 37.980,21.379 37.980,21.456 37.979,21.534 37.979,21.611 37.978,21.689 37.978,21.766 37.977,21.844 37.977,21.921 37.977,21.999 37.977,22.076 37.976,22.154 37.976,22.231 37.976,22.309 37.976,22.386 37.976,22.464 37.976,22.541 37.976,22.619 37.976,22.696 37.976,22.774 37.975,22.851 37.975,22.929 37.976,23.006 37.976,23.084 37.976,23.161 37.976,23.239 37.976,23.316 37.976,23.394 37.976,23.471 37.976,23.549 37.976,23.626 37.976,23.704 37.976,23.781 37.976,23.859 37.976,23.936 37.977,24.014 37.977,24.091 37.977,24.169 37.977,24.246 37.977,24.324 37.977,24.401 37.977,24.479 37.977,24.556 37.977,24.634 37.978,24.711 37.978,24.789 37.978,24.866 37.978,24.944 37.978,25.021 37.978,25.099 37.978,25.176 37.978,25.254 37.978,25.331 37.979,25.409 37.979,25.486 37.979,25.564 37.979,25.641 37.979,25.719 37.979,25.796 37.979,25.874 37.979,25.951 37.979,26.029 37.979,26.106 37.979,26.184 37.979,26.261 37.979,26.339 37.980,26.416 37.980,26.494 37.980,26.571 37.980,26.649 37.980,26.726 37.980,26.804 37.980,26.881 37.980,26.959 37.980,27.036 37.980,27.114 37.980,27.191 37.980,27.269 37.980,27.346 37.980,27.424 37.980,27.501 37.980,27.579 37.980,27.656 37.980,27.734 37.980,27.811 37.980,27.889 37.980,27.966 37.980,28.044 37.980,28.121 37.980,28.199 37.980,28.276 37.980,28.354 37.980,28.431 37.980,28.509 37.980,28.586 37.980,28.664 37.980,28.741 37.980,28.819 37.980,28.896 37.980,28.974 37.980,29.051 37.980,29.129 37.980,29.206 37.980,29.284 37.980,29.361 37.980,29.439 37.980,29.516 37.980,29.594 37.980,29.671 37.980,29.749 37.980,29.826 37.980,29.904 37.980,29.981 37.980,30.059 37.980,30.136 37.980,30.214 37.980,30.291 37.980,30.369 37.980,30.446 37.980,30.524 37.980,30.601 37.980,30.679 37.980,30.756 37.980,30.834 37.980,30.911 37.980,30.989 37.980,31.066 37.980,31.144 37.980,31.221 37.980,31.299 37.980,31.376 37.980,31.454 37.980,31.531 37.980,31.609 37.980,31.686 37.980,31.764 37.980,31.841 37.980,31.919 37.980,31.996 37.980,32.074 37.980,32.151 37.980,32.229 37.980,32.306 37.980,32.384 37.980,32.461 37.980,32.539 37.980,32.616 37.980,32.694 37.980,32.771 37.980,32.849 37.980,32.926 37.979,33.004 37.979,33.081 37.978,33.159 37.977,33.236 37.976,33.314 37.975,33.391 37.973,33.469 37.971,33.546 37.968,33.624 37.965,33.701 37.961,33.778 37.957,33.856 37.952,33.933 37.946,34.010 37.940,34.088 37.933,34.165 37.925,34.242 37.916,34.319 37.906,34.396 37.895,34.472 37.883,34.549 37.870,34.625 37.856,34.702 37.841,34.778 37.824,34.853 37.806,34.929 37.787,35.004 37.766,35.078 37.744,35.153 37.721,35.227 37.696,35.300 37.670,35.373 37.643,35.446 37.613,35.517 37.583,35.589 37.551,35.659 37.518,35.729 37.483,35.799 37.447,35.867 37.409,35.935 37.371,36.002 37.330,36.068 37.289,36.134 37.246,36.198 37.202,36.262 37.157,36.325 37.110,36.387 37.062,36.448 37.013,36.508 36.963,36.567 36.912,36.625 36.859,36.682 36.805,36.738 36.750,36.792 36.694,36.846 36.637,36.898 36.579,36.950 36.520,37.000 36.460,37.049 36.399,37.097 36.337,37.143 36.274,37.189 36.211,37.233 36.146,37.275 36.080,37.317 36.014,37.357 35.947,37.395 35.879,37.433 35.810,37.469 35.741,37.504 35.671,37.537 35.600,37.569 35.529,37.599 35.457,37.628 35.385,37.655 35.312,37.681 35.238,37.706 35.164,37.729 35.090,37.751 35.015,37.771 34.940,37.789 34.864,37.806 34.788,37.822 34.712,37.836 34.636,37.848 34.559,37.859 34.482,37.869 34.405,37.877 34.328,37.883 34.250,37.888 34.173,37.891 34.095,37.892 34.018,37.893 33.940,37.892 33.863,37.890 33.785,37.886 33.708,37.882 33.631,37.877 33.553,37.871 33.476,37.864 33.399,37.856 33.322,37.848 33.245,37.839 33.168,37.831 33.091,37.821 33.014,37.812 32.937,37.802 32.860,37.792 32.784,37.781 32.707,37.771 32.630,37.761 32.553,37.750 32.476,37.740 32.400,37.729 32.323,37.719 32.246,37.709 32.169,37.699 32.092,37.689 32.015,37.679 31.938,37.670 31.862,37.661 31.785,37.651 31.708,37.643 31.631,37.634 31.553,37.626 31.476,37.618 31.399,37.610 31.322,37.602 31.245,37.595 31.168,37.588 31.091,37.581 31.013,37.575 30.936,37.569 30.859,37.563 30.782,37.557 30.704,37.552 30.627,37.547 30.550,37.542 30.472,37.537 30.395,37.533 30.317,37.529 30.240,37.525 30.163,37.521 30.085,37.518 30.008,37.515 29.930,37.512 29.853,37.509 29.775,37.506 29.698,37.504 29.620,37.502 29.543,37.500 29.466,37.498 29.388,37.496 29.311,37.495 29.233,37.493 29.156,37.492 29.078,37.491 29.001,37.490 28.923,37.489 28.846,37.488 28.768,37.487 28.691,37.487 28.613,37.486 28.536,37.486 28.458,37.485 28.381,37.485 28.303,37.485 28.226,37.485 28.148,37.485 28.071,37.485 27.993,37.485 27.916,37.485 27.838,37.485 27.761,37.485 27.685,37.485 27.609,37.485 27.533,37.486 27.458,37.486 27.384,37.486 27.311,37.487 27.239,37.487 27.168,37.487 27.097,37.488 27.028,37.488 26.960,37.489 26.893,37.489 26.827,37.489 26.762,37.490 26.698,37.490 26.635,37.491 26.574,37.491 26.514,37.491 26.455,37.492 26.397,37.492 26.340,37.493 26.284,37.493 26.229,37.493 26.176,37.494 26.124,37.494 26.073,37.494 26.023,37.495 25.974,37.495 25.926,37.495 25.879,37.495 25.833,37.496 25.788,37.496 25.745,37.496 25.702,37.496 25.660,37.497 25.619,37.497 25.579,37.497 25.540,37.497 25.502,37.497 25.465,37.498 25.429,37.498 25.394,37.498 25.359,37.498 25.325,37.498 25.292,37.498 25.260,37.498 25.229,37.499 25.198,37.499 25.168,37.499 25.139,37.499 25.111,37.499 25.083,37.499 25.056,37.499 25.029,37.499 25.004,37.499 24.978,37.499 24.954,37.499 24.930,37.499 24.907,37.499 24.884,37.499 24.862,37.499 24.840,37.500 24.819,37.500 24.798,37.500 24.777,37.500 24.757,37.500 24.737,37.500 24.717,37.500 24.698,37.500 24.678,37.500 24.659,37.500 24.640,37.500 24.621,37.500 24.603,37.500 24.584,37.500 24.566,37.500 24.547,37.500"/>
<polyline fill="none" stroke="#ff7f0e" stroke-width="0.220" stroke-opacity="0.95" points="24.551,37.500 24.558,37.500 24.568,37.500 24.581,37.500 24.596,37.500 24.614,37.500 24.634,37.500 24.655,37.500 24.678,37.501 24.702,37.501 24.728,37.502 24.755,37.502 24.783,37.504 24.812,37.505 24.842,37.506 24.872,37.508 24.903,37.510 24.935,37.513 24.967,37.516 25.000,37.519 25.033,37.522 25.067,37.526 25.101,37.530 25.135,37.534 25.170,37.539 25.204,37.544 25.239,37.550 25.274,37.555 25.309,37.562 25.345,37.568 25.380,37.575 25.416,37.582 25.451,37.590 25.487,37.598 25.522,37.606 25.558,37.615 25.594,37.624 25.629,37.633 25.665,37.643 25.700,37.653 25.736,37.664 25.771,37.674 25.807,37.686 25.842,37.697 25.877,37.709 25.912,37.721 25.947,37.734 25.982,37.747 26.017,37.760 26.052,37.774 26.086,37.788 26.121,37.802 26.155,37.816 26.189,37.831 26.224,37.847 26.258,37.862 26.291,37.878 26.325,37.895 26.359,37.911 26.392,37.928 26.425,37.946 26.458,37.963 26.491,37.981 26.524,37.999 26.556,38.018 26.589,38.037 26.621,38.056 26.653,38.076 26.685,38.096 26.716,38.116 26.748,38.136 26.779,38.157 26.810,38.178 26.841,38.199 26.871,38.221 26.902,38.243 26.932,38.265 26.962,38.288 26.991,38.311 27.021,38.334 27.050,38.357 27.079,38.381 27.108,38.405 27.137,38.429 27.165,38.454 27.193,38.479 27.221,38.504 27.249,38.529 27.276,38.555 27.303,38.580 27.330,38.607 27.357,38.633 27.383,38.660 27.409,38.687 27.435,38.714 27.460,38.741 27.486,38.769 27.511,38.797 27.535,38.825 27.560,38.853 27.584,38.882 27.608,38.911 27.632,38.940 27.655,38.969 27.678,38.999 27.701,39.029 27.723,39.059 27.746,39.089 27.768,39.119 27.789,39.150 27.810,39.181 27.831,39.212 27.852,39.243 27.873,39.275 27.893,39.306 27.912,39.338 27.932,39.370 27.951,39.402 27.970,39.435 27.988,39.467 28.007,39.500 28.025,39.533 28.042,39.566 28.059,39.600 28.076,39.633 28.093,39.667 28.109,39.701 28.125,39.734 28.141,39.769 28.156,39.803 28.171,39.837 28.186,39.872 28.200,39.906 28.214,39.941 28.227,39.976 28.241,40.011 28.254,40.046 28.266,40.082 28.278,40.117 28.290,40.153 28.302,40.188 28.313,40.224 28.324,40.260 28.334,40.296 28.344,40.332 28.354,40.368 28.364,40.405 28.373,40.441 28.381,40.478 28.390,40.514 28.398,40.551 28.406,40.588 28.413,40.624 28.420,40.661 28.427,40.698 28.433,40.735 28.439,40.772 28.444,40.809 28.450,40.846 28.455,40.883 28.459,40.921 28.463,40.958 28.467,40.995 28.471,41.033 28.474,41.070 28.477,41.107 28.480,41.145 28.482,41.182 28.484,41.220 28.485,41.257 28.486,41.295 28.487,41.332 28.488,41.370 28.488,41.407 28.488,41.445 28.488,41.482 28.488,41.520 28.488,41.557 28.488,41.594 28.487,41.632 28.487,41.669 28.487,41.707 28.486,41.744 28.486,41.782 28.485,41.819 28.485,41.857 28.485,41.894 28.484,41.932 28.484,41.969 28.483,42.007 28.483,42.044 28.483,42.082 28.482,42.119 28.482,42.157 28.481,42.194 28.481,42.232 28.481,42.269 28.480,42.307 28.480,42.344 28.479,42.382 28.479,42.419 28.479,42.457 28.478,42.494 28.478,42.532 28.477,42.569 28.477,42.607 28.477,42.644 28.476,42.682 28.476,42.719 28.475,42.757 28.475,42.794 28.475,42.832 28.474,42.869 28.474,42.907 28.474,42.944 28.473,42.982 28.473,43.019 28.472,43.057 28.472,43.094 28.472,43.132 28.471,43.169 28.471,43.207 28.470,43.244 28.470,43.282 28.470,43.319 28.469,43.357 28.469,43.394 28.468,43.432 28.468,43.469 28.468,43.506 28.467,43.543 28.467,43.580 28.466,43.617 28.466,43.653 28.466,43.689 28.465,43.725 28.465,43.761 28.465,43.797 28.464,43.832 28.464,43.867 28.463,43.902 28.463,43.936 28.463,43.971 28.462,44.004 28.462,44.038 28.462,44.071 28.461,44.104 28.461,44.137 28.461,44.170 28.460,44.202 28.460,44.234 28.460,44.265 28.459,44.297 28.459,44.328 28.459,44.358 28.458,44.389 28.458,44.419 28.458,44.449 28.457,44.478 28.457,44.507 28.457,44.536 28.456,44.565 28.456,44.593 28.456,44.622 28.456,44.649 28.455,44.677 28.455,44.704 28.455,44.731 28.454,44.758 28.454,44.784 28.454,44.811 28.454,44.836 28.453,44.862 28.453,44.888 28.453,44.913 28.453,44.938 28.452,44.962 28.452,44.987 28.452,45.011 28.452,45.035 28.451,45.058 28.451,45.082 28.451,45.105 28.451,45.128 28.450,45.151 28.450,45.173 28.450,45.195 28.450,45.218 28.449,45.239 28.449,45.261 28.449,45.282 28.449,45.303 28.449,45.324 28.448,45.345 28.448,45.366 28.448,45.386 28.448,45.406 28.447,45.426 28.447,45.446 28.447,45.465 28.447,45.484 28.447,45.504 28.446,45.522 28.446,45.541 28.446,45.560 28.446,45.579 28.446,45.597 28.445,45.615 28.445,45.634 28.445,45.652 28.445,45.670 28.445,45.688 28.444,45.706 28.444,45.724 28.444,45.742 28.444,45.760 28.444,45.778 28.444,45.795 28.443,45.813 28.443,45.831 28.443,45.849 28.443,45.866 28.443,45.884 28.442,45.902 28.442,45.919 28.442,45.937 28.442,45.955 28.442,45.972 28.442,45.990 28.441,46.007 28.441,46.025 28.441,46.042 28.441,46.060 28.441,46.078 28.440,46.095 28.440,46.113 28.440,46.130 28.440,46.148 28.440,46.165 28.439,46.183 28.439,46.200 28.439,46.218 28.439,46.235 28.439,46.253 28.439,46.270 28.438,46.288 28.438,46.305 28.438,46.323 28.438,46.340 28.438,46.358 28.437,46.375 28.437,46.393 28.437,46.410 28.437,46.428 28.437,46.445 28.437,46.463 28.436,46.480 28.436,46.498 28.436,46.515 28.436,46.533 28.436,46.550 28.435,46.568 28.435,46.586 28.435,46.603 28.435,46.621 28.435,46.638 28.435,46.656 28.434,46.673 28.434,46.691 28.434,46.708 28.434,46.726 28.434,46.743 28.433,46.761 28.433,46.778 28.433,46.796 28.433,46.813 28.433,46.831 28.432,46.848 28.432,46.866 28.432,46.883 28.432,46.901 28.432,46.918 28.432,46.936 28.431,46.953 28.431,46.971 28.431,46.988 28.431,47.005 28.431,47.023 28.430,47.040 28.430,47.058 28.430,47.075 28.430,47.093 28.430,47.110 28.430,47.128 28.429,47.145 28.429,47.163 28.429,47.180 28.429,47.198 28.429,47.215 28.428,47.233 28.428,47.250"/>
<polygon fill="#1f77b4" fill-opacity="0.140" stroke="#1f77b4" stroke-opacity="0.55" stroke-width="0.07" points="6.408,13.000 6.408,11.000 1.608,11.000 1.608,13.000"/>
<polygon fill="#1f77b4" fill-opacity="0.140" stroke="#1f77b4" stroke-opacity="0.55" stroke-width="0.07" points="7.232,13.100 7.303,11.102 2.506,10.934 2.435,12.932"/>
<polygon fill="#1f77b4" fill-opacity="0.140" stroke="#1f77b4" stroke-opacity="0.55" stroke-width="0.07" points="8.546,13.153 8.617,11.154 3.820,10.982 3.749,12.981"/>
<polygon fill="#1f77b4" fill-opacity="0.140" stroke="#1f77b4" stroke-opacity="0.55" stroke-width="0.07" points="9.947,13.150 9.983,11.150 5.184,11.062 5.147,13.062"/>
<polygon fill="#1f77b4" fill-opacity="0.140" stroke="#1f77b4" stroke-opacity="0.55" stroke-width="0.07" points="11.353,13.134 11.363,11.134 6.564,11.110 6.553,13.110"/>
<polygon fill="#1f77b4" fill-opacity="0.140" stroke="#1f77b4" stroke-opacity="0.55" stroke-width="0.07" points="12.754,13.123 12.753,11.123 7.953,11.126 7.954,13.126"/>
<polygon fill="#1f77b4" fill-opacity="0.140" stroke="#1f77b4" stroke-opacity="0.55" stroke-width="0.07" points="14.150,13.119 14.147,11.119 9.347,11.126 9.350,13.126"/>
<polygon fill="#1f77b4" fill-opacity="0.140" stroke="#1f77b4" stroke-opacity="0.55" stroke-width="0.07" points="15.544,13.119 15.542,11.119 10.742,11.123 10.744,13.123"/>
<polygon fill="#1f77b4" fill-opacity="0.140" stroke="#1f77b4" stroke-opacity="0.55" stroke-width="0.07" points="16.938,13.119 16.938,11.119 12.138,11.121 12.138,13.121"/>
<polygon fill="#1f77b4" fill-opacity="0.140" stroke="#1f77b4" stroke-opacity="0.55" stroke-width="0.07" points="18.333,13.120 18.333,11.120 13.533,11.120 13.533,13.120"/>
<polygon fill="#1f77b4" fill-opacity="0.140" stroke="#1f77b4" stroke-opacity="0.55" stroke-width="0.07" points="19.728,13.120 19.728,11.120 14.928,11.120 14.928,13.120"/>
<polygon fill="#1f77b4" fill-opacity="0.140" stroke="#1f77b4" stroke-opacity="0.55" stroke-width="0.07" points="21.123,13.120 21.123,11.120 16.323,11.120 16.323,13.120"/>
<polygon fill="#1f77b4" fill-opacity="0.140" stroke="#1f77b4" stroke-opacity="0.55" stroke-width="0.07" points="22.518,13.120 22.518,11.120 17.718,11.120 17.718,13.120"/>
<polygon fill="#1f77b4" fill-opacity="0.140" stroke="#1f77b4" stroke-opacity="0.55" stroke-width="0.07" points="23.913,13.120 23.913,11.120 19.113,11.120 19.113,13.120"/>
<polygon fill="#1f77b4" fill-opacity="0.140" stroke="#1f77b4" stroke-opacity="0.55" stroke-width="0.07" points="25.308,13.120 25.308,11.120 20.508,11.120 20.508,13.120"/>
<polygon fill="#1f77b4" fill-opacity="0.140" stroke="#1f77b4" stroke-opacity="0.55" stroke-width="0.07" points="26.703,13.120 26.703,11.120 21.903,11.120 21.903,13.120"/>
<polygon fill="#1f77b4" fill-opacity="0.140" stroke="#1f77b4" stroke-opacity="0.55" stroke-width="0.07" points="28.098,13.120 28.098,11.120 23.298,11.120 23.298,13.120"/>
<polygon fill="#1f77b4" fill-opacity="0.140" stroke="#1f77b4" stroke-opacity="0.55" stroke-width="0.07" points="29.493,13.120 29.493,11.120 24.693,11.120 24.693,13.120"/>
<polygon fill="#1f77b4" fill-opacity="0.140" stroke="#1f77b4" stroke-opacity="0.55" stroke-width="0.07" points="30.888,13.120 30.888,11.120 26.088,11.120 26.088,13.120"/>
<polygon fill="#1f77b4" fill-opacity="0.140" stroke="#1f77b4" stroke-opacity="0.55" stroke-width="0.07" points="32.283,13.120 32.283,11.120 27.483,11.120 27.483,13.120"/>
<polygon fill="#1f77b4" fill-opacity="0.140" stroke="#1f77b4" stroke-opacity="0.55" stroke-width="0.07" points="33.678,13.120 33.678,11.120 28.878,11.120 28.878,13.120"/>
<polygon fill="#1f77b4" fill-opacity="0.140" stroke="#1f77b4" stroke-opacity="0.55" stroke-width="0.07" points="35.071,13.125 35.075,11.125 30.275,11.116 30.271,13.116"/>
<polygon fill="#1f77b4" fill-opacity="0.140" stroke="#1f77b4" stroke-opacity="0.55" stroke-width="0.07" points="36.359,13.393 36.552,11.402 31.775,10.939 31.582,12.930"/>
<polygon fill="#1f77b4" fill-opacity="0.140" stroke="#1f77b4" stroke-opacity="0.55" stroke-width="0.07" points="37.339,14.213 38.027,12.335 33.520,10.684 32.832,12.562"/>
<polygon fill="#1f77b4" fill-opacity="0.140" stroke="#1f77b4" stroke-opacity="0.55" stroke-width="0.07" points="37.834,15.437 39.120,13.906 35.445,10.819 34.159,12.350"/>
<polygon fill="#1f77b4" fill-opacity="0.140" stroke="#1f77b4" stroke-opacity="0.55" stroke-width="0.07" points="37.835,16.771 39.580,15.794 37.235,11.605 35.490,12.582"/>
<polygon fill="#1f77b4" fill-opacity="0.140" stroke="#1f77b4" stroke-opacity="0.55" stroke-width="0.07" points="37.412,18.028 39.384,17.696 38.587,12.963 36.615,13.295"/>
<polygon fill="#1f77b4" fill-opacity="0.140" stroke="#1f77b4" stroke-opacity="0.55" stroke-width="0.07" points="37.088,19.281 39.088,19.289 39.107,14.489 37.107,14.481"/>
<polygon fill="#1f77b4" fill-opacity="0.140" stroke="#1f77b4" stroke-opacity="0.55" stroke-width="0.07" points="36.963,20.638 38.962,20.718 39.153,15.922 37.155,15.842"/>
<polygon fill="#1f77b4" fill-opacity="0.140" stroke="#1f77b4" stroke-opacity="0.55" stroke-width="0.07" points="36.944,22.046 38.944,22.100 39.074,17.302 37.075,17.248"/>
<polygon fill="#1f77b4" fill-opacity="0.140" stroke="#1f77b4" stroke-opacity="0.55" stroke-width="0.07" points="36.959,23.458 38.958,23.479 39.008,18.679 37.008,18.659"/>
<polygon fill="#1f77b4" fill-opacity="0.140" stroke="#1f77b4" stroke-opacity="0.55" stroke-width="0.07" points="36.973,24.862 38.973,24.865 38.979,20.065 36.979,20.062"/>
<polygon fill="#1f77b4" fill-opacity="0.140" stroke="#1f77b4" stroke-opacity="0.55" stroke-width="0.07" points="36.980,26.260 38.980,26.257 38.973,21.457 36.973,21.460"/>
<polygon fill="#1f77b4" fill-opacity="0.140" stroke="#1f77b4" stroke-opacity="0.55" stroke-width="0.07" points="36.981,27.655 38.981,27.652 38.975,22.852 36.975,22.855"/>
<polygon fill="#1f77b4" fill-opacity="0.140" stroke="#1f77b4" stroke-opacity="0.55" stroke-width="0.07" points="36.981,29.049 38.981,29.048 38.978,24.248 36.978,24.249"/>
<polygon fill="#1f77b4" fill-opacity="0.140" stroke="#1f77b4" stroke-opacity="0.55" stroke-width="0.07" points="36.980,30.444 38.980,30.444 38.980,25.644 36.980,25.644"/>
<polygon fill="#1f77b4" fill-opacity="0.140" stroke="#1f77b4" stroke-opacity="0.55" stroke-width="0.07" points="36.980,31.839 38.980,31.839 38.980,27.039 36.980,27.039"/>
<polygon fill="#1f77b4" fill-opacity="0.140" stroke="#1f77b4" stroke-opacity="0.55" stroke-width="0.07" points="36.980,33.234 38.980,33.234 38.980,28.434 36.980,28.434"/>
<polygon fill="#1f77b4" fill-opacity="0.140" stroke="#1f77b4" stroke-opacity="0.55" stroke-width="0.07" points="36.980,34.629 38.980,34.629 38.980,29.829 36.980,29.829"/>
<polygon fill="#1f77b4" fill-opacity="0.140" stroke="#1f77b4" stroke-opacity="0.55" stroke-width="0.07" points="36.872,35.981 38.871,36.062 39.063,31.266 37.065,31.185"/>
<polygon fill="#1f77b4" fill-opacity="0.140" stroke="#1f77b4" stroke-opacity="0.55" stroke-width="0.07" points="36.188,37.054 38.116,37.583 39.386,32.954 37.457,32.425"/>
<polygon fill="#1f77b4" fill-opacity="0.140" stroke="#1f77b4" stroke-opacity="0.55" stroke-width="0.07" points="34.987,37.623 36.608,38.793 39.418,34.902 37.796,33.731"/>
<polygon fill="#1f77b4" fill-opacity="0.140" stroke="#1f77b4" stroke-opacity="0.55" stroke-width="0.07" points="33.657,37.721 34.759,39.390 38.764,36.744 37.662,35.075"/>
<polygon fill="#1f77b4" fill-opacity="0.140" stroke="#1f77b4" stroke-opacity="0.55" stroke-width="0.07" points="32.378,37.342 32.819,39.293 37.501,38.236 37.061,36.285"/>
<polygon fill="#1f77b4" fill-opacity="0.140" stroke="#1f77b4" stroke-opacity="0.55" stroke-width="0.07" points="31.252,36.661 31.074,38.654 35.855,39.080 36.033,37.088"/>
<polygon fill="#1f77b4" fill-opacity="0.140" stroke="#1f77b4" stroke-opacity="0.55" stroke-width="0.07" points="29.916,36.402 29.661,38.385 34.422,38.996 34.677,37.012"/>
<polygon fill="#1f77b4" fill-opacity="0.140" stroke="#1f77b4" stroke-opacity="0.55" stroke-width="0.07" points="28.457,36.393 28.318,38.389 33.107,38.721 33.245,36.726"/>
<polygon fill="#1f77b4" fill-opacity="0.140" stroke="#1f77b4" stroke-opacity="0.55" stroke-width="0.07" points="27.009,36.448 26.968,38.447 31.767,38.545 31.808,36.545"/>
<polygon fill="#1f77b4" fill-opacity="0.140" stroke="#1f77b4" stroke-opacity="0.55" stroke-width="0.07" points="25.592,36.487 25.594,38.487 30.394,38.482 30.392,36.482"/>
<polygon fill="#1f77b4" fill-opacity="0.140" stroke="#1f77b4" stroke-opacity="0.55" stroke-width="0.07" points="24.291,36.506 24.305,38.506 29.105,38.474 29.091,36.474"/>
<polygon fill="#1f77b4" fill-opacity="0.140" stroke="#1f77b4" stroke-opacity="0.55" stroke-width="0.07" points="23.339,36.509 23.350,38.509 28.150,38.483 28.139,36.483"/>
<polygon fill="#1f77b4" fill-opacity="0.140" stroke="#1f77b4" stroke-opacity="0.55" stroke-width="0.07" points="22.708,36.506 22.714,38.506 27.514,38.492 27.508,36.492"/>
<polygon fill="#1f77b4" fill-opacity="0.140" stroke="#1f77b4" stroke-opacity="0.55" stroke-width="0.07" points="22.296,36.503 22.299,38.503 27.099,38.497 27.096,36.497"/>
<polygon fill="#1f77b4" fill-opacity="0.140" stroke="#1f77b4" stroke-opacity="0.55" stroke-width="0.07" points="22.146,36.502 22.148,38.502 26.948,38.498 26.946,36.498"/>
<polygon fill="#ff7f0e" fill-opacity="0.160" stroke="#ff7f0e" stroke-opacity="0.55" stroke-width="0.07" points="22.150,36.501 22.152,38.501 26.952,38.498 26.950,36.498"/>
<polygon fill="#ff7f0e" fill-opacity="0.160" stroke="#ff7f0e" stroke-opacity="0.55" stroke-width="0.07" points="22.671,36.297 22.485,38.288 27.264,38.735 27.450,36.743"/>
<polygon fill="#ff7f0e" fill-opacity="0.160" stroke="#ff7f0e" stroke-opacity="0.55" stroke-width="0.07" points="23.528,36.044 23.018,37.978 27.659,39.203 28.169,37.270"/>
<polygon fill="#ff7f0e" fill-opacity="0.160" stroke="#ff7f0e" stroke-opacity="0.55" stroke-width="0.07" points="24.462,35.934 23.625,37.751 27.985,39.759 28.822,37.943"/>
<polygon fill="#ff7f0e" fill-opacity="0.160" stroke="#ff7f0e" stroke-opacity="0.55" stroke-width="0.07" points="25.408,35.988 24.268,37.631 28.212,40.368 29.352,38.725"/>
<polygon fill="#ff7f0e" fill-opacity="0.160" stroke="#ff7f0e" stroke-opacity="0.55" stroke-width="0.07" points="26.331,36.206 24.922,37.626 28.329,41.007 29.738,39.587"/>
<polygon fill="#ff7f0e" fill-opacity="0.160" stroke="#ff7f0e" stroke-opacity="0.55" stroke-width="0.07" points="27.202,36.582 25.567,37.734 28.333,41.657 29.968,40.505"/>
<polygon fill="#ff7f0e" fill-opacity="0.160" stroke="#ff7f0e" stroke-opacity="0.55" stroke-width="0.07" points="27.994,37.103 26.184,37.953 28.224,42.298 30.035,41.448"/>
<polygon fill="#ff7f0e" fill-opacity="0.160" stroke="#ff7f0e" stroke-opacity="0.55" stroke-width="0.07" points="28.683,37.754 26.753,38.276 28.005,42.910 29.936,42.388"/>
<polygon fill="#ff7f0e" fill-opacity="0.160" stroke="#ff7f0e" stroke-opacity="0.55" stroke-width="0.07" points="29.235,38.511 27.244,38.701 27.700,43.479 29.691,43.289"/>
<polygon fill="#ff7f0e" fill-opacity="0.160" stroke="#ff7f0e" stroke-opacity="0.55" stroke-width="0.07" points="29.512,39.280 27.512,39.259 27.462,44.059 29.462,44.080"/>
<polygon fill="#ff7f0e" fill-opacity="0.160" stroke="#ff7f0e" stroke-opacity="0.55" stroke-width="0.07" points="29.505,39.955 27.505,39.934 27.455,44.734 29.455,44.755"/>
<polygon fill="#ff7f0e" fill-opacity="0.160" stroke="#ff7f0e" stroke-opacity="0.55" stroke-width="0.07" points="29.498,40.630 27.498,40.609 27.448,45.409 29.447,45.430"/>
<polygon fill="#ff7f0e" fill-opacity="0.160" stroke="#ff7f0e" stroke-opacity="0.55" stroke-width="0.07" points="29.491,41.300 27.491,41.279 27.441,46.079 29.440,46.100"/>
<polygon fill="#ff7f0e" fill-opacity="0.160" stroke="#ff7f0e" stroke-opacity="0.55" stroke-width="0.07" points="29.484,41.907 27.485,41.886 27.434,46.686 29.434,46.707"/>
<polygon fill="#ff7f0e" fill-opacity="0.160" stroke="#ff7f0e" stroke-opacity="0.55" stroke-width="0.07" points="29.479,42.421 27.479,42.400 27.429,47.200 29.429,47.221"/>
<polygon fill="#ff7f0e" fill-opacity="0.160" stroke="#ff7f0e" stroke-opacity="0.55" stroke-width="0.07" points="29.475,42.850 27.475,42.829 27.424,47.629 29.424,47.650"/>
<polygon fill="#ff7f0e" fill-opacity="0.160" stroke="#ff7f0e" stroke-opacity="0.55" stroke-width="0.07" points="29.471,43.208 27.471,43.187 27.420,47.986 29.420,48.007"/>
<polygon fill="#ff7f0e" fill-opacity="0.160" stroke="#ff7f0e" stroke-opacity="0.55" stroke-width="0.07" points="29.467,43.530 27.468,43.509 27.417,48.309 29.417,48.330"/>
<polygon fill="#ff7f0e" fill-opacity="0.160" stroke="#ff7f0e" stroke-opacity="0.55" stroke-width="0.07" points="29.464,43.846 27.464,43.825 27.414,48.625 29.414,48.646"/>
<polygon fill="#ff7f0e" fill-opacity="0.160" stroke="#ff7f0e" stroke-opacity="0.55" stroke-width="0.07" points="29.461,44.161 27.461,44.140 27.410,48.940 29.410,48.961"/>
<polygon fill="#ff7f0e" fill-opacity="0.160" stroke="#ff7f0e" stroke-opacity="0.55" stroke-width="0.07" points="29.457,44.476 27.458,44.455 27.407,49.255 29.407,49.276"/>
<polygon fill="#ff7f0e" fill-opacity="0.160" stroke="#ff7f0e" stroke-opacity="0.55" stroke-width="0.07" points="29.454,44.791 27.454,44.770 27.404,49.570 29.404,49.591"/>
<polygon fill="#ff7f0e" fill-opacity="0.160" stroke="#ff7f0e" stroke-opacity="0.55" stroke-width="0.07" points="29.453,44.861 27.454,44.840 27.403,49.640 29.403,49.661"/>
<polygon fill="none" stroke="crimson" stroke-width="0.120" points="29.453,44.861 27.454,44.840 27.403,49.640 29.403,49.661"/>
</g>
</svg>
