<?xml version="1.0" encoding="UTF-8"?>
<svg xmlns="http://www.w3.org/2000/svg" width="1400" height="900" viewBox="0 -3 75 53">
<rect x="0" y="-3" width="75" height="53" fill="white"/>
<text x="1.5" y="-1.35" font-size="1.15" fill="black">Parking | target row=2 idx=4 | success=true sim_ok=true | max_steer=35 deg | overshoot~=5 m | total(ref)~=5e+01 m</text>
<text x="1.5" y="-0.45" font-size="0.95" fill="black">ok</text>
<g transform="translate(0,50.000) scale(1,-1)">
<rect x="0" y="0" width="75.000" height="50.000" fill="none" stroke="black" stroke-width="0.15"/>
<rect x="0.000" y="9.000" width="75.000" height="6.000" fill="#add8e6" fill-opacity="0.25" stroke="#add8e6" stroke-width="0.08"/>
<rect x="0.000" y="34.500" width="75.000" height="6.000" fill="#add8e6" fill-opacity="0.25" stroke="#add8e6" stroke-width="0.08"/>
<rect x="36.000" y="12.000" width="6.000" height="25.500" fill="#90ee90" fill-opacity="0.25" stroke="#90ee90" stroke-width="0.08"/>
<rect x="12.000" y="44.000" width="4.800" height="6.000" fill="white" stroke="gray" stroke-width="0.080" fill-opacity="0.85"/>
<rect x="16.800" y="44.000" width="4.800" height="6.000" fill="white" stroke="gray" stroke-width="0.080" fill-opacity="0.85"/>
<rect x="21.600" y="44.000" width="4.800" height="6.000" fill="white" stroke="gray" stroke-width="0.080" fill-opacity="0.85"/>
<rect x="26.400" y="44.000" width="4.800" height="6.000" fill="white" stroke="gray" stroke-width="0.080" fill-opacity="0.85"/>
<rect x="31.200" y="44.000" width="4.800" height="6.000" fill="white" stroke="gray" stroke-width="0.080" fill-opacity="0.85"/>
<rect x="12.000" y="25.000" width="4.800" height="6.000" fill="white" stroke="gray" stroke-width="0.080" fill-opacity="0.85"/>
<rect x="16.800" y="25.000" width="4.800" height="6.000" fill="white" stroke="gray" stroke-width="0.080" fill-opacity="0.85"/>
<rect x="21.600" y="25.000" width="4.800" height="6.000" fill="white" stroke="gray" stroke-width="0.080" fill-opacity="0.85"/>
<rect x="26.400" y="25.000" width="4.800" height="6.000" fill="white" stroke="gray" stroke-width="0.080" fill-opacity="0.85"/>
<rect x="31.200" y="25.000" width="4.800" height="6.000" fill="white" stroke="gray" stroke-width="0.080" fill-opacity="0.85"/>
<rect x="12.000" y="19.000" width="4.800" height="6.000" fill="white" stroke="gray" stroke-width="0.080" fill-opacity="0.85"/>
<rect x="16.800" y="19.000" width="4.800" height="6.000" fill="white" stroke="gray" stroke-width="0.080" fill-opacity="0.85"/>
<rect x="21.600" y="19.000" width="4.800" height="6.000" fill="white" stroke="gray" stroke-width="0.080" fill-opacity="0.85"/>
<rect x="26.400" y="19.000" width="4.800" height="6.000" fill="white" stroke="gray" stroke-width="0.080" fill-opacity="0.85"/>
<rect x="31.200" y="19.000" width="4.800" height="6.000" fill="#98fb98" stroke="darkgreen" stroke-width="0.180" fill-opacity="0.85"/>
<rect x="12.000" y="0.000" width="4.800" height="6.000" fill="white" stroke="gray" stroke-width="0.080" fill-opacity="0.85"/>
<rect x="16.800" y="0.000" width="4.800" height="6.000" fill="white" stroke="gray" stroke-width="0.080" fill-opacity="0.85"/>
<rect x="21.600" y="0.000" width="4.800" height="6.000" fill="white" stroke="gray" stroke-width="0.080" fill-opacity="0.85"/>
<rect x="26.400" y="0.000" width="4.800" height="6.000" fill="white" stroke="gray" stroke-width="0.080" fill-opacity="0.85"/>
<rect x="31.200" y="0.000" width="4.800" height="6.000" fill="white" stroke="gray" stroke-width="0.080" fill-opacity="0.85"/>
<polygon fill="none" stroke="navy" stroke-width="0.120" points="6.400,13.000 6.400,11.000 1.600,11.000 1.600,13.000"/>
<polygon fill="purple" points="30.820,12.000 31.100,12.350 31.380,12.000 31.100,11.650"/>
<circle cx="38.400" cy="12.000" r="0.38" fill="darkviolet" stroke="indigo" stroke-width="0.06"/>
<polyline fill="none" stroke="#808080" stroke-width="0.120" stroke-opacity="0.65" stroke-dasharray="0.45 0.35" points="4.000,12.000 31.100,12.000 38.400,12.000"/>
<polyline fill="none" stroke="#808080" stroke-width="0.120" stroke-opacity="0.65" stroke-dasharray="0.45 0.35" points="38.400,12.000 38.226,12.180 38.055,12.364 37.889,12.553 37.726,12.747 37.566,12.944 37.411,13.146 37.259,13.351 37.111,13.559 36.966,13.771 36.825,13.987 36.687,14.205 36.552,14.425 36.421,14.649 36.293,14.874 36.168,15.102 36.047,15.332 35.928,15.563 35.813,15.796 35.701,16.030 35.591,16.265 35.485,16.501 35.382,16.738 35.281,16.976 35.183,17.213 35.088,17.451 34.996,17.689 34.906,17.926 34.819,18.163 34.735,18.399 34.653,18.635 34.574,18.869 34.497,19.102 34.422,19.333 34.350,19.563 34.280,19.790 34.212,20.016 34.146,20.239 34.083,20.460 34.021,20.678 33.962,20.893 33.905,21.105 33.849,21.314 33.796,21.519 33.744,21.720 33.694,21.918 33.646,22.111 33.600,22.300"/>
<polyline fill="none" stroke="#1f77b4" stroke-width="0.220" stroke-opacity="0.95" points="4.008,12.000 4.022,12.000 4.043,12.000 4.070,12.000 4.102,12.000 4.138,12.000 4.179,12.000 4.223,12.000 4.270,12.000 4.321,12.000 4.374,12.000 4.429,12.000 4.487,12.000 4.547,12.000 4.609,12.000 4.672,12.000 4.736,12.000 4.802,12.000 4.869,12.000 4.937,12.000 5.006,12.000 5.076,12.000 5.147,12.000 5.218,12.000 5.290,12.000 5.363,12.000 5.436,12.000 5.509,12.000 5.583,12.000 5.657,12.000 5.732,12.000 5.806,12.000 5.882,12.000 5.957,12.000 6.032,12.000 6.108,12.000 6.184,12.000 6.260,12.000 6.336,12.000 6.413,12.000 6.489,12.000 6.566,12.000 6.643,12.000 6.719,12.000 6.796,12.000 6.873,12.000 6.950,12.000 7.027,12.000 7.104,12.000 7.181,12.000 7.258,12.000 7.335,12.000 7.413,12.000 7.490,12.000 7.567,12.000 7.644,12.000 7.722,12.000 7.799,12.000 7.876,12.000 7.954,12.000 8.031,12.000 8.109,12.000 8.186,12.000 8.263,12.000 8.341,12.000 8.418,12.000 8.496,12.000 8.573,12.000 8.650,12.000 8.728,12.000 8.805,12.000 8.883,12.000 8.960,12.000 9.038,12.000 9.115,12.000 9.193,12.000 9.270,12.000 9.348,12.000 9.425,12.000 9.503,12.000 9.580,12.000 9.658,12.000 9.735,12.000 9.813,12.000 9.890,12.000 9.968,12.000 10.045,12.000 10.123,12.000 10.200,12.000 10.278,12.000 10.355,12.000 10.433,12.000 10.510,12.000 10.588,12.000 10.665,12.000 10.743,12.000 10.820,12.000 10.898,12.000 10.975,12.000 11.053,12.000 11.130,12.000 11.208,12.000 11.285,12.000 11.363,12.000 11.440,12.000 11.518,12.000 11.595,12.000 11.673,12.000 11.750,12.000 11.828,12.000 11.905,12.000 11.983,12.000 12.060,12.000 12.138,12.000 12.215,12.000 12.293,12.000 12.370,12.000 12.448,12.000 12.525,12.000 12.603,12.000 12.680,12.000 12.758,12.000 12.835,12.000 12.913,12.000 12.990,12.000 13.068,12.000 13.145,12.000 13.223,12.000 13.300,12.000 13.378,12.000 13.455,12.000 13.533,12.000 13.610,12.000 13.688,12.000 13.765,12.000 13.843,12.000 13.920,12.000 13.998,12.000 14.075,12.000 14.153,12.000 14.230,12.000 14.308,12.000 14.385,12.000 14.463,12.000 14.540,12.000 14.618,12.000 14.695,12.000 14.773,12.000 14.850,12.000 14.928,12.000 15.005,12.000 15.083,12.000 15.160,12.000 15.238,12.000 15.315,12.000 15.393,12.000 15.470,12.000 15.548,12.000 15.625,12.000 15.703,12.000 15.780,12.000 15.858,12.000 15.935,12.000 16.013,12.000 16.090,12.000 16.168,12.000 16.245,12.000 16.323,12.000 16.400,12.000 16.478,12.000 16.555,12.000 16.633,12.000 16.710,12.000 16.788,12.000 16.865,12.000 16.943,12.000 17.020,12.000 17.098,12.000 17.175,12.000 17.253,12.000 17.330,12.000 17.408,12.000 17.485,12.000 17.563,12.000 17.640,12.000 17.718,12.000 17.795,12.000 17.873,12.000 17.950,12.000 18.028,12.000 18.105,12.000 18.183,12.000 18.260,12.000 18.338,12.000 18.415,12.000 18.493,12.000 18.570,12.000 18.648,12.000 18.725,12.000 18.803,12.000 18.880,12.000 18.958,12.000 19.035,12.000 19.113,12.000 19.190,12.000 19.268,12.000 19.345,12.000 19.423,12.000 19.500,12.000 19.578,12.000 19.655,12.000 19.733,12.000 19.810,12.000 19.888,12.000 19.965,12.000 20.043,12.000 20.120,12.000 20.198,12.000 20.275,12.000 20.353,12.000 20.430,12.000 20.508,12.000 20.585,12.000 20.663,12.000 20.740,12.000 20.818,12.000 20.895,12.000 20.973,12.000 21.050,12.000 21.128,12.000 21.205,12.000 21.283,12.000 21.360,12.000 21.438,12.000 21.515,12.000 21.593,12.000 21.670,12.000 21.748,12.000 21.825,12.000 21.903,12.000 21.980,12.000 22.058,12.000 22.135,12.000 22.213,12.000 22.290,12.000 22.368,12.000 22.445,12.000 22.523,12.000 22.600,12.000 22.678,12.000 22.755,12.000 22.833,12.000 22.910,12.000 22.988,12.000 23.065,12.000 23.143,12.000 23.220,12.000 23.298,12.000 23.375,12.000 23.453,12.000 23.530,12.000 23.608,12.000 23.685,12.000 23.763,12.000 23.840,12.000 23.918,12.000 23.995,12.000 24.073,12.000 24.150,12.000 24.228,12.000 24.305,12.000 24.383,12.000 24.460,12.000 24.538,12.000 24.615,12.000 24.693,12.000 24.770,12.000 24.848,12.000 24.925,12.000 25.003,12.000 25.080,12.000 25.158,12.000 25.235,12.000 25.313,12.000 25.390,12.000 25.468,12.000 25.545,12.000 25.623,12.000 25.700,12.000 25.778,12.000 25.855,12.000 25.933,12.000 26.010,12.000 26.088,12.000 26.165,12.000 26.243,12.000 26.320,12.000 26.398,12.000 26.475,12.000 26.553,12.000 26.630,12.000 26.708,12.000 26.785,12.000 26.863,12.000 26.940,12.000 27.018,12.000 27.095,12.000 27.173,12.000 27.250,12.000 27.328,12.000 27.405,12.000 27.483,12.000 27.560,12.000 27.638,12.000 27.715,12.000 27.793,12.000 27.870,12.000 27.948,12.000 28.025,12.000 28.103,12.000 28.180,12.000 28.258,12.000 28.335,12.000 28.413,12.000 28.490,12.000 28.568,12.000 28.645,12.000 28.723,12.000 28.800,12.000 28.878,12.000 28.955,12.000 29.033,12.000 29.110,12.000 29.188,12.000 29.265,12.000 29.343,12.000 29.420,12.000 29.498,12.000 29.575,12.000 29.653,12.000 29.730,12.000 29.808,12.000 29.885,12.000 29.963,12.000 30.040,12.000 30.118,12.000 30.195,12.000 30.273,12.000 30.350,12.000 30.428,12.000 30.505,12.000 30.583,12.000 30.660,12.000 30.738,12.000 30.815,12.000 30.893,12.000 30.970,12.000 31.048,12.000 31.125,12.000 31.203,12.000 31.280,12.000 31.358,12.000 31.435,12.000 31.513,12.000 31.590,12.000 31.668,12.000 31.745,12.000 31.823,12.000 31.900,12.000 31.978,12.000 32.055,12.000 32.133,12.000 32.210,12.000 32.288,12.000 32.365,12.000 32.443,12.000 32.520,12.000 32.598,12.000 32.675,12.000 32.753,12.000 32.830,12.000 32.908,12.000 32.985,12.000 33.063,12.000 33.140,12.000 33.218,12.000 33.295,12.000 33.373,12.000 33.450,12.000 33.528,12.000 33.605,12.000 33.683,12.000 33.760,12.000 33.838,12.000 33.915,12.000 33.993,12.000 34.070,12.000 34.148,12.000 34.225,12.000 34.303,12.000 34.380,12.000 34.458,12.000 34.535,12.000 34.612,12.000 34.689,12.000 34.765,12.000 34.841,12.000 34.916,12.000 34.990,12.000 35.063,12.000 35.136,12.000 35.208,12.000 35.278,12.000 35.348,12.000 35.417,12.000 35.484,12.000 35.551,12.000 35.616,12.000 35.680,12.000 35.743,12.000 35.805,12.000 35.866,12.000 35.925,12.000 35.983,12.000 36.041,12.000 36.097,12.000 36.152,12.000 36.205,12.000 36.258,12.000 36.310,12.000 36.360,12.000 36.409,12.000 36.458,12.000 36.505,12.000 36.551,12.000 36.596,12.000 36.640,12.000 36.683,12.000 36.726,12.000 36.767,12.000 36.807,12.000 36.846,12.000 36.885,12.000 36.922,12.000 36.959,12.000 36.994,12.000 37.029,12.000 37.063,12.000 37.096,12.000 37.129,12.000 37.160,12.000 37.191,12.000 37.221,12.000 37.251,12.000 37.280,12.000 37.308,12.000 37.335,12.000 37.361,12.000 37.387,12.000 37.413,12.000 37.438,12.000 37.462,12.000 37.485,12.000 37.508,12.000 37.531,12.000 37.552,12.000 37.574,12.000 37.595,12.000 37.616,12.000 37.636,12.000 37.656,12.000 37.676,12.000 37.696,12.000 37.715,12.000 37.734,12.000 37.753,12.000 37.772,12.000 37.791,12.000 37.810,12.000 37.828,12.000 37.847,12.000 37.865,12.000"/>
<polyline fill="none" stroke="#ff7f0e" stroke-width="0.220" stroke-opacity="0.95" points="37.861,12.000 37.854,12.000 37.844,12.000 37.831,12.000 37.816,12.000 37.798,12.000 37.778,12.000 37.757,12.000 37.734,12.001 37.710,12.001 37.684,12.002 37.657,12.003 37.629,12.004 37.600,12.005 37.570,12.007 37.540,12.009 37.509,12.011 37.477,12.013 37.445,12.016 37.412,12.019 37.379,12.023 37.345,12.026 37.311,12.030 37.277,12.035 37.242,12.040 37.208,12.045 37.173,12.050 37.138,12.056 37.103,12.062 37.067,12.069 37.032,12.076 36.996,12.083 36.961,12.091 36.925,12.099 36.890,12.107 36.854,12.116 36.819,12.125 36.783,12.134 36.747,12.144 36.712,12.154 36.676,12.165 36.641,12.175 36.606,12.187 36.570,12.198 36.535,12.210 36.500,12.222 36.465,12.235 36.430,12.248 36.395,12.261 36.360,12.275 36.326,12.289 36.291,12.303 36.257,12.318 36.223,12.333 36.189,12.348 36.155,12.364 36.121,12.380 36.087,12.396 36.054,12.413 36.020,12.430 35.987,12.447 35.954,12.465 35.921,12.483 35.889,12.501 35.856,12.520 35.824,12.539 35.792,12.558 35.760,12.577 35.728,12.597 35.696,12.617 35.665,12.638 35.634,12.659 35.603,12.680 35.572,12.701 35.541,12.723 35.511,12.745 35.481,12.767 35.451,12.790 35.421,12.813 35.392,12.836 35.362,12.859 35.333,12.883 35.305,12.907 35.276,12.931 35.248,12.956 35.220,12.981 35.192,13.006 35.164,13.031 35.137,13.057 35.110,13.083 35.083,13.109 35.056,13.135 35.030,13.162 35.004,13.189 34.978,13.216 34.952,13.243 34.927,13.271 34.902,13.299 34.877,13.327 34.853,13.356 34.829,13.384 34.805,13.413 34.781,13.442 34.758,13.472 34.735,13.501 34.712,13.531 34.690,13.561 34.667,13.591 34.646,13.622 34.624,13.653 34.603,13.683 34.582,13.714 34.561,13.746 34.541,13.777 34.521,13.809 34.501,13.841 34.481,13.873 34.462,13.905 34.443,13.938 34.425,13.970 34.407,14.003 34.389,14.036 34.371,14.069 34.354,14.102 34.337,14.136 34.321,14.169 34.304,14.203 34.288,14.237 34.273,14.271 34.258,14.306 34.243,14.340 34.228,14.375 34.214,14.409 34.200,14.444 34.186,14.479 34.173,14.514 34.160,14.549 34.148,14.585 34.136,14.620 34.124,14.656 34.112,14.691 34.101,14.727 34.090,14.763 34.080,14.799 34.070,14.835 34.060,14.871 34.050,14.908 34.041,14.944 34.033,14.981 34.024,15.017 34.016,15.054 34.009,15.090 34.001,15.127 33.995,15.164 33.988,15.201 33.982,15.238 33.976,15.275 33.970,15.312 33.965,15.349 33.961,15.387 33.956,15.424 33.952,15.461 33.948,15.498 33.945,15.536 33.942,15.573 33.940,15.610 33.937,15.648 33.935,15.685 33.934,15.723 33.933,15.760 33.932,15.798 33.931,15.835 33.931,15.873 33.931,15.910 33.931,15.948 33.931,15.985 33.932,16.023 33.932,16.060 33.933,16.098 33.933,16.135 33.934,16.173 33.935,16.210 33.935,16.248 33.936,16.285 33.936,16.323 33.937,16.360 33.937,16.398 33.938,16.435 33.939,16.473 33.939,16.510 33.940,16.548 33.940,16.585 33.941,16.623 33.941,16.660 33.942,16.698 33.943,16.735 33.943,16.773 33.944,16.810 33.944,16.848 33.945,16.885 33.946,16.923 33.946,16.960 33.947,16.998 33.947,17.035 33.948,17.073 33.948,17.110 33.949,17.148 33.950,17.185 33.950,17.223 33.951,17.260 33.951,17.298 33.952,17.335 33.953,17.373 33.953,17.410 33.954,17.448 33.954,17.485 33.955,17.523 33.955,17.560 33.956,17.598 33.957,17.635 33.957,17.673 33.958,17.710 33.958,17.748 33.959,17.785 33.960,17.823 33.960,17.860 33.961,17.898 33.961,17.935 33.962,17.973 33.962,18.010 33.963,18.048 33.964,18.085 33.964,18.123 33.965,18.160 33.965,18.198 33.966,18.235 33.967,18.273 33.967,18.310 33.968,18.348 33.968,18.385 33.969,18.422 33.969,18.460 33.970,18.497 33.971,18.534 33.971,18.571 33.972,18.608 33.972,18.644 33.973,18.680 33.973,18.717 33.974,18.752 33.975,18.788 33.975,18.823 33.976,18.859 33.976,18.893 33.977,18.928 33.977,18.962 33.978,18.996 33.978,19.030 33.979,19.063 33.979,19.097 33.980,19.129 33.980,19.162 33.981,19.194 33.981,19.226 33.982,19.258 33.982,19.289 33.983,19.321 33.983,19.351 33.984,19.382 33.984,19.412 33.985,19.442 33.985,19.472 33.986,19.501 33.986,19.530 33.986,19.559 33.987,19.587 33.987,19.616 33.988,19.643 33.988,19.671 33.989,19.698 33.989,19.726 33.989,19.752 33.990,19.779 33.990,19.805 33.991,19.831 33.991,19.857 33.991,19.883 33.992,19.908 33.992,19.933 33.993,19.958 33.993,19.982 33.993,20.006 33.994,20.030 33.994,20.054 33.995,20.078 33.995,20.101 33.995,20.124 33.996,20.147 33.996,20.170 33.996,20.192 33.997,20.214 33.997,20.236 33.997,20.258 33.998,20.279 33.998,20.300 33.998,20.321 33.999,20.342 33.999,20.363 33.999,20.383 34.000,20.404 34.000,20.424 34.000,20.443 34.000,20.463 34.001,20.482 34.001,20.502 34.001,20.521 34.002,20.540 34.002,20.558 34.002,20.577 34.003,20.595 34.003,20.614 34.003,20.632 34.003,20.650 34.004,20.669 34.004,20.687 34.004,20.705 34.005,20.723 34.005,20.741 34.005,20.758 34.005,20.776 34.006,20.794 34.006,20.812 34.006,20.830 34.006,20.847 34.007,20.865 34.007,20.883 34.007,20.900 34.008,20.918 34.008,20.936 34.008,20.953 34.008,20.971 34.009,20.989 34.009,21.006 34.009,21.024 34.009,21.041 34.010,21.059 34.010,21.076 34.010,21.094 34.011,21.112 34.011,21.129 34.011,21.147 34.011,21.164 34.012,21.182 34.012,21.199 34.012,21.217 34.012,21.234 34.013,21.252 34.013,21.269 34.013,21.287 34.014,21.304 34.014,21.322 34.014,21.339 34.014,21.357 34.015,21.374 34.015,21.392 34.015,21.409 34.015,21.427 34.016,21.444 34.016,21.462 34.016,21.479 34.017,21.497 34.017,21.514 34.017,21.532 34.017,21.549 34.018,21.567 34.018,21.584 34.018,21.602 34.018,21.619 34.019,21.637 34.019,21.654 34.019,21.672 34.020,21.689 34.020,21.707 34.020,21.724 34.020,21.742 34.021,21.759 34.021,21.777 34.021,21.794 34.021,21.812 34.022,21.829 34.022,21.847 34.022,21.864 34.022,21.882 34.023,21.899 34.023,21.917 34.023,21.934 34.024,21.952 34.024,21.969 34.024,21.987 34.024,22.004 34.025,22.022 34.025,22.039 34.025,22.057 34.025,22.074 34.026,22.092 34.026,22.109 34.026,22.127 34.027,22.144 34.027,22.162 34.027,22.179 34.027,22.197 34.028,22.214 34.028,22.232 34.028,22.249 34.028,22.267"/>
<polygon fill="#1f77b4" fill-opacity="0.140" stroke="#1f77b4" stroke-opacity="0.55" stroke-width="0.07" points="6.408,13.000 6.408,11.000 1.608,11.000 1.608,13.000"/>
<polygon fill="#1f77b4" fill-opacity="0.140" stroke="#1f77b4" stroke-opacity="0.55" stroke-width="0.07" points="7.269,13.000 7.269,11.000 2.469,11.000 2.469,13.000"/>
<polygon fill="#1f77b4" fill-opacity="0.140" stroke="#1f77b4" stroke-opacity="0.55" stroke-width="0.07" points="8.584,13.000 8.584,11.000 3.784,11.000 3.784,13.000"/>
<polygon fill="#1f77b4" fill-opacity="0.140" stroke="#1f77b4" stroke-opacity="0.55" stroke-width="0.07" points="9.967,13.000 9.967,11.000 5.167,11.000 5.167,13.000"/>
<polygon fill="#1f77b4" fill-opacity="0.140" stroke="#1f77b4" stroke-opacity="0.55" stroke-width="0.07" points="11.360,13.000 11.360,11.000 6.560,11.000 6.560,13.000"/>
<polygon fill="#1f77b4" fill-opacity="0.140" stroke="#1f77b4" stroke-opacity="0.55" stroke-width="0.07" points="12.755,13.000 12.755,11.000 7.955,11.000 7.955,13.000"/>
<polygon fill="#1f77b4" fill-opacity="0.140" stroke="#1f77b4" stroke-opacity="0.55" stroke-width="0.07" points="14.150,13.000 14.150,11.000 9.350,11.000 9.350,13.000"/>
<polygon fill="#1f77b4" fill-opacity="0.140" stroke="#1f77b4" stroke-opacity="0.55" stroke-width="0.07" points="15.545,13.000 15.545,11.000 10.745,11.000 10.745,13.000"/>
<polygon fill="#1f77b4" fill-opacity="0.140" stroke="#1f77b4" stroke-opacity="0.55" stroke-width="0.07" points="16.940,13.000 16.940,11.000 12.140,11.000 12.140,13.000"/>
<polygon fill="#1f77b4" fill-opacity="0.140" stroke="#1f77b4" stroke-opacity="0.55" stroke-width="0.07" points="18.335,13.000 18.335,11.000 13.535,11.000 13.535,13.000"/>
<polygon fill="#1f77b4" fill-opacity="0.140" stroke="#1f77b4" stroke-opacity="0.55" stroke-width="0.07" points="19.730,13.000 19.730,11.000 14.930,11.000 14.930,13.000"/>
<polygon fill="#1f77b4" fill-opacity="0.140" stroke="#1f77b4" stroke-opacity="0.55" stroke-width="0.07" points="21.125,13.000 21.125,11.000 16.325,11.000 16.325,13.000"/>
<polygon fill="#1f77b4" fill-opacity="0.140" stroke="#1f77b4" stroke-opacity="0.55" stroke-width="0.07" points="22.520,13.000 22.520,11.000 17.720,11.000 17.720,13.000"/>
<polygon fill="#1f77b4" fill-opacity="0.140" stroke="#1f77b4" stroke-opacity="0.55" stroke-width="0.07" points="23.915,13.000 23.915,11.000 19.115,11.000 19.115,13.000"/>
<polygon fill="#1f77b4" fill-opacity="0.140" stroke="#1f77b4" stroke-opacity="0.55" stroke-width="0.07" points="25.310,13.000 25.310,11.000 20.510,11.000 20.510,13.000"/>
<polygon fill="#1f77b4" fill-opacity="0.140" stroke="#1f77b4" stroke-opacity="0.55" stroke-width="0.07" points="26.705,13.000 26.705,11.000 21.905,11.000 21.905,13.000"/>
<polygon fill="#1f77b4" fill-opacity="0.140" stroke="#1f77b4" stroke-opacity="0.55" stroke-width="0.07" points="28.100,13.000 28.100,11.000 23.300,11.000 23.300,13.000"/>
<polygon fill="#1f77b4" fill-opacity="0.140" stroke="#1f77b4" stroke-opacity="0.55" stroke-width="0.07" points="29.495,13.000 29.495,11.000 24.695,11.000 24.695,13.000"/>
<polygon fill="#1f77b4" fill-opacity="0.140" stroke="#1f77b4" stroke-opacity="0.55" stroke-width="0.07" points="30.890,13.000 30.890,11.000 26.090,11.000 26.090,13.000"/>
<polygon fill="#1f77b4" fill-opacity="0.140" stroke="#1f77b4" stroke-opacity="0.55" stroke-width="0.07" points="32.285,13.000 32.285,11.000 27.485,11.000 27.485,13.000"/>
<polygon fill="#1f77b4" fill-opacity="0.140" stroke="#1f77b4" stroke-opacity="0.55" stroke-width="0.07" points="33.680,13.000 33.680,11.000 28.880,11.000 28.880,13.000"/>
<polygon fill="#1f77b4" fill-opacity="0.140" stroke="#1f77b4" stroke-opacity="0.55" stroke-width="0.07" points="35.075,13.000 35.075,11.000 30.275,11.000 30.275,13.000"/>
<polygon fill="#1f77b4" fill-opacity="0.140" stroke="#1f77b4" stroke-opacity="0.55" stroke-width="0.07" points="36.470,13.000 36.470,11.000 31.670,11.000 31.670,13.000"/>
<polygon fill="#1f77b4" fill-opacity="0.140" stroke="#1f77b4" stroke-opacity="0.55" stroke-width="0.07" points="37.817,13.000 37.817,11.000 33.017,11.000 33.017,13.000"/>
<polygon fill="#1f77b4" fill-opacity="0.140" stroke="#1f77b4" stroke-opacity="0.55" stroke-width="0.07" points="38.858,13.000 38.858,11.000 34.058,11.000 34.058,13.000"/>
<polygon fill="#1f77b4" fill-opacity="0.140" stroke="#1f77b4" stroke-opacity="0.55" stroke-width="0.07" points="39.560,13.000 39.560,11.000 34.760,11.000 34.760,13.000"/>
<polygon fill="#1f77b4" fill-opacity="0.140" stroke="#1f77b4" stroke-opacity="0.55" stroke-width="0.07" points="40.016,13.000 40.016,11.000 35.216,11.000 35.216,13.000"/>
<polygon fill="#1f77b4" fill-opacity="0.140" stroke="#1f77b4" stroke-opacity="0.55" stroke-width="0.07" points="40.265,13.000 40.265,11.000 35.465,11.000 35.465,13.000"/>
<polygon fill="#ff7f0e" fill-opacity="0.160" stroke="#ff7f0e" stroke-opacity="0.55" stroke-width="0.07" points="40.261,13.000 40.261,11.000 35.461,11.000 35.461,13.000"/>
<polygon fill="#ff7f0e" fill-opacity="0.160" stroke="#ff7f0e" stroke-opacity="0.55" stroke-width="0.07" points="39.928,12.786 39.740,10.795 34.961,11.246 35.149,13.237"/>
<polygon fill="#ff7f0e" fill-opacity="0.160" stroke="#ff7f0e" stroke-opacity="0.55" stroke-width="0.07" points="39.395,12.477 38.882,10.543 34.242,11.773 34.755,13.706"/>
<polygon fill="#ff7f0e" fill-opacity="0.160" stroke="#ff7f0e" stroke-opacity="0.55" stroke-width="0.07" points="38.787,12.250 37.949,10.434 33.590,12.446 34.429,14.262"/>
<polygon fill="#ff7f0e" fill-opacity="0.160" stroke="#ff7f0e" stroke-opacity="0.55" stroke-width="0.07" points="38.144,12.131 37.003,10.489 33.061,13.228 34.203,14.871"/>
<polygon fill="#ff7f0e" fill-opacity="0.160" stroke="#ff7f0e" stroke-opacity="0.55" stroke-width="0.07" points="37.490,12.126 36.080,10.708 32.676,14.091 34.086,15.510"/>
<polygon fill="#ff7f0e" fill-opacity="0.160" stroke="#ff7f0e" stroke-opacity="0.55" stroke-width="0.07" points="36.845,12.235 35.210,11.084 32.446,15.009 34.082,16.160"/>
<polygon fill="#ff7f0e" fill-opacity="0.160" stroke="#ff7f0e" stroke-opacity="0.55" stroke-width="0.07" points="36.229,12.455 34.418,11.606 32.380,15.952 34.191,16.801"/>
<polygon fill="#ff7f0e" fill-opacity="0.160" stroke="#ff7f0e" stroke-opacity="0.55" stroke-width="0.07" points="35.660,12.778 33.729,12.258 32.479,16.892 34.410,17.413"/>
<polygon fill="#ff7f0e" fill-opacity="0.160" stroke="#ff7f0e" stroke-opacity="0.55" stroke-width="0.07" points="35.157,13.196 33.165,13.019 32.740,17.800 34.732,17.977"/>
<polygon fill="#ff7f0e" fill-opacity="0.160" stroke="#ff7f0e" stroke-opacity="0.55" stroke-width="0.07" points="34.897,13.758 32.897,13.789 32.971,18.588 34.971,18.557"/>
<polygon fill="#ff7f0e" fill-opacity="0.160" stroke="#ff7f0e" stroke-opacity="0.55" stroke-width="0.07" points="34.907,14.432 32.907,14.464 32.982,19.263 34.982,19.232"/>
<polygon fill="#ff7f0e" fill-opacity="0.160" stroke="#ff7f0e" stroke-opacity="0.55" stroke-width="0.07" points="34.918,15.107 32.918,15.138 32.992,19.938 34.992,19.907"/>
<polygon fill="#ff7f0e" fill-opacity="0.160" stroke="#ff7f0e" stroke-opacity="0.55" stroke-width="0.07" points="34.928,15.782 32.928,15.813 33.003,20.613 35.002,20.582"/>
<polygon fill="#ff7f0e" fill-opacity="0.160" stroke="#ff7f0e" stroke-opacity="0.55" stroke-width="0.07" points="34.938,16.443 32.938,16.474 33.013,21.274 35.013,21.243"/>
<polygon fill="#ff7f0e" fill-opacity="0.160" stroke="#ff7f0e" stroke-opacity="0.55" stroke-width="0.07" points="34.947,17.027 32.948,17.058 33.022,21.857 35.022,21.826"/>
<polygon fill="#ff7f0e" fill-opacity="0.160" stroke="#ff7f0e" stroke-opacity="0.55" stroke-width="0.07" points="34.955,17.518 32.955,17.549 33.030,22.348 35.029,22.317"/>
<polygon fill="#ff7f0e" fill-opacity="0.160" stroke="#ff7f0e" stroke-opacity="0.55" stroke-width="0.07" points="34.961,17.927 32.962,17.958 33.036,22.758 35.036,22.727"/>
<polygon fill="#ff7f0e" fill-opacity="0.160" stroke="#ff7f0e" stroke-opacity="0.55" stroke-width="0.07" points="34.967,18.271 32.967,18.302 33.041,23.102 35.041,23.071"/>
<polygon fill="#ff7f0e" fill-opacity="0.160" stroke="#ff7f0e" stroke-opacity="0.55" stroke-width="0.07" points="34.972,18.591 32.972,18.622 33.046,23.421 35.046,23.390"/>
<polygon fill="#ff7f0e" fill-opacity="0.160" stroke="#ff7f0e" stroke-opacity="0.55" stroke-width="0.07" points="34.976,18.907 32.977,18.938 33.051,23.737 35.051,23.706"/>
<polygon fill="#ff7f0e" fill-opacity="0.160" stroke="#ff7f0e" stroke-opacity="0.55" stroke-width="0.07" points="34.981,19.222 32.982,19.253 33.056,24.052 35.056,24.021"/>
<polygon fill="#ff7f0e" fill-opacity="0.160" stroke="#ff7f0e" stroke-opacity="0.55" stroke-width="0.07" points="34.986,19.537 32.986,19.568 33.061,24.367 35.061,24.336"/>
<polygon fill="#ff7f0e" fill-opacity="0.160" stroke="#ff7f0e" stroke-opacity="0.55" stroke-width="0.07" points="34.991,19.852 32.991,19.883 33.066,24.682 35.066,24.651"/>
<polygon fill="#ff7f0e" fill-opacity="0.160" stroke="#ff7f0e" stroke-opacity="0.55" stroke-width="0.07" points="34.991,19.852 32.991,19.883 33.066,24.682 35.066,24.651"/>
<polygon fill="none" stroke="crimson" stroke-width="0.120" points="34.991,19.852 32.991,19.883 33.066,24.682 35.066,24.651"/>
</g>
</svg>
