<?xml version="1.0" encoding="UTF-8"?>
<svg xmlns="http://www.w3.org/2000/svg" width="1400" height="900" viewBox="0 -3 75 53">
<rect x="0" y="-3" width="75" height="53" fill="white"/>
<text x="1.5" y="-1.35" font-size="1.15" fill="black">Parking | target row=2 idx=3 | success=true sim_ok=true | max_steer=35 deg | overshoot~=5 m | total(ref)~=4e+01 m</text>
<text x="1.5" y="-0.45" font-size="0.95" fill="black">ok</text>
<g transform="translate(0,50.000) scale(1,-1)">
<rect x="0" y="0" width="75.000" height="50.000" fill="none" stroke="black" stroke-width="0.15"/>
<rect x="0.000" y="9.000" width="75.000" height="6.000" fill="#add8e6" fill-opacity="0.25" stroke="#add8e6" stroke-width="0.08"/>
<rect x="0.000" y="34.500" width="75.000" height="6.000" fill="#add8e6" fill-opacity="0.25" stroke="#add8e6" stroke-width="0.08"/>
<rect x="36.000" y="12.000" width="6.000" height="25.500" fill="#90ee90" fill-opacity="0.25" stroke="#90ee90" stroke-width="0.08"/>
<rect x="12.000" y="44.000" width="4.800" height="6.000" fill="white" stroke="gray" stroke-width="0.080" fill-opacity="0.85"/>
<rect x="16.800" y="44.000" width="4.800" height="6.000" fill="white" stroke="gray" stroke-width="0.080" fill-opacity="0.85"/>
<rect x="21.600" y="44.000" width="4.800" height="6.000" fill="white" stroke="gray" stroke-width="0.080" fill-opacity="0.85"/>
<rect x="26.400" y="44.000" width="4.800" height="6.000" fill="white" stroke="gray" stroke-width="0.080" fill-opacity="0.85"/>
<rect x="31.200" y="44.000" width="4.800" height="6.000" fill="white" stroke="gray" stroke-width="0.080" fill-opacity="0.85"/>
<rect x="12.000" y="25.000" width="4.800" height="6.000" fill="white" stroke="gray" stroke-width="0.080" fill-opacity="0.85"/>
<rect x="16.800" y="25.000" width="4.800" height="6.000" fill="white" stroke="gray" stroke-width="0.080" fill-opacity="0.85"/>
<rect x="21.600" y="25.000" width="4.800" height="6.000" fill="white" stroke="gray" stroke-width="0.080" fill-opacity="0.85"/>
<rect x="26.400" y="25.000" width="4.800" height="6.000" fill="white" stroke="gray" stroke-width="0.080" fill-opacity="0.85"/>
<rect x="31.200" y="25.000" width="4.800" height="6.000" fill="white" stroke="gray" stroke-width="0.080" fill-opacity="0.85"/>
<rect x="12.000" y="19.000" width="4.800" height="6.000" fill="white" stroke="gray" stroke-width="0.080" fill-opacity="0.85"/>
<rect x="16.800" y="19.000" width="4.800" height="6.000" fill="white" stroke="gray" stroke-width="0.080" fill-opacity="0.85"/>
<rect x="21.600" y="19.000" width="4.800" height="6.000" fill="white" stroke="gray" stroke-width="0.080" fill-opacity="0.85"/>
<rect x="26.400" y="19.000" width="4.800" height="6.000" fill="#98fb98" stroke="darkgreen" stroke-width="0.180" fill-opacity="0.85"/>
<rect x="31.200" y="19.000" width="4.800" height="6.000" fill="white" stroke="gray" stroke-width="0.080" fill-opacity="0.85"/>
<rect x="12.000" y="0.000" width="4.800" height="6.000" fill="white" stroke="gray" stroke-width="0.080" fill-opacity="0.85"/>
<rect x="16.800" y="0.000" width="4.800" height="6.000" fill="white" stroke="gray" stroke-width="0.080" fill-opacity="0.85"/>
<rect x="21.600" y="0.000" width="4.800" height="6.000" fill="white" stroke="gray" stroke-width="0.080" fill-opacity="0.85"/>
<rect x="26.400" y="0.000" width="4.800" height="6.000" fill="white" stroke="gray" stroke-width="0.080" fill-opacity="0.85"/>
<rect x="31.200" y="0.000" width="4.800" height="6.000" fill="white" stroke="gray" stroke-width="0.080" fill-opacity="0.85"/>
<polygon fill="none" stroke="navy" stroke-width="0.120" points="6.400,13.000 6.400,11.000 1.600,11.000 1.600,13.000"/>
<polygon fill="purple" points="26.020,12.000 26.300,12.350 26.580,12.000 26.300,11.650"/>
<circle cx="33.600" cy="12.000" r="0.38" fill="darkviolet" stroke="indigo" stroke-width="0.06"/>
<polyline fill="none" stroke="#808080" stroke-width="0.120" stroke-opacity="0.65" stroke-dasharray="0.45 0.35" points="4.000,12.000 26.300,12.000 33.600,12.000"/>
<polyline fill="none" stroke="#808080" stroke-width="0.120" stroke-opacity="0.65" stroke-dasharray="0.45 0.35" points="33.600,12.000 33.426,12.180 33.255,12.364 33.089,12.553 32.926,12.747 32.766,12.944 32.611,13.146 32.459,13.351 32.311,13.559 32.166,13.771 32.025,13.987 31.887,14.205 31.752,14.425 31.621,14.649 31.493,14.874 31.368,15.102 31.247,15.332 31.128,15.563 31.013,15.796 30.901,16.030 30.791,16.265 30.685,16.501 30.582,16.738 30.481,16.976 30.383,17.213 30.288,17.451 30.196,17.689 30.106,17.926 30.019,18.163 29.935,18.399 29.853,18.635 29.774,18.869 29.697,19.102 29.622,19.333 29.550,19.563 29.480,19.790 29.412,20.016 29.346,20.239 29.283,20.460 29.221,20.678 29.162,20.893 29.105,21.105 29.049,21.314 28.996,21.519 28.944,21.720 28.894,21.918 28.846,22.111 28.800,22.300"/>
<polyline fill="none" stroke="#1f77b4" stroke-width="0.220" stroke-opacity="0.95" points="4.008,12.000 4.022,12.000 4.043,12.000 4.070,12.000 4.102,12.000 4.138,12.000 4.179,12.000 4.223,12.000 4.270,12.000 4.321,12.000 4.374,12.000 4.429,12.000 4.487,12.000 4.547,12.000 4.609,12.000 4.672,12.000 4.736,12.000 4.802,12.000 4.869,12.000 4.937,12.000 5.006,12.000 5.076,12.000 5.147,12.000 5.218,12.000 5.290,12.000 5.363,12.000 5.436,12.000 5.509,12.000 5.583,12.000 5.657,12.000 5.732,12.000 5.806,12.000 5.882,12.000 5.957,12.000 6.032,12.000 6.108,12.000 6.184,12.000 6.260,12.000 6.336,12.000 6.413,12.000 6.489,12.000 6.566,12.000 6.643,12.000 6.719,12.000 6.796,12.000 6.873,12.000 6.950,12.000 7.027,12.000 7.104,12.000 7.181,12.000 7.258,12.000 7.335,12.000 7.413,12.000 7.490,12.000 7.567,12.000 7.644,12.000 7.722,12.000 7.799,12.000 7.876,12.000 7.954,12.000 8.031,12.000 8.109,12.000 8.186,12.000 8.263,12.000 8.341,12.000 8.418,12.000 8.496,12.000 8.573,12.000 8.650,12.000 8.728,12.000 8.805,12.000 8.883,12.000 8.960,12.000 9.038,12.000 9.115,12.000 9.193,12.000 9.270,12.000 9.348,12.000 9.425,12.000 9.503,12.000 9.580,12.000 9.658,12.000 9.735,12.000 9.813,12.000 9.890,12.000 9.968,12.000 10.045,12.000 10.123,12.000 10.200,12.000 10.278,12.000 10.355,12.000 10.433,12.000 10.510,12.000 10.588,12.000 10.665,12.000 10.743,12.000 10.820,12.000 10.898,12.000 10.975,12.000 11.053,12.000 11.130,12.000 11.208,12.000 11.285,12.000 11.363,12.000 11.440,12.000 11.518,12.000 11.595,12.000 11.673,12.000 11.750,12.000 11.828,12.000 11.905,12.000 11.983,12.000 12.060,12.000 12.138,12.000 12.215,12.000 12.293,12.000 12.370,12.000 12.448,12.000 12.525,12.000 12.603,12.000 12.680,12.000 12.758,12.000 12.835,12.000 12.913,12.000 12.990,12.000 13.068,12.000 13.145,12.000 13.223,12.000 13.300,12.000 13.378,12.000 13.455,12.000 13.533,12.000 13.610,12.000 13.688,12.000 13.765,12.000 13.843,12.000 13.920,12.000 13.998,12.000 14.075,12.000 14.153,12.000 14.230,12.000 14.308,12.000 14.385,12.000 14.463,12.000 14.540,12.000 14.618,12.000 14.695,12.000 14.773,12.000 14.850,12.000 14.928,12.000 15.005,12.000 15.083,12.000 15.160,12.000 15.238,12.000 15.315,12.000 15.393,12.000 15.470,12.000 15.548,12.000 15.625,12.000 15.703,12.000 15.780,12.000 15.858,12.000 15.935,12.000 16.013,12.000 16.090,12.000 16.168,12.000 16.245,12.000 16.323,12.000 16.400,12.000 16.478,12.000 16.555,12.000 16.633,12.000 16.710,12.000 16.788,12.000 16.865,12.000 16.943,12.000 17.020,12.000 17.098,12.000 17.175,12.000 17.253,12.000 17.330,12.000 17.408,12.000 17.485,12.000 17.563,12.000 17.640,12.000 17.718,12.000 17.795,12.000 17.873,12.000 17.950,12.000 18.028,12.000 18.105,12.000 18.183,12.000 18.260,12.000 18.338,12.000 18.415,12.000 18.493,12.000 18.570,12.000 18.648,12.000 18.725,12.000 18.803,12.000 18.880,12.000 18.958,12.000 19.035,12.000 19.113,12.000 19.190,12.000 19.268,12.000 19.345,12.000 19.423,12.000 19.500,12.000 19.578,12.000 19.655,12.000 19.733,12.000 19.810,12.000 19.888,12.000 19.965,12.000 20.043,12.000 20.120,12.000 20.198,12.000 20.275,12.000 20.353,12.000 20.430,12.000 20.508,12.000 20.585,12.000 20.663,12.000 20.740,12.000 20.818,12.000 20.895,12.000 20.973,12.000 21.050,12.000 21.128,12.000 21.205,12.000 21.283,12.000 21.360,12.000 21.438,12.000 21.515,12.000 21.593,12.000 21.670,12.000 21.748,12.000 21.825,12.000 21.903,12.000 21.980,12.000 22.058,12.000 22.135,12.000 22.213,12.000 22.290,12.000 22.368,12.000 22.445,12.000 22.523,12.000 22.600,12.000 22.678,12.000 22.755,12.000 22.833,12.000 22.910,12.000 22.988,12.000 23.065,12.000 23.143,12.000 23.220,12.000 23.298,12.000 23.375,12.000 23.453,12.000 23.530,12.000 23.608,12.000 23.685,12.000 23.763,12.000 23.840,12.000 23.918,12.000 23.995,12.000 24.073,12.000 24.150,12.000 24.228,12.000 24.305,12.000 24.383,12.000 24.460,12.000 24.538,12.000 24.615,12.000 24.693,12.000 24.770,12.000 24.848,12.000 24.925,12.000 25.003,12.000 25.080,12.000 25.158,12.000 25.235,12.000 25.313,12.000 25.390,12.000 25.468,12.000 25.545,12.000 25.623,12.000 25.700,12.000 25.778,12.000 25.855,12.000 25.933,12.000 26.010,12.000 26.088,12.000 26.165,12.000 26.243,12.000 26.320,12.000 26.398,12.000 26.475,12.000 26.553,12.000 26.630,12.000 26.708,12.000 26.785,12.000 26.863,12.000 26.940,12.000 27.018,12.000 27.095,12.000 27.173,12.000 27.250,12.000 27.328,12.000 27.405,12.000 27.483,12.000 27.560,12.000 27.638,12.000 27.715,12.000 27.793,12.000 27.870,12.000 27.948,12.000 28.025,12.000 28.103,12.000 28.180,12.000 28.258,12.000 28.335,12.000 28.413,12.000 28.490,12.000 28.568,12.000 28.645,12.000 28.723,12.000 28.800,12.000 28.878,12.000 28.955,12.000 29.033,12.000 29.110,12.000 29.188,12.000 29.265,12.000 29.343,12.000 29.420,12.000 29.498,12.000 29.575,12.000 29.653,12.000 29.730,12.000 29.807,12.000 29.884,12.000 29.960,12.000 30.036,12.000 30.111,12.000 30.185,12.000 30.259,12.000 30.331,12.000 30.403,12.000 30.474,12.000 30.544,12.000 30.612,12.000 30.680,12.000 30.746,12.000 30.812,12.000 30.876,12.000 30.939,12.000 31.001,12.000 31.062,12.000 31.121,12.000 31.180,12.000 31.237,12.000 31.293,12.000 31.348,12.000 31.402,12.000 31.455,12.000 31.506,12.000 31.557,12.000 31.606,12.000 31.655,12.000 31.702,12.000 31.748,12.000 31.793,12.000 31.838,12.000 31.881,12.000 31.923,12.000 31.964,12.000 32.004,12.000 32.044,12.000 32.082,12.000 32.120,12.000 32.156,12.000 32.192,12.000 32.227,12.000 32.261,12.000 32.294,12.000 32.327,12.000 32.358,12.000 32.389,12.000 32.420,12.000 32.449,12.000 32.478,12.000 32.506,12.000 32.533,12.000 32.560,12.000 32.586,12.000 32.611,12.000 32.636,12.000 32.660,12.000 32.684,12.000 32.707,12.000 32.729,12.000 32.751,12.000 32.773,12.000 32.794,12.000 32.814,12.000 32.835,12.000 32.855,12.000 32.875,12.000 32.894,12.000 32.914,12.000 32.933,12.000 32.952,12.000 32.971,12.000 32.990,12.000 33.008,12.000 33.027,12.000 33.045,12.000 33.064,12.000"/>
<polyline fill="none" stroke="#ff7f0e" stroke-width="0.220" stroke-opacity="0.95" points="33.060,12.000 33.053,12.000 33.043,12.000 33.030,12.000 33.014,12.000 32.997,12.000 32.977,12.000 32.956,12.000 32.933,12.001 32.908,12.001 32.883,12.002 32.856,12.003 32.828,12.004 32.799,12.005 32.769,12.007 32.739,12.009 32.708,12.011 32.676,12.013 32.644,12.016 32.611,12.019 32.578,12.023 32.544,12.026 32.510,12.030 32.476,12.035 32.441,12.040 32.407,12.045 32.372,12.050 32.337,12.056 32.301,12.062 32.266,12.069 32.231,12.076 32.195,12.083 32.160,12.091 32.124,12.099 32.089,12.107 32.053,12.116 32.017,12.125 31.982,12.134 31.946,12.144 31.911,12.154 31.875,12.165 31.840,12.175 31.804,12.187 31.769,12.198 31.734,12.210 31.699,12.222 31.664,12.235 31.629,12.248 31.594,12.261 31.559,12.275 31.525,12.289 31.490,12.303 31.456,12.318 31.422,12.333 31.387,12.348 31.354,12.364 31.320,12.380 31.286,12.396 31.253,12.413 31.219,12.430 31.186,12.447 31.153,12.465 31.120,12.483 31.087,12.501 31.055,12.520 31.023,12.539 30.990,12.558 30.958,12.577 30.927,12.597 30.895,12.617 30.864,12.638 30.833,12.659 30.802,12.680 30.771,12.701 30.740,12.723 30.710,12.745 30.680,12.767 30.650,12.790 30.620,12.813 30.591,12.836 30.561,12.859 30.532,12.883 30.503,12.907 30.475,12.931 30.447,12.956 30.418,12.981 30.391,13.006 30.363,13.031 30.336,13.057 30.309,13.083 30.282,13.109 30.255,13.135 30.229,13.162 30.203,13.189 30.177,13.216 30.151,13.243 30.126,13.271 30.101,13.299 30.076,13.327 30.052,13.356 30.028,13.384 30.004,13.413 29.980,13.442 29.957,13.472 29.934,13.501 29.911,13.531 29.888,13.561 29.866,13.591 29.844,13.622 29.823,13.653 29.802,13.683 29.781,13.714 29.760,13.746 29.739,13.777 29.719,13.809 29.700,13.841 29.680,13.873 29.661,13.905 29.642,13.938 29.624,13.970 29.606,14.003 29.588,14.036 29.570,14.069 29.553,14.102 29.536,14.136 29.519,14.169 29.503,14.203 29.487,14.237 29.472,14.271 29.456,14.306 29.441,14.340 29.427,14.375 29.413,14.409 29.399,14.444 29.385,14.479 29.372,14.514 29.359,14.549 29.347,14.585 29.334,14.620 29.322,14.656 29.311,14.691 29.300,14.727 29.289,14.763 29.279,14.799 29.268,14.835 29.259,14.871 29.249,14.908 29.240,14.944 29.231,14.981 29.223,15.017 29.215,15.054 29.208,15.090 29.200,15.127 29.193,15.164 29.187,15.201 29.181,15.238 29.175,15.275 29.169,15.312 29.164,15.349 29.159,15.387 29.155,15.424 29.151,15.461 29.147,15.498 29.144,15.536 29.141,15.573 29.138,15.610 29.136,15.648 29.134,15.685 29.133,15.723 29.131,15.760 29.131,15.798 29.130,15.835 29.130,15.873 29.130,15.910 29.130,15.948 29.130,15.985 29.131,16.023 29.131,16.060 29.132,16.098 29.132,16.135 29.133,16.173 29.133,16.210 29.134,16.248 29.134,16.285 29.135,16.323 29.136,16.360 29.136,16.398 29.137,16.435 29.137,16.473 29.138,16.510 29.139,16.548 29.139,16.585 29.140,16.623 29.140,16.660 29.141,16.698 29.141,16.735 29.142,16.773 29.143,16.810 29.143,16.848 29.144,16.885 29.144,16.923 29.145,16.960 29.146,16.998 29.146,17.035 29.147,17.073 29.147,17.110 29.148,17.148 29.148,17.185 29.149,17.223 29.150,17.260 29.150,17.298 29.151,17.335 29.151,17.373 29.152,17.410 29.153,17.448 29.153,17.485 29.154,17.523 29.154,17.560 29.155,17.598 29.155,17.635 29.156,17.673 29.157,17.710 29.157,17.748 29.158,17.785 29.158,17.823 29.159,17.860 29.159,17.898 29.160,17.935 29.161,17.973 29.161,18.010 29.162,18.048 29.162,18.085 29.163,18.123 29.164,18.160 29.164,18.198 29.165,18.235 29.165,18.273 29.166,18.310 29.166,18.348 29.167,18.385 29.168,18.422 29.168,18.460 29.169,18.497 29.169,18.534 29.170,18.571 29.171,18.608 29.171,18.644 29.172,18.680 29.172,18.717 29.173,18.752 29.173,18.788 29.174,18.823 29.174,18.859 29.175,18.893 29.175,18.928 29.176,18.962 29.177,18.996 29.177,19.030 29.178,19.063 29.178,19.097 29.179,19.129 29.179,19.162 29.180,19.194 29.180,19.226 29.181,19.258 29.181,19.289 29.182,19.320 29.182,19.351 29.183,19.382 29.183,19.412 29.183,19.442 29.184,19.472 29.184,19.501 29.185,19.530 29.185,19.559 29.186,19.587 29.186,19.615 29.187,19.643 29.187,19.671 29.187,19.698 29.188,19.726 29.188,19.752 29.189,19.779 29.189,19.805 29.189,19.831 29.190,19.857 29.190,19.883 29.191,19.908 29.191,19.933 29.191,19.958 29.192,19.982 29.192,20.006 29.193,20.030 29.193,20.054 29.193,20.078 29.194,20.101 29.194,20.124 29.194,20.147 29.195,20.170 29.195,20.192 29.195,20.214 29.196,20.236 29.196,20.258 29.196,20.279 29.197,20.300 29.197,20.321 29.197,20.342 29.198,20.363 29.198,20.383 29.198,20.403 29.199,20.423 29.199,20.443 29.199,20.463 29.200,20.482 29.200,20.502 29.200,20.521 29.200,20.539 29.201,20.558 29.201,20.577 29.201,20.595 29.202,20.614 29.202,20.632 29.202,20.650 29.202,20.668 29.203,20.687 29.203,20.705 29.203,20.723 29.204,20.740 29.204,20.758 29.204,20.776 29.204,20.794 29.205,20.812 29.205,20.830 29.205,20.847 29.206,20.865 29.206,20.883 29.206,20.900 29.206,20.918 29.207,20.936 29.207,20.953 29.207,20.971 29.207,20.988 29.208,21.006 29.208,21.024 29.208,21.041 29.209,21.059 29.209,21.076 29.209,21.094 29.209,21.111 29.210,21.129 29.210,21.147 29.210,21.164 29.210,21.182 29.211,21.199 29.211,21.217 29.211,21.234 29.212,21.252 29.212,21.269 29.212,21.287 29.212,21.304 29.213,21.322 29.213,21.339 29.213,21.357 29.213,21.374 29.214,21.392 29.214,21.409 29.214,21.427 29.215,21.444 29.215,21.462 29.215,21.479 29.215,21.497 29.216,21.514 29.216,21.532 29.216,21.549 29.216,21.567 29.217,21.584 29.217,21.602 29.217,21.619 29.217,21.637 29.218,21.654 29.218,21.672 29.218,21.689 29.219,21.707 29.219,21.724 29.219,21.742 29.219,21.759 29.220,21.777 29.220,21.794 29.220,21.812 29.220,21.829 29.221,21.847 29.221,21.864 29.221,21.882 29.222,21.899 29.222,21.917 29.222,21.934 29.222,21.952 29.223,21.969 29.223,21.987 29.223,22.004 29.223,22.022 29.224,22.039 29.224,22.057 29.224,22.074 29.225,22.092 29.225,22.109 29.225,22.127 29.225,22.144 29.226,22.162 29.226,22.179 29.226,22.197 29.226,22.214 29.227,22.232 29.227,22.249 29.227,22.267"/>
<polygon fill="#1f77b4" fill-opacity="0.140" stroke="#1f77b4" stroke-opacity="0.55" stroke-width="0.07" points="6.408,13.000 6.408,11.000 1.608,11.000 1.608,13.000"/>
<polygon fill="#1f77b4" fill-opacity="0.140" stroke="#1f77b4" stroke-opacity="0.55" stroke-width="0.07" points="7.269,13.000 7.269,11.000 2.469,11.000 2.469,13.000"/>
<polygon fill="#1f77b4" fill-opacity="0.140" stroke="#1f77b4" stroke-opacity="0.55" stroke-width="0.07" points="8.584,13.000 8.584,11.000 3.784,11.000 3.784,13.000"/>
<polygon fill="#1f77b4" fill-opacity="0.140" stroke="#1f77b4" stroke-opacity="0.55" stroke-width="0.07" points="9.967,13.000 9.967,11.000 5.167,11.000 5.167,13.000"/>
<polygon fill="#1f77b4" fill-opacity="0.140" stroke="#1f77b4" stroke-opacity="0.55" stroke-width="0.07" points="11.360,13.000 11.360,11.000 6.560,11.000 6.560,13.000"/>
<polygon fill="#1f77b4" fill-opacity="0.140" stroke="#1f77b4" stroke-opacity="0.55" stroke-width="0.07" points="12.755,13.000 12.755,11.000 7.955,11.000 7.955,13.000"/>
<polygon fill="#1f77b4" fill-opacity="0.140" stroke="#1f77b4" stroke-opacity="0.55" stroke-width="0.07" points="14.150,13.000 14.150,11.000 9.350,11.000 9.350,13.000"/>
<polygon fill="#1f77b4" fill-opacity="0.140" stroke="#1f77b4" stroke-opacity="0.55" stroke-width="0.07" points="15.545,13.000 15.545,11.000 10.745,11.000 10.745,13.000"/>
<polygon fill="#1f77b4" fill-opacity="0.140" stroke="#1f77b4" stroke-opacity="0.55" stroke-width="0.07" points="16.940,13.000 16.940,11.000 12.140,11.000 12.140,13.000"/>
<polygon fill="#1f77b4" fill-opacity="0.140" stroke="#1f77b4" stroke-opacity="0.55" stroke-width="0.07" points="18.335,13.000 18.335,11.000 13.535,11.000 13.535,13.000"/>
<polygon fill="#1f77b4" fill-opacity="0.140" stroke="#1f77b4" stroke-opacity="0.55" stroke-width="0.07" points="19.730,13.000 19.730,11.000 14.930,11.000 14.930,13.000"/>
<polygon fill="#1f77b4" fill-opacity="0.140" stroke="#1f77b4" stroke-opacity="0.55" stroke-width="0.07" points="21.125,13.000 21.125,11.000 16.325,11.000 16.325,13.000"/>
<polygon fill="#1f77b4" fill-opacity="0.140" stroke="#1f77b4" stroke-opacity="0.55" stroke-width="0.07" points="22.520,13.000 22.520,11.000 17.720,11.000 17.720,13.000"/>
<polygon fill="#1f77b4" fill-opacity="0.140" stroke="#1f77b4" stroke-opacity="0.55" stroke-width="0.07" points="23.915,13.000 23.915,11.000 19.115,11.000 19.115,13.000"/>
<polygon fill="#1f77b4" fill-opacity="0.140" stroke="#1f77b4" stroke-opacity="0.55" stroke-width="0.07" points="25.310,13.000 25.310,11.000 20.510,11.000 20.510,13.000"/>
<polygon fill="#1f77b4" fill-opacity="0.140" stroke="#1f77b4" stroke-opacity="0.55" stroke-width="0.07" points="26.705,13.000 26.705,11.000 21.905,11.000 21.905,13.000"/>
<polygon fill="#1f77b4" fill-opacity="0.140" stroke="#1f77b4" stroke-opacity="0.55" stroke-width="0.07" points="28.100,13.000 28.100,11.000 23.300,11.000 23.300,13.000"/>
<polygon fill="#1f77b4" fill-opacity="0.140" stroke="#1f77b4" stroke-opacity="0.55" stroke-width="0.07" points="29.495,13.000 29.495,11.000 24.695,11.000 24.695,13.000"/>
<polygon fill="#1f77b4" fill-opacity="0.140" stroke="#1f77b4" stroke-opacity="0.55" stroke-width="0.07" points="30.890,13.000 30.890,11.000 26.090,11.000 26.090,13.000"/>
<polygon fill="#1f77b4" fill-opacity="0.140" stroke="#1f77b4" stroke-opacity="0.55" stroke-width="0.07" points="32.284,13.000 32.284,11.000 27.484,11.000 27.484,13.000"/>
<polygon fill="#1f77b4" fill-opacity="0.140" stroke="#1f77b4" stroke-opacity="0.55" stroke-width="0.07" points="33.521,13.000 33.521,11.000 28.721,11.000 28.721,13.000"/>
<polygon fill="#1f77b4" fill-opacity="0.140" stroke="#1f77b4" stroke-opacity="0.55" stroke-width="0.07" points="34.404,13.000 34.404,11.000 29.604,11.000 29.604,13.000"/>
<polygon fill="#1f77b4" fill-opacity="0.140" stroke="#1f77b4" stroke-opacity="0.55" stroke-width="0.07" points="34.986,13.000 34.986,11.000 30.186,11.000 30.186,13.000"/>
<polygon fill="#1f77b4" fill-opacity="0.140" stroke="#1f77b4" stroke-opacity="0.55" stroke-width="0.07" points="35.371,13.000 35.371,11.000 30.571,11.000 30.571,13.000"/>
<polygon fill="#1f77b4" fill-opacity="0.140" stroke="#1f77b4" stroke-opacity="0.55" stroke-width="0.07" points="35.464,13.000 35.464,11.000 30.664,11.000 30.664,13.000"/>
<polygon fill="#ff7f0e" fill-opacity="0.160" stroke="#ff7f0e" stroke-opacity="0.55" stroke-width="0.07" points="35.460,13.000 35.460,11.000 30.660,11.000 30.660,13.000"/>
<polygon fill="#ff7f0e" fill-opacity="0.160" stroke="#ff7f0e" stroke-opacity="0.55" stroke-width="0.07" points="35.127,12.786 34.939,10.795 30.160,11.246 30.348,13.237"/>
<polygon fill="#ff7f0e" fill-opacity="0.160" stroke="#ff7f0e" stroke-opacity="0.55" stroke-width="0.07" points="34.593,12.477 34.081,10.543 29.441,11.773 29.953,13.706"/>
<polygon fill="#ff7f0e" fill-opacity="0.160" stroke="#ff7f0e" stroke-opacity="0.55" stroke-width="0.07" points="33.986,12.250 33.147,10.434 28.789,12.446 29.628,14.262"/>
<polygon fill="#ff7f0e" fill-opacity="0.160" stroke="#ff7f0e" stroke-opacity="0.55" stroke-width="0.07" points="33.343,12.131 32.202,10.489 28.260,13.228 29.401,14.871"/>
<polygon fill="#ff7f0e" fill-opacity="0.160" stroke="#ff7f0e" stroke-opacity="0.55" stroke-width="0.07" points="32.689,12.126 31.279,10.708 27.874,14.091 29.284,15.510"/>
<polygon fill="#ff7f0e" fill-opacity="0.160" stroke="#ff7f0e" stroke-opacity="0.55" stroke-width="0.07" points="32.044,12.235 30.408,11.084 27.645,15.009 29.280,16.160"/>
<polygon fill="#ff7f0e" fill-opacity="0.160" stroke="#ff7f0e" stroke-opacity="0.55" stroke-width="0.07" points="31.427,12.455 29.616,11.606 27.579,15.952 29.390,16.801"/>
<polygon fill="#ff7f0e" fill-opacity="0.160" stroke="#ff7f0e" stroke-opacity="0.55" stroke-width="0.07" points="30.859,12.778 28.928,12.258 27.678,16.892 29.609,17.413"/>
<polygon fill="#ff7f0e" fill-opacity="0.160" stroke="#ff7f0e" stroke-opacity="0.55" stroke-width="0.07" points="30.356,13.196 28.364,13.019 27.939,17.800 29.931,17.977"/>
<polygon fill="#ff7f0e" fill-opacity="0.160" stroke="#ff7f0e" stroke-opacity="0.55" stroke-width="0.07" points="30.095,13.758 28.096,13.789 28.170,18.588 30.170,18.557"/>
<polygon fill="#ff7f0e" fill-opacity="0.160" stroke="#ff7f0e" stroke-opacity="0.55" stroke-width="0.07" points="30.106,14.432 28.106,14.464 28.181,19.263 30.180,19.232"/>
<polygon fill="#ff7f0e" fill-opacity="0.160" stroke="#ff7f0e" stroke-opacity="0.55" stroke-width="0.07" points="30.116,15.107 28.117,15.138 28.191,19.938 30.191,19.907"/>
<polygon fill="#ff7f0e" fill-opacity="0.160" stroke="#ff7f0e" stroke-opacity="0.55" stroke-width="0.07" points="30.127,15.782 28.127,15.813 28.201,20.613 30.201,20.582"/>
<polygon fill="#ff7f0e" fill-opacity="0.160" stroke="#ff7f0e" stroke-opacity="0.55" stroke-width="0.07" points="30.137,16.443 28.137,16.474 28.212,21.274 30.212,21.243"/>
<polygon fill="#ff7f0e" fill-opacity="0.160" stroke="#ff7f0e" stroke-opacity="0.55" stroke-width="0.07" points="30.146,17.027 28.146,17.058 28.221,21.857 30.221,21.826"/>
<polygon fill="#ff7f0e" fill-opacity="0.160" stroke="#ff7f0e" stroke-opacity="0.55" stroke-width="0.07" points="30.154,17.518 28.154,17.549 28.228,22.348 30.228,22.317"/>
<polygon fill="#ff7f0e" fill-opacity="0.160" stroke="#ff7f0e" stroke-opacity="0.55" stroke-width="0.07" points="30.160,17.927 28.160,17.958 28.235,22.757 30.235,22.726"/>
<polygon fill="#ff7f0e" fill-opacity="0.160" stroke="#ff7f0e" stroke-opacity="0.55" stroke-width="0.07" points="30.165,18.271 28.166,18.302 28.240,23.102 30.240,23.071"/>
<polygon fill="#ff7f0e" fill-opacity="0.160" stroke="#ff7f0e" stroke-opacity="0.55" stroke-width="0.07" points="30.170,18.591 28.171,18.622 28.245,23.421 30.245,23.390"/>
<polygon fill="#ff7f0e" fill-opacity="0.160" stroke="#ff7f0e" stroke-opacity="0.55" stroke-width="0.07" points="30.175,18.907 28.176,18.938 28.250,23.737 30.250,23.706"/>
<polygon fill="#ff7f0e" fill-opacity="0.160" stroke="#ff7f0e" stroke-opacity="0.55" stroke-width="0.07" points="30.180,19.222 28.180,19.253 28.255,24.052 30.255,24.021"/>
<polygon fill="#ff7f0e" fill-opacity="0.160" stroke="#ff7f0e" stroke-opacity="0.55" stroke-width="0.07" points="30.185,19.537 28.185,19.568 28.260,24.367 30.259,24.336"/>
<polygon fill="#ff7f0e" fill-opacity="0.160" stroke="#ff7f0e" stroke-opacity="0.55" stroke-width="0.07" points="30.190,19.852 28.190,19.883 28.265,24.682 30.264,24.651"/>
<polygon fill="#ff7f0e" fill-opacity="0.160" stroke="#ff7f0e" stroke-opacity="0.55" stroke-width="0.07" points="30.190,19.852 28.190,19.883 28.265,24.682 30.264,24.651"/>
<polygon fill="none" stroke="crimson" stroke-width="0.120" points="30.190,19.852 28.190,19.883 28.265,24.682 30.264,24.651"/>
</g>
</svg>
