<?xml version="1.0" encoding="UTF-8"?>
<svg xmlns="http://www.w3.org/2000/svg" width="1400" height="900" viewBox="0 -3 75 53">
<rect x="0" y="-3" width="75" height="53" fill="white"/>
<text x="1.5" y="-1.35" font-size="1.15" fill="black">Parking | target row=2 idx=9 | success=true sim_ok=true | max_steer=35 deg | overshoot~=5 m | total(ref)~=7e+01 m</text>
<text x="1.5" y="-0.45" font-size="0.95" fill="black">ok</text>
<g transform="translate(0,50.000) scale(1,-1)">
<rect x="0" y="0" width="75.000" height="50.000" fill="none" stroke="black" stroke-width="0.15"/>
<rect x="0.000" y="9.000" width="75.000" height="6.000" fill="#add8e6" fill-opacity="0.25" stroke="#add8e6" stroke-width="0.08"/>
<rect x="0.000" y="34.500" width="75.000" height="6.000" fill="#add8e6" fill-opacity="0.25" stroke="#add8e6" stroke-width="0.08"/>
<rect x="60.000" y="12.000" width="6.000" height="25.500" fill="#90ee90" fill-opacity="0.25" stroke="#90ee90" stroke-width="0.08"/>
<rect x="12.000" y="44.000" width="4.800" height="6.000" fill="white" stroke="gray" stroke-width="0.080" fill-opacity="0.85"/>
<rect x="16.800" y="44.000" width="4.800" height="6.000" fill="white" stroke="gray" stroke-width="0.080" fill-opacity="0.85"/>
<rect x="21.600" y="44.000" width="4.800" height="6.000" fill="black" stroke="gray" stroke-width="0.080" fill-opacity="0.95"/>
<rect x="26.400" y="44.000" width="4.800" height="6.000" fill="black" stroke="gray" stroke-width="0.080" fill-opacity="0.95"/>
<rect x="31.200" y="44.000" width="4.800" height="6.000" fill="white" stroke="gray" stroke-width="0.080" fill-opacity="0.85"/>
<rect x="36.000" y="44.000" width="4.800" height="6.000" fill="white" stroke="gray" stroke-width="0.080" fill-opacity="0.85"/>
<rect x="40.800" y="44.000" width="4.800" height="6.000" fill="white" stroke="gray" stroke-width="0.080" fill-opacity="0.85"/>
<rect x="45.600" y="44.000" width="4.800" height="6.000" fill="white" stroke="gray" stroke-width="0.080" fill-opacity="0.85"/>
<rect x="50.400" y="44.000" width="4.800" height="6.000" fill="black" stroke="gray" stroke-width="0.080" fill-opacity="0.95"/>
<rect x="55.200" y="44.000" width="4.800" height="6.000" fill="white" stroke="gray" stroke-width="0.080" fill-opacity="0.85"/>
<rect x="12.000" y="25.000" width="4.800" height="6.000" fill="black" stroke="gray" stroke-width="0.080" fill-opacity="0.95"/>
<rect x="16.800" y="25.000" width="4.800" height="6.000" fill="black" stroke="gray" stroke-width="0.080" fill-opacity="0.95"/>
<rect x="21.600" y="25.000" width="4.800" height="6.000" fill="black" stroke="gray" stroke-width="0.080" fill-opacity="0.95"/>
<rect x="26.400" y="25.000" width="4.800" height="6.000" fill="white" stroke="gray" stroke-width="0.080" fill-opacity="0.85"/>
<rect x="31.200" y="25.000" width="4.800" height="6.000" fill="white" stroke="gray" stroke-width="0.080" fill-opacity="0.85"/>
<rect x="36.000" y="25.000" width="4.800" height="6.000" fill="black" stroke="gray" stroke-width="0.080" fill-opacity="0.95"/>
<rect x="40.800" y="25.000" width="4.800" height="6.000" fill="white" stroke="gray" stroke-width="0.080" fill-opacity="0.85"/>
<rect x="45.600" y="25.000" width="4.800" height="6.000" fill="black" stroke="gray" stroke-width="0.080" fill-opacity="0.95"/>
<rect x="50.400" y="25.000" width="4.800" height="6.000" fill="white" stroke="gray" stroke-width="0.080" fill-opacity="0.85"/>
<rect x="55.200" y="25.000" width="4.800" height="6.000" fill="white" stroke="gray" stroke-width="0.080" fill-opacity="0.85"/>
<rect x="12.000" y="19.000" width="4.800" height="6.000" fill="white" stroke="gray" stroke-width="0.080" fill-opacity="0.85"/>
<rect x="16.800" y="19.000" width="4.800" height="6.000" fill="white" stroke="gray" stroke-width="0.080" fill-opacity="0.85"/>
<rect x="21.600" y="19.000" width="4.800" height="6.000" fill="white" stroke="gray" stroke-width="0.080" fill-opacity="0.85"/>
<rect x="26.400" y="19.000" width="4.800" height="6.000" fill="white" stroke="gray" stroke-width="0.080" fill-opacity="0.85"/>
<rect x="31.200" y="19.000" width="4.800" height="6.000" fill="black" stroke="gray" stroke-width="0.080" fill-opacity="0.95"/>
<rect x="36.000" y="19.000" width="4.800" height="6.000" fill="white" stroke="gray" stroke-width="0.080" fill-opacity="0.85"/>
<rect x="40.800" y="19.000" width="4.800" height="6.000" fill="white" stroke="gray" stroke-width="0.080" fill-opacity="0.85"/>
<rect x="45.600" y="19.000" width="4.800" height="6.000" fill="white" stroke="gray" stroke-width="0.080" fill-opacity="0.85"/>
<rect x="50.400" y="19.000" width="4.800" height="6.000" fill="black" stroke="gray" stroke-width="0.080" fill-opacity="0.95"/>
<rect x="55.200" y="19.000" width="4.800" height="6.000" fill="#98fb98" stroke="darkgreen" stroke-width="0.180" fill-opacity="0.85"/>
<rect x="12.000" y="0.000" width="4.800" height="6.000" fill="white" stroke="gray" stroke-width="0.080" fill-opacity="0.85"/>
<rect x="16.800" y="0.000" width="4.800" height="6.000" fill="white" stroke="gray" stroke-width="0.080" fill-opacity="0.85"/>
<rect x="21.600" y="0.000" width="4.800" height="6.000" fill="black" stroke="gray" stroke-width="0.080" fill-opacity="0.95"/>
<rect x="26.400" y="0.000" width="4.800" height="6.000" fill="white" stroke="gray" stroke-width="0.080" fill-opacity="0.85"/>
<rect x="31.200" y="0.000" width="4.800" height="6.000" fill="black" stroke="gray" stroke-width="0.080" fill-opacity="0.95"/>
<rect x="36.000" y="0.000" width="4.800" height="6.000" fill="white" stroke="gray" stroke-width="0.080" fill-opacity="0.85"/>
<rect x="40.800" y="0.000" width="4.800" height="6.000" fill="black" stroke="gray" stroke-width="0.080" fill-opacity="0.95"/>
<rect x="45.600" y="0.000" width="4.800" height="6.000" fill="white" stroke="gray" stroke-width="0.080" fill-opacity="0.85"/>
<rect x="50.400" y="0.000" width="4.800" height="6.000" fill="white" stroke="gray" stroke-width="0.080" fill-opacity="0.85"/>
<rect x="55.200" y="0.000" width="4.800" height="6.000" fill="white" stroke="gray" stroke-width="0.080" fill-opacity="0.85"/>
<polygon fill="none" stroke="navy" stroke-width="0.120" points="6.400,13.000 6.400,11.000 1.600,11.000 1.600,13.000"/>
<polygon fill="purple" points="54.820,12.000 55.100,12.350 55.380,12.000 55.100,11.650"/>
<circle cx="62.400" cy="12.000" r="0.38" fill="darkviolet" stroke="indigo" stroke-width="0.06"/>
<polyline fill="none" stroke="#808080" stroke-width="0.120" stroke-opacity="0.65" stroke-dasharray="0.45 0.35" points="4.000,12.000 55.100,12.000 62.400,12.000"/>
<polyline fill="none" stroke="#808080" stroke-width="0.120" stroke-opacity="0.65" stroke-dasharray="0.45 0.35" points="62.400,12.000 62.226,12.180 62.055,12.364 61.889,12.553 61.726,12.747 61.566,12.944 61.411,13.146 61.259,13.351 61.111,13.559 60.966,13.771 60.825,13.987 60.687,14.205 60.552,14.425 60.421,14.649 60.293,14.874 60.168,15.102 60.047,15.332 59.928,15.563 59.813,15.796 59.701,16.030 59.591,16.265 59.485,16.501 59.382,16.738 59.281,16.976 59.183,17.213 59.088,17.451 58.996,17.689 58.906,17.926 58.819,18.163 58.735,18.399 58.653,18.635 58.574,18.869 58.497,19.102 58.422,19.333 58.350,19.563 58.280,19.790 58.212,20.016 58.146,20.239 58.083,20.460 58.021,20.678 57.962,20.893 57.905,21.105 57.849,21.314 57.796,21.519 57.744,21.720 57.694,21.918 57.646,22.111 57.600,22.300"/>
<polyline fill="none" stroke="#1f77b4" stroke-width="0.220" stroke-opacity="0.95" points="4.008,12.000 4.022,12.000 4.043,12.000 4.070,12.000 4.102,12.000 4.138,12.000 4.179,12.000 4.223,12.000 4.270,12.000 4.321,12.000 4.374,12.000 4.429,12.000 4.487,12.000 4.547,12.000 4.609,12.000 4.672,12.000 4.736,12.000 4.802,12.000 4.869,12.000 4.937,12.000 5.006,12.000 5.076,12.000 5.147,12.000 5.218,12.000 5.290,12.000 5.363,12.000 5.436,12.000 5.509,12.000 5.583,12.000 5.657,12.000 5.732,12.000 5.806,12.000 5.882,12.000 5.957,12.000 6.032,12.000 6.108,12.000 6.184,12.000 6.260,12.000 6.336,12.000 6.413,12.000 6.489,12.000 6.566,12.000 6.643,12.000 6.719,12.000 6.796,12.000 6.873,12.000 6.950,12.000 7.027,12.000 7.104,12.000 7.181,12.000 7.258,12.000 7.335,12.000 7.413,12.000 7.490,12.000 7.567,12.000 7.644,12.000 7.722,12.000 7.799,12.000 7.876,12.000 7.954,12.000 8.031,12.000 8.109,12.000 8.186,12.000 8.263,12.000 8.341,12.000 8.418,12.000 8.496,12.000 8.573,12.000 8.650,12.000 8.728,12.000 8.805,12.000 8.883,12.000 8.960,12.000 9.038,12.000 9.115,12.000 9.193,12.000 9.270,12.000 9.348,12.000 9.425,12.000 9.503,12.000 9.580,12.000 9.658,12.000 9.735,12.000 9.813,12.000 9.890,12.000 9.968,12.000 10.045,12.000 10.123,12.000 10.200,12.000 10.278,12.000 10.355,12.000 10.433,12.000 10.510,12.000 10.588,12.000 10.665,12.000 10.743,12.000 10.820,12.000 10.898,12.000 10.975,12.000 11.053,12.000 11.130,12.000 11.208,12.000 11.285,12.000 11.363,12.000 11.440,12.000 11.518,12.000 11.595,12.000 11.673,12.000 11.750,12.000 11.828,12.000 11.905,12.000 11.983,12.000 12.060,12.000 12.138,12.000 12.215,12.000 12.293,12.000 12.370,12.000 12.448,12.000 12.525,12.000 12.603,12.000 12.680,12.000 12.758,12.000 12.835,12.000 12.913,12.000 12.990,12.000 13.068,12.000 13.145,12.000 13.223,12.000 13.300,12.000 13.378,12.000 13.455,12.000 13.533,12.000 13.610,12.000 13.688,12.000 13.765,12.000 13.843,12.000 13.920,12.000 13.998,12.000 14.075,12.000 14.153,12.000 14.230,12.000 14.308,12.000 14.385,12.000 14.463,12.000 14.540,12.000 14.618,12.000 14.695,12.000 14.773,12.000 14.850,12.000 14.928,12.000 15.005,12.000 15.083,12.000 15.160,12.000 15.238,12.000 15.315,12.000 15.393,12.000 15.470,12.000 15.548,12.000 15.625,12.000 15.703,12.000 15.780,12.000 15.858,12.000 15.935,12.000 16.013,12.000 16.090,12.000 16.168,12.000 16.245,12.000 16.323,12.000 16.400,12.000 16.478,12.000 16.555,12.000 16.633,12.000 16.710,12.000 16.788,12.000 16.865,12.000 16.943,12.000 17.020,12.000 17.098,12.000 17.175,12.000 17.253,12.000 17.330,12.000 17.408,12.000 17.485,12.000 17.563,12.000 17.640,12.000 17.718,12.000 17.795,12.000 17.873,12.000 17.950,12.000 18.028,12.000 18.105,12.000 18.183,12.000 18.260,12.000 18.338,12.000 18.415,12.000 18.493,12.000 18.570,12.000 18.648,12.000 18.725,12.000 18.803,12.000 18.880,12.000 18.958,12.000 19.035,12.000 19.113,12.000 19.190,12.000 19.268,12.000 19.345,12.000 19.423,12.000 19.500,12.000 19.578,12.000 19.655,12.000 19.733,12.000 19.810,12.000 19.888,12.000 19.965,12.000 20.043,12.000 20.120,12.000 20.198,12.000 20.275,12.000 20.353,12.000 20.430,12.000 20.508,12.000 20.585,12.000 20.663,12.000 20.740,12.000 20.818,12.000 20.895,12.000 20.973,12.000 21.050,12.000 21.128,12.000 21.205,12.000 21.283,12.000 21.360,12.000 21.438,12.000 21.515,12.000 21.593,12.000 21.670,12.000 21.748,12.000 21.825,12.000 21.903,12.000 21.980,12.000 22.058,12.000 22.135,12.000 22.213,12.000 22.290,12.000 22.368,12.000 22.445,12.000 22.523,12.000 22.600,12.000 22.678,12.000 22.755,12.000 22.833,12.000 22.910,12.000 22.988,12.000 23.065,12.000 23.143,12.000 23.220,12.000 23.298,12.000 23.375,12.000 23.453,12.000 23.530,12.000 23.608,12.000 23.685,12.000 23.763,12.000 23.840,12.000 23.918,12.000 23.995,12.000 24.073,12.000 24.150,12.000 24.228,12.000 24.305,12.000 24.383,12.000 24.460,12.000 24.538,12.000 24.615,12.000 24.693,12.000 24.770,12.000 24.848,12.000 24.925,12.000 25.003,12.000 25.080,12.000 25.158,12.000 25.235,12.000 25.313,12.000 25.390,12.000 25.468,12.000 25.545,12.000 25.623,12.000 25.700,12.000 25.778,12.000 25.855,12.000 25.933,12.000 26.010,12.000 26.088,12.000 26.165,12.000 26.243,12.000 26.320,12.000 26.398,12.000 26.475,12.000 26.553,12.000 26.630,12.000 26.708,12.000 26.785,12.000 26.863,12.000 26.940,12.000 27.018,12.000 27.095,12.000 27.173,12.000 27.250,12.000 27.328,12.000 27.405,12.000 27.483,12.000 27.560,12.000 27.638,12.000 27.715,12.000 27.793,12.000 27.870,12.000 27.948,12.000 28.025,12.000 28.103,12.000 28.180,12.000 28.258,12.000 28.335,12.000 28.413,12.000 28.490,12.000 28.568,12.000 28.645,12.000 28.723,12.000 28.800,12.000 28.878,12.000 28.955,12.000 29.033,12.000 29.110,12.000 29.188,12.000 29.265,12.000 29.343,12.000 29.420,12.000 29.498,12.000 29.575,12.000 29.653,12.000 29.730,12.000 29.808,12.000 29.885,12.000 29.963,12.000 30.040,12.000 30.118,12.000 30.195,12.000 30.273,12.000 30.350,12.000 30.428,12.000 30.505,12.000 30.583,12.000 30.660,12.000 30.738,12.000 30.815,12.000 30.893,12.000 30.970,12.000 31.048,12.000 31.125,12.000 31.203,12.000 31.280,12.000 31.358,12.000 31.435,12.000 31.513,12.000 31.590,12.000 31.668,12.000 31.745,12.000 31.823,12.000 31.900,12.000 31.978,12.000 32.055,12.000 32.133,12.000 32.210,12.000 32.288,12.000 32.365,12.000 32.443,12.000 32.520,12.000 32.598,12.000 32.675,12.000 32.753,12.000 32.830,12.000 32.908,12.000 32.985,12.000 33.063,12.000 33.140,12.000 33.218,12.000 33.295,12.000 33.373,12.000 33.450,12.000 33.528,12.000 33.605,12.000 33.683,12.000 33.760,12.000 33.838,12.000 33.915,12.000 33.993,12.000 34.070,12.000 34.148,12.000 34.225,12.000 34.303,12.000 34.380,12.000 34.458,12.000 34.535,12.000 34.613,12.000 34.690,12.000 34.768,12.000 34.845,12.000 34.923,12.000 35.000,12.000 35.078,12.000 35.155,12.000 35.233,12.000 35.310,12.000 35.388,12.000 35.465,12.000 35.543,12.000 35.620,12.000 35.698,12.000 35.775,12.000 35.853,12.000 35.930,12.000 36.008,12.000 36.085,12.000 36.163,12.000 36.240,12.000 36.318,12.000 36.395,12.000 36.473,12.000 36.550,12.000 36.628,12.000 36.705,12.000 36.783,12.000 36.860,12.000 36.938,12.000 37.015,12.000 37.093,12.000 37.170,12.000 37.248,12.000 37.325,12.000 37.403,12.000 37.480,12.000 37.558,12.000 37.635,12.000 37.713,12.000 37.790,12.000 37.868,12.000 37.945,12.000 38.023,12.000 38.100,12.000 38.178,12.000 38.255,12.000 38.333,12.000 38.410,12.000 38.488,12.000 38.565,12.000 38.643,12.000 38.720,12.000 38.798,12.000 38.875,12.000 38.953,12.000 39.030,12.000 39.108,12.000 39.185,12.000 39.263,12.000 39.340,12.000 39.418,12.000 39.495,12.000 39.573,12.000 39.650,12.000 39.728,12.000 39.805,12.000 39.883,12.000 39.960,12.000 40.038,12.000 40.115,12.000 40.193,12.000 40.270,12.000 40.348,12.000 40.425,12.000 40.503,12.000 40.580,12.000 40.658,12.000 40.735,12.000 40.813,12.000 40.890,12.000 40.968,12.000 41.045,12.000 41.123,12.000 41.200,12.000 41.278,12.000 41.355,12.000 41.433,12.000 41.510,12.000 41.588,12.000 41.665,12.000 41.743,12.000 41.820,12.000 41.898,12.000 41.975,12.000 42.053,12.000 42.130,12.000 42.208,12.000 42.285,12.000 42.363,12.000 42.440,12.000 42.518,12.000 42.595,12.000 42.673,12.000 42.750,12.000 42.828,12.000 42.905,12.000 42.983,12.000 43.060,12.000 43.138,12.000 43.215,12.000 43.293,12.000 43.370,12.000 43.448,12.000 43.525,12.000 43.603,12.000 43.680,12.000 43.758,12.000 43.835,12.000 43.913,12.000 43.990,12.000 44.068,12.000 44.145,12.000 44.223,12.000 44.300,12.000 44.378,12.000 44.455,12.000 44.533,12.000 44.610,12.000 44.688,12.000 44.765,12.000 44.843,12.000 44.920,12.000 44.998,12.000 45.075,12.000 45.153,12.000 45.230,12.000 45.308,12.000 45.385,12.000 45.463,12.000 45.540,12.000 45.618,12.000 45.695,12.000 45.773,12.000 45.850,12.000 45.928,12.000 46.005,12.000 46.083,12.000 46.160,12.000 46.238,12.000 46.315,12.000 46.393,12.000 46.470,12.000 46.548,12.000 46.625,12.000 46.703,12.000 46.780,12.000 46.858,12.000 46.935,12.000 47.013,12.000 47.090,12.000 47.168,12.000 47.245,12.000 47.323,12.000 47.400,12.000 47.478,12.000 47.555,12.000 47.633,12.000 47.710,12.000 47.788,12.000 47.865,12.000 47.943,12.000 48.020,12.000 48.098,12.000 48.175,12.000 48.253,12.000 48.330,12.000 48.408,12.000 48.485,12.000 48.563,12.000 48.640,12.000 48.718,12.000 48.795,12.000 48.873,12.000 48.950,12.000 49.028,12.000 49.105,12.000 49.183,12.000 49.260,12.000 49.338,12.000 49.415,12.000 49.493,12.000 49.570,12.000 49.648,12.000 49.725,12.000 49.803,12.000 49.880,12.000 49.958,12.000 50.035,12.000 50.113,12.000 50.190,12.000 50.268,12.000 50.345,12.000 50.423,12.000 50.500,12.000 50.578,12.000 50.655,12.000 50.733,12.000 50.810,12.000 50.888,12.000 50.965,12.000 51.043,12.000 51.120,12.000 51.198,12.000 51.275,12.000 51.353,12.000 51.430,12.000 51.508,12.000 51.585,12.000 51.663,12.000 51.740,12.000 51.818,12.000 51.895,12.000 51.973,12.000 52.050,12.000 52.128,12.000 52.205,12.000 52.283,12.000 52.360,12.000 52.438,12.000 52.515,12.000 52.593,12.000 52.670,12.000 52.748,12.000 52.825,12.000 52.903,12.000 52.980,12.000 53.058,12.000 53.135,12.000 53.213,12.000 53.290,12.000 53.368,12.000 53.445,12.000 53.523,12.000 53.600,12.000 53.678,12.000 53.755,12.000 53.833,12.000 53.910,12.000 53.988,12.000 54.065,12.000 54.143,12.000 54.220,12.000 54.298,12.000 54.375,12.000 54.453,12.000 54.530,12.000 54.608,12.000 54.685,12.000 54.763,12.000 54.840,12.000 54.918,12.000 54.995,12.000 55.073,12.000 55.150,12.000 55.228,12.000 55.305,12.000 55.383,12.000 55.460,12.000 55.538,12.000 55.615,12.000 55.693,12.000 55.770,12.000 55.848,12.000 55.925,12.000 56.003,12.000 56.080,12.000 56.158,12.000 56.235,12.000 56.313,12.000 56.390,12.000 56.468,12.000 56.545,12.000 56.623,12.000 56.700,12.000 56.778,12.000 56.855,12.000 56.933,12.000 57.010,12.000 57.088,12.000 57.165,12.000 57.243,12.000 57.320,12.000 57.398,12.000 57.475,12.000 57.553,12.000 57.630,12.000 57.708,12.000 57.785,12.000 57.863,12.000 57.940,12.000 58.018,12.000 58.095,12.000 58.173,12.000 58.250,12.000 58.328,12.000 58.405,12.000 58.482,12.000 58.560,12.000 58.637,12.000 58.713,12.000 58.790,12.000 58.865,12.000 58.940,12.000 59.014,12.000 59.087,12.000 59.159,12.000 59.231,12.000 59.301,12.000 59.370,12.000 59.439,12.000 59.506,12.000 59.572,12.000 59.637,12.000 59.700,12.000 59.763,12.000 59.825,12.000 59.885,12.000 59.944,12.000 60.002,12.000 60.059,12.000 60.115,12.000 60.169,12.000 60.223,12.000 60.275,12.000 60.326,12.000 60.376,12.000 60.425,12.000 60.473,12.000 60.520,12.000 60.566,12.000 60.611,12.000 60.654,12.000 60.697,12.000 60.739,12.000 60.780,12.000 60.820,12.000 60.859,12.000 60.897,12.000 60.934,12.000 60.970,12.000 61.006,12.000 61.040,12.000 61.074,12.000 61.107,12.000 61.139,12.000 61.171,12.000 61.201,12.000 61.231,12.000 61.260,12.000 61.289,12.000 61.316,12.000 61.344,12.000 61.370,12.000 61.396,12.000 61.421,12.000 61.445,12.000 61.469,12.000 61.493,12.000 61.515,12.000 61.538,12.000 61.559,12.000 61.581,12.000 61.602,12.000 61.622,12.000 61.643,12.000 61.663,12.000 61.682,12.000 61.702,12.000 61.721,12.000 61.740,12.000 61.759,12.000 61.778,12.000 61.797,12.000 61.816,12.000 61.834,12.000 61.852,12.000"/>
<polyline fill="none" stroke="#ff7f0e" stroke-width="0.220" stroke-opacity="0.95" points="61.849,12.000 61.842,12.000 61.831,12.000 61.819,12.000 61.803,12.000 61.786,12.000 61.766,12.000 61.745,12.000 61.722,12.001 61.697,12.001 61.672,12.002 61.645,12.003 61.617,12.004 61.588,12.005 61.558,12.007 61.528,12.009 61.496,12.011 61.465,12.013 61.432,12.016 61.400,12.019 61.366,12.023 61.333,12.026 61.299,12.030 61.265,12.035 61.230,12.040 61.195,12.045 61.160,12.050 61.125,12.056 61.090,12.062 61.055,12.069 61.020,12.076 60.984,12.083 60.949,12.091 60.913,12.099 60.877,12.107 60.842,12.116 60.806,12.125 60.771,12.134 60.735,12.144 60.699,12.154 60.664,12.165 60.629,12.175 60.593,12.187 60.558,12.198 60.523,12.210 60.488,12.222 60.453,12.235 60.418,12.248 60.383,12.261 60.348,12.275 60.313,12.289 60.279,12.303 60.245,12.318 60.210,12.333 60.176,12.348 60.142,12.364 60.108,12.380 60.075,12.396 60.041,12.413 60.008,12.430 59.975,12.447 59.942,12.465 59.909,12.483 59.876,12.501 59.844,12.520 59.811,12.539 59.779,12.558 59.747,12.577 59.715,12.597 59.684,12.617 59.652,12.638 59.621,12.659 59.590,12.680 59.560,12.701 59.529,12.723 59.499,12.745 59.468,12.767 59.439,12.790 59.409,12.813 59.379,12.836 59.350,12.859 59.321,12.883 59.292,12.907 59.264,12.931 59.235,12.956 59.207,12.981 59.179,13.006 59.152,13.031 59.124,13.057 59.097,13.083 59.070,13.109 59.044,13.135 59.018,13.162 58.991,13.189 58.966,13.216 58.940,13.243 58.915,13.271 58.890,13.299 58.865,13.327 58.841,13.356 58.816,13.384 58.793,13.413 58.769,13.442 58.746,13.472 58.723,13.501 58.700,13.531 58.677,13.561 58.655,13.591 58.633,13.622 58.612,13.653 58.590,13.683 58.569,13.714 58.549,13.746 58.528,13.777 58.508,13.809 58.488,13.841 58.469,13.873 58.450,13.905 58.431,13.938 58.413,13.970 58.394,14.003 58.376,14.036 58.359,14.069 58.342,14.102 58.325,14.136 58.308,14.169 58.292,14.203 58.276,14.237 58.260,14.271 58.245,14.306 58.230,14.340 58.216,14.375 58.201,14.409 58.188,14.444 58.174,14.479 58.161,14.514 58.148,14.549 58.135,14.585 58.123,14.620 58.111,14.656 58.100,14.691 58.089,14.727 58.078,14.763 58.067,14.799 58.057,14.835 58.047,14.871 58.038,14.908 58.029,14.944 58.020,14.981 58.012,15.017 58.004,15.054 57.996,15.090 57.989,15.127 57.982,15.164 57.976,15.201 57.969,15.238 57.964,15.275 57.958,15.312 57.953,15.349 57.948,15.387 57.944,15.424 57.940,15.461 57.936,15.498 57.933,15.536 57.930,15.573 57.927,15.610 57.925,15.648 57.923,15.685 57.921,15.723 57.920,15.760 57.919,15.798 57.919,15.835 57.919,15.873 57.918,15.910 57.919,15.948 57.919,15.985 57.919,16.023 57.920,16.060 57.920,16.098 57.921,16.135 57.922,16.173 57.922,16.210 57.923,16.248 57.923,16.285 57.924,16.323 57.924,16.360 57.925,16.398 57.926,16.435 57.926,16.473 57.927,16.510 57.927,16.548 57.928,16.585 57.929,16.623 57.929,16.660 57.930,16.698 57.930,16.735 57.931,16.773 57.931,16.810 57.932,16.848 57.933,16.885 57.933,16.923 57.934,16.960 57.934,16.998 57.935,17.035 57.935,17.073 57.936,17.110 57.937,17.148 57.937,17.185 57.938,17.223 57.938,17.260 57.939,17.298 57.940,17.335 57.940,17.373 57.941,17.410 57.941,17.448 57.942,17.485 57.942,17.523 57.943,17.560 57.944,17.598 57.944,17.635 57.945,17.673 57.945,17.710 57.946,17.748 57.947,17.785 57.947,17.823 57.948,17.860 57.948,17.898 57.949,17.935 57.949,17.973 57.950,18.010 57.951,18.048 57.951,18.085 57.952,18.123 57.952,18.160 57.953,18.198 57.954,18.235 57.954,18.273 57.955,18.310 57.955,18.348 57.956,18.385 57.956,18.422 57.957,18.460 57.958,18.497 57.958,18.534 57.959,18.571 57.959,18.608 57.960,18.644 57.960,18.680 57.961,18.717 57.962,18.752 57.962,18.788 57.963,18.823 57.963,18.858 57.964,18.893 57.964,18.928 57.965,18.962 57.965,18.996 57.966,19.030 57.966,19.063 57.967,19.096 57.967,19.129 57.968,19.162 57.968,19.194 57.969,19.226 57.969,19.258 57.970,19.289 57.970,19.320 57.971,19.351 57.971,19.382 57.972,19.412 57.972,19.442 57.973,19.471 57.973,19.501 57.974,19.530 57.974,19.558 57.974,19.587 57.975,19.615 57.975,19.643 57.976,19.671 57.976,19.698 57.977,19.725 57.977,19.752 57.977,19.779 57.978,19.805 57.978,19.831 57.979,19.857 57.979,19.882 57.979,19.907 57.980,19.932 57.980,19.957 57.981,19.982 57.981,20.006 57.981,20.030 57.982,20.054 57.982,20.077 57.982,20.101 57.983,20.124 57.983,20.146 57.983,20.169 57.984,20.191 57.984,20.213 57.985,20.235 57.985,20.257 57.985,20.278 57.986,20.300 57.986,20.321 57.986,20.342 57.986,20.362 57.987,20.383 57.987,20.403 57.987,20.423 57.988,20.443 57.988,20.462 57.988,20.482 57.989,20.501 57.989,20.520 57.989,20.539 57.989,20.557 57.990,20.576 57.990,20.594 57.990,20.613 57.991,20.631 57.991,20.649 57.991,20.668 57.991,20.686 57.992,20.704 57.992,20.722 57.992,20.740 57.993,20.758 57.993,20.775 57.993,20.793 57.993,20.811 57.994,20.829 57.994,20.846 57.994,20.864 57.995,20.882 57.995,20.899 57.995,20.917 57.995,20.935 57.996,20.952 57.996,20.970 57.996,20.988 57.996,21.005 57.997,21.023 57.997,21.040 57.997,21.058 57.998,21.075 57.998,21.093 57.998,21.111 57.998,21.128 57.999,21.146 57.999,21.163 57.999,21.181 57.999,21.198 58.000,21.216 58.000,21.233 58.000,21.251 58.001,21.268 58.001,21.286 58.001,21.303 58.001,21.321 58.002,21.338 58.002,21.356 58.002,21.373 58.002,21.391 58.003,21.408 58.003,21.426 58.003,21.443 58.004,21.461 58.004,21.478 58.004,21.496 58.004,21.513 58.005,21.531 58.005,21.548 58.005,21.566 58.005,21.583 58.006,21.601 58.006,21.618 58.006,21.636 58.006,21.653 58.007,21.671 58.007,21.688 58.007,21.706 58.008,21.723 58.008,21.741 58.008,21.758 58.008,21.776 58.009,21.793 58.009,21.811 58.009,21.828 58.009,21.846 58.010,21.863 58.010,21.881 58.010,21.898 58.011,21.916 58.011,21.933 58.011,21.951 58.011,21.968 58.012,21.986 58.012,22.003 58.012,22.021 58.012,22.038 58.013,22.056 58.013,22.073 58.013,22.091 58.014,22.108 58.014,22.126 58.014,22.143 58.014,22.161 58.015,22.178 58.015,22.196 58.015,22.213 58.015,22.231 58.016,22.248 58.016,22.266"/>
<polygon fill="#1f77b4" fill-opacity="0.140" stroke="#1f77b4" stroke-opacity="0.55" stroke-width="0.07" points="6.408,13.000 6.408,11.000 1.608,11.000 1.608,13.000"/>
<polygon fill="#1f77b4" fill-opacity="0.140" stroke="#1f77b4" stroke-opacity="0.55" stroke-width="0.07" points="7.269,13.000 7.269,11.000 2.469,11.000 2.469,13.000"/>
<polygon fill="#1f77b4" fill-opacity="0.140" stroke="#1f77b4" stroke-opacity="0.55" stroke-width="0.07" points="8.584,13.000 8.584,11.000 3.784,11.000 3.784,13.000"/>
<polygon fill="#1f77b4" fill-opacity="0.140" stroke="#1f77b4" stroke-opacity="0.55" stroke-width="0.07" points="9.967,13.000 9.967,11.000 5.167,11.000 5.167,13.000"/>
<polygon fill="#1f77b4" fill-opacity="0.140" stroke="#1f77b4" stroke-opacity="0.55" stroke-width="0.07" points="11.360,13.000 11.360,11.000 6.560,11.000 6.560,13.000"/>
<polygon fill="#1f77b4" fill-opacity="0.140" stroke="#1f77b4" stroke-opacity="0.55" stroke-width="0.07" points="12.755,13.000 12.755,11.000 7.955,11.000 7.955,13.000"/>
<polygon fill="#1f77b4" fill-opacity="0.140" stroke="#1f77b4" stroke-opacity="0.55" stroke-width="0.07" points="14.150,13.000 14.150,11.000 9.350,11.000 9.350,13.000"/>
<polygon fill="#1f77b4" fill-opacity="0.140" stroke="#1f77b4" stroke-opacity="0.55" stroke-width="0.07" points="15.545,13.000 15.545,11.000 10.745,11.000 10.745,13.000"/>
<polygon fill="#1f77b4" fill-opacity="0.140" stroke="#1f77b4" stroke-opacity="0.55" stroke-width="0.07" points="16.940,13.000 16.940,11.000 12.140,11.000 12.140,13.000"/>
<polygon fill="#1f77b4" fill-opacity="0.140" stroke="#1f77b4" stroke-opacity="0.55" stroke-width="0.07" points="18.335,13.000 18.335,11.000 13.535,11.000 13.535,13.000"/>
<polygon fill="#1f77b4" fill-opacity="0.140" stroke="#1f77b4" stroke-opacity="0.55" stroke-width="0.07" points="19.730,13.000 19.730,11.000 14.930,11.000 14.930,13.000"/>
<polygon fill="#1f77b4" fill-opacity="0.140" stroke="#1f77b4" stroke-opacity="0.55" stroke-width="0.07" points="21.125,13.000 21.125,11.000 16.325,11.000 16.325,13.000"/>
<polygon fill="#1f77b4" fill-opacity="0.140" stroke="#1f77b4" stroke-opacity="0.55" stroke-width="0.07" points="22.520,13.000 22.520,11.000 17.720,11.000 17.720,13.000"/>
<polygon fill="#1f77b4" fill-opacity="0.140" stroke="#1f77b4" stroke-opacity="0.55" stroke-width="0.07" points="23.915,13.000 23.915,11.000 19.115,11.000 19.115,13.000"/>
<polygon fill="#1f77b4" fill-opacity="0.140" stroke="#1f77b4" stroke-opacity="0.55" stroke-width="0.07" points="25.310,13.000 25.310,11.000 20.510,11.000 20.510,13.000"/>
<polygon fill="#1f77b4" fill-opacity="0.140" stroke="#1f77b4" stroke-opacity="0.55" stroke-width="0.07" points="26.705,13.000 26.705,11.000 21.905,11.000 21.905,13.000"/>
<polygon fill="#1f77b4" fill-opacity="0.140" stroke="#1f77b4" stroke-opacity="0.55" stroke-width="0.07" points="28.100,13.000 28.100,11.000 23.300,11.000 23.300,13.000"/>
<polygon fill="#1f77b4" fill-opacity="0.140" stroke="#1f77b4" stroke-opacity="0.55" stroke-width="0.07" points="29.495,13.000 29.495,11.000 24.695,11.000 24.695,13.000"/>
<polygon fill="#1f77b4" fill-opacity="0.140" stroke="#1f77b4" stroke-opacity="0.55" stroke-width="0.07" points="30.890,13.000 30.890,11.000 26.090,11.000 26.090,13.000"/>
<polygon fill="#1f77b4" fill-opacity="0.140" stroke="#1f77b4" stroke-opacity="0.55" stroke-width="0.07" points="32.285,13.000 32.285,11.000 27.485,11.000 27.485,13.000"/>
<polygon fill="#1f77b4" fill-opacity="0.140" stroke="#1f77b4" stroke-opacity="0.55" stroke-width="0.07" points="33.680,13.000 33.680,11.000 28.880,11.000 28.880,13.000"/>
<polygon fill="#1f77b4" fill-opacity="0.140" stroke="#1f77b4" stroke-opacity="0.55" stroke-width="0.07" points="35.075,13.000 35.075,11.000 30.275,11.000 30.275,13.000"/>
<polygon fill="#1f77b4" fill-opacity="0.140" stroke="#1f77b4" stroke-opacity="0.55" stroke-width="0.07" points="36.470,13.000 36.470,11.000 31.670,11.000 31.670,13.000"/>
<polygon fill="#1f77b4" fill-opacity="0.140" stroke="#1f77b4" stroke-opacity="0.55" stroke-width="0.07" points="37.865,13.000 37.865,11.000 33.065,11.000 33.065,13.000"/>
<polygon fill="#1f77b4" fill-opacity="0.140" stroke="#1f77b4" stroke-opacity="0.55" stroke-width="0.07" points="39.260,13.000 39.260,11.000 34.460,11.000 34.460,13.000"/>
<polygon fill="#1f77b4" fill-opacity="0.140" stroke="#1f77b4" stroke-opacity="0.55" stroke-width="0.07" points="40.655,13.000 40.655,11.000 35.855,11.000 35.855,13.000"/>
<polygon fill="#1f77b4" fill-opacity="0.140" stroke="#1f77b4" stroke-opacity="0.55" stroke-width="0.07" points="42.050,13.000 42.050,11.000 37.250,11.000 37.250,13.000"/>
<polygon fill="#1f77b4" fill-opacity="0.140" stroke="#1f77b4" stroke-opacity="0.55" stroke-width="0.07" points="43.445,13.000 43.445,11.000 38.645,11.000 38.645,13.000"/>
<polygon fill="#1f77b4" fill-opacity="0.140" stroke="#1f77b4" stroke-opacity="0.55" stroke-width="0.07" points="44.840,13.000 44.840,11.000 40.040,11.000 40.040,13.000"/>
<polygon fill="#1f77b4" fill-opacity="0.140" stroke="#1f77b4" stroke-opacity="0.55" stroke-width="0.07" points="46.235,13.000 46.235,11.000 41.435,11.000 41.435,13.000"/>
<polygon fill="#1f77b4" fill-opacity="0.140" stroke="#1f77b4" stroke-opacity="0.55" stroke-width="0.07" points="47.630,13.000 47.630,11.000 42.830,11.000 42.830,13.000"/>
<polygon fill="#1f77b4" fill-opacity="0.140" stroke="#1f77b4" stroke-opacity="0.55" stroke-width="0.07" points="49.025,13.000 49.025,11.000 44.225,11.000 44.225,13.000"/>
<polygon fill="#1f77b4" fill-opacity="0.140" stroke="#1f77b4" stroke-opacity="0.55" stroke-width="0.07" points="50.420,13.000 50.420,11.000 45.620,11.000 45.620,13.000"/>
<polygon fill="#1f77b4" fill-opacity="0.140" stroke="#1f77b4" stroke-opacity="0.55" stroke-width="0.07" points="51.815,13.000 51.815,11.000 47.015,11.000 47.015,13.000"/>
<polygon fill="#1f77b4" fill-opacity="0.140" stroke="#1f77b4" stroke-opacity="0.55" stroke-width="0.07" points="53.210,13.000 53.210,11.000 48.410,11.000 48.410,13.000"/>
<polygon fill="#1f77b4" fill-opacity="0.140" stroke="#1f77b4" stroke-opacity="0.55" stroke-width="0.07" points="54.605,13.000 54.605,11.000 49.805,11.000 49.805,13.000"/>
<polygon fill="#1f77b4" fill-opacity="0.140" stroke="#1f77b4" stroke-opacity="0.55" stroke-width="0.07" points="56.000,13.000 56.000,11.000 51.200,11.000 51.200,13.000"/>
<polygon fill="#1f77b4" fill-opacity="0.140" stroke="#1f77b4" stroke-opacity="0.55" stroke-width="0.07" points="57.395,13.000 57.395,11.000 52.595,11.000 52.595,13.000"/>
<polygon fill="#1f77b4" fill-opacity="0.140" stroke="#1f77b4" stroke-opacity="0.55" stroke-width="0.07" points="58.790,13.000 58.790,11.000 53.990,11.000 53.990,13.000"/>
<polygon fill="#1f77b4" fill-opacity="0.140" stroke="#1f77b4" stroke-opacity="0.55" stroke-width="0.07" points="60.185,13.000 60.185,11.000 55.385,11.000 55.385,13.000"/>
<polygon fill="#1f77b4" fill-opacity="0.140" stroke="#1f77b4" stroke-opacity="0.55" stroke-width="0.07" points="61.559,13.000 61.559,11.000 56.759,11.000 56.759,13.000"/>
<polygon fill="#1f77b4" fill-opacity="0.140" stroke="#1f77b4" stroke-opacity="0.55" stroke-width="0.07" points="62.675,13.000 62.675,11.000 57.875,11.000 57.875,13.000"/>
<polygon fill="#1f77b4" fill-opacity="0.140" stroke="#1f77b4" stroke-opacity="0.55" stroke-width="0.07" points="63.440,13.000 63.440,11.000 58.640,11.000 58.640,13.000"/>
<polygon fill="#1f77b4" fill-opacity="0.140" stroke="#1f77b4" stroke-opacity="0.55" stroke-width="0.07" points="63.938,13.000 63.938,11.000 59.138,11.000 59.138,13.000"/>
<polygon fill="#1f77b4" fill-opacity="0.140" stroke="#1f77b4" stroke-opacity="0.55" stroke-width="0.07" points="64.252,13.000 64.252,11.000 59.452,11.000 59.452,13.000"/>
<polygon fill="#ff7f0e" fill-opacity="0.160" stroke="#ff7f0e" stroke-opacity="0.55" stroke-width="0.07" points="64.249,13.000 64.249,11.000 59.449,11.000 59.449,13.000"/>
<polygon fill="#ff7f0e" fill-opacity="0.160" stroke="#ff7f0e" stroke-opacity="0.55" stroke-width="0.07" points="63.916,12.786 63.728,10.795 58.949,11.246 59.137,13.237"/>
<polygon fill="#ff7f0e" fill-opacity="0.160" stroke="#ff7f0e" stroke-opacity="0.55" stroke-width="0.07" points="63.382,12.477 62.870,10.543 58.230,11.773 58.742,13.706"/>
<polygon fill="#ff7f0e" fill-opacity="0.160" stroke="#ff7f0e" stroke-opacity="0.55" stroke-width="0.07" points="62.774,12.250 61.936,10.434 57.578,12.446 58.416,14.262"/>
<polygon fill="#ff7f0e" fill-opacity="0.160" stroke="#ff7f0e" stroke-opacity="0.55" stroke-width="0.07" points="62.132,12.131 60.991,10.489 57.049,13.228 58.190,14.871"/>
<polygon fill="#ff7f0e" fill-opacity="0.160" stroke="#ff7f0e" stroke-opacity="0.55" stroke-width="0.07" points="61.478,12.126 60.068,10.708 56.663,14.091 58.073,15.510"/>
<polygon fill="#ff7f0e" fill-opacity="0.160" stroke="#ff7f0e" stroke-opacity="0.55" stroke-width="0.07" points="60.832,12.235 59.197,11.084 56.434,15.009 58.069,16.160"/>
<polygon fill="#ff7f0e" fill-opacity="0.160" stroke="#ff7f0e" stroke-opacity="0.55" stroke-width="0.07" points="60.216,12.455 58.405,11.606 56.368,15.952 58.179,16.801"/>
<polygon fill="#ff7f0e" fill-opacity="0.160" stroke="#ff7f0e" stroke-opacity="0.55" stroke-width="0.07" points="59.647,12.778 57.716,12.258 56.467,16.892 58.398,17.413"/>
<polygon fill="#ff7f0e" fill-opacity="0.160" stroke="#ff7f0e" stroke-opacity="0.55" stroke-width="0.07" points="59.145,13.196 57.153,13.019 56.727,17.800 58.720,17.977"/>
<polygon fill="#ff7f0e" fill-opacity="0.160" stroke="#ff7f0e" stroke-opacity="0.55" stroke-width="0.07" points="58.884,13.758 56.884,13.789 56.959,18.588 58.959,18.557"/>
<polygon fill="#ff7f0e" fill-opacity="0.160" stroke="#ff7f0e" stroke-opacity="0.55" stroke-width="0.07" points="58.895,14.432 56.895,14.463 56.969,19.263 58.969,19.232"/>
<polygon fill="#ff7f0e" fill-opacity="0.160" stroke="#ff7f0e" stroke-opacity="0.55" stroke-width="0.07" points="58.905,15.107 56.905,15.138 56.980,19.938 58.980,19.907"/>
<polygon fill="#ff7f0e" fill-opacity="0.160" stroke="#ff7f0e" stroke-opacity="0.55" stroke-width="0.07" points="58.916,15.782 56.916,15.813 56.990,20.613 58.990,20.582"/>
<polygon fill="#ff7f0e" fill-opacity="0.160" stroke="#ff7f0e" stroke-opacity="0.55" stroke-width="0.07" points="58.926,16.443 56.926,16.474 57.000,21.274 59.000,21.243"/>
<polygon fill="#ff7f0e" fill-opacity="0.160" stroke="#ff7f0e" stroke-opacity="0.55" stroke-width="0.07" points="58.935,17.026 56.935,17.057 57.010,21.857 59.009,21.826"/>
<polygon fill="#ff7f0e" fill-opacity="0.160" stroke="#ff7f0e" stroke-opacity="0.55" stroke-width="0.07" points="58.942,17.517 56.943,17.548 57.017,22.348 59.017,22.317"/>
<polygon fill="#ff7f0e" fill-opacity="0.160" stroke="#ff7f0e" stroke-opacity="0.55" stroke-width="0.07" points="58.949,17.926 56.949,17.957 57.023,22.757 59.023,22.726"/>
<polygon fill="#ff7f0e" fill-opacity="0.160" stroke="#ff7f0e" stroke-opacity="0.55" stroke-width="0.07" points="58.954,18.270 56.954,18.301 57.029,23.101 59.029,23.070"/>
<polygon fill="#ff7f0e" fill-opacity="0.160" stroke="#ff7f0e" stroke-opacity="0.55" stroke-width="0.07" points="58.959,18.590 56.959,18.621 57.034,23.420 59.034,23.389"/>
<polygon fill="#ff7f0e" fill-opacity="0.160" stroke="#ff7f0e" stroke-opacity="0.55" stroke-width="0.07" points="58.964,18.906 56.964,18.937 57.039,23.736 59.038,23.705"/>
<polygon fill="#ff7f0e" fill-opacity="0.160" stroke="#ff7f0e" stroke-opacity="0.55" stroke-width="0.07" points="58.969,19.221 56.969,19.252 57.044,24.051 59.043,24.020"/>
<polygon fill="#ff7f0e" fill-opacity="0.160" stroke="#ff7f0e" stroke-opacity="0.55" stroke-width="0.07" points="58.974,19.536 56.974,19.567 57.048,24.366 59.048,24.335"/>
<polygon fill="#ff7f0e" fill-opacity="0.160" stroke="#ff7f0e" stroke-opacity="0.55" stroke-width="0.07" points="58.979,19.851 56.979,19.882 57.053,24.681 59.053,24.650"/>
<polygon fill="#ff7f0e" fill-opacity="0.160" stroke="#ff7f0e" stroke-opacity="0.55" stroke-width="0.07" points="58.979,19.851 56.979,19.882 57.053,24.681 59.053,24.650"/>
<polygon fill="none" stroke="crimson" stroke-width="0.120" points="58.979,19.851 56.979,19.882 57.053,24.681 59.053,24.650"/>
</g>
</svg>
