<?xml version="1.0" encoding="UTF-8"?>
<svg xmlns="http://www.w3.org/2000/svg" width="1400" height="900" viewBox="0 -3 75 53">
<rect x="0" y="-3" width="75" height="53" fill="white"/>
<text x="1.5" y="-1.35" font-size="1.15" fill="black">Parking | target row=2 idx=7 | success=true sim_ok=true | max_steer=35 deg | overshoot~=5 m | total(ref)~=6e+01 m</text>
<text x="1.5" y="-0.45" font-size="0.95" fill="black">ok</text>
<g transform="translate(0,50.000) scale(1,-1)">
<rect x="0" y="0" width="75.000" height="50.000" fill="none" stroke="black" stroke-width="0.15"/>
<rect x="0.000" y="9.000" width="75.000" height="6.000" fill="#add8e6" fill-opacity="0.25" stroke="#add8e6" stroke-width="0.08"/>
<rect x="0.000" y="34.500" width="75.000" height="6.000" fill="#add8e6" fill-opacity="0.25" stroke="#add8e6" stroke-width="0.08"/>
<rect x="60.000" y="12.000" width="6.000" height="25.500" fill="#90ee90" fill-opacity="0.25" stroke="#90ee90" stroke-width="0.08"/>
<rect x="12.000" y="44.000" width="4.800" height="6.000" fill="white" stroke="gray" stroke-width="0.080" fill-opacity="0.85"/>
<rect x="16.800" y="44.000" width="4.800" height="6.000" fill="white" stroke="gray" stroke-width="0.080" fill-opacity="0.85"/>
<rect x="21.600" y="44.000" width="4.800" height="6.000" fill="black" stroke="gray" stroke-width="0.080" fill-opacity="0.95"/>
<rect x="26.400" y="44.000" width="4.800" height="6.000" fill="black" stroke="gray" stroke-width="0.080" fill-opacity="0.95"/>
<rect x="31.200" y="44.000" width="4.800" height="6.000" fill="white" stroke="gray" stroke-width="0.080" fill-opacity="0.85"/>
<rect x="36.000" y="44.000" width="4.800" height="6.000" fill="white" stroke="gray" stroke-width="0.080" fill-opacity="0.85"/>
<rect x="40.800" y="44.000" width="4.800" height="6.000" fill="white" stroke="gray" stroke-width="0.080" fill-opacity="0.85"/>
<rect x="45.600" y="44.000" width="4.800" height="6.000" fill="white" stroke="gray" stroke-width="0.080" fill-opacity="0.85"/>
<rect x="50.400" y="44.000" width="4.800" height="6.000" fill="black" stroke="gray" stroke-width="0.080" fill-opacity="0.95"/>
<rect x="55.200" y="44.000" width="4.800" height="6.000" fill="white" stroke="gray" stroke-width="0.080" fill-opacity="0.85"/>
<rect x="12.000" y="25.000" width="4.800" height="6.000" fill="black" stroke="gray" stroke-width="0.080" fill-opacity="0.95"/>
<rect x="16.800" y="25.000" width="4.800" height="6.000" fill="black" stroke="gray" stroke-width="0.080" fill-opacity="0.95"/>
<rect x="21.600" y="25.000" width="4.800" height="6.000" fill="black" stroke="gray" stroke-width="0.080" fill-opacity="0.95"/>
<rect x="26.400" y="25.000" width="4.800" height="6.000" fill="white" stroke="gray" stroke-width="0.080" fill-opacity="0.85"/>
<rect x="31.200" y="25.000" width="4.800" height="6.000" fill="white" stroke="gray" stroke-width="0.080" fill-opacity="0.85"/>
<rect x="36.000" y="25.000" width="4.800" height="6.000" fill="black" stroke="gray" stroke-width="0.080" fill-opacity="0.95"/>
<rect x="40.800" y="25.000" width="4.800" height="6.000" fill="white" stroke="gray" stroke-width="0.080" fill-opacity="0.85"/>
<rect x="45.600" y="25.000" width="4.800" height="6.000" fill="black" stroke="gray" stroke-width="0.080" fill-opacity="0.95"/>
<rect x="50.400" y="25.000" width="4.800" height="6.000" fill="white" stroke="gray" stroke-width="0.080" fill-opacity="0.85"/>
<rect x="55.200" y="25.000" width="4.800" height="6.000" fill="white" stroke="gray" stroke-width="0.080" fill-opacity="0.85"/>
<rect x="12.000" y="19.000" width="4.800" height="6.000" fill="white" stroke="gray" stroke-width="0.080" fill-opacity="0.85"/>
<rect x="16.800" y="19.000" width="4.800" height="6.000" fill="white" stroke="gray" stroke-width="0.080" fill-opacity="0.85"/>
<rect x="21.600" y="19.000" width="4.800" height="6.000" fill="white" stroke="gray" stroke-width="0.080" fill-opacity="0.85"/>
<rect x="26.400" y="19.000" width="4.800" height="6.000" fill="white" stroke="gray" stroke-width="0.080" fill-opacity="0.85"/>
<rect x="31.200" y="19.000" width="4.800" height="6.000" fill="black" stroke="gray" stroke-width="0.080" fill-opacity="0.95"/>
<rect x="36.000" y="19.000" width="4.800" height="6.000" fill="white" stroke="gray" stroke-width="0.080" fill-opacity="0.85"/>
<rect x="40.800" y="19.000" width="4.800" height="6.000" fill="white" stroke="gray" stroke-width="0.080" fill-opacity="0.85"/>
<rect x="45.600" y="19.000" width="4.800" height="6.000" fill="#98fb98" stroke="darkgreen" stroke-width="0.180" fill-opacity="0.85"/>
<rect x="50.400" y="19.000" width="4.800" height="6.000" fill="black" stroke="gray" stroke-width="0.080" fill-opacity="0.95"/>
<rect x="55.200" y="19.000" width="4.800" height="6.000" fill="white" stroke="gray" stroke-width="0.080" fill-opacity="0.85"/>
<rect x="12.000" y="0.000" width="4.800" height="6.000" fill="white" stroke="gray" stroke-width="0.080" fill-opacity="0.85"/>
<rect x="16.800" y="0.000" width="4.800" height="6.000" fill="white" stroke="gray" stroke-width="0.080" fill-opacity="0.85"/>
<rect x="21.600" y="0.000" width="4.800" height="6.000" fill="black" stroke="gray" stroke-width="0.080" fill-opacity="0.95"/>
<rect x="26.400" y="0.000" width="4.800" height="6.000" fill="white" stroke="gray" stroke-width="0.080" fill-opacity="0.85"/>
<rect x="31.200" y="0.000" width="4.800" height="6.000" fill="black" stroke="gray" stroke-width="0.080" fill-opacity="0.95"/>
<rect x="36.000" y="0.000" width="4.800" height="6.000" fill="white" stroke="gray" stroke-width="0.080" fill-opacity="0.85"/>
<rect x="40.800" y="0.000" width="4.800" height="6.000" fill="black" stroke="gray" stroke-width="0.080" fill-opacity="0.95"/>
<rect x="45.600" y="0.000" width="4.800" height="6.000" fill="white" stroke="gray" stroke-width="0.080" fill-opacity="0.85"/>
<rect x="50.400" y="0.000" width="4.800" height="6.000" fill="white" stroke="gray" stroke-width="0.080" fill-opacity="0.85"/>
<rect x="55.200" y="0.000" width="4.800" height="6.000" fill="white" stroke="gray" stroke-width="0.080" fill-opacity="0.85"/>
<polygon fill="none" stroke="navy" stroke-width="0.120" points="6.400,13.000 6.400,11.000 1.600,11.000 1.600,13.000"/>
<polygon fill="purple" points="45.220,12.000 45.500,12.350 45.780,12.000 45.500,11.650"/>
<circle cx="52.800" cy="12.000" r="0.38" fill="darkviolet" stroke="indigo" stroke-width="0.06"/>
<polyline fill="none" stroke="#808080" stroke-width="0.120" stroke-opacity="0.65" stroke-dasharray="0.45 0.35" points="4.000,12.000 45.500,12.000 52.800,12.000"/>
<polyline fill="none" stroke="#808080" stroke-width="0.120" stroke-opacity="0.65" stroke-dasharray="0.45 0.35" points="52.800,12.000 52.626,12.180 52.455,12.364 52.289,12.553 52.126,12.747 51.966,12.944 51.811,13.146 51.659,13.351 51.511,13.559 51.366,13.771 51.225,13.987 51.087,14.205 50.952,14.425 50.821,14.649 50.693,14.874 50.568,15.102 50.447,15.332 50.328,15.563 50.213,15.796 50.101,16.030 49.991,16.265 49.885,16.501 49.782,16.738 49.681,16.976 49.583,17.213 49.488,17.451 49.396,17.689 49.306,17.926 49.219,18.163 49.135,18.399 49.053,18.635 48.974,18.869 48.897,19.102 48.822,19.333 48.750,19.563 48.680,19.790 48.612,20.016 48.546,20.239 48.483,20.460 48.421,20.678 48.362,20.893 48.305,21.105 48.249,21.314 48.196,21.519 48.144,21.720 48.094,21.918 48.046,22.111 48.000,22.300"/>
<polyline fill="none" stroke="#1f77b4" stroke-width="0.220" stroke-opacity="0.95" points="4.008,12.000 4.022,12.000 4.043,12.000 4.070,12.000 4.102,12.000 4.138,12.000 4.179,12.000 4.223,12.000 4.270,12.000 4.321,12.000 4.374,12.000 4.429,12.000 4.487,12.000 4.547,12.000 4.609,12.000 4.672,12.000 4.736,12.000 4.802,12.000 4.869,12.000 4.937,12.000 5.006,12.000 5.076,12.000 5.147,12.000 5.218,12.000 5.290,12.000 5.363,12.000 5.436,12.000 5.509,12.000 5.583,12.000 5.657,12.000 5.732,12.000 5.806,12.000 5.882,12.000 5.957,12.000 6.032,12.000 6.108,12.000 6.184,12.000 6.260,12.000 6.336,12.000 6.413,12.000 6.489,12.000 6.566,12.000 6.643,12.000 6.719,12.000 6.796,12.000 6.873,12.000 6.950,12.000 7.027,12.000 7.104,12.000 7.181,12.000 7.258,12.000 7.335,12.000 7.413,12.000 7.490,12.000 7.567,12.000 7.644,12.000 7.722,12.000 7.799,12.000 7.876,12.000 7.954,12.000 8.031,12.000 8.109,12.000 8.186,12.000 8.263,12.000 8.341,12.000 8.418,12.000 8.496,12.000 8.573,12.000 8.650,12.000 8.728,12.000 8.805,12.000 8.883,12.000 8.960,12.000 9.038,12.000 9.115,12.000 9.193,12.000 9.270,12.000 9.348,12.000 9.425,12.000 9.503,12.000 9.580,12.000 9.658,12.000 9.735,12.000 9.813,12.000 9.890,12.000 9.968,12.000 10.045,12.000 10.123,12.000 10.200,12.000 10.278,12.000 10.355,12.000 10.433,12.000 10.510,12.000 10.588,12.000 10.665,12.000 10.743,12.000 10.820,12.000 10.898,12.000 10.975,12.000 11.053,12.000 11.130,12.000 11.208,12.000 11.285,12.000 11.363,12.000 11.440,12.000 11.518,12.000 11.595,12.000 11.673,12.000 11.750,12.000 11.828,12.000 11.905,12.000 11.983,12.000 12.060,12.000 12.138,12.000 12.215,12.000 12.293,12.000 12.370,12.000 12.448,12.000 12.525,12.000 12.603,12.000 12.680,12.000 12.758,12.000 12.835,12.000 12.913,12.000 12.990,12.000 13.068,12.000 13.145,12.000 13.223,12.000 13.300,12.000 13.378,12.000 13.455,12.000 13.533,12.000 13.610,12.000 13.688,12.000 13.765,12.000 13.843,12.000 13.920,12.000 13.998,12.000 14.075,12.000 14.153,12.000 14.230,12.000 14.308,12.000 14.385,12.000 14.463,12.000 14.540,12.000 14.618,12.000 14.695,12.000 14.773,12.000 14.850,12.000 14.928,12.000 15.005,12.000 15.083,12.000 15.160,12.000 15.238,12.000 15.315,12.000 15.393,12.000 15.470,12.000 15.548,12.000 15.625,12.000 15.703,12.000 15.780,12.000 15.858,12.000 15.935,12.000 16.013,12.000 16.090,12.000 16.168,12.000 16.245,12.000 16.323,12.000 16.400,12.000 16.478,12.000 16.555,12.000 16.633,12.000 16.710,12.000 16.788,12.000 16.865,12.000 16.943,12.000 17.020,12.000 17.098,12.000 17.175,12.000 17.253,12.000 17.330,12.000 17.408,12.000 17.485,12.000 17.563,12.000 17.640,12.000 17.718,12.000 17.795,12.000 17.873,12.000 17.950,12.000 18.028,12.000 18.105,12.000 18.183,12.000 18.260,12.000 18.338,12.000 18.415,12.000 18.493,12.000 18.570,12.000 18.648,12.000 18.725,12.000 18.803,12.000 18.880,12.000 18.958,12.000 19.035,12.000 19.113,12.000 19.190,12.000 19.268,12.000 19.345,12.000 19.423,12.000 19.500,12.000 19.578,12.000 19.655,12.000 19.733,12.000 19.810,12.000 19.888,12.000 19.965,12.000 20.043,12.000 20.120,12.000 20.198,12.000 20.275,12.000 20.353,12.000 20.430,12.000 20.508,12.000 20.585,12.000 20.663,12.000 20.740,12.000 20.818,12.000 20.895,12.000 20.973,12.000 21.050,12.000 21.128,12.000 21.205,12.000 21.283,12.000 21.360,12.000 21.438,12.000 21.515,12.000 21.593,12.000 21.670,12.000 21.748,12.000 21.825,12.000 21.903,12.000 21.980,12.000 22.058,12.000 22.135,12.000 22.213,12.000 22.290,12.000 22.368,12.000 22.445,12.000 22.523,12.000 22.600,12.000 22.678,12.000 22.755,12.000 22.833,12.000 22.910,12.000 22.988,12.000 23.065,12.000 23.143,12.000 23.220,12.000 23.298,12.000 23.375,12.000 23.453,12.000 23.530,12.000 23.608,12.000 23.685,12.000 23.763,12.000 23.840,12.000 23.918,12.000 23.995,12.000 24.073,12.000 24.150,12.000 24.228,12.000 24.305,12.000 24.383,12.000 24.460,12.000 24.538,12.000 24.615,12.000 24.693,12.000 24.770,12.000 24.848,12.000 24.925,12.000 25.003,12.000 25.080,12.000 25.158,12.000 25.235,12.000 25.313,12.000 25.390,12.000 25.468,12.000 25.545,12.000 25.623,12.000 25.700,12.000 25.778,12.000 25.855,12.000 25.933,12.000 26.010,12.000 26.088,12.000 26.165,12.000 26.243,12.000 26.320,12.000 26.398,12.000 26.475,12.000 26.553,12.000 26.630,12.000 26.708,12.000 26.785,12.000 26.863,12.000 26.940,12.000 27.018,12.000 27.095,12.000 27.173,12.000 27.250,12.000 27.328,12.000 27.405,12.000 27.483,12.000 27.560,12.000 27.638,12.000 27.715,12.000 27.793,12.000 27.870,12.000 27.948,12.000 28.025,12.000 28.103,12.000 28.180,12.000 28.258,12.000 28.335,12.000 28.413,12.000 28.490,12.000 28.568,12.000 28.645,12.000 28.723,12.000 28.800,12.000 28.878,12.000 28.955,12.000 29.033,12.000 29.110,12.000 29.188,12.000 29.265,12.000 29.343,12.000 29.420,12.000 29.498,12.000 29.575,12.000 29.653,12.000 29.730,12.000 29.808,12.000 29.885,12.000 29.963,12.000 30.040,12.000 30.118,12.000 30.195,12.000 30.273,12.000 30.350,12.000 30.428,12.000 30.505,12.000 30.583,12.000 30.660,12.000 30.738,12.000 30.815,12.000 30.893,12.000 30.970,12.000 31.048,12.000 31.125,12.000 31.203,12.000 31.280,12.000 31.358,12.000 31.435,12.000 31.513,12.000 31.590,12.000 31.668,12.000 31.745,12.000 31.823,12.000 31.900,12.000 31.978,12.000 32.055,12.000 32.133,12.000 32.210,12.000 32.288,12.000 32.365,12.000 32.443,12.000 32.520,12.000 32.598,12.000 32.675,12.000 32.753,12.000 32.830,12.000 32.908,12.000 32.985,12.000 33.063,12.000 33.140,12.000 33.218,12.000 33.295,12.000 33.373,12.000 33.450,12.000 33.528,12.000 33.605,12.000 33.683,12.000 33.760,12.000 33.838,12.000 33.915,12.000 33.993,12.000 34.070,12.000 34.148,12.000 34.225,12.000 34.303,12.000 34.380,12.000 34.458,12.000 34.535,12.000 34.613,12.000 34.690,12.000 34.768,12.000 34.845,12.000 34.923,12.000 35.000,12.000 35.078,12.000 35.155,12.000 35.233,12.000 35.310,12.000 35.388,12.000 35.465,12.000 35.543,12.000 35.620,12.000 35.698,12.000 35.775,12.000 35.853,12.000 35.930,12.000 36.008,12.000 36.085,12.000 36.163,12.000 36.240,12.000 36.318,12.000 36.395,12.000 36.473,12.000 36.550,12.000 36.628,12.000 36.705,12.000 36.783,12.000 36.860,12.000 36.938,12.000 37.015,12.000 37.093,12.000 37.170,12.000 37.248,12.000 37.325,12.000 37.403,12.000 37.480,12.000 37.558,12.000 37.635,12.000 37.713,12.000 37.790,12.000 37.868,12.000 37.945,12.000 38.023,12.000 38.100,12.000 38.178,12.000 38.255,12.000 38.333,12.000 38.410,12.000 38.488,12.000 38.565,12.000 38.643,12.000 38.720,12.000 38.798,12.000 38.875,12.000 38.953,12.000 39.030,12.000 39.108,12.000 39.185,12.000 39.263,12.000 39.340,12.000 39.418,12.000 39.495,12.000 39.573,12.000 39.650,12.000 39.728,12.000 39.805,12.000 39.883,12.000 39.960,12.000 40.038,12.000 40.115,12.000 40.193,12.000 40.270,12.000 40.348,12.000 40.425,12.000 40.503,12.000 40.580,12.000 40.658,12.000 40.735,12.000 40.813,12.000 40.890,12.000 40.968,12.000 41.045,12.000 41.123,12.000 41.200,12.000 41.278,12.000 41.355,12.000 41.433,12.000 41.510,12.000 41.588,12.000 41.665,12.000 41.743,12.000 41.820,12.000 41.898,12.000 41.975,12.000 42.053,12.000 42.130,12.000 42.208,12.000 42.285,12.000 42.363,12.000 42.440,12.000 42.518,12.000 42.595,12.000 42.673,12.000 42.750,12.000 42.828,12.000 42.905,12.000 42.983,12.000 43.060,12.000 43.138,12.000 43.215,12.000 43.293,12.000 43.370,12.000 43.448,12.000 43.525,12.000 43.603,12.000 43.680,12.000 43.758,12.000 43.835,12.000 43.913,12.000 43.990,12.000 44.068,12.000 44.145,12.000 44.223,12.000 44.300,12.000 44.378,12.000 44.455,12.000 44.533,12.000 44.610,12.000 44.688,12.000 44.765,12.000 44.843,12.000 44.920,12.000 44.998,12.000 45.075,12.000 45.153,12.000 45.230,12.000 45.308,12.000 45.385,12.000 45.463,12.000 45.540,12.000 45.618,12.000 45.695,12.000 45.773,12.000 45.850,12.000 45.928,12.000 46.005,12.000 46.083,12.000 46.160,12.000 46.238,12.000 46.315,12.000 46.393,12.000 46.470,12.000 46.548,12.000 46.625,12.000 46.703,12.000 46.780,12.000 46.858,12.000 46.935,12.000 47.013,12.000 47.090,12.000 47.168,12.000 47.245,12.000 47.323,12.000 47.400,12.000 47.478,12.000 47.555,12.000 47.633,12.000 47.710,12.000 47.788,12.000 47.865,12.000 47.943,12.000 48.020,12.000 48.098,12.000 48.175,12.000 48.253,12.000 48.330,12.000 48.408,12.000 48.485,12.000 48.563,12.000 48.640,12.000 48.718,12.000 48.795,12.000 48.873,12.000 48.950,12.000 49.027,12.000 49.104,12.000 49.180,12.000 49.255,12.000 49.330,12.000 49.404,12.000 49.478,12.000 49.550,12.000 49.622,12.000 49.692,12.000 49.761,12.000 49.830,12.000 49.897,12.000 49.963,12.000 50.028,12.000 50.092,12.000 50.155,12.000 50.217,12.000 50.277,12.000 50.337,12.000 50.395,12.000 50.452,12.000 50.508,12.000 50.562,12.000 50.616,12.000 50.668,12.000 50.720,12.000 50.770,12.000 50.819,12.000 50.867,12.000 50.914,12.000 50.960,12.000 51.005,12.000 51.049,12.000 51.092,12.000 51.134,12.000 51.175,12.000 51.215,12.000 51.254,12.000 51.292,12.000 51.329,12.000 51.366,12.000 51.401,12.000 51.436,12.000 51.470,12.000 51.503,12.000 51.535,12.000 51.567,12.000 51.597,12.000 51.627,12.000 51.657,12.000 51.685,12.000 51.713,12.000 51.740,12.000 51.767,12.000 51.792,12.000 51.818,12.000 51.842,12.000 51.866,12.000 51.890,12.000 51.913,12.000 51.935,12.000 51.957,12.000 51.978,12.000 51.999,12.000 52.020,12.000 52.040,12.000 52.060,12.000 52.080,12.000 52.099,12.000 52.119,12.000 52.138,12.000 52.157,12.000 52.176,12.000 52.195,12.000 52.213,12.000 52.232,12.000 52.250,12.000"/>
<polyline fill="none" stroke="#ff7f0e" stroke-width="0.220" stroke-opacity="0.95" points="52.246,12.000 52.239,12.000 52.229,12.000 52.216,12.000 52.201,12.000 52.183,12.000 52.164,12.000 52.142,12.000 52.119,12.001 52.095,12.001 52.069,12.002 52.042,12.003 52.014,12.004 51.985,12.005 51.956,12.007 51.925,12.009 51.894,12.011 51.862,12.013 51.830,12.016 51.797,12.019 51.764,12.023 51.730,12.026 51.696,12.030 51.662,12.035 51.628,12.040 51.593,12.045 51.558,12.050 51.523,12.056 51.488,12.062 51.453,12.069 51.417,12.076 51.382,12.083 51.346,12.091 51.311,12.099 51.275,12.107 51.239,12.116 51.204,12.125 51.168,12.134 51.133,12.144 51.097,12.154 51.062,12.165 51.026,12.175 50.991,12.187 50.956,12.198 50.920,12.210 50.885,12.222 50.850,12.235 50.815,12.248 50.780,12.261 50.746,12.275 50.711,12.289 50.677,12.303 50.642,12.318 50.608,12.333 50.574,12.348 50.540,12.364 50.506,12.380 50.472,12.396 50.439,12.413 50.406,12.430 50.372,12.447 50.339,12.465 50.307,12.483 50.274,12.501 50.241,12.520 50.209,12.539 50.177,12.558 50.145,12.577 50.113,12.597 50.082,12.617 50.050,12.638 50.019,12.659 49.988,12.680 49.957,12.701 49.927,12.723 49.896,12.745 49.866,12.767 49.836,12.790 49.806,12.813 49.777,12.836 49.748,12.859 49.719,12.883 49.690,12.907 49.661,12.931 49.633,12.956 49.605,12.981 49.577,13.006 49.549,13.031 49.522,13.057 49.495,13.083 49.468,13.109 49.442,13.135 49.415,13.162 49.389,13.189 49.363,13.216 49.338,13.243 49.312,13.271 49.287,13.299 49.263,13.327 49.238,13.356 49.214,13.384 49.190,13.413 49.167,13.442 49.143,13.472 49.120,13.501 49.097,13.531 49.075,13.561 49.053,13.591 49.031,13.622 49.009,13.653 48.988,13.683 48.967,13.714 48.946,13.746 48.926,13.777 48.906,13.809 48.886,13.841 48.867,13.873 48.848,13.905 48.829,13.938 48.810,13.970 48.792,14.003 48.774,14.036 48.757,14.069 48.739,14.102 48.722,14.136 48.706,14.169 48.690,14.203 48.674,14.237 48.658,14.271 48.643,14.306 48.628,14.340 48.613,14.375 48.599,14.409 48.585,14.444 48.572,14.479 48.558,14.514 48.546,14.549 48.533,14.585 48.521,14.620 48.509,14.656 48.497,14.691 48.486,14.727 48.475,14.763 48.465,14.799 48.455,14.835 48.445,14.871 48.436,14.908 48.427,14.944 48.418,14.981 48.410,15.017 48.402,15.054 48.394,15.090 48.387,15.127 48.380,15.164 48.373,15.201 48.367,15.238 48.361,15.275 48.356,15.312 48.351,15.349 48.346,15.387 48.341,15.424 48.337,15.461 48.334,15.498 48.330,15.536 48.327,15.573 48.325,15.610 48.323,15.648 48.321,15.685 48.319,15.723 48.318,15.760 48.317,15.798 48.316,15.835 48.316,15.873 48.316,15.910 48.316,15.948 48.317,15.985 48.317,16.023 48.317,16.060 48.318,16.098 48.319,16.135 48.319,16.173 48.320,16.210 48.320,16.248 48.321,16.285 48.322,16.323 48.322,16.360 48.323,16.398 48.323,16.435 48.324,16.473 48.324,16.510 48.325,16.548 48.326,16.585 48.326,16.623 48.327,16.660 48.327,16.698 48.328,16.735 48.328,16.773 48.329,16.810 48.330,16.848 48.330,16.885 48.331,16.923 48.331,16.960 48.332,16.998 48.333,17.035 48.333,17.073 48.334,17.110 48.334,17.148 48.335,17.185 48.335,17.223 48.336,17.260 48.337,17.298 48.337,17.335 48.338,17.373 48.338,17.410 48.339,17.448 48.340,17.485 48.340,17.523 48.341,17.560 48.341,17.598 48.342,17.635 48.342,17.673 48.343,17.710 48.344,17.748 48.344,17.785 48.345,17.823 48.345,17.860 48.346,17.898 48.346,17.935 48.347,17.973 48.348,18.010 48.348,18.048 48.349,18.085 48.349,18.123 48.350,18.160 48.351,18.198 48.351,18.235 48.352,18.273 48.352,18.310 48.353,18.348 48.353,18.385 48.354,18.422 48.355,18.460 48.355,18.497 48.356,18.534 48.356,18.571 48.357,18.608 48.357,18.644 48.358,18.680 48.359,18.717 48.359,18.752 48.360,18.788 48.360,18.823 48.361,18.858 48.361,18.893 48.362,18.928 48.362,18.962 48.363,18.996 48.363,19.030 48.364,19.063 48.364,19.096 48.365,19.129 48.366,19.162 48.366,19.194 48.367,19.226 48.367,19.258 48.367,19.289 48.368,19.320 48.368,19.351 48.369,19.382 48.369,19.412 48.370,19.442 48.370,19.471 48.371,19.501 48.371,19.530 48.372,19.558 48.372,19.587 48.373,19.615 48.373,19.643 48.373,19.671 48.374,19.698 48.374,19.725 48.375,19.752 48.375,19.779 48.375,19.805 48.376,19.831 48.376,19.857 48.377,19.882 48.377,19.907 48.377,19.932 48.378,19.957 48.378,19.982 48.379,20.006 48.379,20.030 48.379,20.054 48.380,20.077 48.380,20.100 48.380,20.123 48.381,20.146 48.381,20.169 48.381,20.191 48.382,20.213 48.382,20.235 48.382,20.257 48.383,20.278 48.383,20.300 48.383,20.321 48.384,20.341 48.384,20.362 48.384,20.382 48.385,20.403 48.385,20.423 48.385,20.442 48.386,20.462 48.386,20.481 48.386,20.501 48.387,20.520 48.387,20.538 48.387,20.557 48.387,20.576 48.388,20.594 48.388,20.613 48.388,20.631 48.389,20.649 48.389,20.667 48.389,20.685 48.389,20.704 48.390,20.722 48.390,20.739 48.390,20.757 48.391,20.775 48.391,20.793 48.391,20.811 48.391,20.829 48.392,20.846 48.392,20.864 48.392,20.882 48.392,20.899 48.393,20.917 48.393,20.935 48.393,20.952 48.394,20.970 48.394,20.987 48.394,21.005 48.394,21.023 48.395,21.040 48.395,21.058 48.395,21.075 48.395,21.093 48.396,21.110 48.396,21.128 48.396,21.145 48.397,21.163 48.397,21.180 48.397,21.198 48.397,21.216 48.398,21.233 48.398,21.251 48.398,21.268 48.398,21.286 48.399,21.303 48.399,21.321 48.399,21.338 48.400,21.356 48.400,21.373 48.400,21.391 48.400,21.408 48.401,21.426 48.401,21.443 48.401,21.461 48.401,21.478 48.402,21.496 48.402,21.513 48.402,21.531 48.402,21.548 48.403,21.566 48.403,21.583 48.403,21.601 48.404,21.618 48.404,21.636 48.404,21.653 48.404,21.671 48.405,21.688 48.405,21.706 48.405,21.723 48.405,21.741 48.406,21.758 48.406,21.776 48.406,21.793 48.407,21.811 48.407,21.828 48.407,21.846 48.407,21.863 48.408,21.881 48.408,21.898 48.408,21.916 48.408,21.933 48.409,21.951 48.409,21.968 48.409,21.986 48.410,22.003 48.410,22.021 48.410,22.038 48.410,22.056 48.411,22.073 48.411,22.091 48.411,22.108 48.411,22.126 48.412,22.143 48.412,22.161 48.412,22.178 48.413,22.196 48.413,22.213 48.413,22.231 48.413,22.248 48.414,22.266"/>
<polygon fill="#1f77b4" fill-opacity="0.140" stroke="#1f77b4" stroke-opacity="0.55" stroke-width="0.07" points="6.408,13.000 6.408,11.000 1.608,11.000 1.608,13.000"/>
<polygon fill="#1f77b4" fill-opacity="0.140" stroke="#1f77b4" stroke-opacity="0.55" stroke-width="0.07" points="7.269,13.000 7.269,11.000 2.469,11.000 2.469,13.000"/>
<polygon fill="#1f77b4" fill-opacity="0.140" stroke="#1f77b4" stroke-opacity="0.55" stroke-width="0.07" points="8.584,13.000 8.584,11.000 3.784,11.000 3.784,13.000"/>
<polygon fill="#1f77b4" fill-opacity="0.140" stroke="#1f77b4" stroke-opacity="0.55" stroke-width="0.07" points="9.967,13.000 9.967,11.000 5.167,11.000 5.167,13.000"/>
<polygon fill="#1f77b4" fill-opacity="0.140" stroke="#1f77b4" stroke-opacity="0.55" stroke-width="0.07" points="11.360,13.000 11.360,11.000 6.560,11.000 6.560,13.000"/>
<polygon fill="#1f77b4" fill-opacity="0.140" stroke="#1f77b4" stroke-opacity="0.55" stroke-width="0.07" points="12.755,13.000 12.755,11.000 7.955,11.000 7.955,13.000"/>
<polygon fill="#1f77b4" fill-opacity="0.140" stroke="#1f77b4" stroke-opacity="0.55" stroke-width="0.07" points="14.150,13.000 14.150,11.000 9.350,11.000 9.350,13.000"/>
<polygon fill="#1f77b4" fill-opacity="0.140" stroke="#1f77b4" stroke-opacity="0.55" stroke-width="0.07" points="15.545,13.000 15.545,11.000 10.745,11.000 10.745,13.000"/>
<polygon fill="#1f77b4" fill-opacity="0.140" stroke="#1f77b4" stroke-opacity="0.55" stroke-width="0.07" points="16.940,13.000 16.940,11.000 12.140,11.000 12.140,13.000"/>
<polygon fill="#1f77b4" fill-opacity="0.140" stroke="#1f77b4" stroke-opacity="0.55" stroke-width="0.07" points="18.335,13.000 18.335,11.000 13.535,11.000 13.535,13.000"/>
<polygon fill="#1f77b4" fill-opacity="0.140" stroke="#1f77b4" stroke-opacity="0.55" stroke-width="0.07" points="19.730,13.000 19.730,11.000 14.930,11.000 14.930,13.000"/>
<polygon fill="#1f77b4" fill-opacity="0.140" stroke="#1f77b4" stroke-opacity="0.55" stroke-width="0.07" points="21.125,13.000 21.125,11.000 16.325,11.000 16.325,13.000"/>
<polygon fill="#1f77b4" fill-opacity="0.140" stroke="#1f77b4" stroke-opacity="0.55" stroke-width="0.07" points="22.520,13.000 22.520,11.000 17.720,11.000 17.720,13.000"/>
<polygon fill="#1f77b4" fill-opacity="0.140" stroke="#1f77b4" stroke-opacity="0.55" stroke-width="0.07" points="23.915,13.000 23.915,11.000 19.115,11.000 19.115,13.000"/>
<polygon fill="#1f77b4" fill-opacity="0.140" stroke="#1f77b4" stroke-opacity="0.55" stroke-width="0.07" points="25.310,13.000 25.310,11.000 20.510,11.000 20.510,13.000"/>
<polygon fill="#1f77b4" fill-opacity="0.140" stroke="#1f77b4" stroke-opacity="0.55" stroke-width="0.07" points="26.705,13.000 26.705,11.000 21.905,11.000 21.905,13.000"/>
<polygon fill="#1f77b4" fill-opacity="0.140" stroke="#1f77b4" stroke-opacity="0.55" stroke-width="0.07" points="28.100,13.000 28.100,11.000 23.300,11.000 23.300,13.000"/>
<polygon fill="#1f77b4" fill-opacity="0.140" stroke="#1f77b4" stroke-opacity="0.55" stroke-width="0.07" points="29.495,13.000 29.495,11.000 24.695,11.000 24.695,13.000"/>
<polygon fill="#1f77b4" fill-opacity="0.140" stroke="#1f77b4" stroke-opacity="0.55" stroke-width="0.07" points="30.890,13.000 30.890,11.000 26.090,11.000 26.090,13.000"/>
<polygon fill="#1f77b4" fill-opacity="0.140" stroke="#1f77b4" stroke-opacity="0.55" stroke-width="0.07" points="32.285,13.000 32.285,11.000 27.485,11.000 27.485,13.000"/>
<polygon fill="#1f77b4" fill-opacity="0.140" stroke="#1f77b4" stroke-opacity="0.55" stroke-width="0.07" points="33.680,13.000 33.680,11.000 28.880,11.000 28.880,13.000"/>
<polygon fill="#1f77b4" fill-opacity="0.140" stroke="#1f77b4" stroke-opacity="0.55" stroke-width="0.07" points="35.075,13.000 35.075,11.000 30.275,11.000 30.275,13.000"/>
<polygon fill="#1f77b4" fill-opacity="0.140" stroke="#1f77b4" stroke-opacity="0.55" stroke-width="0.07" points="36.470,13.000 36.470,11.000 31.670,11.000 31.670,13.000"/>
<polygon fill="#1f77b4" fill-opacity="0.140" stroke="#1f77b4" stroke-opacity="0.55" stroke-width="0.07" points="37.865,13.000 37.865,11.000 33.065,11.000 33.065,13.000"/>
<polygon fill="#1f77b4" fill-opacity="0.140" stroke="#1f77b4" stroke-opacity="0.55" stroke-width="0.07" points="39.260,13.000 39.260,11.000 34.460,11.000 34.460,13.000"/>
<polygon fill="#1f77b4" fill-opacity="0.140" stroke="#1f77b4" stroke-opacity="0.55" stroke-width="0.07" points="40.655,13.000 40.655,11.000 35.855,11.000 35.855,13.000"/>
<polygon fill="#1f77b4" fill-opacity="0.140" stroke="#1f77b4" stroke-opacity="0.55" stroke-width="0.07" points="42.050,13.000 42.050,11.000 37.250,11.000 37.250,13.000"/>
<polygon fill="#1f77b4" fill-opacity="0.140" stroke="#1f77b4" stroke-opacity="0.55" stroke-width="0.07" points="43.445,13.000 43.445,11.000 38.645,11.000 38.645,13.000"/>
<polygon fill="#1f77b4" fill-opacity="0.140" stroke="#1f77b4" stroke-opacity="0.55" stroke-width="0.07" points="44.840,13.000 44.840,11.000 40.040,11.000 40.040,13.000"/>
<polygon fill="#1f77b4" fill-opacity="0.140" stroke="#1f77b4" stroke-opacity="0.55" stroke-width="0.07" points="46.235,13.000 46.235,11.000 41.435,11.000 41.435,13.000"/>
<polygon fill="#1f77b4" fill-opacity="0.140" stroke="#1f77b4" stroke-opacity="0.55" stroke-width="0.07" points="47.630,13.000 47.630,11.000 42.830,11.000 42.830,13.000"/>
<polygon fill="#1f77b4" fill-opacity="0.140" stroke="#1f77b4" stroke-opacity="0.55" stroke-width="0.07" points="49.025,13.000 49.025,11.000 44.225,11.000 44.225,13.000"/>
<polygon fill="#1f77b4" fill-opacity="0.140" stroke="#1f77b4" stroke-opacity="0.55" stroke-width="0.07" points="50.420,13.000 50.420,11.000 45.620,11.000 45.620,13.000"/>
<polygon fill="#1f77b4" fill-opacity="0.140" stroke="#1f77b4" stroke-opacity="0.55" stroke-width="0.07" points="51.804,13.000 51.804,11.000 47.004,11.000 47.004,13.000"/>
<polygon fill="#1f77b4" fill-opacity="0.140" stroke="#1f77b4" stroke-opacity="0.55" stroke-width="0.07" points="52.962,13.000 52.962,11.000 48.162,11.000 48.162,13.000"/>
<polygon fill="#1f77b4" fill-opacity="0.140" stroke="#1f77b4" stroke-opacity="0.55" stroke-width="0.07" points="53.766,13.000 53.766,11.000 48.966,11.000 48.966,13.000"/>
<polygon fill="#1f77b4" fill-opacity="0.140" stroke="#1f77b4" stroke-opacity="0.55" stroke-width="0.07" points="54.290,13.000 54.290,11.000 49.490,11.000 49.490,13.000"/>
<polygon fill="#1f77b4" fill-opacity="0.140" stroke="#1f77b4" stroke-opacity="0.55" stroke-width="0.07" points="54.650,13.000 54.650,11.000 49.850,11.000 49.850,13.000"/>
<polygon fill="#1f77b4" fill-opacity="0.140" stroke="#1f77b4" stroke-opacity="0.55" stroke-width="0.07" points="54.650,13.000 54.650,11.000 49.850,11.000 49.850,13.000"/>
<polygon fill="#ff7f0e" fill-opacity="0.160" stroke="#ff7f0e" stroke-opacity="0.55" stroke-width="0.07" points="54.646,13.000 54.646,11.000 49.846,11.000 49.846,13.000"/>
<polygon fill="#ff7f0e" fill-opacity="0.160" stroke="#ff7f0e" stroke-opacity="0.55" stroke-width="0.07" points="54.313,12.786 54.126,10.795 49.347,11.246 49.534,13.237"/>
<polygon fill="#ff7f0e" fill-opacity="0.160" stroke="#ff7f0e" stroke-opacity="0.55" stroke-width="0.07" points="53.780,12.477 53.268,10.543 48.628,11.773 49.140,13.706"/>
<polygon fill="#ff7f0e" fill-opacity="0.160" stroke="#ff7f0e" stroke-opacity="0.55" stroke-width="0.07" points="53.172,12.250 52.334,10.434 47.976,12.446 48.814,14.262"/>
<polygon fill="#ff7f0e" fill-opacity="0.160" stroke="#ff7f0e" stroke-opacity="0.55" stroke-width="0.07" points="52.529,12.131 51.388,10.489 47.446,13.228 48.588,14.871"/>
<polygon fill="#ff7f0e" fill-opacity="0.160" stroke="#ff7f0e" stroke-opacity="0.55" stroke-width="0.07" points="51.875,12.126 50.465,10.708 47.061,14.091 48.471,15.510"/>
<polygon fill="#ff7f0e" fill-opacity="0.160" stroke="#ff7f0e" stroke-opacity="0.55" stroke-width="0.07" points="51.230,12.235 49.595,11.084 46.832,15.009 48.467,16.160"/>
<polygon fill="#ff7f0e" fill-opacity="0.160" stroke="#ff7f0e" stroke-opacity="0.55" stroke-width="0.07" points="50.614,12.455 48.803,11.606 46.765,15.952 48.576,16.801"/>
<polygon fill="#ff7f0e" fill-opacity="0.160" stroke="#ff7f0e" stroke-opacity="0.55" stroke-width="0.07" points="50.045,12.778 48.114,12.258 46.865,16.892 48.796,17.413"/>
<polygon fill="#ff7f0e" fill-opacity="0.160" stroke="#ff7f0e" stroke-opacity="0.55" stroke-width="0.07" points="49.542,13.196 47.550,13.019 47.125,17.800 49.117,17.977"/>
<polygon fill="#ff7f0e" fill-opacity="0.160" stroke="#ff7f0e" stroke-opacity="0.55" stroke-width="0.07" points="49.282,13.758 47.282,13.789 47.356,18.588 49.356,18.557"/>
<polygon fill="#ff7f0e" fill-opacity="0.160" stroke="#ff7f0e" stroke-opacity="0.55" stroke-width="0.07" points="49.292,14.432 47.293,14.463 47.367,19.263 49.367,19.232"/>
<polygon fill="#ff7f0e" fill-opacity="0.160" stroke="#ff7f0e" stroke-opacity="0.55" stroke-width="0.07" points="49.303,15.107 47.303,15.138 47.377,19.938 49.377,19.907"/>
<polygon fill="#ff7f0e" fill-opacity="0.160" stroke="#ff7f0e" stroke-opacity="0.55" stroke-width="0.07" points="49.313,15.782 47.313,15.813 47.388,20.613 49.388,20.582"/>
<polygon fill="#ff7f0e" fill-opacity="0.160" stroke="#ff7f0e" stroke-opacity="0.55" stroke-width="0.07" points="49.323,16.443 47.324,16.474 47.398,21.274 49.398,21.243"/>
<polygon fill="#ff7f0e" fill-opacity="0.160" stroke="#ff7f0e" stroke-opacity="0.55" stroke-width="0.07" points="49.333,17.026 47.333,17.057 47.407,21.857 49.407,21.826"/>
<polygon fill="#ff7f0e" fill-opacity="0.160" stroke="#ff7f0e" stroke-opacity="0.55" stroke-width="0.07" points="49.340,17.517 47.340,17.548 47.415,22.348 49.415,22.317"/>
<polygon fill="#ff7f0e" fill-opacity="0.160" stroke="#ff7f0e" stroke-opacity="0.55" stroke-width="0.07" points="49.346,17.926 47.347,17.957 47.421,22.757 49.421,22.726"/>
<polygon fill="#ff7f0e" fill-opacity="0.160" stroke="#ff7f0e" stroke-opacity="0.55" stroke-width="0.07" points="49.352,18.270 47.352,18.301 47.426,23.101 49.426,23.070"/>
<polygon fill="#ff7f0e" fill-opacity="0.160" stroke="#ff7f0e" stroke-opacity="0.55" stroke-width="0.07" points="49.357,18.590 47.357,18.621 47.431,23.420 49.431,23.389"/>
<polygon fill="#ff7f0e" fill-opacity="0.160" stroke="#ff7f0e" stroke-opacity="0.55" stroke-width="0.07" points="49.362,18.905 47.362,18.936 47.436,23.736 49.436,23.705"/>
<polygon fill="#ff7f0e" fill-opacity="0.160" stroke="#ff7f0e" stroke-opacity="0.55" stroke-width="0.07" points="49.367,19.220 47.367,19.251 47.441,24.051 49.441,24.020"/>
<polygon fill="#ff7f0e" fill-opacity="0.160" stroke="#ff7f0e" stroke-opacity="0.55" stroke-width="0.07" points="49.371,19.535 47.372,19.566 47.446,24.366 49.446,24.335"/>
<polygon fill="#ff7f0e" fill-opacity="0.160" stroke="#ff7f0e" stroke-opacity="0.55" stroke-width="0.07" points="49.376,19.850 47.377,19.881 47.451,24.681 49.451,24.650"/>
<polygon fill="#ff7f0e" fill-opacity="0.160" stroke="#ff7f0e" stroke-opacity="0.55" stroke-width="0.07" points="49.376,19.850 47.377,19.881 47.451,24.681 49.451,24.650"/>
<polygon fill="none" stroke="crimson" stroke-width="0.120" points="49.376,19.850 47.377,19.881 47.451,24.681 49.451,24.650"/>
</g>
</svg>
