<?xml version="1.0" encoding="UTF-8"?>
<svg xmlns="http://www.w3.org/2000/svg" width="1400" height="900" viewBox="0 -3 75 53">
<rect x="0" y="-3" width="75" height="53" fill="white"/>
<text x="1.5" y="-1.35" font-size="1.15" fill="black">Parking | target row=3 idx=8 | success=true sim_ok=true | max_steer=35 deg | overshoot~=5 m | total(ref)~=6e+01 m</text>
<text x="1.5" y="-0.45" font-size="0.95" fill="black">ok</text>
<g transform="translate(0,50.000) scale(1,-1)">
<rect x="0" y="0" width="75.000" height="50.000" fill="none" stroke="black" stroke-width="0.15"/>
<rect x="0.000" y="9.000" width="75.000" height="6.000" fill="#add8e6" fill-opacity="0.25" stroke="#add8e6" stroke-width="0.08"/>
<rect x="0.000" y="34.500" width="75.000" height="6.000" fill="#add8e6" fill-opacity="0.25" stroke="#add8e6" stroke-width="0.08"/>
<rect x="60.000" y="12.000" width="6.000" height="25.500" fill="#90ee90" fill-opacity="0.25" stroke="#90ee90" stroke-width="0.08"/>
<rect x="12.000" y="44.000" width="4.800" height="6.000" fill="white" stroke="gray" stroke-width="0.080" fill-opacity="0.85"/>
<rect x="16.800" y="44.000" width="4.800" height="6.000" fill="white" stroke="gray" stroke-width="0.080" fill-opacity="0.85"/>
<rect x="21.600" y="44.000" width="4.800" height="6.000" fill="black" stroke="gray" stroke-width="0.080" fill-opacity="0.95"/>
<rect x="26.400" y="44.000" width="4.800" height="6.000" fill="black" stroke="gray" stroke-width="0.080" fill-opacity="0.95"/>
<rect x="31.200" y="44.000" width="4.800" height="6.000" fill="white" stroke="gray" stroke-width="0.080" fill-opacity="0.85"/>
<rect x="36.000" y="44.000" width="4.800" height="6.000" fill="white" stroke="gray" stroke-width="0.080" fill-opacity="0.85"/>
<rect x="40.800" y="44.000" width="4.800" height="6.000" fill="white" stroke="gray" stroke-width="0.080" fill-opacity="0.85"/>
<rect x="45.600" y="44.000" width="4.800" height="6.000" fill="white" stroke="gray" stroke-width="0.080" fill-opacity="0.85"/>
<rect x="50.400" y="44.000" width="4.800" height="6.000" fill="black" stroke="gray" stroke-width="0.080" fill-opacity="0.95"/>
<rect x="55.200" y="44.000" width="4.800" height="6.000" fill="white" stroke="gray" stroke-width="0.080" fill-opacity="0.85"/>
<rect x="12.000" y="25.000" width="4.800" height="6.000" fill="black" stroke="gray" stroke-width="0.080" fill-opacity="0.95"/>
<rect x="16.800" y="25.000" width="4.800" height="6.000" fill="black" stroke="gray" stroke-width="0.080" fill-opacity="0.95"/>
<rect x="21.600" y="25.000" width="4.800" height="6.000" fill="black" stroke="gray" stroke-width="0.080" fill-opacity="0.95"/>
<rect x="26.400" y="25.000" width="4.800" height="6.000" fill="white" stroke="gray" stroke-width="0.080" fill-opacity="0.85"/>
<rect x="31.200" y="25.000" width="4.800" height="6.000" fill="white" stroke="gray" stroke-width="0.080" fill-opacity="0.85"/>
<rect x="36.000" y="25.000" width="4.800" height="6.000" fill="black" stroke="gray" stroke-width="0.080" fill-opacity="0.95"/>
<rect x="40.800" y="25.000" width="4.800" height="6.000" fill="white" stroke="gray" stroke-width="0.080" fill-opacity="0.85"/>
<rect x="45.600" y="25.000" width="4.800" height="6.000" fill="black" stroke="gray" stroke-width="0.080" fill-opacity="0.95"/>
<rect x="50.400" y="25.000" width="4.800" height="6.000" fill="white" stroke="gray" stroke-width="0.080" fill-opacity="0.85"/>
<rect x="55.200" y="25.000" width="4.800" height="6.000" fill="white" stroke="gray" stroke-width="0.080" fill-opacity="0.85"/>
<rect x="12.000" y="19.000" width="4.800" height="6.000" fill="white" stroke="gray" stroke-width="0.080" fill-opacity="0.85"/>
<rect x="16.800" y="19.000" width="4.800" height="6.000" fill="white" stroke="gray" stroke-width="0.080" fill-opacity="0.85"/>
<rect x="21.600" y="19.000" width="4.800" height="6.000" fill="white" stroke="gray" stroke-width="0.080" fill-opacity="0.85"/>
<rect x="26.400" y="19.000" width="4.800" height="6.000" fill="white" stroke="gray" stroke-width="0.080" fill-opacity="0.85"/>
<rect x="31.200" y="19.000" width="4.800" height="6.000" fill="black" stroke="gray" stroke-width="0.080" fill-opacity="0.95"/>
<rect x="36.000" y="19.000" width="4.800" height="6.000" fill="white" stroke="gray" stroke-width="0.080" fill-opacity="0.85"/>
<rect x="40.800" y="19.000" width="4.800" height="6.000" fill="white" stroke="gray" stroke-width="0.080" fill-opacity="0.85"/>
<rect x="45.600" y="19.000" width="4.800" height="6.000" fill="white" stroke="gray" stroke-width="0.080" fill-opacity="0.85"/>
<rect x="50.400" y="19.000" width="4.800" height="6.000" fill="black" stroke="gray" stroke-width="0.080" fill-opacity="0.95"/>
<rect x="55.200" y="19.000" width="4.800" height="6.000" fill="white" stroke="gray" stroke-width="0.080" fill-opacity="0.85"/>
<rect x="12.000" y="0.000" width="4.800" height="6.000" fill="white" stroke="gray" stroke-width="0.080" fill-opacity="0.85"/>
<rect x="16.800" y="0.000" width="4.800" height="6.000" fill="white" stroke="gray" stroke-width="0.080" fill-opacity="0.85"/>
<rect x="21.600" y="0.000" width="4.800" height="6.000" fill="black" stroke="gray" stroke-width="0.080" fill-opacity="0.95"/>
<rect x="26.400" y="0.000" width="4.800" height="6.000" fill="white" stroke="gray" stroke-width="0.080" fill-opacity="0.85"/>
<rect x="31.200" y="0.000" width="4.800" height="6.000" fill="black" stroke="gray" stroke-width="0.080" fill-opacity="0.95"/>
<rect x="36.000" y="0.000" width="4.800" height="6.000" fill="white" stroke="gray" stroke-width="0.080" fill-opacity="0.85"/>
<rect x="40.800" y="0.000" width="4.800" height="6.000" fill="black" stroke="gray" stroke-width="0.080" fill-opacity="0.95"/>
<rect x="45.600" y="0.000" width="4.800" height="6.000" fill="white" stroke="gray" stroke-width="0.080" fill-opacity="0.85"/>
<rect x="50.400" y="0.000" width="4.800" height="6.000" fill="#98fb98" stroke="darkgreen" stroke-width="0.180" fill-opacity="0.85"/>
<rect x="55.200" y="0.000" width="4.800" height="6.000" fill="white" stroke="gray" stroke-width="0.080" fill-opacity="0.85"/>
<polygon fill="none" stroke="navy" stroke-width="0.120" points="6.400,13.000 6.400,11.000 1.600,11.000 1.600,13.000"/>
<polygon fill="purple" points="50.020,12.000 50.300,12.350 50.580,12.000 50.300,11.650"/>
<circle cx="57.600" cy="12.000" r="0.38" fill="darkviolet" stroke="indigo" stroke-width="0.06"/>
<polyline fill="none" stroke="#808080" stroke-width="0.120" stroke-opacity="0.65" stroke-dasharray="0.45 0.35" points="4.000,12.000 50.300,12.000 57.600,12.000"/>
<polyline fill="none" stroke="#808080" stroke-width="0.120" stroke-opacity="0.65" stroke-dasharray="0.45 0.35" points="57.600,12.000 57.600,11.835 57.592,11.667 57.577,11.496 57.554,11.323 57.524,11.146 57.487,10.968 57.444,10.786 57.394,10.603 57.338,10.417 57.276,10.230 57.208,10.041 57.134,9.850 57.056,9.658 56.972,9.464 56.883,9.269 56.789,9.073 56.691,8.877 56.589,8.679 56.483,8.481 56.373,8.283 56.260,8.084 56.143,7.885 56.023,7.686 55.900,7.487 55.775,7.289 55.647,7.091 55.517,6.893 55.385,6.697 55.251,6.501 55.116,6.306 54.979,6.113 54.842,5.921 54.703,5.730 54.564,5.541 54.424,5.354 54.285,5.168 54.145,4.985 54.006,4.804 53.867,4.625 53.729,4.449 53.591,4.276 53.455,4.105 53.320,3.938 53.187,3.773 53.056,3.612 52.927,3.454 52.800,3.300"/>
<polyline fill="none" stroke="#1f77b4" stroke-width="0.220" stroke-opacity="0.95" points="4.008,12.000 4.022,12.000 4.043,12.000 4.070,12.000 4.102,12.000 4.138,12.000 4.179,12.000 4.223,12.000 4.270,12.000 4.321,12.000 4.374,12.000 4.429,12.000 4.487,12.000 4.547,12.000 4.609,12.000 4.672,12.000 4.736,12.000 4.802,12.000 4.869,12.000 4.937,12.000 5.006,12.000 5.076,12.000 5.147,12.000 5.218,12.000 5.290,12.000 5.363,12.000 5.436,12.000 5.509,12.000 5.583,12.000 5.657,12.000 5.732,12.000 5.806,12.000 5.882,12.000 5.957,12.000 6.032,12.000 6.108,12.000 6.184,12.000 6.260,12.000 6.336,12.000 6.413,12.000 6.489,12.000 6.566,12.000 6.643,12.000 6.719,12.000 6.796,12.000 6.873,12.000 6.950,12.000 7.027,12.000 7.104,12.000 7.181,12.000 7.258,12.000 7.335,12.000 7.413,12.000 7.490,12.000 7.567,12.000 7.644,12.000 7.722,12.000 7.799,12.000 7.876,12.000 7.954,12.000 8.031,12.000 8.109,12.000 8.186,12.000 8.263,12.000 8.341,12.000 8.418,12.000 8.496,12.000 8.573,12.000 8.650,12.000 8.728,12.000 8.805,12.000 8.883,12.000 8.960,12.000 9.038,12.000 9.115,12.000 9.193,12.000 9.270,12.000 9.348,12.000 9.425,12.000 9.503,12.000 9.580,12.000 9.658,12.000 9.735,12.000 9.813,12.000 9.890,12.000 9.968,12.000 10.045,12.000 10.123,12.000 10.200,12.000 10.278,12.000 10.355,12.000 10.433,12.000 10.510,12.000 10.588,12.000 10.665,12.000 10.743,12.000 10.820,12.000 10.898,12.000 10.975,12.000 11.053,12.000 11.130,12.000 11.208,12.000 11.285,12.000 11.363,12.000 11.440,12.000 11.518,12.000 11.595,12.000 11.673,12.000 11.750,12.000 11.828,12.000 11.905,12.000 11.983,12.000 12.060,12.000 12.138,12.000 12.215,12.000 12.293,12.000 12.370,12.000 12.448,12.000 12.525,12.000 12.603,12.000 12.680,12.000 12.758,12.000 12.835,12.000 12.913,12.000 12.990,12.000 13.068,12.000 13.145,12.000 13.223,12.000 13.300,12.000 13.378,12.000 13.455,12.000 13.533,12.000 13.610,12.000 13.688,12.000 13.765,12.000 13.843,12.000 13.920,12.000 13.998,12.000 14.075,12.000 14.153,12.000 14.230,12.000 14.308,12.000 14.385,12.000 14.463,12.000 14.540,12.000 14.618,12.000 14.695,12.000 14.773,12.000 14.850,12.000 14.928,12.000 15.005,12.000 15.083,12.000 15.160,12.000 15.238,12.000 15.315,12.000 15.393,12.000 15.470,12.000 15.548,12.000 15.625,12.000 15.703,12.000 15.780,12.000 15.858,12.000 15.935,12.000 16.013,12.000 16.090,12.000 16.168,12.000 16.245,12.000 16.323,12.000 16.400,12.000 16.478,12.000 16.555,12.000 16.633,12.000 16.710,12.000 16.788,12.000 16.865,12.000 16.943,12.000 17.020,12.000 17.098,12.000 17.175,12.000 17.253,12.000 17.330,12.000 17.408,12.000 17.485,12.000 17.563,12.000 17.640,12.000 17.718,12.000 17.795,12.000 17.873,12.000 17.950,12.000 18.028,12.000 18.105,12.000 18.183,12.000 18.260,12.000 18.338,12.000 18.415,12.000 18.493,12.000 18.570,12.000 18.648,12.000 18.725,12.000 18.803,12.000 18.880,12.000 18.958,12.000 19.035,12.000 19.113,12.000 19.190,12.000 19.268,12.000 19.345,12.000 19.423,12.000 19.500,12.000 19.578,12.000 19.655,12.000 19.733,12.000 19.810,12.000 19.888,12.000 19.965,12.000 20.043,12.000 20.120,12.000 20.198,12.000 20.275,12.000 20.353,12.000 20.430,12.000 20.508,12.000 20.585,12.000 20.663,12.000 20.740,12.000 20.818,12.000 20.895,12.000 20.973,12.000 21.050,12.000 21.128,12.000 21.205,12.000 21.283,12.000 21.360,12.000 21.438,12.000 21.515,12.000 21.593,12.000 21.670,12.000 21.748,12.000 21.825,12.000 21.903,12.000 21.980,12.000 22.058,12.000 22.135,12.000 22.213,12.000 22.290,12.000 22.368,12.000 22.445,12.000 22.523,12.000 22.600,12.000 22.678,12.000 22.755,12.000 22.833,12.000 22.910,12.000 22.988,12.000 23.065,12.000 23.143,12.000 23.220,12.000 23.298,12.000 23.375,12.000 23.453,12.000 23.530,12.000 23.608,12.000 23.685,12.000 23.763,12.000 23.840,12.000 23.918,12.000 23.995,12.000 24.073,12.000 24.150,12.000 24.228,12.000 24.305,12.000 24.383,12.000 24.460,12.000 24.538,12.000 24.615,12.000 24.693,12.000 24.770,12.000 24.848,12.000 24.925,12.000 25.003,12.000 25.080,12.000 25.158,12.000 25.235,12.000 25.313,12.000 25.390,12.000 25.468,12.000 25.545,12.000 25.623,12.000 25.700,12.000 25.778,12.000 25.855,12.000 25.933,12.000 26.010,12.000 26.088,12.000 26.165,12.000 26.243,12.000 26.320,12.000 26.398,12.000 26.475,12.000 26.553,12.000 26.630,12.000 26.708,12.000 26.785,12.000 26.863,12.000 26.940,12.000 27.018,12.000 27.095,12.000 27.173,12.000 27.250,12.000 27.328,12.000 27.405,12.000 27.483,12.000 27.560,12.000 27.638,12.000 27.715,12.000 27.793,12.000 27.870,12.000 27.948,12.000 28.025,12.000 28.103,12.000 28.180,12.000 28.258,12.000 28.335,12.000 28.413,12.000 28.490,12.000 28.568,12.000 28.645,12.000 28.723,12.000 28.800,12.000 28.878,12.000 28.955,12.000 29.033,12.000 29.110,12.000 29.188,12.000 29.265,12.000 29.343,12.000 29.420,12.000 29.498,12.000 29.575,12.000 29.653,12.000 29.730,12.000 29.808,12.000 29.885,12.000 29.963,12.000 30.040,12.000 30.118,12.000 30.195,12.000 30.273,12.000 30.350,12.000 30.428,12.000 30.505,12.000 30.583,12.000 30.660,12.000 30.738,12.000 30.815,12.000 30.893,12.000 30.970,12.000 31.048,12.000 31.125,12.000 31.203,12.000 31.280,12.000 31.358,12.000 31.435,12.000 31.513,12.000 31.590,12.000 31.668,12.000 31.745,12.000 31.823,12.000 31.900,12.000 31.978,12.000 32.055,12.000 32.133,12.000 32.210,12.000 32.288,12.000 32.365,12.000 32.443,12.000 32.520,12.000 32.598,12.000 32.675,12.000 32.753,12.000 32.830,12.000 32.908,12.000 32.985,12.000 33.063,12.000 33.140,12.000 33.218,12.000 33.295,12.000 33.373,12.000 33.450,12.000 33.528,12.000 33.605,12.000 33.683,12.000 33.760,12.000 33.838,12.000 33.915,12.000 33.993,12.000 34.070,12.000 34.148,12.000 34.225,12.000 34.303,12.000 34.380,12.000 34.458,12.000 34.535,12.000 34.613,12.000 34.690,12.000 34.768,12.000 34.845,12.000 34.923,12.000 35.000,12.000 35.078,12.000 35.155,12.000 35.233,12.000 35.310,12.000 35.388,12.000 35.465,12.000 35.543,12.000 35.620,12.000 35.698,12.000 35.775,12.000 35.853,12.000 35.930,12.000 36.008,12.000 36.085,12.000 36.163,12.000 36.240,12.000 36.318,12.000 36.395,12.000 36.473,12.000 36.550,12.000 36.628,12.000 36.705,12.000 36.783,12.000 36.860,12.000 36.938,12.000 37.015,12.000 37.093,12.000 37.170,12.000 37.248,12.000 37.325,12.000 37.403,12.000 37.480,12.000 37.558,12.000 37.635,12.000 37.713,12.000 37.790,12.000 37.868,12.000 37.945,12.000 38.023,12.000 38.100,12.000 38.178,12.000 38.255,12.000 38.333,12.000 38.410,12.000 38.488,12.000 38.565,12.000 38.643,12.000 38.720,12.000 38.798,12.000 38.875,12.000 38.953,12.000 39.030,12.000 39.108,12.000 39.185,12.000 39.263,12.000 39.340,12.000 39.418,12.000 39.495,12.000 39.573,12.000 39.650,12.000 39.728,12.000 39.805,12.000 39.883,12.000 39.960,12.000 40.038,12.000 40.115,12.000 40.193,12.000 40.270,12.000 40.348,12.000 40.425,12.000 40.503,12.000 40.580,12.000 40.658,12.000 40.735,12.000 40.813,12.000 40.890,12.000 40.968,12.000 41.045,12.000 41.123,12.000 41.200,12.000 41.278,12.000 41.355,12.000 41.433,12.000 41.510,12.000 41.588,12.000 41.665,12.000 41.743,12.000 41.820,12.000 41.898,12.000 41.975,12.000 42.053,12.000 42.130,12.000 42.208,12.000 42.285,12.000 42.363,12.000 42.440,12.000 42.518,12.000 42.595,12.000 42.673,12.000 42.750,12.000 42.828,12.000 42.905,12.000 42.983,12.000 43.060,12.000 43.138,12.000 43.215,12.000 43.293,12.000 43.370,12.000 43.448,12.000 43.525,12.000 43.603,12.000 43.680,12.000 43.758,12.000 43.835,12.000 43.913,12.000 43.990,12.000 44.068,12.000 44.145,12.000 44.223,12.000 44.300,12.000 44.378,12.000 44.455,12.000 44.533,12.000 44.610,12.000 44.688,12.000 44.765,12.000 44.843,12.000 44.920,12.000 44.998,12.000 45.075,12.000 45.153,12.000 45.230,12.000 45.308,12.000 45.385,12.000 45.463,12.000 45.540,12.000 45.618,12.000 45.695,12.000 45.773,12.000 45.850,12.000 45.928,12.000 46.005,12.000 46.083,12.000 46.160,12.000 46.238,12.000 46.315,12.000 46.393,12.000 46.470,12.000 46.548,12.000 46.625,12.000 46.703,12.000 46.780,12.000 46.858,12.000 46.935,12.000 47.013,12.000 47.090,12.000 47.168,12.000 47.245,12.000 47.323,12.000 47.400,12.000 47.478,12.000 47.555,12.000 47.633,12.000 47.710,12.000 47.788,12.000 47.865,12.000 47.943,12.000 48.020,12.000 48.098,12.000 48.175,12.000 48.253,12.000 48.330,12.000 48.408,12.000 48.485,12.000 48.563,12.000 48.640,12.000 48.718,12.000 48.795,12.000 48.873,12.000 48.950,12.000 49.028,12.000 49.105,12.000 49.183,12.000 49.260,12.000 49.338,12.000 49.415,12.000 49.493,12.000 49.570,12.000 49.648,12.000 49.725,12.000 49.803,12.000 49.880,12.000 49.958,12.000 50.035,12.000 50.113,12.000 50.190,12.000 50.268,12.000 50.345,12.000 50.423,12.000 50.500,12.000 50.578,12.000 50.655,12.000 50.733,12.000 50.810,12.000 50.888,12.000 50.965,12.000 51.043,12.000 51.120,12.000 51.198,12.000 51.275,12.000 51.353,12.000 51.430,12.000 51.508,12.000 51.585,12.000 51.663,12.000 51.740,12.000 51.818,12.000 51.895,12.000 51.973,12.000 52.050,12.000 52.128,12.000 52.205,12.000 52.283,12.000 52.360,12.000 52.438,12.000 52.515,12.000 52.593,12.000 52.670,12.000 52.748,12.000 52.825,12.000 52.903,12.000 52.980,12.000 53.058,12.000 53.135,12.000 53.213,12.000 53.290,12.000 53.368,12.000 53.445,12.000 53.523,12.000 53.600,12.000 53.678,12.000 53.755,12.000 53.832,12.000 53.909,12.000 53.985,12.000 54.060,12.000 54.135,12.000 54.209,12.000 54.282,12.000 54.355,12.000 54.426,12.000 54.497,12.000 54.566,12.000 54.634,12.000 54.701,12.000 54.768,12.000 54.833,12.000 54.896,12.000 54.959,12.000 55.021,12.000 55.081,12.000 55.140,12.000 55.198,12.000 55.255,12.000 55.311,12.000 55.366,12.000 55.419,12.000 55.472,12.000 55.523,12.000 55.573,12.000 55.622,12.000 55.670,12.000 55.717,12.000 55.763,12.000 55.808,12.000 55.852,12.000 55.894,12.000 55.936,12.000 55.977,12.000 56.017,12.000 56.056,12.000 56.094,12.000 56.132,12.000 56.168,12.000 56.203,12.000 56.238,12.000 56.272,12.000 56.305,12.000 56.337,12.000 56.369,12.000 56.399,12.000 56.429,12.000 56.458,12.000 56.487,12.000 56.515,12.000 56.542,12.000 56.568,12.000 56.594,12.000 56.619,12.000 56.644,12.000 56.668,12.000 56.691,12.000 56.714,12.000 56.736,12.000 56.758,12.000 56.779,12.000 56.800,12.000 56.821,12.000 56.841,12.000 56.861,12.000 56.881,12.000 56.901,12.000 56.920,12.000 56.939,12.000 56.958,12.000 56.977,12.000 56.996,12.000 57.014,12.000 57.033,12.000 57.051,12.000"/>
<polyline fill="none" stroke="#ff7f0e" stroke-width="0.220" stroke-opacity="0.95" points="57.048,12.000 57.040,12.000 57.030,12.000 57.017,12.000 57.002,12.000 56.984,12.000 56.965,12.000 56.943,12.000 56.921,11.999 56.896,11.999 56.870,11.998 56.843,11.997 56.816,11.996 56.787,11.995 56.757,11.993 56.726,11.991 56.695,11.989 56.663,11.987 56.631,11.984 56.598,11.981 56.565,11.977 56.532,11.974 56.498,11.970 56.463,11.965 56.429,11.960 56.394,11.955 56.359,11.950 56.324,11.944 56.289,11.938 56.254,11.931 56.218,11.924 56.183,11.917 56.147,11.909 56.112,11.901 56.076,11.893 56.041,11.884 56.005,11.875 55.969,11.866 55.934,11.856 55.898,11.846 55.863,11.835 55.827,11.825 55.792,11.813 55.757,11.802 55.722,11.790 55.686,11.778 55.651,11.765 55.616,11.752 55.582,11.739 55.547,11.725 55.512,11.711 55.478,11.697 55.443,11.682 55.409,11.667 55.375,11.652 55.341,11.636 55.307,11.620 55.274,11.604 55.240,11.587 55.207,11.570 55.174,11.553 55.141,11.535 55.108,11.517 55.075,11.499 55.043,11.480 55.010,11.461 54.978,11.442 54.946,11.423 54.914,11.403 54.883,11.383 54.851,11.362 54.820,11.341 54.789,11.320 54.758,11.299 54.728,11.277 54.697,11.255 54.667,11.233 54.637,11.210 54.608,11.187 54.578,11.164 54.549,11.141 54.520,11.117 54.491,11.093 54.462,11.069 54.434,11.044 54.406,11.019 54.378,10.994 54.351,10.969 54.323,10.943 54.296,10.917 54.269,10.891 54.243,10.865 54.216,10.838 54.190,10.811 54.164,10.784 54.139,10.757 54.114,10.729 54.089,10.701 54.064,10.673 54.039,10.644 54.015,10.616 53.991,10.587 53.968,10.558 53.944,10.528 53.921,10.499 53.899,10.469 53.876,10.439 53.854,10.409 53.832,10.378 53.810,10.347 53.789,10.317 53.768,10.286 53.748,10.254 53.727,10.223 53.707,10.191 53.687,10.159 53.668,10.127 53.649,10.095 53.630,10.063 53.611,10.030 53.593,9.997 53.575,9.964 53.558,9.931 53.540,9.898 53.523,9.864 53.507,9.831 53.490,9.797 53.474,9.763 53.459,9.729 53.443,9.695 53.428,9.660 53.413,9.626 53.399,9.591 53.385,9.557 53.371,9.522 53.358,9.487 53.344,9.452 53.331,9.416 53.319,9.381 53.307,9.346 53.295,9.310 53.283,9.275 53.272,9.239 53.261,9.203 53.250,9.167 53.240,9.131 53.230,9.095 53.220,9.059 53.210,9.022 53.201,8.986 53.192,8.949 53.184,8.913 53.176,8.876 53.168,8.840 53.160,8.803 53.153,8.766 53.146,8.729 53.139,8.692 53.133,8.656 53.127,8.619 53.121,8.581 53.115,8.544 53.110,8.507 53.105,8.470 53.101,8.433 53.096,8.396 53.092,8.358 53.089,8.321 53.085,8.284 53.082,8.246 53.079,8.209 53.077,8.172 53.074,8.134 53.072,8.097 53.071,8.059 53.069,8.022 53.068,7.984 53.067,7.947 53.067,7.909 53.066,7.872 53.066,7.834 53.066,7.797 53.066,7.759 53.066,7.722 53.066,7.684 53.066,7.647 53.066,7.609 53.067,7.572 53.067,7.534 53.067,7.497 53.067,7.459 53.067,7.422 53.067,7.384 53.067,7.347 53.067,7.309 53.068,7.272 53.068,7.234 53.068,7.197 53.068,7.159 53.068,7.122 53.068,7.085 53.068,7.048 53.068,7.011 53.068,6.975 53.069,6.938 53.069,6.902 53.069,6.866 53.069,6.831 53.069,6.795 53.069,6.760 53.069,6.725 53.069,6.690 53.070,6.656 53.070,6.622 53.070,6.588 53.070,6.555 53.070,6.521 53.070,6.488 53.070,6.456 53.070,6.423 53.070,6.391 53.071,6.360 53.071,6.328 53.071,6.297 53.071,6.266 53.071,6.236 53.071,6.205 53.071,6.175 53.071,6.146 53.071,6.116 53.071,6.087 53.072,6.058 53.072,6.030 53.072,6.001 53.072,5.973 53.072,5.946 53.072,5.918 53.072,5.891 53.072,5.864 53.072,5.838 53.072,5.811 53.072,5.785 53.073,5.759 53.073,5.734 53.073,5.709 53.073,5.684 53.073,5.659 53.073,5.634 53.073,5.610 53.073,5.586 53.073,5.562 53.073,5.539 53.073,5.515 53.073,5.492 53.073,5.469 53.074,5.447 53.074,5.424 53.074,5.402 53.074,5.380 53.074,5.359 53.074,5.337 53.074,5.316 53.074,5.295 53.074,5.274 53.074,5.254 53.074,5.233 53.074,5.213 53.074,5.193 53.074,5.173 53.075,5.154 53.075,5.134 53.075,5.115 53.075,5.096 53.075,5.077 53.075,5.058 53.075,5.040 53.075,5.021 53.075,5.003 53.075,4.985 53.075,4.966 53.075,4.948 53.075,4.930 53.075,4.912 53.075,4.894 53.075,4.876 53.075,4.858 53.076,4.841 53.076,4.823 53.076,4.805 53.076,4.787 53.076,4.770 53.076,4.752 53.076,4.734 53.076,4.716 53.076,4.699 53.076,4.681 53.076,4.664 53.076,4.646 53.076,4.628 53.076,4.611 53.076,4.593 53.076,4.576 53.076,4.558 53.077,4.540 53.077,4.523 53.077,4.505 53.077,4.488 53.077,4.470 53.077,4.453 53.077,4.435 53.077,4.418 53.077,4.400 53.077,4.383 53.077,4.365 53.077,4.348 53.077,4.330 53.077,4.313 53.077,4.295 53.077,4.278 53.077,4.260 53.078,4.243 53.078,4.225 53.078,4.208 53.078,4.190 53.078,4.173 53.078,4.155 53.078,4.138 53.078,4.120 53.078,4.103 53.078,4.085 53.078,4.067 53.078,4.050 53.078,4.032 53.078,4.015 53.078,3.997 53.078,3.980 53.078,3.962 53.078,3.945 53.079,3.927 53.079,3.910 53.079,3.892 53.079,3.875 53.079,3.857 53.079,3.840 53.079,3.822 53.079,3.805 53.079,3.787 53.079,3.770 53.079,3.752 53.079,3.735 53.079,3.717 53.079,3.700 53.079,3.682 53.079,3.665 53.079,3.647 53.080,3.630 53.080,3.612 53.080,3.595 53.080,3.577 53.080,3.560 53.080,3.542 53.080,3.525 53.080,3.507 53.080,3.490 53.080,3.472 53.080,3.455 53.080,3.437 53.080,3.420 53.080,3.402 53.080,3.385 53.080,3.367 53.080,3.350"/>
<polygon fill="#1f77b4" fill-opacity="0.140" stroke="#1f77b4" stroke-opacity="0.55" stroke-width="0.07" points="6.408,13.000 6.408,11.000 1.608,11.000 1.608,13.000"/>
<polygon fill="#1f77b4" fill-opacity="0.140" stroke="#1f77b4" stroke-opacity="0.55" stroke-width="0.07" points="7.269,13.000 7.269,11.000 2.469,11.000 2.469,13.000"/>
<polygon fill="#1f77b4" fill-opacity="0.140" stroke="#1f77b4" stroke-opacity="0.55" stroke-width="0.07" points="8.584,13.000 8.584,11.000 3.784,11.000 3.784,13.000"/>
<polygon fill="#1f77b4" fill-opacity="0.140" stroke="#1f77b4" stroke-opacity="0.55" stroke-width="0.07" points="9.967,13.000 9.967,11.000 5.167,11.000 5.167,13.000"/>
<polygon fill="#1f77b4" fill-opacity="0.140" stroke="#1f77b4" stroke-opacity="0.55" stroke-width="0.07" points="11.360,13.000 11.360,11.000 6.560,11.000 6.560,13.000"/>
<polygon fill="#1f77b4" fill-opacity="0.140" stroke="#1f77b4" stroke-opacity="0.55" stroke-width="0.07" points="12.755,13.000 12.755,11.000 7.955,11.000 7.955,13.000"/>
<polygon fill="#1f77b4" fill-opacity="0.140" stroke="#1f77b4" stroke-opacity="0.55" stroke-width="0.07" points="14.150,13.000 14.150,11.000 9.350,11.000 9.350,13.000"/>
<polygon fill="#1f77b4" fill-opacity="0.140" stroke="#1f77b4" stroke-opacity="0.55" stroke-width="0.07" points="15.545,13.000 15.545,11.000 10.745,11.000 10.745,13.000"/>
<polygon fill="#1f77b4" fill-opacity="0.140" stroke="#1f77b4" stroke-opacity="0.55" stroke-width="0.07" points="16.940,13.000 16.940,11.000 12.140,11.000 12.140,13.000"/>
<polygon fill="#1f77b4" fill-opacity="0.140" stroke="#1f77b4" stroke-opacity="0.55" stroke-width="0.07" points="18.335,13.000 18.335,11.000 13.535,11.000 13.535,13.000"/>
<polygon fill="#1f77b4" fill-opacity="0.140" stroke="#1f77b4" stroke-opacity="0.55" stroke-width="0.07" points="19.730,13.000 19.730,11.000 14.930,11.000 14.930,13.000"/>
<polygon fill="#1f77b4" fill-opacity="0.140" stroke="#1f77b4" stroke-opacity="0.55" stroke-width="0.07" points="21.125,13.000 21.125,11.000 16.325,11.000 16.325,13.000"/>
<polygon fill="#1f77b4" fill-opacity="0.140" stroke="#1f77b4" stroke-opacity="0.55" stroke-width="0.07" points="22.520,13.000 22.520,11.000 17.720,11.000 17.720,13.000"/>
<polygon fill="#1f77b4" fill-opacity="0.140" stroke="#1f77b4" stroke-opacity="0.55" stroke-width="0.07" points="23.915,13.000 23.915,11.000 19.115,11.000 19.115,13.000"/>
<polygon fill="#1f77b4" fill-opacity="0.140" stroke="#1f77b4" stroke-opacity="0.55" stroke-width="0.07" points="25.310,13.000 25.310,11.000 20.510,11.000 20.510,13.000"/>
<polygon fill="#1f77b4" fill-opacity="0.140" stroke="#1f77b4" stroke-opacity="0.55" stroke-width="0.07" points="26.705,13.000 26.705,11.000 21.905,11.000 21.905,13.000"/>
<polygon fill="#1f77b4" fill-opacity="0.140" stroke="#1f77b4" stroke-opacity="0.55" stroke-width="0.07" points="28.100,13.000 28.100,11.000 23.300,11.000 23.300,13.000"/>
<polygon fill="#1f77b4" fill-opacity="0.140" stroke="#1f77b4" stroke-opacity="0.55" stroke-width="0.07" points="29.495,13.000 29.495,11.000 24.695,11.000 24.695,13.000"/>
<polygon fill="#1f77b4" fill-opacity="0.140" stroke="#1f77b4" stroke-opacity="0.55" stroke-width="0.07" points="30.890,13.000 30.890,11.000 26.090,11.000 26.090,13.000"/>
<polygon fill="#1f77b4" fill-opacity="0.140" stroke="#1f77b4" stroke-opacity="0.55" stroke-width="0.07" points="32.285,13.000 32.285,11.000 27.485,11.000 27.485,13.000"/>
<polygon fill="#1f77b4" fill-opacity="0.140" stroke="#1f77b4" stroke-opacity="0.55" stroke-width="0.07" points="33.680,13.000 33.680,11.000 28.880,11.000 28.880,13.000"/>
<polygon fill="#1f77b4" fill-opacity="0.140" stroke="#1f77b4" stroke-opacity="0.55" stroke-width="0.07" points="35.075,13.000 35.075,11.000 30.275,11.000 30.275,13.000"/>
<polygon fill="#1f77b4" fill-opacity="0.140" stroke="#1f77b4" stroke-opacity="0.55" stroke-width="0.07" points="36.470,13.000 36.470,11.000 31.670,11.000 31.670,13.000"/>
<polygon fill="#1f77b4" fill-opacity="0.140" stroke="#1f77b4" stroke-opacity="0.55" stroke-width="0.07" points="37.865,13.000 37.865,11.000 33.065,11.000 33.065,13.000"/>
<polygon fill="#1f77b4" fill-opacity="0.140" stroke="#1f77b4" stroke-opacity="0.55" stroke-width="0.07" points="39.260,13.000 39.260,11.000 34.460,11.000 34.460,13.000"/>
<polygon fill="#1f77b4" fill-opacity="0.140" stroke="#1f77b4" stroke-opacity="0.55" stroke-width="0.07" points="40.655,13.000 40.655,11.000 35.855,11.000 35.855,13.000"/>
<polygon fill="#1f77b4" fill-opacity="0.140" stroke="#1f77b4" stroke-opacity="0.55" stroke-width="0.07" points="42.050,13.000 42.050,11.000 37.250,11.000 37.250,13.000"/>
<polygon fill="#1f77b4" fill-opacity="0.140" stroke="#1f77b4" stroke-opacity="0.55" stroke-width="0.07" points="43.445,13.000 43.445,11.000 38.645,11.000 38.645,13.000"/>
<polygon fill="#1f77b4" fill-opacity="0.140" stroke="#1f77b4" stroke-opacity="0.55" stroke-width="0.07" points="44.840,13.000 44.840,11.000 40.040,11.000 40.040,13.000"/>
<polygon fill="#1f77b4" fill-opacity="0.140" stroke="#1f77b4" stroke-opacity="0.55" stroke-width="0.07" points="46.235,13.000 46.235,11.000 41.435,11.000 41.435,13.000"/>
<polygon fill="#1f77b4" fill-opacity="0.140" stroke="#1f77b4" stroke-opacity="0.55" stroke-width="0.07" points="47.630,13.000 47.630,11.000 42.830,11.000 42.830,13.000"/>
<polygon fill="#1f77b4" fill-opacity="0.140" stroke="#1f77b4" stroke-opacity="0.55" stroke-width="0.07" points="49.025,13.000 49.025,11.000 44.225,11.000 44.225,13.000"/>
<polygon fill="#1f77b4" fill-opacity="0.140" stroke="#1f77b4" stroke-opacity="0.55" stroke-width="0.07" points="50.420,13.000 50.420,11.000 45.620,11.000 45.620,13.000"/>
<polygon fill="#1f77b4" fill-opacity="0.140" stroke="#1f77b4" stroke-opacity="0.55" stroke-width="0.07" points="51.815,13.000 51.815,11.000 47.015,11.000 47.015,13.000"/>
<polygon fill="#1f77b4" fill-opacity="0.140" stroke="#1f77b4" stroke-opacity="0.55" stroke-width="0.07" points="53.210,13.000 53.210,11.000 48.410,11.000 48.410,13.000"/>
<polygon fill="#1f77b4" fill-opacity="0.140" stroke="#1f77b4" stroke-opacity="0.55" stroke-width="0.07" points="54.605,13.000 54.605,11.000 49.805,11.000 49.805,13.000"/>
<polygon fill="#1f77b4" fill-opacity="0.140" stroke="#1f77b4" stroke-opacity="0.55" stroke-width="0.07" points="56.000,13.000 56.000,11.000 51.200,11.000 51.200,13.000"/>
<polygon fill="#1f77b4" fill-opacity="0.140" stroke="#1f77b4" stroke-opacity="0.55" stroke-width="0.07" points="57.296,13.000 57.296,11.000 52.496,11.000 52.496,13.000"/>
<polygon fill="#1f77b4" fill-opacity="0.140" stroke="#1f77b4" stroke-opacity="0.55" stroke-width="0.07" points="58.252,13.000 58.252,11.000 53.452,11.000 53.452,13.000"/>
<polygon fill="#1f77b4" fill-opacity="0.140" stroke="#1f77b4" stroke-opacity="0.55" stroke-width="0.07" points="58.887,13.000 58.887,11.000 54.087,11.000 54.087,13.000"/>
<polygon fill="#1f77b4" fill-opacity="0.140" stroke="#1f77b4" stroke-opacity="0.55" stroke-width="0.07" points="59.301,13.000 59.301,11.000 54.501,11.000 54.501,13.000"/>
<polygon fill="#1f77b4" fill-opacity="0.140" stroke="#1f77b4" stroke-opacity="0.55" stroke-width="0.07" points="59.451,13.000 59.451,11.000 54.651,11.000 54.651,13.000"/>
<polygon fill="#ff7f0e" fill-opacity="0.160" stroke="#ff7f0e" stroke-opacity="0.55" stroke-width="0.07" points="59.447,13.000 59.448,11.000 54.648,11.000 54.647,13.000"/>
<polygon fill="#ff7f0e" fill-opacity="0.160" stroke="#ff7f0e" stroke-opacity="0.55" stroke-width="0.07" points="58.927,13.205 59.114,11.214 54.336,10.763 54.148,12.754"/>
<polygon fill="#ff7f0e" fill-opacity="0.160" stroke="#ff7f0e" stroke-opacity="0.55" stroke-width="0.07" points="58.069,13.457 58.581,11.523 53.941,10.294 53.429,12.227"/>
<polygon fill="#ff7f0e" fill-opacity="0.160" stroke="#ff7f0e" stroke-opacity="0.55" stroke-width="0.07" points="57.135,13.566 57.973,11.750 53.615,9.738 52.777,11.554"/>
<polygon fill="#ff7f0e" fill-opacity="0.160" stroke="#ff7f0e" stroke-opacity="0.55" stroke-width="0.07" points="56.189,13.511 57.331,11.869 53.389,9.129 52.248,10.772"/>
<polygon fill="#ff7f0e" fill-opacity="0.160" stroke="#ff7f0e" stroke-opacity="0.55" stroke-width="0.07" points="55.267,13.292 56.677,11.874 53.272,8.490 51.862,9.909"/>
<polygon fill="#ff7f0e" fill-opacity="0.160" stroke="#ff7f0e" stroke-opacity="0.55" stroke-width="0.07" points="54.396,12.916 56.031,11.765 53.268,7.840 51.633,8.991"/>
<polygon fill="#ff7f0e" fill-opacity="0.160" stroke="#ff7f0e" stroke-opacity="0.55" stroke-width="0.07" points="53.611,12.394 55.420,11.540 53.369,7.200 51.561,8.054"/>
<polygon fill="#ff7f0e" fill-opacity="0.160" stroke="#ff7f0e" stroke-opacity="0.55" stroke-width="0.07" points="52.953,11.750 54.875,11.196 53.547,6.584 51.625,7.138"/>
<polygon fill="#ff7f0e" fill-opacity="0.160" stroke="#ff7f0e" stroke-opacity="0.55" stroke-width="0.07" points="52.433,11.017 54.415,10.756 53.788,5.997 51.805,6.259"/>
<polygon fill="#ff7f0e" fill-opacity="0.160" stroke="#ff7f0e" stroke-opacity="0.55" stroke-width="0.07" points="52.072,10.237 54.072,10.232 54.060,5.432 52.060,5.437"/>
<polygon fill="#ff7f0e" fill-opacity="0.160" stroke="#ff7f0e" stroke-opacity="0.55" stroke-width="0.07" points="52.060,9.556 54.060,9.563 54.076,4.763 52.076,4.756"/>
<polygon fill="#ff7f0e" fill-opacity="0.160" stroke="#ff7f0e" stroke-opacity="0.55" stroke-width="0.07" points="52.062,8.918 54.062,8.925 54.078,4.125 52.078,4.118"/>
<polygon fill="#ff7f0e" fill-opacity="0.160" stroke="#ff7f0e" stroke-opacity="0.55" stroke-width="0.07" points="52.064,8.370 54.064,8.377 54.080,3.577 52.080,3.570"/>
<polygon fill="#ff7f0e" fill-opacity="0.160" stroke="#ff7f0e" stroke-opacity="0.55" stroke-width="0.07" points="52.065,7.912 54.065,7.919 54.081,3.119 52.081,3.112"/>
<polygon fill="#ff7f0e" fill-opacity="0.160" stroke="#ff7f0e" stroke-opacity="0.55" stroke-width="0.07" points="52.067,7.531 54.067,7.538 54.082,2.738 52.082,2.731"/>
<polygon fill="#ff7f0e" fill-opacity="0.160" stroke="#ff7f0e" stroke-opacity="0.55" stroke-width="0.07" points="52.068,7.202 54.068,7.208 54.084,2.408 52.084,2.402"/>
<polygon fill="#ff7f0e" fill-opacity="0.160" stroke="#ff7f0e" stroke-opacity="0.55" stroke-width="0.07" points="52.069,6.885 54.069,6.891 54.085,2.091 52.085,2.085"/>
<polygon fill="#ff7f0e" fill-opacity="0.160" stroke="#ff7f0e" stroke-opacity="0.55" stroke-width="0.07" points="52.070,6.569 54.070,6.576 54.086,1.776 52.086,1.769"/>
<polygon fill="#ff7f0e" fill-opacity="0.160" stroke="#ff7f0e" stroke-opacity="0.55" stroke-width="0.07" points="52.071,6.254 54.071,6.261 54.087,1.461 52.087,1.454"/>
<polygon fill="#ff7f0e" fill-opacity="0.160" stroke="#ff7f0e" stroke-opacity="0.55" stroke-width="0.07" points="52.072,5.939 54.072,5.946 54.088,1.146 52.088,1.139"/>
<polygon fill="#ff7f0e" fill-opacity="0.160" stroke="#ff7f0e" stroke-opacity="0.55" stroke-width="0.07" points="52.073,5.747 54.073,5.753 54.088,0.953 52.088,0.947"/>
<polygon fill="none" stroke="crimson" stroke-width="0.120" points="52.073,5.747 54.073,5.753 54.088,0.953 52.088,0.947"/>
</g>
</svg>
