<?xml version="1.0" encoding="UTF-8"?>
<svg xmlns="http://www.w3.org/2000/svg" width="1400" height="900" viewBox="0 -3 75 53">
<rect x="0" y="-3" width="75" height="53" fill="white"/>
<text x="1.5" y="-1.35" font-size="1.15" fill="black">Parking | target row=3 idx=3 | success=true sim_ok=true | max_steer=35 deg | overshoot~=5 m | total(ref)~=4e+01 m</text>
<text x="1.5" y="-0.45" font-size="0.95" fill="black">ok</text>
<g transform="translate(0,50.000) scale(1,-1)">
<rect x="0" y="0" width="75.000" height="50.000" fill="none" stroke="black" stroke-width="0.15"/>
<rect x="0.000" y="9.000" width="75.000" height="6.000" fill="#add8e6" fill-opacity="0.25" stroke="#add8e6" stroke-width="0.08"/>
<rect x="0.000" y="34.500" width="75.000" height="6.000" fill="#add8e6" fill-opacity="0.25" stroke="#add8e6" stroke-width="0.08"/>
<rect x="36.000" y="12.000" width="6.000" height="25.500" fill="#90ee90" fill-opacity="0.25" stroke="#90ee90" stroke-width="0.08"/>
<rect x="12.000" y="44.000" width="4.800" height="6.000" fill="white" stroke="gray" stroke-width="0.080" fill-opacity="0.85"/>
<rect x="16.800" y="44.000" width="4.800" height="6.000" fill="white" stroke="gray" stroke-width="0.080" fill-opacity="0.85"/>
<rect x="21.600" y="44.000" width="4.800" height="6.000" fill="black" stroke="gray" stroke-width="0.080" fill-opacity="0.95"/>
<rect x="26.400" y="44.000" width="4.800" height="6.000" fill="black" stroke="gray" stroke-width="0.080" fill-opacity="0.95"/>
<rect x="31.200" y="44.000" width="4.800" height="6.000" fill="white" stroke="gray" stroke-width="0.080" fill-opacity="0.85"/>
<rect x="12.000" y="25.000" width="4.800" height="6.000" fill="black" stroke="gray" stroke-width="0.080" fill-opacity="0.95"/>
<rect x="16.800" y="25.000" width="4.800" height="6.000" fill="black" stroke="gray" stroke-width="0.080" fill-opacity="0.95"/>
<rect x="21.600" y="25.000" width="4.800" height="6.000" fill="black" stroke="gray" stroke-width="0.080" fill-opacity="0.95"/>
<rect x="26.400" y="25.000" width="4.800" height="6.000" fill="white" stroke="gray" stroke-width="0.080" fill-opacity="0.85"/>
<rect x="31.200" y="25.000" width="4.800" height="6.000" fill="white" stroke="gray" stroke-width="0.080" fill-opacity="0.85"/>
<rect x="12.000" y="19.000" width="4.800" height="6.000" fill="white" stroke="gray" stroke-width="0.080" fill-opacity="0.85"/>
<rect x="16.800" y="19.000" width="4.800" height="6.000" fill="white" stroke="gray" stroke-width="0.080" fill-opacity="0.85"/>
<rect x="21.600" y="19.000" width="4.800" height="6.000" fill="white" stroke="gray" stroke-width="0.080" fill-opacity="0.85"/>
<rect x="26.400" y="19.000" width="4.800" height="6.000" fill="white" stroke="gray" stroke-width="0.080" fill-opacity="0.85"/>
<rect x="31.200" y="19.000" width="4.800" height="6.000" fill="black" stroke="gray" stroke-width="0.080" fill-opacity="0.95"/>
<rect x="12.000" y="0.000" width="4.800" height="6.000" fill="white" stroke="gray" stroke-width="0.080" fill-opacity="0.85"/>
<rect x="16.800" y="0.000" width="4.800" height="6.000" fill="white" stroke="gray" stroke-width="0.080" fill-opacity="0.85"/>
<rect x="21.600" y="0.000" width="4.800" height="6.000" fill="black" stroke="gray" stroke-width="0.080" fill-opacity="0.95"/>
<rect x="26.400" y="0.000" width="4.800" height="6.000" fill="#98fb98" stroke="darkgreen" stroke-width="0.180" fill-opacity="0.85"/>
<rect x="31.200" y="0.000" width="4.800" height="6.000" fill="black" stroke="gray" stroke-width="0.080" fill-opacity="0.95"/>
<polygon fill="none" stroke="navy" stroke-width="0.120" points="6.400,13.394 6.400,10.606 1.600,10.606 1.600,13.394"/>
<polygon fill="purple" points="26.020,12.000 26.300,12.350 26.580,12.000 26.300,11.650"/>
<circle cx="33.600" cy="12.000" r="0.38" fill="darkviolet" stroke="indigo" stroke-width="0.06"/>
<polyline fill="none" stroke="#808080" stroke-width="0.120" stroke-opacity="0.65" stroke-dasharray="0.45 0.35" points="4.000,12.000 26.300,12.000 33.600,12.000"/>
<polyline fill="none" stroke="#808080" stroke-width="0.120" stroke-opacity="0.65" stroke-dasharray="0.45 0.35" points="33.600,12.000 33.600,11.835 33.592,11.667 33.577,11.496 33.554,11.323 33.524,11.146 33.487,10.968 33.444,10.786 33.394,10.603 33.338,10.417 33.276,10.230 33.208,10.041 33.134,9.850 33.056,9.658 32.972,9.464 32.883,9.269 32.789,9.073 32.691,8.877 32.589,8.679 32.483,8.481 32.373,8.283 32.260,8.084 32.143,7.885 32.023,7.686 31.900,7.487 31.775,7.289 31.647,7.091 31.517,6.893 31.385,6.697 31.251,6.501 31.116,6.306 30.979,6.113 30.842,5.921 30.703,5.730 30.564,5.541 30.424,5.354 30.285,5.168 30.145,4.985 30.006,4.804 29.867,4.625 29.729,4.449 29.591,4.276 29.455,4.105 29.320,3.938 29.187,3.773 29.056,3.612 28.927,3.454 28.800,3.300"/>
<polyline fill="none" stroke="#1f77b4" stroke-width="0.220" stroke-opacity="0.95" points="4.008,12.000 4.022,12.000 4.043,12.000 4.070,12.000 4.102,12.000 4.138,12.000 4.179,12.000 4.223,12.000 4.270,12.000 4.321,12.000 4.374,12.000 4.429,12.000 4.487,12.000 4.547,12.000 4.609,12.000 4.672,12.000 4.736,12.000 4.802,12.000 4.869,12.000 4.937,12.000 5.006,12.000 5.076,12.000 5.147,12.000 5.218,12.000 5.290,12.000 5.363,12.000 5.436,12.000 5.509,12.000 5.583,12.000 5.657,12.000 5.732,12.000 5.806,12.000 5.882,12.000 5.957,12.000 6.032,12.000 6.108,12.000 6.184,12.000 6.260,12.000 6.336,12.000 6.413,12.000 6.489,12.000 6.566,12.000 6.643,12.000 6.719,12.000 6.796,12.000 6.873,12.000 6.950,12.000 7.027,12.000 7.104,12.000 7.181,12.000 7.258,12.000 7.335,12.000 7.413,12.000 7.490,12.000 7.567,12.000 7.644,12.000 7.722,12.000 7.799,12.000 7.876,12.000 7.954,12.000 8.031,12.000 8.109,12.000 8.186,12.000 8.263,12.000 8.341,12.000 8.418,12.000 8.496,12.000 8.573,12.000 8.650,12.000 8.728,12.000 8.805,12.000 8.883,12.000 8.960,12.000 9.038,12.000 9.115,12.000 9.193,12.000 9.270,12.000 9.348,12.000 9.425,12.000 9.503,12.000 9.580,12.000 9.658,12.000 9.735,12.000 9.813,12.000 9.890,12.000 9.968,12.000 10.045,12.000 10.123,12.000 10.200,12.000 10.278,12.000 10.355,12.000 10.433,12.000 10.510,12.000 10.588,12.000 10.665,12.000 10.743,12.000 10.820,12.000 10.898,12.000 10.975,12.000 11.053,12.000 11.130,12.000 11.208,12.000 11.285,12.000 11.363,12.000 11.440,12.000 11.518,12.000 11.595,12.000 11.673,12.000 11.750,12.000 11.828,12.000 11.905,12.000 11.983,12.000 12.060,12.000 12.138,12.000 12.215,12.000 12.293,12.000 12.370,12.000 12.448,12.000 12.525,12.000 12.603,12.000 12.680,12.000 12.758,12.000 12.835,12.000 12.913,12.000 12.990,12.000 13.068,12.000 13.145,12.000 13.223,12.000 13.300,12.000 13.378,12.000 13.455,12.000 13.533,12.000 13.610,12.000 13.688,12.000 13.765,12.000 13.843,12.000 13.920,12.000 13.998,12.000 14.075,12.000 14.153,12.000 14.230,12.000 14.308,12.000 14.385,12.000 14.463,12.000 14.540,12.000 14.618,12.000 14.695,12.000 14.773,12.000 14.850,12.000 14.928,12.000 15.005,12.000 15.083,12.000 15.160,12.000 15.238,12.000 15.315,12.000 15.393,12.000 15.470,12.000 15.548,12.000 15.625,12.000 15.703,12.000 15.780,12.000 15.858,12.000 15.935,12.000 16.013,12.000 16.090,12.000 16.168,12.000 16.245,12.000 16.323,12.000 16.400,12.000 16.478,12.000 16.555,12.000 16.633,12.000 16.710,12.000 16.788,12.000 16.865,12.000 16.943,12.000 17.020,12.000 17.098,12.000 17.175,12.000 17.253,12.000 17.330,12.000 17.408,12.000 17.485,12.000 17.563,12.000 17.640,12.000 17.718,12.000 17.795,12.000 17.873,12.000 17.950,12.000 18.028,12.000 18.105,12.000 18.183,12.000 18.260,12.000 18.338,12.000 18.415,12.000 18.493,12.000 18.570,12.000 18.648,12.000 18.725,12.000 18.803,12.000 18.880,12.000 18.958,12.000 19.035,12.000 19.113,12.000 19.190,12.000 19.268,12.000 19.345,12.000 19.423,12.000 19.500,12.000 19.578,12.000 19.655,12.000 19.733,12.000 19.810,12.000 19.888,12.000 19.965,12.000 20.043,12.000 20.120,12.000 20.198,12.000 20.275,12.000 20.353,12.000 20.430,12.000 20.508,12.000 20.585,12.000 20.663,12.000 20.740,12.000 20.818,12.000 20.895,12.000 20.973,12.000 21.050,12.000 21.128,12.000 21.205,12.000 21.283,12.000 21.360,12.000 21.438,12.000 21.515,12.000 21.593,12.000 21.670,12.000 21.748,12.000 21.825,12.000 21.903,12.000 21.980,12.000 22.058,12.000 22.135,12.000 22.213,12.000 22.290,12.000 22.368,12.000 22.445,12.000 22.523,12.000 22.600,12.000 22.678,12.000 22.755,12.000 22.833,12.000 22.910,12.000 22.988,12.000 23.065,12.000 23.143,12.000 23.220,12.000 23.298,12.000 23.375,12.000 23.453,12.000 23.530,12.000 23.608,12.000 23.685,12.000 23.763,12.000 23.840,12.000 23.918,12.000 23.995,12.000 24.073,12.000 24.150,12.000 24.228,12.000 24.305,12.000 24.383,12.000 24.460,12.000 24.538,12.000 24.615,12.000 24.693,12.000 24.770,12.000 24.848,12.000 24.925,12.000 25.003,12.000 25.080,12.000 25.158,12.000 25.235,12.000 25.313,12.000 25.390,12.000 25.468,12.000 25.545,12.000 25.623,12.000 25.700,12.000 25.778,12.000 25.855,12.000 25.933,12.000 26.010,12.000 26.088,12.000 26.165,12.000 26.243,12.000 26.320,12.000 26.398,12.000 26.475,12.000 26.553,12.000 26.630,12.000 26.708,12.000 26.785,12.000 26.863,12.000 26.940,12.000 27.018,12.000 27.095,12.000 27.173,12.000 27.250,12.000 27.328,12.000 27.405,12.000 27.483,12.000 27.560,12.000 27.638,12.000 27.715,12.000 27.793,12.000 27.870,12.000 27.948,12.000 28.025,12.000 28.103,12.000 28.180,12.000 28.258,12.000 28.335,12.000 28.413,12.000 28.490,12.000 28.568,12.000 28.645,12.000 28.723,12.000 28.800,12.000 28.878,12.000 28.955,12.000 29.033,12.000 29.110,12.000 29.188,12.000 29.265,12.000 29.343,12.000 29.420,12.000 29.498,12.000 29.575,12.000 29.653,12.000 29.730,12.000 29.807,12.000 29.884,12.000 29.960,12.000 30.036,12.000 30.111,12.000 30.185,12.000 30.259,12.000 30.331,12.000 30.403,12.000 30.474,12.000 30.544,12.000 30.612,12.000 30.680,12.000 30.746,12.000 30.812,12.000 30.876,12.000 30.939,12.000 31.001,12.000 31.062,12.000 31.121,12.000 31.180,12.000 31.237,12.000 31.293,12.000 31.348,12.000 31.402,12.000 31.455,12.000 31.506,12.000 31.557,12.000 31.606,12.000 31.655,12.000 31.702,12.000 31.748,12.000 31.793,12.000 31.838,12.000 31.881,12.000 31.923,12.000 31.964,12.000 32.004,12.000 32.044,12.000 32.082,12.000 32.120,12.000 32.156,12.000 32.192,12.000 32.227,12.000 32.261,12.000 32.294,12.000 32.327,12.000 32.358,12.000 32.389,12.000 32.420,12.000 32.449,12.000 32.478,12.000 32.506,12.000 32.533,12.000 32.560,12.000 32.586,12.000 32.611,12.000 32.636,12.000 32.660,12.000 32.684,12.000 32.707,12.000 32.729,12.000 32.751,12.000 32.773,12.000 32.794,12.000 32.814,12.000 32.835,12.000 32.855,12.000 32.875,12.000 32.894,12.000 32.914,12.000 32.933,12.000 32.952,12.000 32.971,12.000 32.990,12.000 33.008,12.000 33.027,12.000 33.045,12.000 33.064,12.000"/>
<polyline fill="none" stroke="#ff7f0e" stroke-width="0.220" stroke-opacity="0.95" points="33.060,12.000 33.053,12.000 33.043,12.000 33.030,12.000 33.014,12.000 32.997,12.000 32.977,12.000 32.956,12.000 32.933,11.999 32.908,11.999 32.883,11.998 32.856,11.997 32.828,11.996 32.799,11.995 32.769,11.993 32.739,11.991 32.708,11.989 32.676,11.987 32.644,11.984 32.611,11.981 32.578,11.977 32.544,11.974 32.510,11.970 32.476,11.965 32.441,11.960 32.407,11.955 32.372,11.950 32.337,11.944 32.301,11.938 32.266,11.931 32.231,11.924 32.195,11.917 32.160,11.909 32.124,11.901 32.089,11.893 32.053,11.884 32.017,11.875 31.982,11.866 31.946,11.856 31.911,11.846 31.875,11.835 31.840,11.825 31.804,11.813 31.769,11.802 31.734,11.790 31.699,11.778 31.664,11.765 31.629,11.752 31.594,11.739 31.559,11.725 31.525,11.711 31.490,11.697 31.456,11.682 31.422,11.667 31.387,11.652 31.354,11.636 31.320,11.620 31.286,11.604 31.253,11.587 31.219,11.570 31.186,11.553 31.153,11.535 31.120,11.517 31.087,11.499 31.055,11.480 31.023,11.461 30.990,11.442 30.958,11.423 30.927,11.403 30.895,11.383 30.864,11.362 30.833,11.341 30.802,11.320 30.771,11.299 30.740,11.277 30.710,11.255 30.680,11.233 30.650,11.210 30.620,11.187 30.591,11.164 30.561,11.141 30.532,11.117 30.503,11.093 30.475,11.069 30.447,11.044 30.418,11.019 30.391,10.994 30.363,10.969 30.336,10.943 30.309,10.917 30.282,10.891 30.255,10.865 30.229,10.838 30.203,10.811 30.177,10.784 30.151,10.757 30.126,10.729 30.101,10.701 30.076,10.673 30.052,10.644 30.028,10.616 30.004,10.587 29.980,10.558 29.957,10.528 29.934,10.499 29.911,10.469 29.888,10.439 29.866,10.409 29.844,10.378 29.823,10.347 29.802,10.317 29.781,10.286 29.760,10.254 29.739,10.223 29.719,10.191 29.700,10.159 29.680,10.127 29.661,10.095 29.642,10.063 29.624,10.030 29.605,9.997 29.588,9.964 29.570,9.931 29.553,9.898 29.536,9.864 29.519,9.831 29.503,9.797 29.487,9.763 29.471,9.729 29.456,9.695 29.441,9.660 29.426,9.626 29.411,9.591 29.397,9.557 29.383,9.522 29.370,9.487 29.357,9.452 29.344,9.416 29.331,9.381 29.319,9.346 29.307,9.310 29.296,9.275 29.284,9.239 29.273,9.203 29.263,9.167 29.252,9.131 29.242,9.095 29.232,9.059 29.223,9.022 29.214,8.986 29.205,8.949 29.196,8.913 29.188,8.876 29.180,8.840 29.173,8.803 29.165,8.766 29.158,8.729 29.152,8.692 29.145,8.656 29.139,8.619 29.133,8.581 29.128,8.544 29.123,8.507 29.118,8.470 29.113,8.433 29.109,8.396 29.105,8.358 29.101,8.321 29.098,8.284 29.095,8.246 29.092,8.209 29.089,8.171 29.087,8.134 29.085,8.097 29.083,8.059 29.082,8.022 29.081,7.984 29.080,7.947 29.079,7.909 29.079,7.872 29.079,7.834 29.078,7.797 29.078,7.759 29.079,7.722 29.079,7.684 29.079,7.647 29.079,7.609 29.079,7.572 29.079,7.534 29.079,7.497 29.079,7.459 29.080,7.422 29.080,7.384 29.080,7.347 29.080,7.309 29.080,7.272 29.080,7.234 29.080,7.197 29.080,7.159 29.081,7.122 29.081,7.085 29.081,7.048 29.081,7.011 29.081,6.975 29.081,6.938 29.081,6.902 29.081,6.866 29.081,6.831 29.082,6.795 29.082,6.760 29.082,6.725 29.082,6.690 29.082,6.656 29.082,6.622 29.082,6.588 29.082,6.554 29.083,6.521 29.083,6.488 29.083,6.456 29.083,6.423 29.083,6.391 29.083,6.359 29.083,6.328 29.083,6.297 29.083,6.266 29.084,6.235 29.084,6.205 29.084,6.175 29.084,6.145 29.084,6.116 29.084,6.087 29.084,6.058 29.084,6.029 29.084,6.001 29.084,5.973 29.084,5.945 29.085,5.918 29.085,5.891 29.085,5.864 29.085,5.837 29.085,5.811 29.085,5.785 29.085,5.759 29.085,5.733 29.085,5.708 29.085,5.683 29.085,5.658 29.086,5.634 29.086,5.610 29.086,5.585 29.086,5.562 29.086,5.538 29.086,5.515 29.086,5.492 29.086,5.469 29.086,5.446 29.086,5.424 29.086,5.402 29.086,5.380 29.086,5.358 29.087,5.337 29.087,5.315 29.087,5.294 29.087,5.274 29.087,5.253 29.087,5.233 29.087,5.212 29.087,5.192 29.087,5.173 29.087,5.153 29.087,5.134 29.087,5.114 29.087,5.095 29.087,5.077 29.087,5.058 29.088,5.039 29.088,5.021 29.088,5.002 29.088,4.984 29.088,4.966 29.088,4.948 29.088,4.930 29.088,4.911 29.088,4.894 29.088,4.876 29.088,4.858 29.088,4.840 29.088,4.822 29.088,4.804 29.088,4.787 29.088,4.769 29.089,4.751 29.089,4.733 29.089,4.716 29.089,4.698 29.089,4.680 29.089,4.663 29.089,4.645 29.089,4.628 29.089,4.610 29.089,4.592 29.089,4.575 29.089,4.557 29.089,4.540 29.089,4.522 29.089,4.505 29.089,4.487 29.089,4.470 29.090,4.452 29.090,4.434 29.090,4.417 29.090,4.399 29.090,4.382 29.090,4.364 29.090,4.347 29.090,4.329 29.090,4.312 29.090,4.294 29.090,4.277 29.090,4.259 29.090,4.242 29.090,4.224 29.090,4.207 29.090,4.189 29.090,4.172 29.091,4.154 29.091,4.137 29.091,4.119 29.091,4.102 29.091,4.084 29.091,4.067 29.091,4.049 29.091,4.032 29.091,4.014 29.091,3.997 29.091,3.979 29.091,3.962 29.091,3.944 29.091,3.927 29.091,3.909 29.091,3.892 29.091,3.874 29.092,3.857 29.092,3.839 29.092,3.822 29.092,3.804 29.092,3.787 29.092,3.769 29.092,3.752 29.092,3.734 29.092,3.717 29.092,3.699 29.092,3.682 29.092,3.664 29.092,3.647 29.092,3.629 29.092,3.612 29.092,3.594 29.092,3.577 29.093,3.559 29.093,3.542 29.093,3.524 29.093,3.507 29.093,3.489 29.093,3.472 29.093,3.454 29.093,3.437 29.093,3.419 29.093,3.402 29.093,3.384 29.093,3.367 29.093,3.349"/>
<polygon fill="#1f77b4" fill-opacity="0.140" stroke="#1f77b4" stroke-opacity="0.55" stroke-width="0.07" points="6.408,13.394 6.408,10.606 1.608,10.606 1.608,13.394"/>
<polygon fill="#1f77b4" fill-opacity="0.140" stroke="#1f77b4" stroke-opacity="0.55" stroke-width="0.07" points="7.269,13.394 7.269,10.606 2.469,10.606 2.469,13.394"/>
<polygon fill="#1f77b4" fill-opacity="0.140" stroke="#1f77b4" stroke-opacity="0.55" stroke-width="0.07" points="8.584,13.394 8.584,10.606 3.784,10.606 3.784,13.394"/>
<polygon fill="#1f77b4" fill-opacity="0.140" stroke="#1f77b4" stroke-opacity="0.55" stroke-width="0.07" points="9.967,13.394 9.967,10.606 5.167,10.606 5.167,13.394"/>
<polygon fill="#1f77b4" fill-opacity="0.140" stroke="#1f77b4" stroke-opacity="0.55" stroke-width="0.07" points="11.360,13.394 11.360,10.606 6.560,10.606 6.560,13.394"/>
<polygon fill="#1f77b4" fill-opacity="0.140" stroke="#1f77b4" stroke-opacity="0.55" stroke-width="0.07" points="12.755,13.394 12.755,10.606 7.955,10.606 7.955,13.394"/>
<polygon fill="#1f77b4" fill-opacity="0.140" stroke="#1f77b4" stroke-opacity="0.55" stroke-width="0.07" points="14.150,13.394 14.150,10.606 9.350,10.606 9.350,13.394"/>
<polygon fill="#1f77b4" fill-opacity="0.140" stroke="#1f77b4" stroke-opacity="0.55" stroke-width="0.07" points="15.545,13.394 15.545,10.606 10.745,10.606 10.745,13.394"/>
<polygon fill="#1f77b4" fill-opacity="0.140" stroke="#1f77b4" stroke-opacity="0.55" stroke-width="0.07" points="16.940,13.394 16.940,10.606 12.140,10.606 12.140,13.394"/>
<polygon fill="#1f77b4" fill-opacity="0.140" stroke="#1f77b4" stroke-opacity="0.55" stroke-width="0.07" points="18.335,13.394 18.335,10.606 13.535,10.606 13.535,13.394"/>
<polygon fill="#1f77b4" fill-opacity="0.140" stroke="#1f77b4" stroke-opacity="0.55" stroke-width="0.07" points="19.730,13.394 19.730,10.606 14.930,10.606 14.930,13.394"/>
<polygon fill="#1f77b4" fill-opacity="0.140" stroke="#1f77b4" stroke-opacity="0.55" stroke-width="0.07" points="21.125,13.394 21.125,10.606 16.325,10.606 16.325,13.394"/>
<polygon fill="#1f77b4" fill-opacity="0.140" stroke="#1f77b4" stroke-opacity="0.55" stroke-width="0.07" points="22.520,13.394 22.520,10.606 17.720,10.606 17.720,13.394"/>
<polygon fill="#1f77b4" fill-opacity="0.140" stroke="#1f77b4" stroke-opacity="0.55" stroke-width="0.07" points="23.915,13.394 23.915,10.606 19.115,10.606 19.115,13.394"/>
<polygon fill="#1f77b4" fill-opacity="0.140" stroke="#1f77b4" stroke-opacity="0.55" stroke-width="0.07" points="25.310,13.394 25.310,10.606 20.510,10.606 20.510,13.394"/>
<polygon fill="#1f77b4" fill-opacity="0.140" stroke="#1f77b4" stroke-opacity="0.55" stroke-width="0.07" points="26.705,13.394 26.705,10.606 21.905,10.606 21.905,13.394"/>
<polygon fill="#1f77b4" fill-opacity="0.140" stroke="#1f77b4" stroke-opacity="0.55" stroke-width="0.07" points="28.100,13.394 28.100,10.606 23.300,10.606 23.300,13.394"/>
<polygon fill="#1f77b4" fill-opacity="0.140" stroke="#1f77b4" stroke-opacity="0.55" stroke-width="0.07" points="29.495,13.394 29.495,10.606 24.695,10.606 24.695,13.394"/>
<polygon fill="#1f77b4" fill-opacity="0.140" stroke="#1f77b4" stroke-opacity="0.55" stroke-width="0.07" points="30.890,13.394 30.890,10.606 26.090,10.606 26.090,13.394"/>
<polygon fill="#1f77b4" fill-opacity="0.140" stroke="#1f77b4" stroke-opacity="0.55" stroke-width="0.07" points="32.284,13.394 32.284,10.606 27.484,10.606 27.484,13.394"/>
<polygon fill="#1f77b4" fill-opacity="0.140" stroke="#1f77b4" stroke-opacity="0.55" stroke-width="0.07" points="33.521,13.394 33.521,10.606 28.721,10.606 28.721,13.394"/>
<polygon fill="#1f77b4" fill-opacity="0.140" stroke="#1f77b4" stroke-opacity="0.55" stroke-width="0.07" points="34.404,13.394 34.404,10.606 29.604,10.606 29.604,13.394"/>
<polygon fill="#1f77b4" fill-opacity="0.140" stroke="#1f77b4" stroke-opacity="0.55" stroke-width="0.07" points="34.986,13.394 34.986,10.606 30.186,10.606 30.186,13.394"/>
<polygon fill="#1f77b4" fill-opacity="0.140" stroke="#1f77b4" stroke-opacity="0.55" stroke-width="0.07" points="35.371,13.394 35.371,10.606 30.571,10.606 30.571,13.394"/>
<polygon fill="#1f77b4" fill-opacity="0.140" stroke="#1f77b4" stroke-opacity="0.55" stroke-width="0.07" points="35.464,13.394 35.464,10.606 30.664,10.606 30.664,13.394"/>
<polygon fill="#ff7f0e" fill-opacity="0.160" stroke="#ff7f0e" stroke-opacity="0.55" stroke-width="0.07" points="35.460,13.394 35.460,10.607 30.660,10.606 30.660,13.393"/>
<polygon fill="#ff7f0e" fill-opacity="0.160" stroke="#ff7f0e" stroke-opacity="0.55" stroke-width="0.07" points="34.902,13.597 35.164,10.822 30.385,10.371 30.123,13.146"/>
<polygon fill="#ff7f0e" fill-opacity="0.160" stroke="#ff7f0e" stroke-opacity="0.55" stroke-width="0.07" points="33.981,13.837 34.694,11.143 30.054,9.914 29.341,12.608"/>
<polygon fill="#ff7f0e" fill-opacity="0.160" stroke="#ff7f0e" stroke-opacity="0.55" stroke-width="0.07" points="32.982,13.923 34.151,11.393 29.793,9.381 28.624,11.911"/>
<polygon fill="#ff7f0e" fill-opacity="0.160" stroke="#ff7f0e" stroke-opacity="0.55" stroke-width="0.07" points="31.977,13.834 33.568,11.545 29.626,8.806 28.035,11.095"/>
<polygon fill="#ff7f0e" fill-opacity="0.160" stroke="#ff7f0e" stroke-opacity="0.55" stroke-width="0.07" points="31.002,13.571 32.966,11.595 29.562,8.211 27.597,10.188"/>
<polygon fill="#ff7f0e" fill-opacity="0.160" stroke="#ff7f0e" stroke-opacity="0.55" stroke-width="0.07" points="30.087,13.143 32.365,11.538 29.602,7.613 27.323,9.218"/>
<polygon fill="#ff7f0e" fill-opacity="0.160" stroke="#ff7f0e" stroke-opacity="0.55" stroke-width="0.07" points="29.268,12.562 31.788,11.372 29.738,7.032 27.218,8.222"/>
<polygon fill="#ff7f0e" fill-opacity="0.160" stroke="#ff7f0e" stroke-opacity="0.55" stroke-width="0.07" points="28.588,11.859 31.266,11.088 29.937,6.475 27.259,7.246"/>
<polygon fill="#ff7f0e" fill-opacity="0.160" stroke="#ff7f0e" stroke-opacity="0.55" stroke-width="0.07" points="28.055,11.069 30.818,10.705 30.191,5.946 27.427,6.310"/>
<polygon fill="#ff7f0e" fill-opacity="0.160" stroke="#ff7f0e" stroke-opacity="0.55" stroke-width="0.07" points="27.691,10.238 30.478,10.231 30.466,5.431 27.679,5.438"/>
<polygon fill="#ff7f0e" fill-opacity="0.160" stroke="#ff7f0e" stroke-opacity="0.55" stroke-width="0.07" points="27.679,9.555 30.466,9.564 30.482,4.764 27.695,4.755"/>
<polygon fill="#ff7f0e" fill-opacity="0.160" stroke="#ff7f0e" stroke-opacity="0.55" stroke-width="0.07" points="27.681,8.917 30.468,8.926 30.484,4.126 27.697,4.117"/>
<polygon fill="#ff7f0e" fill-opacity="0.160" stroke="#ff7f0e" stroke-opacity="0.55" stroke-width="0.07" points="27.683,8.368 30.470,8.378 30.486,3.578 27.699,3.568"/>
<polygon fill="#ff7f0e" fill-opacity="0.160" stroke="#ff7f0e" stroke-opacity="0.55" stroke-width="0.07" points="27.684,7.910 30.471,7.920 30.488,3.120 27.700,3.110"/>
<polygon fill="#ff7f0e" fill-opacity="0.160" stroke="#ff7f0e" stroke-opacity="0.55" stroke-width="0.07" points="27.686,7.529 30.473,7.538 30.489,2.738 27.702,2.729"/>
<polygon fill="#ff7f0e" fill-opacity="0.160" stroke="#ff7f0e" stroke-opacity="0.55" stroke-width="0.07" points="27.687,7.200 30.474,7.209 30.490,2.409 27.703,2.400"/>
<polygon fill="#ff7f0e" fill-opacity="0.160" stroke="#ff7f0e" stroke-opacity="0.55" stroke-width="0.07" points="27.688,6.882 30.475,6.892 30.491,2.092 27.704,2.082"/>
<polygon fill="#ff7f0e" fill-opacity="0.160" stroke="#ff7f0e" stroke-opacity="0.55" stroke-width="0.07" points="27.689,6.567 30.476,6.576 30.492,1.776 27.705,1.767"/>
<polygon fill="#ff7f0e" fill-opacity="0.160" stroke="#ff7f0e" stroke-opacity="0.55" stroke-width="0.07" points="27.690,6.252 30.477,6.261 30.493,1.461 27.706,1.452"/>
<polygon fill="#ff7f0e" fill-opacity="0.160" stroke="#ff7f0e" stroke-opacity="0.55" stroke-width="0.07" points="27.691,5.937 30.478,5.946 30.494,1.146 27.707,1.137"/>
<polygon fill="#ff7f0e" fill-opacity="0.160" stroke="#ff7f0e" stroke-opacity="0.55" stroke-width="0.07" points="27.692,5.745 30.479,5.754 30.495,0.954 27.708,0.945"/>
<polygon fill="none" stroke="crimson" stroke-width="0.120" points="27.692,5.745 30.479,5.754 30.495,0.954 27.708,0.945"/>
</g>
</svg>
