<?xml version="1.0" encoding="UTF-8"?>
<svg xmlns="http://www.w3.org/2000/svg" width="1400" height="900" viewBox="0 -3 75 53">
<rect x="0" y="-3" width="75" height="53" fill="white"/>
<text x="1.5" y="-1.35" font-size="1.15" fill="black">Parking | target row=2 idx=2 | success=true sim_ok=true | max_steer=35 deg | overshoot~=5 m | total(ref)~=4e+01 m</text>
<text x="1.5" y="-0.45" font-size="0.95" fill="black">ok</text>
<g transform="translate(0,50.000) scale(1,-1)">
<rect x="0" y="0" width="75.000" height="50.000" fill="none" stroke="black" stroke-width="0.15"/>
<rect x="0.000" y="9.000" width="75.000" height="6.000" fill="#add8e6" fill-opacity="0.25" stroke="#add8e6" stroke-width="0.08"/>
<rect x="0.000" y="34.500" width="75.000" height="6.000" fill="#add8e6" fill-opacity="0.25" stroke="#add8e6" stroke-width="0.08"/>
<rect x="36.000" y="12.000" width="6.000" height="25.500" fill="#90ee90" fill-opacity="0.25" stroke="#90ee90" stroke-width="0.08"/>
<rect x="12.000" y="44.000" width="4.800" height="6.000" fill="white" stroke="gray" stroke-width="0.080" fill-opacity="0.85"/>
<rect x="16.800" y="44.000" width="4.800" height="6.000" fill="white" stroke="gray" stroke-width="0.080" fill-opacity="0.85"/>
<rect x="21.600" y="44.000" width="4.800" height="6.000" fill="black" stroke="gray" stroke-width="0.080" fill-opacity="0.95"/>
<rect x="26.400" y="44.000" width="4.800" height="6.000" fill="black" stroke="gray" stroke-width="0.080" fill-opacity="0.95"/>
<rect x="31.200" y="44.000" width="4.800" height="6.000" fill="white" stroke="gray" stroke-width="0.080" fill-opacity="0.85"/>
<rect x="12.000" y="25.000" width="4.800" height="6.000" fill="black" stroke="gray" stroke-width="0.080" fill-opacity="0.95"/>
<rect x="16.800" y="25.000" width="4.800" height="6.000" fill="black" stroke="gray" stroke-width="0.080" fill-opacity="0.95"/>
<rect x="21.600" y="25.000" width="4.800" height="6.000" fill="black" stroke="gray" stroke-width="0.080" fill-opacity="0.95"/>
<rect x="26.400" y="25.000" width="4.800" height="6.000" fill="white" stroke="gray" stroke-width="0.080" fill-opacity="0.85"/>
<rect x="31.200" y="25.000" width="4.800" height="6.000" fill="white" stroke="gray" stroke-width="0.080" fill-opacity="0.85"/>
<rect x="12.000" y="19.000" width="4.800" height="6.000" fill="white" stroke="gray" stroke-width="0.080" fill-opacity="0.85"/>
<rect x="16.800" y="19.000" width="4.800" height="6.000" fill="white" stroke="gray" stroke-width="0.080" fill-opacity="0.85"/>
<rect x="21.600" y="19.000" width="4.800" height="6.000" fill="#98fb98" stroke="darkgreen" stroke-width="0.180" fill-opacity="0.85"/>
<rect x="26.400" y="19.000" width="4.800" height="6.000" fill="white" stroke="gray" stroke-width="0.080" fill-opacity="0.85"/>
<rect x="31.200" y="19.000" width="4.800" height="6.000" fill="black" stroke="gray" stroke-width="0.080" fill-opacity="0.95"/>
<rect x="12.000" y="0.000" width="4.800" height="6.000" fill="white" stroke="gray" stroke-width="0.080" fill-opacity="0.85"/>
<rect x="16.800" y="0.000" width="4.800" height="6.000" fill="white" stroke="gray" stroke-width="0.080" fill-opacity="0.85"/>
<rect x="21.600" y="0.000" width="4.800" height="6.000" fill="black" stroke="gray" stroke-width="0.080" fill-opacity="0.95"/>
<rect x="26.400" y="0.000" width="4.800" height="6.000" fill="white" stroke="gray" stroke-width="0.080" fill-opacity="0.85"/>
<rect x="31.200" y="0.000" width="4.800" height="6.000" fill="black" stroke="gray" stroke-width="0.080" fill-opacity="0.95"/>
<polygon fill="none" stroke="navy" stroke-width="0.120" points="6.400,13.394 6.400,10.606 1.600,10.606 1.600,13.394"/>
<polygon fill="purple" points="21.220,12.000 21.500,12.350 21.780,12.000 21.500,11.650"/>
<circle cx="28.800" cy="12.000" r="0.38" fill="darkviolet" stroke="indigo" stroke-width="0.06"/>
<polyline fill="none" stroke="#808080" stroke-width="0.120" stroke-opacity="0.65" stroke-dasharray="0.45 0.35" points="4.000,12.000 21.500,12.000 28.800,12.000"/>
<polyline fill="none" stroke="#808080" stroke-width="0.120" stroke-opacity="0.65" stroke-dasharray="0.45 0.35" points="28.800,12.000 28.626,12.180 28.455,12.364 28.289,12.553 28.126,12.747 27.966,12.944 27.811,13.146 27.659,13.351 27.511,13.559 27.366,13.771 27.225,13.987 27.087,14.205 26.952,14.425 26.821,14.649 26.693,14.874 26.568,15.102 26.447,15.332 26.328,15.563 26.213,15.796 26.101,16.030 25.991,16.265 25.885,16.501 25.782,16.738 25.681,16.976 25.583,17.213 25.488,17.451 25.396,17.689 25.306,17.926 25.219,18.163 25.135,18.399 25.053,18.635 24.974,18.869 24.897,19.102 24.822,19.333 24.750,19.563 24.680,19.790 24.612,20.016 24.546,20.239 24.483,20.460 24.421,20.678 24.362,20.893 24.305,21.105 24.249,21.314 24.196,21.519 24.144,21.720 24.094,21.918 24.046,22.111 24.000,22.300"/>
<polyline fill="none" stroke="#1f77b4" stroke-width="0.220" stroke-opacity="0.95" points="4.008,12.000 4.022,12.000 4.043,12.000 4.070,12.000 4.102,12.000 4.138,12.000 4.179,12.000 4.223,12.000 4.270,12.000 4.321,12.000 4.374,12.000 4.429,12.000 4.487,12.000 4.547,12.000 4.609,12.000 4.672,12.000 4.736,12.000 4.802,12.000 4.869,12.000 4.937,12.000 5.006,12.000 5.076,12.000 5.147,12.000 5.218,12.000 5.290,12.000 5.363,12.000 5.436,12.000 5.509,12.000 5.583,12.000 5.657,12.000 5.732,12.000 5.806,12.000 5.882,12.000 5.957,12.000 6.032,12.000 6.108,12.000 6.184,12.000 6.260,12.000 6.336,12.000 6.413,12.000 6.489,12.000 6.566,12.000 6.643,12.000 6.719,12.000 6.796,12.000 6.873,12.000 6.950,12.000 7.027,12.000 7.104,12.000 7.181,12.000 7.258,12.000 7.335,12.000 7.413,12.000 7.490,12.000 7.567,12.000 7.644,12.000 7.722,12.000 7.799,12.000 7.876,12.000 7.954,12.000 8.031,12.000 8.109,12.000 8.186,12.000 8.263,12.000 8.341,12.000 8.418,12.000 8.496,12.000 8.573,12.000 8.650,12.000 8.728,12.000 8.805,12.000 8.883,12.000 8.960,12.000 9.038,12.000 9.115,12.000 9.193,12.000 9.270,12.000 9.348,12.000 9.425,12.000 9.503,12.000 9.580,12.000 9.658,12.000 9.735,12.000 9.813,12.000 9.890,12.000 9.968,12.000 10.045,12.000 10.123,12.000 10.200,12.000 10.278,12.000 10.355,12.000 10.433,12.000 10.510,12.000 10.588,12.000 10.665,12.000 10.743,12.000 10.820,12.000 10.898,12.000 10.975,12.000 11.053,12.000 11.130,12.000 11.208,12.000 11.285,12.000 11.363,12.000 11.440,12.000 11.518,12.000 11.595,12.000 11.673,12.000 11.750,12.000 11.828,12.000 11.905,12.000 11.983,12.000 12.060,12.000 12.138,12.000 12.215,12.000 12.293,12.000 12.370,12.000 12.448,12.000 12.525,12.000 12.603,12.000 12.680,12.000 12.758,12.000 12.835,12.000 12.913,12.000 12.990,12.000 13.068,12.000 13.145,12.000 13.223,12.000 13.300,12.000 13.378,12.000 13.455,12.000 13.533,12.000 13.610,12.000 13.688,12.000 13.765,12.000 13.843,12.000 13.920,12.000 13.998,12.000 14.075,12.000 14.153,12.000 14.230,12.000 14.308,12.000 14.385,12.000 14.463,12.000 14.540,12.000 14.618,12.000 14.695,12.000 14.773,12.000 14.850,12.000 14.928,12.000 15.005,12.000 15.083,12.000 15.160,12.000 15.238,12.000 15.315,12.000 15.393,12.000 15.470,12.000 15.548,12.000 15.625,12.000 15.703,12.000 15.780,12.000 15.858,12.000 15.935,12.000 16.013,12.000 16.090,12.000 16.168,12.000 16.245,12.000 16.323,12.000 16.400,12.000 16.478,12.000 16.555,12.000 16.633,12.000 16.710,12.000 16.788,12.000 16.865,12.000 16.943,12.000 17.020,12.000 17.098,12.000 17.175,12.000 17.253,12.000 17.330,12.000 17.408,12.000 17.485,12.000 17.563,12.000 17.640,12.000 17.718,12.000 17.795,12.000 17.873,12.000 17.950,12.000 18.028,12.000 18.105,12.000 18.183,12.000 18.260,12.000 18.338,12.000 18.415,12.000 18.493,12.000 18.570,12.000 18.648,12.000 18.725,12.000 18.803,12.000 18.880,12.000 18.958,12.000 19.035,12.000 19.113,12.000 19.190,12.000 19.268,12.000 19.345,12.000 19.423,12.000 19.500,12.000 19.578,12.000 19.655,12.000 19.733,12.000 19.810,12.000 19.888,12.000 19.965,12.000 20.043,12.000 20.120,12.000 20.198,12.000 20.275,12.000 20.353,12.000 20.430,12.000 20.508,12.000 20.585,12.000 20.663,12.000 20.740,12.000 20.818,12.000 20.895,12.000 20.973,12.000 21.050,12.000 21.128,12.000 21.205,12.000 21.283,12.000 21.360,12.000 21.438,12.000 21.515,12.000 21.593,12.000 21.670,12.000 21.748,12.000 21.825,12.000 21.903,12.000 21.980,12.000 22.058,12.000 22.135,12.000 22.213,12.000 22.290,12.000 22.368,12.000 22.445,12.000 22.523,12.000 22.600,12.000 22.678,12.000 22.755,12.000 22.833,12.000 22.910,12.000 22.988,12.000 23.065,12.000 23.143,12.000 23.220,12.000 23.298,12.000 23.375,12.000 23.453,12.000 23.530,12.000 23.608,12.000 23.685,12.000 23.763,12.000 23.840,12.000 23.918,12.000 23.995,12.000 24.073,12.000 24.150,12.000 24.228,12.000 24.305,12.000 24.383,12.000 24.460,12.000 24.538,12.000 24.615,12.000 24.693,12.000 24.770,12.000 24.848,12.000 24.925,12.000 25.002,12.000 25.079,12.000 25.155,12.000 25.231,12.000 25.306,12.000 25.380,12.000 25.454,12.000 25.527,12.000 25.598,12.000 25.669,12.000 25.739,12.000 25.808,12.000 25.875,12.000 25.942,12.000 26.007,12.000 26.072,12.000 26.135,12.000 26.197,12.000 26.258,12.000 26.317,12.000 26.376,12.000 26.433,12.000 26.490,12.000 26.545,12.000 26.599,12.000 26.651,12.000 26.703,12.000 26.754,12.000 26.803,12.000 26.852,12.000 26.899,12.000 26.945,12.000 26.990,12.000 27.035,12.000 27.078,12.000 27.120,12.000 27.161,12.000 27.202,12.000 27.241,12.000 27.280,12.000 27.317,12.000 27.354,12.000 27.390,12.000 27.425,12.000 27.459,12.000 27.492,12.000 27.525,12.000 27.556,12.000 27.587,12.000 27.618,12.000 27.647,12.000 27.676,12.000 27.704,12.000 27.731,12.000 27.758,12.000 27.784,12.000 27.810,12.000 27.834,12.000 27.859,12.000 27.882,12.000 27.905,12.000 27.928,12.000 27.950,12.000 27.971,12.000 27.992,12.000 28.013,12.000 28.034,12.000 28.054,12.000 28.074,12.000 28.093,12.000 28.113,12.000 28.132,12.000 28.151,12.000 28.170,12.000 28.189,12.000 28.207,12.000 28.226,12.000 28.244,12.000 28.262,12.000"/>
<polyline fill="none" stroke="#ff7f0e" stroke-width="0.220" stroke-opacity="0.95" points="28.259,12.000 28.252,12.000 28.241,12.000 28.229,12.000 28.213,12.000 28.196,12.000 28.176,12.000 28.155,12.000 28.132,12.001 28.107,12.001 28.082,12.002 28.055,12.003 28.027,12.004 27.998,12.005 27.968,12.007 27.938,12.009 27.906,12.011 27.875,12.013 27.842,12.016 27.810,12.019 27.776,12.023 27.743,12.026 27.709,12.030 27.675,12.035 27.640,12.040 27.605,12.045 27.570,12.050 27.535,12.056 27.500,12.062 27.465,12.069 27.430,12.076 27.394,12.083 27.359,12.091 27.323,12.099 27.287,12.107 27.252,12.116 27.216,12.125 27.181,12.134 27.145,12.144 27.109,12.154 27.074,12.165 27.039,12.175 27.003,12.187 26.968,12.198 26.933,12.210 26.898,12.222 26.863,12.235 26.828,12.248 26.793,12.261 26.758,12.275 26.723,12.289 26.689,12.303 26.655,12.318 26.620,12.333 26.586,12.348 26.552,12.364 26.519,12.380 26.485,12.396 26.451,12.413 26.418,12.430 26.385,12.447 26.352,12.465 26.319,12.483 26.286,12.501 26.254,12.520 26.221,12.539 26.189,12.558 26.157,12.577 26.125,12.597 26.094,12.617 26.063,12.638 26.031,12.659 26.000,12.680 25.970,12.701 25.939,12.723 25.909,12.745 25.878,12.767 25.849,12.790 25.819,12.813 25.789,12.836 25.760,12.859 25.731,12.883 25.702,12.907 25.674,12.931 25.645,12.956 25.617,12.981 25.589,13.006 25.562,13.031 25.534,13.057 25.507,13.083 25.480,13.109 25.454,13.135 25.428,13.162 25.401,13.189 25.376,13.216 25.350,13.243 25.325,13.271 25.300,13.299 25.275,13.327 25.251,13.356 25.226,13.384 25.203,13.413 25.179,13.442 25.156,13.472 25.133,13.501 25.110,13.531 25.087,13.561 25.065,13.591 25.043,13.622 25.022,13.653 25.000,13.683 24.979,13.714 24.959,13.746 24.938,13.777 24.918,13.809 24.898,13.841 24.879,13.873 24.860,13.905 24.841,13.938 24.823,13.970 24.804,14.003 24.786,14.036 24.769,14.069 24.752,14.102 24.735,14.136 24.718,14.169 24.702,14.203 24.686,14.237 24.670,14.271 24.655,14.306 24.640,14.340 24.626,14.375 24.611,14.409 24.598,14.444 24.584,14.479 24.571,14.514 24.558,14.549 24.545,14.585 24.533,14.620 24.521,14.656 24.510,14.691 24.499,14.727 24.488,14.763 24.477,14.799 24.467,14.835 24.457,14.871 24.448,14.908 24.439,14.944 24.430,14.981 24.422,15.017 24.414,15.054 24.406,15.090 24.399,15.127 24.392,15.164 24.386,15.201 24.379,15.238 24.374,15.275 24.368,15.312 24.363,15.349 24.358,15.387 24.354,15.424 24.350,15.461 24.346,15.498 24.343,15.536 24.340,15.573 24.337,15.610 24.335,15.648 24.333,15.685 24.331,15.723 24.330,15.760 24.329,15.798 24.329,15.835 24.329,15.873 24.329,15.910 24.329,15.948 24.329,15.985 24.329,16.023 24.330,16.060 24.330,16.098 24.331,16.135 24.332,16.173 24.332,16.210 24.333,16.248 24.333,16.285 24.334,16.323 24.334,16.360 24.335,16.398 24.336,16.435 24.336,16.473 24.337,16.510 24.337,16.548 24.338,16.585 24.339,16.623 24.339,16.660 24.340,16.698 24.340,16.735 24.341,16.773 24.341,16.810 24.342,16.848 24.343,16.885 24.343,16.923 24.344,16.960 24.344,16.998 24.345,17.035 24.346,17.073 24.346,17.110 24.347,17.148 24.347,17.185 24.348,17.223 24.348,17.260 24.349,17.298 24.350,17.335 24.350,17.373 24.351,17.410 24.351,17.448 24.352,17.485 24.352,17.523 24.353,17.560 24.354,17.598 24.354,17.635 24.355,17.673 24.355,17.710 24.356,17.748 24.357,17.785 24.357,17.823 24.358,17.860 24.358,17.898 24.359,17.935 24.359,17.973 24.360,18.010 24.361,18.048 24.361,18.085 24.362,18.123 24.362,18.160 24.363,18.198 24.364,18.235 24.364,18.273 24.365,18.310 24.365,18.348 24.366,18.385 24.366,18.422 24.367,18.460 24.368,18.497 24.368,18.534 24.369,18.571 24.369,18.608 24.370,18.644 24.370,18.680 24.371,18.717 24.372,18.752 24.372,18.788 24.373,18.823 24.373,18.859 24.374,18.893 24.374,18.928 24.375,18.962 24.375,18.996 24.376,19.030 24.376,19.063 24.377,19.097 24.377,19.129 24.378,19.162 24.378,19.194 24.379,19.226 24.379,19.258 24.380,19.289 24.380,19.320 24.381,19.351 24.381,19.382 24.382,19.412 24.382,19.442 24.383,19.472 24.383,19.501 24.384,19.530 24.384,19.559 24.385,19.587 24.385,19.615 24.385,19.643 24.386,19.671 24.386,19.698 24.387,19.726 24.387,19.752 24.387,19.779 24.388,19.805 24.388,19.831 24.389,19.857 24.389,19.883 24.389,19.908 24.390,19.933 24.390,19.958 24.391,19.982 24.391,20.006 24.391,20.030 24.392,20.054 24.392,20.078 24.392,20.101 24.393,20.124 24.393,20.147 24.394,20.169 24.394,20.192 24.394,20.214 24.395,20.236 24.395,20.258 24.395,20.279 24.396,20.300 24.396,20.321 24.396,20.342 24.397,20.363 24.397,20.383 24.397,20.403 24.397,20.423 24.398,20.443 24.398,20.463 24.398,20.482 24.399,20.501 24.399,20.520 24.399,20.539 24.400,20.558 24.400,20.577 24.400,20.595 24.400,20.614 24.401,20.632 24.401,20.650 24.401,20.668 24.402,20.686 24.402,20.704 24.402,20.722 24.402,20.740 24.403,20.758 24.403,20.776 24.403,20.794 24.404,20.812 24.404,20.829 24.404,20.847 24.404,20.865 24.405,20.883 24.405,20.900 24.405,20.918 24.405,20.936 24.406,20.953 24.406,20.971 24.406,20.988 24.407,21.006 24.407,21.024 24.407,21.041 24.407,21.059 24.408,21.076 24.408,21.094 24.408,21.111 24.408,21.129 24.409,21.146 24.409,21.164 24.409,21.181 24.410,21.199 24.410,21.217 24.410,21.234 24.410,21.252 24.411,21.269 24.411,21.287 24.411,21.304 24.411,21.322 24.412,21.339 24.412,21.357 24.412,21.374 24.413,21.392 24.413,21.409 24.413,21.427 24.413,21.444 24.414,21.462 24.414,21.479 24.414,21.497 24.414,21.514 24.415,21.532 24.415,21.549 24.415,21.567 24.415,21.584 24.416,21.602 24.416,21.619 24.416,21.637 24.417,21.654 24.417,21.672 24.417,21.689 24.417,21.707 24.418,21.724 24.418,21.742 24.418,21.759 24.418,21.777 24.419,21.794 24.419,21.812 24.419,21.829 24.420,21.847 24.420,21.864 24.420,21.882 24.420,21.899 24.421,21.917 24.421,21.934 24.421,21.952 24.421,21.969 24.422,21.987 24.422,22.004 24.422,22.022 24.423,22.039 24.423,22.057 24.423,22.074 24.423,22.092 24.424,22.109 24.424,22.127 24.424,22.144 24.424,22.162 24.425,22.179 24.425,22.197 24.425,22.214 24.426,22.232 24.426,22.249 24.426,22.267"/>
<polygon fill="#1f77b4" fill-opacity="0.140" stroke="#1f77b4" stroke-opacity="0.55" stroke-width="0.07" points="6.408,13.394 6.408,10.606 1.608,10.606 1.608,13.394"/>
<polygon fill="#1f77b4" fill-opacity="0.140" stroke="#1f77b4" stroke-opacity="0.55" stroke-width="0.07" points="7.269,13.394 7.269,10.606 2.469,10.606 2.469,13.394"/>
<polygon fill="#1f77b4" fill-opacity="0.140" stroke="#1f77b4" stroke-opacity="0.55" stroke-width="0.07" points="8.584,13.394 8.584,10.606 3.784,10.606 3.784,13.394"/>
<polygon fill="#1f77b4" fill-opacity="0.140" stroke="#1f77b4" stroke-opacity="0.55" stroke-width="0.07" points="9.967,13.394 9.967,10.606 5.167,10.606 5.167,13.394"/>
<polygon fill="#1f77b4" fill-opacity="0.140" stroke="#1f77b4" stroke-opacity="0.55" stroke-width="0.07" points="11.360,13.394 11.360,10.606 6.560,10.606 6.560,13.394"/>
<polygon fill="#1f77b4" fill-opacity="0.140" stroke="#1f77b4" stroke-opacity="0.55" stroke-width="0.07" points="12.755,13.394 12.755,10.606 7.955,10.606 7.955,13.394"/>
<polygon fill="#1f77b4" fill-opacity="0.140" stroke="#1f77b4" stroke-opacity="0.55" stroke-width="0.07" points="14.150,13.394 14.150,10.606 9.350,10.606 9.350,13.394"/>
<polygon fill="#1f77b4" fill-opacity="0.140" stroke="#1f77b4" stroke-opacity="0.55" stroke-width="0.07" points="15.545,13.394 15.545,10.606 10.745,10.606 10.745,13.394"/>
<polygon fill="#1f77b4" fill-opacity="0.140" stroke="#1f77b4" stroke-opacity="0.55" stroke-width="0.07" points="16.940,13.394 16.940,10.606 12.140,10.606 12.140,13.394"/>
<polygon fill="#1f77b4" fill-opacity="0.140" stroke="#1f77b4" stroke-opacity="0.55" stroke-width="0.07" points="18.335,13.394 18.335,10.606 13.535,10.606 13.535,13.394"/>
<polygon fill="#1f77b4" fill-opacity="0.140" stroke="#1f77b4" stroke-opacity="0.55" stroke-width="0.07" points="19.730,13.394 19.730,10.606 14.930,10.606 14.930,13.394"/>
<polygon fill="#1f77b4" fill-opacity="0.140" stroke="#1f77b4" stroke-opacity="0.55" stroke-width="0.07" points="21.125,13.394 21.125,10.606 16.325,10.606 16.325,13.394"/>
<polygon fill="#1f77b4" fill-opacity="0.140" stroke="#1f77b4" stroke-opacity="0.55" stroke-width="0.07" points="22.520,13.394 22.520,10.606 17.720,10.606 17.720,13.394"/>
<polygon fill="#1f77b4" fill-opacity="0.140" stroke="#1f77b4" stroke-opacity="0.55" stroke-width="0.07" points="23.915,13.394 23.915,10.606 19.115,10.606 19.115,13.394"/>
<polygon fill="#1f77b4" fill-opacity="0.140" stroke="#1f77b4" stroke-opacity="0.55" stroke-width="0.07" points="25.310,13.394 25.310,10.606 20.510,10.606 20.510,13.394"/>
<polygon fill="#1f77b4" fill-opacity="0.140" stroke="#1f77b4" stroke-opacity="0.55" stroke-width="0.07" points="26.705,13.394 26.705,10.606 21.905,10.606 21.905,13.394"/>
<polygon fill="#1f77b4" fill-opacity="0.140" stroke="#1f77b4" stroke-opacity="0.55" stroke-width="0.07" points="28.069,13.394 28.069,10.606 23.269,10.606 23.269,13.394"/>
<polygon fill="#1f77b4" fill-opacity="0.140" stroke="#1f77b4" stroke-opacity="0.55" stroke-width="0.07" points="29.154,13.394 29.154,10.606 24.354,10.606 24.354,13.394"/>
<polygon fill="#1f77b4" fill-opacity="0.140" stroke="#1f77b4" stroke-opacity="0.55" stroke-width="0.07" points="29.892,13.394 29.892,10.606 25.092,10.606 25.092,13.394"/>
<polygon fill="#1f77b4" fill-opacity="0.140" stroke="#1f77b4" stroke-opacity="0.55" stroke-width="0.07" points="30.371,13.394 30.371,10.606 25.571,10.606 25.571,13.394"/>
<polygon fill="#1f77b4" fill-opacity="0.140" stroke="#1f77b4" stroke-opacity="0.55" stroke-width="0.07" points="30.662,13.394 30.662,10.606 25.862,10.606 25.862,13.394"/>
<polygon fill="#ff7f0e" fill-opacity="0.160" stroke="#ff7f0e" stroke-opacity="0.55" stroke-width="0.07" points="30.659,13.393 30.659,10.606 25.859,10.607 25.859,13.394"/>
<polygon fill="#ff7f0e" fill-opacity="0.160" stroke="#ff7f0e" stroke-opacity="0.55" stroke-width="0.07" points="30.362,13.178 30.101,10.403 25.322,10.854 25.584,13.629"/>
<polygon fill="#ff7f0e" fill-opacity="0.160" stroke="#ff7f0e" stroke-opacity="0.55" stroke-width="0.07" points="29.893,12.857 29.179,10.163 24.539,11.392 25.253,14.086"/>
<polygon fill="#ff7f0e" fill-opacity="0.160" stroke="#ff7f0e" stroke-opacity="0.55" stroke-width="0.07" points="29.349,12.607 28.181,10.077 23.823,12.089 24.991,14.619"/>
<polygon fill="#ff7f0e" fill-opacity="0.160" stroke="#ff7f0e" stroke-opacity="0.55" stroke-width="0.07" points="28.766,12.455 27.176,10.166 23.234,12.905 24.825,15.194"/>
<polygon fill="#ff7f0e" fill-opacity="0.160" stroke="#ff7f0e" stroke-opacity="0.55" stroke-width="0.07" points="28.165,12.405 26.200,10.429 22.796,13.812 24.761,15.789"/>
<polygon fill="#ff7f0e" fill-opacity="0.160" stroke="#ff7f0e" stroke-opacity="0.55" stroke-width="0.07" points="27.564,12.462 25.285,10.857 22.522,14.782 24.801,16.387"/>
<polygon fill="#ff7f0e" fill-opacity="0.160" stroke="#ff7f0e" stroke-opacity="0.55" stroke-width="0.07" points="26.982,12.622 24.459,11.439 22.421,15.785 24.945,16.968"/>
<polygon fill="#ff7f0e" fill-opacity="0.160" stroke="#ff7f0e" stroke-opacity="0.55" stroke-width="0.07" points="26.437,12.881 23.746,12.155 22.497,16.790 25.188,17.515"/>
<polygon fill="#ff7f0e" fill-opacity="0.160" stroke="#ff7f0e" stroke-opacity="0.55" stroke-width="0.07" points="25.947,13.231 23.171,12.984 22.745,17.766 25.522,18.012"/>
<polygon fill="#ff7f0e" fill-opacity="0.160" stroke="#ff7f0e" stroke-opacity="0.55" stroke-width="0.07" points="25.688,13.751 22.901,13.795 22.975,18.594 25.762,18.551"/>
<polygon fill="#ff7f0e" fill-opacity="0.160" stroke="#ff7f0e" stroke-opacity="0.55" stroke-width="0.07" points="25.698,14.426 22.911,14.470 22.986,19.269 25.773,19.226"/>
<polygon fill="#ff7f0e" fill-opacity="0.160" stroke="#ff7f0e" stroke-opacity="0.55" stroke-width="0.07" points="25.709,15.101 22.922,15.145 22.996,19.944 25.783,19.901"/>
<polygon fill="#ff7f0e" fill-opacity="0.160" stroke="#ff7f0e" stroke-opacity="0.55" stroke-width="0.07" points="25.719,15.776 22.932,15.819 23.007,20.619 25.794,20.576"/>
<polygon fill="#ff7f0e" fill-opacity="0.160" stroke="#ff7f0e" stroke-opacity="0.55" stroke-width="0.07" points="25.729,16.437 22.943,16.480 23.017,21.280 25.804,21.237"/>
<polygon fill="#ff7f0e" fill-opacity="0.160" stroke="#ff7f0e" stroke-opacity="0.55" stroke-width="0.07" points="25.738,17.021 22.952,17.064 23.026,21.863 25.813,21.820"/>
<polygon fill="#ff7f0e" fill-opacity="0.160" stroke="#ff7f0e" stroke-opacity="0.55" stroke-width="0.07" points="25.746,17.512 22.959,17.555 23.034,22.354 25.820,22.311"/>
<polygon fill="#ff7f0e" fill-opacity="0.160" stroke="#ff7f0e" stroke-opacity="0.55" stroke-width="0.07" points="25.752,17.921 22.966,17.964 23.040,22.764 25.827,22.720"/>
<polygon fill="#ff7f0e" fill-opacity="0.160" stroke="#ff7f0e" stroke-opacity="0.55" stroke-width="0.07" points="25.758,18.265 22.971,18.308 23.045,23.108 25.832,23.065"/>
<polygon fill="#ff7f0e" fill-opacity="0.160" stroke="#ff7f0e" stroke-opacity="0.55" stroke-width="0.07" points="25.763,18.585 22.976,18.628 23.050,23.427 25.837,23.384"/>
<polygon fill="#ff7f0e" fill-opacity="0.160" stroke="#ff7f0e" stroke-opacity="0.55" stroke-width="0.07" points="25.768,18.900 22.981,18.944 23.055,23.743 25.842,23.700"/>
<polygon fill="#ff7f0e" fill-opacity="0.160" stroke="#ff7f0e" stroke-opacity="0.55" stroke-width="0.07" points="25.772,19.215 22.986,19.259 23.060,24.058 25.847,24.015"/>
<polygon fill="#ff7f0e" fill-opacity="0.160" stroke="#ff7f0e" stroke-opacity="0.55" stroke-width="0.07" points="25.777,19.530 22.991,19.574 23.065,24.373 25.852,24.330"/>
<polygon fill="#ff7f0e" fill-opacity="0.160" stroke="#ff7f0e" stroke-opacity="0.55" stroke-width="0.07" points="25.782,19.845 22.995,19.889 23.070,24.688 25.857,24.645"/>
<polygon fill="#ff7f0e" fill-opacity="0.160" stroke="#ff7f0e" stroke-opacity="0.55" stroke-width="0.07" points="25.782,19.845 22.995,19.889 23.070,24.688 25.857,24.645"/>
<polygon fill="none" stroke="crimson" stroke-width="0.120" points="25.782,19.845 22.995,19.889 23.070,24.688 25.857,24.645"/>
</g>
</svg>
