<?xml version="1.0" encoding="UTF-8"?>
<svg xmlns="http://www.w3.org/2000/svg" width="1400" height="900" viewBox="0 -3 75 53">
<rect x="0" y="-3" width="75" height="53" fill="white"/>
<text x="1.5" y="-1.35" font-size="1.15" fill="black">Parking | target row=3 idx=0 | success=true sim_ok=true | max_steer=35 deg | overshoot~=5 m | total(ref)~=3e+01 m</text>
<text x="1.5" y="-0.45" font-size="0.95" fill="black">ok</text>
<g transform="translate(0,50.000) scale(1,-1)">
<rect x="0" y="0" width="75.000" height="50.000" fill="none" stroke="black" stroke-width="0.15"/>
<rect x="0.000" y="9.000" width="75.000" height="6.000" fill="#add8e6" fill-opacity="0.25" stroke="#add8e6" stroke-width="0.08"/>
<rect x="0.000" y="34.500" width="75.000" height="6.000" fill="#add8e6" fill-opacity="0.25" stroke="#add8e6" stroke-width="0.08"/>
<rect x="36.000" y="12.000" width="6.000" height="25.500" fill="#90ee90" fill-opacity="0.25" stroke="#90ee90" stroke-width="0.08"/>
<rect x="12.000" y="44.000" width="4.800" height="6.000" fill="white" stroke="gray" stroke-width="0.080" fill-opacity="0.85"/>
<rect x="16.800" y="44.000" width="4.800" height="6.000" fill="white" stroke="gray" stroke-width="0.080" fill-opacity="0.85"/>
<rect x="21.600" y="44.000" width="4.800" height="6.000" fill="black" stroke="gray" stroke-width="0.080" fill-opacity="0.95"/>
<rect x="26.400" y="44.000" width="4.800" height="6.000" fill="black" stroke="gray" stroke-width="0.080" fill-opacity="0.95"/>
<rect x="31.200" y="44.000" width="4.800" height="6.000" fill="white" stroke="gray" stroke-width="0.080" fill-opacity="0.85"/>
<rect x="12.000" y="25.000" width="4.800" height="6.000" fill="black" stroke="gray" stroke-width="0.080" fill-opacity="0.95"/>
<rect x="16.800" y="25.000" width="4.800" height="6.000" fill="black" stroke="gray" stroke-width="0.080" fill-opacity="0.95"/>
<rect x="21.600" y="25.000" width="4.800" height="6.000" fill="black" stroke="gray" stroke-width="0.080" fill-opacity="0.95"/>
<rect x="26.400" y="25.000" width="4.800" height="6.000" fill="white" stroke="gray" stroke-width="0.080" fill-opacity="0.85"/>
<rect x="31.200" y="25.000" width="4.800" height="6.000" fill="white" stroke="gray" stroke-width="0.080" fill-opacity="0.85"/>
<rect x="12.000" y="19.000" width="4.800" height="6.000" fill="white" stroke="gray" stroke-width="0.080" fill-opacity="0.85"/>
<rect x="16.800" y="19.000" width="4.800" height="6.000" fill="white" stroke="gray" stroke-width="0.080" fill-opacity="0.85"/>
<rect x="21.600" y="19.000" width="4.800" height="6.000" fill="white" stroke="gray" stroke-width="0.080" fill-opacity="0.85"/>
<rect x="26.400" y="19.000" width="4.800" height="6.000" fill="white" stroke="gray" stroke-width="0.080" fill-opacity="0.85"/>
<rect x="31.200" y="19.000" width="4.800" height="6.000" fill="black" stroke="gray" stroke-width="0.080" fill-opacity="0.95"/>
<rect x="12.000" y="0.000" width="4.800" height="6.000" fill="#98fb98" stroke="darkgreen" stroke-width="0.180" fill-opacity="0.85"/>
<rect x="16.800" y="0.000" width="4.800" height="6.000" fill="white" stroke="gray" stroke-width="0.080" fill-opacity="0.85"/>
<rect x="21.600" y="0.000" width="4.800" height="6.000" fill="black" stroke="gray" stroke-width="0.080" fill-opacity="0.95"/>
<rect x="26.400" y="0.000" width="4.800" height="6.000" fill="white" stroke="gray" stroke-width="0.080" fill-opacity="0.85"/>
<rect x="31.200" y="0.000" width="4.800" height="6.000" fill="black" stroke="gray" stroke-width="0.080" fill-opacity="0.95"/>
<polygon fill="none" stroke="navy" stroke-width="0.120" points="6.400,13.394 6.400,10.606 1.600,10.606 1.600,13.394"/>
<polygon fill="purple" points="11.620,12.000 11.900,12.350 12.180,12.000 11.900,11.650"/>
<circle cx="19.200" cy="12.000" r="0.38" fill="darkviolet" stroke="indigo" stroke-width="0.06"/>
<polyline fill="none" stroke="#808080" stroke-width="0.120" stroke-opacity="0.65" stroke-dasharray="0.45 0.35" points="4.000,12.000 11.900,12.000 19.200,12.000"/>
<polyline fill="none" stroke="#808080" stroke-width="0.120" stroke-opacity="0.65" stroke-dasharray="0.45 0.35" points="19.200,12.000 19.200,11.835 19.192,11.667 19.177,11.496 19.154,11.323 19.124,11.146 19.087,10.968 19.044,10.786 18.994,10.603 18.938,10.417 18.876,10.230 18.808,10.041 18.734,9.850 18.656,9.658 18.572,9.464 18.483,9.269 18.389,9.073 18.291,8.877 18.189,8.679 18.083,8.481 17.973,8.283 17.860,8.084 17.743,7.885 17.623,7.686 17.500,7.487 17.375,7.289 17.247,7.091 17.117,6.893 16.985,6.697 16.851,6.501 16.716,6.306 16.579,6.113 16.442,5.921 16.303,5.730 16.164,5.541 16.024,5.354 15.885,5.168 15.745,4.985 15.606,4.804 15.467,4.625 15.329,4.449 15.191,4.276 15.055,4.105 14.920,3.938 14.787,3.773 14.656,3.612 14.527,3.454 14.400,3.300"/>
<polyline fill="none" stroke="#1f77b4" stroke-width="0.220" stroke-opacity="0.95" points="4.008,12.000 4.022,12.000 4.043,12.000 4.070,12.000 4.102,12.000 4.138,12.000 4.179,12.000 4.223,12.000 4.270,12.000 4.321,12.000 4.374,12.000 4.429,12.000 4.487,12.000 4.547,12.000 4.609,12.000 4.672,12.000 4.736,12.000 4.802,12.000 4.869,12.000 4.937,12.000 5.006,12.000 5.076,12.000 5.147,12.000 5.218,12.000 5.290,12.000 5.363,12.000 5.436,12.000 5.509,12.000 5.583,12.000 5.657,12.000 5.732,12.000 5.806,12.000 5.882,12.000 5.957,12.000 6.032,12.000 6.108,12.000 6.184,12.000 6.260,12.000 6.336,12.000 6.413,12.000 6.489,12.000 6.566,12.000 6.643,12.000 6.719,12.000 6.796,12.000 6.873,12.000 6.950,12.000 7.027,12.000 7.104,12.000 7.181,12.000 7.258,12.000 7.335,12.000 7.413,12.000 7.490,12.000 7.567,12.000 7.644,12.000 7.722,12.000 7.799,12.000 7.876,12.000 7.954,12.000 8.031,12.000 8.109,12.000 8.186,12.000 8.263,12.000 8.341,12.000 8.418,12.000 8.496,12.000 8.573,12.000 8.650,12.000 8.728,12.000 8.805,12.000 8.883,12.000 8.960,12.000 9.038,12.000 9.115,12.000 9.193,12.000 9.270,12.000 9.348,12.000 9.425,12.000 9.503,12.000 9.580,12.000 9.658,12.000 9.735,12.000 9.813,12.000 9.890,12.000 9.968,12.000 10.045,12.000 10.123,12.000 10.200,12.000 10.278,12.000 10.355,12.000 10.433,12.000 10.510,12.000 10.588,12.000 10.665,12.000 10.743,12.000 10.820,12.000 10.898,12.000 10.975,12.000 11.053,12.000 11.130,12.000 11.208,12.000 11.285,12.000 11.363,12.000 11.440,12.000 11.518,12.000 11.595,12.000 11.673,12.000 11.750,12.000 11.828,12.000 11.905,12.000 11.983,12.000 12.060,12.000 12.138,12.000 12.215,12.000 12.293,12.000 12.370,12.000 12.448,12.000 12.525,12.000 12.603,12.000 12.680,12.000 12.758,12.000 12.835,12.000 12.913,12.000 12.990,12.000 13.068,12.000 13.145,12.000 13.223,12.000 13.300,12.000 13.378,12.000 13.455,12.000 13.533,12.000 13.610,12.000 13.688,12.000 13.765,12.000 13.843,12.000 13.920,12.000 13.998,12.000 14.075,12.000 14.153,12.000 14.230,12.000 14.308,12.000 14.385,12.000 14.463,12.000 14.540,12.000 14.618,12.000 14.695,12.000 14.773,12.000 14.850,12.000 14.928,12.000 15.005,12.000 15.083,12.000 15.160,12.000 15.238,12.000 15.315,12.000 15.392,12.000 15.469,12.000 15.545,12.000 15.621,12.000 15.696,12.000 15.771,12.000 15.845,12.000 15.917,12.000 15.989,12.000 16.060,12.000 16.130,12.000 16.199,12.000 16.267,12.000 16.333,12.000 16.399,12.000 16.463,12.000 16.527,12.000 16.589,12.000 16.650,12.000 16.710,12.000 16.768,12.000 16.826,12.000 16.882,12.000 16.938,12.000 16.992,12.000 17.045,12.000 17.096,12.000 17.147,12.000 17.197,12.000 17.245,12.000 17.293,12.000 17.339,12.000 17.385,12.000 17.429,12.000 17.472,12.000 17.515,12.000 17.556,12.000 17.597,12.000 17.636,12.000 17.675,12.000 17.712,12.000 17.749,12.000 17.785,12.000 17.820,12.000 17.854,12.000 17.888,12.000 17.920,12.000 17.952,12.000 17.983,12.000 18.014,12.000 18.043,12.000 18.072,12.000 18.100,12.000 18.128,12.000 18.155,12.000 18.181,12.000 18.206,12.000 18.231,12.000 18.256,12.000 18.279,12.000 18.302,12.000 18.325,12.000 18.347,12.000 18.368,12.000 18.390,12.000 18.410,12.000 18.431,12.000 18.451,12.000 18.471,12.000 18.491,12.000 18.510,12.000 18.529,12.000 18.548,12.000 18.567,12.000 18.586,12.000 18.605,12.000 18.623,12.000 18.642,12.000 18.660,12.000"/>
<polyline fill="none" stroke="#ff7f0e" stroke-width="0.220" stroke-opacity="0.95" points="18.656,12.000 18.649,12.000 18.639,12.000 18.626,12.000 18.611,12.000 18.593,12.000 18.574,12.000 18.552,12.000 18.529,11.999 18.505,11.999 18.479,11.998 18.452,11.997 18.424,11.996 18.395,11.995 18.366,11.993 18.335,11.991 18.304,11.989 18.272,11.987 18.240,11.984 18.207,11.981 18.174,11.977 18.140,11.974 18.106,11.970 18.072,11.965 18.038,11.960 18.003,11.955 17.968,11.950 17.933,11.944 17.898,11.938 17.863,11.931 17.827,11.924 17.792,11.917 17.756,11.909 17.721,11.901 17.685,11.893 17.649,11.884 17.614,11.875 17.578,11.866 17.543,11.856 17.507,11.846 17.472,11.835 17.436,11.825 17.401,11.813 17.366,11.802 17.330,11.790 17.295,11.778 17.260,11.765 17.225,11.752 17.190,11.739 17.156,11.725 17.121,11.711 17.087,11.697 17.052,11.682 17.018,11.667 16.984,11.652 16.950,11.636 16.916,11.620 16.882,11.604 16.849,11.587 16.816,11.570 16.782,11.553 16.749,11.535 16.717,11.517 16.684,11.499 16.651,11.480 16.619,11.461 16.587,11.442 16.555,11.423 16.523,11.403 16.492,11.383 16.460,11.362 16.429,11.341 16.398,11.320 16.367,11.299 16.337,11.277 16.306,11.255 16.276,11.233 16.246,11.210 16.216,11.187 16.187,11.164 16.158,11.141 16.129,11.117 16.100,11.093 16.071,11.069 16.043,11.044 16.015,11.019 15.987,10.994 15.959,10.969 15.932,10.943 15.905,10.917 15.878,10.891 15.852,10.865 15.825,10.838 15.799,10.811 15.773,10.784 15.748,10.757 15.722,10.729 15.697,10.701 15.673,10.673 15.648,10.644 15.624,10.616 15.600,10.587 15.577,10.558 15.553,10.528 15.530,10.499 15.507,10.469 15.485,10.439 15.463,10.409 15.441,10.378 15.419,10.347 15.398,10.317 15.377,10.286 15.356,10.254 15.336,10.223 15.316,10.191 15.296,10.159 15.277,10.127 15.257,10.095 15.239,10.063 15.220,10.030 15.202,9.997 15.184,9.964 15.166,9.931 15.149,9.898 15.132,9.864 15.116,9.831 15.099,9.797 15.083,9.763 15.068,9.729 15.052,9.695 15.037,9.660 15.022,9.626 15.008,9.591 14.994,9.557 14.980,9.522 14.966,9.487 14.953,9.452 14.940,9.416 14.928,9.381 14.916,9.346 14.904,9.310 14.892,9.275 14.881,9.239 14.870,9.203 14.859,9.167 14.849,9.131 14.838,9.095 14.829,9.059 14.819,9.022 14.810,8.986 14.801,8.949 14.793,8.913 14.785,8.876 14.777,8.840 14.769,8.803 14.762,8.766 14.755,8.729 14.748,8.692 14.742,8.656 14.736,8.619 14.730,8.581 14.724,8.544 14.719,8.507 14.714,8.470 14.710,8.433 14.705,8.396 14.701,8.358 14.698,8.321 14.694,8.284 14.691,8.246 14.688,8.209 14.686,8.171 14.683,8.134 14.681,8.097 14.680,8.059 14.678,8.022 14.677,7.984 14.676,7.947 14.676,7.909 14.675,7.872 14.675,7.834 14.675,7.797 14.675,7.759 14.675,7.722 14.675,7.684 14.675,7.647 14.675,7.609 14.675,7.572 14.676,7.534 14.676,7.497 14.676,7.459 14.676,7.422 14.676,7.384 14.676,7.347 14.676,7.309 14.676,7.272 14.677,7.234 14.677,7.197 14.677,7.159 14.677,7.122 14.677,7.085 14.677,7.048 14.677,7.011 14.677,6.975 14.678,6.938 14.678,6.902 14.678,6.866 14.678,6.831 14.678,6.795 14.678,6.760 14.678,6.725 14.678,6.690 14.678,6.656 14.679,6.622 14.679,6.588 14.679,6.554 14.679,6.521 14.679,6.488 14.679,6.456 14.679,6.423 14.679,6.391 14.679,6.359 14.680,6.328 14.680,6.297 14.680,6.266 14.680,6.235 14.680,6.205 14.680,6.175 14.680,6.145 14.680,6.116 14.680,6.087 14.680,6.058 14.681,6.029 14.681,6.001 14.681,5.973 14.681,5.946 14.681,5.918 14.681,5.891 14.681,5.864 14.681,5.837 14.681,5.811 14.681,5.785 14.681,5.759 14.682,5.734 14.682,5.708 14.682,5.683 14.682,5.658 14.682,5.634 14.682,5.610 14.682,5.586 14.682,5.562 14.682,5.538 14.682,5.515 14.682,5.492 14.682,5.469 14.683,5.446 14.683,5.424 14.683,5.402 14.683,5.380 14.683,5.358 14.683,5.337 14.683,5.316 14.683,5.295 14.683,5.274 14.683,5.253 14.683,5.233 14.683,5.213 14.683,5.193 14.683,5.173 14.684,5.153 14.684,5.134 14.684,5.115 14.684,5.096 14.684,5.077 14.684,5.058 14.684,5.039 14.684,5.021 14.684,5.003 14.684,4.984 14.684,4.966 14.684,4.948 14.684,4.930 14.684,4.912 14.684,4.894 14.684,4.876 14.684,4.858 14.685,4.840 14.685,4.822 14.685,4.804 14.685,4.787 14.685,4.769 14.685,4.751 14.685,4.734 14.685,4.716 14.685,4.698 14.685,4.681 14.685,4.663 14.685,4.645 14.685,4.628 14.685,4.610 14.685,4.593 14.685,4.575 14.686,4.558 14.686,4.540 14.686,4.522 14.686,4.505 14.686,4.487 14.686,4.470 14.686,4.452 14.686,4.435 14.686,4.417 14.686,4.400 14.686,4.382 14.686,4.365 14.686,4.347 14.686,4.330 14.686,4.312 14.686,4.295 14.686,4.277 14.687,4.260 14.687,4.242 14.687,4.225 14.687,4.207 14.687,4.189 14.687,4.172 14.687,4.154 14.687,4.137 14.687,4.119 14.687,4.102 14.687,4.084 14.687,4.067 14.687,4.049 14.687,4.032 14.687,4.014 14.687,3.997 14.687,3.979 14.688,3.962 14.688,3.944 14.688,3.927 14.688,3.909 14.688,3.892 14.688,3.874 14.688,3.857 14.688,3.839 14.688,3.822 14.688,3.804 14.688,3.787 14.688,3.769 14.688,3.752 14.688,3.734 14.688,3.717 14.688,3.699 14.688,3.682 14.688,3.664 14.689,3.647 14.689,3.629 14.689,3.612 14.689,3.594 14.689,3.577 14.689,3.559 14.689,3.542 14.689,3.524 14.689,3.507 14.689,3.489 14.689,3.472 14.689,3.454 14.689,3.437 14.689,3.419 14.689,3.402 14.689,3.384 14.689,3.367 14.690,3.349"/>
<polygon fill="#1f77b4" fill-opacity="0.140" stroke="#1f77b4" stroke-opacity="0.55" stroke-width="0.07" points="6.408,13.394 6.408,10.606 1.608,10.606 1.608,13.394"/>
<polygon fill="#1f77b4" fill-opacity="0.140" stroke="#1f77b4" stroke-opacity="0.55" stroke-width="0.07" points="7.269,13.394 7.269,10.606 2.469,10.606 2.469,13.394"/>
<polygon fill="#1f77b4" fill-opacity="0.140" stroke="#1f77b4" stroke-opacity="0.55" stroke-width="0.07" points="8.584,13.394 8.584,10.606 3.784,10.606 3.784,13.394"/>
<polygon fill="#1f77b4" fill-opacity="0.140" stroke="#1f77b4" stroke-opacity="0.55" stroke-width="0.07" points="9.967,13.394 9.967,10.606 5.167,10.606 5.167,13.394"/>
<polygon fill="#1f77b4" fill-opacity="0.140" stroke="#1f77b4" stroke-opacity="0.55" stroke-width="0.07" points="11.360,13.394 11.360,10.606 6.560,10.606 6.560,13.394"/>
<polygon fill="#1f77b4" fill-opacity="0.140" stroke="#1f77b4" stroke-opacity="0.55" stroke-width="0.07" points="12.755,13.394 12.755,10.606 7.955,10.606 7.955,13.394"/>
<polygon fill="#1f77b4" fill-opacity="0.140" stroke="#1f77b4" stroke-opacity="0.55" stroke-width="0.07" points="14.150,13.394 14.150,10.606 9.350,10.606 9.350,13.394"/>
<polygon fill="#1f77b4" fill-opacity="0.140" stroke="#1f77b4" stroke-opacity="0.55" stroke-width="0.07" points="15.545,13.394 15.545,10.606 10.745,10.606 10.745,13.394"/>
<polygon fill="#1f77b4" fill-opacity="0.140" stroke="#1f77b4" stroke-opacity="0.55" stroke-width="0.07" points="16.940,13.394 16.940,10.606 12.140,10.606 12.140,13.394"/>
<polygon fill="#1f77b4" fill-opacity="0.140" stroke="#1f77b4" stroke-opacity="0.55" stroke-width="0.07" points="18.317,13.394 18.317,10.606 13.517,10.606 13.517,13.394"/>
<polygon fill="#1f77b4" fill-opacity="0.140" stroke="#1f77b4" stroke-opacity="0.55" stroke-width="0.07" points="19.445,13.394 19.445,10.606 14.645,10.606 14.645,13.394"/>
<polygon fill="#1f77b4" fill-opacity="0.140" stroke="#1f77b4" stroke-opacity="0.55" stroke-width="0.07" points="20.220,13.394 20.220,10.606 15.420,10.606 15.420,13.394"/>
<polygon fill="#1f77b4" fill-opacity="0.140" stroke="#1f77b4" stroke-opacity="0.55" stroke-width="0.07" points="20.725,13.394 20.725,10.606 15.925,10.606 15.925,13.394"/>
<polygon fill="#1f77b4" fill-opacity="0.140" stroke="#1f77b4" stroke-opacity="0.55" stroke-width="0.07" points="21.060,13.394 21.060,10.606 16.260,10.606 16.260,13.394"/>
<polygon fill="#ff7f0e" fill-opacity="0.160" stroke="#ff7f0e" stroke-opacity="0.55" stroke-width="0.07" points="21.056,13.394 21.056,10.607 16.256,10.606 16.256,13.393"/>
<polygon fill="#ff7f0e" fill-opacity="0.160" stroke="#ff7f0e" stroke-opacity="0.55" stroke-width="0.07" points="20.499,13.597 20.760,10.822 15.981,10.371 15.720,13.146"/>
<polygon fill="#ff7f0e" fill-opacity="0.160" stroke="#ff7f0e" stroke-opacity="0.55" stroke-width="0.07" points="19.577,13.837 20.291,11.143 15.651,9.914 14.937,12.608"/>
<polygon fill="#ff7f0e" fill-opacity="0.160" stroke="#ff7f0e" stroke-opacity="0.55" stroke-width="0.07" points="18.579,13.923 19.747,11.393 15.389,9.381 14.221,11.911"/>
<polygon fill="#ff7f0e" fill-opacity="0.160" stroke="#ff7f0e" stroke-opacity="0.55" stroke-width="0.07" points="17.574,13.834 19.164,11.545 15.222,8.806 13.632,11.095"/>
<polygon fill="#ff7f0e" fill-opacity="0.160" stroke="#ff7f0e" stroke-opacity="0.55" stroke-width="0.07" points="16.598,13.571 18.563,11.595 15.158,8.211 13.194,10.188"/>
<polygon fill="#ff7f0e" fill-opacity="0.160" stroke="#ff7f0e" stroke-opacity="0.55" stroke-width="0.07" points="15.683,13.143 17.962,11.538 15.199,7.613 12.920,9.218"/>
<polygon fill="#ff7f0e" fill-opacity="0.160" stroke="#ff7f0e" stroke-opacity="0.55" stroke-width="0.07" points="14.864,12.562 17.384,11.372 15.334,7.032 12.814,8.222"/>
<polygon fill="#ff7f0e" fill-opacity="0.160" stroke="#ff7f0e" stroke-opacity="0.55" stroke-width="0.07" points="14.184,11.859 16.862,11.088 15.534,6.475 12.856,7.246"/>
<polygon fill="#ff7f0e" fill-opacity="0.160" stroke="#ff7f0e" stroke-opacity="0.55" stroke-width="0.07" points="13.651,11.069 16.414,10.705 15.787,5.946 13.024,6.310"/>
<polygon fill="#ff7f0e" fill-opacity="0.160" stroke="#ff7f0e" stroke-opacity="0.55" stroke-width="0.07" points="13.288,10.238 16.075,10.231 16.062,5.431 13.275,5.438"/>
<polygon fill="#ff7f0e" fill-opacity="0.160" stroke="#ff7f0e" stroke-opacity="0.55" stroke-width="0.07" points="13.275,9.555 16.062,9.564 16.078,4.764 13.291,4.755"/>
<polygon fill="#ff7f0e" fill-opacity="0.160" stroke="#ff7f0e" stroke-opacity="0.55" stroke-width="0.07" points="13.277,8.917 16.064,8.926 16.081,4.126 13.293,4.117"/>
<polygon fill="#ff7f0e" fill-opacity="0.160" stroke="#ff7f0e" stroke-opacity="0.55" stroke-width="0.07" points="13.279,8.369 16.066,8.378 16.082,3.578 13.295,3.569"/>
<polygon fill="#ff7f0e" fill-opacity="0.160" stroke="#ff7f0e" stroke-opacity="0.55" stroke-width="0.07" points="13.281,7.910 16.068,7.920 16.084,3.120 13.297,3.110"/>
<polygon fill="#ff7f0e" fill-opacity="0.160" stroke="#ff7f0e" stroke-opacity="0.55" stroke-width="0.07" points="13.282,7.529 16.069,7.538 16.085,2.739 13.298,2.729"/>
<polygon fill="#ff7f0e" fill-opacity="0.160" stroke="#ff7f0e" stroke-opacity="0.55" stroke-width="0.07" points="13.283,7.200 16.070,7.209 16.086,2.409 13.299,2.400"/>
<polygon fill="#ff7f0e" fill-opacity="0.160" stroke="#ff7f0e" stroke-opacity="0.55" stroke-width="0.07" points="13.284,6.883 16.071,6.892 16.087,2.092 13.300,2.083"/>
<polygon fill="#ff7f0e" fill-opacity="0.160" stroke="#ff7f0e" stroke-opacity="0.55" stroke-width="0.07" points="13.285,6.567 16.072,6.577 16.088,1.777 13.301,1.767"/>
<polygon fill="#ff7f0e" fill-opacity="0.160" stroke="#ff7f0e" stroke-opacity="0.55" stroke-width="0.07" points="13.286,6.252 16.073,6.262 16.089,1.462 13.302,1.452"/>
<polygon fill="#ff7f0e" fill-opacity="0.160" stroke="#ff7f0e" stroke-opacity="0.55" stroke-width="0.07" points="13.287,5.937 16.074,5.947 16.090,1.147 13.303,1.137"/>
<polygon fill="#ff7f0e" fill-opacity="0.160" stroke="#ff7f0e" stroke-opacity="0.55" stroke-width="0.07" points="13.288,5.745 16.075,5.754 16.091,0.954 13.304,0.945"/>
<polygon fill="none" stroke="crimson" stroke-width="0.120" points="13.288,5.745 16.075,5.754 16.091,0.954 13.304,0.945"/>
</g>
</svg>
