<?xml version="1.0" encoding="UTF-8"?>
<svg xmlns="http://www.w3.org/2000/svg" width="1400" height="900" viewBox="0 -3 75 53">
<rect x="0" y="-3" width="75" height="53" fill="white"/>
<text x="1.5" y="-1.35" font-size="1.15" fill="black">Parking | target row=0 idx=9 | success=true sim_ok=true | max_steer=35 deg | overshoot~=5 m | total(ref)~=1e+02 m</text>
<text x="1.5" y="-0.45" font-size="0.95" fill="black">ok</text>
<g transform="translate(0,50.000) scale(1,-1)">
<rect x="0" y="0" width="75.000" height="50.000" fill="none" stroke="black" stroke-width="0.15"/>
<rect x="0.000" y="9.000" width="75.000" height="6.000" fill="#add8e6" fill-opacity="0.25" stroke="#add8e6" stroke-width="0.08"/>
<rect x="0.000" y="34.500" width="75.000" height="6.000" fill="#add8e6" fill-opacity="0.25" stroke="#add8e6" stroke-width="0.08"/>
<rect x="60.000" y="12.000" width="6.000" height="25.500" fill="#90ee90" fill-opacity="0.25" stroke="#90ee90" stroke-width="0.08"/>
<rect x="12.000" y="44.000" width="4.800" height="6.000" fill="white" stroke="gray" stroke-width="0.080" fill-opacity="0.85"/>
<rect x="16.800" y="44.000" width="4.800" height="6.000" fill="white" stroke="gray" stroke-width="0.080" fill-opacity="0.85"/>
<rect x="21.600" y="44.000" width="4.800" height="6.000" fill="black" stroke="gray" stroke-width="0.080" fill-opacity="0.95"/>
<rect x="26.400" y="44.000" width="4.800" height="6.000" fill="black" stroke="gray" stroke-width="0.080" fill-opacity="0.95"/>
<rect x="31.200" y="44.000" width="4.800" height="6.000" fill="white" stroke="gray" stroke-width="0.080" fill-opacity="0.85"/>
<rect x="36.000" y="44.000" width="4.800" height="6.000" fill="white" stroke="gray" stroke-width="0.080" fill-opacity="0.85"/>
<rect x="40.800" y="44.000" width="4.800" height="6.000" fill="white" stroke="gray" stroke-width="0.080" fill-opacity="0.85"/>
<rect x="45.600" y="44.000" width="4.800" height="6.000" fill="white" stroke="gray" stroke-width="0.080" fill-opacity="0.85"/>
<rect x="50.400" y="44.000" width="4.800" height="6.000" fill="black" stroke="gray" stroke-width="0.080" fill-opacity="0.95"/>
<rect x="55.200" y="44.000" width="4.800" height="6.000" fill="#98fb98" stroke="darkgreen" stroke-width="0.180" fill-opacity="0.85"/>
<rect x="12.000" y="25.000" width="4.800" height="6.000" fill="black" stroke="gray" stroke-width="0.080" fill-opacity="0.95"/>
<rect x="16.800" y="25.000" width="4.800" height="6.000" fill="black" stroke="gray" stroke-width="0.080" fill-opacity="0.95"/>
<rect x="21.600" y="25.000" width="4.800" height="6.000" fill="black" stroke="gray" stroke-width="0.080" fill-opacity="0.95"/>
<rect x="26.400" y="25.000" width="4.800" height="6.000" fill="white" stroke="gray" stroke-width="0.080" fill-opacity="0.85"/>
<rect x="31.200" y="25.000" width="4.800" height="6.000" fill="white" stroke="gray" stroke-width="0.080" fill-opacity="0.85"/>
<rect x="36.000" y="25.000" width="4.800" height="6.000" fill="black" stroke="gray" stroke-width="0.080" fill-opacity="0.95"/>
<rect x="40.800" y="25.000" width="4.800" height="6.000" fill="white" stroke="gray" stroke-width="0.080" fill-opacity="0.85"/>
<rect x="45.600" y="25.000" width="4.800" height="6.000" fill="black" stroke="gray" stroke-width="0.080" fill-opacity="0.95"/>
<rect x="50.400" y="25.000" width="4.800" height="6.000" fill="white" stroke="gray" stroke-width="0.080" fill-opacity="0.85"/>
<rect x="55.200" y="25.000" width="4.800" height="6.000" fill="white" stroke="gray" stroke-width="0.080" fill-opacity="0.85"/>
<rect x="12.000" y="19.000" width="4.800" height="6.000" fill="white" stroke="gray" stroke-width="0.080" fill-opacity="0.85"/>
<rect x="16.800" y="19.000" width="4.800" height="6.000" fill="white" stroke="gray" stroke-width="0.080" fill-opacity="0.85"/>
<rect x="21.600" y="19.000" width="4.800" height="6.000" fill="white" stroke="gray" stroke-width="0.080" fill-opacity="0.85"/>
<rect x="26.400" y="19.000" width="4.800" height="6.000" fill="white" stroke="gray" stroke-width="0.080" fill-opacity="0.85"/>
<rect x="31.200" y="19.000" width="4.800" height="6.000" fill="black" stroke="gray" stroke-width="0.080" fill-opacity="0.95"/>
<rect x="36.000" y="19.000" width="4.800" height="6.000" fill="white" stroke="gray" stroke-width="0.080" fill-opacity="0.85"/>
<rect x="40.800" y="19.000" width="4.800" height="6.000" fill="white" stroke="gray" stroke-width="0.080" fill-opacity="0.85"/>
<rect x="45.600" y="19.000" width="4.800" height="6.000" fill="white" stroke="gray" stroke-width="0.080" fill-opacity="0.85"/>
<rect x="50.400" y="19.000" width="4.800" height="6.000" fill="black" stroke="gray" stroke-width="0.080" fill-opacity="0.95"/>
<rect x="55.200" y="19.000" width="4.800" height="6.000" fill="white" stroke="gray" stroke-width="0.080" fill-opacity="0.85"/>
<rect x="12.000" y="0.000" width="4.800" height="6.000" fill="white" stroke="gray" stroke-width="0.080" fill-opacity="0.85"/>
<rect x="16.800" y="0.000" width="4.800" height="6.000" fill="white" stroke="gray" stroke-width="0.080" fill-opacity="0.85"/>
<rect x="21.600" y="0.000" width="4.800" height="6.000" fill="black" stroke="gray" stroke-width="0.080" fill-opacity="0.95"/>
<rect x="26.400" y="0.000" width="4.800" height="6.000" fill="white" stroke="gray" stroke-width="0.080" fill-opacity="0.85"/>
<rect x="31.200" y="0.000" width="4.800" height="6.000" fill="black" stroke="gray" stroke-width="0.080" fill-opacity="0.95"/>
<rect x="36.000" y="0.000" width="4.800" height="6.000" fill="white" stroke="gray" stroke-width="0.080" fill-opacity="0.85"/>
<rect x="40.800" y="0.000" width="4.800" height="6.000" fill="black" stroke="gray" stroke-width="0.080" fill-opacity="0.95"/>
<rect x="45.600" y="0.000" width="4.800" height="6.000" fill="white" stroke="gray" stroke-width="0.080" fill-opacity="0.85"/>
<rect x="50.400" y="0.000" width="4.800" height="6.000" fill="white" stroke="gray" stroke-width="0.080" fill-opacity="0.85"/>
<rect x="55.200" y="0.000" width="4.800" height="6.000" fill="white" stroke="gray" stroke-width="0.080" fill-opacity="0.85"/>
<polygon fill="none" stroke="navy" stroke-width="0.120" points="6.400,13.000 6.400,11.000 1.600,11.000 1.600,13.000"/>
<polygon fill="purple" points="55.020,37.500 55.300,37.850 55.580,37.500 55.300,37.150"/>
<circle cx="52.800" cy="37.500" r="0.38" fill="darkviolet" stroke="indigo" stroke-width="0.06"/>
<polyline fill="none" stroke="#808080" stroke-width="0.120" stroke-opacity="0.65" stroke-dasharray="0.45 0.35" points="4.000,12.000 4.000,12.120 58.124,12.120 58.307,12.124 58.491,12.137 58.673,12.159 58.854,12.190 59.033,12.229 59.210,12.276 59.385,12.332 59.557,12.396 59.726,12.468 59.891,12.549 60.052,12.637 60.209,12.732 60.361,12.835 60.508,12.945 60.649,13.062 60.785,13.185 60.915,13.315 61.038,13.451 61.155,13.592 61.265,13.739 61.368,13.891 61.463,14.048 61.551,14.209 61.632,14.374 61.704,14.543 61.768,14.715 61.824,14.890 61.871,15.067 61.910,15.246 61.941,15.427 61.963,15.609 61.976,15.793 61.980,15.976 61.980,34.294 61.975,34.480 61.958,34.666 61.931,34.850 61.894,35.033 61.845,35.213 61.787,35.390 61.718,35.564 61.639,35.733 61.550,35.897 61.453,36.056 61.346,36.208 61.230,36.355 61.106,36.494 60.974,36.626 60.835,36.750 60.688,36.866 60.536,36.973 60.377,37.070 60.213,37.159 60.044,37.238 59.870,37.307 59.693,37.365 59.513,37.414 59.330,37.451 59.146,37.478 58.960,37.495 58.774,37.500 55.300,37.500 48.000,37.500"/>
<polyline fill="none" stroke="#1f77b4" stroke-width="0.140" stroke-opacity="0.75" stroke-dasharray="0.45 0.35" points="48.000,37.500 52.800,37.500"/>
<polyline fill="none" stroke="#808080" stroke-width="0.120" stroke-opacity="0.65" stroke-dasharray="0.45 0.35" points="52.800,37.500 52.800,37.684 52.807,37.872 52.822,38.063 52.844,38.257 52.874,38.455 52.910,38.655 52.953,38.858 53.003,39.064 53.059,39.272 53.121,39.482 53.188,39.695 53.262,39.909 53.340,40.126 53.424,40.343 53.513,40.562 53.606,40.783 53.704,41.004 53.806,41.227 53.912,41.450 54.022,41.673 54.136,41.897 54.253,42.121 54.372,42.346 54.495,42.570 54.621,42.794 54.749,43.017 54.879,43.240 55.011,43.462 55.145,43.683 55.280,43.902 55.417,44.121 55.555,44.338 55.693,44.553 55.833,44.767 55.973,44.978 56.112,45.188 56.252,45.395 56.392,45.599 56.531,45.801 56.670,46.000 56.807,46.196 56.943,46.389 57.078,46.579 57.212,46.765 57.343,46.947 57.473,47.126 57.600,47.300"/>
<polyline fill="none" stroke="#1f77b4" stroke-width="0.220" stroke-opacity="0.95" points="4.008,12.000 4.022,12.000 4.043,12.000 4.070,12.000 4.102,12.000 4.138,12.000 4.179,12.001 4.223,12.001 4.270,12.002 4.321,12.003 4.374,12.003 4.429,12.005 4.487,12.006 4.547,12.007 4.609,12.009 4.672,12.011 4.736,12.013 4.802,12.015 4.869,12.017 4.937,12.019 5.006,12.022 5.076,12.024 5.146,12.027 5.218,12.030 5.290,12.033 5.362,12.035 5.435,12.038 5.508,12.041 5.582,12.044 5.656,12.047 5.731,12.050 5.806,12.053 5.881,12.056 5.956,12.059 6.031,12.062 6.107,12.065 6.183,12.068 6.259,12.071 6.335,12.073 6.411,12.076 6.488,12.079 6.564,12.081 6.641,12.083 6.718,12.086 6.795,12.088 6.871,12.090 6.948,12.092 7.025,12.095 7.102,12.096 7.179,12.098 7.257,12.100 7.334,12.102 7.411,12.104 7.488,12.105 7.565,12.107 7.643,12.108 7.720,12.109 7.797,12.111 7.875,12.112 7.952,12.113 8.029,12.114 8.107,12.115 8.184,12.116 8.261,12.117 8.339,12.118 8.416,12.118 8.494,12.119 8.571,12.120 8.649,12.120 8.726,12.121 8.804,12.121 8.881,12.122 8.958,12.122 9.036,12.123 9.113,12.123 9.191,12.123 9.268,12.123 9.346,12.124 9.423,12.124 9.501,12.124 9.578,12.124 9.656,12.124 9.733,12.124 9.811,12.124 9.888,12.125 9.966,12.125 10.043,12.125 10.121,12.125 10.198,12.125 10.276,12.125 10.353,12.124 10.431,12.124 10.508,12.124 10.586,12.124 10.663,12.124 10.741,12.124 10.818,12.124 10.896,12.124 10.973,12.124 11.051,12.124 11.128,12.124 11.206,12.124 11.283,12.123 11.361,12.123 11.438,12.123 11.516,12.123 11.593,12.123 11.671,12.123 11.748,12.123 11.826,12.123 11.903,12.122 11.981,12.122 12.058,12.122 12.136,12.122 12.213,12.122 12.291,12.122 12.368,12.122 12.446,12.122 12.523,12.122 12.601,12.121 12.678,12.121 12.756,12.121 12.833,12.121 12.911,12.121 12.988,12.121 13.066,12.121 13.143,12.121 13.221,12.121 13.298,12.121 13.376,12.121 13.453,12.121 13.531,12.121 13.608,12.120 13.686,12.120 13.763,12.120 13.841,12.120 13.918,12.120 13.996,12.120 14.073,12.120 14.151,12.120 14.228,12.120 14.306,12.120 14.383,12.120 14.461,12.120 14.538,12.120 14.616,12.120 14.693,12.120 14.771,12.120 14.848,12.120 14.926,12.120 15.003,12.120 15.081,12.120 15.158,12.120 15.236,12.120 15.313,12.120 15.391,12.120 15.468,12.120 15.546,12.120 15.623,12.120 15.701,12.120 15.778,12.120 15.856,12.120 15.933,12.120 16.011,12.120 16.088,12.120 16.166,12.120 16.243,12.120 16.321,12.120 16.398,12.120 16.476,12.120 16.553,12.120 16.631,12.120 16.708,12.120 16.786,12.120 16.863,12.120 16.941,12.120 17.018,12.120 17.096,12.120 17.173,12.120 17.251,12.120 17.328,12.120 17.406,12.120 17.483,12.120 17.561,12.120 17.638,12.120 17.716,12.120 17.793,12.120 17.871,12.120 17.948,12.120 18.026,12.120 18.103,12.120 18.181,12.120 18.258,12.120 18.336,12.120 18.413,12.120 18.491,12.120 18.568,12.120 18.646,12.120 18.723,12.120 18.801,12.120 18.878,12.120 18.956,12.120 19.033,12.120 19.111,12.120 19.188,12.120 19.266,12.120 19.343,12.120 19.421,12.120 19.498,12.120 19.576,12.120 19.653,12.120 19.731,12.120 19.808,12.120 19.886,12.120 19.963,12.120 20.041,12.120 20.118,12.120 20.196,12.120 20.273,12.120 20.351,12.120 20.428,12.120 20.506,12.120 20.583,12.120 20.661,12.120 20.738,12.120 20.816,12.120 20.893,12.120 20.971,12.120 21.048,12.120 21.126,12.120 21.203,12.120 21.281,12.120 21.358,12.120 21.436,12.120 21.513,12.120 21.591,12.120 21.668,12.120 21.746,12.120 21.823,12.120 21.901,12.120 21.978,12.120 22.056,12.120 22.133,12.120 22.211,12.120 22.288,12.120 22.366,12.120 22.443,12.120 22.521,12.120 22.598,12.120 22.676,12.120 22.753,12.120 22.831,12.120 22.908,12.120 22.986,12.120 23.063,12.120 23.141,12.120 23.218,12.120 23.296,12.120 23.373,12.120 23.451,12.120 23.528,12.120 23.606,12.120 23.683,12.120 23.761,12.120 23.838,12.120 23.916,12.120 23.993,12.120 24.071,12.120 24.148,12.120 24.226,12.120 24.303,12.120 24.381,12.120 24.458,12.120 24.536,12.120 24.613,12.120 24.691,12.120 24.768,12.120 24.846,12.120 24.923,12.120 25.001,12.120 25.078,12.120 25.156,12.120 25.233,12.120 25.311,12.120 25.388,12.120 25.466,12.120 25.543,12.120 25.621,12.120 25.698,12.120 25.776,12.120 25.853,12.120 25.931,12.120 26.008,12.120 26.086,12.120 26.163,12.120 26.241,12.120 26.318,12.120 26.396,12.120 26.473,12.120 26.551,12.120 26.628,12.120 26.706,12.120 26.783,12.120 26.861,12.120 26.938,12.120 27.016,12.120 27.093,12.120 27.171,12.120 27.248,12.120 27.326,12.120 27.403,12.120 27.481,12.120 27.558,12.120 27.636,12.120 27.713,12.120 27.791,12.120 27.868,12.120 27.946,12.120 28.023,12.120 28.101,12.120 28.178,12.120 28.256,12.120 28.333,12.120 28.411,12.120 28.488,12.120 28.566,12.120 28.643,12.120 28.721,12.120 28.798,12.120 28.876,12.120 28.953,12.120 29.031,12.120 29.108,12.120 29.186,12.120 29.263,12.120 29.341,12.120 29.418,12.120 29.496,12.120 29.573,12.120 29.651,12.120 29.728,12.120 29.806,12.120 29.883,12.120 29.961,12.120 30.038,12.120 30.116,12.120 30.193,12.120 30.271,12.120 30.348,12.120 30.426,12.120 30.503,12.120 30.581,12.120 30.658,12.120 30.736,12.120 30.813,12.120 30.891,12.120 30.968,12.120 31.046,12.120 31.123,12.120 31.201,12.120 31.278,12.120 31.356,12.120 31.433,12.120 31.511,12.120 31.588,12.120 31.666,12.120 31.743,12.120 31.821,12.120 31.898,12.120 31.976,12.120 32.053,12.120 32.131,12.120 32.208,12.120 32.286,12.120 32.363,12.120 32.441,12.120 32.518,12.120 32.596,12.120 32.673,12.120 32.751,12.120 32.828,12.120 32.906,12.120 32.983,12.120 33.061,12.120 33.138,12.120 33.216,12.120 33.293,12.120 33.371,12.120 33.448,12.120 33.526,12.120 33.603,12.120 33.681,12.120 33.758,12.120 33.836,12.120 33.913,12.120 33.991,12.120 34.068,12.120 34.146,12.120 34.223,12.120 34.301,12.120 34.378,12.120 34.456,12.120 34.533,12.120 34.611,12.120 34.688,12.120 34.766,12.120 34.843,12.120 34.921,12.120 34.998,12.120 35.076,12.120 35.153,12.120 35.231,12.120 35.308,12.120 35.386,12.120 35.463,12.120 35.541,12.120 35.618,12.120 35.696,12.120 35.773,12.120 35.851,12.120 35.928,12.120 36.006,12.120 36.083,12.120 36.161,12.120 36.238,12.120 36.316,12.120 36.393,12.120 36.471,12.120 36.548,12.120 36.626,12.120 36.703,12.120 36.781,12.120 36.858,12.120 36.936,12.120 37.013,12.120 37.091,12.120 37.168,12.120 37.246,12.120 37.323,12.120 37.401,12.120 37.478,12.120 37.556,12.120 37.633,12.120 37.711,12.120 37.788,12.120 37.866,12.120 37.943,12.120 38.021,12.120 38.098,12.120 38.176,12.120 38.253,12.120 38.331,12.120 38.408,12.120 38.486,12.120 38.563,12.120 38.641,12.120 38.718,12.120 38.796,12.120 38.873,12.120 38.951,12.120 39.028,12.120 39.106,12.120 39.183,12.120 39.261,12.120 39.338,12.120 39.416,12.120 39.493,12.120 39.571,12.120 39.648,12.120 39.726,12.120 39.803,12.120 39.881,12.120 39.958,12.120 40.036,12.120 40.113,12.120 40.191,12.120 40.268,12.120 40.346,12.120 40.423,12.120 40.501,12.120 40.578,12.120 40.656,12.120 40.733,12.120 40.811,12.120 40.888,12.120 40.966,12.120 41.043,12.120 41.121,12.120 41.198,12.120 41.276,12.120 41.353,12.120 41.431,12.120 41.508,12.120 41.586,12.120 41.663,12.120 41.741,12.120 41.818,12.120 41.896,12.120 41.973,12.120 42.051,12.120 42.128,12.120 42.206,12.120 42.283,12.120 42.361,12.120 42.438,12.120 42.516,12.120 42.593,12.120 42.671,12.120 42.748,12.120 42.826,12.120 42.903,12.120 42.981,12.120 43.058,12.120 43.136,12.120 43.213,12.120 43.291,12.120 43.368,12.120 43.446,12.120 43.523,12.120 43.601,12.120 43.678,12.120 43.756,12.120 43.833,12.120 43.911,12.120 43.988,12.120 44.066,12.120 44.143,12.120 44.221,12.120 44.298,12.120 44.376,12.120 44.453,12.120 44.531,12.120 44.608,12.120 44.686,12.120 44.763,12.120 44.841,12.120 44.918,12.120 44.996,12.120 45.073,12.120 45.151,12.120 45.228,12.120 45.306,12.120 45.383,12.120 45.461,12.120 45.538,12.120 45.616,12.120 45.693,12.120 45.771,12.120 45.848,12.120 45.926,12.120 46.003,12.120 46.081,12.120 46.158,12.120 46.236,12.120 46.313,12.120 46.391,12.120 46.468,12.120 46.546,12.120 46.623,12.120 46.701,12.120 46.778,12.120 46.856,12.120 46.933,12.120 47.011,12.120 47.088,12.120 47.166,12.120 47.243,12.120 47.321,12.120 47.398,12.120 47.476,12.120 47.553,12.120 47.631,12.120 47.708,12.120 47.786,12.120 47.863,12.120 47.941,12.120 48.018,12.120 48.096,12.120 48.173,12.120 48.251,12.120 48.328,12.120 48.406,12.120 48.483,12.120 48.561,12.120 48.638,12.120 48.716,12.120 48.793,12.120 48.871,12.120 48.948,12.120 49.026,12.120 49.103,12.120 49.181,12.120 49.258,12.120 49.336,12.120 49.413,12.120 49.491,12.120 49.568,12.120 49.646,12.120 49.723,12.120 49.801,12.120 49.878,12.120 49.956,12.120 50.033,12.120 50.111,12.120 50.188,12.120 50.266,12.120 50.343,12.120 50.421,12.120 50.498,12.120 50.576,12.120 50.653,12.120 50.731,12.120 50.808,12.120 50.886,12.120 50.963,12.120 51.041,12.120 51.118,12.120 51.196,12.120 51.273,12.120 51.351,12.120 51.428,12.120 51.506,12.120 51.583,12.120 51.661,12.120 51.738,12.120 51.816,12.120 51.893,12.120 51.971,12.120 52.048,12.120 52.126,12.120 52.203,12.120 52.281,12.120 52.358,12.120 52.436,12.120 52.513,12.120 52.591,12.120 52.668,12.120 52.746,12.120 52.823,12.120 52.901,12.120 52.978,12.120 53.056,12.120 53.133,12.120 53.211,12.120 53.288,12.120 53.366,12.120 53.443,12.120 53.521,12.120 53.598,12.120 53.676,12.120 53.753,12.120 53.831,12.120 53.908,12.120 53.986,12.120 54.063,12.120 54.141,12.120 54.218,12.120 54.296,12.120 54.373,12.120 54.451,12.120 54.528,12.120 54.606,12.120 54.683,12.120 54.761,12.120 54.838,12.120 54.916,12.120 54.993,12.120 55.071,12.120 55.148,12.120 55.226,12.120 55.303,12.120 55.381,12.120 55.458,12.120 55.536,12.120 55.613,12.120 55.691,12.120 55.768,12.120 55.846,12.120 55.923,12.120 56.001,12.120 56.078,12.120 56.156,12.120 56.233,12.120 56.311,12.120 56.388,12.120 56.466,12.120 56.543,12.120 56.621,12.120 56.698,12.120 56.776,12.120 56.853,12.121 56.931,12.121 57.008,12.122 57.086,12.123 57.163,12.124 57.241,12.125 57.318,12.126 57.396,12.128 57.473,12.131 57.550,12.133 57.628,12.137 57.705,12.140 57.783,12.145 57.860,12.150 57.937,12.155 58.015,12.161 58.092,12.168 58.169,12.176 58.246,12.184 58.323,12.194 58.400,12.204 58.476,12.215 58.553,12.227 58.629,12.240 58.706,12.254 58.782,12.269 58.857,12.285 58.933,12.303 59.008,12.321 59.083,12.341 59.158,12.361 59.232,12.383 59.306,12.407 59.380,12.431 59.453,12.457 59.525,12.484 59.598,12.512 59.669,12.542 59.740,12.573 59.811,12.605 59.881,12.639 59.950,12.674 60.018,12.710 60.086,12.747 60.153,12.786 60.219,12.827 60.285,12.868 60.349,12.911 60.413,12.955 60.476,13.000 60.538,13.047 60.599,13.095 60.659,13.144 60.718,13.194 60.776,13.245 60.833,13.298 60.889,13.352 60.943,13.407 60.997,13.462 61.050,13.519 61.101,13.577 61.151,13.636 61.200,13.696 61.248,13.757 61.295,13.819 61.340,13.882 61.384,13.946 61.427,14.011 61.468,14.076 61.508,14.142 61.547,14.210 61.584,14.277 61.621,14.346 61.655,14.415 61.688,14.485 61.720,14.556 61.751,14.627 61.780,14.699 61.807,14.772 61.833,14.845 61.858,14.918 61.881,14.992 61.903,15.067 61.923,15.141 61.942,15.217 61.959,15.292 61.975,15.368 61.990,15.444 62.004,15.520 62.016,15.597 62.028,15.673 62.038,15.750 62.047,15.827 62.056,15.904 62.063,15.981 62.070,16.058 62.076,16.136 62.081,16.213 62.085,16.290 62.088,16.368 62.091,16.445 62.094,16.523 62.096,16.600 62.097,16.678 62.098,16.755 62.098,16.833 62.098,16.910 62.097,16.988 62.097,17.065 62.096,17.143 62.094,17.220 62.093,17.298 62.091,17.375 62.089,17.453 62.086,17.530 62.084,17.608 62.081,17.685 62.078,17.762 62.076,17.840 62.073,17.917 62.070,17.995 62.067,18.072 62.064,18.150 62.061,18.227 62.057,18.305 62.054,18.382 62.051,18.459 62.048,18.537 62.045,18.614 62.042,18.692 62.039,18.769 62.036,18.847 62.033,18.924 62.031,19.002 62.028,19.079 62.025,19.156 62.022,19.234 62.020,19.311 62.017,19.389 62.015,19.466 62.013,19.544 62.010,19.621 62.008,19.699 62.006,19.776 62.004,19.854 62.002,19.931 62.001,20.009 61.999,20.086 61.997,20.164 61.995,20.241 61.994,20.319 61.993,20.396 61.991,20.474 61.990,20.551 61.989,20.628 61.988,20.706 61.986,20.783 61.985,20.861 61.984,20.938 61.984,21.016 61.983,21.093 61.982,21.171 61.981,21.248 61.981,21.326 61.980,21.403 61.979,21.481 61.979,21.558 61.978,21.636 61.978,21.713 61.978,21.791 61.977,21.868 61.977,21.946 61.977,22.023 61.976,22.101 61.976,22.178 61.976,22.256 61.976,22.333 61.976,22.411 61.976,22.488 61.976,22.566 61.976,22.643 61.976,22.721 61.975,22.798 61.975,22.876 61.975,22.953 61.976,23.031 61.976,23.108 61.976,23.186 61.976,23.263 61.976,23.341 61.976,23.418 61.976,23.496 61.976,23.573 61.976,23.651 61.976,23.728 61.976,23.806 61.976,23.883 61.976,23.961 61.977,24.038 61.977,24.116 61.977,24.193 61.977,24.271 61.977,24.348 61.977,24.426 61.977,24.503 61.977,24.581 61.978,24.658 61.978,24.736 61.978,24.813 61.978,24.891 61.978,24.968 61.978,25.046 61.978,25.123 61.978,25.201 61.978,25.278 61.979,25.356 61.979,25.433 61.979,25.511 61.979,25.588 61.979,25.666 61.979,25.743 61.979,25.821 61.979,25.898 61.979,25.976 61.979,26.053 61.979,26.131 61.979,26.208 61.979,26.286 61.979,26.363 61.980,26.441 61.980,26.518 61.980,26.596 61.980,26.673 61.980,26.751 61.980,26.828 61.980,26.906 61.980,26.983 61.980,27.061 61.980,27.138 61.980,27.216 61.980,27.293 61.980,27.371 61.980,27.448 61.980,27.526 61.980,27.603 61.980,27.681 61.980,27.758 61.980,27.836 61.980,27.913 61.980,27.991 61.980,28.068 61.980,28.146 61.980,28.223 61.980,28.301 61.980,28.378 61.980,28.456 61.980,28.533 61.980,28.611 61.980,28.688 61.980,28.766 61.980,28.843 61.980,28.921 61.980,28.998 61.980,29.076 61.980,29.153 61.980,29.231 61.980,29.308 61.980,29.386 61.980,29.463 61.980,29.541 61.980,29.618 61.980,29.696 61.980,29.773 61.980,29.851 61.980,29.928 61.980,30.006 61.980,30.083 61.980,30.161 61.980,30.238 61.980,30.316 61.980,30.393 61.980,30.471 61.980,30.548 61.980,30.626 61.980,30.703 61.980,30.781 61.980,30.858 61.980,30.936 61.980,31.013 61.980,31.091 61.980,31.168 61.980,31.246 61.980,31.323 61.980,31.401 61.980,31.478 61.980,31.556 61.980,31.633 61.980,31.711 61.980,31.788 61.980,31.866 61.980,31.943 61.980,32.021 61.980,32.098 61.980,32.176 61.980,32.253 61.980,32.331 61.980,32.408 61.980,32.486 61.980,32.563 61.980,32.641 61.980,32.718 61.980,32.796 61.980,32.873 61.979,32.951 61.979,33.028 61.979,33.106 61.978,33.183 61.977,33.261 61.976,33.338 61.974,33.416 61.972,33.493 61.970,33.571 61.967,33.648 61.964,33.726 61.960,33.803 61.956,33.880 61.951,33.958 61.945,34.035 61.938,34.112 61.931,34.189 61.923,34.267 61.913,34.343 61.903,34.420 61.892,34.497 61.879,34.573 61.866,34.650 61.851,34.726 61.835,34.802 61.818,34.877 61.800,34.953 61.780,35.028 61.759,35.102 61.736,35.176 61.713,35.250 61.687,35.323 61.661,35.396 61.633,35.468 61.603,35.540 61.572,35.611 61.540,35.681 61.506,35.751 61.471,35.820 61.434,35.889 61.396,35.956 61.357,36.023 61.316,36.089 61.274,36.154 61.231,36.218 61.186,36.282 61.141,36.344 61.094,36.406 61.045,36.467 60.996,36.526 60.945,36.585 60.893,36.642 60.840,36.699 60.786,36.754 60.731,36.809 60.675,36.862 60.617,36.914 60.559,36.965 60.500,37.015 60.439,37.063 60.378,37.111 60.315,37.157 60.252,37.202 60.188,37.245 60.123,37.288 60.057,37.329 59.991,37.368 59.923,37.406 59.855,37.443 59.786,37.479 59.717,37.513 59.647,37.546 59.576,37.577 59.504,37.607 59.432,37.635 59.359,37.662 59.286,37.688 59.213,37.712 59.138,37.734 59.064,37.756 58.989,37.775 58.913,37.793 58.838,37.810 58.762,37.825 58.685,37.838 58.609,37.850 58.532,37.861 58.455,37.869 58.378,37.877 58.301,37.882 58.223,37.887 58.146,37.889 58.068,37.890 57.991,37.890 57.913,37.889 57.836,37.886 57.758,37.883 57.681,37.878 57.604,37.872 57.527,37.866 57.449,37.859 57.372,37.851 57.295,37.843 57.218,37.834 57.141,37.825 57.064,37.816 56.987,37.806 56.911,37.796 56.834,37.786 56.757,37.776 56.680,37.766 56.603,37.755 56.526,37.745 56.450,37.735 56.373,37.725 56.296,37.714 56.219,37.704 56.142,37.695 56.065,37.685 55.988,37.675 55.911,37.666 55.835,37.657 55.758,37.648 55.681,37.639 55.603,37.631 55.526,37.623 55.449,37.615 55.372,37.607 55.295,37.600 55.218,37.593 55.141,37.586 55.063,37.579 54.986,37.573 54.909,37.567 54.832,37.561 54.754,37.556 54.677,37.550 54.600,37.546 54.522,37.541 54.445,37.536 54.368,37.532 54.290,37.528 54.213,37.524 54.135,37.521 54.058,37.517 53.980,37.514 53.903,37.511 53.826,37.509 53.748,37.506 53.671,37.504 53.593,37.502 53.516,37.500 53.438,37.498 53.361,37.496 53.283,37.495 53.206,37.493 53.128,37.492 53.051,37.491 52.973,37.490 52.896,37.489 52.818,37.488 52.741,37.487 52.663,37.487 52.586,37.486 52.508,37.486 52.431,37.486 52.353,37.485 52.276,37.485 52.198,37.485 52.121,37.485 52.043,37.485 51.966,37.485 51.888,37.485 51.811,37.485 51.734,37.485 51.658,37.486 51.582,37.486 51.507,37.486 51.432,37.486 51.359,37.487 51.286,37.487 51.214,37.487 51.143,37.488 51.073,37.488 51.004,37.489 50.936,37.489 50.869,37.489 50.804,37.490 50.739,37.490 50.676,37.491 50.614,37.491 50.553,37.491 50.493,37.492 50.434,37.492 50.376,37.492 50.320,37.493 50.265,37.493 50.211,37.494 50.158,37.494 50.106,37.494 50.055,37.495 50.005,37.495 49.957,37.495 49.909,37.495 49.863,37.496 49.817,37.496 49.773,37.496 49.729,37.496 49.687,37.497 49.646,37.497 49.605,37.497 49.566,37.497 49.527,37.497 49.489,37.498 49.452,37.498 49.416,37.498 49.381,37.498 49.347,37.498 49.314,37.498 49.281,37.498 49.249,37.498 49.218,37.499 49.188,37.499 49.158,37.499 49.129,37.499 49.101,37.499 49.073,37.499 49.046,37.499 49.020,37.499 48.995,37.499 48.970,37.499 48.946,37.499 48.922,37.499 48.899,37.499 48.876,37.499 48.854,37.499 48.833,37.500 48.811,37.500 48.790,37.500 48.770,37.500 48.750,37.500 48.730,37.500 48.710,37.500 48.691,37.500 48.672,37.500 48.652,37.500 48.633,37.500 48.615,37.500 48.596,37.500 48.578,37.500 48.559,37.500 48.541,37.500"/>
<polyline fill="none" stroke="#1f77b4" stroke-width="0.240" stroke-opacity="0.95" points="48.544,37.500 48.550,37.500 48.559,37.500 48.570,37.500 48.583,37.500 48.599,37.500 48.616,37.500 48.634,37.500 48.654,37.500 48.675,37.500 48.698,37.500 48.721,37.500 48.745,37.500 48.770,37.500 48.796,37.500 48.822,37.500 48.849,37.500 48.877,37.500 48.905,37.500 48.933,37.500 48.962,37.500 48.991,37.500 49.020,37.500 49.049,37.500 49.079,37.500 49.108,37.500 49.138,37.500 49.167,37.500 49.197,37.500 49.226,37.500 49.256,37.500 49.285,37.500 49.315,37.500 49.344,37.500 49.373,37.500 49.402,37.500 49.431,37.500 49.460,37.500 49.488,37.500 49.516,37.500 49.545,37.500 49.573,37.500 49.601,37.500 49.628,37.500 49.656,37.500 49.683,37.500 49.710,37.500 49.737,37.500 49.764,37.500 49.790,37.500 49.816,37.500 49.842,37.500 49.868,37.500 49.894,37.500 49.919,37.500 49.945,37.500 49.970,37.500 49.995,37.500 50.019,37.500 50.044,37.500 50.068,37.500 50.092,37.500 50.116,37.500 50.139,37.500 50.163,37.500 50.186,37.500 50.209,37.500 50.232,37.500 50.255,37.500 50.277,37.500 50.299,37.500 50.321,37.500 50.343,37.500 50.365,37.500 50.386,37.500 50.408,37.500 50.429,37.500 50.450,37.500 50.470,37.500 50.491,37.500 50.511,37.500 50.532,37.500 50.552,37.500 50.571,37.500 50.591,37.500 50.611,37.500 50.630,37.500 50.649,37.500 50.668,37.500 50.687,37.500 50.706,37.500 50.724,37.500 50.743,37.500 50.761,37.500 50.779,37.500 50.798,37.500 50.816,37.500 50.834,37.500 50.852,37.500 50.870,37.500 50.888,37.500 50.906,37.500 50.923,37.500 50.941,37.500 50.959,37.500 50.977,37.500 50.994,37.500 51.012,37.500 51.030,37.500 51.048,37.500 51.065,37.500 51.083,37.500 51.100,37.500 51.118,37.500 51.136,37.500 51.153,37.500 51.171,37.500 51.188,37.500 51.206,37.500 51.223,37.500 51.241,37.500 51.259,37.500 51.276,37.500 51.294,37.500 51.311,37.500 51.329,37.500 51.346,37.500 51.364,37.500 51.381,37.500 51.399,37.500 51.416,37.500 51.434,37.500 51.451,37.500 51.469,37.500 51.486,37.500 51.504,37.500 51.521,37.500 51.539,37.500 51.556,37.500 51.574,37.500 51.591,37.500 51.609,37.500 51.626,37.500 51.644,37.500 51.661,37.500 51.679,37.500 51.696,37.500 51.714,37.500 51.731,37.500 51.749,37.500 51.766,37.500 51.784,37.500 51.801,37.500 51.819,37.500 51.836,37.500 51.854,37.500 51.871,37.500 51.889,37.500 51.906,37.500 51.924,37.500 51.941,37.500 51.959,37.500 51.976,37.500 51.994,37.500 52.011,37.500 52.029,37.500 52.046,37.500 52.064,37.500 52.081,37.500 52.099,37.500 52.116,37.500 52.134,37.500 52.151,37.500 52.169,37.500 52.186,37.500 52.204,37.500 52.221,37.500 52.239,37.500 52.256,37.500 52.274,37.500 52.291,37.500 52.309,37.500 52.326,37.500 52.344,37.500 52.361,37.500 52.379,37.500 52.396,37.500 52.414,37.500 52.431,37.500 52.449,37.500 52.466,37.500 52.484,37.500 52.501,37.500 52.519,37.500 52.536,37.500 52.554,37.500 52.571,37.500 52.589,37.500 52.606,37.500 52.624,37.500 52.628,37.500 52.635,37.500 52.645,37.500 52.658,37.500 52.673,37.500 52.691,37.500 52.710,37.500 52.732,37.500 52.755,37.501 52.779,37.501 52.805,37.502"/>
<polyline fill="none" stroke="#ff7f0e" stroke-width="0.220" stroke-opacity="0.95" points="52.805,37.502 52.832,37.503 52.860,37.504 52.889,37.505 52.918,37.507 52.949,37.509 52.980,37.511 53.012,37.513 53.044,37.516 53.077,37.519 53.110,37.523 53.144,37.526 53.178,37.530 53.212,37.535 53.246,37.540 53.281,37.545 53.316,37.550 53.351,37.556 53.386,37.562 53.422,37.569 53.457,37.576 53.492,37.583 53.528,37.591 53.563,37.599 53.599,37.607 53.635,37.616 53.670,37.625 53.706,37.634 53.741,37.644 53.777,37.654 53.812,37.665 53.848,37.675 53.883,37.687 53.919,37.698 53.954,37.710 53.989,37.722 54.024,37.735 54.059,37.748 54.094,37.761 54.128,37.775 54.163,37.789 54.197,37.803 54.232,37.818 54.266,37.833 54.300,37.848 54.334,37.864 54.368,37.880 54.402,37.896 54.435,37.913 54.468,37.930 54.502,37.947 54.535,37.965 54.568,37.983 54.600,38.001 54.633,38.020 54.665,38.039 54.697,38.058 54.729,38.077 54.761,38.097 54.793,38.117 54.824,38.138 54.855,38.159 54.886,38.180 54.917,38.201 54.947,38.223 54.978,38.245 55.008,38.267 55.038,38.290 55.068,38.313 55.097,38.336 55.126,38.359 55.155,38.383 55.184,38.407 55.213,38.431 55.241,38.456 55.269,38.481 55.297,38.506 55.325,38.531 55.352,38.557 55.379,38.583 55.406,38.609 55.433,38.635 55.459,38.662 55.485,38.689 55.511,38.716 55.536,38.744 55.562,38.771 55.587,38.799 55.611,38.827 55.636,38.856 55.660,38.884 55.684,38.913 55.707,38.942 55.731,38.972 55.754,39.001 55.777,39.031 55.799,39.061 55.821,39.091 55.843,39.122 55.865,39.153 55.886,39.183 55.907,39.215 55.928,39.246 55.948,39.277 55.968,39.309 55.988,39.341 56.007,39.373 56.027,39.405 56.045,39.438 56.064,39.470 56.082,39.503 56.100,39.536 56.117,39.569 56.135,39.602 56.152,39.636 56.168,39.670 56.184,39.703 56.200,39.737 56.216,39.771 56.231,39.806 56.246,39.840 56.261,39.875 56.275,39.909 56.289,39.944 56.302,39.979 56.316,40.014 56.329,40.049 56.341,40.085 56.353,40.120 56.365,40.156 56.377,40.191 56.388,40.227 56.399,40.263 56.409,40.299 56.419,40.335 56.429,40.371 56.438,40.408 56.447,40.444 56.456,40.481 56.464,40.517 56.472,40.554 56.480,40.591 56.487,40.627 56.494,40.664 56.501,40.701 56.507,40.738 56.513,40.775 56.519,40.812 56.524,40.849 56.529,40.887 56.533,40.924 56.537,40.961 56.541,40.998 56.545,41.036 56.548,41.073 56.551,41.110 56.553,41.148 56.555,41.185 56.557,41.223 56.558,41.260 56.560,41.298 56.560,41.335 56.561,41.373 56.561,41.410 56.561,41.448 56.561,41.485 56.561,41.523 56.560,41.560 56.560,41.598 56.559,41.635 56.559,41.673 56.558,41.710 56.558,41.748 56.557,41.785 56.557,41.823 56.556,41.860 56.556,41.898 56.555,41.935 56.555,41.973 56.554,42.010 56.554,42.048 56.553,42.085 56.553,42.123 56.552,42.160 56.552,42.198 56.551,42.235 56.551,42.273 56.550,42.310 56.550,42.348 56.549,42.385 56.549,42.423 56.548,42.460 56.548,42.498 56.547,42.535 56.547,42.573 56.546,42.610 56.546,42.648 56.545,42.685 56.544,42.723 56.544,42.760 56.543,42.798 56.543,42.835 56.542,42.873 56.542,42.910 56.541,42.948 56.541,42.985 56.540,43.023 56.540,43.060 56.539,43.098 56.539,43.135 56.538,43.173 56.538,43.210 56.537,43.248 56.537,43.285 56.536,43.323 56.536,43.360 56.535,43.398 56.535,43.435 56.534,43.473 56.534,43.510 56.533,43.547 56.533,43.585 56.532,43.622 56.532,43.659 56.531,43.696 56.531,43.733 56.530,43.769 56.530,43.806 56.529,43.842 56.529,43.878 56.528,43.914 56.528,43.949 56.527,43.984 56.527,44.019 56.526,44.054 56.526,44.088 56.525,44.123 56.525,44.156 56.524,44.190 56.524,44.223 56.523,44.256 56.523,44.289 56.522,44.322 56.522,44.354 56.522,44.386 56.521,44.418 56.521,44.449 56.520,44.480 56.520,44.511 56.519,44.541 56.519,44.572 56.519,44.602 56.518,44.631 56.518,44.661 56.517,44.690 56.517,44.719 56.517,44.748 56.516,44.776 56.516,44.804 56.515,44.832 56.515,44.859 56.515,44.887 56.514,44.914 56.514,44.941 56.514,44.967 56.513,44.994 56.513,45.020 56.512,45.046 56.512,45.071 56.512,45.097 56.511,45.122 56.511,45.147 56.511,45.171 56.510,45.196 56.510,45.220 56.510,45.244 56.509,45.268 56.509,45.291 56.509,45.315 56.508,45.338 56.508,45.361 56.508,45.384 56.508,45.406 56.507,45.428 56.507,45.451 56.507,45.472 56.506,45.494 56.506,45.516 56.506,45.537 56.505,45.558 56.505,45.579 56.505,45.600 56.505,45.621 56.504,45.641 56.504,45.661 56.504,45.681 56.503,45.701 56.503,45.721 56.503,45.740 56.503,45.760 56.502,45.779 56.502,45.798 56.502,45.817 56.502,45.836 56.501,45.854 56.501,45.873 56.501,45.891 56.501,45.910 56.500,45.928 56.500,45.946 56.500,45.964 56.500,45.982 56.499,46.000 56.499,46.018 56.499,46.036 56.499,46.054 56.498,46.072 56.498,46.089 56.498,46.107 56.498,46.125 56.497,46.143 56.497,46.160 56.497,46.178 56.497,46.196 56.496,46.213 56.496,46.231 56.496,46.249 56.496,46.266 56.495,46.284 56.495,46.301 56.495,46.319 56.495,46.336 56.494,46.354 56.494,46.372 56.494,46.389 56.494,46.407 56.494,46.424 56.493,46.442 56.493,46.459 56.493,46.477 56.493,46.494 56.492,46.512 56.492,46.529 56.492,46.547 56.492,46.564 56.491,46.582 56.491,46.599 56.491,46.617 56.491,46.634 56.490,46.652 56.490,46.669 56.490,46.687 56.490,46.704 56.489,46.722 56.489,46.739 56.489,46.757 56.489,46.774 56.488,46.792 56.488,46.809 56.488,46.827 56.488,46.844 56.487,46.862 56.487,46.879 56.487,46.897 56.487,46.914 56.487,46.932 56.486,46.949 56.486,46.967 56.486,46.984 56.486,47.002 56.485,47.019 56.485,47.037 56.485,47.054 56.485,47.072 56.484,47.089 56.484,47.107 56.484,47.124 56.484,47.142 56.483,47.159 56.483,47.177 56.483,47.194 56.483,47.212 56.482,47.229 56.482,47.247 56.482,47.264 56.482,47.282 56.481,47.299 56.481,47.317 56.481,47.334 56.481,47.352 56.481,47.369 56.480,47.387 56.480,47.404 56.480,47.422 56.480,47.439 56.479,47.457 56.479,47.474 56.479,47.492 56.479,47.509 56.478,47.527 56.478,47.544 56.478,47.562 56.478,47.579 56.477,47.597 56.477,47.614 56.477,47.632 56.477,47.649 56.476,47.667 56.476,47.684 56.476,47.702 56.476,47.719 56.475,47.737 56.475,47.754 56.475,47.772 56.475,47.789 56.474,47.807 56.474,47.824 56.474,47.842 56.474,47.859 56.474,47.877 56.473,47.894 56.473,47.912 56.473,47.929 56.473,47.947 56.472,47.964 56.472,47.982 56.472,47.999 56.472,48.017 56.471,48.034 56.471,48.052 56.471,48.069 56.471,48.087 56.470,48.104 56.470,48.122 56.470,48.139 56.470,48.157 56.469,48.174 56.469,48.192 56.469,48.209 56.469,48.227 56.468,48.244 56.468,48.262 56.468,48.279 56.468,48.297 56.468,48.314 56.467,48.332 56.467,48.349 56.467,48.367 56.467,48.384 56.466,48.402 56.466,48.419 56.466,48.437 56.466,48.454 56.465,48.472 56.465,48.489 56.465,48.507 56.465,48.524 56.464,48.542 56.464,48.559 56.464,48.577 56.464,48.594 56.463,48.612 56.463,48.629 56.463,48.647 56.463,48.664 56.462,48.682 56.462,48.699 56.462,48.717 56.462,48.734 56.461,48.752 56.461,48.769 56.461,48.787 56.461,48.804 56.461,48.822 56.460,48.839 56.460,48.857 56.460,48.875 56.460,48.892 56.459,48.910 56.459,48.928 56.459,48.946 56.459,48.964 56.458,48.982 56.458,49.000 56.458,49.018 56.458,49.037 56.457,49.055 56.457,49.074 56.457,49.093 56.457,49.112 56.456,49.130 56.456,49.150 56.456,49.169 56.455,49.188 56.455,49.208 56.455,49.227 56.455,49.247 56.454,49.267 56.454,49.287 56.454,49.307 56.454,49.328 56.453,49.348 56.453,49.369 56.453,49.390 56.452,49.410 56.452,49.432 56.452,49.453 56.452,49.474 56.451,49.496 56.451,49.518 56.451,49.540 56.450,49.562 56.450,49.584 56.450,49.606 56.449,49.629 56.449,49.652 56.449,49.675 56.448,49.698 56.448,49.721 56.448,49.745 56.447,49.768 56.447,49.792 56.447,49.816 56.446,49.840 56.446,49.865 56.446,49.889 56.445,49.914 56.445,49.939 56.445,49.965 56.444,49.990 56.444,50.016 56.444,50.041 56.443,50.067 56.443,50.094 56.443,50.120 56.442,50.147 56.442,50.174 56.442,50.201 56.441,50.228 56.441,50.256 56.440,50.283 56.440,50.311 56.440,50.340 56.439,50.368 56.439,50.397 56.438,50.426 56.438,50.455 56.438,50.484 56.437,50.514 56.437,50.544 56.436,50.574 56.436,50.604 56.436,50.635 56.435,50.665 56.435,50.697 56.434,50.728 56.434,50.760 56.433,50.791 56.433,50.824 56.433,50.856 56.432,50.889 56.432,50.922 56.431,50.955 56.431,50.988 56.430,51.022 56.430,51.056 56.429,51.090 56.429,51.125 56.428,51.160 56.428,51.195 56.427,51.231 56.427,51.266 56.426,51.302 56.426,51.338 56.425,51.374 56.425,51.410 56.424,51.447 56.424,51.483 56.423,51.520 56.423,51.556 56.422,51.593 56.422,51.630 56.421,51.667 56.421,51.704 56.420,51.741 56.420,51.778 56.419,51.815 56.419,51.852 56.418,51.889 56.418,51.927"/>
<polygon fill="#1f77b4" fill-opacity="0.140" stroke="#1f77b4" stroke-opacity="0.55" stroke-width="0.07" points="6.408,13.000 6.408,11.000 1.608,11.000 1.608,13.000"/>
<polygon fill="#1f77b4" fill-opacity="0.140" stroke="#1f77b4" stroke-opacity="0.55" stroke-width="0.07" points="7.233,13.100 7.302,11.101 2.505,10.934 2.436,12.932"/>
<polygon fill="#1f77b4" fill-opacity="0.140" stroke="#1f77b4" stroke-opacity="0.55" stroke-width="0.07" points="8.545,13.155 8.618,11.156 3.821,10.981 3.748,12.980"/>
<polygon fill="#1f77b4" fill-opacity="0.140" stroke="#1f77b4" stroke-opacity="0.55" stroke-width="0.07" points="9.947,13.150 9.983,11.151 5.184,11.063 5.147,13.063"/>
<polygon fill="#1f77b4" fill-opacity="0.140" stroke="#1f77b4" stroke-opacity="0.55" stroke-width="0.07" points="11.354,13.134 11.363,11.134 6.563,11.111 6.554,13.111"/>
<polygon fill="#1f77b4" fill-opacity="0.140" stroke="#1f77b4" stroke-opacity="0.55" stroke-width="0.07" points="12.754,13.123 12.753,11.123 7.953,11.126 7.954,13.126"/>
<polygon fill="#1f77b4" fill-opacity="0.140" stroke="#1f77b4" stroke-opacity="0.55" stroke-width="0.07" points="14.150,13.119 14.147,11.119 9.347,11.126 9.350,13.126"/>
<polygon fill="#1f77b4" fill-opacity="0.140" stroke="#1f77b4" stroke-opacity="0.55" stroke-width="0.07" points="15.544,13.119 15.542,11.119 10.742,11.123 10.744,13.123"/>
<polygon fill="#1f77b4" fill-opacity="0.140" stroke="#1f77b4" stroke-opacity="0.55" stroke-width="0.07" points="16.938,13.119 16.938,11.119 12.138,11.121 12.138,13.121"/>
<polygon fill="#1f77b4" fill-opacity="0.140" stroke="#1f77b4" stroke-opacity="0.55" stroke-width="0.07" points="18.333,13.120 18.333,11.120 13.533,11.120 13.533,13.120"/>
<polygon fill="#1f77b4" fill-opacity="0.140" stroke="#1f77b4" stroke-opacity="0.55" stroke-width="0.07" points="19.728,13.120 19.728,11.120 14.928,11.120 14.928,13.120"/>
<polygon fill="#1f77b4" fill-opacity="0.140" stroke="#1f77b4" stroke-opacity="0.55" stroke-width="0.07" points="21.123,13.120 21.123,11.120 16.323,11.120 16.323,13.120"/>
<polygon fill="#1f77b4" fill-opacity="0.140" stroke="#1f77b4" stroke-opacity="0.55" stroke-width="0.07" points="22.518,13.120 22.518,11.120 17.718,11.120 17.718,13.120"/>
<polygon fill="#1f77b4" fill-opacity="0.140" stroke="#1f77b4" stroke-opacity="0.55" stroke-width="0.07" points="23.913,13.120 23.913,11.120 19.113,11.120 19.113,13.120"/>
<polygon fill="#1f77b4" fill-opacity="0.140" stroke="#1f77b4" stroke-opacity="0.55" stroke-width="0.07" points="25.308,13.120 25.308,11.120 20.508,11.120 20.508,13.120"/>
<polygon fill="#1f77b4" fill-opacity="0.140" stroke="#1f77b4" stroke-opacity="0.55" stroke-width="0.07" points="26.703,13.120 26.703,11.120 21.903,11.120 21.903,13.120"/>
<polygon fill="#1f77b4" fill-opacity="0.140" stroke="#1f77b4" stroke-opacity="0.55" stroke-width="0.07" points="28.098,13.120 28.098,11.120 23.298,11.120 23.298,13.120"/>
<polygon fill="#1f77b4" fill-opacity="0.140" stroke="#1f77b4" stroke-opacity="0.55" stroke-width="0.07" points="29.493,13.120 29.493,11.120 24.693,11.120 24.693,13.120"/>
<polygon fill="#1f77b4" fill-opacity="0.140" stroke="#1f77b4" stroke-opacity="0.55" stroke-width="0.07" points="30.888,13.120 30.888,11.120 26.088,11.120 26.088,13.120"/>
<polygon fill="#1f77b4" fill-opacity="0.140" stroke="#1f77b4" stroke-opacity="0.55" stroke-width="0.07" points="32.283,13.120 32.283,11.120 27.483,11.120 27.483,13.120"/>
<polygon fill="#1f77b4" fill-opacity="0.140" stroke="#1f77b4" stroke-opacity="0.55" stroke-width="0.07" points="33.678,13.120 33.678,11.120 28.878,11.120 28.878,13.120"/>
<polygon fill="#1f77b4" fill-opacity="0.140" stroke="#1f77b4" stroke-opacity="0.55" stroke-width="0.07" points="35.073,13.120 35.073,11.120 30.273,11.120 30.273,13.120"/>
<polygon fill="#1f77b4" fill-opacity="0.140" stroke="#1f77b4" stroke-opacity="0.55" stroke-width="0.07" points="36.468,13.120 36.468,11.120 31.668,11.120 31.668,13.120"/>
<polygon fill="#1f77b4" fill-opacity="0.140" stroke="#1f77b4" stroke-opacity="0.55" stroke-width="0.07" points="37.863,13.120 37.863,11.120 33.063,11.120 33.063,13.120"/>
<polygon fill="#1f77b4" fill-opacity="0.140" stroke="#1f77b4" stroke-opacity="0.55" stroke-width="0.07" points="39.258,13.120 39.258,11.120 34.458,11.120 34.458,13.120"/>
<polygon fill="#1f77b4" fill-opacity="0.140" stroke="#1f77b4" stroke-opacity="0.55" stroke-width="0.07" points="40.653,13.120 40.653,11.120 35.853,11.120 35.853,13.120"/>
<polygon fill="#1f77b4" fill-opacity="0.140" stroke="#1f77b4" stroke-opacity="0.55" stroke-width="0.07" points="42.048,13.120 42.048,11.120 37.248,11.120 37.248,13.120"/>
<polygon fill="#1f77b4" fill-opacity="0.140" stroke="#1f77b4" stroke-opacity="0.55" stroke-width="0.07" points="43.443,13.120 43.443,11.120 38.643,11.120 38.643,13.120"/>
<polygon fill="#1f77b4" fill-opacity="0.140" stroke="#1f77b4" stroke-opacity="0.55" stroke-width="0.07" points="44.838,13.120 44.838,11.120 40.038,11.120 40.038,13.120"/>
<polygon fill="#1f77b4" fill-opacity="0.140" stroke="#1f77b4" stroke-opacity="0.55" stroke-width="0.07" points="46.233,13.120 46.233,11.120 41.433,11.120 41.433,13.120"/>
<polygon fill="#1f77b4" fill-opacity="0.140" stroke="#1f77b4" stroke-opacity="0.55" stroke-width="0.07" points="47.628,13.120 47.628,11.120 42.828,11.120 42.828,13.120"/>
<polygon fill="#1f77b4" fill-opacity="0.140" stroke="#1f77b4" stroke-opacity="0.55" stroke-width="0.07" points="49.023,13.120 49.023,11.120 44.223,11.120 44.223,13.120"/>
<polygon fill="#1f77b4" fill-opacity="0.140" stroke="#1f77b4" stroke-opacity="0.55" stroke-width="0.07" points="50.418,13.120 50.418,11.120 45.618,11.120 45.618,13.120"/>
<polygon fill="#1f77b4" fill-opacity="0.140" stroke="#1f77b4" stroke-opacity="0.55" stroke-width="0.07" points="51.813,13.120 51.813,11.120 47.013,11.120 47.013,13.120"/>
<polygon fill="#1f77b4" fill-opacity="0.140" stroke="#1f77b4" stroke-opacity="0.55" stroke-width="0.07" points="53.208,13.120 53.208,11.120 48.408,11.120 48.408,13.120"/>
<polygon fill="#1f77b4" fill-opacity="0.140" stroke="#1f77b4" stroke-opacity="0.55" stroke-width="0.07" points="54.603,13.120 54.603,11.120 49.803,11.120 49.803,13.120"/>
<polygon fill="#1f77b4" fill-opacity="0.140" stroke="#1f77b4" stroke-opacity="0.55" stroke-width="0.07" points="55.998,13.120 55.998,11.120 51.198,11.120 51.198,13.120"/>
<polygon fill="#1f77b4" fill-opacity="0.140" stroke="#1f77b4" stroke-opacity="0.55" stroke-width="0.07" points="57.393,13.120 57.393,11.120 52.593,11.120 52.593,13.120"/>
<polygon fill="#1f77b4" fill-opacity="0.140" stroke="#1f77b4" stroke-opacity="0.55" stroke-width="0.07" points="58.788,13.120 58.788,11.120 53.988,11.120 53.988,13.120"/>
<polygon fill="#1f77b4" fill-opacity="0.140" stroke="#1f77b4" stroke-opacity="0.55" stroke-width="0.07" points="60.115,13.293 60.241,11.297 55.450,10.996 55.325,12.992"/>
<polygon fill="#1f77b4" fill-opacity="0.140" stroke="#1f77b4" stroke-opacity="0.55" stroke-width="0.07" points="61.177,13.999 61.743,12.081 57.139,10.723 56.573,12.642"/>
<polygon fill="#1f77b4" fill-opacity="0.140" stroke="#1f77b4" stroke-opacity="0.55" stroke-width="0.07" points="61.774,15.171 62.944,13.549 59.052,10.739 57.882,12.361"/>
<polygon fill="#1f77b4" fill-opacity="0.140" stroke="#1f77b4" stroke-opacity="0.55" stroke-width="0.07" points="61.874,16.500 63.542,15.396 60.894,11.393 59.226,12.496"/>
<polygon fill="#1f77b4" fill-opacity="0.140" stroke="#1f77b4" stroke-opacity="0.55" stroke-width="0.07" points="61.507,17.780 63.456,17.330 62.376,12.653 60.427,13.103"/>
<polygon fill="#1f77b4" fill-opacity="0.140" stroke="#1f77b4" stroke-opacity="0.55" stroke-width="0.07" points="61.136,19.017 63.135,18.983 63.055,14.184 61.056,14.217"/>
<polygon fill="#1f77b4" fill-opacity="0.140" stroke="#1f77b4" stroke-opacity="0.55" stroke-width="0.07" points="60.977,20.354 62.975,20.432 63.163,15.636 61.164,15.558"/>
<polygon fill="#1f77b4" fill-opacity="0.140" stroke="#1f77b4" stroke-opacity="0.55" stroke-width="0.07" points="60.944,21.757 62.943,21.819 63.091,17.021 61.092,16.959"/>
<polygon fill="#1f77b4" fill-opacity="0.140" stroke="#1f77b4" stroke-opacity="0.55" stroke-width="0.07" points="60.955,23.170 62.955,23.196 63.018,18.397 61.018,18.371"/>
<polygon fill="#1f77b4" fill-opacity="0.140" stroke="#1f77b4" stroke-opacity="0.55" stroke-width="0.07" points="60.971,24.576 62.971,24.581 62.982,19.781 60.982,19.776"/>
<polygon fill="#1f77b4" fill-opacity="0.140" stroke="#1f77b4" stroke-opacity="0.55" stroke-width="0.07" points="60.979,25.975 62.979,25.972 62.973,21.172 60.973,21.175"/>
<polygon fill="#1f77b4" fill-opacity="0.140" stroke="#1f77b4" stroke-opacity="0.55" stroke-width="0.07" points="60.981,27.370 62.981,27.367 62.975,22.567 60.975,22.570"/>
<polygon fill="#1f77b4" fill-opacity="0.140" stroke="#1f77b4" stroke-opacity="0.55" stroke-width="0.07" points="60.981,28.764 62.981,28.763 62.978,23.963 60.978,23.964"/>
<polygon fill="#1f77b4" fill-opacity="0.140" stroke="#1f77b4" stroke-opacity="0.55" stroke-width="0.07" points="60.981,30.159 62.981,30.158 62.980,25.358 60.980,25.359"/>
<polygon fill="#1f77b4" fill-opacity="0.140" stroke="#1f77b4" stroke-opacity="0.55" stroke-width="0.07" points="60.980,31.553 62.980,31.553 62.980,26.753 60.980,26.753"/>
<polygon fill="#1f77b4" fill-opacity="0.140" stroke="#1f77b4" stroke-opacity="0.55" stroke-width="0.07" points="60.980,32.948 62.980,32.948 62.980,28.148 60.980,28.148"/>
<polygon fill="#1f77b4" fill-opacity="0.140" stroke="#1f77b4" stroke-opacity="0.55" stroke-width="0.07" points="60.980,34.343 62.980,34.343 62.980,29.543 60.980,29.543"/>
<polygon fill="#1f77b4" fill-opacity="0.140" stroke="#1f77b4" stroke-opacity="0.55" stroke-width="0.07" points="60.929,35.718 62.929,35.757 63.022,30.958 61.023,30.919"/>
<polygon fill="#1f77b4" fill-opacity="0.140" stroke="#1f77b4" stroke-opacity="0.55" stroke-width="0.07" points="60.380,36.870 62.338,37.280 63.322,32.582 61.364,32.172"/>
<polygon fill="#1f77b4" fill-opacity="0.140" stroke="#1f77b4" stroke-opacity="0.55" stroke-width="0.07" points="59.247,37.542 60.950,38.591 63.467,34.503 61.764,33.455"/>
<polygon fill="#1f77b4" fill-opacity="0.140" stroke="#1f77b4" stroke-opacity="0.55" stroke-width="0.07" points="57.928,37.738 59.150,39.321 62.950,36.389 61.728,34.806"/>
<polygon fill="#1f77b4" fill-opacity="0.140" stroke="#1f77b4" stroke-opacity="0.55" stroke-width="0.07" points="56.625,37.454 57.208,39.367 61.800,37.970 61.218,36.057"/>
<polygon fill="#1f77b4" fill-opacity="0.140" stroke="#1f77b4" stroke-opacity="0.55" stroke-width="0.07" points="55.487,36.772 55.390,38.769 60.185,39.001 60.281,37.003"/>
<polygon fill="#1f77b4" fill-opacity="0.140" stroke="#1f77b4" stroke-opacity="0.55" stroke-width="0.07" points="54.202,36.428 53.939,38.410 58.697,39.042 58.960,37.059"/>
<polygon fill="#1f77b4" fill-opacity="0.140" stroke="#1f77b4" stroke-opacity="0.55" stroke-width="0.07" points="52.753,36.387 52.590,38.381 57.374,38.771 57.537,36.778"/>
<polygon fill="#1f77b4" fill-opacity="0.140" stroke="#1f77b4" stroke-opacity="0.55" stroke-width="0.07" points="51.300,36.437 51.244,38.436 56.042,38.570 56.098,36.571"/>
<polygon fill="#1f77b4" fill-opacity="0.140" stroke="#1f77b4" stroke-opacity="0.55" stroke-width="0.07" points="49.877,36.481 49.874,38.481 54.674,38.489 54.677,36.489"/>
<polygon fill="#1f77b4" fill-opacity="0.140" stroke="#1f77b4" stroke-opacity="0.55" stroke-width="0.07" points="48.530,36.503 48.542,38.503 53.342,38.474 53.330,36.474"/>
<polygon fill="#1f77b4" fill-opacity="0.140" stroke="#1f77b4" stroke-opacity="0.55" stroke-width="0.07" points="47.504,36.509 47.515,38.509 52.315,38.482 52.304,36.482"/>
<polygon fill="#1f77b4" fill-opacity="0.140" stroke="#1f77b4" stroke-opacity="0.55" stroke-width="0.07" points="46.815,36.506 46.821,38.506 51.621,38.491 51.615,36.491"/>
<polygon fill="#1f77b4" fill-opacity="0.140" stroke="#1f77b4" stroke-opacity="0.55" stroke-width="0.07" points="46.369,36.503 46.371,38.503 51.171,38.496 51.169,36.496"/>
<polygon fill="#1f77b4" fill-opacity="0.140" stroke="#1f77b4" stroke-opacity="0.55" stroke-width="0.07" points="46.140,36.502 46.141,38.502 50.941,38.498 50.940,36.498"/>
<polygon fill="#1f77b4" fill-opacity="0.160" stroke="#1f77b4" stroke-opacity="0.55" stroke-width="0.07" points="46.143,36.502 46.145,38.502 50.945,38.498 50.943,36.498"/>
<polygon fill="#1f77b4" fill-opacity="0.160" stroke="#1f77b4" stroke-opacity="0.55" stroke-width="0.07" points="46.505,36.500 46.505,38.500 51.305,38.499 51.305,36.499"/>
<polygon fill="#1f77b4" fill-opacity="0.160" stroke="#1f77b4" stroke-opacity="0.55" stroke-width="0.07" points="47.031,36.499 47.031,38.499 51.831,38.500 51.831,36.500"/>
<polygon fill="#1f77b4" fill-opacity="0.160" stroke="#1f77b4" stroke-opacity="0.55" stroke-width="0.07" points="47.520,36.499 47.519,38.499 52.319,38.500 52.320,36.500"/>
<polygon fill="#1f77b4" fill-opacity="0.160" stroke="#1f77b4" stroke-opacity="0.55" stroke-width="0.07" points="47.943,36.499 47.943,38.499 52.743,38.500 52.743,36.500"/>
<polygon fill="#1f77b4" fill-opacity="0.160" stroke="#1f77b4" stroke-opacity="0.55" stroke-width="0.07" points="48.306,36.500 48.305,38.500 53.105,38.500 53.106,36.500"/>
<polygon fill="#1f77b4" fill-opacity="0.160" stroke="#1f77b4" stroke-opacity="0.55" stroke-width="0.07" points="48.630,36.500 48.630,38.500 53.430,38.500 53.430,36.500"/>
<polygon fill="#1f77b4" fill-opacity="0.160" stroke="#1f77b4" stroke-opacity="0.55" stroke-width="0.07" points="48.946,36.500 48.946,38.500 53.746,38.500 53.746,36.500"/>
<polygon fill="#1f77b4" fill-opacity="0.160" stroke="#1f77b4" stroke-opacity="0.55" stroke-width="0.07" points="49.261,36.500 49.261,38.500 54.061,38.500 54.061,36.500"/>
<polygon fill="#1f77b4" fill-opacity="0.160" stroke="#1f77b4" stroke-opacity="0.55" stroke-width="0.07" points="49.577,36.500 49.576,38.500 54.376,38.500 54.377,36.500"/>
<polygon fill="#1f77b4" fill-opacity="0.160" stroke="#1f77b4" stroke-opacity="0.55" stroke-width="0.07" points="49.892,36.500 49.891,38.500 54.691,38.500 54.692,36.500"/>
<polygon fill="#1f77b4" fill-opacity="0.160" stroke="#1f77b4" stroke-opacity="0.55" stroke-width="0.07" points="50.207,36.500 50.206,38.500 55.006,38.500 55.007,36.500"/>
<polygon fill="#1f77b4" fill-opacity="0.160" stroke="#1f77b4" stroke-opacity="0.55" stroke-width="0.07" points="50.438,36.426 50.374,38.425 55.172,38.578 55.235,36.579"/>
<polygon fill="#ff7f0e" fill-opacity="0.160" stroke="#ff7f0e" stroke-opacity="0.55" stroke-width="0.07" points="50.438,36.426 50.374,38.425 55.172,38.578 55.235,36.579"/>
<polygon fill="#ff7f0e" fill-opacity="0.160" stroke="#ff7f0e" stroke-opacity="0.55" stroke-width="0.07" points="51.209,36.141 50.844,38.107 55.563,38.983 55.928,37.017"/>
<polygon fill="#ff7f0e" fill-opacity="0.160" stroke="#ff7f0e" stroke-opacity="0.55" stroke-width="0.07" points="52.121,35.963 51.426,37.838 55.927,39.507 56.622,37.632"/>
<polygon fill="#ff7f0e" fill-opacity="0.160" stroke="#ff7f0e" stroke-opacity="0.55" stroke-width="0.07" points="53.067,35.944 52.056,37.670 56.199,40.095 57.209,38.369"/>
<polygon fill="#ff7f0e" fill-opacity="0.160" stroke="#ff7f0e" stroke-opacity="0.55" stroke-width="0.07" points="54.003,36.091 52.708,37.614 56.365,40.723 57.660,39.200"/>
<polygon fill="#ff7f0e" fill-opacity="0.160" stroke="#ff7f0e" stroke-opacity="0.55" stroke-width="0.07" points="54.901,36.398 53.360,37.673 56.419,41.371 57.960,40.096"/>
<polygon fill="#ff7f0e" fill-opacity="0.160" stroke="#ff7f0e" stroke-opacity="0.55" stroke-width="0.07" points="55.731,36.857 53.991,37.844 56.360,42.018 58.100,41.031"/>
<polygon fill="#ff7f0e" fill-opacity="0.160" stroke="#ff7f0e" stroke-opacity="0.55" stroke-width="0.07" points="56.468,37.453 54.583,38.122 56.189,42.646 58.074,41.977"/>
<polygon fill="#ff7f0e" fill-opacity="0.160" stroke="#ff7f0e" stroke-opacity="0.55" stroke-width="0.07" points="57.087,38.168 55.115,38.501 55.914,43.234 57.886,42.901"/>
<polygon fill="#ff7f0e" fill-opacity="0.160" stroke="#ff7f0e" stroke-opacity="0.55" stroke-width="0.07" points="57.544,38.966 55.544,38.980 55.578,43.780 57.578,43.766"/>
<polygon fill="#ff7f0e" fill-opacity="0.160" stroke="#ff7f0e" stroke-opacity="0.55" stroke-width="0.07" points="57.587,39.662 55.587,39.634 55.521,44.434 57.521,44.461"/>
<polygon fill="#ff7f0e" fill-opacity="0.160" stroke="#ff7f0e" stroke-opacity="0.55" stroke-width="0.07" points="57.577,40.337 55.578,40.309 55.512,45.109 57.511,45.136"/>
<polygon fill="#ff7f0e" fill-opacity="0.160" stroke="#ff7f0e" stroke-opacity="0.55" stroke-width="0.07" points="57.568,41.012 55.568,40.984 55.502,45.784 57.502,45.811"/>
<polygon fill="#ff7f0e" fill-opacity="0.160" stroke="#ff7f0e" stroke-opacity="0.55" stroke-width="0.07" points="57.559,41.668 55.559,41.640 55.493,46.440 57.493,46.467"/>
<polygon fill="#ff7f0e" fill-opacity="0.160" stroke="#ff7f0e" stroke-opacity="0.55" stroke-width="0.07" points="57.551,42.245 55.551,42.218 55.485,47.017 57.485,47.045"/>
<polygon fill="#ff7f0e" fill-opacity="0.160" stroke="#ff7f0e" stroke-opacity="0.55" stroke-width="0.07" points="57.544,42.736 55.545,42.708 55.479,47.508 57.478,47.535"/>
<polygon fill="#ff7f0e" fill-opacity="0.160" stroke="#ff7f0e" stroke-opacity="0.55" stroke-width="0.07" points="57.539,43.151 55.539,43.123 55.473,47.923 57.473,47.951"/>
<polygon fill="#ff7f0e" fill-opacity="0.160" stroke="#ff7f0e" stroke-opacity="0.55" stroke-width="0.07" points="57.534,43.505 55.534,43.478 55.468,48.277 57.468,48.305"/>
<polygon fill="#ff7f0e" fill-opacity="0.160" stroke="#ff7f0e" stroke-opacity="0.55" stroke-width="0.07" points="57.529,43.827 55.530,43.800 55.463,48.599 57.463,48.627"/>
<polygon fill="#ff7f0e" fill-opacity="0.160" stroke="#ff7f0e" stroke-opacity="0.55" stroke-width="0.07" points="57.525,44.143 55.525,44.116 55.459,48.915 57.459,48.943"/>
<polygon fill="#ff7f0e" fill-opacity="0.160" stroke="#ff7f0e" stroke-opacity="0.55" stroke-width="0.07" points="57.521,44.458 55.521,44.431 55.455,49.230 57.455,49.258"/>
<polygon fill="#ff7f0e" fill-opacity="0.160" stroke="#ff7f0e" stroke-opacity="0.55" stroke-width="0.07" points="57.516,44.773 55.517,44.746 55.450,49.545 57.450,49.573"/>
<polygon fill="#ff7f0e" fill-opacity="0.160" stroke="#ff7f0e" stroke-opacity="0.55" stroke-width="0.07" points="57.512,45.088 55.512,45.061 55.446,49.860 57.446,49.888"/>
<polygon fill="#ff7f0e" fill-opacity="0.160" stroke="#ff7f0e" stroke-opacity="0.55" stroke-width="0.07" points="57.508,45.403 55.508,45.376 55.442,50.175 57.442,50.203"/>
<polygon fill="#ff7f0e" fill-opacity="0.160" stroke="#ff7f0e" stroke-opacity="0.55" stroke-width="0.07" points="57.503,45.718 55.504,45.691 55.437,50.490 57.437,50.518"/>
<polygon fill="#ff7f0e" fill-opacity="0.160" stroke="#ff7f0e" stroke-opacity="0.55" stroke-width="0.07" points="57.499,46.033 55.499,46.006 55.433,50.805 57.433,50.833"/>
<polygon fill="#ff7f0e" fill-opacity="0.160" stroke="#ff7f0e" stroke-opacity="0.55" stroke-width="0.07" points="57.495,46.348 55.495,46.321 55.429,51.120 57.429,51.148"/>
<polygon fill="#ff7f0e" fill-opacity="0.160" stroke="#ff7f0e" stroke-opacity="0.55" stroke-width="0.07" points="57.490,46.669 55.490,46.642 55.424,51.441 57.424,51.469"/>
<polygon fill="#ff7f0e" fill-opacity="0.160" stroke="#ff7f0e" stroke-opacity="0.55" stroke-width="0.07" points="57.485,47.024 55.486,46.997 55.419,51.796 57.419,51.824"/>
<polygon fill="#ff7f0e" fill-opacity="0.160" stroke="#ff7f0e" stroke-opacity="0.55" stroke-width="0.07" points="57.480,47.430 55.480,47.403 55.414,52.202 57.414,52.230"/>
<polygon fill="#ff7f0e" fill-opacity="0.160" stroke="#ff7f0e" stroke-opacity="0.55" stroke-width="0.07" points="57.473,47.897 55.474,47.870 55.407,52.669 57.407,52.697"/>
<polygon fill="#ff7f0e" fill-opacity="0.160" stroke="#ff7f0e" stroke-opacity="0.55" stroke-width="0.07" points="57.466,48.438 55.466,48.410 55.400,53.210 57.400,53.237"/>
<polygon fill="#ff7f0e" fill-opacity="0.160" stroke="#ff7f0e" stroke-opacity="0.55" stroke-width="0.07" points="57.457,49.061 55.458,49.033 55.391,53.833 57.391,53.860"/>
<polygon fill="#ff7f0e" fill-opacity="0.160" stroke="#ff7f0e" stroke-opacity="0.55" stroke-width="0.07" points="57.451,49.541 55.451,49.513 55.385,54.313 57.385,54.340"/>
<polygon fill="none" stroke="crimson" stroke-width="0.120" points="57.451,49.541 55.451,49.513 55.385,54.313 57.385,54.340"/>
</g>
</svg>
