<svg xmlns="http://www.w3.org/2000/svg" width="1017" height="481" viewBox="0 0 1017 481">
<rect x="0" y="0" width="100%" height="100%" fill="#f8fafc" />
<text x="20" y="24" style="font: 600 16px Segoe UI; fill:#111827">parking_map_v3 four-slot simulation</text>
<polygon points="50.00,386.00 967.40,386.00 391.00,45.00 50.00,45.00" fill="#dbeafe" stroke="#1d4ed8" stroke-width="2"/>
<polygon points="50.00,386.00 767.20,386.00 250.20,45.00 50.00,45.00" fill="#f8fafc" stroke="#334155" stroke-width="1.5"/>
<polygon points="823.30,300.86 715.28,236.84 662.48,316.92 767.20,386.00" fill="#ef4444" fill-opacity="0.25" stroke="#ef4444" stroke-width="1.5"/>
<polygon points="715.28,236.84 607.26,172.82 557.76,247.84 662.48,316.92" fill="#f59e0b" fill-opacity="0.25" stroke="#f59e0b" stroke-width="1.5"/>
<polygon points="607.26,172.82 499.02,108.80 453.04,178.76 557.76,247.84" fill="#10b981" fill-opacity="0.25" stroke="#10b981" stroke-width="1.5"/>
<polygon points="499.02,108.80 391.00,45.00 348.32,109.68 453.04,178.76" fill="#3b82f6" fill-opacity="0.25" stroke="#3b82f6" stroke-width="1.5"/>
<polyline points="204.00,350.36 819.77,183.68" fill="none" stroke="#ef4444" stroke-width="2.2" stroke-dasharray="4 4"/>
<polyline points="819.77,183.68 811.91,180.34 804.41,177.30 797.27,174.58 790.48,172.15 784.03,170.02 777.92,168.18 772.13,166.62 766.67,165.33 761.51,164.31 756.67,163.55 752.12,163.05 747.86,162.80 743.89,162.78 740.19,163.01 736.76,163.46 733.60,164.13 730.69,165.02 728.02,166.12 725.60,167.42 723.41,168.92 721.44,170.60 719.70,172.47 718.16,174.52 716.83,176.73 715.70,179.11 714.75,181.64 713.99,184.33 713.40,187.15 712.98,190.12 712.72,193.21 712.61,196.43 712.64,199.76 712.82,203.21 713.13,206.76 713.56,210.41 714.11,214.15 714.76,217.97 715.52,221.87 716.37,225.84 717.31,229.87 718.33,233.97 719.43,238.11 720.59,242.30 721.80,246.53 723.07,250.79 724.39,255.08 725.73,259.38 727.11,263.70 728.51,268.02 729.93,272.34 731.35,276.65 732.77,280.95 734.19,285.23 735.59,289.48 736.97,293.70 738.32,297.88 739.63,302.01 740.90,306.08 742.12,310.10" fill="none" stroke="#ef4444" stroke-width="2.2"/>
<polyline points="204.00,350.36 711.75,119.66" fill="none" stroke="#f59e0b" stroke-width="2.2" stroke-dasharray="4 4"/>
<polyline points="711.75,119.66 703.91,116.28 696.43,113.21 689.32,110.45 682.55,107.99 676.13,105.82 670.04,103.94 664.28,102.34 658.84,101.01 653.71,99.95 648.89,99.15 644.37,98.61 640.14,98.31 636.19,98.26 632.52,98.44 629.12,98.85 625.98,99.48 623.09,100.33 620.46,101.38 618.06,102.64 615.90,104.10 613.96,105.74 612.24,107.56 610.74,109.56 609.43,111.73 608.33,114.07 607.41,116.56 606.67,119.20 606.11,121.98 605.72,124.90 605.49,127.95 605.41,131.13 605.47,134.42 605.68,137.82 606.01,141.32 606.47,144.93 607.04,148.62 607.73,152.40 608.51,156.26 609.40,160.18 610.36,164.18 611.41,168.23 612.53,172.33 613.72,176.48 614.96,180.67 616.26,184.89 617.59,189.13 618.97,193.39 620.37,197.67 621.80,201.95 623.24,206.23 624.68,210.51 626.13,214.77 627.57,219.01 628.99,223.22 630.40,227.40 631.77,231.54 633.11,235.64 634.40,239.68 635.64,243.66" fill="none" stroke="#f59e0b" stroke-width="2.2"/>
<polyline points="204.00,350.36 603.54,55.60" fill="none" stroke="#10b981" stroke-width="2.2" stroke-dasharray="4 4"/>
<polyline points="603.54,55.60 595.73,52.17 588.29,49.06 581.21,46.26 574.48,43.75 568.09,41.54 562.03,39.61 556.30,37.97 550.90,36.60 545.80,35.49 541.02,34.65 536.53,34.06 532.33,33.72 528.42,33.62 524.79,33.75 521.42,34.12 518.32,34.70 515.47,35.50 512.87,36.51 510.51,37.72 508.38,39.13 506.48,40.72 504.80,42.50 503.32,44.46 502.06,46.58 500.98,48.87 500.10,51.31 499.40,53.90 498.88,56.64 498.52,59.51 498.32,62.51 498.28,65.64 498.38,68.89 498.62,72.24 498.98,75.70 499.48,79.26 500.09,82.91 500.81,86.64 501.62,90.45 502.54,94.33 503.54,98.28 504.62,102.29 505.77,106.35 506.99,110.45 508.27,114.60 509.59,118.77 510.96,122.97 512.37,127.20 513.80,131.43 515.26,135.67 516.73,139.91 518.21,144.15 519.68,148.37 521.15,152.57 522.60,156.74 524.03,160.89 525.43,164.99 526.79,169.05 528.11,173.05 529.38,177.00" fill="none" stroke="#10b981" stroke-width="2.2"/>
<polyline points="204.00,350.36 495.36,-8.34" fill="none" stroke="#3b82f6" stroke-width="2.2" stroke-dasharray="4 4"/>
<polyline points="495.36,-8.34 487.58,-11.81 480.16,-14.96 473.11,-17.80 466.40,-20.35 460.04,-22.60 454.01,-24.57 448.31,-26.25 442.94,-27.67 437.87,-28.81 433.12,-29.70 428.66,-30.33 424.49,-30.71 420.61,-30.86 417.00,-30.77 413.67,-30.45 410.59,-29.91 407.78,-29.15 405.21,-28.19 402.88,-27.02 400.78,-25.66 398.91,-24.11 397.26,-22.38 395.82,-20.47 394.58,-18.39 393.54,-16.15 392.69,-13.75 392.02,-11.20 391.53,-8.51 391.20,-5.68 391.03,-2.73 391.02,0.36 391.15,3.56 391.42,6.87 391.82,10.28 392.34,13.79 392.98,17.40 393.73,21.09 394.58,24.85 395.52,28.69 396.55,32.60 397.66,36.56 398.85,40.58 400.09,44.64 401.40,48.74 402.75,52.87 404.15,57.03 405.58,61.21 407.05,65.41 408.53,69.61 410.03,73.81 411.53,78.00 413.03,82.19 414.52,86.35 416.00,90.49 417.46,94.59 418.88,98.66 420.27,102.68 421.61,106.65 422.90,110.56" fill="none" stroke="#3b82f6" stroke-width="2.2"/>
<circle cx="204.00" cy="350.36" r="4.5" fill="#111827"/>
</svg>