<?xml version="1.0" encoding="UTF-8"?>
<svg xmlns="http://www.w3.org/2000/svg" width="1400" height="900" viewBox="0 -3 75 53">
<rect x="0" y="-3" width="75" height="53" fill="white"/>
<text x="1.5" y="-1.35" font-size="1.15" fill="black">Parking | target row=2 idx=1 | success=true sim_ok=true | max_steer=35 deg | overshoot~=5 m | total(ref)~=3e+01 m</text>
<text x="1.5" y="-0.45" font-size="0.95" fill="black">ok</text>
<g transform="translate(0,50.000) scale(1,-1)">
<rect x="0" y="0" width="75.000" height="50.000" fill="none" stroke="black" stroke-width="0.15"/>
<rect x="0.000" y="9.000" width="75.000" height="6.000" fill="#add8e6" fill-opacity="0.25" stroke="#add8e6" stroke-width="0.08"/>
<rect x="0.000" y="34.500" width="75.000" height="6.000" fill="#add8e6" fill-opacity="0.25" stroke="#add8e6" stroke-width="0.08"/>
<rect x="36.000" y="12.000" width="6.000" height="25.500" fill="#90ee90" fill-opacity="0.25" stroke="#90ee90" stroke-width="0.08"/>
<rect x="12.000" y="44.000" width="4.800" height="6.000" fill="white" stroke="gray" stroke-width="0.080" fill-opacity="0.85"/>
<rect x="16.800" y="44.000" width="4.800" height="6.000" fill="white" stroke="gray" stroke-width="0.080" fill-opacity="0.85"/>
<rect x="21.600" y="44.000" width="4.800" height="6.000" fill="black" stroke="gray" stroke-width="0.080" fill-opacity="0.95"/>
<rect x="26.400" y="44.000" width="4.800" height="6.000" fill="black" stroke="gray" stroke-width="0.080" fill-opacity="0.95"/>
<rect x="31.200" y="44.000" width="4.800" height="6.000" fill="white" stroke="gray" stroke-width="0.080" fill-opacity="0.85"/>
<rect x="12.000" y="25.000" width="4.800" height="6.000" fill="black" stroke="gray" stroke-width="0.080" fill-opacity="0.95"/>
<rect x="16.800" y="25.000" width="4.800" height="6.000" fill="black" stroke="gray" stroke-width="0.080" fill-opacity="0.95"/>
<rect x="21.600" y="25.000" width="4.800" height="6.000" fill="black" stroke="gray" stroke-width="0.080" fill-opacity="0.95"/>
<rect x="26.400" y="25.000" width="4.800" height="6.000" fill="white" stroke="gray" stroke-width="0.080" fill-opacity="0.85"/>
<rect x="31.200" y="25.000" width="4.800" height="6.000" fill="white" stroke="gray" stroke-width="0.080" fill-opacity="0.85"/>
<rect x="12.000" y="19.000" width="4.800" height="6.000" fill="white" stroke="gray" stroke-width="0.080" fill-opacity="0.85"/>
<rect x="16.800" y="19.000" width="4.800" height="6.000" fill="#98fb98" stroke="darkgreen" stroke-width="0.180" fill-opacity="0.85"/>
<rect x="21.600" y="19.000" width="4.800" height="6.000" fill="white" stroke="gray" stroke-width="0.080" fill-opacity="0.85"/>
<rect x="26.400" y="19.000" width="4.800" height="6.000" fill="white" stroke="gray" stroke-width="0.080" fill-opacity="0.85"/>
<rect x="31.200" y="19.000" width="4.800" height="6.000" fill="black" stroke="gray" stroke-width="0.080" fill-opacity="0.95"/>
<rect x="12.000" y="0.000" width="4.800" height="6.000" fill="white" stroke="gray" stroke-width="0.080" fill-opacity="0.85"/>
<rect x="16.800" y="0.000" width="4.800" height="6.000" fill="white" stroke="gray" stroke-width="0.080" fill-opacity="0.85"/>
<rect x="21.600" y="0.000" width="4.800" height="6.000" fill="black" stroke="gray" stroke-width="0.080" fill-opacity="0.95"/>
<rect x="26.400" y="0.000" width="4.800" height="6.000" fill="white" stroke="gray" stroke-width="0.080" fill-opacity="0.85"/>
<rect x="31.200" y="0.000" width="4.800" height="6.000" fill="black" stroke="gray" stroke-width="0.080" fill-opacity="0.95"/>
<polygon fill="none" stroke="navy" stroke-width="0.120" points="6.400,13.000 6.400,11.000 1.600,11.000 1.600,13.000"/>
<polygon fill="purple" points="16.420,12.000 16.700,12.350 16.980,12.000 16.700,11.650"/>
<circle cx="24.000" cy="12.000" r="0.38" fill="darkviolet" stroke="indigo" stroke-width="0.06"/>
<polyline fill="none" stroke="#808080" stroke-width="0.120" stroke-opacity="0.65" stroke-dasharray="0.45 0.35" points="4.000,12.000 16.700,12.000 24.000,12.000"/>
<polyline fill="none" stroke="#808080" stroke-width="0.120" stroke-opacity="0.65" stroke-dasharray="0.45 0.35" points="24.000,12.000 23.826,12.180 23.655,12.364 23.489,12.553 23.326,12.747 23.166,12.944 23.011,13.146 22.859,13.351 22.711,13.559 22.566,13.771 22.425,13.987 22.287,14.205 22.152,14.425 22.021,14.649 21.893,14.874 21.768,15.102 21.647,15.332 21.528,15.563 21.413,15.796 21.301,16.030 21.191,16.265 21.085,16.501 20.982,16.738 20.881,16.976 20.783,17.213 20.688,17.451 20.596,17.689 20.506,17.926 20.419,18.163 20.335,18.399 20.253,18.635 20.174,18.869 20.097,19.102 20.022,19.333 19.950,19.563 19.880,19.790 19.812,20.016 19.746,20.239 19.683,20.460 19.621,20.678 19.562,20.893 19.505,21.105 19.449,21.314 19.396,21.519 19.344,21.720 19.294,21.918 19.246,22.111 19.200,22.300"/>
<polyline fill="none" stroke="#1f77b4" stroke-width="0.220" stroke-opacity="0.95" points="4.008,12.000 4.022,12.000 4.043,12.000 4.070,12.000 4.102,12.000 4.138,12.000 4.179,12.000 4.223,12.000 4.270,12.000 4.321,12.000 4.374,12.000 4.429,12.000 4.487,12.000 4.547,12.000 4.609,12.000 4.672,12.000 4.736,12.000 4.802,12.000 4.869,12.000 4.937,12.000 5.006,12.000 5.076,12.000 5.147,12.000 5.218,12.000 5.290,12.000 5.363,12.000 5.436,12.000 5.509,12.000 5.583,12.000 5.657,12.000 5.732,12.000 5.806,12.000 5.882,12.000 5.957,12.000 6.032,12.000 6.108,12.000 6.184,12.000 6.260,12.000 6.336,12.000 6.413,12.000 6.489,12.000 6.566,12.000 6.643,12.000 6.719,12.000 6.796,12.000 6.873,12.000 6.950,12.000 7.027,12.000 7.104,12.000 7.181,12.000 7.258,12.000 7.335,12.000 7.413,12.000 7.490,12.000 7.567,12.000 7.644,12.000 7.722,12.000 7.799,12.000 7.876,12.000 7.954,12.000 8.031,12.000 8.109,12.000 8.186,12.000 8.263,12.000 8.341,12.000 8.418,12.000 8.496,12.000 8.573,12.000 8.650,12.000 8.728,12.000 8.805,12.000 8.883,12.000 8.960,12.000 9.038,12.000 9.115,12.000 9.193,12.000 9.270,12.000 9.348,12.000 9.425,12.000 9.503,12.000 9.580,12.000 9.658,12.000 9.735,12.000 9.813,12.000 9.890,12.000 9.968,12.000 10.045,12.000 10.123,12.000 10.200,12.000 10.278,12.000 10.355,12.000 10.433,12.000 10.510,12.000 10.588,12.000 10.665,12.000 10.743,12.000 10.820,12.000 10.898,12.000 10.975,12.000 11.053,12.000 11.130,12.000 11.208,12.000 11.285,12.000 11.363,12.000 11.440,12.000 11.518,12.000 11.595,12.000 11.673,12.000 11.750,12.000 11.828,12.000 11.905,12.000 11.983,12.000 12.060,12.000 12.138,12.000 12.215,12.000 12.293,12.000 12.370,12.000 12.448,12.000 12.525,12.000 12.603,12.000 12.680,12.000 12.758,12.000 12.835,12.000 12.913,12.000 12.990,12.000 13.068,12.000 13.145,12.000 13.223,12.000 13.300,12.000 13.378,12.000 13.455,12.000 13.533,12.000 13.610,12.000 13.688,12.000 13.765,12.000 13.843,12.000 13.920,12.000 13.998,12.000 14.075,12.000 14.153,12.000 14.230,12.000 14.308,12.000 14.385,12.000 14.463,12.000 14.540,12.000 14.618,12.000 14.695,12.000 14.773,12.000 14.850,12.000 14.928,12.000 15.005,12.000 15.083,12.000 15.160,12.000 15.238,12.000 15.315,12.000 15.393,12.000 15.470,12.000 15.548,12.000 15.625,12.000 15.703,12.000 15.780,12.000 15.858,12.000 15.935,12.000 16.013,12.000 16.090,12.000 16.168,12.000 16.245,12.000 16.323,12.000 16.400,12.000 16.478,12.000 16.555,12.000 16.633,12.000 16.710,12.000 16.788,12.000 16.865,12.000 16.943,12.000 17.020,12.000 17.098,12.000 17.175,12.000 17.253,12.000 17.330,12.000 17.408,12.000 17.485,12.000 17.563,12.000 17.640,12.000 17.718,12.000 17.795,12.000 17.873,12.000 17.950,12.000 18.028,12.000 18.105,12.000 18.183,12.000 18.260,12.000 18.338,12.000 18.415,12.000 18.493,12.000 18.570,12.000 18.648,12.000 18.725,12.000 18.803,12.000 18.880,12.000 18.958,12.000 19.035,12.000 19.113,12.000 19.190,12.000 19.268,12.000 19.345,12.000 19.423,12.000 19.500,12.000 19.578,12.000 19.655,12.000 19.733,12.000 19.810,12.000 19.888,12.000 19.965,12.000 20.043,12.000 20.120,12.000 20.197,12.000 20.274,12.000 20.350,12.000 20.426,12.000 20.501,12.000 20.576,12.000 20.649,12.000 20.722,12.000 20.794,12.000 20.865,12.000 20.935,12.000 21.003,12.000 21.071,12.000 21.138,12.000 21.203,12.000 21.268,12.000 21.331,12.000 21.393,12.000 21.454,12.000 21.514,12.000 21.572,12.000 21.630,12.000 21.686,12.000 21.741,12.000 21.795,12.000 21.848,12.000 21.900,12.000 21.950,12.000 22.000,12.000 22.048,12.000 22.096,12.000 22.142,12.000 22.188,12.000 22.232,12.000 22.275,12.000 22.317,12.000 22.359,12.000 22.399,12.000 22.439,12.000 22.477,12.000 22.515,12.000 22.552,12.000 22.587,12.000 22.622,12.000 22.657,12.000 22.690,12.000 22.723,12.000 22.754,12.000 22.785,12.000 22.816,12.000 22.845,12.000 22.874,12.000 22.902,12.000 22.930,12.000 22.956,12.000 22.982,12.000 23.008,12.000 23.033,12.000 23.057,12.000 23.081,12.000 23.104,12.000 23.126,12.000 23.148,12.000 23.170,12.000 23.191,12.000 23.212,12.000 23.232,12.000 23.252,12.000 23.272,12.000 23.292,12.000 23.311,12.000 23.331,12.000 23.350,12.000 23.369,12.000 23.387,12.000 23.406,12.000 23.425,12.000 23.443,12.000 23.461,12.000"/>
<polyline fill="none" stroke="#ff7f0e" stroke-width="0.220" stroke-opacity="0.95" points="23.458,12.000 23.450,12.000 23.440,12.000 23.427,12.000 23.412,12.000 23.394,12.000 23.375,12.000 23.353,12.000 23.331,12.001 23.306,12.001 23.280,12.002 23.253,12.003 23.226,12.004 23.197,12.005 23.167,12.007 23.136,12.009 23.105,12.011 23.073,12.013 23.041,12.016 23.008,12.019 22.975,12.023 22.942,12.026 22.908,12.030 22.873,12.035 22.839,12.040 22.804,12.045 22.769,12.050 22.734,12.056 22.699,12.062 22.664,12.069 22.628,12.076 22.593,12.083 22.557,12.091 22.522,12.099 22.486,12.107 22.451,12.116 22.415,12.125 22.379,12.134 22.344,12.144 22.308,12.154 22.273,12.165 22.237,12.175 22.202,12.187 22.167,12.198 22.132,12.210 22.096,12.222 22.061,12.235 22.026,12.248 21.992,12.261 21.957,12.275 21.922,12.289 21.888,12.303 21.853,12.318 21.819,12.333 21.785,12.348 21.751,12.364 21.717,12.380 21.684,12.396 21.650,12.413 21.617,12.430 21.584,12.447 21.551,12.465 21.518,12.483 21.485,12.501 21.453,12.520 21.420,12.539 21.388,12.558 21.356,12.577 21.324,12.597 21.293,12.617 21.261,12.638 21.230,12.659 21.199,12.680 21.168,12.701 21.138,12.723 21.107,12.745 21.077,12.767 21.047,12.790 21.018,12.813 20.988,12.836 20.959,12.859 20.930,12.883 20.901,12.907 20.872,12.931 20.844,12.956 20.816,12.981 20.788,13.006 20.761,13.031 20.733,13.057 20.706,13.083 20.679,13.109 20.653,13.135 20.626,13.162 20.600,13.189 20.574,13.216 20.549,13.243 20.524,13.271 20.499,13.299 20.474,13.327 20.449,13.356 20.425,13.384 20.401,13.413 20.378,13.442 20.354,13.472 20.331,13.501 20.309,13.531 20.286,13.561 20.264,13.591 20.242,13.622 20.220,13.653 20.199,13.683 20.178,13.714 20.157,13.746 20.137,13.777 20.117,13.809 20.097,13.841 20.078,13.873 20.059,13.905 20.040,13.938 20.021,13.970 20.003,14.003 19.985,14.036 19.968,14.069 19.951,14.102 19.934,14.136 19.917,14.169 19.901,14.203 19.885,14.237 19.869,14.271 19.854,14.306 19.839,14.340 19.825,14.375 19.810,14.409 19.796,14.444 19.783,14.479 19.770,14.514 19.757,14.549 19.744,14.585 19.732,14.620 19.720,14.656 19.709,14.691 19.697,14.727 19.687,14.763 19.676,14.799 19.666,14.835 19.656,14.871 19.647,14.908 19.638,14.944 19.629,14.981 19.621,15.017 19.613,15.054 19.605,15.090 19.598,15.127 19.591,15.164 19.584,15.201 19.578,15.238 19.572,15.275 19.567,15.312 19.562,15.349 19.557,15.387 19.553,15.424 19.549,15.461 19.545,15.498 19.542,15.536 19.539,15.573 19.536,15.610 19.534,15.648 19.532,15.685 19.530,15.723 19.529,15.760 19.528,15.798 19.528,15.835 19.527,15.873 19.527,15.910 19.527,15.948 19.528,15.985 19.528,16.023 19.529,16.060 19.529,16.098 19.530,16.135 19.530,16.173 19.531,16.210 19.532,16.248 19.532,16.285 19.533,16.323 19.533,16.360 19.534,16.398 19.534,16.435 19.535,16.473 19.536,16.510 19.536,16.548 19.537,16.585 19.537,16.623 19.538,16.660 19.539,16.698 19.539,16.735 19.540,16.773 19.540,16.810 19.541,16.848 19.541,16.885 19.542,16.923 19.543,16.960 19.543,16.998 19.544,17.035 19.544,17.073 19.545,17.110 19.545,17.148 19.546,17.185 19.547,17.223 19.547,17.260 19.548,17.298 19.548,17.335 19.549,17.373 19.550,17.410 19.550,17.448 19.551,17.485 19.551,17.523 19.552,17.560 19.552,17.598 19.553,17.635 19.554,17.673 19.554,17.710 19.555,17.748 19.555,17.785 19.556,17.823 19.557,17.860 19.557,17.898 19.558,17.935 19.558,17.973 19.559,18.010 19.559,18.048 19.560,18.085 19.561,18.123 19.561,18.160 19.562,18.198 19.562,18.235 19.563,18.273 19.564,18.310 19.564,18.348 19.565,18.385 19.565,18.422 19.566,18.460 19.566,18.497 19.567,18.534 19.568,18.571 19.568,18.608 19.569,18.644 19.569,18.680 19.570,18.717 19.570,18.752 19.571,18.788 19.571,18.823 19.572,18.859 19.573,18.893 19.573,18.928 19.574,18.962 19.574,18.996 19.575,19.030 19.575,19.063 19.576,19.097 19.576,19.129 19.577,19.162 19.577,19.194 19.578,19.226 19.578,19.258 19.579,19.289 19.579,19.320 19.580,19.351 19.580,19.382 19.581,19.412 19.581,19.442 19.582,19.472 19.582,19.501 19.582,19.530 19.583,19.559 19.583,19.587 19.584,19.615 19.584,19.643 19.585,19.671 19.585,19.698 19.585,19.725 19.586,19.752 19.586,19.779 19.587,19.805 19.587,19.831 19.588,19.857 19.588,19.883 19.588,19.908 19.589,19.933 19.589,19.958 19.589,19.982 19.590,20.006 19.590,20.030 19.591,20.054 19.591,20.078 19.591,20.101 19.592,20.124 19.592,20.147 19.592,20.169 19.593,20.192 19.593,20.214 19.593,20.236 19.594,20.258 19.594,20.279 19.594,20.300 19.595,20.321 19.595,20.342 19.595,20.363 19.596,20.383 19.596,20.403 19.596,20.423 19.597,20.443 19.597,20.463 19.597,20.482 19.598,20.501 19.598,20.520 19.598,20.539 19.598,20.558 19.599,20.577 19.599,20.595 19.599,20.614 19.600,20.632 19.600,20.650 19.600,20.668 19.600,20.686 19.601,20.704 19.601,20.722 19.601,20.740 19.601,20.758 19.602,20.776 19.602,20.794 19.602,20.812 19.603,20.829 19.603,20.847 19.603,20.865 19.603,20.883 19.604,20.900 19.604,20.918 19.604,20.935 19.605,20.953 19.605,20.971 19.605,20.988 19.605,21.006 19.606,21.023 19.606,21.041 19.606,21.059 19.606,21.076 19.607,21.094 19.607,21.111 19.607,21.129 19.608,21.146 19.608,21.164 19.608,21.181 19.608,21.199 19.609,21.216 19.609,21.234 19.609,21.251 19.609,21.269 19.610,21.287 19.610,21.304 19.610,21.322 19.610,21.339 19.611,21.357 19.611,21.374 19.611,21.392 19.612,21.409 19.612,21.427 19.612,21.444 19.612,21.462 19.613,21.479 19.613,21.497 19.613,21.514 19.613,21.532 19.614,21.549 19.614,21.567 19.614,21.584 19.615,21.602 19.615,21.619 19.615,21.637 19.615,21.654 19.616,21.672 19.616,21.689 19.616,21.707 19.616,21.724 19.617,21.742 19.617,21.759 19.617,21.777 19.618,21.794 19.618,21.812 19.618,21.829 19.618,21.847 19.619,21.864 19.619,21.882 19.619,21.899 19.619,21.917 19.620,21.934 19.620,21.952 19.620,21.969 19.621,21.987 19.621,22.004 19.621,22.022 19.621,22.039 19.622,22.057 19.622,22.074 19.622,22.092 19.622,22.109 19.623,22.127 19.623,22.144 19.623,22.162 19.624,22.179 19.624,22.197 19.624,22.214 19.624,22.232 19.625,22.249 19.625,22.267"/>
<polygon fill="#1f77b4" fill-opacity="0.140" stroke="#1f77b4" stroke-opacity="0.55" stroke-width="0.07" points="6.408,13.000 6.408,11.000 1.608,11.000 1.608,13.000"/>
<polygon fill="#1f77b4" fill-opacity="0.140" stroke="#1f77b4" stroke-opacity="0.55" stroke-width="0.07" points="7.269,13.000 7.269,11.000 2.469,11.000 2.469,13.000"/>
<polygon fill="#1f77b4" fill-opacity="0.140" stroke="#1f77b4" stroke-opacity="0.55" stroke-width="0.07" points="8.584,13.000 8.584,11.000 3.784,11.000 3.784,13.000"/>
<polygon fill="#1f77b4" fill-opacity="0.140" stroke="#1f77b4" stroke-opacity="0.55" stroke-width="0.07" points="9.967,13.000 9.967,11.000 5.167,11.000 5.167,13.000"/>
<polygon fill="#1f77b4" fill-opacity="0.140" stroke="#1f77b4" stroke-opacity="0.55" stroke-width="0.07" points="11.360,13.000 11.360,11.000 6.560,11.000 6.560,13.000"/>
<polygon fill="#1f77b4" fill-opacity="0.140" stroke="#1f77b4" stroke-opacity="0.55" stroke-width="0.07" points="12.755,13.000 12.755,11.000 7.955,11.000 7.955,13.000"/>
<polygon fill="#1f77b4" fill-opacity="0.140" stroke="#1f77b4" stroke-opacity="0.55" stroke-width="0.07" points="14.150,13.000 14.150,11.000 9.350,11.000 9.350,13.000"/>
<polygon fill="#1f77b4" fill-opacity="0.140" stroke="#1f77b4" stroke-opacity="0.55" stroke-width="0.07" points="15.545,13.000 15.545,11.000 10.745,11.000 10.745,13.000"/>
<polygon fill="#1f77b4" fill-opacity="0.140" stroke="#1f77b4" stroke-opacity="0.55" stroke-width="0.07" points="16.940,13.000 16.940,11.000 12.140,11.000 12.140,13.000"/>
<polygon fill="#1f77b4" fill-opacity="0.140" stroke="#1f77b4" stroke-opacity="0.55" stroke-width="0.07" points="18.335,13.000 18.335,11.000 13.535,11.000 13.535,13.000"/>
<polygon fill="#1f77b4" fill-opacity="0.140" stroke="#1f77b4" stroke-opacity="0.55" stroke-width="0.07" points="19.730,13.000 19.730,11.000 14.930,11.000 14.930,13.000"/>
<polygon fill="#1f77b4" fill-opacity="0.140" stroke="#1f77b4" stroke-opacity="0.55" stroke-width="0.07" points="21.125,13.000 21.125,11.000 16.325,11.000 16.325,13.000"/>
<polygon fill="#1f77b4" fill-opacity="0.140" stroke="#1f77b4" stroke-opacity="0.55" stroke-width="0.07" points="22.520,13.000 22.520,11.000 17.720,11.000 17.720,13.000"/>
<polygon fill="#1f77b4" fill-opacity="0.140" stroke="#1f77b4" stroke-opacity="0.55" stroke-width="0.07" points="23.793,13.000 23.793,11.000 18.993,11.000 18.993,13.000"/>
<polygon fill="#1f77b4" fill-opacity="0.140" stroke="#1f77b4" stroke-opacity="0.55" stroke-width="0.07" points="24.717,13.000 24.717,11.000 19.917,11.000 19.917,13.000"/>
<polygon fill="#1f77b4" fill-opacity="0.140" stroke="#1f77b4" stroke-opacity="0.55" stroke-width="0.07" points="25.330,13.000 25.330,11.000 20.530,11.000 20.530,13.000"/>
<polygon fill="#1f77b4" fill-opacity="0.140" stroke="#1f77b4" stroke-opacity="0.55" stroke-width="0.07" points="25.731,13.000 25.731,11.000 20.931,11.000 20.931,13.000"/>
<polygon fill="#1f77b4" fill-opacity="0.140" stroke="#1f77b4" stroke-opacity="0.55" stroke-width="0.07" points="25.861,13.000 25.861,11.000 21.061,11.000 21.061,13.000"/>
<polygon fill="#ff7f0e" fill-opacity="0.160" stroke="#ff7f0e" stroke-opacity="0.55" stroke-width="0.07" points="25.858,13.000 25.857,11.000 21.057,11.000 21.058,13.000"/>
<polygon fill="#ff7f0e" fill-opacity="0.160" stroke="#ff7f0e" stroke-opacity="0.55" stroke-width="0.07" points="25.524,12.786 25.337,10.795 20.558,11.246 20.746,13.237"/>
<polygon fill="#ff7f0e" fill-opacity="0.160" stroke="#ff7f0e" stroke-opacity="0.55" stroke-width="0.07" points="24.991,12.477 24.479,10.543 19.839,11.773 20.351,13.706"/>
<polygon fill="#ff7f0e" fill-opacity="0.160" stroke="#ff7f0e" stroke-opacity="0.55" stroke-width="0.07" points="24.383,12.250 23.545,10.434 19.187,12.446 20.025,14.262"/>
<polygon fill="#ff7f0e" fill-opacity="0.160" stroke="#ff7f0e" stroke-opacity="0.55" stroke-width="0.07" points="23.741,12.131 22.599,10.489 18.658,13.228 19.799,14.871"/>
<polygon fill="#ff7f0e" fill-opacity="0.160" stroke="#ff7f0e" stroke-opacity="0.55" stroke-width="0.07" points="23.086,12.126 21.677,10.708 18.272,14.091 19.682,15.510"/>
<polygon fill="#ff7f0e" fill-opacity="0.160" stroke="#ff7f0e" stroke-opacity="0.55" stroke-width="0.07" points="22.441,12.235 20.806,11.084 18.043,15.009 19.678,16.160"/>
<polygon fill="#ff7f0e" fill-opacity="0.160" stroke="#ff7f0e" stroke-opacity="0.55" stroke-width="0.07" points="21.825,12.455 20.014,11.606 17.977,15.952 19.788,16.801"/>
<polygon fill="#ff7f0e" fill-opacity="0.160" stroke="#ff7f0e" stroke-opacity="0.55" stroke-width="0.07" points="21.256,12.778 19.325,12.258 18.076,16.892 20.007,17.413"/>
<polygon fill="#ff7f0e" fill-opacity="0.160" stroke="#ff7f0e" stroke-opacity="0.55" stroke-width="0.07" points="20.753,13.196 18.761,13.019 18.336,17.800 20.328,17.977"/>
<polygon fill="#ff7f0e" fill-opacity="0.160" stroke="#ff7f0e" stroke-opacity="0.55" stroke-width="0.07" points="20.493,13.758 18.493,13.789 18.568,18.588 20.567,18.557"/>
<polygon fill="#ff7f0e" fill-opacity="0.160" stroke="#ff7f0e" stroke-opacity="0.55" stroke-width="0.07" points="20.504,14.432 18.504,14.464 18.578,19.263 20.578,19.232"/>
<polygon fill="#ff7f0e" fill-opacity="0.160" stroke="#ff7f0e" stroke-opacity="0.55" stroke-width="0.07" points="20.514,15.107 18.514,15.138 18.589,19.938 20.588,19.907"/>
<polygon fill="#ff7f0e" fill-opacity="0.160" stroke="#ff7f0e" stroke-opacity="0.55" stroke-width="0.07" points="20.524,15.782 18.525,15.813 18.599,20.613 20.599,20.582"/>
<polygon fill="#ff7f0e" fill-opacity="0.160" stroke="#ff7f0e" stroke-opacity="0.55" stroke-width="0.07" points="20.535,16.443 18.535,16.474 18.609,21.274 20.609,21.243"/>
<polygon fill="#ff7f0e" fill-opacity="0.160" stroke="#ff7f0e" stroke-opacity="0.55" stroke-width="0.07" points="20.544,17.027 18.544,17.058 18.618,21.857 20.618,21.826"/>
<polygon fill="#ff7f0e" fill-opacity="0.160" stroke="#ff7f0e" stroke-opacity="0.55" stroke-width="0.07" points="20.551,17.518 18.552,17.549 18.626,22.348 20.626,22.317"/>
<polygon fill="#ff7f0e" fill-opacity="0.160" stroke="#ff7f0e" stroke-opacity="0.55" stroke-width="0.07" points="20.558,17.927 18.558,17.958 18.632,22.757 20.632,22.726"/>
<polygon fill="#ff7f0e" fill-opacity="0.160" stroke="#ff7f0e" stroke-opacity="0.55" stroke-width="0.07" points="20.563,18.271 18.563,18.302 18.638,23.102 20.637,23.071"/>
<polygon fill="#ff7f0e" fill-opacity="0.160" stroke="#ff7f0e" stroke-opacity="0.55" stroke-width="0.07" points="20.568,18.591 18.568,18.622 18.643,23.421 20.642,23.390"/>
<polygon fill="#ff7f0e" fill-opacity="0.160" stroke="#ff7f0e" stroke-opacity="0.55" stroke-width="0.07" points="20.573,18.906 18.573,18.937 18.648,23.737 20.647,23.706"/>
<polygon fill="#ff7f0e" fill-opacity="0.160" stroke="#ff7f0e" stroke-opacity="0.55" stroke-width="0.07" points="20.578,19.221 18.578,19.252 18.652,24.052 20.652,24.021"/>
<polygon fill="#ff7f0e" fill-opacity="0.160" stroke="#ff7f0e" stroke-opacity="0.55" stroke-width="0.07" points="20.583,19.536 18.583,19.567 18.657,24.367 20.657,24.336"/>
<polygon fill="#ff7f0e" fill-opacity="0.160" stroke="#ff7f0e" stroke-opacity="0.55" stroke-width="0.07" points="20.588,19.851 18.588,19.882 18.662,24.682 20.662,24.651"/>
<polygon fill="#ff7f0e" fill-opacity="0.160" stroke="#ff7f0e" stroke-opacity="0.55" stroke-width="0.07" points="20.588,19.851 18.588,19.882 18.662,24.682 20.662,24.651"/>
<polygon fill="none" stroke="crimson" stroke-width="0.120" points="20.588,19.851 18.588,19.882 18.662,24.682 20.662,24.651"/>
</g>
</svg>
